<?xml version="1.0" encoding="utf-8" standalone="no"?>
<!DOCTYPE svg PUBLIC "-//W3C//DTD SVG 1.1//EN"
  "http://www.w3.org/Graphics/SVG/1.1/DTD/svg11.dtd">
<svg xmlns:xlink="http://www.w3.org/1999/xlink" width="460.8pt" height="345.6pt" viewBox="0 0 460.8 345.6" xmlns="http://www.w3.org/2000/svg" version="1.1">
 <metadata>
  <rdf:RDF xmlns:dc="http://purl.org/dc/elements/1.1/" xmlns:cc="http://creativecommons.org/ns#" xmlns:rdf="http://www.w3.org/1999/02/22-rdf-syntax-ns#">
   <cc:Work>
    <dc:type rdf:resource="http://purl.org/dc/dcmitype/StillImage"/>
    <dc:date>2023-05-16T13:39:48.134085</dc:date>
    <dc:format>image/svg+xml</dc:format>
    <dc:creator>
     <cc:Agent>
      <dc:title>Matplotlib v3.6.2, https://matplotlib.org/</dc:title>
     </cc:Agent>
    </dc:creator>
   </cc:Work>
  </rdf:RDF>
 </metadata>
 <defs>
  <style type="text/css">*{stroke-linejoin: round; stroke-linecap: butt}</style>
 </defs>
 <g id="figure_1">
  <g id="patch_1">
   <path d="M 0 345.6 
L 460.8 345.6 
L 460.8 0 
L 0 0 
z
" style="fill: #ffffff"/>
  </g>
  <g id="axes_1">
   <g id="patch_2">
    <path d="M 57.6 307.584 
L 414.72 307.584 
L 414.72 41.472 
L 57.6 41.472 
z
" style="fill: #ffffff"/>
   </g>
   <g id="matplotlib.axis_1">
    <g id="xtick_1">
     <g id="line2d_1">
      <defs>
       <path id="ma2ae3f5ff6" d="M 0 0 
L 0 3.5 
" style="stroke: #000000; stroke-width: 0.8"/>
      </defs>
      <g>
       <use xlink:href="#ma2ae3f5ff6" x="73.832727" y="307.584" style="stroke: #000000; stroke-width: 0.8"/>
      </g>
     </g>
     <g id="text_1">
      <!-- 0 -->
      <g transform="translate(70.651477 322.182437) scale(0.1 -0.1)">
       <defs>
        <path id="DejaVuSans-30" d="M 2034 4250 
Q 1547 4250 1301 3770 
Q 1056 3291 1056 2328 
Q 1056 1369 1301 889 
Q 1547 409 2034 409 
Q 2525 409 2770 889 
Q 3016 1369 3016 2328 
Q 3016 3291 2770 3770 
Q 2525 4250 2034 4250 
z
M 2034 4750 
Q 2819 4750 3233 4129 
Q 3647 3509 3647 2328 
Q 3647 1150 3233 529 
Q 2819 -91 2034 -91 
Q 1250 -91 836 529 
Q 422 1150 422 2328 
Q 422 3509 836 4129 
Q 1250 4750 2034 4750 
z
" transform="scale(0.015625)"/>
       </defs>
       <use xlink:href="#DejaVuSans-30"/>
      </g>
     </g>
    </g>
    <g id="xtick_2">
     <g id="line2d_2">
      <g>
       <use xlink:href="#ma2ae3f5ff6" x="138.763636" y="307.584" style="stroke: #000000; stroke-width: 0.8"/>
      </g>
     </g>
     <g id="text_2">
      <!-- 20 -->
      <g transform="translate(132.401136 322.182437) scale(0.1 -0.1)">
       <defs>
        <path id="DejaVuSans-32" d="M 1228 531 
L 3431 531 
L 3431 0 
L 469 0 
L 469 531 
Q 828 903 1448 1529 
Q 2069 2156 2228 2338 
Q 2531 2678 2651 2914 
Q 2772 3150 2772 3378 
Q 2772 3750 2511 3984 
Q 2250 4219 1831 4219 
Q 1534 4219 1204 4116 
Q 875 4013 500 3803 
L 500 4441 
Q 881 4594 1212 4672 
Q 1544 4750 1819 4750 
Q 2544 4750 2975 4387 
Q 3406 4025 3406 3419 
Q 3406 3131 3298 2873 
Q 3191 2616 2906 2266 
Q 2828 2175 2409 1742 
Q 1991 1309 1228 531 
z
" transform="scale(0.015625)"/>
       </defs>
       <use xlink:href="#DejaVuSans-32"/>
       <use xlink:href="#DejaVuSans-30" x="63.623047"/>
      </g>
     </g>
    </g>
    <g id="xtick_3">
     <g id="line2d_3">
      <g>
       <use xlink:href="#ma2ae3f5ff6" x="203.694545" y="307.584" style="stroke: #000000; stroke-width: 0.8"/>
      </g>
     </g>
     <g id="text_3">
      <!-- 40 -->
      <g transform="translate(197.332045 322.182437) scale(0.1 -0.1)">
       <defs>
        <path id="DejaVuSans-34" d="M 2419 4116 
L 825 1625 
L 2419 1625 
L 2419 4116 
z
M 2253 4666 
L 3047 4666 
L 3047 1625 
L 3713 1625 
L 3713 1100 
L 3047 1100 
L 3047 0 
L 2419 0 
L 2419 1100 
L 313 1100 
L 313 1709 
L 2253 4666 
z
" transform="scale(0.015625)"/>
       </defs>
       <use xlink:href="#DejaVuSans-34"/>
       <use xlink:href="#DejaVuSans-30" x="63.623047"/>
      </g>
     </g>
    </g>
    <g id="xtick_4">
     <g id="line2d_4">
      <g>
       <use xlink:href="#ma2ae3f5ff6" x="268.625455" y="307.584" style="stroke: #000000; stroke-width: 0.8"/>
      </g>
     </g>
     <g id="text_4">
      <!-- 60 -->
      <g transform="translate(262.262955 322.182437) scale(0.1 -0.1)">
       <defs>
        <path id="DejaVuSans-36" d="M 2113 2584 
Q 1688 2584 1439 2293 
Q 1191 2003 1191 1497 
Q 1191 994 1439 701 
Q 1688 409 2113 409 
Q 2538 409 2786 701 
Q 3034 994 3034 1497 
Q 3034 2003 2786 2293 
Q 2538 2584 2113 2584 
z
M 3366 4563 
L 3366 3988 
Q 3128 4100 2886 4159 
Q 2644 4219 2406 4219 
Q 1781 4219 1451 3797 
Q 1122 3375 1075 2522 
Q 1259 2794 1537 2939 
Q 1816 3084 2150 3084 
Q 2853 3084 3261 2657 
Q 3669 2231 3669 1497 
Q 3669 778 3244 343 
Q 2819 -91 2113 -91 
Q 1303 -91 875 529 
Q 447 1150 447 2328 
Q 447 3434 972 4092 
Q 1497 4750 2381 4750 
Q 2619 4750 2861 4703 
Q 3103 4656 3366 4563 
z
" transform="scale(0.015625)"/>
       </defs>
       <use xlink:href="#DejaVuSans-36"/>
       <use xlink:href="#DejaVuSans-30" x="63.623047"/>
      </g>
     </g>
    </g>
    <g id="xtick_5">
     <g id="line2d_5">
      <g>
       <use xlink:href="#ma2ae3f5ff6" x="333.556364" y="307.584" style="stroke: #000000; stroke-width: 0.8"/>
      </g>
     </g>
     <g id="text_5">
      <!-- 80 -->
      <g transform="translate(327.193864 322.182437) scale(0.1 -0.1)">
       <defs>
        <path id="DejaVuSans-38" d="M 2034 2216 
Q 1584 2216 1326 1975 
Q 1069 1734 1069 1313 
Q 1069 891 1326 650 
Q 1584 409 2034 409 
Q 2484 409 2743 651 
Q 3003 894 3003 1313 
Q 3003 1734 2745 1975 
Q 2488 2216 2034 2216 
z
M 1403 2484 
Q 997 2584 770 2862 
Q 544 3141 544 3541 
Q 544 4100 942 4425 
Q 1341 4750 2034 4750 
Q 2731 4750 3128 4425 
Q 3525 4100 3525 3541 
Q 3525 3141 3298 2862 
Q 3072 2584 2669 2484 
Q 3125 2378 3379 2068 
Q 3634 1759 3634 1313 
Q 3634 634 3220 271 
Q 2806 -91 2034 -91 
Q 1263 -91 848 271 
Q 434 634 434 1313 
Q 434 1759 690 2068 
Q 947 2378 1403 2484 
z
M 1172 3481 
Q 1172 3119 1398 2916 
Q 1625 2713 2034 2713 
Q 2441 2713 2670 2916 
Q 2900 3119 2900 3481 
Q 2900 3844 2670 4047 
Q 2441 4250 2034 4250 
Q 1625 4250 1398 4047 
Q 1172 3844 1172 3481 
z
" transform="scale(0.015625)"/>
       </defs>
       <use xlink:href="#DejaVuSans-38"/>
       <use xlink:href="#DejaVuSans-30" x="63.623047"/>
      </g>
     </g>
    </g>
    <g id="xtick_6">
     <g id="line2d_6">
      <g>
       <use xlink:href="#ma2ae3f5ff6" x="398.487273" y="307.584" style="stroke: #000000; stroke-width: 0.8"/>
      </g>
     </g>
     <g id="text_6">
      <!-- 100 -->
      <g transform="translate(388.943523 322.182437) scale(0.1 -0.1)">
       <defs>
        <path id="DejaVuSans-31" d="M 794 531 
L 1825 531 
L 1825 4091 
L 703 3866 
L 703 4441 
L 1819 4666 
L 2450 4666 
L 2450 531 
L 3481 531 
L 3481 0 
L 794 0 
L 794 531 
z
" transform="scale(0.015625)"/>
       </defs>
       <use xlink:href="#DejaVuSans-31"/>
       <use xlink:href="#DejaVuSans-30" x="63.623047"/>
       <use xlink:href="#DejaVuSans-30" x="127.246094"/>
      </g>
     </g>
    </g>
   </g>
   <g id="matplotlib.axis_2">
    <g id="ytick_1">
     <g id="line2d_7">
      <defs>
       <path id="m376503e75d" d="M 0 0 
L -3.5 0 
" style="stroke: #000000; stroke-width: 0.8"/>
      </defs>
      <g>
       <use xlink:href="#m376503e75d" x="57.6" y="295.521944" style="stroke: #000000; stroke-width: 0.8"/>
      </g>
     </g>
     <g id="text_7">
      <!-- 0.00 -->
      <g transform="translate(28.334375 299.321163) scale(0.1 -0.1)">
       <defs>
        <path id="DejaVuSans-2e" d="M 684 794 
L 1344 794 
L 1344 0 
L 684 0 
L 684 794 
z
" transform="scale(0.015625)"/>
       </defs>
       <use xlink:href="#DejaVuSans-30"/>
       <use xlink:href="#DejaVuSans-2e" x="63.623047"/>
       <use xlink:href="#DejaVuSans-30" x="95.410156"/>
       <use xlink:href="#DejaVuSans-30" x="159.033203"/>
      </g>
     </g>
    </g>
    <g id="ytick_2">
     <g id="line2d_8">
      <g>
       <use xlink:href="#m376503e75d" x="57.6" y="256.179889" style="stroke: #000000; stroke-width: 0.8"/>
      </g>
     </g>
     <g id="text_8">
      <!-- 0.01 -->
      <g transform="translate(28.334375 259.979107) scale(0.1 -0.1)">
       <use xlink:href="#DejaVuSans-30"/>
       <use xlink:href="#DejaVuSans-2e" x="63.623047"/>
       <use xlink:href="#DejaVuSans-30" x="95.410156"/>
       <use xlink:href="#DejaVuSans-31" x="159.033203"/>
      </g>
     </g>
    </g>
    <g id="ytick_3">
     <g id="line2d_9">
      <g>
       <use xlink:href="#m376503e75d" x="57.6" y="216.837833" style="stroke: #000000; stroke-width: 0.8"/>
      </g>
     </g>
     <g id="text_9">
      <!-- 0.02 -->
      <g transform="translate(28.334375 220.637052) scale(0.1 -0.1)">
       <use xlink:href="#DejaVuSans-30"/>
       <use xlink:href="#DejaVuSans-2e" x="63.623047"/>
       <use xlink:href="#DejaVuSans-30" x="95.410156"/>
       <use xlink:href="#DejaVuSans-32" x="159.033203"/>
      </g>
     </g>
    </g>
    <g id="ytick_4">
     <g id="line2d_10">
      <g>
       <use xlink:href="#m376503e75d" x="57.6" y="177.495777" style="stroke: #000000; stroke-width: 0.8"/>
      </g>
     </g>
     <g id="text_10">
      <!-- 0.03 -->
      <g transform="translate(28.334375 181.294996) scale(0.1 -0.1)">
       <defs>
        <path id="DejaVuSans-33" d="M 2597 2516 
Q 3050 2419 3304 2112 
Q 3559 1806 3559 1356 
Q 3559 666 3084 287 
Q 2609 -91 1734 -91 
Q 1441 -91 1130 -33 
Q 819 25 488 141 
L 488 750 
Q 750 597 1062 519 
Q 1375 441 1716 441 
Q 2309 441 2620 675 
Q 2931 909 2931 1356 
Q 2931 1769 2642 2001 
Q 2353 2234 1838 2234 
L 1294 2234 
L 1294 2753 
L 1863 2753 
Q 2328 2753 2575 2939 
Q 2822 3125 2822 3475 
Q 2822 3834 2567 4026 
Q 2313 4219 1838 4219 
Q 1578 4219 1281 4162 
Q 984 4106 628 3988 
L 628 4550 
Q 988 4650 1302 4700 
Q 1616 4750 1894 4750 
Q 2613 4750 3031 4423 
Q 3450 4097 3450 3541 
Q 3450 3153 3228 2886 
Q 3006 2619 2597 2516 
z
" transform="scale(0.015625)"/>
       </defs>
       <use xlink:href="#DejaVuSans-30"/>
       <use xlink:href="#DejaVuSans-2e" x="63.623047"/>
       <use xlink:href="#DejaVuSans-30" x="95.410156"/>
       <use xlink:href="#DejaVuSans-33" x="159.033203"/>
      </g>
     </g>
    </g>
    <g id="ytick_5">
     <g id="line2d_11">
      <g>
       <use xlink:href="#m376503e75d" x="57.6" y="138.153722" style="stroke: #000000; stroke-width: 0.8"/>
      </g>
     </g>
     <g id="text_11">
      <!-- 0.04 -->
      <g transform="translate(28.334375 141.95294) scale(0.1 -0.1)">
       <use xlink:href="#DejaVuSans-30"/>
       <use xlink:href="#DejaVuSans-2e" x="63.623047"/>
       <use xlink:href="#DejaVuSans-30" x="95.410156"/>
       <use xlink:href="#DejaVuSans-34" x="159.033203"/>
      </g>
     </g>
    </g>
    <g id="ytick_6">
     <g id="line2d_12">
      <g>
       <use xlink:href="#m376503e75d" x="57.6" y="98.811666" style="stroke: #000000; stroke-width: 0.8"/>
      </g>
     </g>
     <g id="text_12">
      <!-- 0.05 -->
      <g transform="translate(28.334375 102.610885) scale(0.1 -0.1)">
       <defs>
        <path id="DejaVuSans-35" d="M 691 4666 
L 3169 4666 
L 3169 4134 
L 1269 4134 
L 1269 2991 
Q 1406 3038 1543 3061 
Q 1681 3084 1819 3084 
Q 2600 3084 3056 2656 
Q 3513 2228 3513 1497 
Q 3513 744 3044 326 
Q 2575 -91 1722 -91 
Q 1428 -91 1123 -41 
Q 819 9 494 109 
L 494 744 
Q 775 591 1075 516 
Q 1375 441 1709 441 
Q 2250 441 2565 725 
Q 2881 1009 2881 1497 
Q 2881 1984 2565 2268 
Q 2250 2553 1709 2553 
Q 1456 2553 1204 2497 
Q 953 2441 691 2322 
L 691 4666 
z
" transform="scale(0.015625)"/>
       </defs>
       <use xlink:href="#DejaVuSans-30"/>
       <use xlink:href="#DejaVuSans-2e" x="63.623047"/>
       <use xlink:href="#DejaVuSans-30" x="95.410156"/>
       <use xlink:href="#DejaVuSans-35" x="159.033203"/>
      </g>
     </g>
    </g>
    <g id="ytick_7">
     <g id="line2d_13">
      <g>
       <use xlink:href="#m376503e75d" x="57.6" y="59.46961" style="stroke: #000000; stroke-width: 0.8"/>
      </g>
     </g>
     <g id="text_13">
      <!-- 0.06 -->
      <g transform="translate(28.334375 63.268829) scale(0.1 -0.1)">
       <use xlink:href="#DejaVuSans-30"/>
       <use xlink:href="#DejaVuSans-2e" x="63.623047"/>
       <use xlink:href="#DejaVuSans-30" x="95.410156"/>
       <use xlink:href="#DejaVuSans-36" x="159.033203"/>
      </g>
     </g>
    </g>
   </g>
   <g id="line2d_14">
    <path d="M 73.832727 228.959983 
L 398.487273 91.948926 
L 73.832727 165.098052 
L 80.325818 183.03573 
L 86.818909 132.39567 
L 99.805091 68.582212 
L 112.791273 252.478832 
L 119.284364 194.243621 
L 132.270545 160.196145 
L 145.256727 100.772746 
L 158.242909 265.369659 
L 164.736 109.507934 
L 177.722182 94.391923 
L 190.708364 259.770598 
L 197.201455 286.233926 
L 203.694545 266.48622 
L 210.187636 225.337045 
L 223.173818 261.158152 
L 229.666909 171.27345 
L 236.16 65.897802 
L 242.653091 280.738959 
L 255.639273 293.701019 
L 262.132364 111.80606 
L 268.625455 229.567195 
L 275.118545 277.058402 
L 288.104727 294.922786 
L 301.090909 276.44671 
L 307.584 197.101579 
L 314.077091 106.040857 
L 320.570182 294.572044 
L 333.556364 283.221755 
L 346.542545 276.636197 
L 353.035636 95.261929 
L 359.528727 196.090628 
L 366.021818 96.909989 
L 372.514909 168.823618 
L 379.008 180.101964 
L 385.501091 170.028245 
L 398.487273 143.07552 
L 73.832727 259.929242 
L 80.45833 293.537806 
L 87.083933 96.473638 
L 93.709536 185.223326 
L 100.335139 108.255212 
L 106.960742 209.393421 
L 113.586345 110.236916 
L 126.837551 142.748912 
L 140.088757 222.448385 
L 146.71436 166.935044 
L 153.339963 175.422918 
L 166.591169 123.565118 
L 173.216772 76.255767 
L 186.467978 283.141769 
L 193.093581 294.545023 
L 199.719184 83.331577 
L 212.97039 198.127986 
L 226.221596 190.739694 
L 239.472801 289.770726 
L 246.098404 138.990069 
L 259.34961 138.931749 
L 265.975213 218.455155 
L 279.226419 139.419658 
L 292.477625 229.73265 
L 299.103228 254.592335 
L 312.354434 260.888151 
L 325.60564 225.993299 
L 338.856846 101.004948 
L 345.482449 252.718131 
L 352.108052 140.862266 
L 358.733655 67.71606 
L 371.984861 254.478266 
L 378.610464 175.010158 
L 391.86167 188.532568 
L 398.487273 78.224883 
L 73.832727 215.067355 
L 94.778182 93.69976 
L 115.723636 150.959869 
L 136.669091 214.147706 
L 147.141818 279.545213 
L 157.614545 277.822815 
L 168.087273 277.655979 
L 178.56 277.868377 
L 189.032727 283.480947 
L 199.505455 54.381873 
L 220.450909 165.837552 
L 241.396364 222.100317 
L 251.869091 99.256975 
L 262.341818 76.94181 
L 283.287273 76.321754 
L 304.232727 178.455477 
L 325.178182 64.776249 
L 346.123636 256.136287 
L 356.596364 189.261976 
L 367.069091 290.706192 
L 377.541818 224.766477 
L 398.487273 278.962066 
L 73.832727 116.880647 
L 100.887273 266.198274 
L 154.996364 67.99881 
L 209.105455 242.436046 
L 236.16 294.243452 
L 263.214545 247.525245 
L 290.269091 235.711059 
L 317.323636 254.469067 
L 344.378182 295.232104 
L 398.487273 217.399536 
L 73.832727 120.926081 
L 102.063557 71.677463 
L 130.294387 127.227205 
L 158.525217 258.482786 
L 172.640632 122.130395 
L 186.756047 192.94797 
L 200.871462 271.516883 
L 229.102292 261.55853 
L 243.217708 293.151256 
L 257.333123 226.958689 
L 271.448538 264.588556 
L 285.563953 55.800889 
L 299.679368 183.625865 
L 313.794783 127.110744 
L 327.910198 290.180001 
L 342.025613 281.917959 
L 356.141028 192.372477 
L 370.256443 158.875709 
L 398.487273 273.012765 
L 73.832727 216.570613 
L 398.487273 74.496362 
L 73.832727 267.955046 
L 236.16 293.547979 
L 317.323636 284.390261 
L 398.487273 70.313297 
L 73.832727 165.468427 
L 127.941818 253.076898 
L 236.16 98.87542 
L 290.269091 269.911204 
L 344.378182 140.537419 
L 398.487273 152.537125 
L 73.832727 153.763847 
L 109.905455 250.441454 
L 127.941818 181.459786 
L 145.978182 130.146259 
L 182.050909 78.676464 
L 218.123636 63.359725 
L 254.196364 231.89759 
L 272.232727 281.856665 
L 290.269091 171.853949 
L 308.305455 281.426923 
L 326.341818 79.687849 
L 344.378182 220.218683 
L 362.414545 138.717256 
L 398.487273 113.148763 
L 73.832727 285.79613 
L 95.476364 286.762107 
L 117.12 137.743831 
L 138.763636 190.532579 
L 182.050909 293.712494 
L 203.694545 82.991176 
L 246.981818 109.623321 
L 268.625455 100.694026 
L 290.269091 184.234606 
L 311.912727 229.298963 
L 333.556364 269.855649 
L 355.2 55.183248 
L 376.843636 277.988944 
L 398.487273 191.706829 
L 73.832727 256.110525 
L 104.752208 173.084747 
L 120.211948 154.187995 
L 151.131429 95.765355 
L 182.050909 243.272161 
L 197.510649 282.814931 
L 212.97039 213.509743 
L 228.43013 293.780512 
L 243.88987 257.529046 
L 259.34961 64.305066 
L 274.809351 173.106819 
L 290.269091 242.251923 
L 305.728831 188.645281 
L 321.188571 254.256955 
L 336.648312 162.408661 
L 367.567792 192.356627 
L 383.027532 278.832503 
L 398.487273 117.308192 
L 73.832727 129.614937 
L 81.047273 287.252739 
L 88.261818 177.153798 
L 102.690909 58.771719 
L 117.12 161.765421 
L 124.334545 275.69536 
L 131.549091 283.7528 
L 138.763636 103.638768 
L 145.978182 293.307356 
L 160.407273 290.682672 
L 167.621818 274.511878 
L 174.836364 87.926153 
L 182.050909 288.599033 
L 196.48 121.360228 
L 210.909091 95.168963 
L 225.338182 174.587846 
L 239.767273 181.580245 
L 246.981818 189.938026 
L 261.410909 120.486444 
L 268.625455 249.967581 
L 283.054545 272.327027 
L 290.269091 197.557276 
L 297.483636 146.947213 
L 304.698182 148.248805 
L 319.127273 268.077742 
L 333.556364 281.857423 
L 340.770909 125.825202 
L 347.985455 90.439917 
L 355.2 113.531703 
L 369.629091 203.6154 
L 384.058182 114.654908 
L 398.487273 98.161955 
L 73.832727 84.886893 
L 117.12 270.834577 
L 138.763636 262.707439 
L 160.407273 59.88325 
L 182.050909 103.091446 
L 225.338182 281.665391 
L 268.625455 271.978663 
L 311.912727 179.999675 
L 355.2 193.093488 
L 398.487273 86.928247 
L 73.832727 171.809668 
L 100.887273 119.973874 
L 127.941818 139.878721 
L 182.050909 271.198927 
L 209.105455 153.355446 
L 236.16 208.887119 
L 290.269091 57.861933 
L 344.378182 151.32058 
L 371.432727 281.242359 
L 398.487273 156.331964 
L 73.832727 260.508055 
L 182.050909 123.45333 
L 290.269091 82.936021 
L 344.378182 67.670666 
L 398.487273 253.724228 
L 73.832727 136.478778 
L 109.905455 284.498935 
L 145.978182 163.094788 
L 182.050909 244.146734 
L 218.123636 138.271973 
L 254.196364 284.437175 
L 290.269091 103.99726 
L 326.341818 195.028707 
L 398.487273 81.173394 
L 73.832727 238.701291 
L 114.414545 131.029114 
L 195.578182 275.883445 
L 236.16 290.113837 
L 317.323636 288.378259 
L 357.905455 294.320916 
L 398.487273 275.252788 
L 73.832727 149.424134 
L 114.414545 140.319922 
L 154.996364 102.097471 
L 236.16 273.517695 
L 276.741818 67.046781 
L 317.323636 146.478708 
L 398.487273 222.230319 
L 73.832727 220.224506 
L 106.298182 266.217495 
L 138.763636 101.217911 
L 171.229091 279.80972 
L 203.694545 291.636019 
L 236.16 251.173117 
L 301.090909 250.056424 
L 366.021818 141.087203 
L 398.487273 260.098157 
L 73.832727 267.74723 
L 182.050909 284.750572 
L 290.269091 293.748987 
L 398.487273 223.951979 
L 73.832727 228.226725 
L 92.930053 67.326348 
L 112.02738 253.422653 
L 131.124706 166.861025 
L 169.319358 125.135371 
L 188.416684 273.00923 
L 226.611337 279.971178 
L 264.805989 187.509903 
L 283.903316 92.099762 
L 303.000642 170.376817 
L 341.195294 223.799177 
L 360.29262 258.902288 
L 398.487273 106.491217 
L 73.832727 231.1878 
L 100.887273 160.130311 
L 127.941818 270.005759 
L 154.996364 272.386187 
L 182.050909 169.539853 
L 236.16 231.73925 
L 263.214545 222.700753 
L 290.269091 58.192291 
L 317.323636 103.701539 
L 344.378182 148.504393 
L 398.487273 177.153505 
L 73.832727 63.036908 
L 91.869091 154.81844 
L 127.941818 195.151558 
L 145.978182 276.125499 
L 182.050909 177.474932 
L 200.087273 256.852065 
L 218.123636 284.221357 
L 236.16 84.910856 
L 272.232727 88.887473 
L 308.305455 290.991947 
L 326.341818 171.971065 
L 362.414545 132.431716 
L 398.487273 223.514734 
L 73.832727 175.026022 
L 154.996364 84.582838 
L 236.16 94.643677 
L 317.323636 106.619332 
L 398.487273 190.19389 
L 73.832727 98.705426 
L 114.414545 281.406973 
L 154.996364 89.346669 
L 195.578182 281.737423 
L 236.16 120.903764 
L 276.741818 262.89281 
L 317.323636 266.991155 
L 357.905455 281.553376 
L 398.487273 76.686855 
L 73.832727 80.336959 
L 154.996364 183.939412 
L 236.16 217.813052 
L 398.487273 289.969862 
L 73.832727 116.041146 
L 236.16 283.81843 
L 398.487273 212.560592 
L 73.832727 248.372929 
L 95.476364 238.799174 
L 117.12 272.504167 
L 138.763636 263.159901 
L 160.407273 142.194857 
L 182.050909 261.23843 
L 203.694545 62.412964 
L 225.338182 88.820361 
L 246.981818 153.407776 
L 268.625455 153.515659 
L 290.269091 271.601806 
L 311.912727 273.633692 
L 333.556364 223.044883 
L 376.843636 237.046226 
L 398.487273 119.96601 
L 73.832727 170.400083 
L 108.00689 247.488518 
L 142.181053 270.489546 
L 159.268134 54.818905 
L 193.442297 148.894535 
L 227.616459 240.601958 
L 244.703541 131.924028 
L 261.790622 143.025318 
L 295.964785 175.377372 
L 313.051866 156.901144 
L 330.138947 205.496628 
L 347.226029 287.397519 
L 381.400191 212.568443 
L 398.487273 98.561067 
L 73.832727 223.625344 
L 95.476364 211.304738 
L 117.12 110.303557 
L 138.763636 234.662127 
L 160.407273 192.266253 
L 203.694545 181.609095 
L 225.338182 248.924485 
L 246.981818 154.618787 
L 268.625455 159.547938 
L 290.269091 159.941311 
L 311.912727 120.022804 
L 333.556364 66.998281 
L 355.2 204.730004 
L 376.843636 86.793981 
L 398.487273 232.005927 
L 73.832727 149.199095 
L 154.996364 186.473286 
L 236.16 86.060596 
L 398.487273 247.053975 
L 73.832727 262.128594 
L 154.996364 174.283434 
L 236.16 234.484946 
L 398.487273 76.515937 
L 73.832727 280.477892 
L 127.941818 125.295397 
L 182.050909 241.263417 
L 290.269091 144.842234 
L 398.487273 290.696645 
L 73.832727 256.367414 
L 100.887273 182.360726 
L 127.941818 211.881019 
L 154.996364 222.773659 
L 182.050909 255.618983 
L 209.105455 251.144219 
L 236.16 238.499115 
L 290.269091 81.737683 
L 344.378182 215.141971 
L 398.487273 282.672028 
L 73.832727 259.611379 
L 120.211948 151.80713 
L 143.401558 236.359303 
L 166.591169 194.949145 
L 212.97039 283.889815 
L 236.16 219.158604 
L 282.539221 266.281845 
L 328.918442 117.939422 
L 352.108052 294.133497 
L 375.297662 230.388783 
L 398.487273 263.40628 
L 73.832727 292.348665 
L 182.050909 174.53602 
L 398.487273 290.760894 
L 73.832727 290.747306 
L 83.978182 286.599391 
L 94.123636 126.1729 
L 104.269091 223.037374 
L 114.414545 70.900578 
L 124.56 219.965022 
L 144.850909 210.476216 
L 165.141818 163.603043 
L 175.287273 251.696423 
L 195.578182 208.044792 
L 215.869091 118.652934 
L 226.014545 250.355157 
L 246.305455 123.302754 
L 266.596364 145.567893 
L 286.887273 259.716779 
L 307.178182 220.554679 
L 327.469091 199.456684 
L 337.614545 179.834712 
L 347.76 156.341022 
L 357.905455 269.350469 
L 368.050909 246.39935 
L 378.196364 188.609272 
L 388.341818 223.440927 
L 398.487273 102.980146 
L 73.832727 272.663323 
L 182.050909 232.161916 
L 398.487273 62.519439 
L 73.832727 140.804006 
L 109.905455 207.195663 
L 145.978182 282.535309 
L 182.050909 196.694076 
L 218.123636 94.785802 
L 254.196364 215.397833 
L 290.269091 295.113641 
L 326.341818 84.724494 
L 398.487273 63.425726 
L 73.832727 258.576603 
L 98.806154 290.83703 
L 111.292867 143.948567 
L 123.77958 121.72767 
L 136.266294 182.493863 
L 161.23972 109.163598 
L 173.726434 242.386449 
L 186.213147 176.442538 
L 198.69986 63.57522 
L 211.186573 225.999251 
L 223.673287 88.764085 
L 236.16 152.522214 
L 248.646713 146.840607 
L 273.62014 272.821009 
L 286.106853 290.732973 
L 311.08028 187.65279 
L 323.566993 65.263031 
L 336.053706 106.130186 
L 361.027133 123.028023 
L 386.000559 117.496988 
L 398.487273 210.749251 
L 73.832727 59.002724 
L 182.050909 97.074754 
L 236.16 277.529497 
L 290.269091 242.954967 
L 344.378182 278.506805 
L 398.487273 250.601475 
L 73.832727 286.354604 
L 154.996364 131.750902 
L 317.323636 171.889334 
L 398.487273 288.169441 
L 73.832727 235.714431 
L 154.996364 282.655429 
L 195.578182 222.297937 
L 236.16 72.364117 
L 276.741818 222.70607 
L 357.905455 117.960838 
L 398.487273 262.769354 
L 73.832727 262.193727 
L 132.860826 173.822761 
L 162.374876 75.519789 
L 191.888926 218.810008 
L 221.402975 89.392906 
L 250.917025 132.942299 
L 280.431074 292.494122 
L 309.945124 218.693795 
L 368.973223 74.139116 
L 398.487273 269.318951 
L 73.832727 294.483214 
L 236.16 189.219901 
L 398.487273 292.787407 
L 73.832727 116.495188 
L 182.050909 169.336645 
L 290.269091 224.89667 
L 398.487273 208.207722 
L 73.832727 137.822803 
L 236.16 197.672583 
L 398.487273 165.88662 
L 73.832727 256.036511 
L 236.16 278.912083 
L 317.323636 108.529499 
L 398.487273 171.899315 
L 73.832727 90.248538 
L 236.16 122.253929 
L 398.487273 72.642583 
L 73.832727 111.176791 
L 182.050909 255.264756 
L 290.269091 176.329665 
L 398.487273 223.801452 
L 73.832727 149.462297 
L 109.905455 227.864175 
L 182.050909 166.331266 
L 218.123636 145.660436 
L 290.269091 182.336007 
L 326.341818 136.870699 
L 398.487273 254.357621 
L 73.832727 106.83815 
L 182.050909 286.070883 
L 290.269091 130.895389 
L 398.487273 179.019068 
L 73.832727 97.336317 
L 182.050909 224.914841 
L 236.16 93.056233 
L 290.269091 175.785331 
L 398.487273 164.117305 
L 73.832727 288.030234 
L 182.050909 288.886266 
L 398.487273 233.222743 
L 73.832727 85.905781 
L 236.16 278.169493 
L 398.487273 217.754593 
L 73.832727 63.231491 
L 138.763636 69.007194 
L 268.625455 144.647377 
L 398.487273 289.620913 
L 73.832727 196.649943 
L 398.487273 55.832672 
L 73.832727 285.860503 
L 182.050909 120.055269 
L 398.487273 154.066789 
L 73.832727 294.989064 
L 138.763636 63.346612 
L 203.694545 293.936999 
L 236.16 70.24625 
L 301.090909 281.72983 
L 366.021818 251.866844 
L 398.487273 236.514268 
L 73.832727 271.912465 
L 120.211948 115.579727 
L 212.97039 138.822472 
L 305.728831 131.926479 
L 398.487273 189.155327 
L 73.832727 54.416456 
L 398.487273 134.606386 
L 73.832727 77.027983 
L 398.487273 128.072935 
L 73.832727 54.896197 
L 109.905455 283.43753 
L 127.941818 288.458933 
L 164.014545 139.657099 
L 200.087273 294.993147 
L 218.123636 294.11494 
L 236.16 210.336798 
L 272.232727 69.115644 
L 290.269091 247.066084 
L 308.305455 283.78453 
L 326.341818 277.363875 
L 344.378182 129.631935 
L 362.414545 249.121997 
L 398.487273 295.21565 
L 73.832727 61.211356 
L 398.487273 187.460245 
L 73.832727 190.438926 
L 166.591169 163.477689 
L 259.34961 82.258469 
L 352.108052 212.00052 
L 398.487273 233.486538 
L 73.832727 211.660815 
L 103.346777 118.344311 
L 162.374876 204.622964 
L 221.402975 149.218992 
L 280.431074 194.584843 
L 339.459174 238.968099 
L 398.487273 290.086286 
L 73.832727 253.63269 
L 154.996364 272.240771 
L 236.16 204.843003 
L 317.323636 259.702303 
L 398.487273 283.08355 
L 73.832727 120.443523 
L 203.694545 55.71367 
L 268.625455 272.670582 
L 333.556364 175.26539 
L 398.487273 231.541173 
L 73.832727 68.140996 
L 117.12 137.852607 
L 160.407273 276.845211 
L 182.050909 292.805793 
L 203.694545 112.887928 
L 225.338182 198.541331 
L 246.981818 230.90754 
L 268.625455 110.245493 
L 290.269091 241.931418 
L 311.912727 223.010604 
L 333.556364 267.073425 
L 355.2 86.539673 
L 376.843636 205.521511 
L 398.487273 222.915065 
L 73.832727 201.727646 
L 290.269091 60.798771 
L 398.487273 88.038088 
L 73.832727 95.555286 
L 182.050909 72.829198 
L 398.487273 96.074796 
L 73.832727 236.647406 
L 290.269091 158.136261 
L 398.487273 138.585278 
L 73.832727 214.198057 
L 290.269091 276.978948 
L 398.487273 266.272776 
L 73.832727 268.497048 
L 92.930053 282.526303 
L 112.02738 268.457527 
L 150.222032 284.745381 
L 169.319358 212.99372 
L 207.514011 210.195704 
L 245.708663 129.352472 
L 283.903316 158.402229 
L 322.097968 210.930599 
L 360.29262 162.744703 
L 398.487273 243.08053 
L 73.832727 294.639324 
L 138.763636 273.876417 
L 203.694545 276.639624 
L 268.625455 147.870059 
L 398.487273 140.634654 
L 73.832727 278.976471 
L 138.763636 293.492809 
L 203.694545 203.385414 
L 268.625455 66.950632 
L 398.487273 199.703308 
L 73.832727 185.780929 
L 290.269091 215.098395 
L 398.487273 152.915864 
L 73.832727 174.231034 
L 398.487273 225.766478 
L 73.832727 125.747119 
L 120.211948 211.367357 
L 166.591169 242.568294 
L 189.780779 244.145558 
L 212.97039 254.204372 
L 236.16 93.083351 
L 282.539221 203.093379 
L 305.728831 261.375883 
L 352.108052 236.915185 
L 398.487273 262.517352 
L 73.832727 236.347344 
L 98.806154 294.317414 
L 148.753007 260.316457 
L 173.726434 199.8594 
L 198.69986 157.67173 
L 248.646713 236.82762 
L 273.62014 283.446811 
L 298.593566 257.214013 
L 323.566993 168.618921 
L 348.54042 230.036875 
L 398.487273 256.847439 
L 73.832727 181.387045 
L 236.16 106.215762 
L 398.487273 169.325308 
L 73.832727 272.497748 
L 109.905455 208.37191 
L 182.050909 198.631116 
L 254.196364 136.237541 
L 326.341818 279.120162 
L 398.487273 87.402386 
L 73.832727 64.514044 
L 117.12 167.163685 
L 160.407273 133.112339 
L 203.694545 238.225162 
L 225.338182 144.359501 
L 268.625455 267.310831 
L 290.269091 117.509254 
L 333.556364 220.154068 
L 376.843636 98.275267 
L 398.487273 130.065116 
L 73.832727 215.695096 
L 95.476364 87.78115 
L 117.12 103.291127 
L 138.763636 239.774321 
L 182.050909 149.430042 
L 203.694545 164.21472 
L 225.338182 178.59316 
L 246.981818 292.69046 
L 268.625455 244.547201 
L 290.269091 198.317184 
L 311.912727 212.337566 
L 355.2 237.781345 
L 398.487273 109.174947 
L 73.832727 279.483808 
L 138.763636 100.404059 
L 268.625455 266.31491 
L 398.487273 268.085265 
L 73.832727 274.605523 
L 84.654545 91.501525 
L 95.476364 216.891369 
L 117.12 269.46685 
L 127.941818 255.975531 
L 138.763636 227.991937 
L 160.407273 287.641989 
L 182.050909 214.303049 
L 192.872727 252.972934 
L 203.694545 221.662666 
L 214.516364 72.207868 
L 236.16 183.395112 
L 257.803636 266.038145 
L 279.447273 281.955988 
L 301.090909 284.617932 
L 322.734545 84.184526 
L 344.378182 71.275311 
L 366.021818 222.241047 
L 376.843636 100.197513 
L 398.487273 150.537935 
L 73.832727 278.472575 
L 182.050909 226.418245 
L 290.269091 86.787879 
L 398.487273 247.622088 
L 73.832727 234.697523 
L 398.487273 287.070166 
L 73.832727 181.304681 
L 236.16 55.17619 
L 398.487273 94.721845 
L 73.832727 281.083617 
L 104.752208 154.015401 
L 135.671688 270.727714 
L 151.131429 247.180595 
L 182.050909 271.878888 
L 212.97039 243.962646 
L 228.43013 87.497402 
L 243.88987 134.716963 
L 259.34961 83.68769 
L 274.809351 252.137737 
L 290.269091 259.688188 
L 305.728831 256.955959 
L 336.648312 136.702315 
L 367.567792 54.426783 
L 383.027532 104.39383 
L 398.487273 64.361166 
L 73.832727 170.20018 
L 154.996364 280.433073 
L 236.16 238.425285 
L 398.487273 274.369988 
L 73.832727 294.040068 
L 120.211948 193.89622 
L 212.97039 152.049314 
L 305.728831 209.160554 
L 398.487273 225.193174 
L 73.832727 239.337051 
L 89.669534 120.45834 
L 97.587938 193.339025 
L 105.506341 294.778702 
L 121.343149 56.806105 
L 129.261552 139.394712 
L 145.098359 211.747388 
L 160.935166 128.796762 
L 176.771973 115.171522 
L 184.690377 272.580154 
L 200.527184 212.515323 
L 216.363991 138.869852 
L 224.282395 243.583576 
L 232.200798 295.312432 
L 240.119202 166.870194 
L 248.037605 162.465077 
L 255.956009 136.696166 
L 263.874412 150.433653 
L 271.792816 75.084443 
L 279.71122 208.373347 
L 287.629623 120.154115 
L 295.548027 66.274036 
L 303.46643 150.391156 
L 319.303237 279.700924 
L 327.221641 54.944539 
L 335.140044 161.327691 
L 343.058448 237.410141 
L 350.976851 231.69995 
L 366.813659 228.599108 
L 374.732062 70.020794 
L 382.650466 200.364556 
L 398.487273 107.352505 
L 73.832727 295.306313 
L 290.269091 294.490153 
L 398.487273 293.158758 
L 73.832727 254.843903 
L 88.932939 134.078318 
L 96.483044 60.101836 
L 104.03315 125.343326 
L 111.583256 160.381927 
L 119.133362 285.83485 
L 134.233573 290.212851 
L 141.783679 274.085445 
L 149.333784 191.501709 
L 156.88389 286.185802 
L 164.433996 251.566182 
L 179.534207 118.750287 
L 187.084313 121.609885 
L 202.184524 270.980901 
L 209.73463 294.675874 
L 224.834841 285.894747 
L 232.384947 141.364457 
L 239.935053 234.657238 
L 255.035264 283.263637 
L 262.58537 222.483452 
L 270.135476 81.470709 
L 277.685581 216.801589 
L 285.235687 145.2041 
L 300.335899 126.284613 
L 307.886004 244.904152 
L 315.43611 287.916633 
L 322.986216 166.495756 
L 330.536321 253.617618 
L 338.086427 228.170491 
L 353.186638 267.480619 
L 360.736744 245.017094 
L 375.836956 238.732453 
L 383.387061 260.327405 
L 398.487273 84.798235 
L 73.832727 188.414943 
L 182.050909 273.158276 
L 290.269091 252.307306 
L 344.378182 185.445503 
L 398.487273 250.313486 
L 73.832727 68.484275 
L 154.996364 227.288746 
L 195.578182 289.607906 
L 236.16 272.512092 
L 276.741818 166.475638 
L 317.323636 226.323761 
L 357.905455 176.222291 
L 398.487273 79.468155 
L 73.832727 275.859445 
L 398.487273 145.615318 
L 73.832727 266.829465 
L 166.591169 292.244475 
L 259.34961 187.438646 
L 305.728831 207.887148 
L 352.108052 293.750438 
L 398.487273 184.820442 
L 73.832727 254.945936 
L 138.763636 275.914176 
L 203.694545 113.538054 
L 268.625455 189.284711 
L 333.556364 227.198367 
L 398.487273 290.974182 
L 73.832727 189.2276 
L 398.487273 225.381587 
L 73.832727 56.956241 
L 120.211948 118.761617 
L 212.97039 184.144901 
L 259.34961 270.80263 
L 305.728831 56.298428 
L 398.487273 272.735007 
L 73.832727 241.018095 
L 154.996364 281.373774 
L 317.323636 229.957844 
L 398.487273 201.97476 
L 73.832727 142.684248 
L 398.487273 288.422946 
L 73.832727 146.118231 
L 91.869091 114.081101 
L 127.941818 55.636507 
L 145.978182 265.06525 
L 164.014545 242.100142 
L 182.050909 113.009763 
L 200.087273 237.039547 
L 218.123636 81.782097 
L 236.16 290.388262 
L 272.232727 221.113611 
L 290.269091 233.044552 
L 326.341818 294.197878 
L 362.414545 100.093342 
L 380.450909 279.338735 
L 398.487273 95.400009 
L 73.832727 274.277267 
L 203.694545 279.837265 
L 268.625455 215.144152 
L 333.556364 274.370255 
L 398.487273 290.999866 
L 73.832727 112.213445 
L 203.694545 284.022708 
L 268.625455 94.996435 
L 398.487273 110.549999 
L 73.832727 254.695375 
L 106.298182 89.129959 
L 171.229091 63.12739 
L 236.16 294.634371 
L 268.625455 287.0334 
L 333.556364 94.693104 
L 398.487273 259.702742 
L 73.832727 131.745782 
L 398.487273 190.176742 
L 73.832727 133.595812 
L 398.487273 75.568815 
L 73.832727 292.032809 
L 236.16 117.924435 
L 398.487273 154.152076 
L 73.832727 280.816868 
L 103.346777 262.545449 
L 162.374876 221.750182 
L 191.888926 276.797387 
L 250.917025 138.048358 
L 309.945124 200.059074 
L 368.973223 149.36354 
L 398.487273 244.861974 
L 73.832727 248.093652 
L 89.292468 177.850504 
L 120.211948 76.035653 
L 135.671688 157.146243 
L 151.131429 266.891017 
L 166.591169 272.639379 
L 197.510649 133.754856 
L 228.43013 196.143632 
L 243.88987 279.681654 
L 259.34961 122.922094 
L 290.269091 196.937939 
L 305.728831 252.099534 
L 336.648312 293.707922 
L 367.567792 294.887123 
L 398.487273 173.417809 
L 73.832727 168.946709 
L 106.298182 286.397931 
L 138.763636 278.796097 
L 171.229091 262.403051 
L 236.16 85.401725 
L 301.090909 225.926358 
L 333.556364 278.536084 
L 398.487273 170.44471 
L 73.832727 186.698654 
L 103.346777 279.468056 
L 132.860826 279.463386 
L 162.374876 58.966337 
L 191.888926 185.594365 
L 221.402975 175.645641 
L 250.917025 261.493832 
L 280.431074 98.779804 
L 339.459174 209.801468 
L 368.973223 60.445094 
L 398.487273 61.148152 
L 73.832727 270.763304 
L 98.806154 233.743996 
L 123.77958 158.542938 
L 148.753007 287.898647 
L 198.69986 271.141245 
L 248.646713 286.211344 
L 273.62014 293.203191 
L 298.593566 254.411865 
L 323.566993 173.569954 
L 348.54042 269.32474 
L 373.513846 117.653885 
L 398.487273 199.427663 
L 73.832727 105.189978 
L 398.487273 272.272856 
L 73.832727 186.392842 
L 106.298182 172.122397 
L 171.229091 203.395842 
L 203.694545 120.802223 
L 268.625455 276.871615 
L 333.556364 271.281655 
L 398.487273 197.485378 
L 73.832727 213.354617 
L 145.978182 65.384073 
L 218.123636 164.285929 
L 290.269091 277.352468 
L 326.341818 156.063252 
L 362.414545 186.140093 
L 398.487273 103.632876 
L 73.832727 263.082546 
L 145.978182 169.709584 
L 182.050909 208.700592 
L 254.196364 66.333555 
L 290.269091 166.429103 
L 362.414545 146.091614 
L 398.487273 209.954286 
L 73.832727 131.241681 
L 127.941818 151.144766 
L 236.16 231.688986 
L 290.269091 273.742055 
L 398.487273 76.587339 
L 73.832727 290.280233 
L 182.050909 294.418935 
L 236.16 283.448655 
L 290.269091 291.376116 
L 398.487273 259.912982 
L 73.832727 184.775833 
L 236.16 278.803277 
L 398.487273 271.215196 
L 73.832727 203.509009 
L 103.346777 277.62837 
L 118.103802 214.922314 
L 132.860826 260.564335 
L 162.374876 90.201818 
L 177.131901 279.645211 
L 206.64595 188.638211 
L 221.402975 250.363212 
L 250.917025 244.81461 
L 280.431074 116.509765 
L 295.188099 217.177655 
L 324.702149 148.718222 
L 339.459174 231.170313 
L 368.973223 160.828817 
L 398.487273 97.946399 
L 73.832727 239.737224 
L 106.298182 283.067126 
L 138.763636 203.044774 
L 171.229091 217.623356 
L 203.694545 66.330898 
L 236.16 266.183 
L 268.625455 99.350766 
L 301.090909 244.582738 
L 366.021818 115.251948 
L 398.487273 234.804828 
L 73.832727 161.460618 
L 83.38139 285.519583 
L 92.930053 255.627308 
L 102.478717 204.284197 
L 112.02738 145.513077 
L 121.576043 232.493032 
L 131.124706 235.52015 
L 140.673369 228.723759 
L 150.222032 279.68195 
L 159.770695 294.326782 
L 169.319358 161.298343 
L 178.868021 261.117695 
L 188.416684 247.728488 
L 197.965348 180.521742 
L 207.514011 56.61528 
L 217.062674 225.293532 
L 236.16 197.860004 
L 245.708663 292.006069 
L 255.257326 239.375351 
L 274.354652 144.913712 
L 283.903316 189.965631 
L 293.451979 89.41848 
L 312.549305 134.429759 
L 322.097968 153.833247 
L 331.646631 229.478177 
L 341.195294 147.787649 
L 350.743957 109.343273 
L 360.29262 148.343454 
L 369.841283 284.191216 
L 379.389947 265.093873 
L 398.487273 79.807544 
L 73.832727 104.690373 
L 290.269091 274.646122 
L 398.487273 209.162521 
L 73.832727 78.014535 
L 236.16 83.018661 
L 398.487273 262.059224 
L 73.832727 105.826686 
L 236.16 237.485511 
L 398.487273 179.395126 
L 73.832727 71.587814 
L 114.414545 56.043225 
L 134.705455 84.306645 
L 175.287273 97.808568 
L 215.869091 129.807807 
L 256.450909 111.819882 
L 276.741818 141.686473 
L 297.032727 250.94585 
L 337.614545 254.61157 
L 357.905455 176.942271 
L 398.487273 62.298508 
L 73.832727 86.527766 
L 398.487273 242.365464 
L 73.832727 163.205229 
L 236.16 288.441074 
L 317.323636 282.699459 
L 398.487273 68.080826 
L 73.832727 293.165329 
L 236.16 292.890131 
L 398.487273 72.380759 
L 73.832727 193.599694 
L 127.941818 271.96538 
L 182.050909 235.714416 
L 209.105455 270.653791 
L 236.16 126.002668 
L 290.269091 258.223103 
L 344.378182 293.142192 
L 371.432727 278.56316 
L 398.487273 239.879076 
L 73.832727 207.28799 
L 236.16 133.078814 
L 398.487273 58.197117 
L 73.832727 69.738452 
L 398.487273 185.522013 
L 73.832727 209.993329 
L 138.763636 288.73955 
L 203.694545 146.452906 
L 268.625455 171.537892 
L 333.556364 223.240193 
L 398.487273 181.537834 
L 73.832727 107.148922 
L 98.806154 269.83889 
L 111.292867 110.597151 
L 136.266294 148.335585 
L 161.23972 253.843764 
L 173.726434 279.79835 
L 198.69986 90.904452 
L 223.673287 184.774749 
L 248.646713 225.013482 
L 273.62014 293.447002 
L 286.106853 250.164236 
L 298.593566 269.585285 
L 311.08028 120.393337 
L 323.566993 149.864246 
L 336.053706 204.698998 
L 361.027133 99.683118 
L 386.000559 178.027051 
L 398.487273 112.830417 
L 73.832727 278.496532 
L 290.269091 85.342208 
L 398.487273 77.923303 
L 73.832727 294.787108 
L 87.948142 112.506774 
L 116.178972 198.808932 
L 144.409802 188.55203 
L 158.525217 236.656118 
L 186.756047 236.485203 
L 200.871462 268.450564 
L 229.102292 65.065258 
L 243.217708 220.052477 
L 271.448538 206.027303 
L 299.679368 213.309832 
L 313.794783 137.53351 
L 327.910198 105.937974 
L 356.141028 176.472046 
L 384.371858 172.250025 
L 398.487273 205.933943 
L 73.832727 242.257145 
L 182.050909 53.723061 
L 290.269091 229.312076 
L 398.487273 219.802826 
L 73.832727 170.768789 
L 236.16 130.447283 
L 317.323636 211.363428 
L 398.487273 207.920386 
L 73.832727 287.698031 
L 182.050909 269.161284 
L 236.16 246.795216 
L 290.269091 101.895614 
L 398.487273 196.916107 
L 73.832727 268.281783 
L 182.050909 131.440667 
L 290.269091 115.117682 
L 398.487273 290.429369 
L 73.832727 60.7796 
L 91.869091 179.842726 
L 109.905455 263.763242 
L 118.923636 291.58376 
L 127.941818 167.941557 
L 136.96 231.67913 
L 145.978182 133.413388 
L 164.014545 204.200022 
L 182.050909 213.569399 
L 200.087273 283.748741 
L 209.105455 241.40666 
L 227.141818 150.884678 
L 236.16 90.725653 
L 245.178182 282.968016 
L 263.214545 291.216221 
L 272.232727 99.756371 
L 290.269091 143.202814 
L 299.287273 83.114331 
L 308.305455 207.119655 
L 317.323636 146.733766 
L 335.36 102.43106 
L 344.378182 72.312719 
L 353.396364 133.255984 
L 371.432727 137.348736 
L 380.450909 112.986556 
L 398.487273 260.100259 
L 73.832727 182.308099 
L 120.211948 208.50318 
L 166.591169 289.554305 
L 212.97039 279.192351 
L 259.34961 256.861969 
L 305.728831 263.699723 
L 352.108052 272.18149 
L 398.487273 78.437606 
L 73.832727 152.362794 
L 236.16 96.290639 
L 398.487273 149.187173 
L 73.832727 177.545259 
L 290.269091 85.29384 
L 398.487273 186.985117 
L 73.832727 89.821819 
L 236.16 150.902797 
L 398.487273 245.050513 
L 73.832727 291.550658 
L 236.16 294.56729 
L 398.487273 286.321781 
L 73.832727 110.706979 
L 182.050909 66.589311 
L 290.269091 64.808434 
L 398.487273 292.025362 
L 73.832727 148.173688 
L 236.16 116.702415 
L 398.487273 221.903116 
L 73.832727 63.525617 
L 99.805091 200.063893 
L 112.791273 167.954804 
L 125.777455 197.095501 
L 151.749818 285.233942 
L 164.736 193.140173 
L 177.722182 229.896735 
L 190.708364 83.164815 
L 203.694545 217.749697 
L 216.680727 222.298769 
L 242.653091 133.605182 
L 255.639273 182.248395 
L 268.625455 189.258907 
L 294.597818 250.312434 
L 307.584 187.781055 
L 320.570182 144.448264 
L 346.542545 207.012679 
L 359.528727 197.668654 
L 372.514909 177.115439 
L 385.501091 66.224897 
L 398.487273 213.651477 
L 73.832727 74.624125 
L 88.589752 146.112008 
L 103.346777 288.326058 
L 118.103802 85.215396 
L 147.617851 172.659833 
L 177.131901 249.234371 
L 191.888926 286.030228 
L 206.64595 92.019621 
L 221.402975 101.362094 
L 236.16 74.96078 
L 265.67405 280.71123 
L 295.188099 272.673775 
L 309.945124 115.014905 
L 324.702149 279.341392 
L 354.216198 57.42655 
L 383.730248 264.64746 
L 398.487273 217.500945 
L 73.832727 272.887484 
L 87.948142 227.538374 
L 102.063557 140.386391 
L 130.294387 188.028819 
L 144.409802 232.237572 
L 158.525217 122.996338 
L 186.756047 256.161559 
L 214.986877 281.888948 
L 243.217708 159.588558 
L 257.333123 281.205845 
L 285.563953 61.686003 
L 299.679368 288.048018 
L 313.794783 221.984874 
L 342.025613 252.494806 
L 370.256443 56.921602 
L 398.487273 105.783767 
L 73.832727 295.342995 
L 91.869091 77.632439 
L 109.905455 66.292762 
L 145.978182 196.091888 
L 164.014545 176.017985 
L 200.087273 225.64591 
L 218.123636 227.414983 
L 236.16 83.649024 
L 254.196364 92.958408 
L 272.232727 147.791116 
L 290.269091 273.959293 
L 308.305455 192.958954 
L 326.341818 287.932401 
L 362.414545 76.625994 
L 398.487273 61.35958 
L 73.832727 276.312542 
L 91.869091 244.822977 
L 100.887273 164.089077 
L 118.923636 241.249675 
L 127.941818 236.467484 
L 136.96 192.395621 
L 154.996364 238.99304 
L 173.032727 134.958692 
L 191.069091 276.90246 
L 209.105455 274.75265 
L 218.123636 150.110502 
L 227.141818 252.370525 
L 236.16 170.424876 
L 254.196364 243.543213 
L 263.214545 259.920109 
L 272.232727 230.132374 
L 281.250909 190.782943 
L 290.269091 147.687729 
L 299.287273 184.312748 
L 308.305455 273.082548 
L 317.323636 287.314196 
L 326.341818 235.153938 
L 335.36 225.369887 
L 344.378182 210.357069 
L 353.396364 55.766176 
L 371.432727 109.003505 
L 380.450909 270.4186 
L 398.487273 194.080414 
L 73.832727 198.846208 
L 166.591169 84.058696 
L 212.97039 287.198683 
L 305.728831 206.188982 
L 352.108052 282.228005 
L 398.487273 204.984943 
L 73.832727 138.059183 
L 398.487273 201.499201 
L 73.832727 258.779549 
L 138.763636 279.782631 
L 203.694545 259.219179 
L 333.556364 276.070799 
L 398.487273 100.571708 
L 73.832727 97.887167 
L 98.806154 159.863662 
L 148.753007 282.536265 
L 198.69986 124.529789 
L 248.646713 143.863516 
L 298.593566 266.11444 
L 348.54042 54.551423 
L 398.487273 263.584984 
L 73.832727 292.243975 
L 83.38139 95.192697 
L 92.930053 295.186832 
L 112.02738 89.031726 
L 131.124706 263.341425 
L 140.673369 203.533652 
L 159.770695 273.441965 
L 169.319358 199.6432 
L 178.868021 141.669015 
L 197.965348 135.808044 
L 217.062674 203.955358 
L 226.611337 232.418263 
L 245.708663 104.050585 
L 264.805989 77.95171 
L 274.354652 274.326132 
L 283.903316 254.204254 
L 293.451979 228.453021 
L 312.549305 289.633639 
L 322.097968 138.787956 
L 341.195294 210.870461 
L 360.29262 230.21166 
L 379.389947 151.059132 
L 398.487273 179.135043 
L 73.832727 151.912114 
L 398.487273 88.237941 
L 73.832727 129.357286 
L 92.384416 266.098723 
L 101.66026 282.915603 
L 110.936104 291.892003 
L 129.487792 220.611419 
L 138.763636 191.41802 
L 148.039481 124.858036 
L 157.315325 247.106695 
L 166.591169 94.19019 
L 185.142857 267.469679 
L 203.694545 222.186916 
L 222.246234 229.938661 
L 240.797922 169.200486 
L 259.34961 190.779846 
L 277.901299 190.406113 
L 287.177143 223.469295 
L 305.728831 246.512067 
L 315.004675 162.453145 
L 324.280519 101.372343 
L 333.556364 138.077995 
L 352.108052 289.27461 
L 361.383896 172.194038 
L 370.65974 210.955696 
L 379.935584 293.408941 
L 398.487273 115.878081 
L 73.832727 247.512845 
L 154.996364 218.017273 
L 236.16 115.397347 
L 398.487273 288.214807 
L 73.832727 192.76154 
L 290.269091 290.092546 
L 398.487273 290.043909 
L 73.832727 151.992881 
L 112.02738 294.899466 
L 131.124706 210.746886 
L 150.222032 239.320155 
L 169.319358 194.082775 
L 207.514011 98.197119 
L 245.708663 132.257564 
L 283.903316 216.916032 
L 322.097968 178.690628 
L 341.195294 290.885371 
L 360.29262 271.195987 
L 379.389947 275.735317 
L 398.487273 274.383247 
L 73.832727 135.930087 
L 398.487273 224.799608 
L 73.832727 156.061909 
L 398.487273 191.917918 
L 73.832727 91.29076 
L 145.978182 277.929621 
L 182.050909 288.495459 
L 218.123636 290.836587 
L 254.196364 105.438692 
L 290.269091 291.311867 
L 362.414545 101.902145 
L 398.487273 205.970276 
L 73.832727 242.44817 
L 398.487273 240.052237 
L 73.832727 291.862151 
L 166.591169 72.364005 
L 212.97039 271.84985 
L 259.34961 221.597261 
L 305.728831 164.450342 
L 352.108052 161.835028 
L 398.487273 198.548985 
L 73.832727 273.167857 
L 95.476364 279.778099 
L 117.12 182.792596 
L 138.763636 279.096494 
L 160.407273 57.714703 
L 182.050909 199.830006 
L 225.338182 94.801097 
L 246.981818 254.554276 
L 268.625455 56.650497 
L 311.912727 128.953741 
L 333.556364 157.516518 
L 376.843636 102.848175 
L 398.487273 193.597442 
L 73.832727 275.177093 
L 94.778182 253.297865 
L 105.250909 239.958403 
L 115.723636 198.452703 
L 126.196364 248.687026 
L 147.141818 137.131117 
L 157.614545 285.881814 
L 168.087273 245.884693 
L 178.56 251.337843 
L 189.032727 259.145491 
L 199.505455 66.150894 
L 209.978182 291.613917 
L 220.450909 292.148021 
L 230.923636 278.953543 
L 241.396364 293.426834 
L 251.869091 161.639504 
L 262.341818 193.234808 
L 272.814545 138.586644 
L 293.76 82.784302 
L 314.705455 204.594102 
L 325.178182 141.891862 
L 346.123636 141.007862 
L 356.596364 86.675237 
L 367.069091 217.548878 
L 377.541818 90.609165 
L 388.014545 169.017711 
L 398.487273 195.179594 
L 73.832727 108.102588 
L 123.77958 284.157442 
L 173.726434 272.889315 
L 198.69986 226.228794 
L 223.673287 205.833166 
L 248.646713 222.605936 
L 273.62014 289.852556 
L 298.593566 283.801133 
L 323.566993 84.361934 
L 348.54042 210.331473 
L 398.487273 112.657529 
L 73.832727 264.09107 
L 84.654545 109.354546 
L 95.476364 278.790154 
L 117.12 283.385436 
L 127.941818 213.903721 
L 138.763636 260.51562 
L 149.585455 251.89057 
L 160.407273 116.38272 
L 182.050909 103.113173 
L 203.694545 287.305565 
L 214.516364 231.952236 
L 225.338182 235.086816 
L 236.16 199.33663 
L 257.803636 197.429623 
L 268.625455 246.383203 
L 279.447273 229.91294 
L 290.269091 223.448876 
L 301.090909 71.224142 
L 322.734545 231.915825 
L 344.378182 195.85023 
L 355.2 140.192429 
L 376.843636 287.739085 
L 387.665455 174.11018 
L 398.487273 243.2225 
L 73.832727 281.298482 
L 154.996364 73.122118 
L 236.16 256.346376 
L 317.323636 142.696746 
L 398.487273 102.818699 
L 73.832727 242.353936 
L 120.211948 288.297956 
L 212.97039 266.694505 
L 305.728831 261.539689 
L 398.487273 142.683044 
L 73.832727 83.739729 
L 290.269091 204.847642 
L 398.487273 288.563158 
L 73.832727 194.722523 
L 109.905455 118.054738 
L 127.941818 137.586845 
L 164.014545 240.867909 
L 200.087273 206.525132 
L 236.16 274.232476 
L 254.196364 230.940126 
L 272.232727 218.801816 
L 290.269091 286.953904 
L 308.305455 118.924977 
L 326.341818 233.549251 
L 362.414545 264.51478 
L 398.487273 250.574453 
L 73.832727 148.430234 
L 236.16 156.711577 
L 398.487273 181.025373 
L 73.832727 156.466331 
L 398.487273 99.629628 
L 73.832727 244.289036 
L 398.487273 59.680938 
L 73.832727 274.650547 
L 154.996364 155.292082 
L 236.16 222.091949 
L 317.323636 110.301701 
L 398.487273 252.340519 
L 73.832727 80.848843 
L 166.591169 130.339502 
L 259.34961 257.400538 
L 305.728831 155.023444 
L 398.487273 268.644256 
L 73.832727 288.531835 
L 154.996364 283.322071 
L 236.16 183.700632 
L 276.741818 265.593701 
L 317.323636 214.299225 
L 357.905455 291.003621 
L 398.487273 257.673024 
L 73.832727 139.578365 
L 106.298182 75.361909 
L 122.530909 240.871149 
L 154.996364 238.118443 
L 171.229091 286.959092 
L 187.461818 186.111213 
L 219.927273 251.777243 
L 236.16 120.630129 
L 268.625455 207.542687 
L 301.090909 155.416245 
L 333.556364 257.801444 
L 366.021818 196.46576 
L 382.254545 265.908444 
L 398.487273 261.032621 
L 73.832727 180.575042 
L 91.869091 64.923126 
L 127.941818 179.126047 
L 164.014545 124.050964 
L 200.087273 268.374654 
L 218.123636 294.270934 
L 236.16 137.199655 
L 254.196364 158.603104 
L 272.232727 189.636939 
L 290.269091 272.795533 
L 308.305455 278.087718 
L 326.341818 246.610935 
L 344.378182 147.204643 
L 362.414545 169.417071 
L 380.450909 184.795509 
L 398.487273 255.458761 
L 73.832727 199.493823 
L 398.487273 255.403899 
L 73.832727 79.316333 
L 236.16 132.232275 
L 398.487273 273.908648 
L 73.832727 113.971321 
L 154.996364 76.249432 
L 236.16 55.089786 
L 398.487273 272.104698 
L 73.832727 261.754593 
L 398.487273 290.600829 
L 73.832727 221.955144 
L 236.16 120.049071 
L 398.487273 134.364022 
L 73.832727 231.981648 
L 398.487273 278.995085 
L 73.832727 134.386587 
L 166.591169 239.449363 
L 259.34961 266.374291 
L 305.728831 249.826182 
L 398.487273 66.072614 
L 73.832727 283.562641 
L 98.806154 225.791576 
L 123.77958 133.66568 
L 173.726434 193.455257 
L 223.673287 242.996275 
L 248.646713 245.099795 
L 273.62014 272.861373 
L 298.593566 126.323299 
L 348.54042 109.645221 
L 398.487273 66.391647 
L 73.832727 289.050163 
L 106.298182 113.938317 
L 171.229091 268.817656 
L 203.694545 256.832079 
L 236.16 233.063262 
L 268.625455 246.769188 
L 301.090909 142.472015 
L 333.556364 190.136796 
L 366.021818 194.801741 
L 398.487273 152.761672 
L 73.832727 65.389441 
L 112.02738 293.875412 
L 150.222032 237.351749 
L 188.416684 180.418531 
L 207.514011 268.990439 
L 245.708663 104.810294 
L 283.903316 177.537811 
L 303.000642 157.497413 
L 322.097968 166.294074 
L 341.195294 237.398586 
L 360.29262 127.883002 
L 398.487273 101.455145 
L 73.832727 208.159137 
L 154.996364 266.012145 
L 317.323636 62.765246 
L 398.487273 258.527786 
L 73.832727 286.020829 
L 182.050909 290.797415 
L 290.269091 280.801964 
L 398.487273 207.646698 
L 73.832727 287.396557 
L 154.996364 150.131135 
L 317.323636 129.2349 
L 398.487273 119.80595 
L 73.832727 188.671232 
L 114.414545 165.914741 
L 154.996364 164.538811 
L 175.287273 279.936118 
L 195.578182 195.290847 
L 215.869091 264.652349 
L 236.16 202.39637 
L 276.741818 171.447062 
L 297.032727 155.491172 
L 317.323636 291.864562 
L 337.614545 252.36631 
L 357.905455 73.413987 
L 398.487273 252.161241 
L 73.832727 116.046049 
L 97.022338 251.554827 
L 108.617143 72.034531 
L 131.806753 82.347453 
L 154.996364 244.42052 
L 166.591169 99.24481 
L 178.185974 133.380567 
L 189.780779 131.96583 
L 212.97039 207.405046 
L 224.565195 240.339431 
L 236.16 83.343317 
L 247.754805 108.348379 
L 259.34961 257.260688 
L 270.944416 132.318876 
L 294.134026 220.619334 
L 317.323636 78.526099 
L 340.513247 183.057614 
L 352.108052 286.273626 
L 375.297662 69.684352 
L 398.487273 263.901387 
L 73.832727 115.623122 
L 138.763636 202.071468 
L 171.229091 162.705212 
L 236.16 202.070208 
L 301.090909 102.469841 
L 333.556364 97.360399 
L 398.487273 186.463634 
L 73.832727 289.050955 
L 166.591169 165.329122 
L 212.97039 230.838137 
L 259.34961 282.169939 
L 352.108052 287.867467 
L 398.487273 275.953227 
L 73.832727 179.402217 
L 127.941818 271.262636 
L 182.050909 269.708285 
L 209.105455 274.183703 
L 263.214545 293.416782 
L 290.269091 287.129149 
L 317.323636 271.819613 
L 344.378182 195.589747 
L 398.487273 60.80239 
L 73.832727 283.674364 
L 398.487273 272.881512 
L 73.832727 96.742487 
L 154.996364 121.028683 
L 236.16 295.477614 
L 398.487273 198.255179 
L 73.832727 65.063005 
L 108.00689 202.919559 
L 125.093971 227.887796 
L 142.181053 79.658488 
L 159.268134 122.496845 
L 176.355215 270.805609 
L 193.442297 253.498116 
L 210.529378 263.825526 
L 244.703541 167.152993 
L 261.790622 156.950018 
L 278.877703 228.231974 
L 313.051866 84.478262 
L 347.226029 140.447258 
L 364.31311 109.06987 
L 381.400191 151.391213 
L 398.487273 56.05331 
L 73.832727 186.376268 
L 138.763636 141.792371 
L 203.694545 119.261346 
L 268.625455 279.86743 
L 333.556364 262.369058 
L 398.487273 160.546188 
L 73.832727 128.449502 
L 236.16 290.417897 
L 398.487273 294.114237 
L 73.832727 87.167893 
L 398.487273 264.479487 
L 73.832727 150.986333 
L 236.16 164.2286 
L 398.487273 278.796504 
L 73.832727 288.481401 
L 398.487273 155.528553 
L 73.832727 193.079737 
L 91.869091 139.140264 
L 109.905455 273.531167 
L 127.941818 59.846376 
L 164.014545 120.982994 
L 182.050909 198.140243 
L 200.087273 294.734612 
L 218.123636 213.118976 
L 236.16 286.388382 
L 254.196364 122.298099 
L 290.269091 186.042712 
L 308.305455 200.077523 
L 326.341818 72.410482 
L 344.378182 283.959061 
L 362.414545 229.152289 
L 380.450909 248.928168 
L 398.487273 284.682556 
L 73.832727 264.680716 
L 154.996364 116.017291 
L 236.16 78.561975 
L 317.323636 174.838934 
L 357.905455 68.171275 
L 398.487273 53.613462 
L 73.832727 165.047298 
L 236.16 75.064902 
L 398.487273 285.081079 
L 73.832727 67.898956 
L 398.487273 130.94828 
L 73.832727 136.697328 
L 85.85697 189.149993 
L 97.881212 63.567013 
L 109.905455 177.914385 
L 133.953939 273.570655 
L 158.002424 90.040178 
L 182.050909 94.991306 
L 194.075152 200.225455 
L 206.099394 171.947899 
L 230.147879 198.158772 
L 254.196364 186.887089 
L 266.220606 107.34854 
L 290.269091 72.053772 
L 314.317576 150.537055 
L 326.341818 271.932713 
L 350.390303 239.245967 
L 362.414545 65.751684 
L 374.438788 80.270713 
L 398.487273 81.259334 
L 73.832727 112.671874 
L 127.941818 110.861008 
L 236.16 54.435272 
L 290.269091 55.763745 
L 398.487273 98.461929 
L 73.832727 237.02175 
L 92.930053 159.293128 
L 131.124706 206.538428 
L 169.319358 110.184608 
L 188.416684 293.50959 
L 226.611337 232.190649 
L 245.708663 209.305764 
L 283.903316 205.262903 
L 303.000642 270.462791 
L 322.097968 241.302085 
L 341.195294 235.187739 
L 360.29262 247.590682 
L 379.389947 242.581187 
L 398.487273 190.788182 
L 73.832727 56.837425 
L 236.16 90.240954 
L 317.323636 231.047643 
L 398.487273 229.697001 
L 73.832727 236.375979 
L 236.16 58.572595 
L 398.487273 252.169253 
L 73.832727 128.612495 
L 182.050909 275.81158 
L 290.269091 110.685 
L 398.487273 120.957213 
L 73.832727 293.09372 
L 120.211948 161.143185 
L 212.97039 256.038969 
L 305.728831 206.735494 
L 398.487273 267.579649 
L 73.832727 262.27022 
L 120.211948 287.103242 
L 143.401558 290.462561 
L 189.780779 225.749374 
L 212.97039 215.231564 
L 259.34961 245.554061 
L 282.539221 113.52687 
L 328.918442 149.077957 
L 352.108052 112.43395 
L 398.487273 136.962327 
L 73.832727 157.843071 
L 203.694545 254.023391 
L 268.625455 224.194087 
L 398.487273 278.008266 
L 73.832727 284.152958 
L 127.941818 139.842109 
L 182.050909 120.142334 
L 290.269091 290.609327 
L 398.487273 209.510016 
L 73.832727 109.258805 
L 123.77958 167.942939 
L 148.753007 197.847405 
L 198.69986 69.026039 
L 223.673287 291.745319 
L 248.646713 133.861416 
L 298.593566 105.150801 
L 348.54042 100.558535 
L 398.487273 103.792361 
L 73.832727 97.784639 
L 138.763636 213.290237 
L 203.694545 101.525535 
L 268.625455 181.463135 
L 398.487273 240.147236 
L 73.832727 283.174269 
L 87.36 103.603851 
L 114.414545 187.086202 
L 127.941818 80.723332 
L 141.469091 105.533295 
L 154.996364 63.895253 
L 168.523636 175.580506 
L 195.578182 135.761099 
L 209.105455 271.059271 
L 222.632727 167.973455 
L 236.16 127.859249 
L 249.687273 58.615401 
L 263.214545 189.512629 
L 276.741818 65.150442 
L 290.269091 159.004251 
L 303.796364 286.086282 
L 317.323636 69.596164 
L 330.850909 200.931919 
L 344.378182 250.156787 
L 357.905455 54.011247 
L 384.96 261.396926 
L 398.487273 277.037367 
L 73.832727 289.621396 
L 120.211948 257.67194 
L 143.401558 80.892759 
L 166.591169 88.186699 
L 189.780779 227.441987 
L 212.97039 55.662969 
L 259.34961 294.560734 
L 305.728831 206.017936 
L 328.918442 195.446171 
L 352.108052 89.152013 
L 398.487273 86.298033 
L 73.832727 69.398265 
L 138.763636 260.263703 
L 203.694545 68.219522 
L 268.625455 276.237474 
L 398.487273 284.215995 
L 73.832727 194.604318 
L 98.806154 293.928644 
L 111.292867 215.572546 
L 123.77958 91.199479 
L 136.266294 146.307348 
L 148.753007 54.282205 
L 161.23972 274.771397 
L 173.726434 137.626861 
L 186.213147 174.664499 
L 211.186573 293.403917 
L 236.16 280.223723 
L 248.646713 196.057081 
L 273.62014 259.403991 
L 298.593566 87.04421 
L 311.08028 94.939414 
L 336.053706 182.496203 
L 348.54042 89.222147 
L 373.513846 71.322538 
L 386.000559 131.36398 
L 398.487273 295.400215 
L 73.832727 287.558389 
L 182.050909 264.989144 
L 398.487273 239.232452 
L 73.832727 294.064327 
L 398.487273 275.601761 
L 73.832727 98.49469 
L 236.16 257.8712 
L 317.323636 77.601107 
L 398.487273 240.202507 
L 73.832727 120.311533 
L 182.050909 282.950996 
L 398.487273 75.843023 
L 73.832727 175.553444 
L 398.487273 157.836215 
L 73.832727 214.68818 
L 236.16 235.865224 
L 398.487273 178.631796 
L 73.832727 89.564155 
L 290.269091 282.480968 
L 398.487273 206.27423 
L 73.832727 294.01651 
L 203.694545 183.193118 
L 268.625455 182.560335 
L 398.487273 100.300525 
L 73.832727 244.897877 
L 236.16 276.775749 
L 398.487273 127.618451 
L 73.832727 229.530406 
L 120.211948 93.461383 
L 166.591169 197.305818 
L 259.34961 284.704971 
L 352.108052 94.811099 
L 398.487273 289.290846 
L 73.832727 84.89304 
L 290.269091 220.089698 
L 398.487273 245.960607 
L 73.832727 232.042348 
L 236.16 188.837743 
L 398.487273 203.914528 
L 73.832727 55.444879 
L 203.694545 213.009288 
L 268.625455 153.845666 
L 398.487273 293.402601 
L 73.832727 264.799483 
L 236.16 290.815115 
L 398.487273 238.443269 
L 73.832727 212.110398 
L 290.269091 202.316092 
L 398.487273 289.775316 
L 73.832727 163.794997 
L 102.063557 121.727451 
L 130.294387 189.919613 
L 144.409802 194.410423 
L 158.525217 237.116432 
L 186.756047 181.543231 
L 214.986877 277.810294 
L 243.217708 204.36665 
L 271.448538 267.678338 
L 299.679368 220.692372 
L 313.794783 286.156607 
L 342.025613 109.027161 
L 356.141028 221.373126 
L 370.256443 131.272395 
L 398.487273 104.272645 
L 73.832727 105.777771 
L 398.487273 220.182472 
L 73.832727 67.146425 
L 236.16 138.24068 
L 398.487273 81.996092 
L 73.832727 217.620587 
L 398.487273 165.294453 
L 73.832727 207.693862 
L 87.948142 165.895445 
L 102.063557 282.884855 
L 130.294387 158.98757 
L 144.409802 140.576144 
L 172.640632 267.06971 
L 186.756047 279.575584 
L 200.871462 129.990156 
L 214.986877 164.97859 
L 229.102292 268.929938 
L 243.217708 204.323602 
L 271.448538 67.939021 
L 285.563953 203.779732 
L 299.679368 128.456635 
L 313.794783 138.943591 
L 327.910198 154.094601 
L 342.025613 166.351795 
L 356.141028 234.940159 
L 370.256443 125.571825 
L 398.487273 150.580536 
L 73.832727 259.217846 
L 123.77958 189.167473 
L 173.726434 229.332049 
L 223.673287 157.475805 
L 273.62014 113.262956 
L 323.566993 171.841407 
L 348.54042 169.25708 
L 373.513846 54.470814 
L 398.487273 148.956076 
L 73.832727 99.999363 
L 127.941818 257.181022 
L 236.16 63.171827 
L 290.269091 200.960282 
L 344.378182 269.660074 
L 398.487273 283.816218 
L 73.832727 211.249627 
L 100.887273 280.037456 
L 127.941818 271.007935 
L 154.996364 274.381092 
L 182.050909 180.596524 
L 209.105455 294.713323 
L 263.214545 274.053823 
L 290.269091 148.329898 
L 317.323636 82.533368 
L 344.378182 273.568285 
L 398.487273 107.575377 
L 73.832727 280.386569 
L 138.763636 185.952607 
L 203.694545 278.885342 
L 268.625455 104.491297 
L 398.487273 64.879869 
L 73.832727 143.031323 
L 103.346777 82.327335 
L 132.860826 288.46625 
L 162.374876 172.025263 
L 221.402975 255.507073 
L 280.431074 244.838169 
L 309.945124 81.429658 
L 339.459174 257.155629 
L 368.973223 285.254844 
L 398.487273 101.950306 
L 73.832727 211.675242 
L 236.16 153.762284 
L 398.487273 242.503939 
L 73.832727 151.241459 
L 102.063557 196.769553 
L 116.178972 222.244778 
L 144.409802 117.44809 
L 172.640632 62.239228 
L 200.871462 245.380594 
L 214.986877 188.793039 
L 243.217708 231.885113 
L 271.448538 275.535678 
L 299.679368 170.539792 
L 327.910198 219.597254 
L 356.141028 287.30949 
L 370.256443 230.022165 
L 398.487273 142.424625 
L 73.832727 256.717758 
L 182.050909 148.178486 
L 398.487273 266.820955 
L 73.832727 220.648143 
L 104.752208 206.280731 
L 120.211948 161.075718 
L 151.131429 184.902512 
L 182.050909 256.186065 
L 197.510649 117.780887 
L 228.43013 144.604115 
L 259.34961 97.174239 
L 274.809351 163.862127 
L 305.728831 291.218881 
L 321.188571 155.976256 
L 336.648312 250.971769 
L 367.567792 160.505625 
L 398.487273 230.857383 
L 73.832727 216.748085 
L 145.978182 61.715212 
L 218.123636 150.13886 
L 290.269091 98.448172 
L 326.341818 240.000823 
L 362.414545 288.531768 
L 398.487273 238.529538 
L 73.832727 247.672158 
L 182.050909 65.940229 
L 398.487273 286.087395 
L 73.832727 179.394187 
L 182.050909 81.217695 
L 398.487273 222.60777 
L 73.832727 199.741838 
L 290.269091 184.354347 
L 398.487273 287.866351 
L 73.832727 269.129243 
L 182.050909 199.670267 
L 236.16 121.092933 
L 290.269091 240.805604 
L 398.487273 112.978993 
L 73.832727 275.076233 
L 154.996364 109.163379 
L 236.16 270.754835 
L 317.323636 219.609713 
L 398.487273 117.737013 
L 73.832727 235.70857 
L 398.487273 236.658775 
L 73.832727 129.907039 
L 89.292468 269.756044 
L 120.211948 171.361853 
L 135.671688 155.706629 
L 151.131429 108.743708 
L 166.591169 103.689326 
L 182.050909 292.203977 
L 212.97039 292.187328 
L 243.88987 259.122314 
L 259.34961 141.019217 
L 274.809351 190.990438 
L 290.269091 236.323976 
L 305.728831 211.580189 
L 321.188571 85.261451 
L 336.648312 152.396465 
L 352.108052 293.123677 
L 367.567792 121.741694 
L 398.487273 262.759457 
L 73.832727 241.910186 
L 398.487273 102.734933 
L 73.832727 284.959483 
L 182.050909 58.910085 
L 236.16 190.04934 
L 344.378182 229.956997 
L 398.487273 282.275498 
L 73.832727 217.204606 
L 236.16 285.474113 
L 398.487273 281.468322 
L 73.832727 187.559004 
L 127.941818 157.748541 
L 236.16 193.088875 
L 290.269091 199.68651 
L 398.487273 141.220849 
L 73.832727 290.236097 
L 120.211948 114.537813 
L 143.401558 249.694906 
L 189.780779 284.731633 
L 212.97039 271.122188 
L 236.16 217.86754 
L 259.34961 155.76826 
L 305.728831 116.645131 
L 352.108052 210.000295 
L 375.297662 249.364159 
L 398.487273 199.032865 
L 73.832727 258.065639 
L 290.269091 270.804134 
L 398.487273 291.851975 
L 73.832727 294.270835 
L 166.591169 80.538404 
L 212.97039 61.095986 
L 305.728831 236.528316 
L 352.108052 242.94882 
L 398.487273 206.316965 
L 73.832727 284.683612 
L 236.16 150.038088 
L 398.487273 290.51107 
L 73.832727 95.457564 
L 166.591169 172.200789 
L 259.34961 199.839293 
L 305.728831 113.348774 
L 352.108052 150.955599 
L 398.487273 68.355137 
L 73.832727 272.493868 
L 145.978182 164.473224 
L 218.123636 241.663393 
L 254.196364 226.484224 
L 290.269091 231.152361 
L 362.414545 186.133964 
L 398.487273 111.267978 
L 73.832727 122.415124 
L 112.02738 176.024786 
L 150.222032 244.091015 
L 188.416684 156.060205 
L 226.611337 260.024081 
L 245.708663 287.135163 
L 283.903316 84.205439 
L 322.097968 100.083619 
L 360.29262 257.175804 
L 398.487273 152.758114 
L 73.832727 228.401047 
L 90.919809 230.694914 
L 125.093971 64.813634 
L 159.268134 162.690116 
L 176.355215 217.116552 
L 193.442297 250.626773 
L 210.529378 97.751141 
L 244.703541 187.355453 
L 261.790622 131.122052 
L 295.964785 260.036696 
L 330.138947 266.604136 
L 364.31311 217.704651 
L 398.487273 102.28217 
L 73.832727 128.826539 
L 90.919809 172.765767 
L 108.00689 65.281177 
L 142.181053 256.604011 
L 159.268134 238.142252 
L 176.355215 294.161989 
L 193.442297 120.758289 
L 227.616459 248.501982 
L 244.703541 90.421233 
L 261.790622 267.628268 
L 295.964785 113.298887 
L 313.051866 76.475606 
L 347.226029 119.954439 
L 364.31311 242.242468 
L 398.487273 271.942299 
L 73.832727 292.298105 
L 398.487273 208.531364 
L 73.832727 195.694587 
L 108.00689 292.636051 
L 125.093971 53.911743 
L 142.181053 196.803793 
L 176.355215 276.305792 
L 193.442297 164.560784 
L 210.529378 176.738208 
L 244.703541 87.398048 
L 278.877703 187.940923 
L 295.964785 109.00375 
L 313.051866 58.013627 
L 347.226029 145.629147 
L 364.31311 156.982203 
L 381.400191 277.356715 
L 398.487273 173.072389 
L 73.832727 110.723774 
L 100.887273 97.662901 
L 127.941818 243.107215 
L 182.050909 227.297959 
L 236.16 95.490434 
L 263.214545 106.802217 
L 317.323636 236.702994 
L 344.378182 250.854689 
L 398.487273 76.643577 
L 73.832727 232.677058 
L 112.02738 198.309707 
L 150.222032 226.857449 
L 188.416684 179.575917 
L 226.611337 71.849946 
L 245.708663 278.224642 
L 283.903316 247.521602 
L 322.097968 182.24255 
L 360.29262 144.436469 
L 398.487273 218.767745 
L 73.832727 250.100171 
L 108.00689 194.921999 
L 125.093971 229.127636 
L 159.268134 276.383388 
L 176.355215 124.56375 
L 193.442297 222.048657 
L 210.529378 288.084495 
L 244.703541 287.581536 
L 261.790622 203.032519 
L 278.877703 70.96916 
L 313.051866 286.061396 
L 330.138947 196.506778 
L 347.226029 135.257191 
L 364.31311 59.838051 
L 381.400191 128.519698 
L 398.487273 248.299934 
L 73.832727 120.219976 
L 182.050909 184.480959 
L 290.269091 116.503849 
L 398.487273 207.569792 
L 73.832727 256.510079 
L 114.414545 110.302372 
L 154.996364 77.630183 
L 236.16 106.943629 
L 317.323636 221.529715 
L 398.487273 127.561139 
L 73.832727 138.726568 
L 154.996364 144.934385 
L 317.323636 237.258591 
L 398.487273 189.858388 
L 73.832727 153.897601 
L 203.694545 277.919747 
L 333.556364 184.680105 
L 398.487273 281.286816 
L 73.832727 194.988799 
L 203.694545 264.166196 
L 333.556364 128.356711 
L 398.487273 77.467953 
L 73.832727 62.429715 
L 182.050909 172.861575 
L 290.269091 282.47545 
L 398.487273 148.483116 
L 73.832727 124.249859 
L 398.487273 179.333986 
L 73.832727 288.571684 
L 182.050909 99.033071 
L 290.269091 286.876391 
L 398.487273 141.607763 
L 73.832727 99.717005 
L 114.414545 217.089012 
L 134.705455 59.533155 
L 175.287273 288.341763 
L 195.578182 57.576072 
L 215.869091 266.052711 
L 236.16 255.174211 
L 276.741818 143.202751 
L 297.032727 259.799751 
L 317.323636 198.963215 
L 337.614545 117.922571 
L 378.196364 121.576972 
L 398.487273 77.554328 
L 73.832727 219.075224 
L 91.869091 199.016257 
L 127.941818 63.947373 
L 145.978182 271.531994 
L 164.014545 192.237634 
L 182.050909 192.168323 
L 218.123636 148.310887 
L 254.196364 70.775714 
L 272.232727 272.830251 
L 290.269091 87.543684 
L 308.305455 157.720057 
L 326.341818 91.250578 
L 344.378182 220.223627 
L 362.414545 202.963929 
L 380.450909 163.014215 
L 398.487273 179.058583 
L 73.832727 171.648606 
L 112.02738 132.603591 
L 150.222032 147.217908 
L 188.416684 156.453837 
L 207.514011 143.60344 
L 245.708663 66.854523 
L 283.903316 173.609423 
L 322.097968 116.708651 
L 341.195294 290.614453 
L 360.29262 90.458288 
L 379.389947 111.714516 
L 398.487273 292.961046 
L 73.832727 268.746816 
L 114.414545 259.354573 
L 154.996364 115.25513 
L 195.578182 266.367093 
L 236.16 108.161987 
L 317.323636 180.018326 
L 357.905455 205.985924 
L 398.487273 220.234238 
L 73.832727 248.400948 
L 98.806154 273.909304 
L 123.77958 88.402027 
L 148.753007 160.340742 
L 198.69986 112.085976 
L 223.673287 282.134486 
L 248.646713 89.448932 
L 298.593566 156.129868 
L 348.54042 158.680271 
L 398.487273 196.909922 
L 73.832727 94.612078 
L 132.860826 204.013996 
L 162.374876 141.964699 
L 221.402975 93.927181 
L 280.431074 157.152165 
L 309.945124 242.145006 
L 339.459174 290.138204 
L 398.487273 129.664309 
L 73.832727 291.635017 
L 120.211948 212.383502 
L 212.97039 250.599326 
L 305.728831 243.422239 
L 398.487273 294.766375 
L 73.832727 167.083839 
L 127.941818 170.429883 
L 236.16 215.151045 
L 290.269091 133.269568 
L 398.487273 105.630263 
L 73.832727 218.281089 
L 203.694545 256.909941 
L 268.625455 117.943786 
L 398.487273 292.089119 
L 73.832727 129.552293 
L 398.487273 271.558431 
L 73.832727 234.103018 
L 132.860826 209.046558 
L 191.888926 104.475789 
L 221.402975 234.678092 
L 280.431074 295.485254 
L 339.459174 143.18803 
L 398.487273 156.644994 
L 73.832727 234.487759 
L 182.050909 215.46684 
L 236.16 152.294315 
L 290.269091 258.321049 
L 344.378182 164.96594 
L 398.487273 162.169713 
L 73.832727 139.143863 
L 114.414545 172.982636 
L 154.996364 217.109419 
L 175.287273 166.009702 
L 215.869091 173.322383 
L 236.16 250.285285 
L 256.450909 59.694317 
L 297.032727 105.762534 
L 317.323636 251.058822 
L 357.905455 80.928977 
L 398.487273 161.725737 
L 73.832727 106.210992 
L 138.763636 291.260085 
L 203.694545 196.057186 
L 268.625455 85.737687 
L 333.556364 235.52546 
L 398.487273 154.111068 
L 73.832727 217.748411 
L 95.476364 117.911986 
L 117.12 176.895575 
L 138.763636 291.837435 
L 160.407273 289.054427 
L 182.050909 295.262345 
L 225.338182 222.208573 
L 246.981818 192.889868 
L 290.269091 275.797592 
L 311.912727 184.920877 
L 333.556364 180.614314 
L 355.2 130.425408 
L 398.487273 104.056611 
L 73.832727 78.442033 
L 95.476364 256.05786 
L 138.763636 101.804835 
L 182.050909 293.388185 
L 203.694545 110.363167 
L 246.981818 206.809044 
L 290.269091 193.949244 
L 333.556364 267.299973 
L 355.2 138.049225 
L 376.843636 210.695991 
L 398.487273 119.958521 
L 73.832727 83.618204 
L 290.269091 107.039779 
L 398.487273 275.035983 
L 73.832727 201.389079 
L 203.694545 207.184507 
L 268.625455 191.390183 
L 398.487273 164.167086 
L 73.832727 150.125728 
L 112.02738 250.896956 
L 150.222032 110.757521 
L 169.319358 127.188045 
L 188.416684 84.998405 
L 226.611337 72.041088 
L 264.805989 85.676772 
L 303.000642 291.309462 
L 322.097968 240.701874 
L 341.195294 143.189723 
L 360.29262 128.916642 
L 379.389947 156.181239 
L 398.487273 228.209901 
L 73.832727 115.163084 
L 182.050909 137.187 
L 236.16 159.28863 
L 344.378182 176.685418 
L 398.487273 184.770623 
L 73.832727 140.464942 
L 112.02738 280.240321 
L 150.222032 254.384856 
L 169.319358 162.567674 
L 207.514011 207.596555 
L 226.611337 294.32232 
L 264.805989 58.35333 
L 283.903316 285.14231 
L 303.000642 211.328305 
L 341.195294 191.371794 
L 360.29262 126.018873 
L 379.389947 58.895436 
L 398.487273 281.374822 
L 73.832727 139.721116 
L 290.269091 214.499371 
L 398.487273 257.650341 
L 73.832727 159.309377 
L 398.487273 229.347298 
L 73.832727 226.133551 
L 182.050909 291.135086 
L 398.487273 240.20994 
L 73.832727 182.656058 
L 236.16 159.374856 
L 317.323636 80.866756 
L 398.487273 235.294884 
L 73.832727 284.950463 
L 236.16 285.556724 
L 398.487273 225.080069 
L 73.832727 261.923414 
L 100.887273 233.18092 
L 154.996364 212.222778 
L 209.105455 264.824018 
L 263.214545 130.481117 
L 317.323636 231.531786 
L 371.432727 80.710517 
L 398.487273 81.333638 
L 73.832727 202.246082 
L 120.211948 251.889478 
L 166.591169 241.781207 
L 212.97039 204.777617 
L 259.34961 81.637675 
L 282.539221 151.379811 
L 305.728831 251.207331 
L 352.108052 217.283407 
L 398.487273 89.044061 
L 73.832727 93.907856 
L 117.12 124.080172 
L 138.763636 256.438472 
L 182.050909 170.599426 
L 203.694545 142.74819 
L 246.981818 86.625729 
L 268.625455 237.935178 
L 311.912727 128.486966 
L 355.2 157.494355 
L 398.487273 258.394146 
L 73.832727 265.974608 
L 94.123636 253.299778 
L 134.705455 240.650972 
L 154.996364 200.593838 
L 195.578182 284.880811 
L 215.869091 147.421807 
L 236.16 132.6305 
L 256.450909 109.236459 
L 276.741818 146.584424 
L 317.323636 119.285931 
L 357.905455 74.29355 
L 398.487273 148.938749 
L 73.832727 110.707288 
L 398.487273 257.904918 
L 73.832727 224.446806 
L 398.487273 144.235559 
L 73.832727 230.147367 
L 236.16 248.590398 
L 398.487273 229.143562 
L 73.832727 293.793909 
L 123.77958 263.182869 
L 148.753007 289.832659 
L 173.726434 282.604214 
L 223.673287 257.402215 
L 248.646713 247.338775 
L 273.62014 241.156015 
L 298.593566 68.659847 
L 348.54042 226.354246 
L 373.513846 293.363332 
L 398.487273 123.161473 
L 73.832727 294.102515 
L 236.16 64.925865 
L 398.487273 293.550903 
L 73.832727 183.905896 
L 398.487273 123.886096 
L 73.832727 113.284514 
L 182.050909 84.619543 
L 398.487273 196.570494 
L 73.832727 152.88502 
L 138.763636 85.244547 
L 203.694545 103.416398 
L 236.16 151.229628 
L 301.090909 252.128359 
L 366.021818 121.895495 
L 398.487273 202.224946 
L 73.832727 201.2461 
L 398.487273 290.204832 
L 73.832727 270.71909 
L 236.16 113.288212 
L 398.487273 98.296165 
L 73.832727 84.696039 
L 132.860826 208.628873 
L 162.374876 180.02493 
L 221.402975 131.037182 
L 280.431074 286.022561 
L 309.945124 236.342304 
L 339.459174 59.840483 
L 398.487273 130.126364 
L 73.832727 281.772732 
L 106.298182 72.545112 
L 138.763636 55.371912 
L 171.229091 149.562004 
L 203.694545 240.796042 
L 268.625455 56.992978 
L 301.090909 178.112881 
L 333.556364 134.172989 
L 398.487273 80.532729 
L 73.832727 70.568518 
L 398.487273 227.450299 
L 73.832727 288.507176 
L 123.77958 69.116666 
L 148.753007 201.466541 
L 198.69986 278.65845 
L 248.646713 288.300735 
L 298.593566 56.099918 
L 323.566993 202.469741 
L 348.54042 206.519909 
L 398.487273 121.57743 
L 73.832727 165.087512 
L 154.996364 58.602973 
L 236.16 158.730796 
L 317.323636 190.167203 
L 398.487273 235.781082 
L 73.832727 75.767876 
L 236.16 269.740696 
L 398.487273 226.319517 
L 73.832727 261.403447 
L 182.050909 58.960152 
L 290.269091 104.328509 
L 398.487273 143.68062 
L 73.832727 142.084209 
L 398.487273 56.064616 
L 73.832727 288.54925 
L 123.77958 295.386955 
L 148.753007 278.18663 
L 173.726434 168.788574 
L 223.673287 132.108699 
L 273.62014 237.585326 
L 298.593566 289.343216 
L 348.54042 294.624118 
L 398.487273 239.148576 
L 73.832727 77.756297 
L 154.996364 185.549614 
L 195.578182 144.01434 
L 276.741818 168.381492 
L 357.905455 204.404778 
L 398.487273 83.833103 
L 73.832727 151.236917 
L 236.16 293.604169 
L 398.487273 259.13435 
L 73.832727 252.05975 
L 123.77958 80.634878 
L 173.726434 134.359196 
L 198.69986 232.962233 
L 248.646713 107.860385 
L 273.62014 173.423835 
L 323.566993 277.200697 
L 373.513846 290.255044 
L 398.487273 287.730369 
L 73.832727 154.66314 
L 236.16 265.562838 
L 398.487273 157.292651 
L 73.832727 104.236677 
L 398.487273 243.475885 
L 73.832727 190.352496 
L 100.887273 159.840271 
L 154.996364 136.766155 
L 182.050909 57.743229 
L 209.105455 292.965645 
L 263.214545 139.529306 
L 290.269091 202.359781 
L 344.378182 251.746916 
L 371.432727 230.171793 
L 398.487273 219.542775 
L 73.832727 163.673934 
L 127.941818 64.77853 
L 182.050909 94.276646 
L 236.16 110.575085 
L 263.214545 73.473848 
L 290.269091 73.127392 
L 317.323636 285.242005 
L 344.378182 192.800348 
L 371.432727 127.00567 
L 398.487273 269.467803 
L 73.832727 261.698745 
L 236.16 91.594086 
L 398.487273 229.5783 
L 73.832727 142.823368 
L 398.487273 259.505258 
L 73.832727 125.74311 
L 398.487273 278.397384 
L 73.832727 150.511582 
L 398.487273 291.071768 
L 73.832727 81.331447 
L 398.487273 185.891874 
L 73.832727 254.855609 
L 154.996364 253.802842 
L 236.16 253.050609 
L 398.487273 115.158288 
L 73.832727 144.15084 
L 123.77958 197.297464 
L 173.726434 280.374967 
L 198.69986 281.250827 
L 223.673287 208.401381 
L 248.646713 287.463696 
L 273.62014 267.638576 
L 298.593566 213.004455 
L 348.54042 144.044899 
L 398.487273 241.610305 
L 73.832727 112.558251 
L 127.941818 166.837997 
L 236.16 277.120698 
L 290.269091 193.220781 
L 398.487273 292.743153 
L 73.832727 257.5488 
L 236.16 55.369085 
L 398.487273 110.205944 
L 73.832727 94.043751 
L 106.298182 214.73123 
L 138.763636 140.442422 
L 171.229091 294.488269 
L 236.16 224.578213 
L 268.625455 145.883264 
L 301.090909 233.128722 
L 333.556364 258.831941 
L 398.487273 294.196381 
L 73.832727 207.40854 
L 182.050909 141.197183 
L 290.269091 58.115208 
L 344.378182 222.475652 
L 398.487273 61.718587 
L 73.832727 183.2222 
L 182.050909 89.926511 
L 398.487273 125.416254 
L 73.832727 227.889082 
L 154.996364 217.215467 
L 236.16 86.154569 
L 398.487273 155.060849 
L 73.832727 257.783065 
L 398.487273 230.886033 
L 73.832727 253.451559 
L 138.763636 116.790997 
L 268.625455 223.941651 
L 333.556364 271.418409 
L 398.487273 163.883465 
L 73.832727 159.813623 
L 182.050909 145.698835 
L 398.487273 129.976378 
L 73.832727 287.563287 
L 120.211948 193.535824 
L 212.97039 113.068182 
L 259.34961 232.940816 
L 305.728831 186.148604 
L 352.108052 248.672044 
L 398.487273 103.576755 
L 73.832727 262.861741 
L 114.414545 183.468848 
L 154.996364 242.928802 
L 195.578182 222.609133 
L 236.16 159.605092 
L 276.741818 162.509646 
L 317.323636 157.819365 
L 357.905455 242.29923 
L 398.487273 236.251177 
L 73.832727 206.773364 
L 138.763636 245.294302 
L 268.625455 268.917523 
L 333.556364 165.727884 
L 398.487273 282.98045 
L 73.832727 74.364782 
L 132.860826 168.908321 
L 191.888926 201.909699 
L 250.917025 273.17898 
L 309.945124 186.357928 
L 339.459174 95.852367 
L 398.487273 198.358557 
L 73.832727 250.461767 
L 127.941818 251.146512 
L 154.996364 230.325277 
L 182.050909 230.443734 
L 209.105455 285.394569 
L 236.16 274.447141 
L 263.214545 285.96084 
L 290.269091 108.300452 
L 317.323636 293.148688 
L 344.378182 287.307925 
L 371.432727 258.658722 
L 398.487273 261.736406 
L 73.832727 127.933746 
L 145.978182 274.805213 
L 182.050909 257.912617 
L 254.196364 64.76597 
L 326.341818 230.99477 
L 398.487273 112.569086 
L 73.832727 63.727087 
L 203.694545 293.894494 
L 268.625455 91.76162 
L 333.556364 262.003227 
L 398.487273 188.012369 
L 73.832727 99.566857 
L 182.050909 206.815782 
L 290.269091 250.402938 
L 398.487273 84.387559 
L 73.832727 288.011559 
L 109.905455 238.054409 
L 145.978182 215.948712 
L 182.050909 71.228998 
L 254.196364 91.578134 
L 326.341818 213.791666 
L 362.414545 229.414086 
L 398.487273 244.118233 
L 73.832727 161.874476 
L 106.298182 256.424663 
L 138.763636 233.08344 
L 203.694545 244.188005 
L 236.16 245.986103 
L 268.625455 293.116752 
L 301.090909 234.217259 
L 333.556364 286.553817 
L 366.021818 176.881951 
L 398.487273 174.000236 
L 73.832727 199.474361 
L 398.487273 64.452499 
L 73.832727 153.737889 
L 398.487273 267.688872 
L 73.832727 196.760812 
L 138.763636 76.91276 
L 171.229091 196.86358 
L 203.694545 230.533474 
L 236.16 173.185146 
L 301.090909 145.553671 
L 333.556364 201.809658 
L 366.021818 260.709089 
L 398.487273 274.412213 
L 73.832727 280.244241 
L 166.591169 157.844397 
L 259.34961 158.848493 
L 352.108052 244.659928 
L 398.487273 192.973294 
L 73.832727 214.997731 
L 145.978182 152.832894 
L 182.050909 234.577829 
L 218.123636 56.321617 
L 290.269091 287.699859 
L 326.341818 295.128528 
L 398.487273 274.765195 
L 73.832727 246.566374 
L 398.487273 156.715677 
L 73.832727 76.058541 
L 145.978182 256.612009 
L 218.123636 146.966995 
L 290.269091 174.106258 
L 362.414545 125.958192 
L 398.487273 219.781114 
L 73.832727 151.143308 
L 132.860826 294.753672 
L 191.888926 204.454044 
L 221.402975 214.425158 
L 280.431074 171.232336 
L 309.945124 83.497927 
L 339.459174 86.316644 
L 398.487273 228.758609 
L 73.832727 252.656353 
L 145.978182 73.880759 
L 218.123636 68.588034 
L 254.196364 169.878922 
L 326.341818 233.787857 
L 398.487273 275.695697 
L 73.832727 271.978999 
L 290.269091 259.147399 
L 398.487273 282.460542 
L 73.832727 141.860457 
L 114.414545 179.780441 
L 195.578182 217.042644 
L 236.16 99.620135 
L 276.741818 192.528278 
L 317.323636 174.771944 
L 398.487273 192.24832 
L 73.832727 241.200895 
L 138.763636 236.808471 
L 171.229091 237.352637 
L 236.16 246.815414 
L 301.090909 75.950243 
L 333.556364 295.271847 
L 398.487273 152.328341 
L 73.832727 283.615137 
L 106.298182 270.696603 
L 171.229091 289.727634 
L 203.694545 141.761334 
L 236.16 194.190508 
L 301.090909 217.572417 
L 333.556364 188.705234 
L 366.021818 251.541626 
L 398.487273 226.948564 
L 73.832727 111.413433 
L 109.905455 62.288835 
L 182.050909 257.13967 
L 218.123636 209.706932 
L 254.196364 278.393204 
L 290.269091 172.286912 
L 326.341818 183.537961 
L 362.414545 125.910981 
L 398.487273 156.13722 
L 73.832727 192.111044 
L 236.16 93.090134 
L 317.323636 218.694813 
L 398.487273 83.30133 
L 73.832727 218.961143 
L 182.050909 275.27325 
L 398.487273 244.024624 
L 73.832727 71.145814 
L 203.694545 160.34813 
L 333.556364 188.697193 
L 398.487273 121.193872 
L 73.832727 185.183575 
L 236.16 209.271558 
L 398.487273 183.168865 
L 73.832727 59.7446 
L 236.16 115.282634 
L 398.487273 150.666526 
L 73.832727 215.593123 
L 182.050909 274.10683 
L 236.16 243.194505 
L 290.269091 288.927359 
L 398.487273 294.754421 
L 73.832727 217.034261 
L 114.414545 170.708721 
L 154.996364 235.08465 
L 236.16 294.297002 
L 317.323636 120.345798 
L 398.487273 221.409541 
L 73.832727 94.627778 
L 145.978182 69.531645 
L 218.123636 189.369097 
L 290.269091 199.481063 
L 326.341818 189.001195 
L 398.487273 110.725354 
L 73.832727 149.010086 
L 145.978182 238.429678 
L 218.123636 203.230731 
L 254.196364 200.821217 
L 326.341818 208.830794 
L 398.487273 82.890019 
L 73.832727 128.649681 
L 145.978182 197.754361 
L 218.123636 204.690665 
L 254.196364 89.519909 
L 326.341818 65.05494 
L 362.414545 151.634628 
L 398.487273 129.320675 
L 73.832727 119.719441 
L 154.996364 230.202607 
L 236.16 90.391846 
L 317.323636 294.599475 
L 398.487273 223.26563 
L 73.832727 280.484001 
L 145.978182 82.572084 
L 218.123636 79.241993 
L 254.196364 276.571627 
L 326.341818 294.458711 
L 362.414545 225.783239 
L 398.487273 265.812164 
L 73.832727 141.74738 
L 127.941818 252.407062 
L 236.16 217.19543 
L 344.378182 77.699367 
L 398.487273 220.447206 
L 73.832727 80.31041 
L 145.978182 189.388517 
L 182.050909 143.977494 
L 254.196364 192.000558 
L 290.269091 85.20579 
L 362.414545 202.232116 
L 398.487273 276.961243 
L 73.832727 87.848798 
L 114.414545 215.837142 
L 195.578182 99.317589 
L 276.741818 187.91336 
L 357.905455 107.367183 
L 398.487273 136.630907 
L 73.832727 278.007252 
L 154.996364 291.164696 
L 236.16 244.437451 
L 317.323636 293.125426 
L 398.487273 71.723071 
L 73.832727 265.013681 
L 182.050909 272.590207 
L 290.269091 143.587808 
L 344.378182 181.214639 
L 398.487273 129.729117 
L 73.832727 225.493052 
L 154.996364 196.62872 
L 236.16 80.731713 
L 276.741818 87.682109 
L 317.323636 173.970903 
L 398.487273 88.340857 
L 73.832727 142.940457 
L 398.487273 80.347868 
L 73.832727 109.51421 
L 236.16 80.564004 
L 398.487273 164.963834 
L 73.832727 271.929671 
L 145.978182 232.472843 
L 182.050909 208.858581 
L 254.196364 137.319634 
L 326.341818 176.279558 
L 398.487273 278.742747 
L 73.832727 211.428462 
L 154.996364 147.736292 
L 236.16 295.066563 
L 398.487273 294.742588 
L 73.832727 139.736699 
L 182.050909 257.319739 
L 398.487273 251.346177 
L 73.832727 255.903972 
L 203.694545 135.877782 
L 333.556364 202.835899 
L 398.487273 170.631402 
L 73.832727 164.607362 
L 203.694545 242.251874 
L 333.556364 250.050669 
L 398.487273 221.650269 
L 73.832727 178.496291 
L 120.211948 270.14179 
L 212.97039 293.162239 
L 259.34961 53.568 
L 305.728831 90.803987 
L 398.487273 136.970784 
L 73.832727 252.464205 
L 236.16 183.516375 
L 398.487273 164.829586 
L 73.832727 70.170445 
L 236.16 254.899143 
L 398.487273 259.45702 
L 73.832727 68.739031 
L 236.16 175.825115 
L 398.487273 262.196662 
L 73.832727 190.366953 
L 236.16 79.671349 
L 398.487273 207.183041 
L 73.832727 282.566714 
L 236.16 173.344157 
L 398.487273 79.943288 
L 73.832727 147.222424 
L 166.591169 116.606427 
L 259.34961 124.075398 
L 352.108052 202.56228 
L 398.487273 220.924638 
L 73.832727 211.661439 
L 182.050909 276.158944 
L 290.269091 200.280869 
L 398.487273 88.586372 
L 73.832727 284.502117 
L 182.050909 204.516425 
L 236.16 92.293299 
L 290.269091 89.147286 
L 398.487273 237.961852 
L 73.832727 250.792852 
L 236.16 279.460039 
L 398.487273 131.615336 
L 73.832727 281.631625 
L 166.591169 108.67312 
L 259.34961 277.090801 
L 352.108052 291.82191 
L 398.487273 170.289842 
L 73.832727 182.898684 
L 182.050909 193.487407 
L 290.269091 180.189633 
L 398.487273 94.446819 
L 73.832727 201.742342 
L 154.996364 202.731203 
L 236.16 110.777097 
L 398.487273 67.199334 
L 73.832727 220.25188 
L 166.591169 289.657299 
L 212.97039 119.321672 
L 305.728831 88.754584 
L 398.487273 205.11126 
L 73.832727 271.026473 
L 138.763636 200.35405 
L 268.625455 173.594775 
L 398.487273 262.74608 
L 73.832727 251.580609 
L 138.763636 293.399086 
L 203.694545 273.364303 
L 268.625455 288.227826 
L 398.487273 216.618705 
L 73.832727 138.374986 
L 236.16 190.553889 
L 398.487273 237.87128 
L 73.832727 239.821471 
L 127.941818 207.750931 
L 236.16 141.548871 
L 290.269091 290.436404 
L 398.487273 158.565229 
L 73.832727 152.16802 
L 138.763636 272.700271 
L 203.694545 259.524632 
L 333.556364 152.209451 
L 398.487273 201.451332 
L 73.832727 277.387438 
L 203.694545 65.226737 
L 333.556364 117.233605 
L 398.487273 165.013586 
L 73.832727 152.270302 
L 166.591169 61.587455 
L 212.97039 264.533978 
L 259.34961 258.481451 
L 305.728831 93.97491 
L 398.487273 159.931088 
L 73.832727 149.118745 
L 182.050909 243.80867 
L 236.16 147.001173 
L 290.269091 215.777457 
L 398.487273 197.486545 
L 73.832727 116.81563 
L 166.591169 261.629603 
L 259.34961 131.888744 
L 352.108052 53.855841 
L 398.487273 82.89459 
L 73.832727 290.983131 
L 127.941818 203.712557 
L 236.16 273.469084 
L 290.269091 254.795259 
L 398.487273 216.266291 
L 73.832727 83.775281 
L 398.487273 122.833822 
L 73.832727 264.254957 
L 236.16 272.966143 
L 398.487273 258.537201 
L 73.832727 195.692766 
L 290.269091 284.56708 
L 398.487273 277.276356 
L 73.832727 284.137128 
L 203.694545 226.727813 
L 268.625455 144.575373 
L 398.487273 174.098447 
L 73.832727 208.253787 
L 398.487273 80.709878 
L 73.832727 53.93133 
L 203.694545 295.485249 
L 268.625455 293.409187 
L 333.556364 223.786372 
L 398.487273 260.082927 
L 73.832727 163.302408 
L 182.050909 260.80139 
L 398.487273 146.551902 
L 73.832727 97.316943 
L 236.16 192.991393 
L 398.487273 295.04451 
L 73.832727 77.563748 
L 398.487273 206.778483 
L 73.832727 87.685536 
L 398.487273 237.137553 
L 73.832727 274.935865 
L 203.694545 88.220422 
L 333.556364 238.099902 
L 398.487273 77.555684 
L 73.832727 54.003667 
L 203.694545 99.833201 
L 268.625455 267.275125 
L 398.487273 71.998067 
L 73.832727 135.508465 
L 398.487273 63.647175 
L 73.832727 159.526685 
L 236.16 203.257564 
L 398.487273 282.762051 
L 73.832727 281.868504 
L 138.763636 172.607711 
L 203.694545 265.62831 
L 268.625455 236.750284 
L 333.556364 265.768432 
L 398.487273 161.624885 
L 73.832727 123.345359 
L 154.996364 273.878582 
L 236.16 170.958594 
L 398.487273 56.438401 
L 73.832727 257.193848 
L 127.941818 197.336633 
L 182.050909 140.134206 
L 236.16 151.266789 
L 344.378182 227.607071 
L 398.487273 126.21889 
L 73.832727 119.23289 
L 203.694545 105.660247 
L 333.556364 205.581735 
L 398.487273 70.670291 
L 73.832727 107.753439 
L 138.763636 101.483342 
L 203.694545 237.413431 
L 268.625455 217.53965 
L 398.487273 107.933571 
L 73.832727 286.558982 
L 290.269091 62.069395 
L 398.487273 138.299117 
L 73.832727 234.643935 
L 398.487273 214.464252 
L 73.832727 220.224478 
L 236.16 120.231531 
L 398.487273 266.158068 
L 73.832727 75.871475 
L 203.694545 167.345802 
L 268.625455 261.763862 
L 398.487273 119.182478 
L 73.832727 279.132061 
L 236.16 122.829403 
L 398.487273 58.367687 
L 73.832727 287.289287 
L 290.269091 190.757848 
L 398.487273 161.105377 
L 73.832727 121.05051 
L 182.050909 83.751113 
L 398.487273 201.11287 
L 73.832727 269.095583 
L 154.996364 173.761123 
L 236.16 178.612704 
L 398.487273 249.865296 
L 73.832727 122.846799 
L 236.16 79.164816 
L 398.487273 267.510061 
L 73.832727 127.911207 
L 154.996364 95.901976 
L 236.16 104.404099 
L 398.487273 106.587738 
L 73.832727 155.933586 
L 154.996364 282.949583 
L 236.16 190.411514 
L 317.323636 177.130001 
L 398.487273 182.591453 
L 73.832727 170.452614 
L 154.996364 150.720398 
L 236.16 62.276111 
L 398.487273 117.839359 
L 73.832727 90.893224 
L 203.694545 191.018119 
L 333.556364 225.868619 
L 398.487273 294.768598 
L 73.832727 162.804204 
L 398.487273 155.362381 
L 73.832727 137.537531 
L 203.694545 178.823668 
L 333.556364 65.289334 
L 398.487273 208.943262 
L 73.832727 288.31506 
L 290.269091 218.215739 
L 398.487273 191.967809 
L 73.832727 211.901436 
L 236.16 230.926482 
L 398.487273 126.930452 
L 73.832727 66.506766 
L 182.050909 81.344313 
L 398.487273 114.695087 
L 73.832727 168.439863 
L 290.269091 189.403414 
L 398.487273 200.208867 
L 73.832727 168.934007 
L 290.269091 121.712826 
L 398.487273 149.102068 
L 73.832727 244.563402 
L 236.16 141.907606 
L 398.487273 218.037791 
L 73.832727 136.200117 
L 236.16 199.601042 
L 398.487273 76.357372 
L 73.832727 169.817282 
L 398.487273 136.559491 
L 73.832727 113.036112 
L 398.487273 265.014546 
L 73.832727 65.994011 
L 398.487273 57.533021 
L 73.832727 246.570399 
L 398.487273 295.488 
L 73.832727 108.191241 
L 182.050909 217.194604 
L 398.487273 148.983173 
L 73.832727 289.50764 
L 182.050909 171.004216 
L 398.487273 169.145903 
L 73.832727 268.752895 
L 290.269091 154.157195 
L 398.487273 197.253113 
L 73.832727 293.245524 
L 154.996364 121.790104 
L 317.323636 164.404129 
L 398.487273 204.812407 
L 73.832727 267.205214 
L 398.487273 190.779663 
L 73.832727 277.548835 
L 236.16 203.977253 
L 398.487273 252.015969 
L 73.832727 127.184445 
L 154.996364 117.005278 
L 317.323636 81.124267 
L 398.487273 159.941349 
L 73.832727 228.376835 
L 182.050909 218.36625 
L 398.487273 277.143464 
L 73.832727 75.346863 
L 236.16 185.690706 
L 398.487273 229.340988 
L 73.832727 236.207933 
L 236.16 203.634671 
L 398.487273 264.727975 
L 73.832727 236.014864 
L 398.487273 152.611755 
L 73.832727 199.531469 
L 154.996364 182.01659 
L 236.16 236.405445 
L 398.487273 150.968807 
L 73.832727 180.04142 
L 398.487273 129.308741 
L 73.832727 60.718616 
L 398.487273 172.436408 
L 73.832727 198.637089 
L 398.487273 185.534229 
L 73.832727 202.438693 
L 182.050909 211.451695 
L 398.487273 221.499379 
L 73.832727 181.842767 
L 398.487273 197.103036 
L 73.832727 154.326834 
L 290.269091 69.922035 
L 398.487273 246.13928 
L 73.832727 196.332406 
L 398.487273 291.395831 
L 73.832727 193.613174 
L 398.487273 218.168146 
L 73.832727 274.284277 
L 398.487273 67.402317 
L 398.487273 67.402317 
" clip-path="url(#pd08766e22c)" style="fill: none; stroke: #1f77b4; stroke-width: 1.5; stroke-linecap: square"/>
   </g>
   <g id="patch_3">
    <path d="M 57.6 307.584 
L 57.6 41.472 
" style="fill: none; stroke: #000000; stroke-width: 0.8; stroke-linejoin: miter; stroke-linecap: square"/>
   </g>
   <g id="patch_4">
    <path d="M 414.72 307.584 
L 414.72 41.472 
" style="fill: none; stroke: #000000; stroke-width: 0.8; stroke-linejoin: miter; stroke-linecap: square"/>
   </g>
   <g id="patch_5">
    <path d="M 57.6 307.584 
L 414.72 307.584 
" style="fill: none; stroke: #000000; stroke-width: 0.8; stroke-linejoin: miter; stroke-linecap: square"/>
   </g>
   <g id="patch_6">
    <path d="M 57.6 41.472 
L 414.72 41.472 
" style="fill: none; stroke: #000000; stroke-width: 0.8; stroke-linejoin: miter; stroke-linecap: square"/>
   </g>
  </g>
 </g>
 <defs>
  <clipPath id="pd08766e22c">
   <rect x="57.6" y="41.472" width="357.12" height="266.112"/>
  </clipPath>
 </defs>
</svg>
