<?xml version="1.0" encoding="utf-8" standalone="no"?>
<!DOCTYPE svg PUBLIC "-//W3C//DTD SVG 1.1//EN"
  "http://www.w3.org/Graphics/SVG/1.1/DTD/svg11.dtd">
<svg xmlns:xlink="http://www.w3.org/1999/xlink" width="402.080938pt" height="286.790125pt" viewBox="0 0 402.080938 286.790125" xmlns="http://www.w3.org/2000/svg" version="1.1">
 <metadata>
  <rdf:RDF xmlns:dc="http://purl.org/dc/elements/1.1/" xmlns:cc="http://creativecommons.org/ns#" xmlns:rdf="http://www.w3.org/1999/02/22-rdf-syntax-ns#">
   <cc:Work>
    <dc:type rdf:resource="http://purl.org/dc/dcmitype/StillImage"/>
    <dc:date>2023-06-13T22:29:58.404578</dc:date>
    <dc:format>image/svg+xml</dc:format>
    <dc:creator>
     <cc:Agent>
      <dc:title>Matplotlib v3.5.2, https://matplotlib.org/</dc:title>
     </cc:Agent>
    </dc:creator>
   </cc:Work>
  </rdf:RDF>
 </metadata>
 <defs>
  <style type="text/css">*{stroke-linejoin: round; stroke-linecap: butt}</style>
 </defs>
 <g id="figure_1">
  <g id="patch_1">
   <path d="M 0 286.790125 
L 402.080938 286.790125 
L 402.080938 -0 
L 0 -0 
z
" style="fill: #ffffff"/>
  </g>
  <g id="axes_1">
   <g id="patch_2">
    <path d="M 44.960938 266.112 
L 402.080938 266.112 
L 402.080938 -0 
L 44.960938 -0 
z
" style="fill: #ffffff"/>
   </g>
   <g id="matplotlib.axis_1">
    <g id="xtick_1">
     <g id="line2d_1">
      <path d="M 63.854768 266.112 
L 63.854768 -0 
" clip-path="url(#p687e814ae1)" style="fill: none; stroke: #b0b0b0; stroke-width: 0.8; stroke-linecap: square"/>
     </g>
     <g id="line2d_2">
      <defs>
       <path id="maf36f7470c" d="M 0 0 
L 0 3.5 
" style="stroke: #000000; stroke-width: 0.8"/>
      </defs>
      <g>
       <use xlink:href="#maf36f7470c" x="63.854768" y="266.112" style="stroke: #000000; stroke-width: 0.8"/>
      </g>
     </g>
    </g>
    <g id="xtick_2">
     <g id="line2d_3">
      <path d="M 70.507525 266.112 
L 70.507525 -0 
" clip-path="url(#p687e814ae1)" style="fill: none; stroke: #b0b0b0; stroke-width: 0.8; stroke-linecap: square"/>
     </g>
     <g id="line2d_4">
      <g>
       <use xlink:href="#maf36f7470c" x="70.507525" y="266.112" style="stroke: #000000; stroke-width: 0.8"/>
      </g>
     </g>
    </g>
    <g id="xtick_3">
     <g id="line2d_5">
      <path d="M 77.160282 266.112 
L 77.160282 -0 
" clip-path="url(#p687e814ae1)" style="fill: none; stroke: #b0b0b0; stroke-width: 0.8; stroke-linecap: square"/>
     </g>
     <g id="line2d_6">
      <g>
       <use xlink:href="#maf36f7470c" x="77.160282" y="266.112" style="stroke: #000000; stroke-width: 0.8"/>
      </g>
     </g>
    </g>
    <g id="xtick_4">
     <g id="line2d_7">
      <path d="M 83.813039 266.112 
L 83.813039 -0 
" clip-path="url(#p687e814ae1)" style="fill: none; stroke: #b0b0b0; stroke-width: 0.8; stroke-linecap: square"/>
     </g>
     <g id="line2d_8">
      <g>
       <use xlink:href="#maf36f7470c" x="83.813039" y="266.112" style="stroke: #000000; stroke-width: 0.8"/>
      </g>
     </g>
    </g>
    <g id="xtick_5">
     <g id="line2d_9">
      <path d="M 90.465796 266.112 
L 90.465796 -0 
" clip-path="url(#p687e814ae1)" style="fill: none; stroke: #b0b0b0; stroke-width: 0.8; stroke-linecap: square"/>
     </g>
     <g id="line2d_10">
      <g>
       <use xlink:href="#maf36f7470c" x="90.465796" y="266.112" style="stroke: #000000; stroke-width: 0.8"/>
      </g>
     </g>
    </g>
    <g id="xtick_6">
     <g id="line2d_11">
      <path d="M 97.118553 266.112 
L 97.118553 -0 
" clip-path="url(#p687e814ae1)" style="fill: none; stroke: #b0b0b0; stroke-width: 0.8; stroke-linecap: square"/>
     </g>
     <g id="line2d_12">
      <g>
       <use xlink:href="#maf36f7470c" x="97.118553" y="266.112" style="stroke: #000000; stroke-width: 0.8"/>
      </g>
     </g>
    </g>
    <g id="xtick_7">
     <g id="line2d_13">
      <path d="M 103.77131 266.112 
L 103.77131 -0 
" clip-path="url(#p687e814ae1)" style="fill: none; stroke: #b0b0b0; stroke-width: 0.8; stroke-linecap: square"/>
     </g>
     <g id="line2d_14">
      <g>
       <use xlink:href="#maf36f7470c" x="103.77131" y="266.112" style="stroke: #000000; stroke-width: 0.8"/>
      </g>
     </g>
    </g>
    <g id="xtick_8">
     <g id="line2d_15">
      <path d="M 110.424067 266.112 
L 110.424067 -0 
" clip-path="url(#p687e814ae1)" style="fill: none; stroke: #b0b0b0; stroke-width: 0.8; stroke-linecap: square"/>
     </g>
     <g id="line2d_16">
      <g>
       <use xlink:href="#maf36f7470c" x="110.424067" y="266.112" style="stroke: #000000; stroke-width: 0.8"/>
      </g>
     </g>
    </g>
    <g id="xtick_9">
     <g id="line2d_17">
      <path d="M 117.076824 266.112 
L 117.076824 -0 
" clip-path="url(#p687e814ae1)" style="fill: none; stroke: #b0b0b0; stroke-width: 0.8; stroke-linecap: square"/>
     </g>
     <g id="line2d_18">
      <g>
       <use xlink:href="#maf36f7470c" x="117.076824" y="266.112" style="stroke: #000000; stroke-width: 0.8"/>
      </g>
     </g>
    </g>
    <g id="xtick_10">
     <g id="line2d_19">
      <path d="M 123.729581 266.112 
L 123.729581 -0 
" clip-path="url(#p687e814ae1)" style="fill: none; stroke: #b0b0b0; stroke-width: 0.8; stroke-linecap: square"/>
     </g>
     <g id="line2d_20">
      <g>
       <use xlink:href="#maf36f7470c" x="123.729581" y="266.112" style="stroke: #000000; stroke-width: 0.8"/>
      </g>
     </g>
    </g>
    <g id="xtick_11">
     <g id="line2d_21">
      <path d="M 130.382338 266.112 
L 130.382338 -0 
" clip-path="url(#p687e814ae1)" style="fill: none; stroke: #b0b0b0; stroke-width: 0.8; stroke-linecap: square"/>
     </g>
     <g id="line2d_22">
      <g>
       <use xlink:href="#maf36f7470c" x="130.382338" y="266.112" style="stroke: #000000; stroke-width: 0.8"/>
      </g>
     </g>
    </g>
    <g id="xtick_12">
     <g id="line2d_23">
      <path d="M 137.035095 266.112 
L 137.035095 -0 
" clip-path="url(#p687e814ae1)" style="fill: none; stroke: #b0b0b0; stroke-width: 0.8; stroke-linecap: square"/>
     </g>
     <g id="line2d_24">
      <g>
       <use xlink:href="#maf36f7470c" x="137.035095" y="266.112" style="stroke: #000000; stroke-width: 0.8"/>
      </g>
     </g>
    </g>
    <g id="xtick_13">
     <g id="line2d_25">
      <path d="M 143.687853 266.112 
L 143.687853 -0 
" clip-path="url(#p687e814ae1)" style="fill: none; stroke: #b0b0b0; stroke-width: 0.8; stroke-linecap: square"/>
     </g>
     <g id="line2d_26">
      <g>
       <use xlink:href="#maf36f7470c" x="143.687853" y="266.112" style="stroke: #000000; stroke-width: 0.8"/>
      </g>
     </g>
    </g>
    <g id="xtick_14">
     <g id="line2d_27">
      <path d="M 150.34061 266.112 
L 150.34061 -0 
" clip-path="url(#p687e814ae1)" style="fill: none; stroke: #b0b0b0; stroke-width: 0.8; stroke-linecap: square"/>
     </g>
     <g id="line2d_28">
      <g>
       <use xlink:href="#maf36f7470c" x="150.34061" y="266.112" style="stroke: #000000; stroke-width: 0.8"/>
      </g>
     </g>
    </g>
    <g id="xtick_15">
     <g id="line2d_29">
      <path d="M 156.993367 266.112 
L 156.993367 -0 
" clip-path="url(#p687e814ae1)" style="fill: none; stroke: #b0b0b0; stroke-width: 0.8; stroke-linecap: square"/>
     </g>
     <g id="line2d_30">
      <g>
       <use xlink:href="#maf36f7470c" x="156.993367" y="266.112" style="stroke: #000000; stroke-width: 0.8"/>
      </g>
     </g>
    </g>
    <g id="xtick_16">
     <g id="line2d_31">
      <path d="M 163.646124 266.112 
L 163.646124 -0 
" clip-path="url(#p687e814ae1)" style="fill: none; stroke: #b0b0b0; stroke-width: 0.8; stroke-linecap: square"/>
     </g>
     <g id="line2d_32">
      <g>
       <use xlink:href="#maf36f7470c" x="163.646124" y="266.112" style="stroke: #000000; stroke-width: 0.8"/>
      </g>
     </g>
    </g>
    <g id="xtick_17">
     <g id="line2d_33">
      <path d="M 170.298881 266.112 
L 170.298881 -0 
" clip-path="url(#p687e814ae1)" style="fill: none; stroke: #b0b0b0; stroke-width: 0.8; stroke-linecap: square"/>
     </g>
     <g id="line2d_34">
      <g>
       <use xlink:href="#maf36f7470c" x="170.298881" y="266.112" style="stroke: #000000; stroke-width: 0.8"/>
      </g>
     </g>
    </g>
    <g id="xtick_18">
     <g id="line2d_35">
      <path d="M 176.951638 266.112 
L 176.951638 -0 
" clip-path="url(#p687e814ae1)" style="fill: none; stroke: #b0b0b0; stroke-width: 0.8; stroke-linecap: square"/>
     </g>
     <g id="line2d_36">
      <g>
       <use xlink:href="#maf36f7470c" x="176.951638" y="266.112" style="stroke: #000000; stroke-width: 0.8"/>
      </g>
     </g>
    </g>
    <g id="xtick_19">
     <g id="line2d_37">
      <path d="M 183.604395 266.112 
L 183.604395 -0 
" clip-path="url(#p687e814ae1)" style="fill: none; stroke: #b0b0b0; stroke-width: 0.8; stroke-linecap: square"/>
     </g>
     <g id="line2d_38">
      <g>
       <use xlink:href="#maf36f7470c" x="183.604395" y="266.112" style="stroke: #000000; stroke-width: 0.8"/>
      </g>
     </g>
    </g>
    <g id="xtick_20">
     <g id="line2d_39">
      <path d="M 190.257152 266.112 
L 190.257152 -0 
" clip-path="url(#p687e814ae1)" style="fill: none; stroke: #b0b0b0; stroke-width: 0.8; stroke-linecap: square"/>
     </g>
     <g id="line2d_40">
      <g>
       <use xlink:href="#maf36f7470c" x="190.257152" y="266.112" style="stroke: #000000; stroke-width: 0.8"/>
      </g>
     </g>
    </g>
    <g id="xtick_21">
     <g id="line2d_41">
      <path d="M 196.909909 266.112 
L 196.909909 -0 
" clip-path="url(#p687e814ae1)" style="fill: none; stroke: #b0b0b0; stroke-width: 0.8; stroke-linecap: square"/>
     </g>
     <g id="line2d_42">
      <g>
       <use xlink:href="#maf36f7470c" x="196.909909" y="266.112" style="stroke: #000000; stroke-width: 0.8"/>
      </g>
     </g>
    </g>
    <g id="xtick_22">
     <g id="line2d_43">
      <path d="M 203.562666 266.112 
L 203.562666 -0 
" clip-path="url(#p687e814ae1)" style="fill: none; stroke: #b0b0b0; stroke-width: 0.8; stroke-linecap: square"/>
     </g>
     <g id="line2d_44">
      <g>
       <use xlink:href="#maf36f7470c" x="203.562666" y="266.112" style="stroke: #000000; stroke-width: 0.8"/>
      </g>
     </g>
    </g>
    <g id="xtick_23">
     <g id="line2d_45">
      <path d="M 210.215423 266.112 
L 210.215423 -0 
" clip-path="url(#p687e814ae1)" style="fill: none; stroke: #b0b0b0; stroke-width: 0.8; stroke-linecap: square"/>
     </g>
     <g id="line2d_46">
      <g>
       <use xlink:href="#maf36f7470c" x="210.215423" y="266.112" style="stroke: #000000; stroke-width: 0.8"/>
      </g>
     </g>
    </g>
    <g id="xtick_24">
     <g id="line2d_47">
      <path d="M 216.86818 266.112 
L 216.86818 -0 
" clip-path="url(#p687e814ae1)" style="fill: none; stroke: #b0b0b0; stroke-width: 0.8; stroke-linecap: square"/>
     </g>
     <g id="line2d_48">
      <g>
       <use xlink:href="#maf36f7470c" x="216.86818" y="266.112" style="stroke: #000000; stroke-width: 0.8"/>
      </g>
     </g>
    </g>
    <g id="xtick_25">
     <g id="line2d_49">
      <path d="M 223.520938 266.112 
L 223.520938 -0 
" clip-path="url(#p687e814ae1)" style="fill: none; stroke: #b0b0b0; stroke-width: 0.8; stroke-linecap: square"/>
     </g>
     <g id="line2d_50">
      <g>
       <use xlink:href="#maf36f7470c" x="223.520938" y="266.112" style="stroke: #000000; stroke-width: 0.8"/>
      </g>
     </g>
    </g>
    <g id="xtick_26">
     <g id="line2d_51">
      <path d="M 230.173695 266.112 
L 230.173695 -0 
" clip-path="url(#p687e814ae1)" style="fill: none; stroke: #b0b0b0; stroke-width: 0.8; stroke-linecap: square"/>
     </g>
     <g id="line2d_52">
      <g>
       <use xlink:href="#maf36f7470c" x="230.173695" y="266.112" style="stroke: #000000; stroke-width: 0.8"/>
      </g>
     </g>
    </g>
    <g id="xtick_27">
     <g id="line2d_53">
      <path d="M 236.826452 266.112 
L 236.826452 -0 
" clip-path="url(#p687e814ae1)" style="fill: none; stroke: #b0b0b0; stroke-width: 0.8; stroke-linecap: square"/>
     </g>
     <g id="line2d_54">
      <g>
       <use xlink:href="#maf36f7470c" x="236.826452" y="266.112" style="stroke: #000000; stroke-width: 0.8"/>
      </g>
     </g>
    </g>
    <g id="xtick_28">
     <g id="line2d_55">
      <path d="M 243.479209 266.112 
L 243.479209 -0 
" clip-path="url(#p687e814ae1)" style="fill: none; stroke: #b0b0b0; stroke-width: 0.8; stroke-linecap: square"/>
     </g>
     <g id="line2d_56">
      <g>
       <use xlink:href="#maf36f7470c" x="243.479209" y="266.112" style="stroke: #000000; stroke-width: 0.8"/>
      </g>
     </g>
    </g>
    <g id="xtick_29">
     <g id="line2d_57">
      <path d="M 250.131966 266.112 
L 250.131966 -0 
" clip-path="url(#p687e814ae1)" style="fill: none; stroke: #b0b0b0; stroke-width: 0.8; stroke-linecap: square"/>
     </g>
     <g id="line2d_58">
      <g>
       <use xlink:href="#maf36f7470c" x="250.131966" y="266.112" style="stroke: #000000; stroke-width: 0.8"/>
      </g>
     </g>
    </g>
    <g id="xtick_30">
     <g id="line2d_59">
      <path d="M 256.784723 266.112 
L 256.784723 -0 
" clip-path="url(#p687e814ae1)" style="fill: none; stroke: #b0b0b0; stroke-width: 0.8; stroke-linecap: square"/>
     </g>
     <g id="line2d_60">
      <g>
       <use xlink:href="#maf36f7470c" x="256.784723" y="266.112" style="stroke: #000000; stroke-width: 0.8"/>
      </g>
     </g>
    </g>
    <g id="xtick_31">
     <g id="line2d_61">
      <path d="M 263.43748 266.112 
L 263.43748 -0 
" clip-path="url(#p687e814ae1)" style="fill: none; stroke: #b0b0b0; stroke-width: 0.8; stroke-linecap: square"/>
     </g>
     <g id="line2d_62">
      <g>
       <use xlink:href="#maf36f7470c" x="263.43748" y="266.112" style="stroke: #000000; stroke-width: 0.8"/>
      </g>
     </g>
    </g>
    <g id="xtick_32">
     <g id="line2d_63">
      <path d="M 270.090237 266.112 
L 270.090237 -0 
" clip-path="url(#p687e814ae1)" style="fill: none; stroke: #b0b0b0; stroke-width: 0.8; stroke-linecap: square"/>
     </g>
     <g id="line2d_64">
      <g>
       <use xlink:href="#maf36f7470c" x="270.090237" y="266.112" style="stroke: #000000; stroke-width: 0.8"/>
      </g>
     </g>
    </g>
    <g id="xtick_33">
     <g id="line2d_65">
      <path d="M 276.742994 266.112 
L 276.742994 -0 
" clip-path="url(#p687e814ae1)" style="fill: none; stroke: #b0b0b0; stroke-width: 0.8; stroke-linecap: square"/>
     </g>
     <g id="line2d_66">
      <g>
       <use xlink:href="#maf36f7470c" x="276.742994" y="266.112" style="stroke: #000000; stroke-width: 0.8"/>
      </g>
     </g>
    </g>
    <g id="xtick_34">
     <g id="line2d_67">
      <path d="M 283.395751 266.112 
L 283.395751 -0 
" clip-path="url(#p687e814ae1)" style="fill: none; stroke: #b0b0b0; stroke-width: 0.8; stroke-linecap: square"/>
     </g>
     <g id="line2d_68">
      <g>
       <use xlink:href="#maf36f7470c" x="283.395751" y="266.112" style="stroke: #000000; stroke-width: 0.8"/>
      </g>
     </g>
    </g>
    <g id="xtick_35">
     <g id="line2d_69">
      <path d="M 290.048508 266.112 
L 290.048508 -0 
" clip-path="url(#p687e814ae1)" style="fill: none; stroke: #b0b0b0; stroke-width: 0.8; stroke-linecap: square"/>
     </g>
     <g id="line2d_70">
      <g>
       <use xlink:href="#maf36f7470c" x="290.048508" y="266.112" style="stroke: #000000; stroke-width: 0.8"/>
      </g>
     </g>
    </g>
    <g id="xtick_36">
     <g id="line2d_71">
      <path d="M 296.701265 266.112 
L 296.701265 -0 
" clip-path="url(#p687e814ae1)" style="fill: none; stroke: #b0b0b0; stroke-width: 0.8; stroke-linecap: square"/>
     </g>
     <g id="line2d_72">
      <g>
       <use xlink:href="#maf36f7470c" x="296.701265" y="266.112" style="stroke: #000000; stroke-width: 0.8"/>
      </g>
     </g>
    </g>
    <g id="xtick_37">
     <g id="line2d_73">
      <path d="M 303.354022 266.112 
L 303.354022 -0 
" clip-path="url(#p687e814ae1)" style="fill: none; stroke: #b0b0b0; stroke-width: 0.8; stroke-linecap: square"/>
     </g>
     <g id="line2d_74">
      <g>
       <use xlink:href="#maf36f7470c" x="303.354022" y="266.112" style="stroke: #000000; stroke-width: 0.8"/>
      </g>
     </g>
    </g>
    <g id="xtick_38">
     <g id="line2d_75">
      <path d="M 310.00678 266.112 
L 310.00678 -0 
" clip-path="url(#p687e814ae1)" style="fill: none; stroke: #b0b0b0; stroke-width: 0.8; stroke-linecap: square"/>
     </g>
     <g id="line2d_76">
      <g>
       <use xlink:href="#maf36f7470c" x="310.00678" y="266.112" style="stroke: #000000; stroke-width: 0.8"/>
      </g>
     </g>
    </g>
    <g id="xtick_39">
     <g id="line2d_77">
      <path d="M 316.659537 266.112 
L 316.659537 -0 
" clip-path="url(#p687e814ae1)" style="fill: none; stroke: #b0b0b0; stroke-width: 0.8; stroke-linecap: square"/>
     </g>
     <g id="line2d_78">
      <g>
       <use xlink:href="#maf36f7470c" x="316.659537" y="266.112" style="stroke: #000000; stroke-width: 0.8"/>
      </g>
     </g>
    </g>
    <g id="xtick_40">
     <g id="line2d_79">
      <path d="M 323.312294 266.112 
L 323.312294 -0 
" clip-path="url(#p687e814ae1)" style="fill: none; stroke: #b0b0b0; stroke-width: 0.8; stroke-linecap: square"/>
     </g>
     <g id="line2d_80">
      <g>
       <use xlink:href="#maf36f7470c" x="323.312294" y="266.112" style="stroke: #000000; stroke-width: 0.8"/>
      </g>
     </g>
    </g>
    <g id="xtick_41">
     <g id="line2d_81">
      <path d="M 329.965051 266.112 
L 329.965051 -0 
" clip-path="url(#p687e814ae1)" style="fill: none; stroke: #b0b0b0; stroke-width: 0.8; stroke-linecap: square"/>
     </g>
     <g id="line2d_82">
      <g>
       <use xlink:href="#maf36f7470c" x="329.965051" y="266.112" style="stroke: #000000; stroke-width: 0.8"/>
      </g>
     </g>
    </g>
    <g id="xtick_42">
     <g id="line2d_83">
      <path d="M 336.617808 266.112 
L 336.617808 -0 
" clip-path="url(#p687e814ae1)" style="fill: none; stroke: #b0b0b0; stroke-width: 0.8; stroke-linecap: square"/>
     </g>
     <g id="line2d_84">
      <g>
       <use xlink:href="#maf36f7470c" x="336.617808" y="266.112" style="stroke: #000000; stroke-width: 0.8"/>
      </g>
     </g>
    </g>
    <g id="xtick_43">
     <g id="line2d_85">
      <path d="M 343.270565 266.112 
L 343.270565 -0 
" clip-path="url(#p687e814ae1)" style="fill: none; stroke: #b0b0b0; stroke-width: 0.8; stroke-linecap: square"/>
     </g>
     <g id="line2d_86">
      <g>
       <use xlink:href="#maf36f7470c" x="343.270565" y="266.112" style="stroke: #000000; stroke-width: 0.8"/>
      </g>
     </g>
    </g>
    <g id="xtick_44">
     <g id="line2d_87">
      <path d="M 349.923322 266.112 
L 349.923322 -0 
" clip-path="url(#p687e814ae1)" style="fill: none; stroke: #b0b0b0; stroke-width: 0.8; stroke-linecap: square"/>
     </g>
     <g id="line2d_88">
      <g>
       <use xlink:href="#maf36f7470c" x="349.923322" y="266.112" style="stroke: #000000; stroke-width: 0.8"/>
      </g>
     </g>
    </g>
    <g id="xtick_45">
     <g id="line2d_89">
      <path d="M 356.576079 266.112 
L 356.576079 -0 
" clip-path="url(#p687e814ae1)" style="fill: none; stroke: #b0b0b0; stroke-width: 0.8; stroke-linecap: square"/>
     </g>
     <g id="line2d_90">
      <g>
       <use xlink:href="#maf36f7470c" x="356.576079" y="266.112" style="stroke: #000000; stroke-width: 0.8"/>
      </g>
     </g>
    </g>
    <g id="xtick_46">
     <g id="line2d_91">
      <path d="M 363.228836 266.112 
L 363.228836 -0 
" clip-path="url(#p687e814ae1)" style="fill: none; stroke: #b0b0b0; stroke-width: 0.8; stroke-linecap: square"/>
     </g>
     <g id="line2d_92">
      <g>
       <use xlink:href="#maf36f7470c" x="363.228836" y="266.112" style="stroke: #000000; stroke-width: 0.8"/>
      </g>
     </g>
    </g>
    <g id="xtick_47">
     <g id="line2d_93">
      <path d="M 369.881593 266.112 
L 369.881593 -0 
" clip-path="url(#p687e814ae1)" style="fill: none; stroke: #b0b0b0; stroke-width: 0.8; stroke-linecap: square"/>
     </g>
     <g id="line2d_94">
      <g>
       <use xlink:href="#maf36f7470c" x="369.881593" y="266.112" style="stroke: #000000; stroke-width: 0.8"/>
      </g>
     </g>
    </g>
    <g id="xtick_48">
     <g id="line2d_95">
      <path d="M 376.53435 266.112 
L 376.53435 -0 
" clip-path="url(#p687e814ae1)" style="fill: none; stroke: #b0b0b0; stroke-width: 0.8; stroke-linecap: square"/>
     </g>
     <g id="line2d_96">
      <g>
       <use xlink:href="#maf36f7470c" x="376.53435" y="266.112" style="stroke: #000000; stroke-width: 0.8"/>
      </g>
     </g>
    </g>
    <g id="xtick_49">
     <g id="line2d_97">
      <path d="M 383.187107 266.112 
L 383.187107 -0 
" clip-path="url(#p687e814ae1)" style="fill: none; stroke: #b0b0b0; stroke-width: 0.8; stroke-linecap: square"/>
     </g>
     <g id="line2d_98">
      <g>
       <use xlink:href="#maf36f7470c" x="383.187107" y="266.112" style="stroke: #000000; stroke-width: 0.8"/>
      </g>
     </g>
    </g>
    <g id="text_1">
     <!-- Individual Eddies [-] -->
     <g transform="translate(173.707656 284.710437)scale(0.1 -0.1)">
      <defs>
       <path id="DejaVuSans-49" d="M 628 4666 
L 1259 4666 
L 1259 0 
L 628 0 
L 628 4666 
z
" transform="scale(0.015625)"/>
       <path id="DejaVuSans-6e" d="M 3513 2113 
L 3513 0 
L 2938 0 
L 2938 2094 
Q 2938 2591 2744 2837 
Q 2550 3084 2163 3084 
Q 1697 3084 1428 2787 
Q 1159 2491 1159 1978 
L 1159 0 
L 581 0 
L 581 3500 
L 1159 3500 
L 1159 2956 
Q 1366 3272 1645 3428 
Q 1925 3584 2291 3584 
Q 2894 3584 3203 3211 
Q 3513 2838 3513 2113 
z
" transform="scale(0.015625)"/>
       <path id="DejaVuSans-64" d="M 2906 2969 
L 2906 4863 
L 3481 4863 
L 3481 0 
L 2906 0 
L 2906 525 
Q 2725 213 2448 61 
Q 2172 -91 1784 -91 
Q 1150 -91 751 415 
Q 353 922 353 1747 
Q 353 2572 751 3078 
Q 1150 3584 1784 3584 
Q 2172 3584 2448 3432 
Q 2725 3281 2906 2969 
z
M 947 1747 
Q 947 1113 1208 752 
Q 1469 391 1925 391 
Q 2381 391 2643 752 
Q 2906 1113 2906 1747 
Q 2906 2381 2643 2742 
Q 2381 3103 1925 3103 
Q 1469 3103 1208 2742 
Q 947 2381 947 1747 
z
" transform="scale(0.015625)"/>
       <path id="DejaVuSans-69" d="M 603 3500 
L 1178 3500 
L 1178 0 
L 603 0 
L 603 3500 
z
M 603 4863 
L 1178 4863 
L 1178 4134 
L 603 4134 
L 603 4863 
z
" transform="scale(0.015625)"/>
       <path id="DejaVuSans-76" d="M 191 3500 
L 800 3500 
L 1894 563 
L 2988 3500 
L 3597 3500 
L 2284 0 
L 1503 0 
L 191 3500 
z
" transform="scale(0.015625)"/>
       <path id="DejaVuSans-75" d="M 544 1381 
L 544 3500 
L 1119 3500 
L 1119 1403 
Q 1119 906 1312 657 
Q 1506 409 1894 409 
Q 2359 409 2629 706 
Q 2900 1003 2900 1516 
L 2900 3500 
L 3475 3500 
L 3475 0 
L 2900 0 
L 2900 538 
Q 2691 219 2414 64 
Q 2138 -91 1772 -91 
Q 1169 -91 856 284 
Q 544 659 544 1381 
z
M 1991 3584 
L 1991 3584 
z
" transform="scale(0.015625)"/>
       <path id="DejaVuSans-61" d="M 2194 1759 
Q 1497 1759 1228 1600 
Q 959 1441 959 1056 
Q 959 750 1161 570 
Q 1363 391 1709 391 
Q 2188 391 2477 730 
Q 2766 1069 2766 1631 
L 2766 1759 
L 2194 1759 
z
M 3341 1997 
L 3341 0 
L 2766 0 
L 2766 531 
Q 2569 213 2275 61 
Q 1981 -91 1556 -91 
Q 1019 -91 701 211 
Q 384 513 384 1019 
Q 384 1609 779 1909 
Q 1175 2209 1959 2209 
L 2766 2209 
L 2766 2266 
Q 2766 2663 2505 2880 
Q 2244 3097 1772 3097 
Q 1472 3097 1187 3025 
Q 903 2953 641 2809 
L 641 3341 
Q 956 3463 1253 3523 
Q 1550 3584 1831 3584 
Q 2591 3584 2966 3190 
Q 3341 2797 3341 1997 
z
" transform="scale(0.015625)"/>
       <path id="DejaVuSans-6c" d="M 603 4863 
L 1178 4863 
L 1178 0 
L 603 0 
L 603 4863 
z
" transform="scale(0.015625)"/>
       <path id="DejaVuSans-20" transform="scale(0.015625)"/>
       <path id="DejaVuSans-45" d="M 628 4666 
L 3578 4666 
L 3578 4134 
L 1259 4134 
L 1259 2753 
L 3481 2753 
L 3481 2222 
L 1259 2222 
L 1259 531 
L 3634 531 
L 3634 0 
L 628 0 
L 628 4666 
z
" transform="scale(0.015625)"/>
       <path id="DejaVuSans-65" d="M 3597 1894 
L 3597 1613 
L 953 1613 
Q 991 1019 1311 708 
Q 1631 397 2203 397 
Q 2534 397 2845 478 
Q 3156 559 3463 722 
L 3463 178 
Q 3153 47 2828 -22 
Q 2503 -91 2169 -91 
Q 1331 -91 842 396 
Q 353 884 353 1716 
Q 353 2575 817 3079 
Q 1281 3584 2069 3584 
Q 2775 3584 3186 3129 
Q 3597 2675 3597 1894 
z
M 3022 2063 
Q 3016 2534 2758 2815 
Q 2500 3097 2075 3097 
Q 1594 3097 1305 2825 
Q 1016 2553 972 2059 
L 3022 2063 
z
" transform="scale(0.015625)"/>
       <path id="DejaVuSans-73" d="M 2834 3397 
L 2834 2853 
Q 2591 2978 2328 3040 
Q 2066 3103 1784 3103 
Q 1356 3103 1142 2972 
Q 928 2841 928 2578 
Q 928 2378 1081 2264 
Q 1234 2150 1697 2047 
L 1894 2003 
Q 2506 1872 2764 1633 
Q 3022 1394 3022 966 
Q 3022 478 2636 193 
Q 2250 -91 1575 -91 
Q 1294 -91 989 -36 
Q 684 19 347 128 
L 347 722 
Q 666 556 975 473 
Q 1284 391 1588 391 
Q 1994 391 2212 530 
Q 2431 669 2431 922 
Q 2431 1156 2273 1281 
Q 2116 1406 1581 1522 
L 1381 1569 
Q 847 1681 609 1914 
Q 372 2147 372 2553 
Q 372 3047 722 3315 
Q 1072 3584 1716 3584 
Q 2034 3584 2315 3537 
Q 2597 3491 2834 3397 
z
" transform="scale(0.015625)"/>
       <path id="DejaVuSans-5b" d="M 550 4863 
L 1875 4863 
L 1875 4416 
L 1125 4416 
L 1125 -397 
L 1875 -397 
L 1875 -844 
L 550 -844 
L 550 4863 
z
" transform="scale(0.015625)"/>
       <path id="DejaVuSans-2d" d="M 313 2009 
L 1997 2009 
L 1997 1497 
L 313 1497 
L 313 2009 
z
" transform="scale(0.015625)"/>
       <path id="DejaVuSans-5d" d="M 1947 4863 
L 1947 -844 
L 622 -844 
L 622 -397 
L 1369 -397 
L 1369 4416 
L 622 4416 
L 622 4863 
L 1947 4863 
z
" transform="scale(0.015625)"/>
      </defs>
      <use xlink:href="#DejaVuSans-49"/>
      <use xlink:href="#DejaVuSans-6e" x="29.492188"/>
      <use xlink:href="#DejaVuSans-64" x="92.871094"/>
      <use xlink:href="#DejaVuSans-69" x="156.347656"/>
      <use xlink:href="#DejaVuSans-76" x="184.130859"/>
      <use xlink:href="#DejaVuSans-69" x="243.310547"/>
      <use xlink:href="#DejaVuSans-64" x="271.09375"/>
      <use xlink:href="#DejaVuSans-75" x="334.570312"/>
      <use xlink:href="#DejaVuSans-61" x="397.949219"/>
      <use xlink:href="#DejaVuSans-6c" x="459.228516"/>
      <use xlink:href="#DejaVuSans-20" x="487.011719"/>
      <use xlink:href="#DejaVuSans-45" x="518.798828"/>
      <use xlink:href="#DejaVuSans-64" x="581.982422"/>
      <use xlink:href="#DejaVuSans-64" x="645.458984"/>
      <use xlink:href="#DejaVuSans-69" x="708.935547"/>
      <use xlink:href="#DejaVuSans-65" x="736.71875"/>
      <use xlink:href="#DejaVuSans-73" x="798.242188"/>
      <use xlink:href="#DejaVuSans-20" x="850.341797"/>
      <use xlink:href="#DejaVuSans-5b" x="882.128906"/>
      <use xlink:href="#DejaVuSans-2d" x="921.142578"/>
      <use xlink:href="#DejaVuSans-5d" x="957.226562"/>
     </g>
    </g>
   </g>
   <g id="matplotlib.axis_2">
    <g id="ytick_1">
     <g id="line2d_99">
      <path d="M 44.960938 241.448727 
L 402.080938 241.448727 
" clip-path="url(#p687e814ae1)" style="fill: none; stroke: #b0b0b0; stroke-width: 0.8; stroke-linecap: square"/>
     </g>
     <g id="line2d_100">
      <defs>
       <path id="m4891a91a0d" d="M 0 0 
L -3.5 0 
" style="stroke: #000000; stroke-width: 0.8"/>
      </defs>
      <g>
       <use xlink:href="#m4891a91a0d" x="44.960938" y="241.448727" style="stroke: #000000; stroke-width: 0.8"/>
      </g>
     </g>
     <g id="text_2">
      <!-- −0.8 -->
      <g transform="translate(13.678125 245.247946)scale(0.1 -0.1)">
       <defs>
        <path id="DejaVuSans-2212" d="M 678 2272 
L 4684 2272 
L 4684 1741 
L 678 1741 
L 678 2272 
z
" transform="scale(0.015625)"/>
        <path id="DejaVuSans-30" d="M 2034 4250 
Q 1547 4250 1301 3770 
Q 1056 3291 1056 2328 
Q 1056 1369 1301 889 
Q 1547 409 2034 409 
Q 2525 409 2770 889 
Q 3016 1369 3016 2328 
Q 3016 3291 2770 3770 
Q 2525 4250 2034 4250 
z
M 2034 4750 
Q 2819 4750 3233 4129 
Q 3647 3509 3647 2328 
Q 3647 1150 3233 529 
Q 2819 -91 2034 -91 
Q 1250 -91 836 529 
Q 422 1150 422 2328 
Q 422 3509 836 4129 
Q 1250 4750 2034 4750 
z
" transform="scale(0.015625)"/>
        <path id="DejaVuSans-2e" d="M 684 794 
L 1344 794 
L 1344 0 
L 684 0 
L 684 794 
z
" transform="scale(0.015625)"/>
        <path id="DejaVuSans-38" d="M 2034 2216 
Q 1584 2216 1326 1975 
Q 1069 1734 1069 1313 
Q 1069 891 1326 650 
Q 1584 409 2034 409 
Q 2484 409 2743 651 
Q 3003 894 3003 1313 
Q 3003 1734 2745 1975 
Q 2488 2216 2034 2216 
z
M 1403 2484 
Q 997 2584 770 2862 
Q 544 3141 544 3541 
Q 544 4100 942 4425 
Q 1341 4750 2034 4750 
Q 2731 4750 3128 4425 
Q 3525 4100 3525 3541 
Q 3525 3141 3298 2862 
Q 3072 2584 2669 2484 
Q 3125 2378 3379 2068 
Q 3634 1759 3634 1313 
Q 3634 634 3220 271 
Q 2806 -91 2034 -91 
Q 1263 -91 848 271 
Q 434 634 434 1313 
Q 434 1759 690 2068 
Q 947 2378 1403 2484 
z
M 1172 3481 
Q 1172 3119 1398 2916 
Q 1625 2713 2034 2713 
Q 2441 2713 2670 2916 
Q 2900 3119 2900 3481 
Q 2900 3844 2670 4047 
Q 2441 4250 2034 4250 
Q 1625 4250 1398 4047 
Q 1172 3844 1172 3481 
z
" transform="scale(0.015625)"/>
       </defs>
       <use xlink:href="#DejaVuSans-2212"/>
       <use xlink:href="#DejaVuSans-30" x="83.789062"/>
       <use xlink:href="#DejaVuSans-2e" x="147.412109"/>
       <use xlink:href="#DejaVuSans-38" x="179.199219"/>
      </g>
     </g>
    </g>
    <g id="ytick_2">
     <g id="line2d_101">
      <path d="M 44.960938 210.030545 
L 402.080938 210.030545 
" clip-path="url(#p687e814ae1)" style="fill: none; stroke: #b0b0b0; stroke-width: 0.8; stroke-linecap: square"/>
     </g>
     <g id="line2d_102">
      <g>
       <use xlink:href="#m4891a91a0d" x="44.960938" y="210.030545" style="stroke: #000000; stroke-width: 0.8"/>
      </g>
     </g>
     <g id="text_3">
      <!-- −0.6 -->
      <g transform="translate(13.678125 213.829764)scale(0.1 -0.1)">
       <defs>
        <path id="DejaVuSans-36" d="M 2113 2584 
Q 1688 2584 1439 2293 
Q 1191 2003 1191 1497 
Q 1191 994 1439 701 
Q 1688 409 2113 409 
Q 2538 409 2786 701 
Q 3034 994 3034 1497 
Q 3034 2003 2786 2293 
Q 2538 2584 2113 2584 
z
M 3366 4563 
L 3366 3988 
Q 3128 4100 2886 4159 
Q 2644 4219 2406 4219 
Q 1781 4219 1451 3797 
Q 1122 3375 1075 2522 
Q 1259 2794 1537 2939 
Q 1816 3084 2150 3084 
Q 2853 3084 3261 2657 
Q 3669 2231 3669 1497 
Q 3669 778 3244 343 
Q 2819 -91 2113 -91 
Q 1303 -91 875 529 
Q 447 1150 447 2328 
Q 447 3434 972 4092 
Q 1497 4750 2381 4750 
Q 2619 4750 2861 4703 
Q 3103 4656 3366 4563 
z
" transform="scale(0.015625)"/>
       </defs>
       <use xlink:href="#DejaVuSans-2212"/>
       <use xlink:href="#DejaVuSans-30" x="83.789062"/>
       <use xlink:href="#DejaVuSans-2e" x="147.412109"/>
       <use xlink:href="#DejaVuSans-36" x="179.199219"/>
      </g>
     </g>
    </g>
    <g id="ytick_3">
     <g id="line2d_103">
      <path d="M 44.960938 178.612364 
L 402.080938 178.612364 
" clip-path="url(#p687e814ae1)" style="fill: none; stroke: #b0b0b0; stroke-width: 0.8; stroke-linecap: square"/>
     </g>
     <g id="line2d_104">
      <g>
       <use xlink:href="#m4891a91a0d" x="44.960938" y="178.612364" style="stroke: #000000; stroke-width: 0.8"/>
      </g>
     </g>
     <g id="text_4">
      <!-- −0.4 -->
      <g transform="translate(13.678125 182.411582)scale(0.1 -0.1)">
       <defs>
        <path id="DejaVuSans-34" d="M 2419 4116 
L 825 1625 
L 2419 1625 
L 2419 4116 
z
M 2253 4666 
L 3047 4666 
L 3047 1625 
L 3713 1625 
L 3713 1100 
L 3047 1100 
L 3047 0 
L 2419 0 
L 2419 1100 
L 313 1100 
L 313 1709 
L 2253 4666 
z
" transform="scale(0.015625)"/>
       </defs>
       <use xlink:href="#DejaVuSans-2212"/>
       <use xlink:href="#DejaVuSans-30" x="83.789062"/>
       <use xlink:href="#DejaVuSans-2e" x="147.412109"/>
       <use xlink:href="#DejaVuSans-34" x="179.199219"/>
      </g>
     </g>
    </g>
    <g id="ytick_4">
     <g id="line2d_105">
      <path d="M 44.960938 147.194182 
L 402.080938 147.194182 
" clip-path="url(#p687e814ae1)" style="fill: none; stroke: #b0b0b0; stroke-width: 0.8; stroke-linecap: square"/>
     </g>
     <g id="line2d_106">
      <g>
       <use xlink:href="#m4891a91a0d" x="44.960938" y="147.194182" style="stroke: #000000; stroke-width: 0.8"/>
      </g>
     </g>
     <g id="text_5">
      <!-- −0.2 -->
      <g transform="translate(13.678125 150.993401)scale(0.1 -0.1)">
       <defs>
        <path id="DejaVuSans-32" d="M 1228 531 
L 3431 531 
L 3431 0 
L 469 0 
L 469 531 
Q 828 903 1448 1529 
Q 2069 2156 2228 2338 
Q 2531 2678 2651 2914 
Q 2772 3150 2772 3378 
Q 2772 3750 2511 3984 
Q 2250 4219 1831 4219 
Q 1534 4219 1204 4116 
Q 875 4013 500 3803 
L 500 4441 
Q 881 4594 1212 4672 
Q 1544 4750 1819 4750 
Q 2544 4750 2975 4387 
Q 3406 4025 3406 3419 
Q 3406 3131 3298 2873 
Q 3191 2616 2906 2266 
Q 2828 2175 2409 1742 
Q 1991 1309 1228 531 
z
" transform="scale(0.015625)"/>
       </defs>
       <use xlink:href="#DejaVuSans-2212"/>
       <use xlink:href="#DejaVuSans-30" x="83.789062"/>
       <use xlink:href="#DejaVuSans-2e" x="147.412109"/>
       <use xlink:href="#DejaVuSans-32" x="179.199219"/>
      </g>
     </g>
    </g>
    <g id="ytick_5">
     <g id="line2d_107">
      <path d="M 44.960938 115.776 
L 402.080938 115.776 
" clip-path="url(#p687e814ae1)" style="fill: none; stroke: #b0b0b0; stroke-width: 0.8; stroke-linecap: square"/>
     </g>
     <g id="line2d_108">
      <g>
       <use xlink:href="#m4891a91a0d" x="44.960938" y="115.776" style="stroke: #000000; stroke-width: 0.8"/>
      </g>
     </g>
     <g id="text_6">
      <!-- 0.0 -->
      <g transform="translate(22.057813 119.575219)scale(0.1 -0.1)">
       <use xlink:href="#DejaVuSans-30"/>
       <use xlink:href="#DejaVuSans-2e" x="63.623047"/>
       <use xlink:href="#DejaVuSans-30" x="95.410156"/>
      </g>
     </g>
    </g>
    <g id="ytick_6">
     <g id="line2d_109">
      <path d="M 44.960938 84.357818 
L 402.080938 84.357818 
" clip-path="url(#p687e814ae1)" style="fill: none; stroke: #b0b0b0; stroke-width: 0.8; stroke-linecap: square"/>
     </g>
     <g id="line2d_110">
      <g>
       <use xlink:href="#m4891a91a0d" x="44.960938" y="84.357818" style="stroke: #000000; stroke-width: 0.8"/>
      </g>
     </g>
     <g id="text_7">
      <!-- 0.2 -->
      <g transform="translate(22.057813 88.157037)scale(0.1 -0.1)">
       <use xlink:href="#DejaVuSans-30"/>
       <use xlink:href="#DejaVuSans-2e" x="63.623047"/>
       <use xlink:href="#DejaVuSans-32" x="95.410156"/>
      </g>
     </g>
    </g>
    <g id="ytick_7">
     <g id="line2d_111">
      <path d="M 44.960938 52.939636 
L 402.080938 52.939636 
" clip-path="url(#p687e814ae1)" style="fill: none; stroke: #b0b0b0; stroke-width: 0.8; stroke-linecap: square"/>
     </g>
     <g id="line2d_112">
      <g>
       <use xlink:href="#m4891a91a0d" x="44.960938" y="52.939636" style="stroke: #000000; stroke-width: 0.8"/>
      </g>
     </g>
     <g id="text_8">
      <!-- 0.4 -->
      <g transform="translate(22.057813 56.738855)scale(0.1 -0.1)">
       <use xlink:href="#DejaVuSans-30"/>
       <use xlink:href="#DejaVuSans-2e" x="63.623047"/>
       <use xlink:href="#DejaVuSans-34" x="95.410156"/>
      </g>
     </g>
    </g>
    <g id="ytick_8">
     <g id="line2d_113">
      <path d="M 44.960938 21.521455 
L 402.080938 21.521455 
" clip-path="url(#p687e814ae1)" style="fill: none; stroke: #b0b0b0; stroke-width: 0.8; stroke-linecap: square"/>
     </g>
     <g id="line2d_114">
      <g>
       <use xlink:href="#m4891a91a0d" x="44.960938" y="21.521455" style="stroke: #000000; stroke-width: 0.8"/>
      </g>
     </g>
     <g id="text_9">
      <!-- 0.6 -->
      <g transform="translate(22.057813 25.320673)scale(0.1 -0.1)">
       <use xlink:href="#DejaVuSans-30"/>
       <use xlink:href="#DejaVuSans-2e" x="63.623047"/>
       <use xlink:href="#DejaVuSans-36" x="95.410156"/>
      </g>
     </g>
    </g>
    <g id="text_10">
     <!-- Eddy Amplitude [m] -->
     <g transform="translate(7.598438 183.095844)rotate(-90)scale(0.1 -0.1)">
      <defs>
       <path id="DejaVuSans-79" d="M 2059 -325 
Q 1816 -950 1584 -1140 
Q 1353 -1331 966 -1331 
L 506 -1331 
L 506 -850 
L 844 -850 
Q 1081 -850 1212 -737 
Q 1344 -625 1503 -206 
L 1606 56 
L 191 3500 
L 800 3500 
L 1894 763 
L 2988 3500 
L 3597 3500 
L 2059 -325 
z
" transform="scale(0.015625)"/>
       <path id="DejaVuSans-41" d="M 2188 4044 
L 1331 1722 
L 3047 1722 
L 2188 4044 
z
M 1831 4666 
L 2547 4666 
L 4325 0 
L 3669 0 
L 3244 1197 
L 1141 1197 
L 716 0 
L 50 0 
L 1831 4666 
z
" transform="scale(0.015625)"/>
       <path id="DejaVuSans-6d" d="M 3328 2828 
Q 3544 3216 3844 3400 
Q 4144 3584 4550 3584 
Q 5097 3584 5394 3201 
Q 5691 2819 5691 2113 
L 5691 0 
L 5113 0 
L 5113 2094 
Q 5113 2597 4934 2840 
Q 4756 3084 4391 3084 
Q 3944 3084 3684 2787 
Q 3425 2491 3425 1978 
L 3425 0 
L 2847 0 
L 2847 2094 
Q 2847 2600 2669 2842 
Q 2491 3084 2119 3084 
Q 1678 3084 1418 2786 
Q 1159 2488 1159 1978 
L 1159 0 
L 581 0 
L 581 3500 
L 1159 3500 
L 1159 2956 
Q 1356 3278 1631 3431 
Q 1906 3584 2284 3584 
Q 2666 3584 2933 3390 
Q 3200 3197 3328 2828 
z
" transform="scale(0.015625)"/>
       <path id="DejaVuSans-70" d="M 1159 525 
L 1159 -1331 
L 581 -1331 
L 581 3500 
L 1159 3500 
L 1159 2969 
Q 1341 3281 1617 3432 
Q 1894 3584 2278 3584 
Q 2916 3584 3314 3078 
Q 3713 2572 3713 1747 
Q 3713 922 3314 415 
Q 2916 -91 2278 -91 
Q 1894 -91 1617 61 
Q 1341 213 1159 525 
z
M 3116 1747 
Q 3116 2381 2855 2742 
Q 2594 3103 2138 3103 
Q 1681 3103 1420 2742 
Q 1159 2381 1159 1747 
Q 1159 1113 1420 752 
Q 1681 391 2138 391 
Q 2594 391 2855 752 
Q 3116 1113 3116 1747 
z
" transform="scale(0.015625)"/>
       <path id="DejaVuSans-74" d="M 1172 4494 
L 1172 3500 
L 2356 3500 
L 2356 3053 
L 1172 3053 
L 1172 1153 
Q 1172 725 1289 603 
Q 1406 481 1766 481 
L 2356 481 
L 2356 0 
L 1766 0 
Q 1100 0 847 248 
Q 594 497 594 1153 
L 594 3053 
L 172 3053 
L 172 3500 
L 594 3500 
L 594 4494 
L 1172 4494 
z
" transform="scale(0.015625)"/>
      </defs>
      <use xlink:href="#DejaVuSans-45"/>
      <use xlink:href="#DejaVuSans-64" x="63.183594"/>
      <use xlink:href="#DejaVuSans-64" x="126.660156"/>
      <use xlink:href="#DejaVuSans-79" x="190.136719"/>
      <use xlink:href="#DejaVuSans-20" x="249.316406"/>
      <use xlink:href="#DejaVuSans-41" x="281.103516"/>
      <use xlink:href="#DejaVuSans-6d" x="349.511719"/>
      <use xlink:href="#DejaVuSans-70" x="446.923828"/>
      <use xlink:href="#DejaVuSans-6c" x="510.400391"/>
      <use xlink:href="#DejaVuSans-69" x="538.183594"/>
      <use xlink:href="#DejaVuSans-74" x="565.966797"/>
      <use xlink:href="#DejaVuSans-75" x="605.175781"/>
      <use xlink:href="#DejaVuSans-64" x="668.554688"/>
      <use xlink:href="#DejaVuSans-65" x="732.03125"/>
      <use xlink:href="#DejaVuSans-20" x="793.554688"/>
      <use xlink:href="#DejaVuSans-5b" x="825.341797"/>
      <use xlink:href="#DejaVuSans-6d" x="864.355469"/>
      <use xlink:href="#DejaVuSans-5d" x="961.767578"/>
     </g>
    </g>
   </g>
   <g id="patch_3">
    <path d="M 61.193665 115.776 
L 66.51587 115.776 
L 66.51587 254.016 
L 61.193665 254.016 
z
" clip-path="url(#p687e814ae1)" style="fill: #ff0000"/>
   </g>
   <g id="patch_4">
    <path d="M 67.846422 115.776 
L 73.168628 115.776 
L 73.168628 219.456 
L 67.846422 219.456 
z
" clip-path="url(#p687e814ae1)" style="fill: #ff0000"/>
   </g>
   <g id="patch_5">
    <path d="M 74.499179 115.776 
L 79.821385 115.776 
L 79.821385 202.176 
L 74.499179 202.176 
z
" clip-path="url(#p687e814ae1)" style="fill: #ff0000"/>
   </g>
   <g id="patch_6">
    <path d="M 81.151936 115.776 
L 86.474142 115.776 
L 86.474142 197.463273 
L 81.151936 197.463273 
z
" clip-path="url(#p687e814ae1)" style="fill: #ff0000"/>
   </g>
   <g id="patch_7">
    <path d="M 87.804693 115.776 
L 93.126899 115.776 
L 93.126899 184.896 
L 87.804693 184.896 
z
" clip-path="url(#p687e814ae1)" style="fill: #ff0000"/>
   </g>
   <g id="patch_8">
    <path d="M 94.45745 115.776 
L 99.779656 115.776 
L 99.779656 178.612364 
L 94.45745 178.612364 
z
" clip-path="url(#p687e814ae1)" style="fill: #ff0000"/>
   </g>
   <g id="patch_9">
    <path d="M 101.110207 115.776 
L 106.432413 115.776 
L 106.432413 177.041455 
L 101.110207 177.041455 
z
" clip-path="url(#p687e814ae1)" style="fill: #ff0000"/>
   </g>
   <g id="patch_10">
    <path d="M 107.762964 115.776 
L 113.08517 115.776 
L 113.08517 175.470545 
L 107.762964 175.470545 
z
" clip-path="url(#p687e814ae1)" style="fill: #ff0000"/>
   </g>
   <g id="patch_11">
    <path d="M 114.415721 115.776 
L 119.737927 115.776 
L 119.737927 172.328727 
L 114.415721 172.328727 
z
" clip-path="url(#p687e814ae1)" style="fill: #ff0000"/>
   </g>
   <g id="patch_12">
    <path d="M 121.068478 115.776 
L 126.390684 115.776 
L 126.390684 167.616 
L 121.068478 167.616 
z
" clip-path="url(#p687e814ae1)" style="fill: #ff0000"/>
   </g>
   <g id="patch_13">
    <path d="M 127.721236 115.776 
L 133.043441 115.776 
L 133.043441 159.761455 
L 127.721236 159.761455 
z
" clip-path="url(#p687e814ae1)" style="fill: #ff0000"/>
   </g>
   <g id="patch_14">
    <path d="M 134.373993 115.776 
L 139.696198 115.776 
L 139.696198 156.619636 
L 134.373993 156.619636 
z
" clip-path="url(#p687e814ae1)" style="fill: #ff0000"/>
   </g>
   <g id="patch_15">
    <path d="M 141.02675 115.776 
L 146.348955 115.776 
L 146.348955 150.336 
L 141.02675 150.336 
z
" clip-path="url(#p687e814ae1)" style="fill: #ff0000"/>
   </g>
   <g id="patch_16">
    <path d="M 147.679507 115.776 
L 153.001712 115.776 
L 153.001712 148.765091 
L 147.679507 148.765091 
z
" clip-path="url(#p687e814ae1)" style="fill: #ff0000"/>
   </g>
   <g id="patch_17">
    <path d="M 154.332264 115.776 
L 159.65447 115.776 
L 159.65447 148.765091 
L 154.332264 148.765091 
z
" clip-path="url(#p687e814ae1)" style="fill: #ff0000"/>
   </g>
   <g id="patch_18">
    <path d="M 160.985021 115.776 
L 166.307227 115.776 
L 166.307227 147.194182 
L 160.985021 147.194182 
z
" clip-path="url(#p687e814ae1)" style="fill: #ff0000"/>
   </g>
   <g id="patch_19">
    <path d="M 167.637778 115.776 
L 172.959984 115.776 
L 172.959984 145.623273 
L 167.637778 145.623273 
z
" clip-path="url(#p687e814ae1)" style="fill: #ff0000"/>
   </g>
   <g id="patch_20">
    <path d="M 174.290535 115.776 
L 179.612741 115.776 
L 179.612741 145.623273 
L 174.290535 145.623273 
z
" clip-path="url(#p687e814ae1)" style="fill: #ff0000"/>
   </g>
   <g id="patch_21">
    <path d="M 180.943292 115.776 
L 186.265498 115.776 
L 186.265498 144.052364 
L 180.943292 144.052364 
z
" clip-path="url(#p687e814ae1)" style="fill: #ff0000"/>
   </g>
   <g id="patch_22">
    <path d="M 187.596049 115.776 
L 192.918255 115.776 
L 192.918255 144.052364 
L 187.596049 144.052364 
z
" clip-path="url(#p687e814ae1)" style="fill: #ff0000"/>
   </g>
   <g id="patch_23">
    <path d="M 194.248806 115.776 
L 199.571012 115.776 
L 199.571012 131.485091 
L 194.248806 131.485091 
z
" clip-path="url(#p687e814ae1)" style="fill: #ff0000"/>
   </g>
   <g id="patch_24">
    <path d="M 200.901563 115.776 
L 206.223769 115.776 
L 206.223769 131.485091 
L 200.901563 131.485091 
z
" clip-path="url(#p687e814ae1)" style="fill: #ff0000"/>
   </g>
   <g id="patch_25">
    <path d="M 207.554321 115.776 
L 212.876526 115.776 
L 212.876526 129.914182 
L 207.554321 129.914182 
z
" clip-path="url(#p687e814ae1)" style="fill: #ff0000"/>
   </g>
   <g id="patch_26">
    <path d="M 214.207078 115.776 
L 219.529283 115.776 
L 219.529283 128.343273 
L 214.207078 128.343273 
z
" clip-path="url(#p687e814ae1)" style="fill: #ff0000"/>
   </g>
   <g id="patch_27">
    <path d="M 220.859835 115.776 
L 226.18204 115.776 
L 226.18204 126.772364 
L 220.859835 126.772364 
z
" clip-path="url(#p687e814ae1)" style="fill: #ff0000"/>
   </g>
   <g id="patch_28">
    <path d="M 227.512592 115.776 
L 232.834797 115.776 
L 232.834797 125.201455 
L 227.512592 125.201455 
z
" clip-path="url(#p687e814ae1)" style="fill: #ff0000"/>
   </g>
   <g id="patch_29">
    <path d="M 234.165349 115.776 
L 239.487554 115.776 
L 239.487554 123.630545 
L 234.165349 123.630545 
z
" clip-path="url(#p687e814ae1)" style="fill: #ff0000"/>
   </g>
   <g id="patch_30">
    <path d="M 240.818106 115.776 
L 246.140312 115.776 
L 246.140312 100.066909 
L 240.818106 100.066909 
z
" clip-path="url(#p687e814ae1)" style="fill: #000080"/>
   </g>
   <g id="patch_31">
    <path d="M 247.470863 115.776 
L 252.793069 115.776 
L 252.793069 96.925091 
L 247.470863 96.925091 
z
" clip-path="url(#p687e814ae1)" style="fill: #000080"/>
   </g>
   <g id="patch_32">
    <path d="M 254.12362 115.776 
L 259.445826 115.776 
L 259.445826 95.354182 
L 254.12362 95.354182 
z
" clip-path="url(#p687e814ae1)" style="fill: #000080"/>
   </g>
   <g id="patch_33">
    <path d="M 260.776377 115.776 
L 266.098583 115.776 
L 266.098583 95.354182 
L 260.776377 95.354182 
z
" clip-path="url(#p687e814ae1)" style="fill: #000080"/>
   </g>
   <g id="patch_34">
    <path d="M 267.429134 115.776 
L 272.75134 115.776 
L 272.75134 92.212364 
L 267.429134 92.212364 
z
" clip-path="url(#p687e814ae1)" style="fill: #000080"/>
   </g>
   <g id="patch_35">
    <path d="M 274.081891 115.776 
L 279.404097 115.776 
L 279.404097 87.499636 
L 274.081891 87.499636 
z
" clip-path="url(#p687e814ae1)" style="fill: #000080"/>
   </g>
   <g id="patch_36">
    <path d="M 280.734648 115.776 
L 286.056854 115.776 
L 286.056854 84.357818 
L 280.734648 84.357818 
z
" clip-path="url(#p687e814ae1)" style="fill: #000080"/>
   </g>
   <g id="patch_37">
    <path d="M 287.387405 115.776 
L 292.709611 115.776 
L 292.709611 84.357818 
L 287.387405 84.357818 
z
" clip-path="url(#p687e814ae1)" style="fill: #000080"/>
   </g>
   <g id="patch_38">
    <path d="M 294.040163 115.776 
L 299.362368 115.776 
L 299.362368 79.645091 
L 294.040163 79.645091 
z
" clip-path="url(#p687e814ae1)" style="fill: #000080"/>
   </g>
   <g id="patch_39">
    <path d="M 300.69292 115.776 
L 306.015125 115.776 
L 306.015125 78.074182 
L 300.69292 78.074182 
z
" clip-path="url(#p687e814ae1)" style="fill: #000080"/>
   </g>
   <g id="patch_40">
    <path d="M 307.345677 115.776 
L 312.667882 115.776 
L 312.667882 76.503273 
L 307.345677 76.503273 
z
" clip-path="url(#p687e814ae1)" style="fill: #000080"/>
   </g>
   <g id="patch_41">
    <path d="M 313.998434 115.776 
L 319.320639 115.776 
L 319.320639 73.361455 
L 313.998434 73.361455 
z
" clip-path="url(#p687e814ae1)" style="fill: #000080"/>
   </g>
   <g id="patch_42">
    <path d="M 320.651191 115.776 
L 325.973397 115.776 
L 325.973397 71.790545 
L 320.651191 71.790545 
z
" clip-path="url(#p687e814ae1)" style="fill: #000080"/>
   </g>
   <g id="patch_43">
    <path d="M 327.303948 115.776 
L 332.626154 115.776 
L 332.626154 71.790545 
L 327.303948 71.790545 
z
" clip-path="url(#p687e814ae1)" style="fill: #000080"/>
   </g>
   <g id="patch_44">
    <path d="M 333.956705 115.776 
L 339.278911 115.776 
L 339.278911 65.506909 
L 333.956705 65.506909 
z
" clip-path="url(#p687e814ae1)" style="fill: #000080"/>
   </g>
   <g id="patch_45">
    <path d="M 340.609462 115.776 
L 345.931668 115.776 
L 345.931668 62.365091 
L 340.609462 62.365091 
z
" clip-path="url(#p687e814ae1)" style="fill: #000080"/>
   </g>
   <g id="patch_46">
    <path d="M 347.262219 115.776 
L 352.584425 115.776 
L 352.584425 56.081455 
L 347.262219 56.081455 
z
" clip-path="url(#p687e814ae1)" style="fill: #000080"/>
   </g>
   <g id="patch_47">
    <path d="M 353.914976 115.776 
L 359.237182 115.776 
L 359.237182 41.943273 
L 353.914976 41.943273 
z
" clip-path="url(#p687e814ae1)" style="fill: #000080"/>
   </g>
   <g id="patch_48">
    <path d="M 360.567733 115.776 
L 365.889939 115.776 
L 365.889939 35.659636 
L 360.567733 35.659636 
z
" clip-path="url(#p687e814ae1)" style="fill: #000080"/>
   </g>
   <g id="patch_49">
    <path d="M 367.22049 115.776 
L 372.542696 115.776 
L 372.542696 34.088727 
L 367.22049 34.088727 
z
" clip-path="url(#p687e814ae1)" style="fill: #000080"/>
   </g>
   <g id="patch_50">
    <path d="M 373.873247 115.776 
L 379.195453 115.776 
L 379.195453 26.234182 
L 373.873247 26.234182 
z
" clip-path="url(#p687e814ae1)" style="fill: #000080"/>
   </g>
   <g id="patch_51">
    <path d="M 380.526005 115.776 
L 385.84821 115.776 
L 385.84821 12.096 
L 380.526005 12.096 
z
" clip-path="url(#p687e814ae1)" style="fill: #000080"/>
   </g>
   <g id="patch_52">
    <path d="M 44.960938 266.112 
L 44.960938 -0 
" style="fill: none; stroke: #000000; stroke-width: 0.8; stroke-linejoin: miter; stroke-linecap: square"/>
   </g>
   <g id="patch_53">
    <path d="M 402.080938 266.112 
L 402.080938 -0 
" style="fill: none; stroke: #000000; stroke-width: 0.8; stroke-linejoin: miter; stroke-linecap: square"/>
   </g>
   <g id="patch_54">
    <path d="M 44.960938 266.112 
L 402.080938 266.112 
" style="fill: none; stroke: #000000; stroke-width: 0.8; stroke-linejoin: miter; stroke-linecap: square"/>
   </g>
   <g id="patch_55">
    <path d="M 44.960938 -0 
L 402.080938 -0 
" style="fill: none; stroke: #000000; stroke-width: 0.8; stroke-linejoin: miter; stroke-linecap: square"/>
   </g>
  </g>
 </g>
 <defs>
  <clipPath id="p687e814ae1">
   <rect x="44.960938" y="-0" width="357.12" height="266.112"/>
  </clipPath>
 </defs>
</svg>
