<?xml version="1.0" encoding="utf-8" standalone="no"?>
<!DOCTYPE svg PUBLIC "-//W3C//DTD SVG 1.1//EN"
  "http://www.w3.org/Graphics/SVG/1.1/DTD/svg11.dtd">
<svg xmlns:xlink="http://www.w3.org/1999/xlink" width="390.523125pt" height="286.790125pt" viewBox="0 0 390.523125 286.790125" xmlns="http://www.w3.org/2000/svg" version="1.1">
 <metadata>
  <rdf:RDF xmlns:dc="http://purl.org/dc/elements/1.1/" xmlns:cc="http://creativecommons.org/ns#" xmlns:rdf="http://www.w3.org/1999/02/22-rdf-syntax-ns#">
   <cc:Work>
    <dc:type rdf:resource="http://purl.org/dc/dcmitype/StillImage"/>
    <dc:date>2023-06-13T22:29:58.926573</dc:date>
    <dc:format>image/svg+xml</dc:format>
    <dc:creator>
     <cc:Agent>
      <dc:title>Matplotlib v3.5.2, https://matplotlib.org/</dc:title>
     </cc:Agent>
    </dc:creator>
   </cc:Work>
  </rdf:RDF>
 </metadata>
 <defs>
  <style type="text/css">*{stroke-linejoin: round; stroke-linecap: butt}</style>
 </defs>
 <g id="figure_1">
  <g id="patch_1">
   <path d="M 0 286.790125 
L 390.523125 286.790125 
L 390.523125 -0 
L 0 -0 
z
" style="fill: #ffffff"/>
  </g>
  <g id="axes_1">
   <g id="patch_2">
    <path d="M 33.403125 266.112 
L 390.523125 266.112 
L 390.523125 -0 
L 33.403125 -0 
z
" style="fill: #ffffff"/>
   </g>
   <g id="matplotlib.axis_1">
    <g id="xtick_1">
     <g id="line2d_1">
      <path d="M 52.296955 266.112 
L 52.296955 -0 
" clip-path="url(#p3e297e118b)" style="fill: none; stroke: #b0b0b0; stroke-width: 0.8; stroke-linecap: square"/>
     </g>
     <g id="line2d_2">
      <defs>
       <path id="m9b06a84910" d="M 0 0 
L 0 3.5 
" style="stroke: #000000; stroke-width: 0.8"/>
      </defs>
      <g>
       <use xlink:href="#m9b06a84910" x="52.296955" y="266.112" style="stroke: #000000; stroke-width: 0.8"/>
      </g>
     </g>
    </g>
    <g id="xtick_2">
     <g id="line2d_3">
      <path d="M 58.949712 266.112 
L 58.949712 -0 
" clip-path="url(#p3e297e118b)" style="fill: none; stroke: #b0b0b0; stroke-width: 0.8; stroke-linecap: square"/>
     </g>
     <g id="line2d_4">
      <g>
       <use xlink:href="#m9b06a84910" x="58.949712" y="266.112" style="stroke: #000000; stroke-width: 0.8"/>
      </g>
     </g>
    </g>
    <g id="xtick_3">
     <g id="line2d_5">
      <path d="M 65.602469 266.112 
L 65.602469 -0 
" clip-path="url(#p3e297e118b)" style="fill: none; stroke: #b0b0b0; stroke-width: 0.8; stroke-linecap: square"/>
     </g>
     <g id="line2d_6">
      <g>
       <use xlink:href="#m9b06a84910" x="65.602469" y="266.112" style="stroke: #000000; stroke-width: 0.8"/>
      </g>
     </g>
    </g>
    <g id="xtick_4">
     <g id="line2d_7">
      <path d="M 72.255226 266.112 
L 72.255226 -0 
" clip-path="url(#p3e297e118b)" style="fill: none; stroke: #b0b0b0; stroke-width: 0.8; stroke-linecap: square"/>
     </g>
     <g id="line2d_8">
      <g>
       <use xlink:href="#m9b06a84910" x="72.255226" y="266.112" style="stroke: #000000; stroke-width: 0.8"/>
      </g>
     </g>
    </g>
    <g id="xtick_5">
     <g id="line2d_9">
      <path d="M 78.907983 266.112 
L 78.907983 -0 
" clip-path="url(#p3e297e118b)" style="fill: none; stroke: #b0b0b0; stroke-width: 0.8; stroke-linecap: square"/>
     </g>
     <g id="line2d_10">
      <g>
       <use xlink:href="#m9b06a84910" x="78.907983" y="266.112" style="stroke: #000000; stroke-width: 0.8"/>
      </g>
     </g>
    </g>
    <g id="xtick_6">
     <g id="line2d_11">
      <path d="M 85.56074 266.112 
L 85.56074 -0 
" clip-path="url(#p3e297e118b)" style="fill: none; stroke: #b0b0b0; stroke-width: 0.8; stroke-linecap: square"/>
     </g>
     <g id="line2d_12">
      <g>
       <use xlink:href="#m9b06a84910" x="85.56074" y="266.112" style="stroke: #000000; stroke-width: 0.8"/>
      </g>
     </g>
    </g>
    <g id="xtick_7">
     <g id="line2d_13">
      <path d="M 92.213498 266.112 
L 92.213498 -0 
" clip-path="url(#p3e297e118b)" style="fill: none; stroke: #b0b0b0; stroke-width: 0.8; stroke-linecap: square"/>
     </g>
     <g id="line2d_14">
      <g>
       <use xlink:href="#m9b06a84910" x="92.213498" y="266.112" style="stroke: #000000; stroke-width: 0.8"/>
      </g>
     </g>
    </g>
    <g id="xtick_8">
     <g id="line2d_15">
      <path d="M 98.866255 266.112 
L 98.866255 -0 
" clip-path="url(#p3e297e118b)" style="fill: none; stroke: #b0b0b0; stroke-width: 0.8; stroke-linecap: square"/>
     </g>
     <g id="line2d_16">
      <g>
       <use xlink:href="#m9b06a84910" x="98.866255" y="266.112" style="stroke: #000000; stroke-width: 0.8"/>
      </g>
     </g>
    </g>
    <g id="xtick_9">
     <g id="line2d_17">
      <path d="M 105.519012 266.112 
L 105.519012 -0 
" clip-path="url(#p3e297e118b)" style="fill: none; stroke: #b0b0b0; stroke-width: 0.8; stroke-linecap: square"/>
     </g>
     <g id="line2d_18">
      <g>
       <use xlink:href="#m9b06a84910" x="105.519012" y="266.112" style="stroke: #000000; stroke-width: 0.8"/>
      </g>
     </g>
    </g>
    <g id="xtick_10">
     <g id="line2d_19">
      <path d="M 112.171769 266.112 
L 112.171769 -0 
" clip-path="url(#p3e297e118b)" style="fill: none; stroke: #b0b0b0; stroke-width: 0.8; stroke-linecap: square"/>
     </g>
     <g id="line2d_20">
      <g>
       <use xlink:href="#m9b06a84910" x="112.171769" y="266.112" style="stroke: #000000; stroke-width: 0.8"/>
      </g>
     </g>
    </g>
    <g id="xtick_11">
     <g id="line2d_21">
      <path d="M 118.824526 266.112 
L 118.824526 -0 
" clip-path="url(#p3e297e118b)" style="fill: none; stroke: #b0b0b0; stroke-width: 0.8; stroke-linecap: square"/>
     </g>
     <g id="line2d_22">
      <g>
       <use xlink:href="#m9b06a84910" x="118.824526" y="266.112" style="stroke: #000000; stroke-width: 0.8"/>
      </g>
     </g>
    </g>
    <g id="xtick_12">
     <g id="line2d_23">
      <path d="M 125.477283 266.112 
L 125.477283 -0 
" clip-path="url(#p3e297e118b)" style="fill: none; stroke: #b0b0b0; stroke-width: 0.8; stroke-linecap: square"/>
     </g>
     <g id="line2d_24">
      <g>
       <use xlink:href="#m9b06a84910" x="125.477283" y="266.112" style="stroke: #000000; stroke-width: 0.8"/>
      </g>
     </g>
    </g>
    <g id="xtick_13">
     <g id="line2d_25">
      <path d="M 132.13004 266.112 
L 132.13004 -0 
" clip-path="url(#p3e297e118b)" style="fill: none; stroke: #b0b0b0; stroke-width: 0.8; stroke-linecap: square"/>
     </g>
     <g id="line2d_26">
      <g>
       <use xlink:href="#m9b06a84910" x="132.13004" y="266.112" style="stroke: #000000; stroke-width: 0.8"/>
      </g>
     </g>
    </g>
    <g id="xtick_14">
     <g id="line2d_27">
      <path d="M 138.782797 266.112 
L 138.782797 -0 
" clip-path="url(#p3e297e118b)" style="fill: none; stroke: #b0b0b0; stroke-width: 0.8; stroke-linecap: square"/>
     </g>
     <g id="line2d_28">
      <g>
       <use xlink:href="#m9b06a84910" x="138.782797" y="266.112" style="stroke: #000000; stroke-width: 0.8"/>
      </g>
     </g>
    </g>
    <g id="xtick_15">
     <g id="line2d_29">
      <path d="M 145.435554 266.112 
L 145.435554 -0 
" clip-path="url(#p3e297e118b)" style="fill: none; stroke: #b0b0b0; stroke-width: 0.8; stroke-linecap: square"/>
     </g>
     <g id="line2d_30">
      <g>
       <use xlink:href="#m9b06a84910" x="145.435554" y="266.112" style="stroke: #000000; stroke-width: 0.8"/>
      </g>
     </g>
    </g>
    <g id="xtick_16">
     <g id="line2d_31">
      <path d="M 152.088311 266.112 
L 152.088311 -0 
" clip-path="url(#p3e297e118b)" style="fill: none; stroke: #b0b0b0; stroke-width: 0.8; stroke-linecap: square"/>
     </g>
     <g id="line2d_32">
      <g>
       <use xlink:href="#m9b06a84910" x="152.088311" y="266.112" style="stroke: #000000; stroke-width: 0.8"/>
      </g>
     </g>
    </g>
    <g id="xtick_17">
     <g id="line2d_33">
      <path d="M 158.741068 266.112 
L 158.741068 -0 
" clip-path="url(#p3e297e118b)" style="fill: none; stroke: #b0b0b0; stroke-width: 0.8; stroke-linecap: square"/>
     </g>
     <g id="line2d_34">
      <g>
       <use xlink:href="#m9b06a84910" x="158.741068" y="266.112" style="stroke: #000000; stroke-width: 0.8"/>
      </g>
     </g>
    </g>
    <g id="xtick_18">
     <g id="line2d_35">
      <path d="M 165.393825 266.112 
L 165.393825 -0 
" clip-path="url(#p3e297e118b)" style="fill: none; stroke: #b0b0b0; stroke-width: 0.8; stroke-linecap: square"/>
     </g>
     <g id="line2d_36">
      <g>
       <use xlink:href="#m9b06a84910" x="165.393825" y="266.112" style="stroke: #000000; stroke-width: 0.8"/>
      </g>
     </g>
    </g>
    <g id="xtick_19">
     <g id="line2d_37">
      <path d="M 172.046583 266.112 
L 172.046583 -0 
" clip-path="url(#p3e297e118b)" style="fill: none; stroke: #b0b0b0; stroke-width: 0.8; stroke-linecap: square"/>
     </g>
     <g id="line2d_38">
      <g>
       <use xlink:href="#m9b06a84910" x="172.046583" y="266.112" style="stroke: #000000; stroke-width: 0.8"/>
      </g>
     </g>
    </g>
    <g id="xtick_20">
     <g id="line2d_39">
      <path d="M 178.69934 266.112 
L 178.69934 -0 
" clip-path="url(#p3e297e118b)" style="fill: none; stroke: #b0b0b0; stroke-width: 0.8; stroke-linecap: square"/>
     </g>
     <g id="line2d_40">
      <g>
       <use xlink:href="#m9b06a84910" x="178.69934" y="266.112" style="stroke: #000000; stroke-width: 0.8"/>
      </g>
     </g>
    </g>
    <g id="xtick_21">
     <g id="line2d_41">
      <path d="M 185.352097 266.112 
L 185.352097 -0 
" clip-path="url(#p3e297e118b)" style="fill: none; stroke: #b0b0b0; stroke-width: 0.8; stroke-linecap: square"/>
     </g>
     <g id="line2d_42">
      <g>
       <use xlink:href="#m9b06a84910" x="185.352097" y="266.112" style="stroke: #000000; stroke-width: 0.8"/>
      </g>
     </g>
    </g>
    <g id="xtick_22">
     <g id="line2d_43">
      <path d="M 192.004854 266.112 
L 192.004854 -0 
" clip-path="url(#p3e297e118b)" style="fill: none; stroke: #b0b0b0; stroke-width: 0.8; stroke-linecap: square"/>
     </g>
     <g id="line2d_44">
      <g>
       <use xlink:href="#m9b06a84910" x="192.004854" y="266.112" style="stroke: #000000; stroke-width: 0.8"/>
      </g>
     </g>
    </g>
    <g id="xtick_23">
     <g id="line2d_45">
      <path d="M 198.657611 266.112 
L 198.657611 -0 
" clip-path="url(#p3e297e118b)" style="fill: none; stroke: #b0b0b0; stroke-width: 0.8; stroke-linecap: square"/>
     </g>
     <g id="line2d_46">
      <g>
       <use xlink:href="#m9b06a84910" x="198.657611" y="266.112" style="stroke: #000000; stroke-width: 0.8"/>
      </g>
     </g>
    </g>
    <g id="xtick_24">
     <g id="line2d_47">
      <path d="M 205.310368 266.112 
L 205.310368 -0 
" clip-path="url(#p3e297e118b)" style="fill: none; stroke: #b0b0b0; stroke-width: 0.8; stroke-linecap: square"/>
     </g>
     <g id="line2d_48">
      <g>
       <use xlink:href="#m9b06a84910" x="205.310368" y="266.112" style="stroke: #000000; stroke-width: 0.8"/>
      </g>
     </g>
    </g>
    <g id="xtick_25">
     <g id="line2d_49">
      <path d="M 211.963125 266.112 
L 211.963125 -0 
" clip-path="url(#p3e297e118b)" style="fill: none; stroke: #b0b0b0; stroke-width: 0.8; stroke-linecap: square"/>
     </g>
     <g id="line2d_50">
      <g>
       <use xlink:href="#m9b06a84910" x="211.963125" y="266.112" style="stroke: #000000; stroke-width: 0.8"/>
      </g>
     </g>
    </g>
    <g id="xtick_26">
     <g id="line2d_51">
      <path d="M 218.615882 266.112 
L 218.615882 -0 
" clip-path="url(#p3e297e118b)" style="fill: none; stroke: #b0b0b0; stroke-width: 0.8; stroke-linecap: square"/>
     </g>
     <g id="line2d_52">
      <g>
       <use xlink:href="#m9b06a84910" x="218.615882" y="266.112" style="stroke: #000000; stroke-width: 0.8"/>
      </g>
     </g>
    </g>
    <g id="xtick_27">
     <g id="line2d_53">
      <path d="M 225.268639 266.112 
L 225.268639 -0 
" clip-path="url(#p3e297e118b)" style="fill: none; stroke: #b0b0b0; stroke-width: 0.8; stroke-linecap: square"/>
     </g>
     <g id="line2d_54">
      <g>
       <use xlink:href="#m9b06a84910" x="225.268639" y="266.112" style="stroke: #000000; stroke-width: 0.8"/>
      </g>
     </g>
    </g>
    <g id="xtick_28">
     <g id="line2d_55">
      <path d="M 231.921396 266.112 
L 231.921396 -0 
" clip-path="url(#p3e297e118b)" style="fill: none; stroke: #b0b0b0; stroke-width: 0.8; stroke-linecap: square"/>
     </g>
     <g id="line2d_56">
      <g>
       <use xlink:href="#m9b06a84910" x="231.921396" y="266.112" style="stroke: #000000; stroke-width: 0.8"/>
      </g>
     </g>
    </g>
    <g id="xtick_29">
     <g id="line2d_57">
      <path d="M 238.574153 266.112 
L 238.574153 -0 
" clip-path="url(#p3e297e118b)" style="fill: none; stroke: #b0b0b0; stroke-width: 0.8; stroke-linecap: square"/>
     </g>
     <g id="line2d_58">
      <g>
       <use xlink:href="#m9b06a84910" x="238.574153" y="266.112" style="stroke: #000000; stroke-width: 0.8"/>
      </g>
     </g>
    </g>
    <g id="xtick_30">
     <g id="line2d_59">
      <path d="M 245.22691 266.112 
L 245.22691 -0 
" clip-path="url(#p3e297e118b)" style="fill: none; stroke: #b0b0b0; stroke-width: 0.8; stroke-linecap: square"/>
     </g>
     <g id="line2d_60">
      <g>
       <use xlink:href="#m9b06a84910" x="245.22691" y="266.112" style="stroke: #000000; stroke-width: 0.8"/>
      </g>
     </g>
    </g>
    <g id="xtick_31">
     <g id="line2d_61">
      <path d="M 251.879667 266.112 
L 251.879667 -0 
" clip-path="url(#p3e297e118b)" style="fill: none; stroke: #b0b0b0; stroke-width: 0.8; stroke-linecap: square"/>
     </g>
     <g id="line2d_62">
      <g>
       <use xlink:href="#m9b06a84910" x="251.879667" y="266.112" style="stroke: #000000; stroke-width: 0.8"/>
      </g>
     </g>
    </g>
    <g id="xtick_32">
     <g id="line2d_63">
      <path d="M 258.532425 266.112 
L 258.532425 -0 
" clip-path="url(#p3e297e118b)" style="fill: none; stroke: #b0b0b0; stroke-width: 0.8; stroke-linecap: square"/>
     </g>
     <g id="line2d_64">
      <g>
       <use xlink:href="#m9b06a84910" x="258.532425" y="266.112" style="stroke: #000000; stroke-width: 0.8"/>
      </g>
     </g>
    </g>
    <g id="xtick_33">
     <g id="line2d_65">
      <path d="M 265.185182 266.112 
L 265.185182 -0 
" clip-path="url(#p3e297e118b)" style="fill: none; stroke: #b0b0b0; stroke-width: 0.8; stroke-linecap: square"/>
     </g>
     <g id="line2d_66">
      <g>
       <use xlink:href="#m9b06a84910" x="265.185182" y="266.112" style="stroke: #000000; stroke-width: 0.8"/>
      </g>
     </g>
    </g>
    <g id="xtick_34">
     <g id="line2d_67">
      <path d="M 271.837939 266.112 
L 271.837939 -0 
" clip-path="url(#p3e297e118b)" style="fill: none; stroke: #b0b0b0; stroke-width: 0.8; stroke-linecap: square"/>
     </g>
     <g id="line2d_68">
      <g>
       <use xlink:href="#m9b06a84910" x="271.837939" y="266.112" style="stroke: #000000; stroke-width: 0.8"/>
      </g>
     </g>
    </g>
    <g id="xtick_35">
     <g id="line2d_69">
      <path d="M 278.490696 266.112 
L 278.490696 -0 
" clip-path="url(#p3e297e118b)" style="fill: none; stroke: #b0b0b0; stroke-width: 0.8; stroke-linecap: square"/>
     </g>
     <g id="line2d_70">
      <g>
       <use xlink:href="#m9b06a84910" x="278.490696" y="266.112" style="stroke: #000000; stroke-width: 0.8"/>
      </g>
     </g>
    </g>
    <g id="xtick_36">
     <g id="line2d_71">
      <path d="M 285.143453 266.112 
L 285.143453 -0 
" clip-path="url(#p3e297e118b)" style="fill: none; stroke: #b0b0b0; stroke-width: 0.8; stroke-linecap: square"/>
     </g>
     <g id="line2d_72">
      <g>
       <use xlink:href="#m9b06a84910" x="285.143453" y="266.112" style="stroke: #000000; stroke-width: 0.8"/>
      </g>
     </g>
    </g>
    <g id="xtick_37">
     <g id="line2d_73">
      <path d="M 291.79621 266.112 
L 291.79621 -0 
" clip-path="url(#p3e297e118b)" style="fill: none; stroke: #b0b0b0; stroke-width: 0.8; stroke-linecap: square"/>
     </g>
     <g id="line2d_74">
      <g>
       <use xlink:href="#m9b06a84910" x="291.79621" y="266.112" style="stroke: #000000; stroke-width: 0.8"/>
      </g>
     </g>
    </g>
    <g id="xtick_38">
     <g id="line2d_75">
      <path d="M 298.448967 266.112 
L 298.448967 -0 
" clip-path="url(#p3e297e118b)" style="fill: none; stroke: #b0b0b0; stroke-width: 0.8; stroke-linecap: square"/>
     </g>
     <g id="line2d_76">
      <g>
       <use xlink:href="#m9b06a84910" x="298.448967" y="266.112" style="stroke: #000000; stroke-width: 0.8"/>
      </g>
     </g>
    </g>
    <g id="xtick_39">
     <g id="line2d_77">
      <path d="M 305.101724 266.112 
L 305.101724 -0 
" clip-path="url(#p3e297e118b)" style="fill: none; stroke: #b0b0b0; stroke-width: 0.8; stroke-linecap: square"/>
     </g>
     <g id="line2d_78">
      <g>
       <use xlink:href="#m9b06a84910" x="305.101724" y="266.112" style="stroke: #000000; stroke-width: 0.8"/>
      </g>
     </g>
    </g>
    <g id="xtick_40">
     <g id="line2d_79">
      <path d="M 311.754481 266.112 
L 311.754481 -0 
" clip-path="url(#p3e297e118b)" style="fill: none; stroke: #b0b0b0; stroke-width: 0.8; stroke-linecap: square"/>
     </g>
     <g id="line2d_80">
      <g>
       <use xlink:href="#m9b06a84910" x="311.754481" y="266.112" style="stroke: #000000; stroke-width: 0.8"/>
      </g>
     </g>
    </g>
    <g id="xtick_41">
     <g id="line2d_81">
      <path d="M 318.407238 266.112 
L 318.407238 -0 
" clip-path="url(#p3e297e118b)" style="fill: none; stroke: #b0b0b0; stroke-width: 0.8; stroke-linecap: square"/>
     </g>
     <g id="line2d_82">
      <g>
       <use xlink:href="#m9b06a84910" x="318.407238" y="266.112" style="stroke: #000000; stroke-width: 0.8"/>
      </g>
     </g>
    </g>
    <g id="xtick_42">
     <g id="line2d_83">
      <path d="M 325.059995 266.112 
L 325.059995 -0 
" clip-path="url(#p3e297e118b)" style="fill: none; stroke: #b0b0b0; stroke-width: 0.8; stroke-linecap: square"/>
     </g>
     <g id="line2d_84">
      <g>
       <use xlink:href="#m9b06a84910" x="325.059995" y="266.112" style="stroke: #000000; stroke-width: 0.8"/>
      </g>
     </g>
    </g>
    <g id="xtick_43">
     <g id="line2d_85">
      <path d="M 331.712752 266.112 
L 331.712752 -0 
" clip-path="url(#p3e297e118b)" style="fill: none; stroke: #b0b0b0; stroke-width: 0.8; stroke-linecap: square"/>
     </g>
     <g id="line2d_86">
      <g>
       <use xlink:href="#m9b06a84910" x="331.712752" y="266.112" style="stroke: #000000; stroke-width: 0.8"/>
      </g>
     </g>
    </g>
    <g id="xtick_44">
     <g id="line2d_87">
      <path d="M 338.36551 266.112 
L 338.36551 -0 
" clip-path="url(#p3e297e118b)" style="fill: none; stroke: #b0b0b0; stroke-width: 0.8; stroke-linecap: square"/>
     </g>
     <g id="line2d_88">
      <g>
       <use xlink:href="#m9b06a84910" x="338.36551" y="266.112" style="stroke: #000000; stroke-width: 0.8"/>
      </g>
     </g>
    </g>
    <g id="xtick_45">
     <g id="line2d_89">
      <path d="M 345.018267 266.112 
L 345.018267 -0 
" clip-path="url(#p3e297e118b)" style="fill: none; stroke: #b0b0b0; stroke-width: 0.8; stroke-linecap: square"/>
     </g>
     <g id="line2d_90">
      <g>
       <use xlink:href="#m9b06a84910" x="345.018267" y="266.112" style="stroke: #000000; stroke-width: 0.8"/>
      </g>
     </g>
    </g>
    <g id="xtick_46">
     <g id="line2d_91">
      <path d="M 351.671024 266.112 
L 351.671024 -0 
" clip-path="url(#p3e297e118b)" style="fill: none; stroke: #b0b0b0; stroke-width: 0.8; stroke-linecap: square"/>
     </g>
     <g id="line2d_92">
      <g>
       <use xlink:href="#m9b06a84910" x="351.671024" y="266.112" style="stroke: #000000; stroke-width: 0.8"/>
      </g>
     </g>
    </g>
    <g id="xtick_47">
     <g id="line2d_93">
      <path d="M 358.323781 266.112 
L 358.323781 -0 
" clip-path="url(#p3e297e118b)" style="fill: none; stroke: #b0b0b0; stroke-width: 0.8; stroke-linecap: square"/>
     </g>
     <g id="line2d_94">
      <g>
       <use xlink:href="#m9b06a84910" x="358.323781" y="266.112" style="stroke: #000000; stroke-width: 0.8"/>
      </g>
     </g>
    </g>
    <g id="xtick_48">
     <g id="line2d_95">
      <path d="M 364.976538 266.112 
L 364.976538 -0 
" clip-path="url(#p3e297e118b)" style="fill: none; stroke: #b0b0b0; stroke-width: 0.8; stroke-linecap: square"/>
     </g>
     <g id="line2d_96">
      <g>
       <use xlink:href="#m9b06a84910" x="364.976538" y="266.112" style="stroke: #000000; stroke-width: 0.8"/>
      </g>
     </g>
    </g>
    <g id="xtick_49">
     <g id="line2d_97">
      <path d="M 371.629295 266.112 
L 371.629295 -0 
" clip-path="url(#p3e297e118b)" style="fill: none; stroke: #b0b0b0; stroke-width: 0.8; stroke-linecap: square"/>
     </g>
     <g id="line2d_98">
      <g>
       <use xlink:href="#m9b06a84910" x="371.629295" y="266.112" style="stroke: #000000; stroke-width: 0.8"/>
      </g>
     </g>
    </g>
    <g id="text_1">
     <!-- Individual Eddies [-] -->
     <g transform="translate(162.149844 284.710437)scale(0.1 -0.1)">
      <defs>
       <path id="DejaVuSans-49" d="M 628 4666 
L 1259 4666 
L 1259 0 
L 628 0 
L 628 4666 
z
" transform="scale(0.015625)"/>
       <path id="DejaVuSans-6e" d="M 3513 2113 
L 3513 0 
L 2938 0 
L 2938 2094 
Q 2938 2591 2744 2837 
Q 2550 3084 2163 3084 
Q 1697 3084 1428 2787 
Q 1159 2491 1159 1978 
L 1159 0 
L 581 0 
L 581 3500 
L 1159 3500 
L 1159 2956 
Q 1366 3272 1645 3428 
Q 1925 3584 2291 3584 
Q 2894 3584 3203 3211 
Q 3513 2838 3513 2113 
z
" transform="scale(0.015625)"/>
       <path id="DejaVuSans-64" d="M 2906 2969 
L 2906 4863 
L 3481 4863 
L 3481 0 
L 2906 0 
L 2906 525 
Q 2725 213 2448 61 
Q 2172 -91 1784 -91 
Q 1150 -91 751 415 
Q 353 922 353 1747 
Q 353 2572 751 3078 
Q 1150 3584 1784 3584 
Q 2172 3584 2448 3432 
Q 2725 3281 2906 2969 
z
M 947 1747 
Q 947 1113 1208 752 
Q 1469 391 1925 391 
Q 2381 391 2643 752 
Q 2906 1113 2906 1747 
Q 2906 2381 2643 2742 
Q 2381 3103 1925 3103 
Q 1469 3103 1208 2742 
Q 947 2381 947 1747 
z
" transform="scale(0.015625)"/>
       <path id="DejaVuSans-69" d="M 603 3500 
L 1178 3500 
L 1178 0 
L 603 0 
L 603 3500 
z
M 603 4863 
L 1178 4863 
L 1178 4134 
L 603 4134 
L 603 4863 
z
" transform="scale(0.015625)"/>
       <path id="DejaVuSans-76" d="M 191 3500 
L 800 3500 
L 1894 563 
L 2988 3500 
L 3597 3500 
L 2284 0 
L 1503 0 
L 191 3500 
z
" transform="scale(0.015625)"/>
       <path id="DejaVuSans-75" d="M 544 1381 
L 544 3500 
L 1119 3500 
L 1119 1403 
Q 1119 906 1312 657 
Q 1506 409 1894 409 
Q 2359 409 2629 706 
Q 2900 1003 2900 1516 
L 2900 3500 
L 3475 3500 
L 3475 0 
L 2900 0 
L 2900 538 
Q 2691 219 2414 64 
Q 2138 -91 1772 -91 
Q 1169 -91 856 284 
Q 544 659 544 1381 
z
M 1991 3584 
L 1991 3584 
z
" transform="scale(0.015625)"/>
       <path id="DejaVuSans-61" d="M 2194 1759 
Q 1497 1759 1228 1600 
Q 959 1441 959 1056 
Q 959 750 1161 570 
Q 1363 391 1709 391 
Q 2188 391 2477 730 
Q 2766 1069 2766 1631 
L 2766 1759 
L 2194 1759 
z
M 3341 1997 
L 3341 0 
L 2766 0 
L 2766 531 
Q 2569 213 2275 61 
Q 1981 -91 1556 -91 
Q 1019 -91 701 211 
Q 384 513 384 1019 
Q 384 1609 779 1909 
Q 1175 2209 1959 2209 
L 2766 2209 
L 2766 2266 
Q 2766 2663 2505 2880 
Q 2244 3097 1772 3097 
Q 1472 3097 1187 3025 
Q 903 2953 641 2809 
L 641 3341 
Q 956 3463 1253 3523 
Q 1550 3584 1831 3584 
Q 2591 3584 2966 3190 
Q 3341 2797 3341 1997 
z
" transform="scale(0.015625)"/>
       <path id="DejaVuSans-6c" d="M 603 4863 
L 1178 4863 
L 1178 0 
L 603 0 
L 603 4863 
z
" transform="scale(0.015625)"/>
       <path id="DejaVuSans-20" transform="scale(0.015625)"/>
       <path id="DejaVuSans-45" d="M 628 4666 
L 3578 4666 
L 3578 4134 
L 1259 4134 
L 1259 2753 
L 3481 2753 
L 3481 2222 
L 1259 2222 
L 1259 531 
L 3634 531 
L 3634 0 
L 628 0 
L 628 4666 
z
" transform="scale(0.015625)"/>
       <path id="DejaVuSans-65" d="M 3597 1894 
L 3597 1613 
L 953 1613 
Q 991 1019 1311 708 
Q 1631 397 2203 397 
Q 2534 397 2845 478 
Q 3156 559 3463 722 
L 3463 178 
Q 3153 47 2828 -22 
Q 2503 -91 2169 -91 
Q 1331 -91 842 396 
Q 353 884 353 1716 
Q 353 2575 817 3079 
Q 1281 3584 2069 3584 
Q 2775 3584 3186 3129 
Q 3597 2675 3597 1894 
z
M 3022 2063 
Q 3016 2534 2758 2815 
Q 2500 3097 2075 3097 
Q 1594 3097 1305 2825 
Q 1016 2553 972 2059 
L 3022 2063 
z
" transform="scale(0.015625)"/>
       <path id="DejaVuSans-73" d="M 2834 3397 
L 2834 2853 
Q 2591 2978 2328 3040 
Q 2066 3103 1784 3103 
Q 1356 3103 1142 2972 
Q 928 2841 928 2578 
Q 928 2378 1081 2264 
Q 1234 2150 1697 2047 
L 1894 2003 
Q 2506 1872 2764 1633 
Q 3022 1394 3022 966 
Q 3022 478 2636 193 
Q 2250 -91 1575 -91 
Q 1294 -91 989 -36 
Q 684 19 347 128 
L 347 722 
Q 666 556 975 473 
Q 1284 391 1588 391 
Q 1994 391 2212 530 
Q 2431 669 2431 922 
Q 2431 1156 2273 1281 
Q 2116 1406 1581 1522 
L 1381 1569 
Q 847 1681 609 1914 
Q 372 2147 372 2553 
Q 372 3047 722 3315 
Q 1072 3584 1716 3584 
Q 2034 3584 2315 3537 
Q 2597 3491 2834 3397 
z
" transform="scale(0.015625)"/>
       <path id="DejaVuSans-5b" d="M 550 4863 
L 1875 4863 
L 1875 4416 
L 1125 4416 
L 1125 -397 
L 1875 -397 
L 1875 -844 
L 550 -844 
L 550 4863 
z
" transform="scale(0.015625)"/>
       <path id="DejaVuSans-2d" d="M 313 2009 
L 1997 2009 
L 1997 1497 
L 313 1497 
L 313 2009 
z
" transform="scale(0.015625)"/>
       <path id="DejaVuSans-5d" d="M 1947 4863 
L 1947 -844 
L 622 -844 
L 622 -397 
L 1369 -397 
L 1369 4416 
L 622 4416 
L 622 4863 
L 1947 4863 
z
" transform="scale(0.015625)"/>
      </defs>
      <use xlink:href="#DejaVuSans-49"/>
      <use xlink:href="#DejaVuSans-6e" x="29.492188"/>
      <use xlink:href="#DejaVuSans-64" x="92.871094"/>
      <use xlink:href="#DejaVuSans-69" x="156.347656"/>
      <use xlink:href="#DejaVuSans-76" x="184.130859"/>
      <use xlink:href="#DejaVuSans-69" x="243.310547"/>
      <use xlink:href="#DejaVuSans-64" x="271.09375"/>
      <use xlink:href="#DejaVuSans-75" x="334.570312"/>
      <use xlink:href="#DejaVuSans-61" x="397.949219"/>
      <use xlink:href="#DejaVuSans-6c" x="459.228516"/>
      <use xlink:href="#DejaVuSans-20" x="487.011719"/>
      <use xlink:href="#DejaVuSans-45" x="518.798828"/>
      <use xlink:href="#DejaVuSans-64" x="581.982422"/>
      <use xlink:href="#DejaVuSans-64" x="645.458984"/>
      <use xlink:href="#DejaVuSans-69" x="708.935547"/>
      <use xlink:href="#DejaVuSans-65" x="736.71875"/>
      <use xlink:href="#DejaVuSans-73" x="798.242188"/>
      <use xlink:href="#DejaVuSans-20" x="850.341797"/>
      <use xlink:href="#DejaVuSans-5b" x="882.128906"/>
      <use xlink:href="#DejaVuSans-2d" x="921.142578"/>
      <use xlink:href="#DejaVuSans-5d" x="957.226562"/>
     </g>
    </g>
   </g>
   <g id="matplotlib.axis_2">
    <g id="ytick_1">
     <g id="line2d_99">
      <path d="M 33.403125 266.112 
L 390.523125 266.112 
" clip-path="url(#p3e297e118b)" style="fill: none; stroke: #b0b0b0; stroke-width: 0.8; stroke-linecap: square"/>
     </g>
     <g id="line2d_100">
      <defs>
       <path id="md438c85352" d="M 0 0 
L -3.5 0 
" style="stroke: #000000; stroke-width: 0.8"/>
      </defs>
      <g>
       <use xlink:href="#md438c85352" x="33.403125" y="266.112" style="stroke: #000000; stroke-width: 0.8"/>
      </g>
     </g>
     <g id="text_2">
      <!-- 0 -->
      <g transform="translate(20.040625 269.911219)scale(0.1 -0.1)">
       <defs>
        <path id="DejaVuSans-30" d="M 2034 4250 
Q 1547 4250 1301 3770 
Q 1056 3291 1056 2328 
Q 1056 1369 1301 889 
Q 1547 409 2034 409 
Q 2525 409 2770 889 
Q 3016 1369 3016 2328 
Q 3016 3291 2770 3770 
Q 2525 4250 2034 4250 
z
M 2034 4750 
Q 2819 4750 3233 4129 
Q 3647 3509 3647 2328 
Q 3647 1150 3233 529 
Q 2819 -91 2034 -91 
Q 1250 -91 836 529 
Q 422 1150 422 2328 
Q 422 3509 836 4129 
Q 1250 4750 2034 4750 
z
" transform="scale(0.015625)"/>
       </defs>
       <use xlink:href="#DejaVuSans-30"/>
      </g>
     </g>
    </g>
    <g id="ytick_2">
     <g id="line2d_101">
      <path d="M 33.403125 231.394192 
L 390.523125 231.394192 
" clip-path="url(#p3e297e118b)" style="fill: none; stroke: #b0b0b0; stroke-width: 0.8; stroke-linecap: square"/>
     </g>
     <g id="line2d_102">
      <g>
       <use xlink:href="#md438c85352" x="33.403125" y="231.394192" style="stroke: #000000; stroke-width: 0.8"/>
      </g>
     </g>
     <g id="text_3">
      <!-- 2 -->
      <g transform="translate(20.040625 235.193411)scale(0.1 -0.1)">
       <defs>
        <path id="DejaVuSans-32" d="M 1228 531 
L 3431 531 
L 3431 0 
L 469 0 
L 469 531 
Q 828 903 1448 1529 
Q 2069 2156 2228 2338 
Q 2531 2678 2651 2914 
Q 2772 3150 2772 3378 
Q 2772 3750 2511 3984 
Q 2250 4219 1831 4219 
Q 1534 4219 1204 4116 
Q 875 4013 500 3803 
L 500 4441 
Q 881 4594 1212 4672 
Q 1544 4750 1819 4750 
Q 2544 4750 2975 4387 
Q 3406 4025 3406 3419 
Q 3406 3131 3298 2873 
Q 3191 2616 2906 2266 
Q 2828 2175 2409 1742 
Q 1991 1309 1228 531 
z
" transform="scale(0.015625)"/>
       </defs>
       <use xlink:href="#DejaVuSans-32"/>
      </g>
     </g>
    </g>
    <g id="ytick_3">
     <g id="line2d_103">
      <path d="M 33.403125 196.676384 
L 390.523125 196.676384 
" clip-path="url(#p3e297e118b)" style="fill: none; stroke: #b0b0b0; stroke-width: 0.8; stroke-linecap: square"/>
     </g>
     <g id="line2d_104">
      <g>
       <use xlink:href="#md438c85352" x="33.403125" y="196.676384" style="stroke: #000000; stroke-width: 0.8"/>
      </g>
     </g>
     <g id="text_4">
      <!-- 4 -->
      <g transform="translate(20.040625 200.475602)scale(0.1 -0.1)">
       <defs>
        <path id="DejaVuSans-34" d="M 2419 4116 
L 825 1625 
L 2419 1625 
L 2419 4116 
z
M 2253 4666 
L 3047 4666 
L 3047 1625 
L 3713 1625 
L 3713 1100 
L 3047 1100 
L 3047 0 
L 2419 0 
L 2419 1100 
L 313 1100 
L 313 1709 
L 2253 4666 
z
" transform="scale(0.015625)"/>
       </defs>
       <use xlink:href="#DejaVuSans-34"/>
      </g>
     </g>
    </g>
    <g id="ytick_4">
     <g id="line2d_105">
      <path d="M 33.403125 161.958575 
L 390.523125 161.958575 
" clip-path="url(#p3e297e118b)" style="fill: none; stroke: #b0b0b0; stroke-width: 0.8; stroke-linecap: square"/>
     </g>
     <g id="line2d_106">
      <g>
       <use xlink:href="#md438c85352" x="33.403125" y="161.958575" style="stroke: #000000; stroke-width: 0.8"/>
      </g>
     </g>
     <g id="text_5">
      <!-- 6 -->
      <g transform="translate(20.040625 165.757794)scale(0.1 -0.1)">
       <defs>
        <path id="DejaVuSans-36" d="M 2113 2584 
Q 1688 2584 1439 2293 
Q 1191 2003 1191 1497 
Q 1191 994 1439 701 
Q 1688 409 2113 409 
Q 2538 409 2786 701 
Q 3034 994 3034 1497 
Q 3034 2003 2786 2293 
Q 2538 2584 2113 2584 
z
M 3366 4563 
L 3366 3988 
Q 3128 4100 2886 4159 
Q 2644 4219 2406 4219 
Q 1781 4219 1451 3797 
Q 1122 3375 1075 2522 
Q 1259 2794 1537 2939 
Q 1816 3084 2150 3084 
Q 2853 3084 3261 2657 
Q 3669 2231 3669 1497 
Q 3669 778 3244 343 
Q 2819 -91 2113 -91 
Q 1303 -91 875 529 
Q 447 1150 447 2328 
Q 447 3434 972 4092 
Q 1497 4750 2381 4750 
Q 2619 4750 2861 4703 
Q 3103 4656 3366 4563 
z
" transform="scale(0.015625)"/>
       </defs>
       <use xlink:href="#DejaVuSans-36"/>
      </g>
     </g>
    </g>
    <g id="ytick_5">
     <g id="line2d_107">
      <path d="M 33.403125 127.240767 
L 390.523125 127.240767 
" clip-path="url(#p3e297e118b)" style="fill: none; stroke: #b0b0b0; stroke-width: 0.8; stroke-linecap: square"/>
     </g>
     <g id="line2d_108">
      <g>
       <use xlink:href="#md438c85352" x="33.403125" y="127.240767" style="stroke: #000000; stroke-width: 0.8"/>
      </g>
     </g>
     <g id="text_6">
      <!-- 8 -->
      <g transform="translate(20.040625 131.039986)scale(0.1 -0.1)">
       <defs>
        <path id="DejaVuSans-38" d="M 2034 2216 
Q 1584 2216 1326 1975 
Q 1069 1734 1069 1313 
Q 1069 891 1326 650 
Q 1584 409 2034 409 
Q 2484 409 2743 651 
Q 3003 894 3003 1313 
Q 3003 1734 2745 1975 
Q 2488 2216 2034 2216 
z
M 1403 2484 
Q 997 2584 770 2862 
Q 544 3141 544 3541 
Q 544 4100 942 4425 
Q 1341 4750 2034 4750 
Q 2731 4750 3128 4425 
Q 3525 4100 3525 3541 
Q 3525 3141 3298 2862 
Q 3072 2584 2669 2484 
Q 3125 2378 3379 2068 
Q 3634 1759 3634 1313 
Q 3634 634 3220 271 
Q 2806 -91 2034 -91 
Q 1263 -91 848 271 
Q 434 634 434 1313 
Q 434 1759 690 2068 
Q 947 2378 1403 2484 
z
M 1172 3481 
Q 1172 3119 1398 2916 
Q 1625 2713 2034 2713 
Q 2441 2713 2670 2916 
Q 2900 3119 2900 3481 
Q 2900 3844 2670 4047 
Q 2441 4250 2034 4250 
Q 1625 4250 1398 4047 
Q 1172 3844 1172 3481 
z
" transform="scale(0.015625)"/>
       </defs>
       <use xlink:href="#DejaVuSans-38"/>
      </g>
     </g>
    </g>
    <g id="ytick_6">
     <g id="line2d_109">
      <path d="M 33.403125 92.522959 
L 390.523125 92.522959 
" clip-path="url(#p3e297e118b)" style="fill: none; stroke: #b0b0b0; stroke-width: 0.8; stroke-linecap: square"/>
     </g>
     <g id="line2d_110">
      <g>
       <use xlink:href="#md438c85352" x="33.403125" y="92.522959" style="stroke: #000000; stroke-width: 0.8"/>
      </g>
     </g>
     <g id="text_7">
      <!-- 10 -->
      <g transform="translate(13.678125 96.322178)scale(0.1 -0.1)">
       <defs>
        <path id="DejaVuSans-31" d="M 794 531 
L 1825 531 
L 1825 4091 
L 703 3866 
L 703 4441 
L 1819 4666 
L 2450 4666 
L 2450 531 
L 3481 531 
L 3481 0 
L 794 0 
L 794 531 
z
" transform="scale(0.015625)"/>
       </defs>
       <use xlink:href="#DejaVuSans-31"/>
       <use xlink:href="#DejaVuSans-30" x="63.623047"/>
      </g>
     </g>
    </g>
    <g id="ytick_7">
     <g id="line2d_111">
      <path d="M 33.403125 57.805151 
L 390.523125 57.805151 
" clip-path="url(#p3e297e118b)" style="fill: none; stroke: #b0b0b0; stroke-width: 0.8; stroke-linecap: square"/>
     </g>
     <g id="line2d_112">
      <g>
       <use xlink:href="#md438c85352" x="33.403125" y="57.805151" style="stroke: #000000; stroke-width: 0.8"/>
      </g>
     </g>
     <g id="text_8">
      <!-- 12 -->
      <g transform="translate(13.678125 61.604369)scale(0.1 -0.1)">
       <use xlink:href="#DejaVuSans-31"/>
       <use xlink:href="#DejaVuSans-32" x="63.623047"/>
      </g>
     </g>
    </g>
    <g id="ytick_8">
     <g id="line2d_113">
      <path d="M 33.403125 23.087342 
L 390.523125 23.087342 
" clip-path="url(#p3e297e118b)" style="fill: none; stroke: #b0b0b0; stroke-width: 0.8; stroke-linecap: square"/>
     </g>
     <g id="line2d_114">
      <g>
       <use xlink:href="#md438c85352" x="33.403125" y="23.087342" style="stroke: #000000; stroke-width: 0.8"/>
      </g>
     </g>
     <g id="text_9">
      <!-- 14 -->
      <g transform="translate(13.678125 26.886561)scale(0.1 -0.1)">
       <use xlink:href="#DejaVuSans-31"/>
       <use xlink:href="#DejaVuSans-34" x="63.623047"/>
      </g>
     </g>
    </g>
    <g id="text_10">
     <!-- Eddy Area [10^3 * km^2] -->
     <g transform="translate(7.598437 198.655219)rotate(-90)scale(0.1 -0.1)">
      <defs>
       <path id="DejaVuSans-79" d="M 2059 -325 
Q 1816 -950 1584 -1140 
Q 1353 -1331 966 -1331 
L 506 -1331 
L 506 -850 
L 844 -850 
Q 1081 -850 1212 -737 
Q 1344 -625 1503 -206 
L 1606 56 
L 191 3500 
L 800 3500 
L 1894 763 
L 2988 3500 
L 3597 3500 
L 2059 -325 
z
" transform="scale(0.015625)"/>
       <path id="DejaVuSans-41" d="M 2188 4044 
L 1331 1722 
L 3047 1722 
L 2188 4044 
z
M 1831 4666 
L 2547 4666 
L 4325 0 
L 3669 0 
L 3244 1197 
L 1141 1197 
L 716 0 
L 50 0 
L 1831 4666 
z
" transform="scale(0.015625)"/>
       <path id="DejaVuSans-72" d="M 2631 2963 
Q 2534 3019 2420 3045 
Q 2306 3072 2169 3072 
Q 1681 3072 1420 2755 
Q 1159 2438 1159 1844 
L 1159 0 
L 581 0 
L 581 3500 
L 1159 3500 
L 1159 2956 
Q 1341 3275 1631 3429 
Q 1922 3584 2338 3584 
Q 2397 3584 2469 3576 
Q 2541 3569 2628 3553 
L 2631 2963 
z
" transform="scale(0.015625)"/>
       <path id="DejaVuSans-5e" d="M 2988 4666 
L 4684 2925 
L 4056 2925 
L 2681 4159 
L 1306 2925 
L 678 2925 
L 2375 4666 
L 2988 4666 
z
" transform="scale(0.015625)"/>
       <path id="DejaVuSans-33" d="M 2597 2516 
Q 3050 2419 3304 2112 
Q 3559 1806 3559 1356 
Q 3559 666 3084 287 
Q 2609 -91 1734 -91 
Q 1441 -91 1130 -33 
Q 819 25 488 141 
L 488 750 
Q 750 597 1062 519 
Q 1375 441 1716 441 
Q 2309 441 2620 675 
Q 2931 909 2931 1356 
Q 2931 1769 2642 2001 
Q 2353 2234 1838 2234 
L 1294 2234 
L 1294 2753 
L 1863 2753 
Q 2328 2753 2575 2939 
Q 2822 3125 2822 3475 
Q 2822 3834 2567 4026 
Q 2313 4219 1838 4219 
Q 1578 4219 1281 4162 
Q 984 4106 628 3988 
L 628 4550 
Q 988 4650 1302 4700 
Q 1616 4750 1894 4750 
Q 2613 4750 3031 4423 
Q 3450 4097 3450 3541 
Q 3450 3153 3228 2886 
Q 3006 2619 2597 2516 
z
" transform="scale(0.015625)"/>
       <path id="DejaVuSans-2a" d="M 3009 3897 
L 1888 3291 
L 3009 2681 
L 2828 2375 
L 1778 3009 
L 1778 1831 
L 1422 1831 
L 1422 3009 
L 372 2375 
L 191 2681 
L 1313 3291 
L 191 3897 
L 372 4206 
L 1422 3572 
L 1422 4750 
L 1778 4750 
L 1778 3572 
L 2828 4206 
L 3009 3897 
z
" transform="scale(0.015625)"/>
       <path id="DejaVuSans-6b" d="M 581 4863 
L 1159 4863 
L 1159 1991 
L 2875 3500 
L 3609 3500 
L 1753 1863 
L 3688 0 
L 2938 0 
L 1159 1709 
L 1159 0 
L 581 0 
L 581 4863 
z
" transform="scale(0.015625)"/>
       <path id="DejaVuSans-6d" d="M 3328 2828 
Q 3544 3216 3844 3400 
Q 4144 3584 4550 3584 
Q 5097 3584 5394 3201 
Q 5691 2819 5691 2113 
L 5691 0 
L 5113 0 
L 5113 2094 
Q 5113 2597 4934 2840 
Q 4756 3084 4391 3084 
Q 3944 3084 3684 2787 
Q 3425 2491 3425 1978 
L 3425 0 
L 2847 0 
L 2847 2094 
Q 2847 2600 2669 2842 
Q 2491 3084 2119 3084 
Q 1678 3084 1418 2786 
Q 1159 2488 1159 1978 
L 1159 0 
L 581 0 
L 581 3500 
L 1159 3500 
L 1159 2956 
Q 1356 3278 1631 3431 
Q 1906 3584 2284 3584 
Q 2666 3584 2933 3390 
Q 3200 3197 3328 2828 
z
" transform="scale(0.015625)"/>
      </defs>
      <use xlink:href="#DejaVuSans-45"/>
      <use xlink:href="#DejaVuSans-64" x="63.183594"/>
      <use xlink:href="#DejaVuSans-64" x="126.660156"/>
      <use xlink:href="#DejaVuSans-79" x="190.136719"/>
      <use xlink:href="#DejaVuSans-20" x="249.316406"/>
      <use xlink:href="#DejaVuSans-41" x="281.103516"/>
      <use xlink:href="#DejaVuSans-72" x="349.511719"/>
      <use xlink:href="#DejaVuSans-65" x="388.375"/>
      <use xlink:href="#DejaVuSans-61" x="449.898438"/>
      <use xlink:href="#DejaVuSans-20" x="511.177734"/>
      <use xlink:href="#DejaVuSans-5b" x="542.964844"/>
      <use xlink:href="#DejaVuSans-31" x="581.978516"/>
      <use xlink:href="#DejaVuSans-30" x="645.601562"/>
      <use xlink:href="#DejaVuSans-5e" x="709.224609"/>
      <use xlink:href="#DejaVuSans-33" x="793.013672"/>
      <use xlink:href="#DejaVuSans-20" x="856.636719"/>
      <use xlink:href="#DejaVuSans-2a" x="888.423828"/>
      <use xlink:href="#DejaVuSans-20" x="938.423828"/>
      <use xlink:href="#DejaVuSans-6b" x="970.210938"/>
      <use xlink:href="#DejaVuSans-6d" x="1028.121094"/>
      <use xlink:href="#DejaVuSans-5e" x="1125.533203"/>
      <use xlink:href="#DejaVuSans-32" x="1209.322266"/>
      <use xlink:href="#DejaVuSans-5d" x="1272.945312"/>
     </g>
    </g>
   </g>
   <g id="patch_3">
    <path d="M 49.635852 266.112 
L 54.958058 266.112 
L 54.958058 240.420822 
L 49.635852 240.420822 
z
" clip-path="url(#p3e297e118b)" style="fill: #ff0000"/>
   </g>
   <g id="patch_4">
    <path d="M 56.288609 266.112 
L 61.610815 266.112 
L 61.610815 233.824438 
L 56.288609 233.824438 
z
" clip-path="url(#p3e297e118b)" style="fill: #000080"/>
   </g>
   <g id="patch_5">
    <path d="M 62.941366 266.112 
L 68.263572 266.112 
L 68.263572 227.401644 
L 62.941366 227.401644 
z
" clip-path="url(#p3e297e118b)" style="fill: #000080"/>
   </g>
   <g id="patch_6">
    <path d="M 69.594124 266.112 
L 74.916329 266.112 
L 74.916329 225.318575 
L 69.594124 225.318575 
z
" clip-path="url(#p3e297e118b)" style="fill: #ff0000"/>
   </g>
   <g id="patch_7">
    <path d="M 76.246881 266.112 
L 81.569086 266.112 
L 81.569086 223.235507 
L 76.246881 223.235507 
z
" clip-path="url(#p3e297e118b)" style="fill: #ff0000"/>
   </g>
   <g id="patch_8">
    <path d="M 82.899638 266.112 
L 88.221843 266.112 
L 88.221843 223.235507 
L 82.899638 223.235507 
z
" clip-path="url(#p3e297e118b)" style="fill: #000080"/>
   </g>
   <g id="patch_9">
    <path d="M 89.552395 266.112 
L 94.8746 266.112 
L 94.8746 220.978849 
L 89.552395 220.978849 
z
" clip-path="url(#p3e297e118b)" style="fill: #ff0000"/>
   </g>
   <g id="patch_10">
    <path d="M 96.205152 266.112 
L 101.527357 266.112 
L 101.527357 218.895781 
L 96.205152 218.895781 
z
" clip-path="url(#p3e297e118b)" style="fill: #ff0000"/>
   </g>
   <g id="patch_11">
    <path d="M 102.857909 266.112 
L 108.180115 266.112 
L 108.180115 216.639123 
L 102.857909 216.639123 
z
" clip-path="url(#p3e297e118b)" style="fill: #ff0000"/>
   </g>
   <g id="patch_12">
    <path d="M 109.510666 266.112 
L 114.832872 266.112 
L 114.832872 214.556055 
L 109.510666 214.556055 
z
" clip-path="url(#p3e297e118b)" style="fill: #ff0000"/>
   </g>
   <g id="patch_13">
    <path d="M 116.163423 266.112 
L 121.485629 266.112 
L 121.485629 212.472986 
L 116.163423 212.472986 
z
" clip-path="url(#p3e297e118b)" style="fill: #000080"/>
   </g>
   <g id="patch_14">
    <path d="M 122.81618 266.112 
L 128.138386 266.112 
L 128.138386 212.472986 
L 122.81618 212.472986 
z
" clip-path="url(#p3e297e118b)" style="fill: #ff0000"/>
   </g>
   <g id="patch_15">
    <path d="M 129.468937 266.112 
L 134.791143 266.112 
L 134.791143 210.216329 
L 129.468937 210.216329 
z
" clip-path="url(#p3e297e118b)" style="fill: #ff0000"/>
   </g>
   <g id="patch_16">
    <path d="M 136.121694 266.112 
L 141.4439 266.112 
L 141.4439 203.793534 
L 136.121694 203.793534 
z
" clip-path="url(#p3e297e118b)" style="fill: #000080"/>
   </g>
   <g id="patch_17">
    <path d="M 142.774451 266.112 
L 148.096657 266.112 
L 148.096657 203.793534 
L 142.774451 203.793534 
z
" clip-path="url(#p3e297e118b)" style="fill: #000080"/>
   </g>
   <g id="patch_18">
    <path d="M 149.427208 266.112 
L 154.749414 266.112 
L 154.749414 201.710466 
L 149.427208 201.710466 
z
" clip-path="url(#p3e297e118b)" style="fill: #000080"/>
   </g>
   <g id="patch_19">
    <path d="M 156.079966 266.112 
L 161.402171 266.112 
L 161.402171 201.710466 
L 156.079966 201.710466 
z
" clip-path="url(#p3e297e118b)" style="fill: #000080"/>
   </g>
   <g id="patch_20">
    <path d="M 162.732723 266.112 
L 168.054928 266.112 
L 168.054928 201.710466 
L 162.732723 201.710466 
z
" clip-path="url(#p3e297e118b)" style="fill: #000080"/>
   </g>
   <g id="patch_21">
    <path d="M 169.38548 266.112 
L 174.707685 266.112 
L 174.707685 201.710466 
L 169.38548 201.710466 
z
" clip-path="url(#p3e297e118b)" style="fill: #000080"/>
   </g>
   <g id="patch_22">
    <path d="M 176.038237 266.112 
L 181.360442 266.112 
L 181.360442 199.453808 
L 176.038237 199.453808 
z
" clip-path="url(#p3e297e118b)" style="fill: #000080"/>
   </g>
   <g id="patch_23">
    <path d="M 182.690994 266.112 
L 188.0132 266.112 
L 188.0132 199.453808 
L 182.690994 199.453808 
z
" clip-path="url(#p3e297e118b)" style="fill: #ff0000"/>
   </g>
   <g id="patch_24">
    <path d="M 189.343751 266.112 
L 194.665957 266.112 
L 194.665957 195.287671 
L 189.343751 195.287671 
z
" clip-path="url(#p3e297e118b)" style="fill: #ff0000"/>
   </g>
   <g id="patch_25">
    <path d="M 195.996508 266.112 
L 201.318714 266.112 
L 201.318714 193.031014 
L 195.996508 193.031014 
z
" clip-path="url(#p3e297e118b)" style="fill: #ff0000"/>
   </g>
   <g id="patch_26">
    <path d="M 202.649265 266.112 
L 207.971471 266.112 
L 207.971471 190.947945 
L 202.649265 190.947945 
z
" clip-path="url(#p3e297e118b)" style="fill: #ff0000"/>
   </g>
   <g id="patch_27">
    <path d="M 209.302022 266.112 
L 214.624228 266.112 
L 214.624228 188.864877 
L 209.302022 188.864877 
z
" clip-path="url(#p3e297e118b)" style="fill: #000080"/>
   </g>
   <g id="patch_28">
    <path d="M 215.954779 266.112 
L 221.276985 266.112 
L 221.276985 182.442082 
L 215.954779 182.442082 
z
" clip-path="url(#p3e297e118b)" style="fill: #000080"/>
   </g>
   <g id="patch_29">
    <path d="M 222.607536 266.112 
L 227.929742 266.112 
L 227.929742 178.102356 
L 222.607536 178.102356 
z
" clip-path="url(#p3e297e118b)" style="fill: #000080"/>
   </g>
   <g id="patch_30">
    <path d="M 229.260293 266.112 
L 234.582499 266.112 
L 234.582499 175.845699 
L 229.260293 175.845699 
z
" clip-path="url(#p3e297e118b)" style="fill: #ff0000"/>
   </g>
   <g id="patch_31">
    <path d="M 235.91305 266.112 
L 241.235256 266.112 
L 241.235256 167.339836 
L 235.91305 167.339836 
z
" clip-path="url(#p3e297e118b)" style="fill: #ff0000"/>
   </g>
   <g id="patch_32">
    <path d="M 242.565808 266.112 
L 247.888013 266.112 
L 247.888013 165.256767 
L 242.565808 165.256767 
z
" clip-path="url(#p3e297e118b)" style="fill: #ff0000"/>
   </g>
   <g id="patch_33">
    <path d="M 249.218565 266.112 
L 254.54077 266.112 
L 254.54077 163.00011 
L 249.218565 163.00011 
z
" clip-path="url(#p3e297e118b)" style="fill: #000080"/>
   </g>
   <g id="patch_34">
    <path d="M 255.871322 266.112 
L 261.193527 266.112 
L 261.193527 156.577315 
L 255.871322 156.577315 
z
" clip-path="url(#p3e297e118b)" style="fill: #ff0000"/>
   </g>
   <g id="patch_35">
    <path d="M 262.524079 266.112 
L 267.846284 266.112 
L 267.846284 154.494247 
L 262.524079 154.494247 
z
" clip-path="url(#p3e297e118b)" style="fill: #ff0000"/>
   </g>
   <g id="patch_36">
    <path d="M 269.176836 266.112 
L 274.499042 266.112 
L 274.499042 152.237589 
L 269.176836 152.237589 
z
" clip-path="url(#p3e297e118b)" style="fill: #000080"/>
   </g>
   <g id="patch_37">
    <path d="M 275.829593 266.112 
L 281.151799 266.112 
L 281.151799 152.237589 
L 275.829593 152.237589 
z
" clip-path="url(#p3e297e118b)" style="fill: #ff0000"/>
   </g>
   <g id="patch_38">
    <path d="M 282.48235 266.112 
L 287.804556 266.112 
L 287.804556 150.154521 
L 282.48235 150.154521 
z
" clip-path="url(#p3e297e118b)" style="fill: #ff0000"/>
   </g>
   <g id="patch_39">
    <path d="M 289.135107 266.112 
L 294.457313 266.112 
L 294.457313 135.052274 
L 289.135107 135.052274 
z
" clip-path="url(#p3e297e118b)" style="fill: #000080"/>
   </g>
   <g id="patch_40">
    <path d="M 295.787864 266.112 
L 301.11007 266.112 
L 301.11007 132.969205 
L 295.787864 132.969205 
z
" clip-path="url(#p3e297e118b)" style="fill: #ff0000"/>
   </g>
   <g id="patch_41">
    <path d="M 302.440621 266.112 
L 307.762827 266.112 
L 307.762827 132.969205 
L 302.440621 132.969205 
z
" clip-path="url(#p3e297e118b)" style="fill: #ff0000"/>
   </g>
   <g id="patch_42">
    <path d="M 309.093378 266.112 
L 314.415584 266.112 
L 314.415584 117.866959 
L 309.093378 117.866959 
z
" clip-path="url(#p3e297e118b)" style="fill: #ff0000"/>
   </g>
   <g id="patch_43">
    <path d="M 315.746135 266.112 
L 321.068341 266.112 
L 321.068341 113.700822 
L 315.746135 113.700822 
z
" clip-path="url(#p3e297e118b)" style="fill: #ff0000"/>
   </g>
   <g id="patch_44">
    <path d="M 322.398893 266.112 
L 327.721098 266.112 
L 327.721098 113.700822 
L 322.398893 113.700822 
z
" clip-path="url(#p3e297e118b)" style="fill: #ff0000"/>
   </g>
   <g id="patch_45">
    <path d="M 329.05165 266.112 
L 334.373855 266.112 
L 334.373855 109.361096 
L 329.05165 109.361096 
z
" clip-path="url(#p3e297e118b)" style="fill: #000080"/>
   </g>
   <g id="patch_46">
    <path d="M 335.704407 266.112 
L 341.026612 266.112 
L 341.026612 102.938301 
L 335.704407 102.938301 
z
" clip-path="url(#p3e297e118b)" style="fill: #000080"/>
   </g>
   <g id="patch_47">
    <path d="M 342.357164 266.112 
L 347.679369 266.112 
L 347.679369 100.681644 
L 342.357164 100.681644 
z
" clip-path="url(#p3e297e118b)" style="fill: #000080"/>
   </g>
   <g id="patch_48">
    <path d="M 349.009921 266.112 
L 354.332126 266.112 
L 354.332126 92.175781 
L 349.009921 92.175781 
z
" clip-path="url(#p3e297e118b)" style="fill: #ff0000"/>
   </g>
   <g id="patch_49">
    <path d="M 355.662678 266.112 
L 360.984884 266.112 
L 360.984884 51.382356 
L 355.662678 51.382356 
z
" clip-path="url(#p3e297e118b)" style="fill: #000080"/>
   </g>
   <g id="patch_50">
    <path d="M 362.315435 266.112 
L 367.637641 266.112 
L 367.637641 38.536767 
L 362.315435 38.536767 
z
" clip-path="url(#p3e297e118b)" style="fill: #000080"/>
   </g>
   <g id="patch_51">
    <path d="M 368.968192 266.112 
L 374.290398 266.112 
L 374.290398 12.672 
L 368.968192 12.672 
z
" clip-path="url(#p3e297e118b)" style="fill: #ff0000"/>
   </g>
   <g id="patch_52">
    <path d="M 33.403125 266.112 
L 33.403125 -0 
" style="fill: none; stroke: #000000; stroke-width: 0.8; stroke-linejoin: miter; stroke-linecap: square"/>
   </g>
   <g id="patch_53">
    <path d="M 390.523125 266.112 
L 390.523125 -0 
" style="fill: none; stroke: #000000; stroke-width: 0.8; stroke-linejoin: miter; stroke-linecap: square"/>
   </g>
   <g id="patch_54">
    <path d="M 33.403125 266.112 
L 390.523125 266.112 
" style="fill: none; stroke: #000000; stroke-width: 0.8; stroke-linejoin: miter; stroke-linecap: square"/>
   </g>
   <g id="patch_55">
    <path d="M 33.403125 -0 
L 390.523125 -0 
" style="fill: none; stroke: #000000; stroke-width: 0.8; stroke-linejoin: miter; stroke-linecap: square"/>
   </g>
  </g>
 </g>
 <defs>
  <clipPath id="p3e297e118b">
   <rect x="33.403125" y="-0" width="357.12" height="266.112"/>
  </clipPath>
 </defs>
</svg>
