<?xml version="1.0" encoding="utf-8" standalone="no"?>
<!DOCTYPE svg PUBLIC "-//W3C//DTD SVG 1.1//EN"
  "http://www.w3.org/Graphics/SVG/1.1/DTD/svg11.dtd">
<svg xmlns:xlink="http://www.w3.org/1999/xlink" width="409.760976pt" height="296.46825pt" viewBox="0 0 409.760976 296.46825" xmlns="http://www.w3.org/2000/svg" version="1.1">
 <metadata>
  <rdf:RDF xmlns:dc="http://purl.org/dc/elements/1.1/" xmlns:cc="http://creativecommons.org/ns#" xmlns:rdf="http://www.w3.org/1999/02/22-rdf-syntax-ns#">
   <cc:Work>
    <dc:type rdf:resource="http://purl.org/dc/dcmitype/StillImage"/>
    <dc:date>2023-06-13T22:27:19.773903</dc:date>
    <dc:format>image/svg+xml</dc:format>
    <dc:creator>
     <cc:Agent>
      <dc:title>Matplotlib v3.5.2, https://matplotlib.org/</dc:title>
     </cc:Agent>
    </dc:creator>
   </cc:Work>
  </rdf:RDF>
 </metadata>
 <defs>
  <style type="text/css">*{stroke-linejoin: round; stroke-linecap: butt}</style>
 </defs>
 <g id="figure_1">
  <g id="patch_1">
   <path d="M 0 296.46825 
L 409.760976 296.46825 
L 409.760976 0 
L 0 0 
z
" style="fill: #ffffff"/>
  </g>
  <g id="axes_1">
   <g id="patch_2">
    <path d="M 44.960938 266.112 
L 402.080938 266.112 
L 402.080938 -0 
L 44.960938 -0 
z
" style="fill: #ffffff"/>
   </g>
   <g id="PathCollection_1">
    <path d="M 61.193665 251.016 
L 58.193665 257.016 
L 64.193665 257.016 
z
" clip-path="url(#pf92152b3ff)" style="fill: #440154; stroke: #440154"/>
    <path d="M 63.44821 237.895679 
L 60.44821 243.895679 
L 66.44821 243.895679 
z
" clip-path="url(#pf92152b3ff)" style="fill: #481a6c; stroke: #481a6c"/>
    <path d="M 79.230028 227.342183 
L 76.230028 233.342183 
L 82.230028 233.342183 
z
" clip-path="url(#pf92152b3ff)" style="fill: #472a7a; stroke: #472a7a"/>
    <path d="M 79.230028 215.768933 
L 76.230028 221.768933 
L 82.230028 221.768933 
z
" clip-path="url(#pf92152b3ff)" style="fill: #433d84; stroke: #433d84"/>
    <path d="M 79.230028 210.396733 
L 76.230028 216.396733 
L 82.230028 216.396733 
z
" clip-path="url(#pf92152b3ff)" style="fill: #404588; stroke: #404588"/>
    <path d="M 79.230028 204.769671 
L 76.230028 210.769671 
L 82.230028 210.769671 
z
" clip-path="url(#pf92152b3ff)" style="fill: #3d4d8a; stroke: #3d4d8a"/>
    <path d="M 81.484574 202.527549 
L 78.484574 208.527549 
L 84.484574 208.527549 
z
" clip-path="url(#pf92152b3ff)" style="fill: #3c508b; stroke: #3c508b"/>
    <path d="M 81.484574 202.174998 
L 78.484574 208.174998 
L 84.484574 208.174998 
z
" clip-path="url(#pf92152b3ff)" style="fill: #3b518b; stroke: #3b518b"/>
    <path d="M 81.484574 197.370028 
L 78.484574 203.370028 
L 84.484574 203.370028 
z
" clip-path="url(#pf92152b3ff)" style="fill: #38588c; stroke: #38588c"/>
    <path d="M 81.484574 194.490241 
L 78.484574 200.490241 
L 84.484574 200.490241 
z
" clip-path="url(#pf92152b3ff)" style="fill: #365c8d; stroke: #365c8d"/>
    <path d="M 81.484574 194.37555 
L 78.484574 200.37555 
L 84.484574 200.37555 
z
" clip-path="url(#pf92152b3ff)" style="fill: #365c8d; stroke: #365c8d"/>
    <path d="M 83.739119 191.698515 
L 80.739119 197.698515 
L 86.739119 197.698515 
z
" clip-path="url(#pf92152b3ff)" style="fill: #355f8d; stroke: #355f8d"/>
    <path d="M 85.993665 190.919908 
L 82.993665 196.919908 
L 88.993665 196.919908 
z
" clip-path="url(#pf92152b3ff)" style="fill: #34608d; stroke: #34608d"/>
    <path d="M 85.993665 190.037255 
L 82.993665 196.037255 
L 88.993665 196.037255 
z
" clip-path="url(#pf92152b3ff)" style="fill: #33628d; stroke: #33628d"/>
    <path d="M 85.993665 188.872237 
L 82.993665 194.872237 
L 88.993665 194.872237 
z
" clip-path="url(#pf92152b3ff)" style="fill: #33638d; stroke: #33638d"/>
    <path d="M 88.24821 188.038813 
L 85.24821 194.038813 
L 91.24821 194.038813 
z
" clip-path="url(#pf92152b3ff)" style="fill: #32648e; stroke: #32648e"/>
    <path d="M 90.502756 186.438722 
L 87.502756 192.438722 
L 93.502756 192.438722 
z
" clip-path="url(#pf92152b3ff)" style="fill: #31668e; stroke: #31668e"/>
    <path d="M 92.757301 186.393477 
L 89.757301 192.393477 
L 95.757301 192.393477 
z
" clip-path="url(#pf92152b3ff)" style="fill: #31668e; stroke: #31668e"/>
    <path d="M 92.757301 185.044861 
L 89.757301 191.044861 
L 95.757301 191.044861 
z
" clip-path="url(#pf92152b3ff)" style="fill: #31688e; stroke: #31688e"/>
    <path d="M 95.011847 184.184517 
L 92.011847 190.184517 
L 98.011847 190.184517 
z
" clip-path="url(#pf92152b3ff)" style="fill: #30698e; stroke: #30698e"/>
    <path d="M 95.011847 182.723868 
L 92.011847 188.723868 
L 98.011847 188.723868 
z
" clip-path="url(#pf92152b3ff)" style="fill: #2f6b8e; stroke: #2f6b8e"/>
    <path d="M 95.011847 181.631844 
L 92.011847 187.631844 
L 98.011847 187.631844 
z
" clip-path="url(#pf92152b3ff)" style="fill: #2f6c8e; stroke: #2f6c8e"/>
    <path d="M 95.011847 181.59947 
L 92.011847 187.59947 
L 98.011847 187.59947 
z
" clip-path="url(#pf92152b3ff)" style="fill: #2f6c8e; stroke: #2f6c8e"/>
    <path d="M 97.266392 178.780661 
L 94.266392 184.780661 
L 100.266392 184.780661 
z
" clip-path="url(#pf92152b3ff)" style="fill: #2d708e; stroke: #2d708e"/>
    <path d="M 97.266392 176.197422 
L 94.266392 182.197422 
L 100.266392 182.197422 
z
" clip-path="url(#pf92152b3ff)" style="fill: #2c728e; stroke: #2c728e"/>
    <path d="M 99.520938 174.809459 
L 96.520938 180.809459 
L 102.520938 180.809459 
z
" clip-path="url(#pf92152b3ff)" style="fill: #2b748e; stroke: #2b748e"/>
    <path d="M 99.520938 174.625289 
L 96.520938 180.625289 
L 102.520938 180.625289 
z
" clip-path="url(#pf92152b3ff)" style="fill: #2b758e; stroke: #2b758e"/>
    <path d="M 99.520938 174.057582 
L 96.520938 180.057582 
L 102.520938 180.057582 
z
" clip-path="url(#pf92152b3ff)" style="fill: #2b758e; stroke: #2b758e"/>
    <path d="M 99.520938 169.444367 
L 96.520938 175.444367 
L 102.520938 175.444367 
z
" clip-path="url(#pf92152b3ff)" style="fill: #297b8e; stroke: #297b8e"/>
    <path d="M 99.520938 167.419786 
L 96.520938 173.419786 
L 102.520938 173.419786 
z
" clip-path="url(#pf92152b3ff)" style="fill: #277e8e; stroke: #277e8e"/>
    <path d="M 101.775483 164.712297 
L 98.775483 170.712297 
L 104.775483 170.712297 
z
" clip-path="url(#pf92152b3ff)" style="fill: #26818e; stroke: #26818e"/>
    <path d="M 101.775483 160.346629 
L 98.775483 166.346629 
L 104.775483 166.346629 
z
" clip-path="url(#pf92152b3ff)" style="fill: #24868e; stroke: #24868e"/>
    <path d="M 106.284574 159.854031 
L 103.284574 165.854031 
L 109.284574 165.854031 
z
" clip-path="url(#pf92152b3ff)" style="fill: #24878e; stroke: #24878e"/>
    <path d="M 106.284574 159.816058 
L 103.284574 165.816058 
L 109.284574 165.816058 
z
" clip-path="url(#pf92152b3ff)" style="fill: #24878e; stroke: #24878e"/>
    <path d="M 110.793665 157.259528 
L 107.793665 163.259528 
L 113.793665 163.259528 
z
" clip-path="url(#pf92152b3ff)" style="fill: #238a8d; stroke: #238a8d"/>
    <path d="M 115.302756 157.127337 
L 112.302756 163.127337 
L 118.302756 163.127337 
z
" clip-path="url(#pf92152b3ff)" style="fill: #238a8d; stroke: #238a8d"/>
    <path d="M 117.557301 153.515853 
L 114.557301 159.515853 
L 120.557301 159.515853 
z
" clip-path="url(#pf92152b3ff)" style="fill: #218f8d; stroke: #218f8d"/>
    <path d="M 122.066392 133.197331 
L 119.066392 139.197331 
L 125.066392 139.197331 
z
" clip-path="url(#pf92152b3ff)" style="fill: #22a785; stroke: #22a785"/>
    <path d="M 124.320938 131.320011 
L 121.320938 137.320011 
L 127.320938 137.320011 
z
" clip-path="url(#pf92152b3ff)" style="fill: #24aa83; stroke: #24aa83"/>
    <path d="M 126.575483 130.111428 
L 123.575483 136.111428 
L 129.575483 136.111428 
z
" clip-path="url(#pf92152b3ff)" style="fill: #25ab82; stroke: #25ab82"/>
    <path d="M 126.575483 130.045675 
L 123.575483 136.045675 
L 129.575483 136.045675 
z
" clip-path="url(#pf92152b3ff)" style="fill: #25ab82; stroke: #25ab82"/>
    <path d="M 131.084574 129.771023 
L 128.084574 135.771023 
L 134.084574 135.771023 
z
" clip-path="url(#pf92152b3ff)" style="fill: #25ac82; stroke: #25ac82"/>
    <path d="M 133.339119 128.93849 
L 130.339119 134.93849 
L 136.339119 134.93849 
z
" clip-path="url(#pf92152b3ff)" style="fill: #26ad81; stroke: #26ad81"/>
    <path d="M 133.339119 128.457288 
L 130.339119 134.457288 
L 136.339119 134.457288 
z
" clip-path="url(#pf92152b3ff)" style="fill: #26ad81; stroke: #26ad81"/>
    <path d="M 137.84821 126.56931 
L 134.84821 132.56931 
L 140.84821 132.56931 
z
" clip-path="url(#pf92152b3ff)" style="fill: #29af7f; stroke: #29af7f"/>
    <path d="M 140.102756 125.326056 
L 137.102756 131.326056 
L 143.102756 131.326056 
z
" clip-path="url(#pf92152b3ff)" style="fill: #2ab07f; stroke: #2ab07f"/>
    <path d="M 140.102756 124.150775 
L 137.102756 130.150775 
L 143.102756 130.150775 
z
" clip-path="url(#pf92152b3ff)" style="fill: #2db27d; stroke: #2db27d"/>
    <path d="M 142.357301 123.454377 
L 139.357301 129.454377 
L 145.357301 129.454377 
z
" clip-path="url(#pf92152b3ff)" style="fill: #2eb37c; stroke: #2eb37c"/>
    <path d="M 144.611847 118.274949 
L 141.611847 124.274949 
L 147.611847 124.274949 
z
" clip-path="url(#pf92152b3ff)" style="fill: #38b977; stroke: #38b977"/>
    <path d="M 149.120938 117.13008 
L 146.120938 123.13008 
L 152.120938 123.13008 
z
" clip-path="url(#pf92152b3ff)" style="fill: #3aba76; stroke: #3aba76"/>
    <path d="M 151.375483 115.740889 
L 148.375483 121.740889 
L 154.375483 121.740889 
z
" clip-path="url(#pf92152b3ff)" style="fill: #3dbc74; stroke: #3dbc74"/>
    <path d="M 158.139119 115.737691 
L 155.139119 121.737691 
L 161.139119 121.737691 
z
" clip-path="url(#pf92152b3ff)" style="fill: #3dbc74; stroke: #3dbc74"/>
    <path d="M 162.64821 115.140994 
L 159.64821 121.140994 
L 165.64821 121.140994 
z
" clip-path="url(#pf92152b3ff)" style="fill: #3fbc73; stroke: #3fbc73"/>
    <path d="M 164.902756 111.962081 
L 161.902756 117.962081 
L 167.902756 117.962081 
z
" clip-path="url(#pf92152b3ff)" style="fill: #46c06f; stroke: #46c06f"/>
    <path d="M 169.411847 111.881174 
L 166.411847 117.881174 
L 172.411847 117.881174 
z
" clip-path="url(#pf92152b3ff)" style="fill: #46c06f; stroke: #46c06f"/>
    <path d="M 182.939119 105.725195 
L 179.939119 111.725195 
L 185.939119 111.725195 
z
" clip-path="url(#pf92152b3ff)" style="fill: #56c667; stroke: #56c667"/>
    <path d="M 194.211847 105.47425 
L 191.211847 111.47425 
L 197.211847 111.47425 
z
" clip-path="url(#pf92152b3ff)" style="fill: #56c667; stroke: #56c667"/>
    <path d="M 203.230028 104.08134 
L 200.230028 110.08134 
L 206.230028 110.08134 
z
" clip-path="url(#pf92152b3ff)" style="fill: #5ac864; stroke: #5ac864"/>
    <path d="M 212.24821 102.067869 
L 209.24821 108.067869 
L 215.24821 108.067869 
z
" clip-path="url(#pf92152b3ff)" style="fill: #60ca60; stroke: #60ca60"/>
    <path d="M 246.066392 85.315215 
L 243.066392 91.315215 
L 249.066392 91.315215 
z
" clip-path="url(#pf92152b3ff)" style="fill: #93d741; stroke: #93d741"/>
    <path d="M 275.375483 78.665255 
L 272.375483 84.665255 
L 278.375483 84.665255 
z
" clip-path="url(#pf92152b3ff)" style="fill: #aadc32; stroke: #aadc32"/>
    <path d="M 304.684574 76.22709 
L 301.684574 82.22709 
L 307.684574 82.22709 
z
" clip-path="url(#pf92152b3ff)" style="fill: #b2dd2d; stroke: #b2dd2d"/>
    <path d="M 327.230028 68.796084 
L 324.230028 74.796084 
L 330.230028 74.796084 
z
" clip-path="url(#pf92152b3ff)" style="fill: #cde11d; stroke: #cde11d"/>
    <path d="M 345.266392 67.642969 
L 342.266392 73.642969 
L 348.266392 73.642969 
z
" clip-path="url(#pf92152b3ff)" style="fill: #d0e11c; stroke: #d0e11c"/>
    <path d="M 385.84821 53.482909 
L 382.84821 59.482909 
L 388.84821 59.482909 
z
" clip-path="url(#pf92152b3ff)" style="fill: #fde725; stroke: #fde725"/>
   </g>
   <g id="matplotlib.axis_1">
    <g id="xtick_1">
     <g id="line2d_1">
      <defs>
       <path id="ma27b8b5a74" d="M 0 0 
L 0 3.5 
" style="stroke: #000000; stroke-width: 0.8"/>
      </defs>
      <g>
       <use xlink:href="#ma27b8b5a74" x="79.70025" y="266.112" style="stroke: #000000; stroke-width: 0.8"/>
      </g>
     </g>
     <g id="text_1">
      <!-- 2.5 -->
      <g transform="translate(71.748687 280.710437)scale(0.1 -0.1)">
       <defs>
        <path id="DejaVuSans-32" d="M 1228 531 
L 3431 531 
L 3431 0 
L 469 0 
L 469 531 
Q 828 903 1448 1529 
Q 2069 2156 2228 2338 
Q 2531 2678 2651 2914 
Q 2772 3150 2772 3378 
Q 2772 3750 2511 3984 
Q 2250 4219 1831 4219 
Q 1534 4219 1204 4116 
Q 875 4013 500 3803 
L 500 4441 
Q 881 4594 1212 4672 
Q 1544 4750 1819 4750 
Q 2544 4750 2975 4387 
Q 3406 4025 3406 3419 
Q 3406 3131 3298 2873 
Q 3191 2616 2906 2266 
Q 2828 2175 2409 1742 
Q 1991 1309 1228 531 
z
" transform="scale(0.015625)"/>
        <path id="DejaVuSans-2e" d="M 684 794 
L 1344 794 
L 1344 0 
L 684 0 
L 684 794 
z
" transform="scale(0.015625)"/>
        <path id="DejaVuSans-35" d="M 691 4666 
L 3169 4666 
L 3169 4134 
L 1269 4134 
L 1269 2991 
Q 1406 3038 1543 3061 
Q 1681 3084 1819 3084 
Q 2600 3084 3056 2656 
Q 3513 2228 3513 1497 
Q 3513 744 3044 326 
Q 2575 -91 1722 -91 
Q 1428 -91 1123 -41 
Q 819 9 494 109 
L 494 744 
Q 775 591 1075 516 
Q 1375 441 1709 441 
Q 2250 441 2565 725 
Q 2881 1009 2881 1497 
Q 2881 1984 2565 2268 
Q 2250 2553 1709 2553 
Q 1456 2553 1204 2497 
Q 953 2441 691 2322 
L 691 4666 
z
" transform="scale(0.015625)"/>
       </defs>
       <use xlink:href="#DejaVuSans-32"/>
       <use xlink:href="#DejaVuSans-2e" x="63.623047"/>
       <use xlink:href="#DejaVuSans-35" x="95.410156"/>
      </g>
     </g>
    </g>
    <g id="xtick_2">
     <g id="line2d_2">
      <g>
       <use xlink:href="#ma27b8b5a74" x="125.26138" y="266.112" style="stroke: #000000; stroke-width: 0.8"/>
      </g>
     </g>
     <g id="text_2">
      <!-- 5.0 -->
      <g transform="translate(117.309818 280.710437)scale(0.1 -0.1)">
       <defs>
        <path id="DejaVuSans-30" d="M 2034 4250 
Q 1547 4250 1301 3770 
Q 1056 3291 1056 2328 
Q 1056 1369 1301 889 
Q 1547 409 2034 409 
Q 2525 409 2770 889 
Q 3016 1369 3016 2328 
Q 3016 3291 2770 3770 
Q 2525 4250 2034 4250 
z
M 2034 4750 
Q 2819 4750 3233 4129 
Q 3647 3509 3647 2328 
Q 3647 1150 3233 529 
Q 2819 -91 2034 -91 
Q 1250 -91 836 529 
Q 422 1150 422 2328 
Q 422 3509 836 4129 
Q 1250 4750 2034 4750 
z
" transform="scale(0.015625)"/>
       </defs>
       <use xlink:href="#DejaVuSans-35"/>
       <use xlink:href="#DejaVuSans-2e" x="63.623047"/>
       <use xlink:href="#DejaVuSans-30" x="95.410156"/>
      </g>
     </g>
    </g>
    <g id="xtick_3">
     <g id="line2d_3">
      <g>
       <use xlink:href="#ma27b8b5a74" x="170.822511" y="266.112" style="stroke: #000000; stroke-width: 0.8"/>
      </g>
     </g>
     <g id="text_3">
      <!-- 7.5 -->
      <g transform="translate(162.870949 280.710437)scale(0.1 -0.1)">
       <defs>
        <path id="DejaVuSans-37" d="M 525 4666 
L 3525 4666 
L 3525 4397 
L 1831 0 
L 1172 0 
L 2766 4134 
L 525 4134 
L 525 4666 
z
" transform="scale(0.015625)"/>
       </defs>
       <use xlink:href="#DejaVuSans-37"/>
       <use xlink:href="#DejaVuSans-2e" x="63.623047"/>
       <use xlink:href="#DejaVuSans-35" x="95.410156"/>
      </g>
     </g>
    </g>
    <g id="xtick_4">
     <g id="line2d_4">
      <g>
       <use xlink:href="#ma27b8b5a74" x="216.383642" y="266.112" style="stroke: #000000; stroke-width: 0.8"/>
      </g>
     </g>
     <g id="text_4">
      <!-- 10.0 -->
      <g transform="translate(205.250829 280.710437)scale(0.1 -0.1)">
       <defs>
        <path id="DejaVuSans-31" d="M 794 531 
L 1825 531 
L 1825 4091 
L 703 3866 
L 703 4441 
L 1819 4666 
L 2450 4666 
L 2450 531 
L 3481 531 
L 3481 0 
L 794 0 
L 794 531 
z
" transform="scale(0.015625)"/>
       </defs>
       <use xlink:href="#DejaVuSans-31"/>
       <use xlink:href="#DejaVuSans-30" x="63.623047"/>
       <use xlink:href="#DejaVuSans-2e" x="127.246094"/>
       <use xlink:href="#DejaVuSans-30" x="159.033203"/>
      </g>
     </g>
    </g>
    <g id="xtick_5">
     <g id="line2d_5">
      <g>
       <use xlink:href="#ma27b8b5a74" x="261.944772" y="266.112" style="stroke: #000000; stroke-width: 0.8"/>
      </g>
     </g>
     <g id="text_5">
      <!-- 12.5 -->
      <g transform="translate(250.81196 280.710437)scale(0.1 -0.1)">
       <use xlink:href="#DejaVuSans-31"/>
       <use xlink:href="#DejaVuSans-32" x="63.623047"/>
       <use xlink:href="#DejaVuSans-2e" x="127.246094"/>
       <use xlink:href="#DejaVuSans-35" x="159.033203"/>
      </g>
     </g>
    </g>
    <g id="xtick_6">
     <g id="line2d_6">
      <g>
       <use xlink:href="#ma27b8b5a74" x="307.505903" y="266.112" style="stroke: #000000; stroke-width: 0.8"/>
      </g>
     </g>
     <g id="text_6">
      <!-- 15.0 -->
      <g transform="translate(296.37309 280.710437)scale(0.1 -0.1)">
       <use xlink:href="#DejaVuSans-31"/>
       <use xlink:href="#DejaVuSans-35" x="63.623047"/>
       <use xlink:href="#DejaVuSans-2e" x="127.246094"/>
       <use xlink:href="#DejaVuSans-30" x="159.033203"/>
      </g>
     </g>
    </g>
    <g id="xtick_7">
     <g id="line2d_7">
      <g>
       <use xlink:href="#ma27b8b5a74" x="353.067033" y="266.112" style="stroke: #000000; stroke-width: 0.8"/>
      </g>
     </g>
     <g id="text_7">
      <!-- 17.5 -->
      <g transform="translate(341.934221 280.710437)scale(0.1 -0.1)">
       <use xlink:href="#DejaVuSans-31"/>
       <use xlink:href="#DejaVuSans-37" x="63.623047"/>
       <use xlink:href="#DejaVuSans-2e" x="127.246094"/>
       <use xlink:href="#DejaVuSans-35" x="159.033203"/>
      </g>
     </g>
    </g>
    <g id="xtick_8">
     <g id="line2d_8">
      <g>
       <use xlink:href="#ma27b8b5a74" x="398.628164" y="266.112" style="stroke: #000000; stroke-width: 0.8"/>
      </g>
     </g>
     <g id="text_8">
      <!-- 20.0 -->
      <g transform="translate(387.495351 280.710437)scale(0.1 -0.1)">
       <use xlink:href="#DejaVuSans-32"/>
       <use xlink:href="#DejaVuSans-30" x="63.623047"/>
       <use xlink:href="#DejaVuSans-2e" x="127.246094"/>
       <use xlink:href="#DejaVuSans-30" x="159.033203"/>
      </g>
     </g>
    </g>
    <g id="text_9">
     <!-- Eddy Area [10^3 * km^2] -->
     <g transform="translate(157.921719 294.388562)scale(0.1 -0.1)">
      <defs>
       <path id="DejaVuSans-45" d="M 628 4666 
L 3578 4666 
L 3578 4134 
L 1259 4134 
L 1259 2753 
L 3481 2753 
L 3481 2222 
L 1259 2222 
L 1259 531 
L 3634 531 
L 3634 0 
L 628 0 
L 628 4666 
z
" transform="scale(0.015625)"/>
       <path id="DejaVuSans-64" d="M 2906 2969 
L 2906 4863 
L 3481 4863 
L 3481 0 
L 2906 0 
L 2906 525 
Q 2725 213 2448 61 
Q 2172 -91 1784 -91 
Q 1150 -91 751 415 
Q 353 922 353 1747 
Q 353 2572 751 3078 
Q 1150 3584 1784 3584 
Q 2172 3584 2448 3432 
Q 2725 3281 2906 2969 
z
M 947 1747 
Q 947 1113 1208 752 
Q 1469 391 1925 391 
Q 2381 391 2643 752 
Q 2906 1113 2906 1747 
Q 2906 2381 2643 2742 
Q 2381 3103 1925 3103 
Q 1469 3103 1208 2742 
Q 947 2381 947 1747 
z
" transform="scale(0.015625)"/>
       <path id="DejaVuSans-79" d="M 2059 -325 
Q 1816 -950 1584 -1140 
Q 1353 -1331 966 -1331 
L 506 -1331 
L 506 -850 
L 844 -850 
Q 1081 -850 1212 -737 
Q 1344 -625 1503 -206 
L 1606 56 
L 191 3500 
L 800 3500 
L 1894 763 
L 2988 3500 
L 3597 3500 
L 2059 -325 
z
" transform="scale(0.015625)"/>
       <path id="DejaVuSans-20" transform="scale(0.015625)"/>
       <path id="DejaVuSans-41" d="M 2188 4044 
L 1331 1722 
L 3047 1722 
L 2188 4044 
z
M 1831 4666 
L 2547 4666 
L 4325 0 
L 3669 0 
L 3244 1197 
L 1141 1197 
L 716 0 
L 50 0 
L 1831 4666 
z
" transform="scale(0.015625)"/>
       <path id="DejaVuSans-72" d="M 2631 2963 
Q 2534 3019 2420 3045 
Q 2306 3072 2169 3072 
Q 1681 3072 1420 2755 
Q 1159 2438 1159 1844 
L 1159 0 
L 581 0 
L 581 3500 
L 1159 3500 
L 1159 2956 
Q 1341 3275 1631 3429 
Q 1922 3584 2338 3584 
Q 2397 3584 2469 3576 
Q 2541 3569 2628 3553 
L 2631 2963 
z
" transform="scale(0.015625)"/>
       <path id="DejaVuSans-65" d="M 3597 1894 
L 3597 1613 
L 953 1613 
Q 991 1019 1311 708 
Q 1631 397 2203 397 
Q 2534 397 2845 478 
Q 3156 559 3463 722 
L 3463 178 
Q 3153 47 2828 -22 
Q 2503 -91 2169 -91 
Q 1331 -91 842 396 
Q 353 884 353 1716 
Q 353 2575 817 3079 
Q 1281 3584 2069 3584 
Q 2775 3584 3186 3129 
Q 3597 2675 3597 1894 
z
M 3022 2063 
Q 3016 2534 2758 2815 
Q 2500 3097 2075 3097 
Q 1594 3097 1305 2825 
Q 1016 2553 972 2059 
L 3022 2063 
z
" transform="scale(0.015625)"/>
       <path id="DejaVuSans-61" d="M 2194 1759 
Q 1497 1759 1228 1600 
Q 959 1441 959 1056 
Q 959 750 1161 570 
Q 1363 391 1709 391 
Q 2188 391 2477 730 
Q 2766 1069 2766 1631 
L 2766 1759 
L 2194 1759 
z
M 3341 1997 
L 3341 0 
L 2766 0 
L 2766 531 
Q 2569 213 2275 61 
Q 1981 -91 1556 -91 
Q 1019 -91 701 211 
Q 384 513 384 1019 
Q 384 1609 779 1909 
Q 1175 2209 1959 2209 
L 2766 2209 
L 2766 2266 
Q 2766 2663 2505 2880 
Q 2244 3097 1772 3097 
Q 1472 3097 1187 3025 
Q 903 2953 641 2809 
L 641 3341 
Q 956 3463 1253 3523 
Q 1550 3584 1831 3584 
Q 2591 3584 2966 3190 
Q 3341 2797 3341 1997 
z
" transform="scale(0.015625)"/>
       <path id="DejaVuSans-5b" d="M 550 4863 
L 1875 4863 
L 1875 4416 
L 1125 4416 
L 1125 -397 
L 1875 -397 
L 1875 -844 
L 550 -844 
L 550 4863 
z
" transform="scale(0.015625)"/>
       <path id="DejaVuSans-5e" d="M 2988 4666 
L 4684 2925 
L 4056 2925 
L 2681 4159 
L 1306 2925 
L 678 2925 
L 2375 4666 
L 2988 4666 
z
" transform="scale(0.015625)"/>
       <path id="DejaVuSans-33" d="M 2597 2516 
Q 3050 2419 3304 2112 
Q 3559 1806 3559 1356 
Q 3559 666 3084 287 
Q 2609 -91 1734 -91 
Q 1441 -91 1130 -33 
Q 819 25 488 141 
L 488 750 
Q 750 597 1062 519 
Q 1375 441 1716 441 
Q 2309 441 2620 675 
Q 2931 909 2931 1356 
Q 2931 1769 2642 2001 
Q 2353 2234 1838 2234 
L 1294 2234 
L 1294 2753 
L 1863 2753 
Q 2328 2753 2575 2939 
Q 2822 3125 2822 3475 
Q 2822 3834 2567 4026 
Q 2313 4219 1838 4219 
Q 1578 4219 1281 4162 
Q 984 4106 628 3988 
L 628 4550 
Q 988 4650 1302 4700 
Q 1616 4750 1894 4750 
Q 2613 4750 3031 4423 
Q 3450 4097 3450 3541 
Q 3450 3153 3228 2886 
Q 3006 2619 2597 2516 
z
" transform="scale(0.015625)"/>
       <path id="DejaVuSans-2a" d="M 3009 3897 
L 1888 3291 
L 3009 2681 
L 2828 2375 
L 1778 3009 
L 1778 1831 
L 1422 1831 
L 1422 3009 
L 372 2375 
L 191 2681 
L 1313 3291 
L 191 3897 
L 372 4206 
L 1422 3572 
L 1422 4750 
L 1778 4750 
L 1778 3572 
L 2828 4206 
L 3009 3897 
z
" transform="scale(0.015625)"/>
       <path id="DejaVuSans-6b" d="M 581 4863 
L 1159 4863 
L 1159 1991 
L 2875 3500 
L 3609 3500 
L 1753 1863 
L 3688 0 
L 2938 0 
L 1159 1709 
L 1159 0 
L 581 0 
L 581 4863 
z
" transform="scale(0.015625)"/>
       <path id="DejaVuSans-6d" d="M 3328 2828 
Q 3544 3216 3844 3400 
Q 4144 3584 4550 3584 
Q 5097 3584 5394 3201 
Q 5691 2819 5691 2113 
L 5691 0 
L 5113 0 
L 5113 2094 
Q 5113 2597 4934 2840 
Q 4756 3084 4391 3084 
Q 3944 3084 3684 2787 
Q 3425 2491 3425 1978 
L 3425 0 
L 2847 0 
L 2847 2094 
Q 2847 2600 2669 2842 
Q 2491 3084 2119 3084 
Q 1678 3084 1418 2786 
Q 1159 2488 1159 1978 
L 1159 0 
L 581 0 
L 581 3500 
L 1159 3500 
L 1159 2956 
Q 1356 3278 1631 3431 
Q 1906 3584 2284 3584 
Q 2666 3584 2933 3390 
Q 3200 3197 3328 2828 
z
" transform="scale(0.015625)"/>
       <path id="DejaVuSans-5d" d="M 1947 4863 
L 1947 -844 
L 622 -844 
L 622 -397 
L 1369 -397 
L 1369 4416 
L 622 4416 
L 622 4863 
L 1947 4863 
z
" transform="scale(0.015625)"/>
      </defs>
      <use xlink:href="#DejaVuSans-45"/>
      <use xlink:href="#DejaVuSans-64" x="63.183594"/>
      <use xlink:href="#DejaVuSans-64" x="126.660156"/>
      <use xlink:href="#DejaVuSans-79" x="190.136719"/>
      <use xlink:href="#DejaVuSans-20" x="249.316406"/>
      <use xlink:href="#DejaVuSans-41" x="281.103516"/>
      <use xlink:href="#DejaVuSans-72" x="349.511719"/>
      <use xlink:href="#DejaVuSans-65" x="388.375"/>
      <use xlink:href="#DejaVuSans-61" x="449.898438"/>
      <use xlink:href="#DejaVuSans-20" x="511.177734"/>
      <use xlink:href="#DejaVuSans-5b" x="542.964844"/>
      <use xlink:href="#DejaVuSans-31" x="581.978516"/>
      <use xlink:href="#DejaVuSans-30" x="645.601562"/>
      <use xlink:href="#DejaVuSans-5e" x="709.224609"/>
      <use xlink:href="#DejaVuSans-33" x="793.013672"/>
      <use xlink:href="#DejaVuSans-20" x="856.636719"/>
      <use xlink:href="#DejaVuSans-2a" x="888.423828"/>
      <use xlink:href="#DejaVuSans-20" x="938.423828"/>
      <use xlink:href="#DejaVuSans-6b" x="970.210938"/>
      <use xlink:href="#DejaVuSans-6d" x="1028.121094"/>
      <use xlink:href="#DejaVuSans-5e" x="1125.533203"/>
      <use xlink:href="#DejaVuSans-32" x="1209.322266"/>
      <use xlink:href="#DejaVuSans-5d" x="1272.945312"/>
     </g>
    </g>
   </g>
   <g id="matplotlib.axis_2">
    <g id="ytick_1">
     <g id="line2d_9">
      <defs>
       <path id="m65d2626390" d="M 0 0 
L -3.5 0 
" style="stroke: #000000; stroke-width: 0.8"/>
      </defs>
      <g>
       <use xlink:href="#m65d2626390" x="44.960938" y="245.210876" style="stroke: #000000; stroke-width: 0.8"/>
      </g>
     </g>
     <g id="text_10">
      <!-- −0.6 -->
      <g transform="translate(13.678125 249.010094)scale(0.1 -0.1)">
       <defs>
        <path id="DejaVuSans-2212" d="M 678 2272 
L 4684 2272 
L 4684 1741 
L 678 1741 
L 678 2272 
z
" transform="scale(0.015625)"/>
        <path id="DejaVuSans-36" d="M 2113 2584 
Q 1688 2584 1439 2293 
Q 1191 2003 1191 1497 
Q 1191 994 1439 701 
Q 1688 409 2113 409 
Q 2538 409 2786 701 
Q 3034 994 3034 1497 
Q 3034 2003 2786 2293 
Q 2538 2584 2113 2584 
z
M 3366 4563 
L 3366 3988 
Q 3128 4100 2886 4159 
Q 2644 4219 2406 4219 
Q 1781 4219 1451 3797 
Q 1122 3375 1075 2522 
Q 1259 2794 1537 2939 
Q 1816 3084 2150 3084 
Q 2853 3084 3261 2657 
Q 3669 2231 3669 1497 
Q 3669 778 3244 343 
Q 2819 -91 2113 -91 
Q 1303 -91 875 529 
Q 447 1150 447 2328 
Q 447 3434 972 4092 
Q 1497 4750 2381 4750 
Q 2619 4750 2861 4703 
Q 3103 4656 3366 4563 
z
" transform="scale(0.015625)"/>
       </defs>
       <use xlink:href="#DejaVuSans-2212"/>
       <use xlink:href="#DejaVuSans-30" x="83.789062"/>
       <use xlink:href="#DejaVuSans-2e" x="147.412109"/>
       <use xlink:href="#DejaVuSans-36" x="179.199219"/>
      </g>
     </g>
    </g>
    <g id="ytick_2">
     <g id="line2d_10">
      <g>
       <use xlink:href="#m65d2626390" x="44.960938" y="214.287556" style="stroke: #000000; stroke-width: 0.8"/>
      </g>
     </g>
     <g id="text_11">
      <!-- −0.4 -->
      <g transform="translate(13.678125 218.086774)scale(0.1 -0.1)">
       <defs>
        <path id="DejaVuSans-34" d="M 2419 4116 
L 825 1625 
L 2419 1625 
L 2419 4116 
z
M 2253 4666 
L 3047 4666 
L 3047 1625 
L 3713 1625 
L 3713 1100 
L 3047 1100 
L 3047 0 
L 2419 0 
L 2419 1100 
L 313 1100 
L 313 1709 
L 2253 4666 
z
" transform="scale(0.015625)"/>
       </defs>
       <use xlink:href="#DejaVuSans-2212"/>
       <use xlink:href="#DejaVuSans-30" x="83.789062"/>
       <use xlink:href="#DejaVuSans-2e" x="147.412109"/>
       <use xlink:href="#DejaVuSans-34" x="179.199219"/>
      </g>
     </g>
    </g>
    <g id="ytick_3">
     <g id="line2d_11">
      <g>
       <use xlink:href="#m65d2626390" x="44.960938" y="183.364236" style="stroke: #000000; stroke-width: 0.8"/>
      </g>
     </g>
     <g id="text_12">
      <!-- −0.2 -->
      <g transform="translate(13.678125 187.163454)scale(0.1 -0.1)">
       <use xlink:href="#DejaVuSans-2212"/>
       <use xlink:href="#DejaVuSans-30" x="83.789062"/>
       <use xlink:href="#DejaVuSans-2e" x="147.412109"/>
       <use xlink:href="#DejaVuSans-32" x="179.199219"/>
      </g>
     </g>
    </g>
    <g id="ytick_4">
     <g id="line2d_12">
      <g>
       <use xlink:href="#m65d2626390" x="44.960938" y="152.440916" style="stroke: #000000; stroke-width: 0.8"/>
      </g>
     </g>
     <g id="text_13">
      <!-- 0.0 -->
      <g transform="translate(22.057813 156.240134)scale(0.1 -0.1)">
       <use xlink:href="#DejaVuSans-30"/>
       <use xlink:href="#DejaVuSans-2e" x="63.623047"/>
       <use xlink:href="#DejaVuSans-30" x="95.410156"/>
      </g>
     </g>
    </g>
    <g id="ytick_5">
     <g id="line2d_13">
      <g>
       <use xlink:href="#m65d2626390" x="44.960938" y="121.517596" style="stroke: #000000; stroke-width: 0.8"/>
      </g>
     </g>
     <g id="text_14">
      <!-- 0.2 -->
      <g transform="translate(22.057813 125.316815)scale(0.1 -0.1)">
       <use xlink:href="#DejaVuSans-30"/>
       <use xlink:href="#DejaVuSans-2e" x="63.623047"/>
       <use xlink:href="#DejaVuSans-32" x="95.410156"/>
      </g>
     </g>
    </g>
    <g id="ytick_6">
     <g id="line2d_14">
      <g>
       <use xlink:href="#m65d2626390" x="44.960938" y="90.594276" style="stroke: #000000; stroke-width: 0.8"/>
      </g>
     </g>
     <g id="text_15">
      <!-- 0.4 -->
      <g transform="translate(22.057813 94.393495)scale(0.1 -0.1)">
       <use xlink:href="#DejaVuSans-30"/>
       <use xlink:href="#DejaVuSans-2e" x="63.623047"/>
       <use xlink:href="#DejaVuSans-34" x="95.410156"/>
      </g>
     </g>
    </g>
    <g id="ytick_7">
     <g id="line2d_15">
      <g>
       <use xlink:href="#m65d2626390" x="44.960938" y="59.670956" style="stroke: #000000; stroke-width: 0.8"/>
      </g>
     </g>
     <g id="text_16">
      <!-- 0.6 -->
      <g transform="translate(22.057813 63.470175)scale(0.1 -0.1)">
       <use xlink:href="#DejaVuSans-30"/>
       <use xlink:href="#DejaVuSans-2e" x="63.623047"/>
       <use xlink:href="#DejaVuSans-36" x="95.410156"/>
      </g>
     </g>
    </g>
    <g id="ytick_8">
     <g id="line2d_16">
      <g>
       <use xlink:href="#m65d2626390" x="44.960938" y="28.747636" style="stroke: #000000; stroke-width: 0.8"/>
      </g>
     </g>
     <g id="text_17">
      <!-- 0.8 -->
      <g transform="translate(22.057813 32.546855)scale(0.1 -0.1)">
       <defs>
        <path id="DejaVuSans-38" d="M 2034 2216 
Q 1584 2216 1326 1975 
Q 1069 1734 1069 1313 
Q 1069 891 1326 650 
Q 1584 409 2034 409 
Q 2484 409 2743 651 
Q 3003 894 3003 1313 
Q 3003 1734 2745 1975 
Q 2488 2216 2034 2216 
z
M 1403 2484 
Q 997 2584 770 2862 
Q 544 3141 544 3541 
Q 544 4100 942 4425 
Q 1341 4750 2034 4750 
Q 2731 4750 3128 4425 
Q 3525 4100 3525 3541 
Q 3525 3141 3298 2862 
Q 3072 2584 2669 2484 
Q 3125 2378 3379 2068 
Q 3634 1759 3634 1313 
Q 3634 634 3220 271 
Q 2806 -91 2034 -91 
Q 1263 -91 848 271 
Q 434 634 434 1313 
Q 434 1759 690 2068 
Q 947 2378 1403 2484 
z
M 1172 3481 
Q 1172 3119 1398 2916 
Q 1625 2713 2034 2713 
Q 2441 2713 2670 2916 
Q 2900 3119 2900 3481 
Q 2900 3844 2670 4047 
Q 2441 4250 2034 4250 
Q 1625 4250 1398 4047 
Q 1172 3844 1172 3481 
z
" transform="scale(0.015625)"/>
       </defs>
       <use xlink:href="#DejaVuSans-30"/>
       <use xlink:href="#DejaVuSans-2e" x="63.623047"/>
       <use xlink:href="#DejaVuSans-38" x="95.410156"/>
      </g>
     </g>
    </g>
    <g id="text_18">
     <!-- Eddy Amplitude [m] -->
     <g transform="translate(7.598438 183.095844)rotate(-90)scale(0.1 -0.1)">
      <defs>
       <path id="DejaVuSans-70" d="M 1159 525 
L 1159 -1331 
L 581 -1331 
L 581 3500 
L 1159 3500 
L 1159 2969 
Q 1341 3281 1617 3432 
Q 1894 3584 2278 3584 
Q 2916 3584 3314 3078 
Q 3713 2572 3713 1747 
Q 3713 922 3314 415 
Q 2916 -91 2278 -91 
Q 1894 -91 1617 61 
Q 1341 213 1159 525 
z
M 3116 1747 
Q 3116 2381 2855 2742 
Q 2594 3103 2138 3103 
Q 1681 3103 1420 2742 
Q 1159 2381 1159 1747 
Q 1159 1113 1420 752 
Q 1681 391 2138 391 
Q 2594 391 2855 752 
Q 3116 1113 3116 1747 
z
" transform="scale(0.015625)"/>
       <path id="DejaVuSans-6c" d="M 603 4863 
L 1178 4863 
L 1178 0 
L 603 0 
L 603 4863 
z
" transform="scale(0.015625)"/>
       <path id="DejaVuSans-69" d="M 603 3500 
L 1178 3500 
L 1178 0 
L 603 0 
L 603 3500 
z
M 603 4863 
L 1178 4863 
L 1178 4134 
L 603 4134 
L 603 4863 
z
" transform="scale(0.015625)"/>
       <path id="DejaVuSans-74" d="M 1172 4494 
L 1172 3500 
L 2356 3500 
L 2356 3053 
L 1172 3053 
L 1172 1153 
Q 1172 725 1289 603 
Q 1406 481 1766 481 
L 2356 481 
L 2356 0 
L 1766 0 
Q 1100 0 847 248 
Q 594 497 594 1153 
L 594 3053 
L 172 3053 
L 172 3500 
L 594 3500 
L 594 4494 
L 1172 4494 
z
" transform="scale(0.015625)"/>
       <path id="DejaVuSans-75" d="M 544 1381 
L 544 3500 
L 1119 3500 
L 1119 1403 
Q 1119 906 1312 657 
Q 1506 409 1894 409 
Q 2359 409 2629 706 
Q 2900 1003 2900 1516 
L 2900 3500 
L 3475 3500 
L 3475 0 
L 2900 0 
L 2900 538 
Q 2691 219 2414 64 
Q 2138 -91 1772 -91 
Q 1169 -91 856 284 
Q 544 659 544 1381 
z
M 1991 3584 
L 1991 3584 
z
" transform="scale(0.015625)"/>
      </defs>
      <use xlink:href="#DejaVuSans-45"/>
      <use xlink:href="#DejaVuSans-64" x="63.183594"/>
      <use xlink:href="#DejaVuSans-64" x="126.660156"/>
      <use xlink:href="#DejaVuSans-79" x="190.136719"/>
      <use xlink:href="#DejaVuSans-20" x="249.316406"/>
      <use xlink:href="#DejaVuSans-41" x="281.103516"/>
      <use xlink:href="#DejaVuSans-6d" x="349.511719"/>
      <use xlink:href="#DejaVuSans-70" x="446.923828"/>
      <use xlink:href="#DejaVuSans-6c" x="510.400391"/>
      <use xlink:href="#DejaVuSans-69" x="538.183594"/>
      <use xlink:href="#DejaVuSans-74" x="565.966797"/>
      <use xlink:href="#DejaVuSans-75" x="605.175781"/>
      <use xlink:href="#DejaVuSans-64" x="668.554688"/>
      <use xlink:href="#DejaVuSans-65" x="732.03125"/>
      <use xlink:href="#DejaVuSans-20" x="793.554688"/>
      <use xlink:href="#DejaVuSans-5b" x="825.341797"/>
      <use xlink:href="#DejaVuSans-6d" x="864.355469"/>
      <use xlink:href="#DejaVuSans-5d" x="961.767578"/>
     </g>
    </g>
   </g>
   <g id="line2d_17">
    <path d="M 61.193665 197.069428 
L 63.44821 195.78489 
L 79.230028 186.793126 
L 79.230028 186.793126 
L 79.230028 186.793126 
L 79.230028 186.793126 
L 81.484574 185.508588 
L 81.484574 185.508588 
L 81.484574 185.508588 
L 81.484574 185.508588 
L 81.484574 185.508588 
L 83.739119 184.224051 
L 85.993665 182.939513 
L 85.993665 182.939513 
L 85.993665 182.939513 
L 88.24821 181.654975 
L 90.502756 180.370438 
L 92.757301 179.0859 
L 92.757301 179.0859 
L 95.011847 177.801362 
L 95.011847 177.801362 
L 95.011847 177.801362 
L 95.011847 177.801362 
L 97.266392 176.516825 
L 97.266392 176.516825 
L 99.520938 175.232287 
L 99.520938 175.232287 
L 99.520938 175.232287 
L 99.520938 175.232287 
L 99.520938 175.232287 
L 101.775483 173.947749 
L 101.775483 173.947749 
L 106.284574 171.378674 
L 106.284574 171.378674 
L 110.793665 168.809598 
L 115.302756 166.240523 
L 117.557301 164.955985 
L 122.066392 162.38691 
L 124.320938 161.102372 
L 126.575483 159.817835 
L 126.575483 159.817835 
L 131.084574 157.248759 
L 133.339119 155.964221 
L 133.339119 155.964221 
L 137.84821 153.395146 
L 140.102756 152.110608 
L 140.102756 152.110608 
L 142.357301 150.826071 
L 144.611847 149.541533 
L 149.120938 146.972458 
L 151.375483 145.68792 
L 158.139119 141.834307 
L 162.64821 139.265231 
L 164.902756 137.980694 
L 169.411847 135.411618 
L 182.939119 127.704392 
L 194.211847 121.281704 
L 203.230028 116.143553 
L 212.24821 111.005402 
L 246.066392 91.737337 
L 275.375483 75.038347 
L 304.684574 58.339357 
L 327.230028 45.49398 
L 345.266392 35.217678 
L 385.84821 12.096 
" clip-path="url(#pf92152b3ff)" style="fill: none; stroke: #000080; stroke-width: 1.5; stroke-linecap: square"/>
   </g>
   <g id="line2d_18">
    <path d="M 61.193665 243.487492 
L 63.44821 237.257565 
L 79.230028 203.728636 
L 79.230028 203.728636 
L 79.230028 203.728636 
L 79.230028 203.728636 
L 81.484574 199.931174 
L 81.484574 199.931174 
L 81.484574 199.931174 
L 81.484574 199.931174 
L 81.484574 199.931174 
L 83.739119 196.310403 
L 85.993665 192.850609 
L 85.993665 192.850609 
L 85.993665 192.850609 
L 88.24821 189.538086 
L 90.502756 186.360807 
L 92.757301 183.308159 
L 92.757301 183.308159 
L 95.011847 180.370734 
L 95.011847 180.370734 
L 95.011847 180.370734 
L 95.011847 180.370734 
L 97.266392 177.540147 
L 97.266392 177.540147 
L 99.520938 174.808901 
L 99.520938 174.808901 
L 99.520938 174.808901 
L 99.520938 174.808901 
L 99.520938 174.808901 
L 101.775483 172.170257 
L 101.775483 172.170257 
L 106.284574 167.14706 
L 106.284574 167.14706 
L 110.793665 162.428492 
L 115.302756 157.979707 
L 117.557301 155.847175 
L 122.066392 151.74978 
L 124.320938 149.77923 
L 126.575483 147.857342 
L 126.575483 147.857342 
L 131.084574 144.15033 
L 133.339119 142.360997 
L 133.339119 142.360997 
L 137.84821 138.901203 
L 140.102756 137.227321 
L 140.102756 137.227321 
L 142.357301 135.588681 
L 144.611847 133.983829 
L 149.120938 130.870112 
L 151.375483 129.358753 
L 158.139119 124.993168 
L 162.64821 122.213138 
L 164.902756 120.859495 
L 169.411847 118.220851 
L 182.939119 110.802618 
L 194.211847 105.118886 
L 203.230028 100.853022 
L 212.24821 96.808863 
L 246.066392 83.277915 
L 275.375483 73.195951 
L 304.684574 64.271445 
L 327.230028 58.041518 
L 345.266392 53.393418 
L 385.84821 43.850968 
" clip-path="url(#pf92152b3ff)" style="fill: none; stroke: #ff0000; stroke-width: 1.5; stroke-linecap: square"/>
   </g>
   <g id="patch_3">
    <path d="M 44.960938 266.112 
L 44.960938 -0 
" style="fill: none; stroke: #000000; stroke-width: 0.8; stroke-linejoin: miter; stroke-linecap: square"/>
   </g>
   <g id="patch_4">
    <path d="M 402.080938 266.112 
L 402.080938 -0 
" style="fill: none; stroke: #000000; stroke-width: 0.8; stroke-linejoin: miter; stroke-linecap: square"/>
   </g>
   <g id="patch_5">
    <path d="M 44.960938 266.112 
L 402.080938 266.112 
" style="fill: none; stroke: #000000; stroke-width: 0.8; stroke-linejoin: miter; stroke-linecap: square"/>
   </g>
   <g id="patch_6">
    <path d="M 44.960938 -0 
L 402.080938 -0 
" style="fill: none; stroke: #000000; stroke-width: 0.8; stroke-linejoin: miter; stroke-linecap: square"/>
   </g>
   <g id="legend_1">
    <g id="patch_7">
     <path d="M 51.960938 37.35625 
L 191.7 37.35625 
Q 193.7 37.35625 193.7 35.35625 
L 193.7 7 
Q 193.7 5 191.7 5 
L 51.960938 5 
Q 49.960938 5 49.960938 7 
L 49.960938 35.35625 
Q 49.960938 37.35625 51.960938 37.35625 
z
" style="fill: #ffffff; opacity: 0.8; stroke: #cccccc; stroke-linejoin: miter"/>
    </g>
    <g id="line2d_19">
     <path d="M 53.960938 13.098437 
L 63.960938 13.098437 
L 73.960938 13.098437 
" style="fill: none; stroke: #000080; stroke-width: 1.5; stroke-linecap: square"/>
    </g>
    <g id="text_19">
     <!-- Linear Trendline -->
     <g transform="translate(81.960938 16.598437)scale(0.1 -0.1)">
      <defs>
       <path id="DejaVuSans-4c" d="M 628 4666 
L 1259 4666 
L 1259 531 
L 3531 531 
L 3531 0 
L 628 0 
L 628 4666 
z
" transform="scale(0.015625)"/>
       <path id="DejaVuSans-6e" d="M 3513 2113 
L 3513 0 
L 2938 0 
L 2938 2094 
Q 2938 2591 2744 2837 
Q 2550 3084 2163 3084 
Q 1697 3084 1428 2787 
Q 1159 2491 1159 1978 
L 1159 0 
L 581 0 
L 581 3500 
L 1159 3500 
L 1159 2956 
Q 1366 3272 1645 3428 
Q 1925 3584 2291 3584 
Q 2894 3584 3203 3211 
Q 3513 2838 3513 2113 
z
" transform="scale(0.015625)"/>
       <path id="DejaVuSans-54" d="M -19 4666 
L 3928 4666 
L 3928 4134 
L 2272 4134 
L 2272 0 
L 1638 0 
L 1638 4134 
L -19 4134 
L -19 4666 
z
" transform="scale(0.015625)"/>
      </defs>
      <use xlink:href="#DejaVuSans-4c"/>
      <use xlink:href="#DejaVuSans-69" x="55.712891"/>
      <use xlink:href="#DejaVuSans-6e" x="83.496094"/>
      <use xlink:href="#DejaVuSans-65" x="146.875"/>
      <use xlink:href="#DejaVuSans-61" x="208.398438"/>
      <use xlink:href="#DejaVuSans-72" x="269.677734"/>
      <use xlink:href="#DejaVuSans-20" x="310.791016"/>
      <use xlink:href="#DejaVuSans-54" x="342.578125"/>
      <use xlink:href="#DejaVuSans-72" x="388.912109"/>
      <use xlink:href="#DejaVuSans-65" x="427.775391"/>
      <use xlink:href="#DejaVuSans-6e" x="489.298828"/>
      <use xlink:href="#DejaVuSans-64" x="552.677734"/>
      <use xlink:href="#DejaVuSans-6c" x="616.154297"/>
      <use xlink:href="#DejaVuSans-69" x="643.9375"/>
      <use xlink:href="#DejaVuSans-6e" x="671.720703"/>
      <use xlink:href="#DejaVuSans-65" x="735.099609"/>
     </g>
    </g>
    <g id="line2d_20">
     <path d="M 53.960938 27.776562 
L 63.960938 27.776562 
L 73.960938 27.776562 
" style="fill: none; stroke: #ff0000; stroke-width: 1.5; stroke-linecap: square"/>
    </g>
    <g id="text_20">
     <!-- Logarithmic Trendline -->
     <g transform="translate(81.960938 31.276562)scale(0.1 -0.1)">
      <defs>
       <path id="DejaVuSans-6f" d="M 1959 3097 
Q 1497 3097 1228 2736 
Q 959 2375 959 1747 
Q 959 1119 1226 758 
Q 1494 397 1959 397 
Q 2419 397 2687 759 
Q 2956 1122 2956 1747 
Q 2956 2369 2687 2733 
Q 2419 3097 1959 3097 
z
M 1959 3584 
Q 2709 3584 3137 3096 
Q 3566 2609 3566 1747 
Q 3566 888 3137 398 
Q 2709 -91 1959 -91 
Q 1206 -91 779 398 
Q 353 888 353 1747 
Q 353 2609 779 3096 
Q 1206 3584 1959 3584 
z
" transform="scale(0.015625)"/>
       <path id="DejaVuSans-67" d="M 2906 1791 
Q 2906 2416 2648 2759 
Q 2391 3103 1925 3103 
Q 1463 3103 1205 2759 
Q 947 2416 947 1791 
Q 947 1169 1205 825 
Q 1463 481 1925 481 
Q 2391 481 2648 825 
Q 2906 1169 2906 1791 
z
M 3481 434 
Q 3481 -459 3084 -895 
Q 2688 -1331 1869 -1331 
Q 1566 -1331 1297 -1286 
Q 1028 -1241 775 -1147 
L 775 -588 
Q 1028 -725 1275 -790 
Q 1522 -856 1778 -856 
Q 2344 -856 2625 -561 
Q 2906 -266 2906 331 
L 2906 616 
Q 2728 306 2450 153 
Q 2172 0 1784 0 
Q 1141 0 747 490 
Q 353 981 353 1791 
Q 353 2603 747 3093 
Q 1141 3584 1784 3584 
Q 2172 3584 2450 3431 
Q 2728 3278 2906 2969 
L 2906 3500 
L 3481 3500 
L 3481 434 
z
" transform="scale(0.015625)"/>
       <path id="DejaVuSans-68" d="M 3513 2113 
L 3513 0 
L 2938 0 
L 2938 2094 
Q 2938 2591 2744 2837 
Q 2550 3084 2163 3084 
Q 1697 3084 1428 2787 
Q 1159 2491 1159 1978 
L 1159 0 
L 581 0 
L 581 4863 
L 1159 4863 
L 1159 2956 
Q 1366 3272 1645 3428 
Q 1925 3584 2291 3584 
Q 2894 3584 3203 3211 
Q 3513 2838 3513 2113 
z
" transform="scale(0.015625)"/>
       <path id="DejaVuSans-63" d="M 3122 3366 
L 3122 2828 
Q 2878 2963 2633 3030 
Q 2388 3097 2138 3097 
Q 1578 3097 1268 2742 
Q 959 2388 959 1747 
Q 959 1106 1268 751 
Q 1578 397 2138 397 
Q 2388 397 2633 464 
Q 2878 531 3122 666 
L 3122 134 
Q 2881 22 2623 -34 
Q 2366 -91 2075 -91 
Q 1284 -91 818 406 
Q 353 903 353 1747 
Q 353 2603 823 3093 
Q 1294 3584 2113 3584 
Q 2378 3584 2631 3529 
Q 2884 3475 3122 3366 
z
" transform="scale(0.015625)"/>
      </defs>
      <use xlink:href="#DejaVuSans-4c"/>
      <use xlink:href="#DejaVuSans-6f" x="53.962891"/>
      <use xlink:href="#DejaVuSans-67" x="115.144531"/>
      <use xlink:href="#DejaVuSans-61" x="178.621094"/>
      <use xlink:href="#DejaVuSans-72" x="239.900391"/>
      <use xlink:href="#DejaVuSans-69" x="281.013672"/>
      <use xlink:href="#DejaVuSans-74" x="308.796875"/>
      <use xlink:href="#DejaVuSans-68" x="348.005859"/>
      <use xlink:href="#DejaVuSans-6d" x="411.384766"/>
      <use xlink:href="#DejaVuSans-69" x="508.796875"/>
      <use xlink:href="#DejaVuSans-63" x="536.580078"/>
      <use xlink:href="#DejaVuSans-20" x="591.560547"/>
      <use xlink:href="#DejaVuSans-54" x="623.347656"/>
      <use xlink:href="#DejaVuSans-72" x="669.681641"/>
      <use xlink:href="#DejaVuSans-65" x="708.544922"/>
      <use xlink:href="#DejaVuSans-6e" x="770.068359"/>
      <use xlink:href="#DejaVuSans-64" x="833.447266"/>
      <use xlink:href="#DejaVuSans-6c" x="896.923828"/>
      <use xlink:href="#DejaVuSans-69" x="924.707031"/>
      <use xlink:href="#DejaVuSans-6e" x="952.490234"/>
      <use xlink:href="#DejaVuSans-65" x="1015.869141"/>
     </g>
    </g>
   </g>
  </g>
 </g>
 <defs>
  <clipPath id="pf92152b3ff">
   <rect x="44.960938" y="-0" width="357.12" height="266.112"/>
  </clipPath>
 </defs>
</svg>
