<?xml version="1.0" encoding="utf-8" standalone="no"?>
<!DOCTYPE svg PUBLIC "-//W3C//DTD SVG 1.1//EN"
  "http://www.w3.org/Graphics/SVG/1.1/DTD/svg11.dtd">
<svg xmlns:xlink="http://www.w3.org/1999/xlink" width="390.523125pt" height="275.004758pt" viewBox="0 0 390.523125 275.004758" xmlns="http://www.w3.org/2000/svg" version="1.1">
 <metadata>
  <rdf:RDF xmlns:dc="http://purl.org/dc/elements/1.1/" xmlns:cc="http://creativecommons.org/ns#" xmlns:rdf="http://www.w3.org/1999/02/22-rdf-syntax-ns#">
   <cc:Work>
    <dc:type rdf:resource="http://purl.org/dc/dcmitype/StillImage"/>
    <dc:date>2023-05-16T15:33:23.693547</dc:date>
    <dc:format>image/svg+xml</dc:format>
    <dc:creator>
     <cc:Agent>
      <dc:title>Matplotlib v3.5.2, https://matplotlib.org/</dc:title>
     </cc:Agent>
    </dc:creator>
   </cc:Work>
  </rdf:RDF>
 </metadata>
 <defs>
  <style type="text/css">*{stroke-linejoin: round; stroke-linecap: butt}</style>
 </defs>
 <g id="figure_1">
  <g id="patch_1">
   <path d="M 0 275.004758 
L 390.523125 275.004758 
L 390.523125 0 
L 0 0 
z
" style="fill: #ffffff"/>
  </g>
  <g id="axes_1">
   <g id="patch_2">
    <path d="M 33.403125 269.125852 
L 390.523125 269.125852 
L 390.523125 3.013852 
L 33.403125 3.013852 
z
" style="fill: #ffffff"/>
   </g>
   <g id="matplotlib.axis_1"/>
   <g id="matplotlib.axis_2">
    <g id="ytick_1">
     <g id="line2d_1">
      <path d="M 33.403125 269.125852 
L 390.523125 269.125852 
" clip-path="url(#p129b875841)" style="fill: none; stroke: #b0b0b0; stroke-width: 0.8; stroke-linecap: square"/>
     </g>
     <g id="line2d_2">
      <defs>
       <path id="meb2c7cfeae" d="M 0 0 
L -3.5 0 
" style="stroke: #000000; stroke-width: 0.8"/>
      </defs>
      <g>
       <use xlink:href="#meb2c7cfeae" x="33.403125" y="269.125852" style="stroke: #000000; stroke-width: 0.8"/>
      </g>
     </g>
     <g id="text_1">
      <!-- 0 -->
      <g transform="translate(20.040625 272.925071)scale(0.1 -0.1)">
       <defs>
        <path id="DejaVuSans-30" d="M 2034 4250 
Q 1547 4250 1301 3770 
Q 1056 3291 1056 2328 
Q 1056 1369 1301 889 
Q 1547 409 2034 409 
Q 2525 409 2770 889 
Q 3016 1369 3016 2328 
Q 3016 3291 2770 3770 
Q 2525 4250 2034 4250 
z
M 2034 4750 
Q 2819 4750 3233 4129 
Q 3647 3509 3647 2328 
Q 3647 1150 3233 529 
Q 2819 -91 2034 -91 
Q 1250 -91 836 529 
Q 422 1150 422 2328 
Q 422 3509 836 4129 
Q 1250 4750 2034 4750 
z
" transform="scale(0.015625)"/>
       </defs>
       <use xlink:href="#DejaVuSans-30"/>
      </g>
     </g>
    </g>
    <g id="ytick_2">
     <g id="line2d_3">
      <path d="M 33.403125 216.060525 
L 390.523125 216.060525 
" clip-path="url(#p129b875841)" style="fill: none; stroke: #b0b0b0; stroke-width: 0.8; stroke-linecap: square"/>
     </g>
     <g id="line2d_4">
      <g>
       <use xlink:href="#meb2c7cfeae" x="33.403125" y="216.060525" style="stroke: #000000; stroke-width: 0.8"/>
      </g>
     </g>
     <g id="text_2">
      <!-- 5 -->
      <g transform="translate(20.040625 219.859744)scale(0.1 -0.1)">
       <defs>
        <path id="DejaVuSans-35" d="M 691 4666 
L 3169 4666 
L 3169 4134 
L 1269 4134 
L 1269 2991 
Q 1406 3038 1543 3061 
Q 1681 3084 1819 3084 
Q 2600 3084 3056 2656 
Q 3513 2228 3513 1497 
Q 3513 744 3044 326 
Q 2575 -91 1722 -91 
Q 1428 -91 1123 -41 
Q 819 9 494 109 
L 494 744 
Q 775 591 1075 516 
Q 1375 441 1709 441 
Q 2250 441 2565 725 
Q 2881 1009 2881 1497 
Q 2881 1984 2565 2268 
Q 2250 2553 1709 2553 
Q 1456 2553 1204 2497 
Q 953 2441 691 2322 
L 691 4666 
z
" transform="scale(0.015625)"/>
       </defs>
       <use xlink:href="#DejaVuSans-35"/>
      </g>
     </g>
    </g>
    <g id="ytick_3">
     <g id="line2d_5">
      <path d="M 33.403125 162.995199 
L 390.523125 162.995199 
" clip-path="url(#p129b875841)" style="fill: none; stroke: #b0b0b0; stroke-width: 0.8; stroke-linecap: square"/>
     </g>
     <g id="line2d_6">
      <g>
       <use xlink:href="#meb2c7cfeae" x="33.403125" y="162.995199" style="stroke: #000000; stroke-width: 0.8"/>
      </g>
     </g>
     <g id="text_3">
      <!-- 10 -->
      <g transform="translate(13.678125 166.794417)scale(0.1 -0.1)">
       <defs>
        <path id="DejaVuSans-31" d="M 794 531 
L 1825 531 
L 1825 4091 
L 703 3866 
L 703 4441 
L 1819 4666 
L 2450 4666 
L 2450 531 
L 3481 531 
L 3481 0 
L 794 0 
L 794 531 
z
" transform="scale(0.015625)"/>
       </defs>
       <use xlink:href="#DejaVuSans-31"/>
       <use xlink:href="#DejaVuSans-30" x="63.623047"/>
      </g>
     </g>
    </g>
    <g id="ytick_4">
     <g id="line2d_7">
      <path d="M 33.403125 109.929872 
L 390.523125 109.929872 
" clip-path="url(#p129b875841)" style="fill: none; stroke: #b0b0b0; stroke-width: 0.8; stroke-linecap: square"/>
     </g>
     <g id="line2d_8">
      <g>
       <use xlink:href="#meb2c7cfeae" x="33.403125" y="109.929872" style="stroke: #000000; stroke-width: 0.8"/>
      </g>
     </g>
     <g id="text_4">
      <!-- 15 -->
      <g transform="translate(13.678125 113.729091)scale(0.1 -0.1)">
       <use xlink:href="#DejaVuSans-31"/>
       <use xlink:href="#DejaVuSans-35" x="63.623047"/>
      </g>
     </g>
    </g>
    <g id="ytick_5">
     <g id="line2d_9">
      <path d="M 33.403125 56.864545 
L 390.523125 56.864545 
" clip-path="url(#p129b875841)" style="fill: none; stroke: #b0b0b0; stroke-width: 0.8; stroke-linecap: square"/>
     </g>
     <g id="line2d_10">
      <g>
       <use xlink:href="#meb2c7cfeae" x="33.403125" y="56.864545" style="stroke: #000000; stroke-width: 0.8"/>
      </g>
     </g>
     <g id="text_5">
      <!-- 20 -->
      <g transform="translate(13.678125 60.663764)scale(0.1 -0.1)">
       <defs>
        <path id="DejaVuSans-32" d="M 1228 531 
L 3431 531 
L 3431 0 
L 469 0 
L 469 531 
Q 828 903 1448 1529 
Q 2069 2156 2228 2338 
Q 2531 2678 2651 2914 
Q 2772 3150 2772 3378 
Q 2772 3750 2511 3984 
Q 2250 4219 1831 4219 
Q 1534 4219 1204 4116 
Q 875 4013 500 3803 
L 500 4441 
Q 881 4594 1212 4672 
Q 1544 4750 1819 4750 
Q 2544 4750 2975 4387 
Q 3406 4025 3406 3419 
Q 3406 3131 3298 2873 
Q 3191 2616 2906 2266 
Q 2828 2175 2409 1742 
Q 1991 1309 1228 531 
z
" transform="scale(0.015625)"/>
       </defs>
       <use xlink:href="#DejaVuSans-32"/>
       <use xlink:href="#DejaVuSans-30" x="63.623047"/>
      </g>
     </g>
    </g>
    <g id="ytick_6">
     <g id="line2d_11">
      <path d="M 33.403125 3.799219 
L 390.523125 3.799219 
" clip-path="url(#p129b875841)" style="fill: none; stroke: #b0b0b0; stroke-width: 0.8; stroke-linecap: square"/>
     </g>
     <g id="line2d_12">
      <g>
       <use xlink:href="#meb2c7cfeae" x="33.403125" y="3.799219" style="stroke: #000000; stroke-width: 0.8"/>
      </g>
     </g>
     <g id="text_6">
      <!-- 25 -->
      <g transform="translate(13.678125 7.598438)scale(0.1 -0.1)">
       <use xlink:href="#DejaVuSans-32"/>
       <use xlink:href="#DejaVuSans-35" x="63.623047"/>
      </g>
     </g>
    </g>
    <g id="text_7">
     <!-- Eddy Area [10^3 * km^2] -->
     <g transform="translate(7.598437 201.669071)rotate(-90)scale(0.1 -0.1)">
      <defs>
       <path id="DejaVuSans-45" d="M 628 4666 
L 3578 4666 
L 3578 4134 
L 1259 4134 
L 1259 2753 
L 3481 2753 
L 3481 2222 
L 1259 2222 
L 1259 531 
L 3634 531 
L 3634 0 
L 628 0 
L 628 4666 
z
" transform="scale(0.015625)"/>
       <path id="DejaVuSans-64" d="M 2906 2969 
L 2906 4863 
L 3481 4863 
L 3481 0 
L 2906 0 
L 2906 525 
Q 2725 213 2448 61 
Q 2172 -91 1784 -91 
Q 1150 -91 751 415 
Q 353 922 353 1747 
Q 353 2572 751 3078 
Q 1150 3584 1784 3584 
Q 2172 3584 2448 3432 
Q 2725 3281 2906 2969 
z
M 947 1747 
Q 947 1113 1208 752 
Q 1469 391 1925 391 
Q 2381 391 2643 752 
Q 2906 1113 2906 1747 
Q 2906 2381 2643 2742 
Q 2381 3103 1925 3103 
Q 1469 3103 1208 2742 
Q 947 2381 947 1747 
z
" transform="scale(0.015625)"/>
       <path id="DejaVuSans-79" d="M 2059 -325 
Q 1816 -950 1584 -1140 
Q 1353 -1331 966 -1331 
L 506 -1331 
L 506 -850 
L 844 -850 
Q 1081 -850 1212 -737 
Q 1344 -625 1503 -206 
L 1606 56 
L 191 3500 
L 800 3500 
L 1894 763 
L 2988 3500 
L 3597 3500 
L 2059 -325 
z
" transform="scale(0.015625)"/>
       <path id="DejaVuSans-20" transform="scale(0.015625)"/>
       <path id="DejaVuSans-41" d="M 2188 4044 
L 1331 1722 
L 3047 1722 
L 2188 4044 
z
M 1831 4666 
L 2547 4666 
L 4325 0 
L 3669 0 
L 3244 1197 
L 1141 1197 
L 716 0 
L 50 0 
L 1831 4666 
z
" transform="scale(0.015625)"/>
       <path id="DejaVuSans-72" d="M 2631 2963 
Q 2534 3019 2420 3045 
Q 2306 3072 2169 3072 
Q 1681 3072 1420 2755 
Q 1159 2438 1159 1844 
L 1159 0 
L 581 0 
L 581 3500 
L 1159 3500 
L 1159 2956 
Q 1341 3275 1631 3429 
Q 1922 3584 2338 3584 
Q 2397 3584 2469 3576 
Q 2541 3569 2628 3553 
L 2631 2963 
z
" transform="scale(0.015625)"/>
       <path id="DejaVuSans-65" d="M 3597 1894 
L 3597 1613 
L 953 1613 
Q 991 1019 1311 708 
Q 1631 397 2203 397 
Q 2534 397 2845 478 
Q 3156 559 3463 722 
L 3463 178 
Q 3153 47 2828 -22 
Q 2503 -91 2169 -91 
Q 1331 -91 842 396 
Q 353 884 353 1716 
Q 353 2575 817 3079 
Q 1281 3584 2069 3584 
Q 2775 3584 3186 3129 
Q 3597 2675 3597 1894 
z
M 3022 2063 
Q 3016 2534 2758 2815 
Q 2500 3097 2075 3097 
Q 1594 3097 1305 2825 
Q 1016 2553 972 2059 
L 3022 2063 
z
" transform="scale(0.015625)"/>
       <path id="DejaVuSans-61" d="M 2194 1759 
Q 1497 1759 1228 1600 
Q 959 1441 959 1056 
Q 959 750 1161 570 
Q 1363 391 1709 391 
Q 2188 391 2477 730 
Q 2766 1069 2766 1631 
L 2766 1759 
L 2194 1759 
z
M 3341 1997 
L 3341 0 
L 2766 0 
L 2766 531 
Q 2569 213 2275 61 
Q 1981 -91 1556 -91 
Q 1019 -91 701 211 
Q 384 513 384 1019 
Q 384 1609 779 1909 
Q 1175 2209 1959 2209 
L 2766 2209 
L 2766 2266 
Q 2766 2663 2505 2880 
Q 2244 3097 1772 3097 
Q 1472 3097 1187 3025 
Q 903 2953 641 2809 
L 641 3341 
Q 956 3463 1253 3523 
Q 1550 3584 1831 3584 
Q 2591 3584 2966 3190 
Q 3341 2797 3341 1997 
z
" transform="scale(0.015625)"/>
       <path id="DejaVuSans-5b" d="M 550 4863 
L 1875 4863 
L 1875 4416 
L 1125 4416 
L 1125 -397 
L 1875 -397 
L 1875 -844 
L 550 -844 
L 550 4863 
z
" transform="scale(0.015625)"/>
       <path id="DejaVuSans-5e" d="M 2988 4666 
L 4684 2925 
L 4056 2925 
L 2681 4159 
L 1306 2925 
L 678 2925 
L 2375 4666 
L 2988 4666 
z
" transform="scale(0.015625)"/>
       <path id="DejaVuSans-33" d="M 2597 2516 
Q 3050 2419 3304 2112 
Q 3559 1806 3559 1356 
Q 3559 666 3084 287 
Q 2609 -91 1734 -91 
Q 1441 -91 1130 -33 
Q 819 25 488 141 
L 488 750 
Q 750 597 1062 519 
Q 1375 441 1716 441 
Q 2309 441 2620 675 
Q 2931 909 2931 1356 
Q 2931 1769 2642 2001 
Q 2353 2234 1838 2234 
L 1294 2234 
L 1294 2753 
L 1863 2753 
Q 2328 2753 2575 2939 
Q 2822 3125 2822 3475 
Q 2822 3834 2567 4026 
Q 2313 4219 1838 4219 
Q 1578 4219 1281 4162 
Q 984 4106 628 3988 
L 628 4550 
Q 988 4650 1302 4700 
Q 1616 4750 1894 4750 
Q 2613 4750 3031 4423 
Q 3450 4097 3450 3541 
Q 3450 3153 3228 2886 
Q 3006 2619 2597 2516 
z
" transform="scale(0.015625)"/>
       <path id="DejaVuSans-2a" d="M 3009 3897 
L 1888 3291 
L 3009 2681 
L 2828 2375 
L 1778 3009 
L 1778 1831 
L 1422 1831 
L 1422 3009 
L 372 2375 
L 191 2681 
L 1313 3291 
L 191 3897 
L 372 4206 
L 1422 3572 
L 1422 4750 
L 1778 4750 
L 1778 3572 
L 2828 4206 
L 3009 3897 
z
" transform="scale(0.015625)"/>
       <path id="DejaVuSans-6b" d="M 581 4863 
L 1159 4863 
L 1159 1991 
L 2875 3500 
L 3609 3500 
L 1753 1863 
L 3688 0 
L 2938 0 
L 1159 1709 
L 1159 0 
L 581 0 
L 581 4863 
z
" transform="scale(0.015625)"/>
       <path id="DejaVuSans-6d" d="M 3328 2828 
Q 3544 3216 3844 3400 
Q 4144 3584 4550 3584 
Q 5097 3584 5394 3201 
Q 5691 2819 5691 2113 
L 5691 0 
L 5113 0 
L 5113 2094 
Q 5113 2597 4934 2840 
Q 4756 3084 4391 3084 
Q 3944 3084 3684 2787 
Q 3425 2491 3425 1978 
L 3425 0 
L 2847 0 
L 2847 2094 
Q 2847 2600 2669 2842 
Q 2491 3084 2119 3084 
Q 1678 3084 1418 2786 
Q 1159 2488 1159 1978 
L 1159 0 
L 581 0 
L 581 3500 
L 1159 3500 
L 1159 2956 
Q 1356 3278 1631 3431 
Q 1906 3584 2284 3584 
Q 2666 3584 2933 3390 
Q 3200 3197 3328 2828 
z
" transform="scale(0.015625)"/>
       <path id="DejaVuSans-5d" d="M 1947 4863 
L 1947 -844 
L 622 -844 
L 622 -397 
L 1369 -397 
L 1369 4416 
L 622 4416 
L 622 4863 
L 1947 4863 
z
" transform="scale(0.015625)"/>
      </defs>
      <use xlink:href="#DejaVuSans-45"/>
      <use xlink:href="#DejaVuSans-64" x="63.183594"/>
      <use xlink:href="#DejaVuSans-64" x="126.660156"/>
      <use xlink:href="#DejaVuSans-79" x="190.136719"/>
      <use xlink:href="#DejaVuSans-20" x="249.316406"/>
      <use xlink:href="#DejaVuSans-41" x="281.103516"/>
      <use xlink:href="#DejaVuSans-72" x="349.511719"/>
      <use xlink:href="#DejaVuSans-65" x="388.375"/>
      <use xlink:href="#DejaVuSans-61" x="449.898438"/>
      <use xlink:href="#DejaVuSans-20" x="511.177734"/>
      <use xlink:href="#DejaVuSans-5b" x="542.964844"/>
      <use xlink:href="#DejaVuSans-31" x="581.978516"/>
      <use xlink:href="#DejaVuSans-30" x="645.601562"/>
      <use xlink:href="#DejaVuSans-5e" x="709.224609"/>
      <use xlink:href="#DejaVuSans-33" x="793.013672"/>
      <use xlink:href="#DejaVuSans-20" x="856.636719"/>
      <use xlink:href="#DejaVuSans-2a" x="888.423828"/>
      <use xlink:href="#DejaVuSans-20" x="938.423828"/>
      <use xlink:href="#DejaVuSans-6b" x="970.210938"/>
      <use xlink:href="#DejaVuSans-6d" x="1028.121094"/>
      <use xlink:href="#DejaVuSans-5e" x="1125.533203"/>
      <use xlink:href="#DejaVuSans-32" x="1209.322266"/>
      <use xlink:href="#DejaVuSans-5d" x="1272.945312"/>
     </g>
    </g>
   </g>
   <g id="patch_3">
    <path d="M 49.635852 269.125852 
L 54.290398 269.125852 
L 54.290398 249.38555 
L 49.635852 249.38555 
z
" clip-path="url(#p129b875841)" style="fill: #000080"/>
   </g>
   <g id="patch_4">
    <path d="M 55.454034 269.125852 
L 60.10858 269.125852 
L 60.10858 244.185148 
L 55.454034 244.185148 
z
" clip-path="url(#p129b875841)" style="fill: #000080"/>
   </g>
   <g id="patch_5">
    <path d="M 61.272216 269.125852 
L 65.926761 269.125852 
L 65.926761 244.185148 
L 61.272216 244.185148 
z
" clip-path="url(#p129b875841)" style="fill: #ff0000"/>
   </g>
   <g id="patch_6">
    <path d="M 67.090398 269.125852 
L 71.744943 269.125852 
L 71.744943 242.911581 
L 67.090398 242.911581 
z
" clip-path="url(#p129b875841)" style="fill: #000080"/>
   </g>
   <g id="patch_7">
    <path d="M 72.90858 269.125852 
L 77.563125 269.125852 
L 77.563125 241.531882 
L 72.90858 241.531882 
z
" clip-path="url(#p129b875841)" style="fill: #000080"/>
   </g>
   <g id="patch_8">
    <path d="M 78.726761 269.125852 
L 83.381307 269.125852 
L 83.381307 240.258314 
L 78.726761 240.258314 
z
" clip-path="url(#p129b875841)" style="fill: #000080"/>
   </g>
   <g id="patch_9">
    <path d="M 84.544943 269.125852 
L 89.199489 269.125852 
L 89.199489 240.258314 
L 84.544943 240.258314 
z
" clip-path="url(#p129b875841)" style="fill: #000080"/>
   </g>
   <g id="patch_10">
    <path d="M 90.363125 269.125852 
L 95.01767 269.125852 
L 95.01767 240.258314 
L 90.363125 240.258314 
z
" clip-path="url(#p129b875841)" style="fill: #ff0000"/>
   </g>
   <g id="patch_11">
    <path d="M 96.181307 269.125852 
L 100.835852 269.125852 
L 100.835852 238.878616 
L 96.181307 238.878616 
z
" clip-path="url(#p129b875841)" style="fill: #000080"/>
   </g>
   <g id="patch_12">
    <path d="M 101.999489 269.125852 
L 106.654034 269.125852 
L 106.654034 238.878616 
L 101.999489 238.878616 
z
" clip-path="url(#p129b875841)" style="fill: #ff0000"/>
   </g>
   <g id="patch_13">
    <path d="M 107.81767 269.125852 
L 112.472216 269.125852 
L 112.472216 237.605048 
L 107.81767 237.605048 
z
" clip-path="url(#p129b875841)" style="fill: #000080"/>
   </g>
   <g id="patch_14">
    <path d="M 113.635852 269.125852 
L 118.290398 269.125852 
L 118.290398 236.33148 
L 113.635852 236.33148 
z
" clip-path="url(#p129b875841)" style="fill: #000080"/>
   </g>
   <g id="patch_15">
    <path d="M 119.454034 269.125852 
L 124.10858 269.125852 
L 124.10858 234.951782 
L 119.454034 234.951782 
z
" clip-path="url(#p129b875841)" style="fill: #000080"/>
   </g>
   <g id="patch_16">
    <path d="M 125.272216 269.125852 
L 129.926761 269.125852 
L 129.926761 234.951782 
L 125.272216 234.951782 
z
" clip-path="url(#p129b875841)" style="fill: #ff0000"/>
   </g>
   <g id="patch_17">
    <path d="M 131.090398 269.125852 
L 135.744943 269.125852 
L 135.744943 233.678214 
L 131.090398 233.678214 
z
" clip-path="url(#p129b875841)" style="fill: #000080"/>
   </g>
   <g id="patch_18">
    <path d="M 136.90858 269.125852 
L 141.563125 269.125852 
L 141.563125 233.678214 
L 136.90858 233.678214 
z
" clip-path="url(#p129b875841)" style="fill: #ff0000"/>
   </g>
   <g id="patch_19">
    <path d="M 142.726761 269.125852 
L 147.381307 269.125852 
L 147.381307 232.404646 
L 142.726761 232.404646 
z
" clip-path="url(#p129b875841)" style="fill: #000080"/>
   </g>
   <g id="patch_20">
    <path d="M 148.544943 269.125852 
L 153.199489 269.125852 
L 153.199489 231.024947 
L 148.544943 231.024947 
z
" clip-path="url(#p129b875841)" style="fill: #000080"/>
   </g>
   <g id="patch_21">
    <path d="M 154.363125 269.125852 
L 159.01767 269.125852 
L 159.01767 231.024947 
L 154.363125 231.024947 
z
" clip-path="url(#p129b875841)" style="fill: #ff0000"/>
   </g>
   <g id="patch_22">
    <path d="M 160.181307 269.125852 
L 164.835852 269.125852 
L 164.835852 229.75138 
L 160.181307 229.75138 
z
" clip-path="url(#p129b875841)" style="fill: #ff0000"/>
   </g>
   <g id="patch_23">
    <path d="M 165.999489 269.125852 
L 170.654034 269.125852 
L 170.654034 228.371681 
L 165.999489 228.371681 
z
" clip-path="url(#p129b875841)" style="fill: #000080"/>
   </g>
   <g id="patch_24">
    <path d="M 171.81767 269.125852 
L 176.472216 269.125852 
L 176.472216 227.098113 
L 171.81767 227.098113 
z
" clip-path="url(#p129b875841)" style="fill: #000080"/>
   </g>
   <g id="patch_25">
    <path d="M 177.635852 269.125852 
L 182.290398 269.125852 
L 182.290398 225.824545 
L 177.635852 225.824545 
z
" clip-path="url(#p129b875841)" style="fill: #ff0000"/>
   </g>
   <g id="patch_26">
    <path d="M 183.454034 269.125852 
L 188.10858 269.125852 
L 188.10858 225.824545 
L 183.454034 225.824545 
z
" clip-path="url(#p129b875841)" style="fill: #000080"/>
   </g>
   <g id="patch_27">
    <path d="M 189.272216 269.125852 
L 193.926761 269.125852 
L 193.926761 225.824545 
L 189.272216 225.824545 
z
" clip-path="url(#p129b875841)" style="fill: #ff0000"/>
   </g>
   <g id="patch_28">
    <path d="M 195.090398 269.125852 
L 199.744943 269.125852 
L 199.744943 224.444847 
L 195.090398 224.444847 
z
" clip-path="url(#p129b875841)" style="fill: #ff0000"/>
   </g>
   <g id="patch_29">
    <path d="M 200.90858 269.125852 
L 205.563125 269.125852 
L 205.563125 223.171279 
L 200.90858 223.171279 
z
" clip-path="url(#p129b875841)" style="fill: #ff0000"/>
   </g>
   <g id="patch_30">
    <path d="M 206.726761 269.125852 
L 211.381307 269.125852 
L 211.381307 221.897711 
L 206.726761 221.897711 
z
" clip-path="url(#p129b875841)" style="fill: #ff0000"/>
   </g>
   <g id="patch_31">
    <path d="M 212.544943 269.125852 
L 217.199489 269.125852 
L 217.199489 221.897711 
L 212.544943 221.897711 
z
" clip-path="url(#p129b875841)" style="fill: #ff0000"/>
   </g>
   <g id="patch_32">
    <path d="M 218.363125 269.125852 
L 223.01767 269.125852 
L 223.01767 217.970877 
L 218.363125 217.970877 
z
" clip-path="url(#p129b875841)" style="fill: #000080"/>
   </g>
   <g id="patch_33">
    <path d="M 224.181307 269.125852 
L 228.835852 269.125852 
L 228.835852 217.970877 
L 224.181307 217.970877 
z
" clip-path="url(#p129b875841)" style="fill: #000080"/>
   </g>
   <g id="patch_34">
    <path d="M 229.999489 269.125852 
L 234.654034 269.125852 
L 234.654034 215.317611 
L 229.999489 215.317611 
z
" clip-path="url(#p129b875841)" style="fill: #ff0000"/>
   </g>
   <g id="patch_35">
    <path d="M 235.81767 269.125852 
L 240.472216 269.125852 
L 240.472216 212.664344 
L 235.81767 212.664344 
z
" clip-path="url(#p129b875841)" style="fill: #ff0000"/>
   </g>
   <g id="patch_36">
    <path d="M 241.635852 269.125852 
L 246.290398 269.125852 
L 246.290398 212.664344 
L 241.635852 212.664344 
z
" clip-path="url(#p129b875841)" style="fill: #ff0000"/>
   </g>
   <g id="patch_37">
    <path d="M 247.454034 269.125852 
L 252.10858 269.125852 
L 252.10858 211.390777 
L 247.454034 211.390777 
z
" clip-path="url(#p129b875841)" style="fill: #ff0000"/>
   </g>
   <g id="patch_38">
    <path d="M 253.272216 269.125852 
L 257.926761 269.125852 
L 257.926761 210.011078 
L 253.272216 210.011078 
z
" clip-path="url(#p129b875841)" style="fill: #000080"/>
   </g>
   <g id="patch_39">
    <path d="M 259.090398 269.125852 
L 263.744943 269.125852 
L 263.744943 206.084244 
L 259.090398 206.084244 
z
" clip-path="url(#p129b875841)" style="fill: #ff0000"/>
   </g>
   <g id="patch_40">
    <path d="M 264.90858 269.125852 
L 269.563125 269.125852 
L 269.563125 202.15741 
L 264.90858 202.15741 
z
" clip-path="url(#p129b875841)" style="fill: #ff0000"/>
   </g>
   <g id="patch_41">
    <path d="M 270.726761 269.125852 
L 275.381307 269.125852 
L 275.381307 199.504143 
L 270.726761 199.504143 
z
" clip-path="url(#p129b875841)" style="fill: #000080"/>
   </g>
   <g id="patch_42">
    <path d="M 276.544943 269.125852 
L 281.199489 269.125852 
L 281.199489 199.504143 
L 276.544943 199.504143 
z
" clip-path="url(#p129b875841)" style="fill: #ff0000"/>
   </g>
   <g id="patch_43">
    <path d="M 282.363125 269.125852 
L 287.01767 269.125852 
L 287.01767 191.650475 
L 282.363125 191.650475 
z
" clip-path="url(#p129b875841)" style="fill: #000080"/>
   </g>
   <g id="patch_44">
    <path d="M 288.181307 269.125852 
L 292.835852 269.125852 
L 292.835852 182.523239 
L 288.181307 182.523239 
z
" clip-path="url(#p129b875841)" style="fill: #000080"/>
   </g>
   <g id="patch_45">
    <path d="M 293.999489 269.125852 
L 298.654034 269.125852 
L 298.654034 179.869973 
L 293.999489 179.869973 
z
" clip-path="url(#p129b875841)" style="fill: #000080"/>
   </g>
   <g id="patch_46">
    <path d="M 299.81767 269.125852 
L 304.472216 269.125852 
L 304.472216 179.869973 
L 299.81767 179.869973 
z
" clip-path="url(#p129b875841)" style="fill: #000080"/>
   </g>
   <g id="patch_47">
    <path d="M 305.635852 269.125852 
L 310.290398 269.125852 
L 310.290398 173.289872 
L 305.635852 173.289872 
z
" clip-path="url(#p129b875841)" style="fill: #000080"/>
   </g>
   <g id="patch_48">
    <path d="M 311.454034 269.125852 
L 316.10858 269.125852 
L 316.10858 172.016304 
L 311.454034 172.016304 
z
" clip-path="url(#p129b875841)" style="fill: #ff0000"/>
   </g>
   <g id="patch_49">
    <path d="M 317.272216 269.125852 
L 321.926761 269.125852 
L 321.926761 167.983339 
L 317.272216 167.983339 
z
" clip-path="url(#p129b875841)" style="fill: #ff0000"/>
   </g>
   <g id="patch_50">
    <path d="M 323.090398 269.125852 
L 327.744943 269.125852 
L 327.744943 165.436204 
L 323.090398 165.436204 
z
" clip-path="url(#p129b875841)" style="fill: #ff0000"/>
   </g>
   <g id="patch_51">
    <path d="M 328.90858 269.125852 
L 333.563125 269.125852 
L 333.563125 161.50937 
L 328.90858 161.50937 
z
" clip-path="url(#p129b875841)" style="fill: #ff0000"/>
   </g>
   <g id="patch_52">
    <path d="M 334.726761 269.125852 
L 339.381307 269.125852 
L 339.381307 145.695902 
L 334.726761 145.695902 
z
" clip-path="url(#p129b875841)" style="fill: #000080"/>
   </g>
   <g id="patch_53">
    <path d="M 340.544943 269.125852 
L 345.199489 269.125852 
L 345.199489 135.188967 
L 340.544943 135.188967 
z
" clip-path="url(#p129b875841)" style="fill: #000080"/>
   </g>
   <g id="patch_54">
    <path d="M 346.363125 269.125852 
L 351.01767 269.125852 
L 351.01767 85.30756 
L 346.363125 85.30756 
z
" clip-path="url(#p129b875841)" style="fill: #000080"/>
   </g>
   <g id="patch_55">
    <path d="M 352.181307 269.125852 
L 356.835852 269.125852 
L 356.835852 80.107158 
L 352.181307 80.107158 
z
" clip-path="url(#p129b875841)" style="fill: #000080"/>
   </g>
   <g id="patch_56">
    <path d="M 357.999489 269.125852 
L 362.654034 269.125852 
L 362.654034 73.527058 
L 357.999489 73.527058 
z
" clip-path="url(#p129b875841)" style="fill: #000080"/>
   </g>
   <g id="patch_57">
    <path d="M 363.81767 269.125852 
L 368.472216 269.125852 
L 368.472216 15.685852 
L 363.81767 15.685852 
z
" clip-path="url(#p129b875841)" style="fill: #ff0000"/>
   </g>
   <g id="patch_58">
    <path d="M 369.635852 269.125852 
L 374.290398 269.125852 
L 374.290398 15.685852 
L 369.635852 15.685852 
z
" clip-path="url(#p129b875841)" style="fill: #000080"/>
   </g>
   <g id="patch_59">
    <path d="M 33.403125 269.125852 
L 33.403125 3.013852 
" style="fill: none; stroke: #000000; stroke-width: 0.8; stroke-linejoin: miter; stroke-linecap: square"/>
   </g>
   <g id="patch_60">
    <path d="M 390.523125 269.125852 
L 390.523125 3.013852 
" style="fill: none; stroke: #000000; stroke-width: 0.8; stroke-linejoin: miter; stroke-linecap: square"/>
   </g>
   <g id="patch_61">
    <path d="M 33.403125 269.125852 
L 390.523125 269.125852 
" style="fill: none; stroke: #000000; stroke-width: 0.8; stroke-linejoin: miter; stroke-linecap: square"/>
   </g>
   <g id="patch_62">
    <path d="M 33.403125 3.013852 
L 390.523125 3.013852 
" style="fill: none; stroke: #000000; stroke-width: 0.8; stroke-linejoin: miter; stroke-linecap: square"/>
   </g>
  </g>
 </g>
 <defs>
  <clipPath id="p129b875841">
   <rect x="33.403125" y="3.013852" width="357.12" height="266.112"/>
  </clipPath>
 </defs>
</svg>
