<?xml version="1.0" encoding="utf-8" standalone="no"?>
<!DOCTYPE svg PUBLIC "-//W3C//DTD SVG 1.1//EN"
  "http://www.w3.org/Graphics/SVG/1.1/DTD/svg11.dtd">
<svg xmlns:xlink="http://www.w3.org/1999/xlink" width="408.443438pt" height="296.46825pt" viewBox="0 0 408.443438 296.46825" xmlns="http://www.w3.org/2000/svg" version="1.1">
 <metadata>
  <rdf:RDF xmlns:dc="http://purl.org/dc/elements/1.1/" xmlns:cc="http://creativecommons.org/ns#" xmlns:rdf="http://www.w3.org/1999/02/22-rdf-syntax-ns#">
   <cc:Work>
    <dc:type rdf:resource="http://purl.org/dc/dcmitype/StillImage"/>
    <dc:date>2023-06-13T21:17:07.096269</dc:date>
    <dc:format>image/svg+xml</dc:format>
    <dc:creator>
     <cc:Agent>
      <dc:title>Matplotlib v3.5.2, https://matplotlib.org/</dc:title>
     </cc:Agent>
    </dc:creator>
   </cc:Work>
  </rdf:RDF>
 </metadata>
 <defs>
  <style type="text/css">*{stroke-linejoin: round; stroke-linecap: butt}</style>
 </defs>
 <g id="figure_1">
  <g id="patch_1">
   <path d="M 0 296.46825 
L 408.443438 296.46825 
L 408.443438 0 
L 0 0 
z
" style="fill: #ffffff"/>
  </g>
  <g id="axes_1">
   <g id="patch_2">
    <path d="M 51.323438 266.112 
L 408.443438 266.112 
L 408.443438 -0 
L 51.323438 -0 
z
" style="fill: #ffffff"/>
   </g>
   <g id="PathCollection_1">
    <path d="M 67.556165 223.698111 
L 64.556165 229.698111 
L 70.556165 229.698111 
z
" clip-path="url(#p1508e5ea0e)" style="fill: #440154; stroke: #440154"/>
    <path d="M 78.377983 218.544143 
L 75.377983 224.544143 
L 81.377983 224.544143 
z
" clip-path="url(#p1508e5ea0e)" style="fill: #460b5e; stroke: #460b5e"/>
    <path d="M 83.788892 212.122344 
L 80.788892 218.122344 
L 86.788892 218.122344 
z
" clip-path="url(#p1508e5ea0e)" style="fill: #48186a; stroke: #48186a"/>
    <path d="M 89.199801 210.314542 
L 86.199801 216.314542 
L 92.199801 216.314542 
z
" clip-path="url(#p1508e5ea0e)" style="fill: #481c6e; stroke: #481c6e"/>
    <path d="M 94.61071 209.159803 
L 91.61071 215.159803 
L 97.61071 215.159803 
z
" clip-path="url(#p1508e5ea0e)" style="fill: #481f70; stroke: #481f70"/>
    <path d="M 97.316165 194.474329 
L 94.316165 200.474329 
L 100.316165 200.474329 
z
" clip-path="url(#p1508e5ea0e)" style="fill: #443983; stroke: #443983"/>
    <path d="M 97.316165 193.267111 
L 94.316165 199.267111 
L 100.316165 199.267111 
z
" clip-path="url(#p1508e5ea0e)" style="fill: #443b84; stroke: #443b84"/>
    <path d="M 97.316165 192.492429 
L 94.316165 198.492429 
L 100.316165 198.492429 
z
" clip-path="url(#p1508e5ea0e)" style="fill: #433d84; stroke: #433d84"/>
    <path d="M 100.021619 191.963808 
L 97.021619 197.963808 
L 103.021619 197.963808 
z
" clip-path="url(#p1508e5ea0e)" style="fill: #433e85; stroke: #433e85"/>
    <path d="M 102.727074 189.61338 
L 99.727074 195.61338 
L 105.727074 195.61338 
z
" clip-path="url(#p1508e5ea0e)" style="fill: #424186; stroke: #424186"/>
    <path d="M 105.432528 189.003357 
L 102.432528 195.003357 
L 108.432528 195.003357 
z
" clip-path="url(#p1508e5ea0e)" style="fill: #414287; stroke: #414287"/>
    <path d="M 105.432528 188.595802 
L 102.432528 194.595802 
L 108.432528 194.595802 
z
" clip-path="url(#p1508e5ea0e)" style="fill: #414487; stroke: #414487"/>
    <path d="M 105.432528 188.41425 
L 102.432528 194.41425 
L 108.432528 194.41425 
z
" clip-path="url(#p1508e5ea0e)" style="fill: #414487; stroke: #414487"/>
    <path d="M 108.137983 186.572033 
L 105.137983 192.572033 
L 111.137983 192.572033 
z
" clip-path="url(#p1508e5ea0e)" style="fill: #3f4788; stroke: #3f4788"/>
    <path d="M 108.137983 185.95561 
L 105.137983 191.95561 
L 111.137983 191.95561 
z
" clip-path="url(#p1508e5ea0e)" style="fill: #3f4889; stroke: #3f4889"/>
    <path d="M 108.137983 183.813467 
L 105.137983 189.813467 
L 111.137983 189.813467 
z
" clip-path="url(#p1508e5ea0e)" style="fill: #3e4c8a; stroke: #3e4c8a"/>
    <path d="M 108.137983 183.009836 
L 105.137983 189.009836 
L 111.137983 189.009836 
z
" clip-path="url(#p1508e5ea0e)" style="fill: #3d4d8a; stroke: #3d4d8a"/>
    <path d="M 110.843438 182.227432 
L 107.843438 188.227432 
L 113.843438 188.227432 
z
" clip-path="url(#p1508e5ea0e)" style="fill: #3d4e8a; stroke: #3d4e8a"/>
    <path d="M 110.843438 181.455225 
L 107.843438 187.455225 
L 113.843438 187.455225 
z
" clip-path="url(#p1508e5ea0e)" style="fill: #3c4f8a; stroke: #3c4f8a"/>
    <path d="M 110.843438 181.3366 
L 107.843438 187.3366 
L 113.843438 187.3366 
z
" clip-path="url(#p1508e5ea0e)" style="fill: #3c508b; stroke: #3c508b"/>
    <path d="M 110.843438 180.142078 
L 107.843438 186.142078 
L 113.843438 186.142078 
z
" clip-path="url(#p1508e5ea0e)" style="fill: #3b518b; stroke: #3b518b"/>
    <path d="M 113.548892 179.313289 
L 110.548892 185.313289 
L 116.548892 185.313289 
z
" clip-path="url(#p1508e5ea0e)" style="fill: #3a538b; stroke: #3a538b"/>
    <path d="M 116.254347 175.152651 
L 113.254347 181.152651 
L 119.254347 181.152651 
z
" clip-path="url(#p1508e5ea0e)" style="fill: #375a8c; stroke: #375a8c"/>
    <path d="M 118.959801 175.103684 
L 115.959801 181.103684 
L 121.959801 181.103684 
z
" clip-path="url(#p1508e5ea0e)" style="fill: #375a8c; stroke: #375a8c"/>
    <path d="M 118.959801 174.973504 
L 115.959801 180.973504 
L 121.959801 180.973504 
z
" clip-path="url(#p1508e5ea0e)" style="fill: #375a8c; stroke: #375a8c"/>
    <path d="M 121.665256 173.58149 
L 118.665256 179.58149 
L 124.665256 179.58149 
z
" clip-path="url(#p1508e5ea0e)" style="fill: #365c8d; stroke: #365c8d"/>
    <path d="M 124.37071 169.932465 
L 121.37071 175.932465 
L 127.37071 175.932465 
z
" clip-path="url(#p1508e5ea0e)" style="fill: #34618d; stroke: #34618d"/>
    <path d="M 124.37071 169.581501 
L 121.37071 175.581501 
L 127.37071 175.581501 
z
" clip-path="url(#p1508e5ea0e)" style="fill: #33628d; stroke: #33628d"/>
    <path d="M 127.076165 169.486294 
L 124.076165 175.486294 
L 130.076165 175.486294 
z
" clip-path="url(#p1508e5ea0e)" style="fill: #33628d; stroke: #33628d"/>
    <path d="M 127.076165 166.794909 
L 124.076165 172.794909 
L 130.076165 172.794909 
z
" clip-path="url(#p1508e5ea0e)" style="fill: #31668e; stroke: #31668e"/>
    <path d="M 129.781619 166.708969 
L 126.781619 172.708969 
L 132.781619 172.708969 
z
" clip-path="url(#p1508e5ea0e)" style="fill: #31668e; stroke: #31668e"/>
    <path d="M 129.781619 166.390571 
L 126.781619 172.390571 
L 132.781619 172.390571 
z
" clip-path="url(#p1508e5ea0e)" style="fill: #31678e; stroke: #31678e"/>
    <path d="M 129.781619 164.994462 
L 126.781619 170.994462 
L 132.781619 170.994462 
z
" clip-path="url(#p1508e5ea0e)" style="fill: #30698e; stroke: #30698e"/>
    <path d="M 129.781619 164.352415 
L 126.781619 170.352415 
L 132.781619 170.352415 
z
" clip-path="url(#p1508e5ea0e)" style="fill: #306a8e; stroke: #306a8e"/>
    <path d="M 132.487074 162.209146 
L 129.487074 168.209146 
L 135.487074 168.209146 
z
" clip-path="url(#p1508e5ea0e)" style="fill: #2e6d8e; stroke: #2e6d8e"/>
    <path d="M 132.487074 154.724168 
L 129.487074 160.724168 
L 135.487074 160.724168 
z
" clip-path="url(#p1508e5ea0e)" style="fill: #2a778e; stroke: #2a778e"/>
    <path d="M 135.192528 154.295595 
L 132.192528 160.295595 
L 138.192528 160.295595 
z
" clip-path="url(#p1508e5ea0e)" style="fill: #2a778e; stroke: #2a778e"/>
    <path d="M 137.897983 153.287088 
L 134.897983 159.287088 
L 140.897983 159.287088 
z
" clip-path="url(#p1508e5ea0e)" style="fill: #29798e; stroke: #29798e"/>
    <path d="M 137.897983 151.595349 
L 134.897983 157.595349 
L 140.897983 157.595349 
z
" clip-path="url(#p1508e5ea0e)" style="fill: #297b8e; stroke: #297b8e"/>
    <path d="M 140.603438 151.202774 
L 137.603438 157.202774 
L 143.603438 157.202774 
z
" clip-path="url(#p1508e5ea0e)" style="fill: #287c8e; stroke: #287c8e"/>
    <path d="M 146.014347 148.11733 
L 143.014347 154.11733 
L 149.014347 154.11733 
z
" clip-path="url(#p1508e5ea0e)" style="fill: #27808e; stroke: #27808e"/>
    <path d="M 146.014347 145.89412 
L 143.014347 151.89412 
L 149.014347 151.89412 
z
" clip-path="url(#p1508e5ea0e)" style="fill: #25838e; stroke: #25838e"/>
    <path d="M 146.014347 144.63378 
L 143.014347 150.63378 
L 149.014347 150.63378 
z
" clip-path="url(#p1508e5ea0e)" style="fill: #25848e; stroke: #25848e"/>
    <path d="M 148.719801 143.408091 
L 145.719801 149.408091 
L 151.719801 149.408091 
z
" clip-path="url(#p1508e5ea0e)" style="fill: #24868e; stroke: #24868e"/>
    <path d="M 148.719801 139.559163 
L 145.719801 145.559163 
L 151.719801 145.559163 
z
" clip-path="url(#p1508e5ea0e)" style="fill: #228c8d; stroke: #228c8d"/>
    <path d="M 151.425256 138.172869 
L 148.425256 144.172869 
L 154.425256 144.172869 
z
" clip-path="url(#p1508e5ea0e)" style="fill: #218e8d; stroke: #218e8d"/>
    <path d="M 154.13071 138.161323 
L 151.13071 144.161323 
L 157.13071 144.161323 
z
" clip-path="url(#p1508e5ea0e)" style="fill: #218e8d; stroke: #218e8d"/>
    <path d="M 154.13071 137.725595 
L 151.13071 143.725595 
L 157.13071 143.725595 
z
" clip-path="url(#p1508e5ea0e)" style="fill: #218f8d; stroke: #218f8d"/>
    <path d="M 154.13071 136.059184 
L 151.13071 142.059184 
L 157.13071 142.059184 
z
" clip-path="url(#p1508e5ea0e)" style="fill: #21918c; stroke: #21918c"/>
    <path d="M 156.836165 135.770945 
L 153.836165 141.770945 
L 159.836165 141.770945 
z
" clip-path="url(#p1508e5ea0e)" style="fill: #21918c; stroke: #21918c"/>
    <path d="M 156.836165 132.028802 
L 153.836165 138.028802 
L 159.836165 138.028802 
z
" clip-path="url(#p1508e5ea0e)" style="fill: #1f968b; stroke: #1f968b"/>
    <path d="M 156.836165 131.623317 
L 153.836165 137.623317 
L 159.836165 137.623317 
z
" clip-path="url(#p1508e5ea0e)" style="fill: #1f978b; stroke: #1f978b"/>
    <path d="M 156.836165 131.401141 
L 153.836165 137.401141 
L 159.836165 137.401141 
z
" clip-path="url(#p1508e5ea0e)" style="fill: #1f978b; stroke: #1f978b"/>
    <path d="M 156.836165 130.892306 
L 153.836165 136.892306 
L 159.836165 136.892306 
z
" clip-path="url(#p1508e5ea0e)" style="fill: #1f988b; stroke: #1f988b"/>
    <path d="M 159.541619 130.339478 
L 156.541619 136.339478 
L 162.541619 136.339478 
z
" clip-path="url(#p1508e5ea0e)" style="fill: #1f988b; stroke: #1f988b"/>
    <path d="M 162.247074 129.243144 
L 159.247074 135.243144 
L 165.247074 135.243144 
z
" clip-path="url(#p1508e5ea0e)" style="fill: #1f9a8a; stroke: #1f9a8a"/>
    <path d="M 167.657983 129.205233 
L 164.657983 135.205233 
L 170.657983 135.205233 
z
" clip-path="url(#p1508e5ea0e)" style="fill: #1f9a8a; stroke: #1f9a8a"/>
    <path d="M 170.363438 127.541458 
L 167.363438 133.541458 
L 173.363438 133.541458 
z
" clip-path="url(#p1508e5ea0e)" style="fill: #1e9d89; stroke: #1e9d89"/>
    <path d="M 170.363438 126.662032 
L 167.363438 132.662032 
L 173.363438 132.662032 
z
" clip-path="url(#p1508e5ea0e)" style="fill: #1f9e89; stroke: #1f9e89"/>
    <path d="M 173.068892 125.391092 
L 170.068892 131.391092 
L 176.068892 131.391092 
z
" clip-path="url(#p1508e5ea0e)" style="fill: #1fa088; stroke: #1fa088"/>
    <path d="M 173.068892 123.862525 
L 170.068892 129.862525 
L 176.068892 129.862525 
z
" clip-path="url(#p1508e5ea0e)" style="fill: #1fa187; stroke: #1fa187"/>
    <path d="M 175.774347 122.691709 
L 172.774347 128.691709 
L 178.774347 128.691709 
z
" clip-path="url(#p1508e5ea0e)" style="fill: #20a386; stroke: #20a386"/>
    <path d="M 178.479801 121.992989 
L 175.479801 127.992989 
L 181.479801 127.992989 
z
" clip-path="url(#p1508e5ea0e)" style="fill: #20a486; stroke: #20a486"/>
    <path d="M 181.185256 120.265542 
L 178.185256 126.265542 
L 184.185256 126.265542 
z
" clip-path="url(#p1508e5ea0e)" style="fill: #21a685; stroke: #21a685"/>
    <path d="M 189.301619 119.114243 
L 186.301619 125.114243 
L 192.301619 125.114243 
z
" clip-path="url(#p1508e5ea0e)" style="fill: #22a884; stroke: #22a884"/>
    <path d="M 189.301619 110.183233 
L 186.301619 116.183233 
L 192.301619 116.183233 
z
" clip-path="url(#p1508e5ea0e)" style="fill: #2fb47c; stroke: #2fb47c"/>
    <path d="M 200.123438 105.865798 
L 197.123438 111.865798 
L 203.123438 111.865798 
z
" clip-path="url(#p1508e5ea0e)" style="fill: #38b977; stroke: #38b977"/>
    <path d="M 202.828892 96.562928 
L 199.828892 102.562928 
L 205.828892 102.562928 
z
" clip-path="url(#p1508e5ea0e)" style="fill: #52c569; stroke: #52c569"/>
    <path d="M 210.945256 96.496747 
L 207.945256 102.496747 
L 213.945256 102.496747 
z
" clip-path="url(#p1508e5ea0e)" style="fill: #52c569; stroke: #52c569"/>
    <path d="M 216.356165 93.573293 
L 213.356165 99.573293 
L 219.356165 99.573293 
z
" clip-path="url(#p1508e5ea0e)" style="fill: #5ac864; stroke: #5ac864"/>
    <path d="M 216.356165 93.243587 
L 213.356165 99.243587 
L 219.356165 99.243587 
z
" clip-path="url(#p1508e5ea0e)" style="fill: #5cc863; stroke: #5cc863"/>
    <path d="M 232.588892 88.440036 
L 229.588892 94.440036 
L 235.588892 94.440036 
z
" clip-path="url(#p1508e5ea0e)" style="fill: #6ccd5a; stroke: #6ccd5a"/>
    <path d="M 265.054347 80.465726 
L 262.054347 86.465726 
L 268.054347 86.465726 
z
" clip-path="url(#p1508e5ea0e)" style="fill: #89d548; stroke: #89d548"/>
    <path d="M 294.814347 77.19362 
L 291.814347 83.19362 
L 297.814347 83.19362 
z
" clip-path="url(#p1508e5ea0e)" style="fill: #93d741; stroke: #93d741"/>
    <path d="M 348.923438 67.194552 
L 345.923438 73.194552 
L 351.923438 73.194552 
z
" clip-path="url(#p1508e5ea0e)" style="fill: #bade28; stroke: #bade28"/>
    <path d="M 384.094347 57.053372 
L 381.094347 63.053372 
L 387.094347 63.053372 
z
" clip-path="url(#p1508e5ea0e)" style="fill: #e2e418; stroke: #e2e418"/>
    <path d="M 392.21071 49.123127 
L 389.21071 55.123127 
L 395.21071 55.123127 
z
" clip-path="url(#p1508e5ea0e)" style="fill: #fde725; stroke: #fde725"/>
   </g>
   <g id="matplotlib.axis_1">
    <g id="xtick_1">
     <g id="line2d_1">
      <defs>
       <path id="m4dfcd07761" d="M 0 0 
L 0 3.5 
" style="stroke: #000000; stroke-width: 0.8"/>
      </defs>
      <g>
       <use xlink:href="#m4dfcd07761" x="78.829396" y="266.112" style="stroke: #000000; stroke-width: 0.8"/>
      </g>
     </g>
     <g id="text_1">
      <!-- 2 -->
      <g transform="translate(75.648146 280.710437)scale(0.1 -0.1)">
       <defs>
        <path id="DejaVuSans-32" d="M 1228 531 
L 3431 531 
L 3431 0 
L 469 0 
L 469 531 
Q 828 903 1448 1529 
Q 2069 2156 2228 2338 
Q 2531 2678 2651 2914 
Q 2772 3150 2772 3378 
Q 2772 3750 2511 3984 
Q 2250 4219 1831 4219 
Q 1534 4219 1204 4116 
Q 875 4013 500 3803 
L 500 4441 
Q 881 4594 1212 4672 
Q 1544 4750 1819 4750 
Q 2544 4750 2975 4387 
Q 3406 4025 3406 3419 
Q 3406 3131 3298 2873 
Q 3191 2616 2906 2266 
Q 2828 2175 2409 1742 
Q 1991 1309 1228 531 
z
" transform="scale(0.015625)"/>
       </defs>
       <use xlink:href="#DejaVuSans-32"/>
      </g>
     </g>
    </g>
    <g id="xtick_2">
     <g id="line2d_2">
      <g>
       <use xlink:href="#m4dfcd07761" x="122.568081" y="266.112" style="stroke: #000000; stroke-width: 0.8"/>
      </g>
     </g>
     <g id="text_2">
      <!-- 4 -->
      <g transform="translate(119.386831 280.710437)scale(0.1 -0.1)">
       <defs>
        <path id="DejaVuSans-34" d="M 2419 4116 
L 825 1625 
L 2419 1625 
L 2419 4116 
z
M 2253 4666 
L 3047 4666 
L 3047 1625 
L 3713 1625 
L 3713 1100 
L 3047 1100 
L 3047 0 
L 2419 0 
L 2419 1100 
L 313 1100 
L 313 1709 
L 2253 4666 
z
" transform="scale(0.015625)"/>
       </defs>
       <use xlink:href="#DejaVuSans-34"/>
      </g>
     </g>
    </g>
    <g id="xtick_3">
     <g id="line2d_3">
      <g>
       <use xlink:href="#m4dfcd07761" x="166.306766" y="266.112" style="stroke: #000000; stroke-width: 0.8"/>
      </g>
     </g>
     <g id="text_3">
      <!-- 6 -->
      <g transform="translate(163.125516 280.710437)scale(0.1 -0.1)">
       <defs>
        <path id="DejaVuSans-36" d="M 2113 2584 
Q 1688 2584 1439 2293 
Q 1191 2003 1191 1497 
Q 1191 994 1439 701 
Q 1688 409 2113 409 
Q 2538 409 2786 701 
Q 3034 994 3034 1497 
Q 3034 2003 2786 2293 
Q 2538 2584 2113 2584 
z
M 3366 4563 
L 3366 3988 
Q 3128 4100 2886 4159 
Q 2644 4219 2406 4219 
Q 1781 4219 1451 3797 
Q 1122 3375 1075 2522 
Q 1259 2794 1537 2939 
Q 1816 3084 2150 3084 
Q 2853 3084 3261 2657 
Q 3669 2231 3669 1497 
Q 3669 778 3244 343 
Q 2819 -91 2113 -91 
Q 1303 -91 875 529 
Q 447 1150 447 2328 
Q 447 3434 972 4092 
Q 1497 4750 2381 4750 
Q 2619 4750 2861 4703 
Q 3103 4656 3366 4563 
z
" transform="scale(0.015625)"/>
       </defs>
       <use xlink:href="#DejaVuSans-36"/>
      </g>
     </g>
    </g>
    <g id="xtick_4">
     <g id="line2d_4">
      <g>
       <use xlink:href="#m4dfcd07761" x="210.045452" y="266.112" style="stroke: #000000; stroke-width: 0.8"/>
      </g>
     </g>
     <g id="text_4">
      <!-- 8 -->
      <g transform="translate(206.864202 280.710437)scale(0.1 -0.1)">
       <defs>
        <path id="DejaVuSans-38" d="M 2034 2216 
Q 1584 2216 1326 1975 
Q 1069 1734 1069 1313 
Q 1069 891 1326 650 
Q 1584 409 2034 409 
Q 2484 409 2743 651 
Q 3003 894 3003 1313 
Q 3003 1734 2745 1975 
Q 2488 2216 2034 2216 
z
M 1403 2484 
Q 997 2584 770 2862 
Q 544 3141 544 3541 
Q 544 4100 942 4425 
Q 1341 4750 2034 4750 
Q 2731 4750 3128 4425 
Q 3525 4100 3525 3541 
Q 3525 3141 3298 2862 
Q 3072 2584 2669 2484 
Q 3125 2378 3379 2068 
Q 3634 1759 3634 1313 
Q 3634 634 3220 271 
Q 2806 -91 2034 -91 
Q 1263 -91 848 271 
Q 434 634 434 1313 
Q 434 1759 690 2068 
Q 947 2378 1403 2484 
z
M 1172 3481 
Q 1172 3119 1398 2916 
Q 1625 2713 2034 2713 
Q 2441 2713 2670 2916 
Q 2900 3119 2900 3481 
Q 2900 3844 2670 4047 
Q 2441 4250 2034 4250 
Q 1625 4250 1398 4047 
Q 1172 3844 1172 3481 
z
" transform="scale(0.015625)"/>
       </defs>
       <use xlink:href="#DejaVuSans-38"/>
      </g>
     </g>
    </g>
    <g id="xtick_5">
     <g id="line2d_5">
      <g>
       <use xlink:href="#m4dfcd07761" x="253.784137" y="266.112" style="stroke: #000000; stroke-width: 0.8"/>
      </g>
     </g>
     <g id="text_5">
      <!-- 10 -->
      <g transform="translate(247.421637 280.710437)scale(0.1 -0.1)">
       <defs>
        <path id="DejaVuSans-31" d="M 794 531 
L 1825 531 
L 1825 4091 
L 703 3866 
L 703 4441 
L 1819 4666 
L 2450 4666 
L 2450 531 
L 3481 531 
L 3481 0 
L 794 0 
L 794 531 
z
" transform="scale(0.015625)"/>
        <path id="DejaVuSans-30" d="M 2034 4250 
Q 1547 4250 1301 3770 
Q 1056 3291 1056 2328 
Q 1056 1369 1301 889 
Q 1547 409 2034 409 
Q 2525 409 2770 889 
Q 3016 1369 3016 2328 
Q 3016 3291 2770 3770 
Q 2525 4250 2034 4250 
z
M 2034 4750 
Q 2819 4750 3233 4129 
Q 3647 3509 3647 2328 
Q 3647 1150 3233 529 
Q 2819 -91 2034 -91 
Q 1250 -91 836 529 
Q 422 1150 422 2328 
Q 422 3509 836 4129 
Q 1250 4750 2034 4750 
z
" transform="scale(0.015625)"/>
       </defs>
       <use xlink:href="#DejaVuSans-31"/>
       <use xlink:href="#DejaVuSans-30" x="63.623047"/>
      </g>
     </g>
    </g>
    <g id="xtick_6">
     <g id="line2d_6">
      <g>
       <use xlink:href="#m4dfcd07761" x="297.522822" y="266.112" style="stroke: #000000; stroke-width: 0.8"/>
      </g>
     </g>
     <g id="text_6">
      <!-- 12 -->
      <g transform="translate(291.160322 280.710437)scale(0.1 -0.1)">
       <use xlink:href="#DejaVuSans-31"/>
       <use xlink:href="#DejaVuSans-32" x="63.623047"/>
      </g>
     </g>
    </g>
    <g id="xtick_7">
     <g id="line2d_7">
      <g>
       <use xlink:href="#m4dfcd07761" x="341.261508" y="266.112" style="stroke: #000000; stroke-width: 0.8"/>
      </g>
     </g>
     <g id="text_7">
      <!-- 14 -->
      <g transform="translate(334.899008 280.710437)scale(0.1 -0.1)">
       <use xlink:href="#DejaVuSans-31"/>
       <use xlink:href="#DejaVuSans-34" x="63.623047"/>
      </g>
     </g>
    </g>
    <g id="xtick_8">
     <g id="line2d_8">
      <g>
       <use xlink:href="#m4dfcd07761" x="385.000193" y="266.112" style="stroke: #000000; stroke-width: 0.8"/>
      </g>
     </g>
     <g id="text_8">
      <!-- 16 -->
      <g transform="translate(378.637693 280.710437)scale(0.1 -0.1)">
       <use xlink:href="#DejaVuSans-31"/>
       <use xlink:href="#DejaVuSans-36" x="63.623047"/>
      </g>
     </g>
    </g>
    <g id="text_9">
     <!-- Eddy Area [10^3 * km^2] -->
     <g transform="translate(164.284219 294.388562)scale(0.1 -0.1)">
      <defs>
       <path id="DejaVuSans-45" d="M 628 4666 
L 3578 4666 
L 3578 4134 
L 1259 4134 
L 1259 2753 
L 3481 2753 
L 3481 2222 
L 1259 2222 
L 1259 531 
L 3634 531 
L 3634 0 
L 628 0 
L 628 4666 
z
" transform="scale(0.015625)"/>
       <path id="DejaVuSans-64" d="M 2906 2969 
L 2906 4863 
L 3481 4863 
L 3481 0 
L 2906 0 
L 2906 525 
Q 2725 213 2448 61 
Q 2172 -91 1784 -91 
Q 1150 -91 751 415 
Q 353 922 353 1747 
Q 353 2572 751 3078 
Q 1150 3584 1784 3584 
Q 2172 3584 2448 3432 
Q 2725 3281 2906 2969 
z
M 947 1747 
Q 947 1113 1208 752 
Q 1469 391 1925 391 
Q 2381 391 2643 752 
Q 2906 1113 2906 1747 
Q 2906 2381 2643 2742 
Q 2381 3103 1925 3103 
Q 1469 3103 1208 2742 
Q 947 2381 947 1747 
z
" transform="scale(0.015625)"/>
       <path id="DejaVuSans-79" d="M 2059 -325 
Q 1816 -950 1584 -1140 
Q 1353 -1331 966 -1331 
L 506 -1331 
L 506 -850 
L 844 -850 
Q 1081 -850 1212 -737 
Q 1344 -625 1503 -206 
L 1606 56 
L 191 3500 
L 800 3500 
L 1894 763 
L 2988 3500 
L 3597 3500 
L 2059 -325 
z
" transform="scale(0.015625)"/>
       <path id="DejaVuSans-20" transform="scale(0.015625)"/>
       <path id="DejaVuSans-41" d="M 2188 4044 
L 1331 1722 
L 3047 1722 
L 2188 4044 
z
M 1831 4666 
L 2547 4666 
L 4325 0 
L 3669 0 
L 3244 1197 
L 1141 1197 
L 716 0 
L 50 0 
L 1831 4666 
z
" transform="scale(0.015625)"/>
       <path id="DejaVuSans-72" d="M 2631 2963 
Q 2534 3019 2420 3045 
Q 2306 3072 2169 3072 
Q 1681 3072 1420 2755 
Q 1159 2438 1159 1844 
L 1159 0 
L 581 0 
L 581 3500 
L 1159 3500 
L 1159 2956 
Q 1341 3275 1631 3429 
Q 1922 3584 2338 3584 
Q 2397 3584 2469 3576 
Q 2541 3569 2628 3553 
L 2631 2963 
z
" transform="scale(0.015625)"/>
       <path id="DejaVuSans-65" d="M 3597 1894 
L 3597 1613 
L 953 1613 
Q 991 1019 1311 708 
Q 1631 397 2203 397 
Q 2534 397 2845 478 
Q 3156 559 3463 722 
L 3463 178 
Q 3153 47 2828 -22 
Q 2503 -91 2169 -91 
Q 1331 -91 842 396 
Q 353 884 353 1716 
Q 353 2575 817 3079 
Q 1281 3584 2069 3584 
Q 2775 3584 3186 3129 
Q 3597 2675 3597 1894 
z
M 3022 2063 
Q 3016 2534 2758 2815 
Q 2500 3097 2075 3097 
Q 1594 3097 1305 2825 
Q 1016 2553 972 2059 
L 3022 2063 
z
" transform="scale(0.015625)"/>
       <path id="DejaVuSans-61" d="M 2194 1759 
Q 1497 1759 1228 1600 
Q 959 1441 959 1056 
Q 959 750 1161 570 
Q 1363 391 1709 391 
Q 2188 391 2477 730 
Q 2766 1069 2766 1631 
L 2766 1759 
L 2194 1759 
z
M 3341 1997 
L 3341 0 
L 2766 0 
L 2766 531 
Q 2569 213 2275 61 
Q 1981 -91 1556 -91 
Q 1019 -91 701 211 
Q 384 513 384 1019 
Q 384 1609 779 1909 
Q 1175 2209 1959 2209 
L 2766 2209 
L 2766 2266 
Q 2766 2663 2505 2880 
Q 2244 3097 1772 3097 
Q 1472 3097 1187 3025 
Q 903 2953 641 2809 
L 641 3341 
Q 956 3463 1253 3523 
Q 1550 3584 1831 3584 
Q 2591 3584 2966 3190 
Q 3341 2797 3341 1997 
z
" transform="scale(0.015625)"/>
       <path id="DejaVuSans-5b" d="M 550 4863 
L 1875 4863 
L 1875 4416 
L 1125 4416 
L 1125 -397 
L 1875 -397 
L 1875 -844 
L 550 -844 
L 550 4863 
z
" transform="scale(0.015625)"/>
       <path id="DejaVuSans-5e" d="M 2988 4666 
L 4684 2925 
L 4056 2925 
L 2681 4159 
L 1306 2925 
L 678 2925 
L 2375 4666 
L 2988 4666 
z
" transform="scale(0.015625)"/>
       <path id="DejaVuSans-33" d="M 2597 2516 
Q 3050 2419 3304 2112 
Q 3559 1806 3559 1356 
Q 3559 666 3084 287 
Q 2609 -91 1734 -91 
Q 1441 -91 1130 -33 
Q 819 25 488 141 
L 488 750 
Q 750 597 1062 519 
Q 1375 441 1716 441 
Q 2309 441 2620 675 
Q 2931 909 2931 1356 
Q 2931 1769 2642 2001 
Q 2353 2234 1838 2234 
L 1294 2234 
L 1294 2753 
L 1863 2753 
Q 2328 2753 2575 2939 
Q 2822 3125 2822 3475 
Q 2822 3834 2567 4026 
Q 2313 4219 1838 4219 
Q 1578 4219 1281 4162 
Q 984 4106 628 3988 
L 628 4550 
Q 988 4650 1302 4700 
Q 1616 4750 1894 4750 
Q 2613 4750 3031 4423 
Q 3450 4097 3450 3541 
Q 3450 3153 3228 2886 
Q 3006 2619 2597 2516 
z
" transform="scale(0.015625)"/>
       <path id="DejaVuSans-2a" d="M 3009 3897 
L 1888 3291 
L 3009 2681 
L 2828 2375 
L 1778 3009 
L 1778 1831 
L 1422 1831 
L 1422 3009 
L 372 2375 
L 191 2681 
L 1313 3291 
L 191 3897 
L 372 4206 
L 1422 3572 
L 1422 4750 
L 1778 4750 
L 1778 3572 
L 2828 4206 
L 3009 3897 
z
" transform="scale(0.015625)"/>
       <path id="DejaVuSans-6b" d="M 581 4863 
L 1159 4863 
L 1159 1991 
L 2875 3500 
L 3609 3500 
L 1753 1863 
L 3688 0 
L 2938 0 
L 1159 1709 
L 1159 0 
L 581 0 
L 581 4863 
z
" transform="scale(0.015625)"/>
       <path id="DejaVuSans-6d" d="M 3328 2828 
Q 3544 3216 3844 3400 
Q 4144 3584 4550 3584 
Q 5097 3584 5394 3201 
Q 5691 2819 5691 2113 
L 5691 0 
L 5113 0 
L 5113 2094 
Q 5113 2597 4934 2840 
Q 4756 3084 4391 3084 
Q 3944 3084 3684 2787 
Q 3425 2491 3425 1978 
L 3425 0 
L 2847 0 
L 2847 2094 
Q 2847 2600 2669 2842 
Q 2491 3084 2119 3084 
Q 1678 3084 1418 2786 
Q 1159 2488 1159 1978 
L 1159 0 
L 581 0 
L 581 3500 
L 1159 3500 
L 1159 2956 
Q 1356 3278 1631 3431 
Q 1906 3584 2284 3584 
Q 2666 3584 2933 3390 
Q 3200 3197 3328 2828 
z
" transform="scale(0.015625)"/>
       <path id="DejaVuSans-5d" d="M 1947 4863 
L 1947 -844 
L 622 -844 
L 622 -397 
L 1369 -397 
L 1369 4416 
L 622 4416 
L 622 4863 
L 1947 4863 
z
" transform="scale(0.015625)"/>
      </defs>
      <use xlink:href="#DejaVuSans-45"/>
      <use xlink:href="#DejaVuSans-64" x="63.183594"/>
      <use xlink:href="#DejaVuSans-64" x="126.660156"/>
      <use xlink:href="#DejaVuSans-79" x="190.136719"/>
      <use xlink:href="#DejaVuSans-20" x="249.316406"/>
      <use xlink:href="#DejaVuSans-41" x="281.103516"/>
      <use xlink:href="#DejaVuSans-72" x="349.511719"/>
      <use xlink:href="#DejaVuSans-65" x="388.375"/>
      <use xlink:href="#DejaVuSans-61" x="449.898438"/>
      <use xlink:href="#DejaVuSans-20" x="511.177734"/>
      <use xlink:href="#DejaVuSans-5b" x="542.964844"/>
      <use xlink:href="#DejaVuSans-31" x="581.978516"/>
      <use xlink:href="#DejaVuSans-30" x="645.601562"/>
      <use xlink:href="#DejaVuSans-5e" x="709.224609"/>
      <use xlink:href="#DejaVuSans-33" x="793.013672"/>
      <use xlink:href="#DejaVuSans-20" x="856.636719"/>
      <use xlink:href="#DejaVuSans-2a" x="888.423828"/>
      <use xlink:href="#DejaVuSans-20" x="938.423828"/>
      <use xlink:href="#DejaVuSans-6b" x="970.210938"/>
      <use xlink:href="#DejaVuSans-6d" x="1028.121094"/>
      <use xlink:href="#DejaVuSans-5e" x="1125.533203"/>
      <use xlink:href="#DejaVuSans-32" x="1209.322266"/>
      <use xlink:href="#DejaVuSans-5d" x="1272.945312"/>
     </g>
    </g>
   </g>
   <g id="matplotlib.axis_2">
    <g id="ytick_1">
     <g id="line2d_9">
      <defs>
       <path id="mdb347aabb9" d="M 0 0 
L -3.5 0 
" style="stroke: #000000; stroke-width: 0.8"/>
      </defs>
      <g>
       <use xlink:href="#mdb347aabb9" x="51.323438" y="241.258744" style="stroke: #000000; stroke-width: 0.8"/>
      </g>
     </g>
     <g id="text_10">
      <!-- −0.50 -->
      <g transform="translate(13.678125 245.057963)scale(0.1 -0.1)">
       <defs>
        <path id="DejaVuSans-2212" d="M 678 2272 
L 4684 2272 
L 4684 1741 
L 678 1741 
L 678 2272 
z
" transform="scale(0.015625)"/>
        <path id="DejaVuSans-2e" d="M 684 794 
L 1344 794 
L 1344 0 
L 684 0 
L 684 794 
z
" transform="scale(0.015625)"/>
        <path id="DejaVuSans-35" d="M 691 4666 
L 3169 4666 
L 3169 4134 
L 1269 4134 
L 1269 2991 
Q 1406 3038 1543 3061 
Q 1681 3084 1819 3084 
Q 2600 3084 3056 2656 
Q 3513 2228 3513 1497 
Q 3513 744 3044 326 
Q 2575 -91 1722 -91 
Q 1428 -91 1123 -41 
Q 819 9 494 109 
L 494 744 
Q 775 591 1075 516 
Q 1375 441 1709 441 
Q 2250 441 2565 725 
Q 2881 1009 2881 1497 
Q 2881 1984 2565 2268 
Q 2250 2553 1709 2553 
Q 1456 2553 1204 2497 
Q 953 2441 691 2322 
L 691 4666 
z
" transform="scale(0.015625)"/>
       </defs>
       <use xlink:href="#DejaVuSans-2212"/>
       <use xlink:href="#DejaVuSans-30" x="83.789062"/>
       <use xlink:href="#DejaVuSans-2e" x="147.412109"/>
       <use xlink:href="#DejaVuSans-35" x="179.199219"/>
       <use xlink:href="#DejaVuSans-30" x="242.822266"/>
      </g>
     </g>
    </g>
    <g id="ytick_2">
     <g id="line2d_10">
      <g>
       <use xlink:href="#mdb347aabb9" x="51.323438" y="208.453053" style="stroke: #000000; stroke-width: 0.8"/>
      </g>
     </g>
     <g id="text_11">
      <!-- −0.25 -->
      <g transform="translate(13.678125 212.252272)scale(0.1 -0.1)">
       <use xlink:href="#DejaVuSans-2212"/>
       <use xlink:href="#DejaVuSans-30" x="83.789062"/>
       <use xlink:href="#DejaVuSans-2e" x="147.412109"/>
       <use xlink:href="#DejaVuSans-32" x="179.199219"/>
       <use xlink:href="#DejaVuSans-35" x="242.822266"/>
      </g>
     </g>
    </g>
    <g id="ytick_3">
     <g id="line2d_11">
      <g>
       <use xlink:href="#mdb347aabb9" x="51.323438" y="175.647363" style="stroke: #000000; stroke-width: 0.8"/>
      </g>
     </g>
     <g id="text_12">
      <!-- 0.00 -->
      <g transform="translate(22.057813 179.446582)scale(0.1 -0.1)">
       <use xlink:href="#DejaVuSans-30"/>
       <use xlink:href="#DejaVuSans-2e" x="63.623047"/>
       <use xlink:href="#DejaVuSans-30" x="95.410156"/>
       <use xlink:href="#DejaVuSans-30" x="159.033203"/>
      </g>
     </g>
    </g>
    <g id="ytick_4">
     <g id="line2d_12">
      <g>
       <use xlink:href="#mdb347aabb9" x="51.323438" y="142.841673" style="stroke: #000000; stroke-width: 0.8"/>
      </g>
     </g>
     <g id="text_13">
      <!-- 0.25 -->
      <g transform="translate(22.057813 146.640891)scale(0.1 -0.1)">
       <use xlink:href="#DejaVuSans-30"/>
       <use xlink:href="#DejaVuSans-2e" x="63.623047"/>
       <use xlink:href="#DejaVuSans-32" x="95.410156"/>
       <use xlink:href="#DejaVuSans-35" x="159.033203"/>
      </g>
     </g>
    </g>
    <g id="ytick_5">
     <g id="line2d_13">
      <g>
       <use xlink:href="#mdb347aabb9" x="51.323438" y="110.035982" style="stroke: #000000; stroke-width: 0.8"/>
      </g>
     </g>
     <g id="text_14">
      <!-- 0.50 -->
      <g transform="translate(22.057813 113.835201)scale(0.1 -0.1)">
       <use xlink:href="#DejaVuSans-30"/>
       <use xlink:href="#DejaVuSans-2e" x="63.623047"/>
       <use xlink:href="#DejaVuSans-35" x="95.410156"/>
       <use xlink:href="#DejaVuSans-30" x="159.033203"/>
      </g>
     </g>
    </g>
    <g id="ytick_6">
     <g id="line2d_14">
      <g>
       <use xlink:href="#mdb347aabb9" x="51.323438" y="77.230292" style="stroke: #000000; stroke-width: 0.8"/>
      </g>
     </g>
     <g id="text_15">
      <!-- 0.75 -->
      <g transform="translate(22.057813 81.02951)scale(0.1 -0.1)">
       <defs>
        <path id="DejaVuSans-37" d="M 525 4666 
L 3525 4666 
L 3525 4397 
L 1831 0 
L 1172 0 
L 2766 4134 
L 525 4134 
L 525 4666 
z
" transform="scale(0.015625)"/>
       </defs>
       <use xlink:href="#DejaVuSans-30"/>
       <use xlink:href="#DejaVuSans-2e" x="63.623047"/>
       <use xlink:href="#DejaVuSans-37" x="95.410156"/>
       <use xlink:href="#DejaVuSans-35" x="159.033203"/>
      </g>
     </g>
    </g>
    <g id="ytick_7">
     <g id="line2d_15">
      <g>
       <use xlink:href="#mdb347aabb9" x="51.323438" y="44.424601" style="stroke: #000000; stroke-width: 0.8"/>
      </g>
     </g>
     <g id="text_16">
      <!-- 1.00 -->
      <g transform="translate(22.057813 48.22382)scale(0.1 -0.1)">
       <use xlink:href="#DejaVuSans-31"/>
       <use xlink:href="#DejaVuSans-2e" x="63.623047"/>
       <use xlink:href="#DejaVuSans-30" x="95.410156"/>
       <use xlink:href="#DejaVuSans-30" x="159.033203"/>
      </g>
     </g>
    </g>
    <g id="ytick_8">
     <g id="line2d_16">
      <g>
       <use xlink:href="#mdb347aabb9" x="51.323438" y="11.618911" style="stroke: #000000; stroke-width: 0.8"/>
      </g>
     </g>
     <g id="text_17">
      <!-- 1.25 -->
      <g transform="translate(22.057813 15.41813)scale(0.1 -0.1)">
       <use xlink:href="#DejaVuSans-31"/>
       <use xlink:href="#DejaVuSans-2e" x="63.623047"/>
       <use xlink:href="#DejaVuSans-32" x="95.410156"/>
       <use xlink:href="#DejaVuSans-35" x="159.033203"/>
      </g>
     </g>
    </g>
    <g id="text_18">
     <!-- Eddy Amplitude [m] -->
     <g transform="translate(7.598438 183.095844)rotate(-90)scale(0.1 -0.1)">
      <defs>
       <path id="DejaVuSans-70" d="M 1159 525 
L 1159 -1331 
L 581 -1331 
L 581 3500 
L 1159 3500 
L 1159 2969 
Q 1341 3281 1617 3432 
Q 1894 3584 2278 3584 
Q 2916 3584 3314 3078 
Q 3713 2572 3713 1747 
Q 3713 922 3314 415 
Q 2916 -91 2278 -91 
Q 1894 -91 1617 61 
Q 1341 213 1159 525 
z
M 3116 1747 
Q 3116 2381 2855 2742 
Q 2594 3103 2138 3103 
Q 1681 3103 1420 2742 
Q 1159 2381 1159 1747 
Q 1159 1113 1420 752 
Q 1681 391 2138 391 
Q 2594 391 2855 752 
Q 3116 1113 3116 1747 
z
" transform="scale(0.015625)"/>
       <path id="DejaVuSans-6c" d="M 603 4863 
L 1178 4863 
L 1178 0 
L 603 0 
L 603 4863 
z
" transform="scale(0.015625)"/>
       <path id="DejaVuSans-69" d="M 603 3500 
L 1178 3500 
L 1178 0 
L 603 0 
L 603 3500 
z
M 603 4863 
L 1178 4863 
L 1178 4134 
L 603 4134 
L 603 4863 
z
" transform="scale(0.015625)"/>
       <path id="DejaVuSans-74" d="M 1172 4494 
L 1172 3500 
L 2356 3500 
L 2356 3053 
L 1172 3053 
L 1172 1153 
Q 1172 725 1289 603 
Q 1406 481 1766 481 
L 2356 481 
L 2356 0 
L 1766 0 
Q 1100 0 847 248 
Q 594 497 594 1153 
L 594 3053 
L 172 3053 
L 172 3500 
L 594 3500 
L 594 4494 
L 1172 4494 
z
" transform="scale(0.015625)"/>
       <path id="DejaVuSans-75" d="M 544 1381 
L 544 3500 
L 1119 3500 
L 1119 1403 
Q 1119 906 1312 657 
Q 1506 409 1894 409 
Q 2359 409 2629 706 
Q 2900 1003 2900 1516 
L 2900 3500 
L 3475 3500 
L 3475 0 
L 2900 0 
L 2900 538 
Q 2691 219 2414 64 
Q 2138 -91 1772 -91 
Q 1169 -91 856 284 
Q 544 659 544 1381 
z
M 1991 3584 
L 1991 3584 
z
" transform="scale(0.015625)"/>
      </defs>
      <use xlink:href="#DejaVuSans-45"/>
      <use xlink:href="#DejaVuSans-64" x="63.183594"/>
      <use xlink:href="#DejaVuSans-64" x="126.660156"/>
      <use xlink:href="#DejaVuSans-79" x="190.136719"/>
      <use xlink:href="#DejaVuSans-20" x="249.316406"/>
      <use xlink:href="#DejaVuSans-41" x="281.103516"/>
      <use xlink:href="#DejaVuSans-6d" x="349.511719"/>
      <use xlink:href="#DejaVuSans-70" x="446.923828"/>
      <use xlink:href="#DejaVuSans-6c" x="510.400391"/>
      <use xlink:href="#DejaVuSans-69" x="538.183594"/>
      <use xlink:href="#DejaVuSans-74" x="565.966797"/>
      <use xlink:href="#DejaVuSans-75" x="605.175781"/>
      <use xlink:href="#DejaVuSans-64" x="668.554688"/>
      <use xlink:href="#DejaVuSans-65" x="732.03125"/>
      <use xlink:href="#DejaVuSans-20" x="793.554688"/>
      <use xlink:href="#DejaVuSans-5b" x="825.341797"/>
      <use xlink:href="#DejaVuSans-6d" x="864.355469"/>
      <use xlink:href="#DejaVuSans-5d" x="961.767578"/>
     </g>
    </g>
   </g>
   <g id="line2d_17">
    <path d="M 67.556165 202.399585 
L 78.377983 196.056132 
L 83.788892 192.884406 
L 89.199801 189.712679 
L 94.61071 186.540953 
L 97.316165 184.95509 
L 97.316165 184.95509 
L 97.316165 184.95509 
L 100.021619 183.369227 
L 102.727074 181.783363 
L 105.432528 180.1975 
L 105.432528 180.1975 
L 105.432528 180.1975 
L 108.137983 178.611637 
L 108.137983 178.611637 
L 108.137983 178.611637 
L 108.137983 178.611637 
L 110.843438 177.025774 
L 110.843438 177.025774 
L 110.843438 177.025774 
L 110.843438 177.025774 
L 113.548892 175.439911 
L 116.254347 173.854047 
L 118.959801 172.268184 
L 118.959801 172.268184 
L 121.665256 170.682321 
L 124.37071 169.096458 
L 124.37071 169.096458 
L 127.076165 167.510594 
L 127.076165 167.510594 
L 129.781619 165.924731 
L 129.781619 165.924731 
L 129.781619 165.924731 
L 129.781619 165.924731 
L 132.487074 164.338868 
L 132.487074 164.338868 
L 135.192528 162.753005 
L 137.897983 161.167142 
L 137.897983 161.167142 
L 140.603438 159.581278 
L 146.014347 156.409552 
L 146.014347 156.409552 
L 146.014347 156.409552 
L 148.719801 154.823689 
L 148.719801 154.823689 
L 151.425256 153.237826 
L 154.13071 151.651962 
L 154.13071 151.651962 
L 154.13071 151.651962 
L 156.836165 150.066099 
L 156.836165 150.066099 
L 156.836165 150.066099 
L 156.836165 150.066099 
L 156.836165 150.066099 
L 159.541619 148.480236 
L 162.247074 146.894373 
L 167.657983 143.722646 
L 170.363438 142.136783 
L 170.363438 142.136783 
L 173.068892 140.55092 
L 173.068892 140.55092 
L 175.774347 138.965057 
L 178.479801 137.379194 
L 181.185256 135.79333 
L 189.301619 131.035741 
L 189.301619 131.035741 
L 200.123438 124.692288 
L 202.828892 123.106425 
L 210.945256 118.348835 
L 216.356165 115.177109 
L 216.356165 115.177109 
L 232.588892 105.661929 
L 265.054347 86.631571 
L 294.814347 69.187076 
L 348.923438 37.469811 
L 384.094347 16.85359 
L 392.21071 12.096 
" clip-path="url(#p1508e5ea0e)" style="fill: none; stroke: #000080; stroke-width: 1.5; stroke-linecap: square"/>
   </g>
   <g id="line2d_18">
    <path d="M 67.556165 254.016 
L 78.377983 229.29917 
L 83.788892 219.179585 
L 89.199801 210.127308 
L 94.61071 201.938527 
L 97.316165 198.119357 
L 97.316165 198.119357 
L 97.316165 198.119357 
L 100.021619 194.462755 
L 102.727074 190.955445 
L 105.432528 187.585712 
L 105.432528 187.585712 
L 105.432528 187.585712 
L 108.137983 184.34317 
L 108.137983 184.34317 
L 108.137983 184.34317 
L 108.137983 184.34317 
L 110.843438 181.218565 
L 110.843438 181.218565 
L 110.843438 181.218565 
L 110.843438 181.218565 
L 113.548892 178.203618 
L 116.254347 175.290893 
L 118.959801 172.473684 
L 118.959801 172.473684 
L 121.665256 169.745925 
L 124.37071 167.102112 
L 124.37071 167.102112 
L 127.076165 164.53723 
L 127.076165 164.53723 
L 129.781619 162.046702 
L 129.781619 162.046702 
L 129.781619 162.046702 
L 129.781619 162.046702 
L 132.487074 159.62634 
L 132.487074 159.62634 
L 135.192528 157.272298 
L 137.897983 154.981038 
L 137.897983 154.981038 
L 140.603438 152.749297 
L 146.014347 148.452543 
L 146.014347 148.452543 
L 146.014347 148.452543 
L 148.719801 146.38215 
L 148.719801 146.38215 
L 151.425256 144.360476 
L 154.13071 142.385282 
L 154.13071 142.385282 
L 154.13071 142.385282 
L 156.836165 140.454478 
L 156.836165 140.454478 
L 156.836165 140.454478 
L 156.836165 140.454478 
L 156.836165 140.454478 
L 159.541619 138.566112 
L 162.247074 136.71836 
L 167.657983 133.13796 
L 170.363438 131.4022 
L 170.363438 131.4022 
L 173.068892 129.700815 
L 173.068892 129.700815 
L 175.774347 128.032468 
L 178.479801 126.395901 
L 181.185256 124.789925 
L 189.301619 120.144623 
L 189.301619 120.144623 
L 200.123438 114.317497 
L 202.828892 112.920439 
L 210.945256 108.860605 
L 216.356165 106.256855 
L 216.356165 106.256855 
L 232.588892 98.888012 
L 265.054347 85.812122 
L 294.814347 75.356266 
L 348.923438 59.097129 
L 384.094347 49.970817 
L 392.21071 47.995622 
" clip-path="url(#p1508e5ea0e)" style="fill: none; stroke: #ff0000; stroke-width: 1.5; stroke-linecap: square"/>
   </g>
   <g id="patch_3">
    <path d="M 51.323438 266.112 
L 51.323438 -0 
" style="fill: none; stroke: #000000; stroke-width: 0.8; stroke-linejoin: miter; stroke-linecap: square"/>
   </g>
   <g id="patch_4">
    <path d="M 408.443438 266.112 
L 408.443438 -0 
" style="fill: none; stroke: #000000; stroke-width: 0.8; stroke-linejoin: miter; stroke-linecap: square"/>
   </g>
   <g id="patch_5">
    <path d="M 51.323438 266.112 
L 408.443438 266.112 
" style="fill: none; stroke: #000000; stroke-width: 0.8; stroke-linejoin: miter; stroke-linecap: square"/>
   </g>
   <g id="patch_6">
    <path d="M 51.323438 -0 
L 408.443438 -0 
" style="fill: none; stroke: #000000; stroke-width: 0.8; stroke-linejoin: miter; stroke-linecap: square"/>
   </g>
   <g id="legend_1">
    <g id="patch_7">
     <path d="M 58.323438 37.35625 
L 198.0625 37.35625 
Q 200.0625 37.35625 200.0625 35.35625 
L 200.0625 7 
Q 200.0625 5 198.0625 5 
L 58.323438 5 
Q 56.323438 5 56.323438 7 
L 56.323438 35.35625 
Q 56.323438 37.35625 58.323438 37.35625 
z
" style="fill: #ffffff; opacity: 0.8; stroke: #cccccc; stroke-linejoin: miter"/>
    </g>
    <g id="line2d_19">
     <path d="M 60.323438 13.098437 
L 70.323438 13.098437 
L 80.323438 13.098437 
" style="fill: none; stroke: #000080; stroke-width: 1.5; stroke-linecap: square"/>
    </g>
    <g id="text_19">
     <!-- Linear Trendline -->
     <g transform="translate(88.323438 16.598437)scale(0.1 -0.1)">
      <defs>
       <path id="DejaVuSans-4c" d="M 628 4666 
L 1259 4666 
L 1259 531 
L 3531 531 
L 3531 0 
L 628 0 
L 628 4666 
z
" transform="scale(0.015625)"/>
       <path id="DejaVuSans-6e" d="M 3513 2113 
L 3513 0 
L 2938 0 
L 2938 2094 
Q 2938 2591 2744 2837 
Q 2550 3084 2163 3084 
Q 1697 3084 1428 2787 
Q 1159 2491 1159 1978 
L 1159 0 
L 581 0 
L 581 3500 
L 1159 3500 
L 1159 2956 
Q 1366 3272 1645 3428 
Q 1925 3584 2291 3584 
Q 2894 3584 3203 3211 
Q 3513 2838 3513 2113 
z
" transform="scale(0.015625)"/>
       <path id="DejaVuSans-54" d="M -19 4666 
L 3928 4666 
L 3928 4134 
L 2272 4134 
L 2272 0 
L 1638 0 
L 1638 4134 
L -19 4134 
L -19 4666 
z
" transform="scale(0.015625)"/>
      </defs>
      <use xlink:href="#DejaVuSans-4c"/>
      <use xlink:href="#DejaVuSans-69" x="55.712891"/>
      <use xlink:href="#DejaVuSans-6e" x="83.496094"/>
      <use xlink:href="#DejaVuSans-65" x="146.875"/>
      <use xlink:href="#DejaVuSans-61" x="208.398438"/>
      <use xlink:href="#DejaVuSans-72" x="269.677734"/>
      <use xlink:href="#DejaVuSans-20" x="310.791016"/>
      <use xlink:href="#DejaVuSans-54" x="342.578125"/>
      <use xlink:href="#DejaVuSans-72" x="388.912109"/>
      <use xlink:href="#DejaVuSans-65" x="427.775391"/>
      <use xlink:href="#DejaVuSans-6e" x="489.298828"/>
      <use xlink:href="#DejaVuSans-64" x="552.677734"/>
      <use xlink:href="#DejaVuSans-6c" x="616.154297"/>
      <use xlink:href="#DejaVuSans-69" x="643.9375"/>
      <use xlink:href="#DejaVuSans-6e" x="671.720703"/>
      <use xlink:href="#DejaVuSans-65" x="735.099609"/>
     </g>
    </g>
    <g id="line2d_20">
     <path d="M 60.323438 27.776562 
L 70.323438 27.776562 
L 80.323438 27.776562 
" style="fill: none; stroke: #ff0000; stroke-width: 1.5; stroke-linecap: square"/>
    </g>
    <g id="text_20">
     <!-- Logarithmic Trendline -->
     <g transform="translate(88.323438 31.276562)scale(0.1 -0.1)">
      <defs>
       <path id="DejaVuSans-6f" d="M 1959 3097 
Q 1497 3097 1228 2736 
Q 959 2375 959 1747 
Q 959 1119 1226 758 
Q 1494 397 1959 397 
Q 2419 397 2687 759 
Q 2956 1122 2956 1747 
Q 2956 2369 2687 2733 
Q 2419 3097 1959 3097 
z
M 1959 3584 
Q 2709 3584 3137 3096 
Q 3566 2609 3566 1747 
Q 3566 888 3137 398 
Q 2709 -91 1959 -91 
Q 1206 -91 779 398 
Q 353 888 353 1747 
Q 353 2609 779 3096 
Q 1206 3584 1959 3584 
z
" transform="scale(0.015625)"/>
       <path id="DejaVuSans-67" d="M 2906 1791 
Q 2906 2416 2648 2759 
Q 2391 3103 1925 3103 
Q 1463 3103 1205 2759 
Q 947 2416 947 1791 
Q 947 1169 1205 825 
Q 1463 481 1925 481 
Q 2391 481 2648 825 
Q 2906 1169 2906 1791 
z
M 3481 434 
Q 3481 -459 3084 -895 
Q 2688 -1331 1869 -1331 
Q 1566 -1331 1297 -1286 
Q 1028 -1241 775 -1147 
L 775 -588 
Q 1028 -725 1275 -790 
Q 1522 -856 1778 -856 
Q 2344 -856 2625 -561 
Q 2906 -266 2906 331 
L 2906 616 
Q 2728 306 2450 153 
Q 2172 0 1784 0 
Q 1141 0 747 490 
Q 353 981 353 1791 
Q 353 2603 747 3093 
Q 1141 3584 1784 3584 
Q 2172 3584 2450 3431 
Q 2728 3278 2906 2969 
L 2906 3500 
L 3481 3500 
L 3481 434 
z
" transform="scale(0.015625)"/>
       <path id="DejaVuSans-68" d="M 3513 2113 
L 3513 0 
L 2938 0 
L 2938 2094 
Q 2938 2591 2744 2837 
Q 2550 3084 2163 3084 
Q 1697 3084 1428 2787 
Q 1159 2491 1159 1978 
L 1159 0 
L 581 0 
L 581 4863 
L 1159 4863 
L 1159 2956 
Q 1366 3272 1645 3428 
Q 1925 3584 2291 3584 
Q 2894 3584 3203 3211 
Q 3513 2838 3513 2113 
z
" transform="scale(0.015625)"/>
       <path id="DejaVuSans-63" d="M 3122 3366 
L 3122 2828 
Q 2878 2963 2633 3030 
Q 2388 3097 2138 3097 
Q 1578 3097 1268 2742 
Q 959 2388 959 1747 
Q 959 1106 1268 751 
Q 1578 397 2138 397 
Q 2388 397 2633 464 
Q 2878 531 3122 666 
L 3122 134 
Q 2881 22 2623 -34 
Q 2366 -91 2075 -91 
Q 1284 -91 818 406 
Q 353 903 353 1747 
Q 353 2603 823 3093 
Q 1294 3584 2113 3584 
Q 2378 3584 2631 3529 
Q 2884 3475 3122 3366 
z
" transform="scale(0.015625)"/>
      </defs>
      <use xlink:href="#DejaVuSans-4c"/>
      <use xlink:href="#DejaVuSans-6f" x="53.962891"/>
      <use xlink:href="#DejaVuSans-67" x="115.144531"/>
      <use xlink:href="#DejaVuSans-61" x="178.621094"/>
      <use xlink:href="#DejaVuSans-72" x="239.900391"/>
      <use xlink:href="#DejaVuSans-69" x="281.013672"/>
      <use xlink:href="#DejaVuSans-74" x="308.796875"/>
      <use xlink:href="#DejaVuSans-68" x="348.005859"/>
      <use xlink:href="#DejaVuSans-6d" x="411.384766"/>
      <use xlink:href="#DejaVuSans-69" x="508.796875"/>
      <use xlink:href="#DejaVuSans-63" x="536.580078"/>
      <use xlink:href="#DejaVuSans-20" x="591.560547"/>
      <use xlink:href="#DejaVuSans-54" x="623.347656"/>
      <use xlink:href="#DejaVuSans-72" x="669.681641"/>
      <use xlink:href="#DejaVuSans-65" x="708.544922"/>
      <use xlink:href="#DejaVuSans-6e" x="770.068359"/>
      <use xlink:href="#DejaVuSans-64" x="833.447266"/>
      <use xlink:href="#DejaVuSans-6c" x="896.923828"/>
      <use xlink:href="#DejaVuSans-69" x="924.707031"/>
      <use xlink:href="#DejaVuSans-6e" x="952.490234"/>
      <use xlink:href="#DejaVuSans-65" x="1015.869141"/>
     </g>
    </g>
   </g>
  </g>
 </g>
 <defs>
  <clipPath id="p1508e5ea0e">
   <rect x="51.323438" y="-0" width="357.12" height="266.112"/>
  </clipPath>
 </defs>
</svg>
