<?xml version="1.0" encoding="utf-8" standalone="no"?>
<!DOCTYPE svg PUBLIC "-//W3C//DTD SVG 1.1//EN"
  "http://www.w3.org/Graphics/SVG/1.1/DTD/svg11.dtd">
<svg xmlns:xlink="http://www.w3.org/1999/xlink" width="407.506431pt" height="297.078545pt" viewBox="0 0 407.506431 297.078545" xmlns="http://www.w3.org/2000/svg" version="1.1">
 <metadata>
  <rdf:RDF xmlns:dc="http://purl.org/dc/elements/1.1/" xmlns:cc="http://creativecommons.org/ns#" xmlns:rdf="http://www.w3.org/1999/02/22-rdf-syntax-ns#">
   <cc:Work>
    <dc:type rdf:resource="http://purl.org/dc/dcmitype/StillImage"/>
    <dc:date>2023-06-13T21:25:03.107416</dc:date>
    <dc:format>image/svg+xml</dc:format>
    <dc:creator>
     <cc:Agent>
      <dc:title>Matplotlib v3.5.2, https://matplotlib.org/</dc:title>
     </cc:Agent>
    </dc:creator>
   </cc:Work>
  </rdf:RDF>
 </metadata>
 <defs>
  <style type="text/css">*{stroke-linejoin: round; stroke-linecap: butt}</style>
 </defs>
 <g id="figure_1">
  <g id="patch_1">
   <path d="M 0 297.078545 
L 407.506431 297.078545 
L 407.506431 0 
L 0 0 
z
" style="fill: #ffffff"/>
  </g>
  <g id="axes_1">
   <g id="patch_2">
    <path d="M 44.960938 266.722295 
L 402.080938 266.722295 
L 402.080938 0.610295 
L 44.960938 0.610295 
z
" style="fill: #ffffff"/>
   </g>
   <g id="PathCollection_1">
    <path d="M 61.193665 243.175759 
L 58.193665 249.175759 
L 64.193665 249.175759 
z
" clip-path="url(#pb31e485ea6)" style="fill: #440154; stroke: #440154"/>
    <path d="M 65.702756 236.364076 
L 62.702756 242.364076 
L 68.702756 242.364076 
z
" clip-path="url(#pb31e485ea6)" style="fill: #470d60; stroke: #470d60"/>
    <path d="M 74.720938 231.040383 
L 71.720938 237.040383 
L 77.720938 237.040383 
z
" clip-path="url(#pb31e485ea6)" style="fill: #481769; stroke: #481769"/>
    <path d="M 76.975483 224.554461 
L 73.975483 230.554461 
L 79.975483 230.554461 
z
" clip-path="url(#pb31e485ea6)" style="fill: #482374; stroke: #482374"/>
    <path d="M 76.975483 217.37044 
L 73.975483 223.37044 
L 79.975483 223.37044 
z
" clip-path="url(#pb31e485ea6)" style="fill: #472e7c; stroke: #472e7c"/>
    <path d="M 79.230028 215.889467 
L 76.230028 221.889467 
L 82.230028 221.889467 
z
" clip-path="url(#pb31e485ea6)" style="fill: #46307e; stroke: #46307e"/>
    <path d="M 79.230028 214.33566 
L 76.230028 220.33566 
L 82.230028 220.33566 
z
" clip-path="url(#pb31e485ea6)" style="fill: #46337f; stroke: #46337f"/>
    <path d="M 79.230028 213.476761 
L 76.230028 219.476761 
L 82.230028 219.476761 
z
" clip-path="url(#pb31e485ea6)" style="fill: #463480; stroke: #463480"/>
    <path d="M 83.739119 207.319032 
L 80.739119 213.319032 
L 86.739119 213.319032 
z
" clip-path="url(#pb31e485ea6)" style="fill: #433e85; stroke: #433e85"/>
    <path d="M 83.739119 206.712139 
L 80.739119 212.712139 
L 86.739119 212.712139 
z
" clip-path="url(#pb31e485ea6)" style="fill: #423f85; stroke: #423f85"/>
    <path d="M 83.739119 205.399818 
L 80.739119 211.399818 
L 86.739119 211.399818 
z
" clip-path="url(#pb31e485ea6)" style="fill: #424086; stroke: #424086"/>
    <path d="M 83.739119 202.747871 
L 80.739119 208.747871 
L 86.739119 208.747871 
z
" clip-path="url(#pb31e485ea6)" style="fill: #404588; stroke: #404588"/>
    <path d="M 85.993665 202.621725 
L 82.993665 208.621725 
L 88.993665 208.621725 
z
" clip-path="url(#pb31e485ea6)" style="fill: #404588; stroke: #404588"/>
    <path d="M 85.993665 201.287722 
L 82.993665 207.287722 
L 88.993665 207.287722 
z
" clip-path="url(#pb31e485ea6)" style="fill: #3f4788; stroke: #3f4788"/>
    <path d="M 88.24821 201.033262 
L 85.24821 207.033262 
L 91.24821 207.033262 
z
" clip-path="url(#pb31e485ea6)" style="fill: #3f4788; stroke: #3f4788"/>
    <path d="M 90.502756 200.980132 
L 87.502756 206.980132 
L 93.502756 206.980132 
z
" clip-path="url(#pb31e485ea6)" style="fill: #3f4788; stroke: #3f4788"/>
    <path d="M 90.502756 198.905488 
L 87.502756 204.905488 
L 93.502756 204.905488 
z
" clip-path="url(#pb31e485ea6)" style="fill: #3e4a89; stroke: #3e4a89"/>
    <path d="M 92.757301 198.351939 
L 89.757301 204.351939 
L 95.757301 204.351939 
z
" clip-path="url(#pb31e485ea6)" style="fill: #3e4a89; stroke: #3e4a89"/>
    <path d="M 95.011847 196.127991 
L 92.011847 202.127991 
L 98.011847 202.127991 
z
" clip-path="url(#pb31e485ea6)" style="fill: #3d4e8a; stroke: #3d4e8a"/>
    <path d="M 97.266392 195.726605 
L 94.266392 201.726605 
L 100.266392 201.726605 
z
" clip-path="url(#pb31e485ea6)" style="fill: #3c4f8a; stroke: #3c4f8a"/>
    <path d="M 99.520938 194.923405 
L 96.520938 200.923405 
L 102.520938 200.923405 
z
" clip-path="url(#pb31e485ea6)" style="fill: #3c508b; stroke: #3c508b"/>
    <path d="M 99.520938 190.895453 
L 96.520938 196.895453 
L 102.520938 196.895453 
z
" clip-path="url(#pb31e485ea6)" style="fill: #39558c; stroke: #39558c"/>
    <path d="M 99.520938 190.295885 
L 96.520938 196.295885 
L 102.520938 196.295885 
z
" clip-path="url(#pb31e485ea6)" style="fill: #39568c; stroke: #39568c"/>
    <path d="M 106.284574 187.117797 
L 103.284574 193.117797 
L 109.284574 193.117797 
z
" clip-path="url(#pb31e485ea6)" style="fill: #375b8d; stroke: #375b8d"/>
    <path d="M 106.284574 186.956721 
L 103.284574 192.956721 
L 109.284574 192.956721 
z
" clip-path="url(#pb31e485ea6)" style="fill: #375b8d; stroke: #375b8d"/>
    <path d="M 108.539119 185.782773 
L 105.539119 191.782773 
L 111.539119 191.782773 
z
" clip-path="url(#pb31e485ea6)" style="fill: #365d8d; stroke: #365d8d"/>
    <path d="M 108.539119 183.120221 
L 105.539119 189.120221 
L 111.539119 189.120221 
z
" clip-path="url(#pb31e485ea6)" style="fill: #34608d; stroke: #34608d"/>
    <path d="M 110.793665 183.10352 
L 107.793665 189.10352 
L 113.793665 189.10352 
z
" clip-path="url(#pb31e485ea6)" style="fill: #34608d; stroke: #34608d"/>
    <path d="M 117.557301 182.467444 
L 114.557301 188.467444 
L 120.557301 188.467444 
z
" clip-path="url(#pb31e485ea6)" style="fill: #34618d; stroke: #34618d"/>
    <path d="M 119.811847 182.320323 
L 116.811847 188.320323 
L 122.811847 188.320323 
z
" clip-path="url(#pb31e485ea6)" style="fill: #34618d; stroke: #34618d"/>
    <path d="M 119.811847 174.321777 
L 116.811847 180.321777 
L 122.811847 180.321777 
z
" clip-path="url(#pb31e485ea6)" style="fill: #2f6b8e; stroke: #2f6b8e"/>
    <path d="M 128.830028 170.755106 
L 125.830028 176.755106 
L 131.830028 176.755106 
z
" clip-path="url(#pb31e485ea6)" style="fill: #2d708e; stroke: #2d708e"/>
    <path d="M 128.830028 170.360324 
L 125.830028 176.360324 
L 131.830028 176.360324 
z
" clip-path="url(#pb31e485ea6)" style="fill: #2d708e; stroke: #2d708e"/>
    <path d="M 128.830028 159.327878 
L 125.830028 165.327878 
L 131.830028 165.327878 
z
" clip-path="url(#pb31e485ea6)" style="fill: #277e8e; stroke: #277e8e"/>
    <path d="M 133.339119 157.035391 
L 130.339119 163.035391 
L 136.339119 163.035391 
z
" clip-path="url(#pb31e485ea6)" style="fill: #26818e; stroke: #26818e"/>
    <path d="M 135.593665 146.938402 
L 132.593665 152.938402 
L 138.593665 152.938402 
z
" clip-path="url(#pb31e485ea6)" style="fill: #228d8d; stroke: #228d8d"/>
    <path d="M 137.84821 145.165599 
L 134.84821 151.165599 
L 140.84821 151.165599 
z
" clip-path="url(#pb31e485ea6)" style="fill: #218f8d; stroke: #218f8d"/>
    <path d="M 140.102756 142.225758 
L 137.102756 148.225758 
L 143.102756 148.225758 
z
" clip-path="url(#pb31e485ea6)" style="fill: #20928c; stroke: #20928c"/>
    <path d="M 140.102756 140.914201 
L 137.102756 146.914201 
L 143.102756 146.914201 
z
" clip-path="url(#pb31e485ea6)" style="fill: #20938c; stroke: #20938c"/>
    <path d="M 140.102756 139.457955 
L 137.102756 145.457955 
L 143.102756 145.457955 
z
" clip-path="url(#pb31e485ea6)" style="fill: #1f958b; stroke: #1f958b"/>
    <path d="M 140.102756 136.81478 
L 137.102756 142.81478 
L 143.102756 142.81478 
z
" clip-path="url(#pb31e485ea6)" style="fill: #1f998a; stroke: #1f998a"/>
    <path d="M 142.357301 136.239073 
L 139.357301 142.239073 
L 145.357301 142.239073 
z
" clip-path="url(#pb31e485ea6)" style="fill: #1f9a8a; stroke: #1f9a8a"/>
    <path d="M 144.611847 135.486092 
L 141.611847 141.486092 
L 147.611847 141.486092 
z
" clip-path="url(#pb31e485ea6)" style="fill: #1f9a8a; stroke: #1f9a8a"/>
    <path d="M 146.866392 135.427306 
L 143.866392 141.427306 
L 149.866392 141.427306 
z
" clip-path="url(#pb31e485ea6)" style="fill: #1e9b8a; stroke: #1e9b8a"/>
    <path d="M 162.64821 133.886797 
L 159.64821 139.886797 
L 165.64821 139.886797 
z
" clip-path="url(#pb31e485ea6)" style="fill: #1e9d89; stroke: #1e9d89"/>
    <path d="M 185.193665 133.515738 
L 182.193665 139.515738 
L 188.193665 139.515738 
z
" clip-path="url(#pb31e485ea6)" style="fill: #1e9d89; stroke: #1e9d89"/>
    <path d="M 189.702756 127.587146 
L 186.702756 133.587146 
L 192.702756 133.587146 
z
" clip-path="url(#pb31e485ea6)" style="fill: #20a486; stroke: #20a486"/>
    <path d="M 205.484574 125.490785 
L 202.484574 131.490785 
L 208.484574 131.490785 
z
" clip-path="url(#pb31e485ea6)" style="fill: #21a685; stroke: #21a685"/>
    <path d="M 207.739119 124.603476 
L 204.739119 130.603476 
L 210.739119 130.603476 
z
" clip-path="url(#pb31e485ea6)" style="fill: #22a884; stroke: #22a884"/>
    <path d="M 214.502756 122.674404 
L 211.502756 128.674404 
L 217.502756 128.674404 
z
" clip-path="url(#pb31e485ea6)" style="fill: #24aa83; stroke: #24aa83"/>
    <path d="M 223.520938 119.045075 
L 220.520938 125.045075 
L 226.520938 125.045075 
z
" clip-path="url(#pb31e485ea6)" style="fill: #28ae80; stroke: #28ae80"/>
    <path d="M 230.284574 109.701399 
L 227.284574 115.701399 
L 233.284574 115.701399 
z
" clip-path="url(#pb31e485ea6)" style="fill: #38b977; stroke: #38b977"/>
    <path d="M 241.557301 105.317003 
L 238.557301 111.317003 
L 244.557301 111.317003 
z
" clip-path="url(#pb31e485ea6)" style="fill: #40bd72; stroke: #40bd72"/>
    <path d="M 248.320938 103.326901 
L 245.320938 109.326901 
L 251.320938 109.326901 
z
" clip-path="url(#pb31e485ea6)" style="fill: #46c06f; stroke: #46c06f"/>
    <path d="M 266.357301 100.87984 
L 263.357301 106.87984 
L 269.357301 106.87984 
z
" clip-path="url(#pb31e485ea6)" style="fill: #4cc26c; stroke: #4cc26c"/>
    <path d="M 385.84821 44.836957 
L 382.84821 50.836957 
L 388.84821 50.836957 
z
" clip-path="url(#pb31e485ea6)" style="fill: #fde725; stroke: #fde725"/>
   </g>
   <g id="matplotlib.axis_1">
    <g id="xtick_1">
     <g id="line2d_1">
      <defs>
       <path id="mae0ee8a76c" d="M 0 0 
L 0 3.5 
" style="stroke: #000000; stroke-width: 0.8"/>
      </defs>
      <g>
       <use xlink:href="#mae0ee8a76c" x="77.445704" y="266.722295" style="stroke: #000000; stroke-width: 0.8"/>
      </g>
     </g>
     <g id="text_1">
      <!-- 2.5 -->
      <g transform="translate(69.494142 281.320732)scale(0.1 -0.1)">
       <defs>
        <path id="DejaVuSans-32" d="M 1228 531 
L 3431 531 
L 3431 0 
L 469 0 
L 469 531 
Q 828 903 1448 1529 
Q 2069 2156 2228 2338 
Q 2531 2678 2651 2914 
Q 2772 3150 2772 3378 
Q 2772 3750 2511 3984 
Q 2250 4219 1831 4219 
Q 1534 4219 1204 4116 
Q 875 4013 500 3803 
L 500 4441 
Q 881 4594 1212 4672 
Q 1544 4750 1819 4750 
Q 2544 4750 2975 4387 
Q 3406 4025 3406 3419 
Q 3406 3131 3298 2873 
Q 3191 2616 2906 2266 
Q 2828 2175 2409 1742 
Q 1991 1309 1228 531 
z
" transform="scale(0.015625)"/>
        <path id="DejaVuSans-2e" d="M 684 794 
L 1344 794 
L 1344 0 
L 684 0 
L 684 794 
z
" transform="scale(0.015625)"/>
        <path id="DejaVuSans-35" d="M 691 4666 
L 3169 4666 
L 3169 4134 
L 1269 4134 
L 1269 2991 
Q 1406 3038 1543 3061 
Q 1681 3084 1819 3084 
Q 2600 3084 3056 2656 
Q 3513 2228 3513 1497 
Q 3513 744 3044 326 
Q 2575 -91 1722 -91 
Q 1428 -91 1123 -41 
Q 819 9 494 109 
L 494 744 
Q 775 591 1075 516 
Q 1375 441 1709 441 
Q 2250 441 2565 725 
Q 2881 1009 2881 1497 
Q 2881 1984 2565 2268 
Q 2250 2553 1709 2553 
Q 1456 2553 1204 2497 
Q 953 2441 691 2322 
L 691 4666 
z
" transform="scale(0.015625)"/>
       </defs>
       <use xlink:href="#DejaVuSans-32"/>
       <use xlink:href="#DejaVuSans-2e" x="63.623047"/>
       <use xlink:href="#DejaVuSans-35" x="95.410156"/>
      </g>
     </g>
    </g>
    <g id="xtick_2">
     <g id="line2d_2">
      <g>
       <use xlink:href="#mae0ee8a76c" x="123.006835" y="266.722295" style="stroke: #000000; stroke-width: 0.8"/>
      </g>
     </g>
     <g id="text_2">
      <!-- 5.0 -->
      <g transform="translate(115.055273 281.320732)scale(0.1 -0.1)">
       <defs>
        <path id="DejaVuSans-30" d="M 2034 4250 
Q 1547 4250 1301 3770 
Q 1056 3291 1056 2328 
Q 1056 1369 1301 889 
Q 1547 409 2034 409 
Q 2525 409 2770 889 
Q 3016 1369 3016 2328 
Q 3016 3291 2770 3770 
Q 2525 4250 2034 4250 
z
M 2034 4750 
Q 2819 4750 3233 4129 
Q 3647 3509 3647 2328 
Q 3647 1150 3233 529 
Q 2819 -91 2034 -91 
Q 1250 -91 836 529 
Q 422 1150 422 2328 
Q 422 3509 836 4129 
Q 1250 4750 2034 4750 
z
" transform="scale(0.015625)"/>
       </defs>
       <use xlink:href="#DejaVuSans-35"/>
       <use xlink:href="#DejaVuSans-2e" x="63.623047"/>
       <use xlink:href="#DejaVuSans-30" x="95.410156"/>
      </g>
     </g>
    </g>
    <g id="xtick_3">
     <g id="line2d_3">
      <g>
       <use xlink:href="#mae0ee8a76c" x="168.567966" y="266.722295" style="stroke: #000000; stroke-width: 0.8"/>
      </g>
     </g>
     <g id="text_3">
      <!-- 7.5 -->
      <g transform="translate(160.616403 281.320732)scale(0.1 -0.1)">
       <defs>
        <path id="DejaVuSans-37" d="M 525 4666 
L 3525 4666 
L 3525 4397 
L 1831 0 
L 1172 0 
L 2766 4134 
L 525 4134 
L 525 4666 
z
" transform="scale(0.015625)"/>
       </defs>
       <use xlink:href="#DejaVuSans-37"/>
       <use xlink:href="#DejaVuSans-2e" x="63.623047"/>
       <use xlink:href="#DejaVuSans-35" x="95.410156"/>
      </g>
     </g>
    </g>
    <g id="xtick_4">
     <g id="line2d_4">
      <g>
       <use xlink:href="#mae0ee8a76c" x="214.129096" y="266.722295" style="stroke: #000000; stroke-width: 0.8"/>
      </g>
     </g>
     <g id="text_4">
      <!-- 10.0 -->
      <g transform="translate(202.996284 281.320732)scale(0.1 -0.1)">
       <defs>
        <path id="DejaVuSans-31" d="M 794 531 
L 1825 531 
L 1825 4091 
L 703 3866 
L 703 4441 
L 1819 4666 
L 2450 4666 
L 2450 531 
L 3481 531 
L 3481 0 
L 794 0 
L 794 531 
z
" transform="scale(0.015625)"/>
       </defs>
       <use xlink:href="#DejaVuSans-31"/>
       <use xlink:href="#DejaVuSans-30" x="63.623047"/>
       <use xlink:href="#DejaVuSans-2e" x="127.246094"/>
       <use xlink:href="#DejaVuSans-30" x="159.033203"/>
      </g>
     </g>
    </g>
    <g id="xtick_5">
     <g id="line2d_5">
      <g>
       <use xlink:href="#mae0ee8a76c" x="259.690227" y="266.722295" style="stroke: #000000; stroke-width: 0.8"/>
      </g>
     </g>
     <g id="text_5">
      <!-- 12.5 -->
      <g transform="translate(248.557414 281.320732)scale(0.1 -0.1)">
       <use xlink:href="#DejaVuSans-31"/>
       <use xlink:href="#DejaVuSans-32" x="63.623047"/>
       <use xlink:href="#DejaVuSans-2e" x="127.246094"/>
       <use xlink:href="#DejaVuSans-35" x="159.033203"/>
      </g>
     </g>
    </g>
    <g id="xtick_6">
     <g id="line2d_6">
      <g>
       <use xlink:href="#mae0ee8a76c" x="305.251357" y="266.722295" style="stroke: #000000; stroke-width: 0.8"/>
      </g>
     </g>
     <g id="text_6">
      <!-- 15.0 -->
      <g transform="translate(294.118545 281.320732)scale(0.1 -0.1)">
       <use xlink:href="#DejaVuSans-31"/>
       <use xlink:href="#DejaVuSans-35" x="63.623047"/>
       <use xlink:href="#DejaVuSans-2e" x="127.246094"/>
       <use xlink:href="#DejaVuSans-30" x="159.033203"/>
      </g>
     </g>
    </g>
    <g id="xtick_7">
     <g id="line2d_7">
      <g>
       <use xlink:href="#mae0ee8a76c" x="350.812488" y="266.722295" style="stroke: #000000; stroke-width: 0.8"/>
      </g>
     </g>
     <g id="text_7">
      <!-- 17.5 -->
      <g transform="translate(339.679675 281.320732)scale(0.1 -0.1)">
       <use xlink:href="#DejaVuSans-31"/>
       <use xlink:href="#DejaVuSans-37" x="63.623047"/>
       <use xlink:href="#DejaVuSans-2e" x="127.246094"/>
       <use xlink:href="#DejaVuSans-35" x="159.033203"/>
      </g>
     </g>
    </g>
    <g id="xtick_8">
     <g id="line2d_8">
      <g>
       <use xlink:href="#mae0ee8a76c" x="396.373618" y="266.722295" style="stroke: #000000; stroke-width: 0.8"/>
      </g>
     </g>
     <g id="text_8">
      <!-- 20.0 -->
      <g transform="translate(385.240806 281.320732)scale(0.1 -0.1)">
       <use xlink:href="#DejaVuSans-32"/>
       <use xlink:href="#DejaVuSans-30" x="63.623047"/>
       <use xlink:href="#DejaVuSans-2e" x="127.246094"/>
       <use xlink:href="#DejaVuSans-30" x="159.033203"/>
      </g>
     </g>
    </g>
    <g id="text_9">
     <!-- Eddy Area [10^3 * km^2] -->
     <g transform="translate(157.921719 294.998857)scale(0.1 -0.1)">
      <defs>
       <path id="DejaVuSans-45" d="M 628 4666 
L 3578 4666 
L 3578 4134 
L 1259 4134 
L 1259 2753 
L 3481 2753 
L 3481 2222 
L 1259 2222 
L 1259 531 
L 3634 531 
L 3634 0 
L 628 0 
L 628 4666 
z
" transform="scale(0.015625)"/>
       <path id="DejaVuSans-64" d="M 2906 2969 
L 2906 4863 
L 3481 4863 
L 3481 0 
L 2906 0 
L 2906 525 
Q 2725 213 2448 61 
Q 2172 -91 1784 -91 
Q 1150 -91 751 415 
Q 353 922 353 1747 
Q 353 2572 751 3078 
Q 1150 3584 1784 3584 
Q 2172 3584 2448 3432 
Q 2725 3281 2906 2969 
z
M 947 1747 
Q 947 1113 1208 752 
Q 1469 391 1925 391 
Q 2381 391 2643 752 
Q 2906 1113 2906 1747 
Q 2906 2381 2643 2742 
Q 2381 3103 1925 3103 
Q 1469 3103 1208 2742 
Q 947 2381 947 1747 
z
" transform="scale(0.015625)"/>
       <path id="DejaVuSans-79" d="M 2059 -325 
Q 1816 -950 1584 -1140 
Q 1353 -1331 966 -1331 
L 506 -1331 
L 506 -850 
L 844 -850 
Q 1081 -850 1212 -737 
Q 1344 -625 1503 -206 
L 1606 56 
L 191 3500 
L 800 3500 
L 1894 763 
L 2988 3500 
L 3597 3500 
L 2059 -325 
z
" transform="scale(0.015625)"/>
       <path id="DejaVuSans-20" transform="scale(0.015625)"/>
       <path id="DejaVuSans-41" d="M 2188 4044 
L 1331 1722 
L 3047 1722 
L 2188 4044 
z
M 1831 4666 
L 2547 4666 
L 4325 0 
L 3669 0 
L 3244 1197 
L 1141 1197 
L 716 0 
L 50 0 
L 1831 4666 
z
" transform="scale(0.015625)"/>
       <path id="DejaVuSans-72" d="M 2631 2963 
Q 2534 3019 2420 3045 
Q 2306 3072 2169 3072 
Q 1681 3072 1420 2755 
Q 1159 2438 1159 1844 
L 1159 0 
L 581 0 
L 581 3500 
L 1159 3500 
L 1159 2956 
Q 1341 3275 1631 3429 
Q 1922 3584 2338 3584 
Q 2397 3584 2469 3576 
Q 2541 3569 2628 3553 
L 2631 2963 
z
" transform="scale(0.015625)"/>
       <path id="DejaVuSans-65" d="M 3597 1894 
L 3597 1613 
L 953 1613 
Q 991 1019 1311 708 
Q 1631 397 2203 397 
Q 2534 397 2845 478 
Q 3156 559 3463 722 
L 3463 178 
Q 3153 47 2828 -22 
Q 2503 -91 2169 -91 
Q 1331 -91 842 396 
Q 353 884 353 1716 
Q 353 2575 817 3079 
Q 1281 3584 2069 3584 
Q 2775 3584 3186 3129 
Q 3597 2675 3597 1894 
z
M 3022 2063 
Q 3016 2534 2758 2815 
Q 2500 3097 2075 3097 
Q 1594 3097 1305 2825 
Q 1016 2553 972 2059 
L 3022 2063 
z
" transform="scale(0.015625)"/>
       <path id="DejaVuSans-61" d="M 2194 1759 
Q 1497 1759 1228 1600 
Q 959 1441 959 1056 
Q 959 750 1161 570 
Q 1363 391 1709 391 
Q 2188 391 2477 730 
Q 2766 1069 2766 1631 
L 2766 1759 
L 2194 1759 
z
M 3341 1997 
L 3341 0 
L 2766 0 
L 2766 531 
Q 2569 213 2275 61 
Q 1981 -91 1556 -91 
Q 1019 -91 701 211 
Q 384 513 384 1019 
Q 384 1609 779 1909 
Q 1175 2209 1959 2209 
L 2766 2209 
L 2766 2266 
Q 2766 2663 2505 2880 
Q 2244 3097 1772 3097 
Q 1472 3097 1187 3025 
Q 903 2953 641 2809 
L 641 3341 
Q 956 3463 1253 3523 
Q 1550 3584 1831 3584 
Q 2591 3584 2966 3190 
Q 3341 2797 3341 1997 
z
" transform="scale(0.015625)"/>
       <path id="DejaVuSans-5b" d="M 550 4863 
L 1875 4863 
L 1875 4416 
L 1125 4416 
L 1125 -397 
L 1875 -397 
L 1875 -844 
L 550 -844 
L 550 4863 
z
" transform="scale(0.015625)"/>
       <path id="DejaVuSans-5e" d="M 2988 4666 
L 4684 2925 
L 4056 2925 
L 2681 4159 
L 1306 2925 
L 678 2925 
L 2375 4666 
L 2988 4666 
z
" transform="scale(0.015625)"/>
       <path id="DejaVuSans-33" d="M 2597 2516 
Q 3050 2419 3304 2112 
Q 3559 1806 3559 1356 
Q 3559 666 3084 287 
Q 2609 -91 1734 -91 
Q 1441 -91 1130 -33 
Q 819 25 488 141 
L 488 750 
Q 750 597 1062 519 
Q 1375 441 1716 441 
Q 2309 441 2620 675 
Q 2931 909 2931 1356 
Q 2931 1769 2642 2001 
Q 2353 2234 1838 2234 
L 1294 2234 
L 1294 2753 
L 1863 2753 
Q 2328 2753 2575 2939 
Q 2822 3125 2822 3475 
Q 2822 3834 2567 4026 
Q 2313 4219 1838 4219 
Q 1578 4219 1281 4162 
Q 984 4106 628 3988 
L 628 4550 
Q 988 4650 1302 4700 
Q 1616 4750 1894 4750 
Q 2613 4750 3031 4423 
Q 3450 4097 3450 3541 
Q 3450 3153 3228 2886 
Q 3006 2619 2597 2516 
z
" transform="scale(0.015625)"/>
       <path id="DejaVuSans-2a" d="M 3009 3897 
L 1888 3291 
L 3009 2681 
L 2828 2375 
L 1778 3009 
L 1778 1831 
L 1422 1831 
L 1422 3009 
L 372 2375 
L 191 2681 
L 1313 3291 
L 191 3897 
L 372 4206 
L 1422 3572 
L 1422 4750 
L 1778 4750 
L 1778 3572 
L 2828 4206 
L 3009 3897 
z
" transform="scale(0.015625)"/>
       <path id="DejaVuSans-6b" d="M 581 4863 
L 1159 4863 
L 1159 1991 
L 2875 3500 
L 3609 3500 
L 1753 1863 
L 3688 0 
L 2938 0 
L 1159 1709 
L 1159 0 
L 581 0 
L 581 4863 
z
" transform="scale(0.015625)"/>
       <path id="DejaVuSans-6d" d="M 3328 2828 
Q 3544 3216 3844 3400 
Q 4144 3584 4550 3584 
Q 5097 3584 5394 3201 
Q 5691 2819 5691 2113 
L 5691 0 
L 5113 0 
L 5113 2094 
Q 5113 2597 4934 2840 
Q 4756 3084 4391 3084 
Q 3944 3084 3684 2787 
Q 3425 2491 3425 1978 
L 3425 0 
L 2847 0 
L 2847 2094 
Q 2847 2600 2669 2842 
Q 2491 3084 2119 3084 
Q 1678 3084 1418 2786 
Q 1159 2488 1159 1978 
L 1159 0 
L 581 0 
L 581 3500 
L 1159 3500 
L 1159 2956 
Q 1356 3278 1631 3431 
Q 1906 3584 2284 3584 
Q 2666 3584 2933 3390 
Q 3200 3197 3328 2828 
z
" transform="scale(0.015625)"/>
       <path id="DejaVuSans-5d" d="M 1947 4863 
L 1947 -844 
L 622 -844 
L 622 -397 
L 1369 -397 
L 1369 4416 
L 622 4416 
L 622 4863 
L 1947 4863 
z
" transform="scale(0.015625)"/>
      </defs>
      <use xlink:href="#DejaVuSans-45"/>
      <use xlink:href="#DejaVuSans-64" x="63.183594"/>
      <use xlink:href="#DejaVuSans-64" x="126.660156"/>
      <use xlink:href="#DejaVuSans-79" x="190.136719"/>
      <use xlink:href="#DejaVuSans-20" x="249.316406"/>
      <use xlink:href="#DejaVuSans-41" x="281.103516"/>
      <use xlink:href="#DejaVuSans-72" x="349.511719"/>
      <use xlink:href="#DejaVuSans-65" x="388.375"/>
      <use xlink:href="#DejaVuSans-61" x="449.898438"/>
      <use xlink:href="#DejaVuSans-20" x="511.177734"/>
      <use xlink:href="#DejaVuSans-5b" x="542.964844"/>
      <use xlink:href="#DejaVuSans-31" x="581.978516"/>
      <use xlink:href="#DejaVuSans-30" x="645.601562"/>
      <use xlink:href="#DejaVuSans-5e" x="709.224609"/>
      <use xlink:href="#DejaVuSans-33" x="793.013672"/>
      <use xlink:href="#DejaVuSans-20" x="856.636719"/>
      <use xlink:href="#DejaVuSans-2a" x="888.423828"/>
      <use xlink:href="#DejaVuSans-20" x="938.423828"/>
      <use xlink:href="#DejaVuSans-6b" x="970.210938"/>
      <use xlink:href="#DejaVuSans-6d" x="1028.121094"/>
      <use xlink:href="#DejaVuSans-5e" x="1125.533203"/>
      <use xlink:href="#DejaVuSans-32" x="1209.322266"/>
      <use xlink:href="#DejaVuSans-5d" x="1272.945312"/>
     </g>
    </g>
   </g>
   <g id="matplotlib.axis_2">
    <g id="ytick_1">
     <g id="line2d_9">
      <defs>
       <path id="mabfcedde0b" d="M 0 0 
L -3.5 0 
" style="stroke: #000000; stroke-width: 0.8"/>
      </defs>
      <g>
       <use xlink:href="#mabfcedde0b" x="44.960938" y="260.370232" style="stroke: #000000; stroke-width: 0.8"/>
      </g>
     </g>
     <g id="text_10">
      <!-- −0.4 -->
      <g transform="translate(13.678125 264.169451)scale(0.1 -0.1)">
       <defs>
        <path id="DejaVuSans-2212" d="M 678 2272 
L 4684 2272 
L 4684 1741 
L 678 1741 
L 678 2272 
z
" transform="scale(0.015625)"/>
        <path id="DejaVuSans-34" d="M 2419 4116 
L 825 1625 
L 2419 1625 
L 2419 4116 
z
M 2253 4666 
L 3047 4666 
L 3047 1625 
L 3713 1625 
L 3713 1100 
L 3047 1100 
L 3047 0 
L 2419 0 
L 2419 1100 
L 313 1100 
L 313 1709 
L 2253 4666 
z
" transform="scale(0.015625)"/>
       </defs>
       <use xlink:href="#DejaVuSans-2212"/>
       <use xlink:href="#DejaVuSans-30" x="83.789062"/>
       <use xlink:href="#DejaVuSans-2e" x="147.412109"/>
       <use xlink:href="#DejaVuSans-34" x="179.199219"/>
      </g>
     </g>
    </g>
    <g id="ytick_2">
     <g id="line2d_10">
      <g>
       <use xlink:href="#mabfcedde0b" x="44.960938" y="228.298855" style="stroke: #000000; stroke-width: 0.8"/>
      </g>
     </g>
     <g id="text_11">
      <!-- −0.2 -->
      <g transform="translate(13.678125 232.098074)scale(0.1 -0.1)">
       <use xlink:href="#DejaVuSans-2212"/>
       <use xlink:href="#DejaVuSans-30" x="83.789062"/>
       <use xlink:href="#DejaVuSans-2e" x="147.412109"/>
       <use xlink:href="#DejaVuSans-32" x="179.199219"/>
      </g>
     </g>
    </g>
    <g id="ytick_3">
     <g id="line2d_11">
      <g>
       <use xlink:href="#mabfcedde0b" x="44.960938" y="196.227479" style="stroke: #000000; stroke-width: 0.8"/>
      </g>
     </g>
     <g id="text_12">
      <!-- 0.0 -->
      <g transform="translate(22.057813 200.026697)scale(0.1 -0.1)">
       <use xlink:href="#DejaVuSans-30"/>
       <use xlink:href="#DejaVuSans-2e" x="63.623047"/>
       <use xlink:href="#DejaVuSans-30" x="95.410156"/>
      </g>
     </g>
    </g>
    <g id="ytick_4">
     <g id="line2d_12">
      <g>
       <use xlink:href="#mabfcedde0b" x="44.960938" y="164.156102" style="stroke: #000000; stroke-width: 0.8"/>
      </g>
     </g>
     <g id="text_13">
      <!-- 0.2 -->
      <g transform="translate(22.057813 167.955321)scale(0.1 -0.1)">
       <use xlink:href="#DejaVuSans-30"/>
       <use xlink:href="#DejaVuSans-2e" x="63.623047"/>
       <use xlink:href="#DejaVuSans-32" x="95.410156"/>
      </g>
     </g>
    </g>
    <g id="ytick_5">
     <g id="line2d_13">
      <g>
       <use xlink:href="#mabfcedde0b" x="44.960938" y="132.084725" style="stroke: #000000; stroke-width: 0.8"/>
      </g>
     </g>
     <g id="text_14">
      <!-- 0.4 -->
      <g transform="translate(22.057813 135.883944)scale(0.1 -0.1)">
       <use xlink:href="#DejaVuSans-30"/>
       <use xlink:href="#DejaVuSans-2e" x="63.623047"/>
       <use xlink:href="#DejaVuSans-34" x="95.410156"/>
      </g>
     </g>
    </g>
    <g id="ytick_6">
     <g id="line2d_14">
      <g>
       <use xlink:href="#mabfcedde0b" x="44.960938" y="100.013349" style="stroke: #000000; stroke-width: 0.8"/>
      </g>
     </g>
     <g id="text_15">
      <!-- 0.6 -->
      <g transform="translate(22.057813 103.812567)scale(0.1 -0.1)">
       <defs>
        <path id="DejaVuSans-36" d="M 2113 2584 
Q 1688 2584 1439 2293 
Q 1191 2003 1191 1497 
Q 1191 994 1439 701 
Q 1688 409 2113 409 
Q 2538 409 2786 701 
Q 3034 994 3034 1497 
Q 3034 2003 2786 2293 
Q 2538 2584 2113 2584 
z
M 3366 4563 
L 3366 3988 
Q 3128 4100 2886 4159 
Q 2644 4219 2406 4219 
Q 1781 4219 1451 3797 
Q 1122 3375 1075 2522 
Q 1259 2794 1537 2939 
Q 1816 3084 2150 3084 
Q 2853 3084 3261 2657 
Q 3669 2231 3669 1497 
Q 3669 778 3244 343 
Q 2819 -91 2113 -91 
Q 1303 -91 875 529 
Q 447 1150 447 2328 
Q 447 3434 972 4092 
Q 1497 4750 2381 4750 
Q 2619 4750 2861 4703 
Q 3103 4656 3366 4563 
z
" transform="scale(0.015625)"/>
       </defs>
       <use xlink:href="#DejaVuSans-30"/>
       <use xlink:href="#DejaVuSans-2e" x="63.623047"/>
       <use xlink:href="#DejaVuSans-36" x="95.410156"/>
      </g>
     </g>
    </g>
    <g id="ytick_7">
     <g id="line2d_15">
      <g>
       <use xlink:href="#mabfcedde0b" x="44.960938" y="67.941972" style="stroke: #000000; stroke-width: 0.8"/>
      </g>
     </g>
     <g id="text_16">
      <!-- 0.8 -->
      <g transform="translate(22.057813 71.741191)scale(0.1 -0.1)">
       <defs>
        <path id="DejaVuSans-38" d="M 2034 2216 
Q 1584 2216 1326 1975 
Q 1069 1734 1069 1313 
Q 1069 891 1326 650 
Q 1584 409 2034 409 
Q 2484 409 2743 651 
Q 3003 894 3003 1313 
Q 3003 1734 2745 1975 
Q 2488 2216 2034 2216 
z
M 1403 2484 
Q 997 2584 770 2862 
Q 544 3141 544 3541 
Q 544 4100 942 4425 
Q 1341 4750 2034 4750 
Q 2731 4750 3128 4425 
Q 3525 4100 3525 3541 
Q 3525 3141 3298 2862 
Q 3072 2584 2669 2484 
Q 3125 2378 3379 2068 
Q 3634 1759 3634 1313 
Q 3634 634 3220 271 
Q 2806 -91 2034 -91 
Q 1263 -91 848 271 
Q 434 634 434 1313 
Q 434 1759 690 2068 
Q 947 2378 1403 2484 
z
M 1172 3481 
Q 1172 3119 1398 2916 
Q 1625 2713 2034 2713 
Q 2441 2713 2670 2916 
Q 2900 3119 2900 3481 
Q 2900 3844 2670 4047 
Q 2441 4250 2034 4250 
Q 1625 4250 1398 4047 
Q 1172 3844 1172 3481 
z
" transform="scale(0.015625)"/>
       </defs>
       <use xlink:href="#DejaVuSans-30"/>
       <use xlink:href="#DejaVuSans-2e" x="63.623047"/>
       <use xlink:href="#DejaVuSans-38" x="95.410156"/>
      </g>
     </g>
    </g>
    <g id="ytick_8">
     <g id="line2d_16">
      <g>
       <use xlink:href="#mabfcedde0b" x="44.960938" y="35.870595" style="stroke: #000000; stroke-width: 0.8"/>
      </g>
     </g>
     <g id="text_17">
      <!-- 1.0 -->
      <g transform="translate(22.057813 39.669814)scale(0.1 -0.1)">
       <use xlink:href="#DejaVuSans-31"/>
       <use xlink:href="#DejaVuSans-2e" x="63.623047"/>
       <use xlink:href="#DejaVuSans-30" x="95.410156"/>
      </g>
     </g>
    </g>
    <g id="ytick_9">
     <g id="line2d_17">
      <g>
       <use xlink:href="#mabfcedde0b" x="44.960938" y="3.799219" style="stroke: #000000; stroke-width: 0.8"/>
      </g>
     </g>
     <g id="text_18">
      <!-- 1.2 -->
      <g transform="translate(22.057813 7.598437)scale(0.1 -0.1)">
       <use xlink:href="#DejaVuSans-31"/>
       <use xlink:href="#DejaVuSans-2e" x="63.623047"/>
       <use xlink:href="#DejaVuSans-32" x="95.410156"/>
      </g>
     </g>
    </g>
    <g id="text_19">
     <!-- Eddy Amplitude [m] -->
     <g transform="translate(7.598438 183.706139)rotate(-90)scale(0.1 -0.1)">
      <defs>
       <path id="DejaVuSans-70" d="M 1159 525 
L 1159 -1331 
L 581 -1331 
L 581 3500 
L 1159 3500 
L 1159 2969 
Q 1341 3281 1617 3432 
Q 1894 3584 2278 3584 
Q 2916 3584 3314 3078 
Q 3713 2572 3713 1747 
Q 3713 922 3314 415 
Q 2916 -91 2278 -91 
Q 1894 -91 1617 61 
Q 1341 213 1159 525 
z
M 3116 1747 
Q 3116 2381 2855 2742 
Q 2594 3103 2138 3103 
Q 1681 3103 1420 2742 
Q 1159 2381 1159 1747 
Q 1159 1113 1420 752 
Q 1681 391 2138 391 
Q 2594 391 2855 752 
Q 3116 1113 3116 1747 
z
" transform="scale(0.015625)"/>
       <path id="DejaVuSans-6c" d="M 603 4863 
L 1178 4863 
L 1178 0 
L 603 0 
L 603 4863 
z
" transform="scale(0.015625)"/>
       <path id="DejaVuSans-69" d="M 603 3500 
L 1178 3500 
L 1178 0 
L 603 0 
L 603 3500 
z
M 603 4863 
L 1178 4863 
L 1178 4134 
L 603 4134 
L 603 4863 
z
" transform="scale(0.015625)"/>
       <path id="DejaVuSans-74" d="M 1172 4494 
L 1172 3500 
L 2356 3500 
L 2356 3053 
L 1172 3053 
L 1172 1153 
Q 1172 725 1289 603 
Q 1406 481 1766 481 
L 2356 481 
L 2356 0 
L 1766 0 
Q 1100 0 847 248 
Q 594 497 594 1153 
L 594 3053 
L 172 3053 
L 172 3500 
L 594 3500 
L 594 4494 
L 1172 4494 
z
" transform="scale(0.015625)"/>
       <path id="DejaVuSans-75" d="M 544 1381 
L 544 3500 
L 1119 3500 
L 1119 1403 
Q 1119 906 1312 657 
Q 1506 409 1894 409 
Q 2359 409 2629 706 
Q 2900 1003 2900 1516 
L 2900 3500 
L 3475 3500 
L 3475 0 
L 2900 0 
L 2900 538 
Q 2691 219 2414 64 
Q 2138 -91 1772 -91 
Q 1169 -91 856 284 
Q 544 659 544 1381 
z
M 1991 3584 
L 1991 3584 
z
" transform="scale(0.015625)"/>
      </defs>
      <use xlink:href="#DejaVuSans-45"/>
      <use xlink:href="#DejaVuSans-64" x="63.183594"/>
      <use xlink:href="#DejaVuSans-64" x="126.660156"/>
      <use xlink:href="#DejaVuSans-79" x="190.136719"/>
      <use xlink:href="#DejaVuSans-20" x="249.316406"/>
      <use xlink:href="#DejaVuSans-41" x="281.103516"/>
      <use xlink:href="#DejaVuSans-6d" x="349.511719"/>
      <use xlink:href="#DejaVuSans-70" x="446.923828"/>
      <use xlink:href="#DejaVuSans-6c" x="510.400391"/>
      <use xlink:href="#DejaVuSans-69" x="538.183594"/>
      <use xlink:href="#DejaVuSans-74" x="565.966797"/>
      <use xlink:href="#DejaVuSans-75" x="605.175781"/>
      <use xlink:href="#DejaVuSans-64" x="668.554688"/>
      <use xlink:href="#DejaVuSans-65" x="732.03125"/>
      <use xlink:href="#DejaVuSans-20" x="793.554688"/>
      <use xlink:href="#DejaVuSans-5b" x="825.341797"/>
      <use xlink:href="#DejaVuSans-6d" x="864.355469"/>
      <use xlink:href="#DejaVuSans-5d" x="961.767578"/>
     </g>
    </g>
   </g>
   <g id="line2d_18">
    <path d="M 61.193665 217.856869 
L 65.702756 215.007555 
L 74.720938 209.308928 
L 76.975483 207.884271 
L 76.975483 207.884271 
L 79.230028 206.459615 
L 79.230028 206.459615 
L 79.230028 206.459615 
L 83.739119 203.610301 
L 83.739119 203.610301 
L 83.739119 203.610301 
L 83.739119 203.610301 
L 85.993665 202.185644 
L 85.993665 202.185644 
L 88.24821 200.760988 
L 90.502756 199.336331 
L 90.502756 199.336331 
L 92.757301 197.911674 
L 95.011847 196.487017 
L 97.266392 195.062361 
L 99.520938 193.637704 
L 99.520938 193.637704 
L 99.520938 193.637704 
L 106.284574 189.363734 
L 106.284574 189.363734 
L 108.539119 187.939077 
L 108.539119 187.939077 
L 110.793665 186.51442 
L 117.557301 182.24045 
L 119.811847 180.815793 
L 119.811847 180.815793 
L 128.830028 175.117166 
L 128.830028 175.117166 
L 128.830028 175.117166 
L 133.339119 172.267852 
L 135.593665 170.843196 
L 137.84821 169.418539 
L 140.102756 167.993882 
L 140.102756 167.993882 
L 140.102756 167.993882 
L 140.102756 167.993882 
L 142.357301 166.569225 
L 144.611847 165.144569 
L 146.866392 163.719912 
L 162.64821 153.747314 
L 185.193665 139.500747 
L 189.702756 136.651433 
L 205.484574 126.678836 
L 207.739119 125.254179 
L 214.502756 120.980209 
L 223.520938 115.281582 
L 230.284574 111.007612 
L 241.557301 103.884328 
L 248.320938 99.610357 
L 266.357301 88.213103 
L 385.84821 12.706295 
" clip-path="url(#pb31e485ea6)" style="fill: none; stroke: #000080; stroke-width: 1.5; stroke-linecap: square"/>
   </g>
   <g id="line2d_19">
    <path d="M 61.193665 254.626295 
L 65.702756 243.806578 
L 74.720938 225.93345 
L 76.975483 222.055213 
L 76.975483 222.055213 
L 79.230028 218.366236 
L 79.230028 218.366236 
L 79.230028 218.366236 
L 83.739119 211.487947 
L 83.739119 211.487947 
L 83.739119 211.487947 
L 83.739119 211.487947 
L 85.993665 208.270056 
L 85.993665 208.270056 
L 88.24821 205.183544 
L 90.502756 202.218104 
L 90.502756 202.218104 
L 92.757301 199.364594 
L 95.011847 196.614871 
L 97.266392 193.961651 
L 99.520938 191.398387 
L 99.520938 191.398387 
L 99.520938 191.398387 
L 106.284574 184.192076 
L 106.284574 184.192076 
L 108.539119 181.934922 
L 108.539119 181.934922 
L 110.793665 179.743202 
L 117.557301 173.525259 
L 119.811847 171.561277 
L 119.811847 171.561277 
L 128.830028 164.178927 
L 128.830028 164.178927 
L 128.830028 164.178927 
L 133.339119 160.74156 
L 135.593665 159.079756 
L 137.84821 157.453693 
L 140.102756 155.861865 
L 140.102756 155.861865 
L 140.102756 155.861865 
L 140.102756 155.861865 
L 142.357301 154.302861 
L 144.611847 152.775353 
L 146.866392 151.278096 
L 162.64821 141.55346 
L 185.193665 129.526731 
L 189.702756 127.335011 
L 205.484574 120.128701 
L 207.739119 119.153087 
L 214.502756 116.299577 
L 223.520938 112.655062 
L 230.284574 110.03252 
L 241.557301 105.854163 
L 248.320938 103.453674 
L 266.357301 97.401722 
L 385.84821 66.261769 
" clip-path="url(#pb31e485ea6)" style="fill: none; stroke: #ff0000; stroke-width: 1.5; stroke-linecap: square"/>
   </g>
   <g id="patch_3">
    <path d="M 44.960938 266.722295 
L 44.960938 0.610295 
" style="fill: none; stroke: #000000; stroke-width: 0.8; stroke-linejoin: miter; stroke-linecap: square"/>
   </g>
   <g id="patch_4">
    <path d="M 402.080938 266.722295 
L 402.080938 0.610295 
" style="fill: none; stroke: #000000; stroke-width: 0.8; stroke-linejoin: miter; stroke-linecap: square"/>
   </g>
   <g id="patch_5">
    <path d="M 44.960938 266.722295 
L 402.080938 266.722295 
" style="fill: none; stroke: #000000; stroke-width: 0.8; stroke-linejoin: miter; stroke-linecap: square"/>
   </g>
   <g id="patch_6">
    <path d="M 44.960938 0.610295 
L 402.080938 0.610295 
" style="fill: none; stroke: #000000; stroke-width: 0.8; stroke-linejoin: miter; stroke-linecap: square"/>
   </g>
   <g id="legend_1">
    <g id="patch_7">
     <path d="M 51.960938 37.966545 
L 191.7 37.966545 
Q 193.7 37.966545 193.7 35.966545 
L 193.7 7.610295 
Q 193.7 5.610295 191.7 5.610295 
L 51.960938 5.610295 
Q 49.960938 5.610295 49.960938 7.610295 
L 49.960938 35.966545 
Q 49.960938 37.966545 51.960938 37.966545 
z
" style="fill: #ffffff; opacity: 0.8; stroke: #cccccc; stroke-linejoin: miter"/>
    </g>
    <g id="line2d_20">
     <path d="M 53.960938 13.708732 
L 63.960938 13.708732 
L 73.960938 13.708732 
" style="fill: none; stroke: #000080; stroke-width: 1.5; stroke-linecap: square"/>
    </g>
    <g id="text_20">
     <!-- Linear Trendline -->
     <g transform="translate(81.960938 17.208732)scale(0.1 -0.1)">
      <defs>
       <path id="DejaVuSans-4c" d="M 628 4666 
L 1259 4666 
L 1259 531 
L 3531 531 
L 3531 0 
L 628 0 
L 628 4666 
z
" transform="scale(0.015625)"/>
       <path id="DejaVuSans-6e" d="M 3513 2113 
L 3513 0 
L 2938 0 
L 2938 2094 
Q 2938 2591 2744 2837 
Q 2550 3084 2163 3084 
Q 1697 3084 1428 2787 
Q 1159 2491 1159 1978 
L 1159 0 
L 581 0 
L 581 3500 
L 1159 3500 
L 1159 2956 
Q 1366 3272 1645 3428 
Q 1925 3584 2291 3584 
Q 2894 3584 3203 3211 
Q 3513 2838 3513 2113 
z
" transform="scale(0.015625)"/>
       <path id="DejaVuSans-54" d="M -19 4666 
L 3928 4666 
L 3928 4134 
L 2272 4134 
L 2272 0 
L 1638 0 
L 1638 4134 
L -19 4134 
L -19 4666 
z
" transform="scale(0.015625)"/>
      </defs>
      <use xlink:href="#DejaVuSans-4c"/>
      <use xlink:href="#DejaVuSans-69" x="55.712891"/>
      <use xlink:href="#DejaVuSans-6e" x="83.496094"/>
      <use xlink:href="#DejaVuSans-65" x="146.875"/>
      <use xlink:href="#DejaVuSans-61" x="208.398438"/>
      <use xlink:href="#DejaVuSans-72" x="269.677734"/>
      <use xlink:href="#DejaVuSans-20" x="310.791016"/>
      <use xlink:href="#DejaVuSans-54" x="342.578125"/>
      <use xlink:href="#DejaVuSans-72" x="388.912109"/>
      <use xlink:href="#DejaVuSans-65" x="427.775391"/>
      <use xlink:href="#DejaVuSans-6e" x="489.298828"/>
      <use xlink:href="#DejaVuSans-64" x="552.677734"/>
      <use xlink:href="#DejaVuSans-6c" x="616.154297"/>
      <use xlink:href="#DejaVuSans-69" x="643.9375"/>
      <use xlink:href="#DejaVuSans-6e" x="671.720703"/>
      <use xlink:href="#DejaVuSans-65" x="735.099609"/>
     </g>
    </g>
    <g id="line2d_21">
     <path d="M 53.960938 28.386857 
L 63.960938 28.386857 
L 73.960938 28.386857 
" style="fill: none; stroke: #ff0000; stroke-width: 1.5; stroke-linecap: square"/>
    </g>
    <g id="text_21">
     <!-- Logarithmic Trendline -->
     <g transform="translate(81.960938 31.886857)scale(0.1 -0.1)">
      <defs>
       <path id="DejaVuSans-6f" d="M 1959 3097 
Q 1497 3097 1228 2736 
Q 959 2375 959 1747 
Q 959 1119 1226 758 
Q 1494 397 1959 397 
Q 2419 397 2687 759 
Q 2956 1122 2956 1747 
Q 2956 2369 2687 2733 
Q 2419 3097 1959 3097 
z
M 1959 3584 
Q 2709 3584 3137 3096 
Q 3566 2609 3566 1747 
Q 3566 888 3137 398 
Q 2709 -91 1959 -91 
Q 1206 -91 779 398 
Q 353 888 353 1747 
Q 353 2609 779 3096 
Q 1206 3584 1959 3584 
z
" transform="scale(0.015625)"/>
       <path id="DejaVuSans-67" d="M 2906 1791 
Q 2906 2416 2648 2759 
Q 2391 3103 1925 3103 
Q 1463 3103 1205 2759 
Q 947 2416 947 1791 
Q 947 1169 1205 825 
Q 1463 481 1925 481 
Q 2391 481 2648 825 
Q 2906 1169 2906 1791 
z
M 3481 434 
Q 3481 -459 3084 -895 
Q 2688 -1331 1869 -1331 
Q 1566 -1331 1297 -1286 
Q 1028 -1241 775 -1147 
L 775 -588 
Q 1028 -725 1275 -790 
Q 1522 -856 1778 -856 
Q 2344 -856 2625 -561 
Q 2906 -266 2906 331 
L 2906 616 
Q 2728 306 2450 153 
Q 2172 0 1784 0 
Q 1141 0 747 490 
Q 353 981 353 1791 
Q 353 2603 747 3093 
Q 1141 3584 1784 3584 
Q 2172 3584 2450 3431 
Q 2728 3278 2906 2969 
L 2906 3500 
L 3481 3500 
L 3481 434 
z
" transform="scale(0.015625)"/>
       <path id="DejaVuSans-68" d="M 3513 2113 
L 3513 0 
L 2938 0 
L 2938 2094 
Q 2938 2591 2744 2837 
Q 2550 3084 2163 3084 
Q 1697 3084 1428 2787 
Q 1159 2491 1159 1978 
L 1159 0 
L 581 0 
L 581 4863 
L 1159 4863 
L 1159 2956 
Q 1366 3272 1645 3428 
Q 1925 3584 2291 3584 
Q 2894 3584 3203 3211 
Q 3513 2838 3513 2113 
z
" transform="scale(0.015625)"/>
       <path id="DejaVuSans-63" d="M 3122 3366 
L 3122 2828 
Q 2878 2963 2633 3030 
Q 2388 3097 2138 3097 
Q 1578 3097 1268 2742 
Q 959 2388 959 1747 
Q 959 1106 1268 751 
Q 1578 397 2138 397 
Q 2388 397 2633 464 
Q 2878 531 3122 666 
L 3122 134 
Q 2881 22 2623 -34 
Q 2366 -91 2075 -91 
Q 1284 -91 818 406 
Q 353 903 353 1747 
Q 353 2603 823 3093 
Q 1294 3584 2113 3584 
Q 2378 3584 2631 3529 
Q 2884 3475 3122 3366 
z
" transform="scale(0.015625)"/>
      </defs>
      <use xlink:href="#DejaVuSans-4c"/>
      <use xlink:href="#DejaVuSans-6f" x="53.962891"/>
      <use xlink:href="#DejaVuSans-67" x="115.144531"/>
      <use xlink:href="#DejaVuSans-61" x="178.621094"/>
      <use xlink:href="#DejaVuSans-72" x="239.900391"/>
      <use xlink:href="#DejaVuSans-69" x="281.013672"/>
      <use xlink:href="#DejaVuSans-74" x="308.796875"/>
      <use xlink:href="#DejaVuSans-68" x="348.005859"/>
      <use xlink:href="#DejaVuSans-6d" x="411.384766"/>
      <use xlink:href="#DejaVuSans-69" x="508.796875"/>
      <use xlink:href="#DejaVuSans-63" x="536.580078"/>
      <use xlink:href="#DejaVuSans-20" x="591.560547"/>
      <use xlink:href="#DejaVuSans-54" x="623.347656"/>
      <use xlink:href="#DejaVuSans-72" x="669.681641"/>
      <use xlink:href="#DejaVuSans-65" x="708.544922"/>
      <use xlink:href="#DejaVuSans-6e" x="770.068359"/>
      <use xlink:href="#DejaVuSans-64" x="833.447266"/>
      <use xlink:href="#DejaVuSans-6c" x="896.923828"/>
      <use xlink:href="#DejaVuSans-69" x="924.707031"/>
      <use xlink:href="#DejaVuSans-6e" x="952.490234"/>
      <use xlink:href="#DejaVuSans-65" x="1015.869141"/>
     </g>
    </g>
   </g>
  </g>
 </g>
 <defs>
  <clipPath id="pb31e485ea6">
   <rect x="44.960938" y="0.610295" width="357.12" height="266.112"/>
  </clipPath>
 </defs>
</svg>
