<?xml version="1.0" encoding="utf-8" standalone="no"?>
<!DOCTYPE svg PUBLIC "-//W3C//DTD SVG 1.1//EN"
  "http://www.w3.org/Graphics/SVG/1.1/DTD/svg11.dtd">
<svg xmlns:xlink="http://www.w3.org/1999/xlink" width="402.080938pt" height="296.67644pt" viewBox="0 0 402.080938 296.67644" xmlns="http://www.w3.org/2000/svg" version="1.1">
 <metadata>
  <rdf:RDF xmlns:dc="http://purl.org/dc/elements/1.1/" xmlns:cc="http://creativecommons.org/ns#" xmlns:rdf="http://www.w3.org/1999/02/22-rdf-syntax-ns#">
   <cc:Work>
    <dc:type rdf:resource="http://purl.org/dc/dcmitype/StillImage"/>
    <dc:date>2023-06-13T21:35:48.559974</dc:date>
    <dc:format>image/svg+xml</dc:format>
    <dc:creator>
     <cc:Agent>
      <dc:title>Matplotlib v3.5.2, https://matplotlib.org/</dc:title>
     </cc:Agent>
    </dc:creator>
   </cc:Work>
  </rdf:RDF>
 </metadata>
 <defs>
  <style type="text/css">*{stroke-linejoin: round; stroke-linecap: butt}</style>
 </defs>
 <g id="figure_1">
  <g id="patch_1">
   <path d="M 0 296.67644 
L 402.080938 296.67644 
L 402.080938 0 
L 0 0 
z
" style="fill: #ffffff"/>
  </g>
  <g id="axes_1">
   <g id="patch_2">
    <path d="M 44.960938 266.32019 
L 402.080938 266.32019 
L 402.080938 0.20819 
L 44.960938 0.20819 
z
" style="fill: #ffffff"/>
   </g>
   <g id="PathCollection_1">
    <path d="M 61.193665 251.22419 
L 58.193665 257.22419 
L 64.193665 257.22419 
z
" clip-path="url(#p0eadcb952b)" style="fill: #440154; stroke: #440154"/>
    <path d="M 61.193665 239.397395 
L 58.193665 245.397395 
L 64.193665 245.397395 
z
" clip-path="url(#p0eadcb952b)" style="fill: #481769; stroke: #481769"/>
    <path d="M 67.686756 238.874845 
L 64.686756 244.874845 
L 70.686756 244.874845 
z
" clip-path="url(#p0eadcb952b)" style="fill: #48186a; stroke: #48186a"/>
    <path d="M 67.686756 228.894689 
L 64.686756 234.894689 
L 70.686756 234.894689 
z
" clip-path="url(#p0eadcb952b)" style="fill: #482979; stroke: #482979"/>
    <path d="M 70.933301 226.888203 
L 67.933301 232.888203 
L 73.933301 232.888203 
z
" clip-path="url(#p0eadcb952b)" style="fill: #472d7b; stroke: #472d7b"/>
    <path d="M 70.933301 214.971288 
L 67.933301 220.971288 
L 73.933301 220.971288 
z
" clip-path="url(#p0eadcb952b)" style="fill: #424086; stroke: #424086"/>
    <path d="M 77.426392 214.293257 
L 74.426392 220.293257 
L 80.426392 220.293257 
z
" clip-path="url(#p0eadcb952b)" style="fill: #424186; stroke: #424186"/>
    <path d="M 80.672938 211.409002 
L 77.672938 217.409002 
L 83.672938 217.409002 
z
" clip-path="url(#p0eadcb952b)" style="fill: #404688; stroke: #404688"/>
    <path d="M 80.672938 209.269558 
L 77.672938 215.269558 
L 83.672938 215.269558 
z
" clip-path="url(#p0eadcb952b)" style="fill: #3e4989; stroke: #3e4989"/>
    <path d="M 80.672938 208.89334 
L 77.672938 214.89334 
L 83.672938 214.89334 
z
" clip-path="url(#p0eadcb952b)" style="fill: #3e4989; stroke: #3e4989"/>
    <path d="M 80.672938 207.394942 
L 77.672938 213.394942 
L 83.672938 213.394942 
z
" clip-path="url(#p0eadcb952b)" style="fill: #3e4c8a; stroke: #3e4c8a"/>
    <path d="M 80.672938 205.162029 
L 77.672938 211.162029 
L 83.672938 211.162029 
z
" clip-path="url(#p0eadcb952b)" style="fill: #3c4f8a; stroke: #3c4f8a"/>
    <path d="M 83.919483 203.405288 
L 80.919483 209.405288 
L 86.919483 209.405288 
z
" clip-path="url(#p0eadcb952b)" style="fill: #3b518b; stroke: #3b518b"/>
    <path d="M 83.919483 202.04887 
L 80.919483 208.04887 
L 86.919483 208.04887 
z
" clip-path="url(#p0eadcb952b)" style="fill: #3a538b; stroke: #3a538b"/>
    <path d="M 87.166028 200.898444 
L 84.166028 206.898444 
L 90.166028 206.898444 
z
" clip-path="url(#p0eadcb952b)" style="fill: #39558c; stroke: #39558c"/>
    <path d="M 90.412574 199.366526 
L 87.412574 205.366526 
L 93.412574 205.366526 
z
" clip-path="url(#p0eadcb952b)" style="fill: #38588c; stroke: #38588c"/>
    <path d="M 90.412574 198.682268 
L 87.412574 204.682268 
L 93.412574 204.682268 
z
" clip-path="url(#p0eadcb952b)" style="fill: #38598c; stroke: #38598c"/>
    <path d="M 90.412574 198.451127 
L 87.412574 204.451127 
L 93.412574 204.451127 
z
" clip-path="url(#p0eadcb952b)" style="fill: #38598c; stroke: #38598c"/>
    <path d="M 90.412574 197.918521 
L 87.412574 203.918521 
L 93.412574 203.918521 
z
" clip-path="url(#p0eadcb952b)" style="fill: #375a8c; stroke: #375a8c"/>
    <path d="M 100.15221 197.467169 
L 97.15221 203.467169 
L 103.15221 203.467169 
z
" clip-path="url(#p0eadcb952b)" style="fill: #375a8c; stroke: #375a8c"/>
    <path d="M 106.645301 197.396719 
L 103.645301 203.396719 
L 109.645301 203.396719 
z
" clip-path="url(#p0eadcb952b)" style="fill: #375a8c; stroke: #375a8c"/>
    <path d="M 106.645301 196.508581 
L 103.645301 202.508581 
L 109.645301 202.508581 
z
" clip-path="url(#p0eadcb952b)" style="fill: #365c8d; stroke: #365c8d"/>
    <path d="M 106.645301 195.866268 
L 103.645301 201.866268 
L 109.645301 201.866268 
z
" clip-path="url(#p0eadcb952b)" style="fill: #365d8d; stroke: #365d8d"/>
    <path d="M 113.138392 193.133955 
L 110.138392 199.133955 
L 116.138392 199.133955 
z
" clip-path="url(#p0eadcb952b)" style="fill: #34608d; stroke: #34608d"/>
    <path d="M 116.384938 193.11846 
L 113.384938 199.11846 
L 119.384938 199.11846 
z
" clip-path="url(#p0eadcb952b)" style="fill: #34608d; stroke: #34608d"/>
    <path d="M 116.384938 192.70123 
L 113.384938 198.70123 
L 119.384938 198.70123 
z
" clip-path="url(#p0eadcb952b)" style="fill: #34618d; stroke: #34618d"/>
    <path d="M 116.384938 192.447045 
L 113.384938 198.447045 
L 119.384938 198.447045 
z
" clip-path="url(#p0eadcb952b)" style="fill: #34618d; stroke: #34618d"/>
    <path d="M 119.631483 185.494106 
L 116.631483 191.494106 
L 122.631483 191.494106 
z
" clip-path="url(#p0eadcb952b)" style="fill: #306a8e; stroke: #306a8e"/>
    <path d="M 122.878028 183.636469 
L 119.878028 189.636469 
L 125.878028 189.636469 
z
" clip-path="url(#p0eadcb952b)" style="fill: #2e6d8e; stroke: #2e6d8e"/>
    <path d="M 122.878028 174.593216 
L 119.878028 180.593216 
L 125.878028 180.593216 
z
" clip-path="url(#p0eadcb952b)" style="fill: #2a788e; stroke: #2a788e"/>
    <path d="M 129.371119 171.469928 
L 126.371119 177.469928 
L 132.371119 177.469928 
z
" clip-path="url(#p0eadcb952b)" style="fill: #287c8e; stroke: #287c8e"/>
    <path d="M 129.371119 170.987977 
L 126.371119 176.987977 
L 132.371119 176.987977 
z
" clip-path="url(#p0eadcb952b)" style="fill: #287d8e; stroke: #287d8e"/>
    <path d="M 129.371119 164.895499 
L 126.371119 170.895499 
L 132.371119 170.895499 
z
" clip-path="url(#p0eadcb952b)" style="fill: #25848e; stroke: #25848e"/>
    <path d="M 132.617665 164.795037 
L 129.617665 170.795037 
L 135.617665 170.795037 
z
" clip-path="url(#p0eadcb952b)" style="fill: #25848e; stroke: #25848e"/>
    <path d="M 135.86421 159.22617 
L 132.86421 165.22617 
L 138.86421 165.22617 
z
" clip-path="url(#p0eadcb952b)" style="fill: #228c8d; stroke: #228c8d"/>
    <path d="M 142.357301 157.068835 
L 139.357301 163.068835 
L 145.357301 163.068835 
z
" clip-path="url(#p0eadcb952b)" style="fill: #218e8d; stroke: #218e8d"/>
    <path d="M 142.357301 149.957791 
L 139.357301 155.957791 
L 145.357301 155.957791 
z
" clip-path="url(#p0eadcb952b)" style="fill: #1f978b; stroke: #1f978b"/>
    <path d="M 148.850392 147.435255 
L 145.850392 153.435255 
L 151.850392 153.435255 
z
" clip-path="url(#p0eadcb952b)" style="fill: #1f9a8a; stroke: #1f9a8a"/>
    <path d="M 148.850392 145.970507 
L 145.850392 151.970507 
L 151.850392 151.970507 
z
" clip-path="url(#p0eadcb952b)" style="fill: #1e9c89; stroke: #1e9c89"/>
    <path d="M 148.850392 143.411153 
L 145.850392 149.411153 
L 151.850392 149.411153 
z
" clip-path="url(#p0eadcb952b)" style="fill: #1fa088; stroke: #1fa088"/>
    <path d="M 152.096938 139.145318 
L 149.096938 145.145318 
L 155.096938 145.145318 
z
" clip-path="url(#p0eadcb952b)" style="fill: #20a486; stroke: #20a486"/>
    <path d="M 152.096938 138.745779 
L 149.096938 144.745779 
L 155.096938 144.745779 
z
" clip-path="url(#p0eadcb952b)" style="fill: #21a585; stroke: #21a585"/>
    <path d="M 155.343483 137.081558 
L 152.343483 143.081558 
L 158.343483 143.081558 
z
" clip-path="url(#p0eadcb952b)" style="fill: #22a785; stroke: #22a785"/>
    <path d="M 171.57621 135.299705 
L 168.57621 141.299705 
L 174.57621 141.299705 
z
" clip-path="url(#p0eadcb952b)" style="fill: #23a983; stroke: #23a983"/>
    <path d="M 181.315847 133.83454 
L 178.315847 139.83454 
L 184.315847 139.83454 
z
" clip-path="url(#p0eadcb952b)" style="fill: #25ab82; stroke: #25ab82"/>
    <path d="M 184.562392 130.040471 
L 181.562392 136.040471 
L 187.562392 136.040471 
z
" clip-path="url(#p0eadcb952b)" style="fill: #2ab07f; stroke: #2ab07f"/>
    <path d="M 184.562392 118.51117 
L 181.562392 124.51117 
L 187.562392 124.51117 
z
" clip-path="url(#p0eadcb952b)" style="fill: #40bd72; stroke: #40bd72"/>
    <path d="M 194.302028 116.080511 
L 191.302028 122.080511 
L 197.302028 122.080511 
z
" clip-path="url(#p0eadcb952b)" style="fill: #46c06f; stroke: #46c06f"/>
    <path d="M 197.548574 115.416413 
L 194.548574 121.416413 
L 200.548574 121.416413 
z
" clip-path="url(#p0eadcb952b)" style="fill: #48c16e; stroke: #48c16e"/>
    <path d="M 207.28821 112.672041 
L 204.28821 118.672041 
L 210.28821 118.672041 
z
" clip-path="url(#p0eadcb952b)" style="fill: #50c46a; stroke: #50c46a"/>
    <path d="M 210.534756 112.252294 
L 207.534756 118.252294 
L 213.534756 118.252294 
z
" clip-path="url(#p0eadcb952b)" style="fill: #50c46a; stroke: #50c46a"/>
    <path d="M 217.027847 108.906642 
L 214.027847 114.906642 
L 220.027847 114.906642 
z
" clip-path="url(#p0eadcb952b)" style="fill: #5ac864; stroke: #5ac864"/>
    <path d="M 236.507119 106.163432 
L 233.507119 112.163432 
L 239.507119 112.163432 
z
" clip-path="url(#p0eadcb952b)" style="fill: #60ca60; stroke: #60ca60"/>
    <path d="M 239.753665 105.878511 
L 236.753665 111.878511 
L 242.753665 111.878511 
z
" clip-path="url(#p0eadcb952b)" style="fill: #63cb5f; stroke: #63cb5f"/>
    <path d="M 246.246756 99.800074 
L 243.246756 105.800074 
L 249.246756 105.800074 
z
" clip-path="url(#p0eadcb952b)" style="fill: #75d054; stroke: #75d054"/>
    <path d="M 265.726028 98.377097 
L 262.726028 104.377097 
L 268.726028 104.377097 
z
" clip-path="url(#p0eadcb952b)" style="fill: #7ad151; stroke: #7ad151"/>
    <path d="M 272.219119 93.522545 
L 269.219119 99.522545 
L 275.219119 99.522545 
z
" clip-path="url(#p0eadcb952b)" style="fill: #89d548; stroke: #89d548"/>
    <path d="M 304.684574 75.591836 
L 301.684574 81.591836 
L 307.684574 81.591836 
z
" clip-path="url(#p0eadcb952b)" style="fill: #c8e020; stroke: #c8e020"/>
    <path d="M 385.84821 59.75425 
L 382.84821 65.75425 
L 388.84821 65.75425 
z
" clip-path="url(#p0eadcb952b)" style="fill: #fde725; stroke: #fde725"/>
   </g>
   <g id="matplotlib.axis_1">
    <g id="xtick_1">
     <g id="line2d_1">
      <defs>
       <path id="me7e2ec9735" d="M 0 0 
L 0 3.5 
" style="stroke: #000000; stroke-width: 0.8"/>
      </defs>
      <g>
       <use xlink:href="#me7e2ec9735" x="51.995724" y="266.32019" style="stroke: #000000; stroke-width: 0.8"/>
      </g>
     </g>
     <g id="text_1">
      <!-- 2 -->
      <g transform="translate(48.814474 280.918628)scale(0.1 -0.1)">
       <defs>
        <path id="DejaVuSans-32" d="M 1228 531 
L 3431 531 
L 3431 0 
L 469 0 
L 469 531 
Q 828 903 1448 1529 
Q 2069 2156 2228 2338 
Q 2531 2678 2651 2914 
Q 2772 3150 2772 3378 
Q 2772 3750 2511 3984 
Q 2250 4219 1831 4219 
Q 1534 4219 1204 4116 
Q 875 4013 500 3803 
L 500 4441 
Q 881 4594 1212 4672 
Q 1544 4750 1819 4750 
Q 2544 4750 2975 4387 
Q 3406 4025 3406 3419 
Q 3406 3131 3298 2873 
Q 3191 2616 2906 2266 
Q 2828 2175 2409 1742 
Q 1991 1309 1228 531 
z
" transform="scale(0.015625)"/>
       </defs>
       <use xlink:href="#DejaVuSans-32"/>
      </g>
     </g>
    </g>
    <g id="xtick_2">
     <g id="line2d_2">
      <g>
       <use xlink:href="#me7e2ec9735" x="104.482146" y="266.32019" style="stroke: #000000; stroke-width: 0.8"/>
      </g>
     </g>
     <g id="text_2">
      <!-- 4 -->
      <g transform="translate(101.300896 280.918628)scale(0.1 -0.1)">
       <defs>
        <path id="DejaVuSans-34" d="M 2419 4116 
L 825 1625 
L 2419 1625 
L 2419 4116 
z
M 2253 4666 
L 3047 4666 
L 3047 1625 
L 3713 1625 
L 3713 1100 
L 3047 1100 
L 3047 0 
L 2419 0 
L 2419 1100 
L 313 1100 
L 313 1709 
L 2253 4666 
z
" transform="scale(0.015625)"/>
       </defs>
       <use xlink:href="#DejaVuSans-34"/>
      </g>
     </g>
    </g>
    <g id="xtick_3">
     <g id="line2d_3">
      <g>
       <use xlink:href="#me7e2ec9735" x="156.968568" y="266.32019" style="stroke: #000000; stroke-width: 0.8"/>
      </g>
     </g>
     <g id="text_3">
      <!-- 6 -->
      <g transform="translate(153.787318 280.918628)scale(0.1 -0.1)">
       <defs>
        <path id="DejaVuSans-36" d="M 2113 2584 
Q 1688 2584 1439 2293 
Q 1191 2003 1191 1497 
Q 1191 994 1439 701 
Q 1688 409 2113 409 
Q 2538 409 2786 701 
Q 3034 994 3034 1497 
Q 3034 2003 2786 2293 
Q 2538 2584 2113 2584 
z
M 3366 4563 
L 3366 3988 
Q 3128 4100 2886 4159 
Q 2644 4219 2406 4219 
Q 1781 4219 1451 3797 
Q 1122 3375 1075 2522 
Q 1259 2794 1537 2939 
Q 1816 3084 2150 3084 
Q 2853 3084 3261 2657 
Q 3669 2231 3669 1497 
Q 3669 778 3244 343 
Q 2819 -91 2113 -91 
Q 1303 -91 875 529 
Q 447 1150 447 2328 
Q 447 3434 972 4092 
Q 1497 4750 2381 4750 
Q 2619 4750 2861 4703 
Q 3103 4656 3366 4563 
z
" transform="scale(0.015625)"/>
       </defs>
       <use xlink:href="#DejaVuSans-36"/>
      </g>
     </g>
    </g>
    <g id="xtick_4">
     <g id="line2d_4">
      <g>
       <use xlink:href="#me7e2ec9735" x="209.454991" y="266.32019" style="stroke: #000000; stroke-width: 0.8"/>
      </g>
     </g>
     <g id="text_4">
      <!-- 8 -->
      <g transform="translate(206.273741 280.918628)scale(0.1 -0.1)">
       <defs>
        <path id="DejaVuSans-38" d="M 2034 2216 
Q 1584 2216 1326 1975 
Q 1069 1734 1069 1313 
Q 1069 891 1326 650 
Q 1584 409 2034 409 
Q 2484 409 2743 651 
Q 3003 894 3003 1313 
Q 3003 1734 2745 1975 
Q 2488 2216 2034 2216 
z
M 1403 2484 
Q 997 2584 770 2862 
Q 544 3141 544 3541 
Q 544 4100 942 4425 
Q 1341 4750 2034 4750 
Q 2731 4750 3128 4425 
Q 3525 4100 3525 3541 
Q 3525 3141 3298 2862 
Q 3072 2584 2669 2484 
Q 3125 2378 3379 2068 
Q 3634 1759 3634 1313 
Q 3634 634 3220 271 
Q 2806 -91 2034 -91 
Q 1263 -91 848 271 
Q 434 634 434 1313 
Q 434 1759 690 2068 
Q 947 2378 1403 2484 
z
M 1172 3481 
Q 1172 3119 1398 2916 
Q 1625 2713 2034 2713 
Q 2441 2713 2670 2916 
Q 2900 3119 2900 3481 
Q 2900 3844 2670 4047 
Q 2441 4250 2034 4250 
Q 1625 4250 1398 4047 
Q 1172 3844 1172 3481 
z
" transform="scale(0.015625)"/>
       </defs>
       <use xlink:href="#DejaVuSans-38"/>
      </g>
     </g>
    </g>
    <g id="xtick_5">
     <g id="line2d_5">
      <g>
       <use xlink:href="#me7e2ec9735" x="261.941413" y="266.32019" style="stroke: #000000; stroke-width: 0.8"/>
      </g>
     </g>
     <g id="text_5">
      <!-- 10 -->
      <g transform="translate(255.578913 280.918628)scale(0.1 -0.1)">
       <defs>
        <path id="DejaVuSans-31" d="M 794 531 
L 1825 531 
L 1825 4091 
L 703 3866 
L 703 4441 
L 1819 4666 
L 2450 4666 
L 2450 531 
L 3481 531 
L 3481 0 
L 794 0 
L 794 531 
z
" transform="scale(0.015625)"/>
        <path id="DejaVuSans-30" d="M 2034 4250 
Q 1547 4250 1301 3770 
Q 1056 3291 1056 2328 
Q 1056 1369 1301 889 
Q 1547 409 2034 409 
Q 2525 409 2770 889 
Q 3016 1369 3016 2328 
Q 3016 3291 2770 3770 
Q 2525 4250 2034 4250 
z
M 2034 4750 
Q 2819 4750 3233 4129 
Q 3647 3509 3647 2328 
Q 3647 1150 3233 529 
Q 2819 -91 2034 -91 
Q 1250 -91 836 529 
Q 422 1150 422 2328 
Q 422 3509 836 4129 
Q 1250 4750 2034 4750 
z
" transform="scale(0.015625)"/>
       </defs>
       <use xlink:href="#DejaVuSans-31"/>
       <use xlink:href="#DejaVuSans-30" x="63.623047"/>
      </g>
     </g>
    </g>
    <g id="xtick_6">
     <g id="line2d_6">
      <g>
       <use xlink:href="#me7e2ec9735" x="314.427836" y="266.32019" style="stroke: #000000; stroke-width: 0.8"/>
      </g>
     </g>
     <g id="text_6">
      <!-- 12 -->
      <g transform="translate(308.065336 280.918628)scale(0.1 -0.1)">
       <use xlink:href="#DejaVuSans-31"/>
       <use xlink:href="#DejaVuSans-32" x="63.623047"/>
      </g>
     </g>
    </g>
    <g id="xtick_7">
     <g id="line2d_7">
      <g>
       <use xlink:href="#me7e2ec9735" x="366.914258" y="266.32019" style="stroke: #000000; stroke-width: 0.8"/>
      </g>
     </g>
     <g id="text_7">
      <!-- 14 -->
      <g transform="translate(360.551758 280.918628)scale(0.1 -0.1)">
       <use xlink:href="#DejaVuSans-31"/>
       <use xlink:href="#DejaVuSans-34" x="63.623047"/>
      </g>
     </g>
    </g>
    <g id="text_8">
     <!-- Eddy Area [10^3 * km^2] -->
     <g transform="translate(157.921719 294.596753)scale(0.1 -0.1)">
      <defs>
       <path id="DejaVuSans-45" d="M 628 4666 
L 3578 4666 
L 3578 4134 
L 1259 4134 
L 1259 2753 
L 3481 2753 
L 3481 2222 
L 1259 2222 
L 1259 531 
L 3634 531 
L 3634 0 
L 628 0 
L 628 4666 
z
" transform="scale(0.015625)"/>
       <path id="DejaVuSans-64" d="M 2906 2969 
L 2906 4863 
L 3481 4863 
L 3481 0 
L 2906 0 
L 2906 525 
Q 2725 213 2448 61 
Q 2172 -91 1784 -91 
Q 1150 -91 751 415 
Q 353 922 353 1747 
Q 353 2572 751 3078 
Q 1150 3584 1784 3584 
Q 2172 3584 2448 3432 
Q 2725 3281 2906 2969 
z
M 947 1747 
Q 947 1113 1208 752 
Q 1469 391 1925 391 
Q 2381 391 2643 752 
Q 2906 1113 2906 1747 
Q 2906 2381 2643 2742 
Q 2381 3103 1925 3103 
Q 1469 3103 1208 2742 
Q 947 2381 947 1747 
z
" transform="scale(0.015625)"/>
       <path id="DejaVuSans-79" d="M 2059 -325 
Q 1816 -950 1584 -1140 
Q 1353 -1331 966 -1331 
L 506 -1331 
L 506 -850 
L 844 -850 
Q 1081 -850 1212 -737 
Q 1344 -625 1503 -206 
L 1606 56 
L 191 3500 
L 800 3500 
L 1894 763 
L 2988 3500 
L 3597 3500 
L 2059 -325 
z
" transform="scale(0.015625)"/>
       <path id="DejaVuSans-20" transform="scale(0.015625)"/>
       <path id="DejaVuSans-41" d="M 2188 4044 
L 1331 1722 
L 3047 1722 
L 2188 4044 
z
M 1831 4666 
L 2547 4666 
L 4325 0 
L 3669 0 
L 3244 1197 
L 1141 1197 
L 716 0 
L 50 0 
L 1831 4666 
z
" transform="scale(0.015625)"/>
       <path id="DejaVuSans-72" d="M 2631 2963 
Q 2534 3019 2420 3045 
Q 2306 3072 2169 3072 
Q 1681 3072 1420 2755 
Q 1159 2438 1159 1844 
L 1159 0 
L 581 0 
L 581 3500 
L 1159 3500 
L 1159 2956 
Q 1341 3275 1631 3429 
Q 1922 3584 2338 3584 
Q 2397 3584 2469 3576 
Q 2541 3569 2628 3553 
L 2631 2963 
z
" transform="scale(0.015625)"/>
       <path id="DejaVuSans-65" d="M 3597 1894 
L 3597 1613 
L 953 1613 
Q 991 1019 1311 708 
Q 1631 397 2203 397 
Q 2534 397 2845 478 
Q 3156 559 3463 722 
L 3463 178 
Q 3153 47 2828 -22 
Q 2503 -91 2169 -91 
Q 1331 -91 842 396 
Q 353 884 353 1716 
Q 353 2575 817 3079 
Q 1281 3584 2069 3584 
Q 2775 3584 3186 3129 
Q 3597 2675 3597 1894 
z
M 3022 2063 
Q 3016 2534 2758 2815 
Q 2500 3097 2075 3097 
Q 1594 3097 1305 2825 
Q 1016 2553 972 2059 
L 3022 2063 
z
" transform="scale(0.015625)"/>
       <path id="DejaVuSans-61" d="M 2194 1759 
Q 1497 1759 1228 1600 
Q 959 1441 959 1056 
Q 959 750 1161 570 
Q 1363 391 1709 391 
Q 2188 391 2477 730 
Q 2766 1069 2766 1631 
L 2766 1759 
L 2194 1759 
z
M 3341 1997 
L 3341 0 
L 2766 0 
L 2766 531 
Q 2569 213 2275 61 
Q 1981 -91 1556 -91 
Q 1019 -91 701 211 
Q 384 513 384 1019 
Q 384 1609 779 1909 
Q 1175 2209 1959 2209 
L 2766 2209 
L 2766 2266 
Q 2766 2663 2505 2880 
Q 2244 3097 1772 3097 
Q 1472 3097 1187 3025 
Q 903 2953 641 2809 
L 641 3341 
Q 956 3463 1253 3523 
Q 1550 3584 1831 3584 
Q 2591 3584 2966 3190 
Q 3341 2797 3341 1997 
z
" transform="scale(0.015625)"/>
       <path id="DejaVuSans-5b" d="M 550 4863 
L 1875 4863 
L 1875 4416 
L 1125 4416 
L 1125 -397 
L 1875 -397 
L 1875 -844 
L 550 -844 
L 550 4863 
z
" transform="scale(0.015625)"/>
       <path id="DejaVuSans-5e" d="M 2988 4666 
L 4684 2925 
L 4056 2925 
L 2681 4159 
L 1306 2925 
L 678 2925 
L 2375 4666 
L 2988 4666 
z
" transform="scale(0.015625)"/>
       <path id="DejaVuSans-33" d="M 2597 2516 
Q 3050 2419 3304 2112 
Q 3559 1806 3559 1356 
Q 3559 666 3084 287 
Q 2609 -91 1734 -91 
Q 1441 -91 1130 -33 
Q 819 25 488 141 
L 488 750 
Q 750 597 1062 519 
Q 1375 441 1716 441 
Q 2309 441 2620 675 
Q 2931 909 2931 1356 
Q 2931 1769 2642 2001 
Q 2353 2234 1838 2234 
L 1294 2234 
L 1294 2753 
L 1863 2753 
Q 2328 2753 2575 2939 
Q 2822 3125 2822 3475 
Q 2822 3834 2567 4026 
Q 2313 4219 1838 4219 
Q 1578 4219 1281 4162 
Q 984 4106 628 3988 
L 628 4550 
Q 988 4650 1302 4700 
Q 1616 4750 1894 4750 
Q 2613 4750 3031 4423 
Q 3450 4097 3450 3541 
Q 3450 3153 3228 2886 
Q 3006 2619 2597 2516 
z
" transform="scale(0.015625)"/>
       <path id="DejaVuSans-2a" d="M 3009 3897 
L 1888 3291 
L 3009 2681 
L 2828 2375 
L 1778 3009 
L 1778 1831 
L 1422 1831 
L 1422 3009 
L 372 2375 
L 191 2681 
L 1313 3291 
L 191 3897 
L 372 4206 
L 1422 3572 
L 1422 4750 
L 1778 4750 
L 1778 3572 
L 2828 4206 
L 3009 3897 
z
" transform="scale(0.015625)"/>
       <path id="DejaVuSans-6b" d="M 581 4863 
L 1159 4863 
L 1159 1991 
L 2875 3500 
L 3609 3500 
L 1753 1863 
L 3688 0 
L 2938 0 
L 1159 1709 
L 1159 0 
L 581 0 
L 581 4863 
z
" transform="scale(0.015625)"/>
       <path id="DejaVuSans-6d" d="M 3328 2828 
Q 3544 3216 3844 3400 
Q 4144 3584 4550 3584 
Q 5097 3584 5394 3201 
Q 5691 2819 5691 2113 
L 5691 0 
L 5113 0 
L 5113 2094 
Q 5113 2597 4934 2840 
Q 4756 3084 4391 3084 
Q 3944 3084 3684 2787 
Q 3425 2491 3425 1978 
L 3425 0 
L 2847 0 
L 2847 2094 
Q 2847 2600 2669 2842 
Q 2491 3084 2119 3084 
Q 1678 3084 1418 2786 
Q 1159 2488 1159 1978 
L 1159 0 
L 581 0 
L 581 3500 
L 1159 3500 
L 1159 2956 
Q 1356 3278 1631 3431 
Q 1906 3584 2284 3584 
Q 2666 3584 2933 3390 
Q 3200 3197 3328 2828 
z
" transform="scale(0.015625)"/>
       <path id="DejaVuSans-5d" d="M 1947 4863 
L 1947 -844 
L 622 -844 
L 622 -397 
L 1369 -397 
L 1369 4416 
L 622 4416 
L 622 4863 
L 1947 4863 
z
" transform="scale(0.015625)"/>
      </defs>
      <use xlink:href="#DejaVuSans-45"/>
      <use xlink:href="#DejaVuSans-64" x="63.183594"/>
      <use xlink:href="#DejaVuSans-64" x="126.660156"/>
      <use xlink:href="#DejaVuSans-79" x="190.136719"/>
      <use xlink:href="#DejaVuSans-20" x="249.316406"/>
      <use xlink:href="#DejaVuSans-41" x="281.103516"/>
      <use xlink:href="#DejaVuSans-72" x="349.511719"/>
      <use xlink:href="#DejaVuSans-65" x="388.375"/>
      <use xlink:href="#DejaVuSans-61" x="449.898438"/>
      <use xlink:href="#DejaVuSans-20" x="511.177734"/>
      <use xlink:href="#DejaVuSans-5b" x="542.964844"/>
      <use xlink:href="#DejaVuSans-31" x="581.978516"/>
      <use xlink:href="#DejaVuSans-30" x="645.601562"/>
      <use xlink:href="#DejaVuSans-5e" x="709.224609"/>
      <use xlink:href="#DejaVuSans-33" x="793.013672"/>
      <use xlink:href="#DejaVuSans-20" x="856.636719"/>
      <use xlink:href="#DejaVuSans-2a" x="888.423828"/>
      <use xlink:href="#DejaVuSans-20" x="938.423828"/>
      <use xlink:href="#DejaVuSans-6b" x="970.210938"/>
      <use xlink:href="#DejaVuSans-6d" x="1028.121094"/>
      <use xlink:href="#DejaVuSans-5e" x="1125.533203"/>
      <use xlink:href="#DejaVuSans-32" x="1209.322266"/>
      <use xlink:href="#DejaVuSans-5d" x="1272.945312"/>
     </g>
    </g>
   </g>
   <g id="matplotlib.axis_2">
    <g id="ytick_1">
     <g id="line2d_8">
      <defs>
       <path id="m62a818009c" d="M 0 0 
L -3.5 0 
" style="stroke: #000000; stroke-width: 0.8"/>
      </defs>
      <g>
       <use xlink:href="#m62a818009c" x="44.960938" y="242.044806" style="stroke: #000000; stroke-width: 0.8"/>
      </g>
     </g>
     <g id="text_9">
      <!-- −0.4 -->
      <g transform="translate(13.678125 245.844025)scale(0.1 -0.1)">
       <defs>
        <path id="DejaVuSans-2212" d="M 678 2272 
L 4684 2272 
L 4684 1741 
L 678 1741 
L 678 2272 
z
" transform="scale(0.015625)"/>
        <path id="DejaVuSans-2e" d="M 684 794 
L 1344 794 
L 1344 0 
L 684 0 
L 684 794 
z
" transform="scale(0.015625)"/>
       </defs>
       <use xlink:href="#DejaVuSans-2212"/>
       <use xlink:href="#DejaVuSans-30" x="83.789062"/>
       <use xlink:href="#DejaVuSans-2e" x="147.412109"/>
       <use xlink:href="#DejaVuSans-34" x="179.199219"/>
      </g>
     </g>
    </g>
    <g id="ytick_2">
     <g id="line2d_9">
      <g>
       <use xlink:href="#m62a818009c" x="44.960938" y="212.264107" style="stroke: #000000; stroke-width: 0.8"/>
      </g>
     </g>
     <g id="text_10">
      <!-- −0.2 -->
      <g transform="translate(13.678125 216.063326)scale(0.1 -0.1)">
       <use xlink:href="#DejaVuSans-2212"/>
       <use xlink:href="#DejaVuSans-30" x="83.789062"/>
       <use xlink:href="#DejaVuSans-2e" x="147.412109"/>
       <use xlink:href="#DejaVuSans-32" x="179.199219"/>
      </g>
     </g>
    </g>
    <g id="ytick_3">
     <g id="line2d_10">
      <g>
       <use xlink:href="#m62a818009c" x="44.960938" y="182.483409" style="stroke: #000000; stroke-width: 0.8"/>
      </g>
     </g>
     <g id="text_11">
      <!-- 0.0 -->
      <g transform="translate(22.057813 186.282628)scale(0.1 -0.1)">
       <use xlink:href="#DejaVuSans-30"/>
       <use xlink:href="#DejaVuSans-2e" x="63.623047"/>
       <use xlink:href="#DejaVuSans-30" x="95.410156"/>
      </g>
     </g>
    </g>
    <g id="ytick_4">
     <g id="line2d_11">
      <g>
       <use xlink:href="#m62a818009c" x="44.960938" y="152.702711" style="stroke: #000000; stroke-width: 0.8"/>
      </g>
     </g>
     <g id="text_12">
      <!-- 0.2 -->
      <g transform="translate(22.057813 156.501929)scale(0.1 -0.1)">
       <use xlink:href="#DejaVuSans-30"/>
       <use xlink:href="#DejaVuSans-2e" x="63.623047"/>
       <use xlink:href="#DejaVuSans-32" x="95.410156"/>
      </g>
     </g>
    </g>
    <g id="ytick_5">
     <g id="line2d_12">
      <g>
       <use xlink:href="#m62a818009c" x="44.960938" y="122.922012" style="stroke: #000000; stroke-width: 0.8"/>
      </g>
     </g>
     <g id="text_13">
      <!-- 0.4 -->
      <g transform="translate(22.057813 126.721231)scale(0.1 -0.1)">
       <use xlink:href="#DejaVuSans-30"/>
       <use xlink:href="#DejaVuSans-2e" x="63.623047"/>
       <use xlink:href="#DejaVuSans-34" x="95.410156"/>
      </g>
     </g>
    </g>
    <g id="ytick_6">
     <g id="line2d_13">
      <g>
       <use xlink:href="#m62a818009c" x="44.960938" y="93.141314" style="stroke: #000000; stroke-width: 0.8"/>
      </g>
     </g>
     <g id="text_14">
      <!-- 0.6 -->
      <g transform="translate(22.057813 96.940533)scale(0.1 -0.1)">
       <use xlink:href="#DejaVuSans-30"/>
       <use xlink:href="#DejaVuSans-2e" x="63.623047"/>
       <use xlink:href="#DejaVuSans-36" x="95.410156"/>
      </g>
     </g>
    </g>
    <g id="ytick_7">
     <g id="line2d_14">
      <g>
       <use xlink:href="#m62a818009c" x="44.960938" y="63.360616" style="stroke: #000000; stroke-width: 0.8"/>
      </g>
     </g>
     <g id="text_15">
      <!-- 0.8 -->
      <g transform="translate(22.057813 67.159834)scale(0.1 -0.1)">
       <use xlink:href="#DejaVuSans-30"/>
       <use xlink:href="#DejaVuSans-2e" x="63.623047"/>
       <use xlink:href="#DejaVuSans-38" x="95.410156"/>
      </g>
     </g>
    </g>
    <g id="ytick_8">
     <g id="line2d_15">
      <g>
       <use xlink:href="#m62a818009c" x="44.960938" y="33.579917" style="stroke: #000000; stroke-width: 0.8"/>
      </g>
     </g>
     <g id="text_16">
      <!-- 1.0 -->
      <g transform="translate(22.057813 37.379136)scale(0.1 -0.1)">
       <use xlink:href="#DejaVuSans-31"/>
       <use xlink:href="#DejaVuSans-2e" x="63.623047"/>
       <use xlink:href="#DejaVuSans-30" x="95.410156"/>
      </g>
     </g>
    </g>
    <g id="ytick_9">
     <g id="line2d_16">
      <g>
       <use xlink:href="#m62a818009c" x="44.960938" y="3.799219" style="stroke: #000000; stroke-width: 0.8"/>
      </g>
     </g>
     <g id="text_17">
      <!-- 1.2 -->
      <g transform="translate(22.057813 7.598437)scale(0.1 -0.1)">
       <use xlink:href="#DejaVuSans-31"/>
       <use xlink:href="#DejaVuSans-2e" x="63.623047"/>
       <use xlink:href="#DejaVuSans-32" x="95.410156"/>
      </g>
     </g>
    </g>
    <g id="text_18">
     <!-- Eddy Amplitude [m] -->
     <g transform="translate(7.598438 183.304034)rotate(-90)scale(0.1 -0.1)">
      <defs>
       <path id="DejaVuSans-70" d="M 1159 525 
L 1159 -1331 
L 581 -1331 
L 581 3500 
L 1159 3500 
L 1159 2969 
Q 1341 3281 1617 3432 
Q 1894 3584 2278 3584 
Q 2916 3584 3314 3078 
Q 3713 2572 3713 1747 
Q 3713 922 3314 415 
Q 2916 -91 2278 -91 
Q 1894 -91 1617 61 
Q 1341 213 1159 525 
z
M 3116 1747 
Q 3116 2381 2855 2742 
Q 2594 3103 2138 3103 
Q 1681 3103 1420 2742 
Q 1159 2381 1159 1747 
Q 1159 1113 1420 752 
Q 1681 391 2138 391 
Q 2594 391 2855 752 
Q 3116 1113 3116 1747 
z
" transform="scale(0.015625)"/>
       <path id="DejaVuSans-6c" d="M 603 4863 
L 1178 4863 
L 1178 0 
L 603 0 
L 603 4863 
z
" transform="scale(0.015625)"/>
       <path id="DejaVuSans-69" d="M 603 3500 
L 1178 3500 
L 1178 0 
L 603 0 
L 603 3500 
z
M 603 4863 
L 1178 4863 
L 1178 4134 
L 603 4134 
L 603 4863 
z
" transform="scale(0.015625)"/>
       <path id="DejaVuSans-74" d="M 1172 4494 
L 1172 3500 
L 2356 3500 
L 2356 3053 
L 1172 3053 
L 1172 1153 
Q 1172 725 1289 603 
Q 1406 481 1766 481 
L 2356 481 
L 2356 0 
L 1766 0 
Q 1100 0 847 248 
Q 594 497 594 1153 
L 594 3053 
L 172 3053 
L 172 3500 
L 594 3500 
L 594 4494 
L 1172 4494 
z
" transform="scale(0.015625)"/>
       <path id="DejaVuSans-75" d="M 544 1381 
L 544 3500 
L 1119 3500 
L 1119 1403 
Q 1119 906 1312 657 
Q 1506 409 1894 409 
Q 2359 409 2629 706 
Q 2900 1003 2900 1516 
L 2900 3500 
L 3475 3500 
L 3475 0 
L 2900 0 
L 2900 538 
Q 2691 219 2414 64 
Q 2138 -91 1772 -91 
Q 1169 -91 856 284 
Q 544 659 544 1381 
z
M 1991 3584 
L 1991 3584 
z
" transform="scale(0.015625)"/>
      </defs>
      <use xlink:href="#DejaVuSans-45"/>
      <use xlink:href="#DejaVuSans-64" x="63.183594"/>
      <use xlink:href="#DejaVuSans-64" x="126.660156"/>
      <use xlink:href="#DejaVuSans-79" x="190.136719"/>
      <use xlink:href="#DejaVuSans-20" x="249.316406"/>
      <use xlink:href="#DejaVuSans-41" x="281.103516"/>
      <use xlink:href="#DejaVuSans-6d" x="349.511719"/>
      <use xlink:href="#DejaVuSans-70" x="446.923828"/>
      <use xlink:href="#DejaVuSans-6c" x="510.400391"/>
      <use xlink:href="#DejaVuSans-69" x="538.183594"/>
      <use xlink:href="#DejaVuSans-74" x="565.966797"/>
      <use xlink:href="#DejaVuSans-75" x="605.175781"/>
      <use xlink:href="#DejaVuSans-64" x="668.554688"/>
      <use xlink:href="#DejaVuSans-65" x="732.03125"/>
      <use xlink:href="#DejaVuSans-20" x="793.554688"/>
      <use xlink:href="#DejaVuSans-5b" x="825.341797"/>
      <use xlink:href="#DejaVuSans-6d" x="864.355469"/>
      <use xlink:href="#DejaVuSans-5d" x="961.767578"/>
     </g>
    </g>
   </g>
   <g id="line2d_17">
    <path d="M 61.193665 221.437257 
L 61.193665 221.437257 
L 67.686756 217.254596 
L 67.686756 217.254596 
L 70.933301 215.163265 
L 70.933301 215.163265 
L 77.426392 210.980604 
L 80.672938 208.889273 
L 80.672938 208.889273 
L 80.672938 208.889273 
L 80.672938 208.889273 
L 80.672938 208.889273 
L 83.919483 206.797942 
L 83.919483 206.797942 
L 87.166028 204.706612 
L 90.412574 202.615281 
L 90.412574 202.615281 
L 90.412574 202.615281 
L 90.412574 202.615281 
L 100.15221 196.341289 
L 106.645301 192.158628 
L 106.645301 192.158628 
L 106.645301 192.158628 
L 113.138392 187.975966 
L 116.384938 185.884636 
L 116.384938 185.884636 
L 116.384938 185.884636 
L 119.631483 183.793305 
L 122.878028 181.701974 
L 122.878028 181.701974 
L 129.371119 177.519313 
L 129.371119 177.519313 
L 129.371119 177.519313 
L 132.617665 175.427982 
L 135.86421 173.336652 
L 142.357301 169.15399 
L 142.357301 169.15399 
L 148.850392 164.971329 
L 148.850392 164.971329 
L 148.850392 164.971329 
L 152.096938 162.879998 
L 152.096938 162.879998 
L 155.343483 160.788668 
L 171.57621 150.332014 
L 181.315847 144.058022 
L 184.562392 141.966692 
L 184.562392 141.966692 
L 194.302028 135.6927 
L 197.548574 133.601369 
L 207.28821 127.327377 
L 210.534756 125.236046 
L 217.027847 121.053385 
L 236.507119 108.505401 
L 239.753665 106.41407 
L 246.246756 102.231409 
L 265.726028 89.683425 
L 272.219119 85.500764 
L 304.684574 64.587457 
L 385.84821 12.30419 
" clip-path="url(#p0eadcb952b)" style="fill: none; stroke: #000080; stroke-width: 1.5; stroke-linecap: square"/>
   </g>
   <g id="line2d_18">
    <path d="M 61.193665 244.913523 
L 61.193665 244.913523 
L 67.686756 234.675498 
L 67.686756 234.675498 
L 70.933301 229.916739 
L 70.933301 229.916739 
L 77.426392 221.015921 
L 80.672938 216.84004 
L 80.672938 216.84004 
L 80.672938 216.84004 
L 80.672938 216.84004 
L 80.672938 216.84004 
L 83.919483 212.827962 
L 83.919483 212.827962 
L 87.166028 208.96732 
L 90.412574 205.247096 
L 90.412574 205.247096 
L 90.412574 205.247096 
L 90.412574 205.247096 
L 100.15221 194.835248 
L 106.645301 188.439736 
L 106.645301 188.439736 
L 106.645301 188.439736 
L 113.138392 182.420655 
L 116.384938 179.538918 
L 116.384938 179.538918 
L 116.384938 179.538918 
L 119.631483 176.736143 
L 122.878028 174.008118 
L 122.878028 174.008118 
L 129.371119 168.761077 
L 129.371119 168.761077 
L 129.371119 168.761077 
L 132.617665 166.23515 
L 135.86421 163.770093 
L 142.357301 159.011334 
L 142.357301 159.011334 
L 148.850392 154.464147 
L 148.850392 154.464147 
L 148.850392 154.464147 
L 152.096938 152.264172 
L 152.096938 152.264172 
L 155.343483 150.110516 
L 171.57621 139.974025 
L 181.315847 134.341692 
L 184.562392 132.531116 
L 184.562392 132.531116 
L 194.302028 127.284074 
L 197.548574 125.593212 
L 207.28821 120.682114 
L 210.534756 119.096116 
L 217.027847 115.996034 
L 236.507119 107.222527 
L 239.753665 105.830739 
L 246.246756 103.102714 
L 265.726028 95.329745 
L 272.219119 92.864689 
L 304.684574 81.358767 
L 385.84821 57.234699 
" clip-path="url(#p0eadcb952b)" style="fill: none; stroke: #ff0000; stroke-width: 1.5; stroke-linecap: square"/>
   </g>
   <g id="patch_3">
    <path d="M 44.960938 266.32019 
L 44.960938 0.20819 
" style="fill: none; stroke: #000000; stroke-width: 0.8; stroke-linejoin: miter; stroke-linecap: square"/>
   </g>
   <g id="patch_4">
    <path d="M 402.080938 266.32019 
L 402.080938 0.20819 
" style="fill: none; stroke: #000000; stroke-width: 0.8; stroke-linejoin: miter; stroke-linecap: square"/>
   </g>
   <g id="patch_5">
    <path d="M 44.960938 266.32019 
L 402.080938 266.32019 
" style="fill: none; stroke: #000000; stroke-width: 0.8; stroke-linejoin: miter; stroke-linecap: square"/>
   </g>
   <g id="patch_6">
    <path d="M 44.960938 0.20819 
L 402.080938 0.20819 
" style="fill: none; stroke: #000000; stroke-width: 0.8; stroke-linejoin: miter; stroke-linecap: square"/>
   </g>
   <g id="legend_1">
    <g id="patch_7">
     <path d="M 51.960938 37.56444 
L 191.7 37.56444 
Q 193.7 37.56444 193.7 35.56444 
L 193.7 7.20819 
Q 193.7 5.20819 191.7 5.20819 
L 51.960938 5.20819 
Q 49.960938 5.20819 49.960938 7.20819 
L 49.960938 35.56444 
Q 49.960938 37.56444 51.960938 37.56444 
z
" style="fill: #ffffff; opacity: 0.8; stroke: #cccccc; stroke-linejoin: miter"/>
    </g>
    <g id="line2d_19">
     <path d="M 53.960938 13.306628 
L 63.960938 13.306628 
L 73.960938 13.306628 
" style="fill: none; stroke: #000080; stroke-width: 1.5; stroke-linecap: square"/>
    </g>
    <g id="text_19">
     <!-- Linear Trendline -->
     <g transform="translate(81.960938 16.806628)scale(0.1 -0.1)">
      <defs>
       <path id="DejaVuSans-4c" d="M 628 4666 
L 1259 4666 
L 1259 531 
L 3531 531 
L 3531 0 
L 628 0 
L 628 4666 
z
" transform="scale(0.015625)"/>
       <path id="DejaVuSans-6e" d="M 3513 2113 
L 3513 0 
L 2938 0 
L 2938 2094 
Q 2938 2591 2744 2837 
Q 2550 3084 2163 3084 
Q 1697 3084 1428 2787 
Q 1159 2491 1159 1978 
L 1159 0 
L 581 0 
L 581 3500 
L 1159 3500 
L 1159 2956 
Q 1366 3272 1645 3428 
Q 1925 3584 2291 3584 
Q 2894 3584 3203 3211 
Q 3513 2838 3513 2113 
z
" transform="scale(0.015625)"/>
       <path id="DejaVuSans-54" d="M -19 4666 
L 3928 4666 
L 3928 4134 
L 2272 4134 
L 2272 0 
L 1638 0 
L 1638 4134 
L -19 4134 
L -19 4666 
z
" transform="scale(0.015625)"/>
      </defs>
      <use xlink:href="#DejaVuSans-4c"/>
      <use xlink:href="#DejaVuSans-69" x="55.712891"/>
      <use xlink:href="#DejaVuSans-6e" x="83.496094"/>
      <use xlink:href="#DejaVuSans-65" x="146.875"/>
      <use xlink:href="#DejaVuSans-61" x="208.398438"/>
      <use xlink:href="#DejaVuSans-72" x="269.677734"/>
      <use xlink:href="#DejaVuSans-20" x="310.791016"/>
      <use xlink:href="#DejaVuSans-54" x="342.578125"/>
      <use xlink:href="#DejaVuSans-72" x="388.912109"/>
      <use xlink:href="#DejaVuSans-65" x="427.775391"/>
      <use xlink:href="#DejaVuSans-6e" x="489.298828"/>
      <use xlink:href="#DejaVuSans-64" x="552.677734"/>
      <use xlink:href="#DejaVuSans-6c" x="616.154297"/>
      <use xlink:href="#DejaVuSans-69" x="643.9375"/>
      <use xlink:href="#DejaVuSans-6e" x="671.720703"/>
      <use xlink:href="#DejaVuSans-65" x="735.099609"/>
     </g>
    </g>
    <g id="line2d_20">
     <path d="M 53.960938 27.984753 
L 63.960938 27.984753 
L 73.960938 27.984753 
" style="fill: none; stroke: #ff0000; stroke-width: 1.5; stroke-linecap: square"/>
    </g>
    <g id="text_20">
     <!-- Logarithmic Trendline -->
     <g transform="translate(81.960938 31.484753)scale(0.1 -0.1)">
      <defs>
       <path id="DejaVuSans-6f" d="M 1959 3097 
Q 1497 3097 1228 2736 
Q 959 2375 959 1747 
Q 959 1119 1226 758 
Q 1494 397 1959 397 
Q 2419 397 2687 759 
Q 2956 1122 2956 1747 
Q 2956 2369 2687 2733 
Q 2419 3097 1959 3097 
z
M 1959 3584 
Q 2709 3584 3137 3096 
Q 3566 2609 3566 1747 
Q 3566 888 3137 398 
Q 2709 -91 1959 -91 
Q 1206 -91 779 398 
Q 353 888 353 1747 
Q 353 2609 779 3096 
Q 1206 3584 1959 3584 
z
" transform="scale(0.015625)"/>
       <path id="DejaVuSans-67" d="M 2906 1791 
Q 2906 2416 2648 2759 
Q 2391 3103 1925 3103 
Q 1463 3103 1205 2759 
Q 947 2416 947 1791 
Q 947 1169 1205 825 
Q 1463 481 1925 481 
Q 2391 481 2648 825 
Q 2906 1169 2906 1791 
z
M 3481 434 
Q 3481 -459 3084 -895 
Q 2688 -1331 1869 -1331 
Q 1566 -1331 1297 -1286 
Q 1028 -1241 775 -1147 
L 775 -588 
Q 1028 -725 1275 -790 
Q 1522 -856 1778 -856 
Q 2344 -856 2625 -561 
Q 2906 -266 2906 331 
L 2906 616 
Q 2728 306 2450 153 
Q 2172 0 1784 0 
Q 1141 0 747 490 
Q 353 981 353 1791 
Q 353 2603 747 3093 
Q 1141 3584 1784 3584 
Q 2172 3584 2450 3431 
Q 2728 3278 2906 2969 
L 2906 3500 
L 3481 3500 
L 3481 434 
z
" transform="scale(0.015625)"/>
       <path id="DejaVuSans-68" d="M 3513 2113 
L 3513 0 
L 2938 0 
L 2938 2094 
Q 2938 2591 2744 2837 
Q 2550 3084 2163 3084 
Q 1697 3084 1428 2787 
Q 1159 2491 1159 1978 
L 1159 0 
L 581 0 
L 581 4863 
L 1159 4863 
L 1159 2956 
Q 1366 3272 1645 3428 
Q 1925 3584 2291 3584 
Q 2894 3584 3203 3211 
Q 3513 2838 3513 2113 
z
" transform="scale(0.015625)"/>
       <path id="DejaVuSans-63" d="M 3122 3366 
L 3122 2828 
Q 2878 2963 2633 3030 
Q 2388 3097 2138 3097 
Q 1578 3097 1268 2742 
Q 959 2388 959 1747 
Q 959 1106 1268 751 
Q 1578 397 2138 397 
Q 2388 397 2633 464 
Q 2878 531 3122 666 
L 3122 134 
Q 2881 22 2623 -34 
Q 2366 -91 2075 -91 
Q 1284 -91 818 406 
Q 353 903 353 1747 
Q 353 2603 823 3093 
Q 1294 3584 2113 3584 
Q 2378 3584 2631 3529 
Q 2884 3475 3122 3366 
z
" transform="scale(0.015625)"/>
      </defs>
      <use xlink:href="#DejaVuSans-4c"/>
      <use xlink:href="#DejaVuSans-6f" x="53.962891"/>
      <use xlink:href="#DejaVuSans-67" x="115.144531"/>
      <use xlink:href="#DejaVuSans-61" x="178.621094"/>
      <use xlink:href="#DejaVuSans-72" x="239.900391"/>
      <use xlink:href="#DejaVuSans-69" x="281.013672"/>
      <use xlink:href="#DejaVuSans-74" x="308.796875"/>
      <use xlink:href="#DejaVuSans-68" x="348.005859"/>
      <use xlink:href="#DejaVuSans-6d" x="411.384766"/>
      <use xlink:href="#DejaVuSans-69" x="508.796875"/>
      <use xlink:href="#DejaVuSans-63" x="536.580078"/>
      <use xlink:href="#DejaVuSans-20" x="591.560547"/>
      <use xlink:href="#DejaVuSans-54" x="623.347656"/>
      <use xlink:href="#DejaVuSans-72" x="669.681641"/>
      <use xlink:href="#DejaVuSans-65" x="708.544922"/>
      <use xlink:href="#DejaVuSans-6e" x="770.068359"/>
      <use xlink:href="#DejaVuSans-64" x="833.447266"/>
      <use xlink:href="#DejaVuSans-6c" x="896.923828"/>
      <use xlink:href="#DejaVuSans-69" x="924.707031"/>
      <use xlink:href="#DejaVuSans-6e" x="952.490234"/>
      <use xlink:href="#DejaVuSans-65" x="1015.869141"/>
     </g>
    </g>
   </g>
  </g>
 </g>
 <defs>
  <clipPath id="p0eadcb952b">
   <rect x="44.960938" y="0.20819" width="357.12" height="266.112"/>
  </clipPath>
 </defs>
</svg>
