<?xml version="1.0" encoding="utf-8" standalone="no"?>
<!DOCTYPE svg PUBLIC "-//W3C//DTD SVG 1.1//EN"
  "http://www.w3.org/Graphics/SVG/1.1/DTD/svg11.dtd">
<svg xmlns:xlink="http://www.w3.org/1999/xlink" width="400.06375pt" height="287.109468pt" viewBox="0 0 400.06375 287.109468" xmlns="http://www.w3.org/2000/svg" version="1.1">
 <metadata>
  <rdf:RDF xmlns:dc="http://purl.org/dc/elements/1.1/" xmlns:cc="http://creativecommons.org/ns#" xmlns:rdf="http://www.w3.org/1999/02/22-rdf-syntax-ns#">
   <cc:Work>
    <dc:type rdf:resource="http://purl.org/dc/dcmitype/StillImage"/>
    <dc:date>2023-05-16T16:08:58.976207</dc:date>
    <dc:format>image/svg+xml</dc:format>
    <dc:creator>
     <cc:Agent>
      <dc:title>Matplotlib v3.5.2, https://matplotlib.org/</dc:title>
     </cc:Agent>
    </dc:creator>
   </cc:Work>
  </rdf:RDF>
 </metadata>
 <defs>
  <style type="text/css">*{stroke-linejoin: round; stroke-linecap: butt}</style>
 </defs>
 <g id="figure_1">
  <g id="patch_1">
   <path d="M -0 287.109468 
L 400.06375 287.109468 
L 400.06375 -0 
L -0 -0 
z
" style="fill: #ffffff"/>
  </g>
  <g id="axes_1">
   <g id="patch_2">
    <path d="M 42.94375 266.431343 
L 400.06375 266.431343 
L 400.06375 0.319343 
L 42.94375 0.319343 
z
" style="fill: #ffffff"/>
   </g>
   <g id="matplotlib.axis_1">
    <g id="xtick_1">
     <g id="line2d_1">
      <path d="M 62.141359 266.431343 
L 62.141359 0.319343 
" clip-path="url(#p456e77e27a)" style="fill: none; stroke: #b0b0b0; stroke-width: 0.8; stroke-linecap: square"/>
     </g>
     <g id="line2d_2">
      <defs>
       <path id="m75e42abdc8" d="M 0 0 
L 0 3.5 
" style="stroke: #000000; stroke-width: 0.8"/>
      </defs>
      <g>
       <use xlink:href="#m75e42abdc8" x="62.141359" y="266.431343" style="stroke: #000000; stroke-width: 0.8"/>
      </g>
     </g>
    </g>
    <g id="xtick_2">
     <g id="line2d_3">
      <path d="M 69.553563 266.431343 
L 69.553563 0.319343 
" clip-path="url(#p456e77e27a)" style="fill: none; stroke: #b0b0b0; stroke-width: 0.8; stroke-linecap: square"/>
     </g>
     <g id="line2d_4">
      <g>
       <use xlink:href="#m75e42abdc8" x="69.553563" y="266.431343" style="stroke: #000000; stroke-width: 0.8"/>
      </g>
     </g>
    </g>
    <g id="xtick_3">
     <g id="line2d_5">
      <path d="M 76.965767 266.431343 
L 76.965767 0.319343 
" clip-path="url(#p456e77e27a)" style="fill: none; stroke: #b0b0b0; stroke-width: 0.8; stroke-linecap: square"/>
     </g>
     <g id="line2d_6">
      <g>
       <use xlink:href="#m75e42abdc8" x="76.965767" y="266.431343" style="stroke: #000000; stroke-width: 0.8"/>
      </g>
     </g>
    </g>
    <g id="xtick_4">
     <g id="line2d_7">
      <path d="M 84.377972 266.431343 
L 84.377972 0.319343 
" clip-path="url(#p456e77e27a)" style="fill: none; stroke: #b0b0b0; stroke-width: 0.8; stroke-linecap: square"/>
     </g>
     <g id="line2d_8">
      <g>
       <use xlink:href="#m75e42abdc8" x="84.377972" y="266.431343" style="stroke: #000000; stroke-width: 0.8"/>
      </g>
     </g>
    </g>
    <g id="xtick_5">
     <g id="line2d_9">
      <path d="M 91.790176 266.431343 
L 91.790176 0.319343 
" clip-path="url(#p456e77e27a)" style="fill: none; stroke: #b0b0b0; stroke-width: 0.8; stroke-linecap: square"/>
     </g>
     <g id="line2d_10">
      <g>
       <use xlink:href="#m75e42abdc8" x="91.790176" y="266.431343" style="stroke: #000000; stroke-width: 0.8"/>
      </g>
     </g>
    </g>
    <g id="xtick_6">
     <g id="line2d_11">
      <path d="M 99.20238 266.431343 
L 99.20238 0.319343 
" clip-path="url(#p456e77e27a)" style="fill: none; stroke: #b0b0b0; stroke-width: 0.8; stroke-linecap: square"/>
     </g>
     <g id="line2d_12">
      <g>
       <use xlink:href="#m75e42abdc8" x="99.20238" y="266.431343" style="stroke: #000000; stroke-width: 0.8"/>
      </g>
     </g>
    </g>
    <g id="xtick_7">
     <g id="line2d_13">
      <path d="M 106.614584 266.431343 
L 106.614584 0.319343 
" clip-path="url(#p456e77e27a)" style="fill: none; stroke: #b0b0b0; stroke-width: 0.8; stroke-linecap: square"/>
     </g>
     <g id="line2d_14">
      <g>
       <use xlink:href="#m75e42abdc8" x="106.614584" y="266.431343" style="stroke: #000000; stroke-width: 0.8"/>
      </g>
     </g>
    </g>
    <g id="xtick_8">
     <g id="line2d_15">
      <path d="M 114.026789 266.431343 
L 114.026789 0.319343 
" clip-path="url(#p456e77e27a)" style="fill: none; stroke: #b0b0b0; stroke-width: 0.8; stroke-linecap: square"/>
     </g>
     <g id="line2d_16">
      <g>
       <use xlink:href="#m75e42abdc8" x="114.026789" y="266.431343" style="stroke: #000000; stroke-width: 0.8"/>
      </g>
     </g>
    </g>
    <g id="xtick_9">
     <g id="line2d_17">
      <path d="M 121.438993 266.431343 
L 121.438993 0.319343 
" clip-path="url(#p456e77e27a)" style="fill: none; stroke: #b0b0b0; stroke-width: 0.8; stroke-linecap: square"/>
     </g>
     <g id="line2d_18">
      <g>
       <use xlink:href="#m75e42abdc8" x="121.438993" y="266.431343" style="stroke: #000000; stroke-width: 0.8"/>
      </g>
     </g>
    </g>
    <g id="xtick_10">
     <g id="line2d_19">
      <path d="M 128.851197 266.431343 
L 128.851197 0.319343 
" clip-path="url(#p456e77e27a)" style="fill: none; stroke: #b0b0b0; stroke-width: 0.8; stroke-linecap: square"/>
     </g>
     <g id="line2d_20">
      <g>
       <use xlink:href="#m75e42abdc8" x="128.851197" y="266.431343" style="stroke: #000000; stroke-width: 0.8"/>
      </g>
     </g>
    </g>
    <g id="xtick_11">
     <g id="line2d_21">
      <path d="M 136.263401 266.431343 
L 136.263401 0.319343 
" clip-path="url(#p456e77e27a)" style="fill: none; stroke: #b0b0b0; stroke-width: 0.8; stroke-linecap: square"/>
     </g>
     <g id="line2d_22">
      <g>
       <use xlink:href="#m75e42abdc8" x="136.263401" y="266.431343" style="stroke: #000000; stroke-width: 0.8"/>
      </g>
     </g>
    </g>
    <g id="xtick_12">
     <g id="line2d_23">
      <path d="M 143.675606 266.431343 
L 143.675606 0.319343 
" clip-path="url(#p456e77e27a)" style="fill: none; stroke: #b0b0b0; stroke-width: 0.8; stroke-linecap: square"/>
     </g>
     <g id="line2d_24">
      <g>
       <use xlink:href="#m75e42abdc8" x="143.675606" y="266.431343" style="stroke: #000000; stroke-width: 0.8"/>
      </g>
     </g>
    </g>
    <g id="xtick_13">
     <g id="line2d_25">
      <path d="M 151.08781 266.431343 
L 151.08781 0.319343 
" clip-path="url(#p456e77e27a)" style="fill: none; stroke: #b0b0b0; stroke-width: 0.8; stroke-linecap: square"/>
     </g>
     <g id="line2d_26">
      <g>
       <use xlink:href="#m75e42abdc8" x="151.08781" y="266.431343" style="stroke: #000000; stroke-width: 0.8"/>
      </g>
     </g>
    </g>
    <g id="xtick_14">
     <g id="line2d_27">
      <path d="M 158.500014 266.431343 
L 158.500014 0.319343 
" clip-path="url(#p456e77e27a)" style="fill: none; stroke: #b0b0b0; stroke-width: 0.8; stroke-linecap: square"/>
     </g>
     <g id="line2d_28">
      <g>
       <use xlink:href="#m75e42abdc8" x="158.500014" y="266.431343" style="stroke: #000000; stroke-width: 0.8"/>
      </g>
     </g>
    </g>
    <g id="xtick_15">
     <g id="line2d_29">
      <path d="M 165.912218 266.431343 
L 165.912218 0.319343 
" clip-path="url(#p456e77e27a)" style="fill: none; stroke: #b0b0b0; stroke-width: 0.8; stroke-linecap: square"/>
     </g>
     <g id="line2d_30">
      <g>
       <use xlink:href="#m75e42abdc8" x="165.912218" y="266.431343" style="stroke: #000000; stroke-width: 0.8"/>
      </g>
     </g>
    </g>
    <g id="xtick_16">
     <g id="line2d_31">
      <path d="M 173.324422 266.431343 
L 173.324422 0.319343 
" clip-path="url(#p456e77e27a)" style="fill: none; stroke: #b0b0b0; stroke-width: 0.8; stroke-linecap: square"/>
     </g>
     <g id="line2d_32">
      <g>
       <use xlink:href="#m75e42abdc8" x="173.324422" y="266.431343" style="stroke: #000000; stroke-width: 0.8"/>
      </g>
     </g>
    </g>
    <g id="xtick_17">
     <g id="line2d_33">
      <path d="M 180.736627 266.431343 
L 180.736627 0.319343 
" clip-path="url(#p456e77e27a)" style="fill: none; stroke: #b0b0b0; stroke-width: 0.8; stroke-linecap: square"/>
     </g>
     <g id="line2d_34">
      <g>
       <use xlink:href="#m75e42abdc8" x="180.736627" y="266.431343" style="stroke: #000000; stroke-width: 0.8"/>
      </g>
     </g>
    </g>
    <g id="xtick_18">
     <g id="line2d_35">
      <path d="M 188.148831 266.431343 
L 188.148831 0.319343 
" clip-path="url(#p456e77e27a)" style="fill: none; stroke: #b0b0b0; stroke-width: 0.8; stroke-linecap: square"/>
     </g>
     <g id="line2d_36">
      <g>
       <use xlink:href="#m75e42abdc8" x="188.148831" y="266.431343" style="stroke: #000000; stroke-width: 0.8"/>
      </g>
     </g>
    </g>
    <g id="xtick_19">
     <g id="line2d_37">
      <path d="M 195.561035 266.431343 
L 195.561035 0.319343 
" clip-path="url(#p456e77e27a)" style="fill: none; stroke: #b0b0b0; stroke-width: 0.8; stroke-linecap: square"/>
     </g>
     <g id="line2d_38">
      <g>
       <use xlink:href="#m75e42abdc8" x="195.561035" y="266.431343" style="stroke: #000000; stroke-width: 0.8"/>
      </g>
     </g>
    </g>
    <g id="xtick_20">
     <g id="line2d_39">
      <path d="M 202.973239 266.431343 
L 202.973239 0.319343 
" clip-path="url(#p456e77e27a)" style="fill: none; stroke: #b0b0b0; stroke-width: 0.8; stroke-linecap: square"/>
     </g>
     <g id="line2d_40">
      <g>
       <use xlink:href="#m75e42abdc8" x="202.973239" y="266.431343" style="stroke: #000000; stroke-width: 0.8"/>
      </g>
     </g>
    </g>
    <g id="xtick_21">
     <g id="line2d_41">
      <path d="M 210.385444 266.431343 
L 210.385444 0.319343 
" clip-path="url(#p456e77e27a)" style="fill: none; stroke: #b0b0b0; stroke-width: 0.8; stroke-linecap: square"/>
     </g>
     <g id="line2d_42">
      <g>
       <use xlink:href="#m75e42abdc8" x="210.385444" y="266.431343" style="stroke: #000000; stroke-width: 0.8"/>
      </g>
     </g>
    </g>
    <g id="xtick_22">
     <g id="line2d_43">
      <path d="M 217.797648 266.431343 
L 217.797648 0.319343 
" clip-path="url(#p456e77e27a)" style="fill: none; stroke: #b0b0b0; stroke-width: 0.8; stroke-linecap: square"/>
     </g>
     <g id="line2d_44">
      <g>
       <use xlink:href="#m75e42abdc8" x="217.797648" y="266.431343" style="stroke: #000000; stroke-width: 0.8"/>
      </g>
     </g>
    </g>
    <g id="xtick_23">
     <g id="line2d_45">
      <path d="M 225.209852 266.431343 
L 225.209852 0.319343 
" clip-path="url(#p456e77e27a)" style="fill: none; stroke: #b0b0b0; stroke-width: 0.8; stroke-linecap: square"/>
     </g>
     <g id="line2d_46">
      <g>
       <use xlink:href="#m75e42abdc8" x="225.209852" y="266.431343" style="stroke: #000000; stroke-width: 0.8"/>
      </g>
     </g>
    </g>
    <g id="xtick_24">
     <g id="line2d_47">
      <path d="M 232.622056 266.431343 
L 232.622056 0.319343 
" clip-path="url(#p456e77e27a)" style="fill: none; stroke: #b0b0b0; stroke-width: 0.8; stroke-linecap: square"/>
     </g>
     <g id="line2d_48">
      <g>
       <use xlink:href="#m75e42abdc8" x="232.622056" y="266.431343" style="stroke: #000000; stroke-width: 0.8"/>
      </g>
     </g>
    </g>
    <g id="xtick_25">
     <g id="line2d_49">
      <path d="M 240.034261 266.431343 
L 240.034261 0.319343 
" clip-path="url(#p456e77e27a)" style="fill: none; stroke: #b0b0b0; stroke-width: 0.8; stroke-linecap: square"/>
     </g>
     <g id="line2d_50">
      <g>
       <use xlink:href="#m75e42abdc8" x="240.034261" y="266.431343" style="stroke: #000000; stroke-width: 0.8"/>
      </g>
     </g>
    </g>
    <g id="xtick_26">
     <g id="line2d_51">
      <path d="M 247.446465 266.431343 
L 247.446465 0.319343 
" clip-path="url(#p456e77e27a)" style="fill: none; stroke: #b0b0b0; stroke-width: 0.8; stroke-linecap: square"/>
     </g>
     <g id="line2d_52">
      <g>
       <use xlink:href="#m75e42abdc8" x="247.446465" y="266.431343" style="stroke: #000000; stroke-width: 0.8"/>
      </g>
     </g>
    </g>
    <g id="xtick_27">
     <g id="line2d_53">
      <path d="M 254.858669 266.431343 
L 254.858669 0.319343 
" clip-path="url(#p456e77e27a)" style="fill: none; stroke: #b0b0b0; stroke-width: 0.8; stroke-linecap: square"/>
     </g>
     <g id="line2d_54">
      <g>
       <use xlink:href="#m75e42abdc8" x="254.858669" y="266.431343" style="stroke: #000000; stroke-width: 0.8"/>
      </g>
     </g>
    </g>
    <g id="xtick_28">
     <g id="line2d_55">
      <path d="M 262.270873 266.431343 
L 262.270873 0.319343 
" clip-path="url(#p456e77e27a)" style="fill: none; stroke: #b0b0b0; stroke-width: 0.8; stroke-linecap: square"/>
     </g>
     <g id="line2d_56">
      <g>
       <use xlink:href="#m75e42abdc8" x="262.270873" y="266.431343" style="stroke: #000000; stroke-width: 0.8"/>
      </g>
     </g>
    </g>
    <g id="xtick_29">
     <g id="line2d_57">
      <path d="M 269.683078 266.431343 
L 269.683078 0.319343 
" clip-path="url(#p456e77e27a)" style="fill: none; stroke: #b0b0b0; stroke-width: 0.8; stroke-linecap: square"/>
     </g>
     <g id="line2d_58">
      <g>
       <use xlink:href="#m75e42abdc8" x="269.683078" y="266.431343" style="stroke: #000000; stroke-width: 0.8"/>
      </g>
     </g>
    </g>
    <g id="xtick_30">
     <g id="line2d_59">
      <path d="M 277.095282 266.431343 
L 277.095282 0.319343 
" clip-path="url(#p456e77e27a)" style="fill: none; stroke: #b0b0b0; stroke-width: 0.8; stroke-linecap: square"/>
     </g>
     <g id="line2d_60">
      <g>
       <use xlink:href="#m75e42abdc8" x="277.095282" y="266.431343" style="stroke: #000000; stroke-width: 0.8"/>
      </g>
     </g>
    </g>
    <g id="xtick_31">
     <g id="line2d_61">
      <path d="M 284.507486 266.431343 
L 284.507486 0.319343 
" clip-path="url(#p456e77e27a)" style="fill: none; stroke: #b0b0b0; stroke-width: 0.8; stroke-linecap: square"/>
     </g>
     <g id="line2d_62">
      <g>
       <use xlink:href="#m75e42abdc8" x="284.507486" y="266.431343" style="stroke: #000000; stroke-width: 0.8"/>
      </g>
     </g>
    </g>
    <g id="xtick_32">
     <g id="line2d_63">
      <path d="M 291.91969 266.431343 
L 291.91969 0.319343 
" clip-path="url(#p456e77e27a)" style="fill: none; stroke: #b0b0b0; stroke-width: 0.8; stroke-linecap: square"/>
     </g>
     <g id="line2d_64">
      <g>
       <use xlink:href="#m75e42abdc8" x="291.91969" y="266.431343" style="stroke: #000000; stroke-width: 0.8"/>
      </g>
     </g>
    </g>
    <g id="xtick_33">
     <g id="line2d_65">
      <path d="M 299.331894 266.431343 
L 299.331894 0.319343 
" clip-path="url(#p456e77e27a)" style="fill: none; stroke: #b0b0b0; stroke-width: 0.8; stroke-linecap: square"/>
     </g>
     <g id="line2d_66">
      <g>
       <use xlink:href="#m75e42abdc8" x="299.331894" y="266.431343" style="stroke: #000000; stroke-width: 0.8"/>
      </g>
     </g>
    </g>
    <g id="xtick_34">
     <g id="line2d_67">
      <path d="M 306.744099 266.431343 
L 306.744099 0.319343 
" clip-path="url(#p456e77e27a)" style="fill: none; stroke: #b0b0b0; stroke-width: 0.8; stroke-linecap: square"/>
     </g>
     <g id="line2d_68">
      <g>
       <use xlink:href="#m75e42abdc8" x="306.744099" y="266.431343" style="stroke: #000000; stroke-width: 0.8"/>
      </g>
     </g>
    </g>
    <g id="xtick_35">
     <g id="line2d_69">
      <path d="M 314.156303 266.431343 
L 314.156303 0.319343 
" clip-path="url(#p456e77e27a)" style="fill: none; stroke: #b0b0b0; stroke-width: 0.8; stroke-linecap: square"/>
     </g>
     <g id="line2d_70">
      <g>
       <use xlink:href="#m75e42abdc8" x="314.156303" y="266.431343" style="stroke: #000000; stroke-width: 0.8"/>
      </g>
     </g>
    </g>
    <g id="xtick_36">
     <g id="line2d_71">
      <path d="M 321.568507 266.431343 
L 321.568507 0.319343 
" clip-path="url(#p456e77e27a)" style="fill: none; stroke: #b0b0b0; stroke-width: 0.8; stroke-linecap: square"/>
     </g>
     <g id="line2d_72">
      <g>
       <use xlink:href="#m75e42abdc8" x="321.568507" y="266.431343" style="stroke: #000000; stroke-width: 0.8"/>
      </g>
     </g>
    </g>
    <g id="xtick_37">
     <g id="line2d_73">
      <path d="M 328.980711 266.431343 
L 328.980711 0.319343 
" clip-path="url(#p456e77e27a)" style="fill: none; stroke: #b0b0b0; stroke-width: 0.8; stroke-linecap: square"/>
     </g>
     <g id="line2d_74">
      <g>
       <use xlink:href="#m75e42abdc8" x="328.980711" y="266.431343" style="stroke: #000000; stroke-width: 0.8"/>
      </g>
     </g>
    </g>
    <g id="xtick_38">
     <g id="line2d_75">
      <path d="M 336.392916 266.431343 
L 336.392916 0.319343 
" clip-path="url(#p456e77e27a)" style="fill: none; stroke: #b0b0b0; stroke-width: 0.8; stroke-linecap: square"/>
     </g>
     <g id="line2d_76">
      <g>
       <use xlink:href="#m75e42abdc8" x="336.392916" y="266.431343" style="stroke: #000000; stroke-width: 0.8"/>
      </g>
     </g>
    </g>
    <g id="xtick_39">
     <g id="line2d_77">
      <path d="M 343.80512 266.431343 
L 343.80512 0.319343 
" clip-path="url(#p456e77e27a)" style="fill: none; stroke: #b0b0b0; stroke-width: 0.8; stroke-linecap: square"/>
     </g>
     <g id="line2d_78">
      <g>
       <use xlink:href="#m75e42abdc8" x="343.80512" y="266.431343" style="stroke: #000000; stroke-width: 0.8"/>
      </g>
     </g>
    </g>
    <g id="xtick_40">
     <g id="line2d_79">
      <path d="M 351.217324 266.431343 
L 351.217324 0.319343 
" clip-path="url(#p456e77e27a)" style="fill: none; stroke: #b0b0b0; stroke-width: 0.8; stroke-linecap: square"/>
     </g>
     <g id="line2d_80">
      <g>
       <use xlink:href="#m75e42abdc8" x="351.217324" y="266.431343" style="stroke: #000000; stroke-width: 0.8"/>
      </g>
     </g>
    </g>
    <g id="xtick_41">
     <g id="line2d_81">
      <path d="M 358.629528 266.431343 
L 358.629528 0.319343 
" clip-path="url(#p456e77e27a)" style="fill: none; stroke: #b0b0b0; stroke-width: 0.8; stroke-linecap: square"/>
     </g>
     <g id="line2d_82">
      <g>
       <use xlink:href="#m75e42abdc8" x="358.629528" y="266.431343" style="stroke: #000000; stroke-width: 0.8"/>
      </g>
     </g>
    </g>
    <g id="xtick_42">
     <g id="line2d_83">
      <path d="M 366.041733 266.431343 
L 366.041733 0.319343 
" clip-path="url(#p456e77e27a)" style="fill: none; stroke: #b0b0b0; stroke-width: 0.8; stroke-linecap: square"/>
     </g>
     <g id="line2d_84">
      <g>
       <use xlink:href="#m75e42abdc8" x="366.041733" y="266.431343" style="stroke: #000000; stroke-width: 0.8"/>
      </g>
     </g>
    </g>
    <g id="xtick_43">
     <g id="line2d_85">
      <path d="M 373.453937 266.431343 
L 373.453937 0.319343 
" clip-path="url(#p456e77e27a)" style="fill: none; stroke: #b0b0b0; stroke-width: 0.8; stroke-linecap: square"/>
     </g>
     <g id="line2d_86">
      <g>
       <use xlink:href="#m75e42abdc8" x="373.453937" y="266.431343" style="stroke: #000000; stroke-width: 0.8"/>
      </g>
     </g>
    </g>
    <g id="xtick_44">
     <g id="line2d_87">
      <path d="M 380.866141 266.431343 
L 380.866141 0.319343 
" clip-path="url(#p456e77e27a)" style="fill: none; stroke: #b0b0b0; stroke-width: 0.8; stroke-linecap: square"/>
     </g>
     <g id="line2d_88">
      <g>
       <use xlink:href="#m75e42abdc8" x="380.866141" y="266.431343" style="stroke: #000000; stroke-width: 0.8"/>
      </g>
     </g>
    </g>
    <g id="text_1">
     <!-- Individual Eddies [-] -->
     <g transform="translate(171.690469 285.029781)scale(0.1 -0.1)">
      <defs>
       <path id="DejaVuSans-49" d="M 628 4666 
L 1259 4666 
L 1259 0 
L 628 0 
L 628 4666 
z
" transform="scale(0.015625)"/>
       <path id="DejaVuSans-6e" d="M 3513 2113 
L 3513 0 
L 2938 0 
L 2938 2094 
Q 2938 2591 2744 2837 
Q 2550 3084 2163 3084 
Q 1697 3084 1428 2787 
Q 1159 2491 1159 1978 
L 1159 0 
L 581 0 
L 581 3500 
L 1159 3500 
L 1159 2956 
Q 1366 3272 1645 3428 
Q 1925 3584 2291 3584 
Q 2894 3584 3203 3211 
Q 3513 2838 3513 2113 
z
" transform="scale(0.015625)"/>
       <path id="DejaVuSans-64" d="M 2906 2969 
L 2906 4863 
L 3481 4863 
L 3481 0 
L 2906 0 
L 2906 525 
Q 2725 213 2448 61 
Q 2172 -91 1784 -91 
Q 1150 -91 751 415 
Q 353 922 353 1747 
Q 353 2572 751 3078 
Q 1150 3584 1784 3584 
Q 2172 3584 2448 3432 
Q 2725 3281 2906 2969 
z
M 947 1747 
Q 947 1113 1208 752 
Q 1469 391 1925 391 
Q 2381 391 2643 752 
Q 2906 1113 2906 1747 
Q 2906 2381 2643 2742 
Q 2381 3103 1925 3103 
Q 1469 3103 1208 2742 
Q 947 2381 947 1747 
z
" transform="scale(0.015625)"/>
       <path id="DejaVuSans-69" d="M 603 3500 
L 1178 3500 
L 1178 0 
L 603 0 
L 603 3500 
z
M 603 4863 
L 1178 4863 
L 1178 4134 
L 603 4134 
L 603 4863 
z
" transform="scale(0.015625)"/>
       <path id="DejaVuSans-76" d="M 191 3500 
L 800 3500 
L 1894 563 
L 2988 3500 
L 3597 3500 
L 2284 0 
L 1503 0 
L 191 3500 
z
" transform="scale(0.015625)"/>
       <path id="DejaVuSans-75" d="M 544 1381 
L 544 3500 
L 1119 3500 
L 1119 1403 
Q 1119 906 1312 657 
Q 1506 409 1894 409 
Q 2359 409 2629 706 
Q 2900 1003 2900 1516 
L 2900 3500 
L 3475 3500 
L 3475 0 
L 2900 0 
L 2900 538 
Q 2691 219 2414 64 
Q 2138 -91 1772 -91 
Q 1169 -91 856 284 
Q 544 659 544 1381 
z
M 1991 3584 
L 1991 3584 
z
" transform="scale(0.015625)"/>
       <path id="DejaVuSans-61" d="M 2194 1759 
Q 1497 1759 1228 1600 
Q 959 1441 959 1056 
Q 959 750 1161 570 
Q 1363 391 1709 391 
Q 2188 391 2477 730 
Q 2766 1069 2766 1631 
L 2766 1759 
L 2194 1759 
z
M 3341 1997 
L 3341 0 
L 2766 0 
L 2766 531 
Q 2569 213 2275 61 
Q 1981 -91 1556 -91 
Q 1019 -91 701 211 
Q 384 513 384 1019 
Q 384 1609 779 1909 
Q 1175 2209 1959 2209 
L 2766 2209 
L 2766 2266 
Q 2766 2663 2505 2880 
Q 2244 3097 1772 3097 
Q 1472 3097 1187 3025 
Q 903 2953 641 2809 
L 641 3341 
Q 956 3463 1253 3523 
Q 1550 3584 1831 3584 
Q 2591 3584 2966 3190 
Q 3341 2797 3341 1997 
z
" transform="scale(0.015625)"/>
       <path id="DejaVuSans-6c" d="M 603 4863 
L 1178 4863 
L 1178 0 
L 603 0 
L 603 4863 
z
" transform="scale(0.015625)"/>
       <path id="DejaVuSans-20" transform="scale(0.015625)"/>
       <path id="DejaVuSans-45" d="M 628 4666 
L 3578 4666 
L 3578 4134 
L 1259 4134 
L 1259 2753 
L 3481 2753 
L 3481 2222 
L 1259 2222 
L 1259 531 
L 3634 531 
L 3634 0 
L 628 0 
L 628 4666 
z
" transform="scale(0.015625)"/>
       <path id="DejaVuSans-65" d="M 3597 1894 
L 3597 1613 
L 953 1613 
Q 991 1019 1311 708 
Q 1631 397 2203 397 
Q 2534 397 2845 478 
Q 3156 559 3463 722 
L 3463 178 
Q 3153 47 2828 -22 
Q 2503 -91 2169 -91 
Q 1331 -91 842 396 
Q 353 884 353 1716 
Q 353 2575 817 3079 
Q 1281 3584 2069 3584 
Q 2775 3584 3186 3129 
Q 3597 2675 3597 1894 
z
M 3022 2063 
Q 3016 2534 2758 2815 
Q 2500 3097 2075 3097 
Q 1594 3097 1305 2825 
Q 1016 2553 972 2059 
L 3022 2063 
z
" transform="scale(0.015625)"/>
       <path id="DejaVuSans-73" d="M 2834 3397 
L 2834 2853 
Q 2591 2978 2328 3040 
Q 2066 3103 1784 3103 
Q 1356 3103 1142 2972 
Q 928 2841 928 2578 
Q 928 2378 1081 2264 
Q 1234 2150 1697 2047 
L 1894 2003 
Q 2506 1872 2764 1633 
Q 3022 1394 3022 966 
Q 3022 478 2636 193 
Q 2250 -91 1575 -91 
Q 1294 -91 989 -36 
Q 684 19 347 128 
L 347 722 
Q 666 556 975 473 
Q 1284 391 1588 391 
Q 1994 391 2212 530 
Q 2431 669 2431 922 
Q 2431 1156 2273 1281 
Q 2116 1406 1581 1522 
L 1381 1569 
Q 847 1681 609 1914 
Q 372 2147 372 2553 
Q 372 3047 722 3315 
Q 1072 3584 1716 3584 
Q 2034 3584 2315 3537 
Q 2597 3491 2834 3397 
z
" transform="scale(0.015625)"/>
       <path id="DejaVuSans-5b" d="M 550 4863 
L 1875 4863 
L 1875 4416 
L 1125 4416 
L 1125 -397 
L 1875 -397 
L 1875 -844 
L 550 -844 
L 550 4863 
z
" transform="scale(0.015625)"/>
       <path id="DejaVuSans-2d" d="M 313 2009 
L 1997 2009 
L 1997 1497 
L 313 1497 
L 313 2009 
z
" transform="scale(0.015625)"/>
       <path id="DejaVuSans-5d" d="M 1947 4863 
L 1947 -844 
L 622 -844 
L 622 -397 
L 1369 -397 
L 1369 4416 
L 622 4416 
L 622 4863 
L 1947 4863 
z
" transform="scale(0.015625)"/>
      </defs>
      <use xlink:href="#DejaVuSans-49"/>
      <use xlink:href="#DejaVuSans-6e" x="29.492188"/>
      <use xlink:href="#DejaVuSans-64" x="92.871094"/>
      <use xlink:href="#DejaVuSans-69" x="156.347656"/>
      <use xlink:href="#DejaVuSans-76" x="184.130859"/>
      <use xlink:href="#DejaVuSans-69" x="243.310547"/>
      <use xlink:href="#DejaVuSans-64" x="271.09375"/>
      <use xlink:href="#DejaVuSans-75" x="334.570312"/>
      <use xlink:href="#DejaVuSans-61" x="397.949219"/>
      <use xlink:href="#DejaVuSans-6c" x="459.228516"/>
      <use xlink:href="#DejaVuSans-20" x="487.011719"/>
      <use xlink:href="#DejaVuSans-45" x="518.798828"/>
      <use xlink:href="#DejaVuSans-64" x="581.982422"/>
      <use xlink:href="#DejaVuSans-64" x="645.458984"/>
      <use xlink:href="#DejaVuSans-69" x="708.935547"/>
      <use xlink:href="#DejaVuSans-65" x="736.71875"/>
      <use xlink:href="#DejaVuSans-73" x="798.242188"/>
      <use xlink:href="#DejaVuSans-20" x="850.341797"/>
      <use xlink:href="#DejaVuSans-5b" x="882.128906"/>
      <use xlink:href="#DejaVuSans-2d" x="921.142578"/>
      <use xlink:href="#DejaVuSans-5d" x="957.226562"/>
     </g>
    </g>
   </g>
   <g id="matplotlib.axis_2">
    <g id="ytick_1">
     <g id="line2d_89">
      <path d="M 42.94375 266.431343 
L 400.06375 266.431343 
" clip-path="url(#p456e77e27a)" style="fill: none; stroke: #b0b0b0; stroke-width: 0.8; stroke-linecap: square"/>
     </g>
     <g id="line2d_90">
      <defs>
       <path id="m7f907cfaaa" d="M 0 0 
L -3.5 0 
" style="stroke: #000000; stroke-width: 0.8"/>
      </defs>
      <g>
       <use xlink:href="#m7f907cfaaa" x="42.94375" y="266.431343" style="stroke: #000000; stroke-width: 0.8"/>
      </g>
     </g>
     <g id="text_2">
      <!-- 0.0 -->
      <g transform="translate(20.040625 270.230562)scale(0.1 -0.1)">
       <defs>
        <path id="DejaVuSans-30" d="M 2034 4250 
Q 1547 4250 1301 3770 
Q 1056 3291 1056 2328 
Q 1056 1369 1301 889 
Q 1547 409 2034 409 
Q 2525 409 2770 889 
Q 3016 1369 3016 2328 
Q 3016 3291 2770 3770 
Q 2525 4250 2034 4250 
z
M 2034 4750 
Q 2819 4750 3233 4129 
Q 3647 3509 3647 2328 
Q 3647 1150 3233 529 
Q 2819 -91 2034 -91 
Q 1250 -91 836 529 
Q 422 1150 422 2328 
Q 422 3509 836 4129 
Q 1250 4750 2034 4750 
z
" transform="scale(0.015625)"/>
        <path id="DejaVuSans-2e" d="M 684 794 
L 1344 794 
L 1344 0 
L 684 0 
L 684 794 
z
" transform="scale(0.015625)"/>
       </defs>
       <use xlink:href="#DejaVuSans-30"/>
       <use xlink:href="#DejaVuSans-2e" x="63.623047"/>
       <use xlink:href="#DejaVuSans-30" x="95.410156"/>
      </g>
     </g>
    </g>
    <g id="ytick_2">
     <g id="line2d_91">
      <path d="M 42.94375 233.602328 
L 400.06375 233.602328 
" clip-path="url(#p456e77e27a)" style="fill: none; stroke: #b0b0b0; stroke-width: 0.8; stroke-linecap: square"/>
     </g>
     <g id="line2d_92">
      <g>
       <use xlink:href="#m7f907cfaaa" x="42.94375" y="233.602328" style="stroke: #000000; stroke-width: 0.8"/>
      </g>
     </g>
     <g id="text_3">
      <!-- 2.5 -->
      <g transform="translate(20.040625 237.401546)scale(0.1 -0.1)">
       <defs>
        <path id="DejaVuSans-32" d="M 1228 531 
L 3431 531 
L 3431 0 
L 469 0 
L 469 531 
Q 828 903 1448 1529 
Q 2069 2156 2228 2338 
Q 2531 2678 2651 2914 
Q 2772 3150 2772 3378 
Q 2772 3750 2511 3984 
Q 2250 4219 1831 4219 
Q 1534 4219 1204 4116 
Q 875 4013 500 3803 
L 500 4441 
Q 881 4594 1212 4672 
Q 1544 4750 1819 4750 
Q 2544 4750 2975 4387 
Q 3406 4025 3406 3419 
Q 3406 3131 3298 2873 
Q 3191 2616 2906 2266 
Q 2828 2175 2409 1742 
Q 1991 1309 1228 531 
z
" transform="scale(0.015625)"/>
        <path id="DejaVuSans-35" d="M 691 4666 
L 3169 4666 
L 3169 4134 
L 1269 4134 
L 1269 2991 
Q 1406 3038 1543 3061 
Q 1681 3084 1819 3084 
Q 2600 3084 3056 2656 
Q 3513 2228 3513 1497 
Q 3513 744 3044 326 
Q 2575 -91 1722 -91 
Q 1428 -91 1123 -41 
Q 819 9 494 109 
L 494 744 
Q 775 591 1075 516 
Q 1375 441 1709 441 
Q 2250 441 2565 725 
Q 2881 1009 2881 1497 
Q 2881 1984 2565 2268 
Q 2250 2553 1709 2553 
Q 1456 2553 1204 2497 
Q 953 2441 691 2322 
L 691 4666 
z
" transform="scale(0.015625)"/>
       </defs>
       <use xlink:href="#DejaVuSans-32"/>
       <use xlink:href="#DejaVuSans-2e" x="63.623047"/>
       <use xlink:href="#DejaVuSans-35" x="95.410156"/>
      </g>
     </g>
    </g>
    <g id="ytick_3">
     <g id="line2d_93">
      <path d="M 42.94375 200.773312 
L 400.06375 200.773312 
" clip-path="url(#p456e77e27a)" style="fill: none; stroke: #b0b0b0; stroke-width: 0.8; stroke-linecap: square"/>
     </g>
     <g id="line2d_94">
      <g>
       <use xlink:href="#m7f907cfaaa" x="42.94375" y="200.773312" style="stroke: #000000; stroke-width: 0.8"/>
      </g>
     </g>
     <g id="text_4">
      <!-- 5.0 -->
      <g transform="translate(20.040625 204.572531)scale(0.1 -0.1)">
       <use xlink:href="#DejaVuSans-35"/>
       <use xlink:href="#DejaVuSans-2e" x="63.623047"/>
       <use xlink:href="#DejaVuSans-30" x="95.410156"/>
      </g>
     </g>
    </g>
    <g id="ytick_4">
     <g id="line2d_95">
      <path d="M 42.94375 167.944296 
L 400.06375 167.944296 
" clip-path="url(#p456e77e27a)" style="fill: none; stroke: #b0b0b0; stroke-width: 0.8; stroke-linecap: square"/>
     </g>
     <g id="line2d_96">
      <g>
       <use xlink:href="#m7f907cfaaa" x="42.94375" y="167.944296" style="stroke: #000000; stroke-width: 0.8"/>
      </g>
     </g>
     <g id="text_5">
      <!-- 7.5 -->
      <g transform="translate(20.040625 171.743515)scale(0.1 -0.1)">
       <defs>
        <path id="DejaVuSans-37" d="M 525 4666 
L 3525 4666 
L 3525 4397 
L 1831 0 
L 1172 0 
L 2766 4134 
L 525 4134 
L 525 4666 
z
" transform="scale(0.015625)"/>
       </defs>
       <use xlink:href="#DejaVuSans-37"/>
       <use xlink:href="#DejaVuSans-2e" x="63.623047"/>
       <use xlink:href="#DejaVuSans-35" x="95.410156"/>
      </g>
     </g>
    </g>
    <g id="ytick_5">
     <g id="line2d_97">
      <path d="M 42.94375 135.115281 
L 400.06375 135.115281 
" clip-path="url(#p456e77e27a)" style="fill: none; stroke: #b0b0b0; stroke-width: 0.8; stroke-linecap: square"/>
     </g>
     <g id="line2d_98">
      <g>
       <use xlink:href="#m7f907cfaaa" x="42.94375" y="135.115281" style="stroke: #000000; stroke-width: 0.8"/>
      </g>
     </g>
     <g id="text_6">
      <!-- 10.0 -->
      <g transform="translate(13.678125 138.9145)scale(0.1 -0.1)">
       <defs>
        <path id="DejaVuSans-31" d="M 794 531 
L 1825 531 
L 1825 4091 
L 703 3866 
L 703 4441 
L 1819 4666 
L 2450 4666 
L 2450 531 
L 3481 531 
L 3481 0 
L 794 0 
L 794 531 
z
" transform="scale(0.015625)"/>
       </defs>
       <use xlink:href="#DejaVuSans-31"/>
       <use xlink:href="#DejaVuSans-30" x="63.623047"/>
       <use xlink:href="#DejaVuSans-2e" x="127.246094"/>
       <use xlink:href="#DejaVuSans-30" x="159.033203"/>
      </g>
     </g>
    </g>
    <g id="ytick_6">
     <g id="line2d_99">
      <path d="M 42.94375 102.286265 
L 400.06375 102.286265 
" clip-path="url(#p456e77e27a)" style="fill: none; stroke: #b0b0b0; stroke-width: 0.8; stroke-linecap: square"/>
     </g>
     <g id="line2d_100">
      <g>
       <use xlink:href="#m7f907cfaaa" x="42.94375" y="102.286265" style="stroke: #000000; stroke-width: 0.8"/>
      </g>
     </g>
     <g id="text_7">
      <!-- 12.5 -->
      <g transform="translate(13.678125 106.085484)scale(0.1 -0.1)">
       <use xlink:href="#DejaVuSans-31"/>
       <use xlink:href="#DejaVuSans-32" x="63.623047"/>
       <use xlink:href="#DejaVuSans-2e" x="127.246094"/>
       <use xlink:href="#DejaVuSans-35" x="159.033203"/>
      </g>
     </g>
    </g>
    <g id="ytick_7">
     <g id="line2d_101">
      <path d="M 42.94375 69.45725 
L 400.06375 69.45725 
" clip-path="url(#p456e77e27a)" style="fill: none; stroke: #b0b0b0; stroke-width: 0.8; stroke-linecap: square"/>
     </g>
     <g id="line2d_102">
      <g>
       <use xlink:href="#m7f907cfaaa" x="42.94375" y="69.45725" style="stroke: #000000; stroke-width: 0.8"/>
      </g>
     </g>
     <g id="text_8">
      <!-- 15.0 -->
      <g transform="translate(13.678125 73.256469)scale(0.1 -0.1)">
       <use xlink:href="#DejaVuSans-31"/>
       <use xlink:href="#DejaVuSans-35" x="63.623047"/>
       <use xlink:href="#DejaVuSans-2e" x="127.246094"/>
       <use xlink:href="#DejaVuSans-30" x="159.033203"/>
      </g>
     </g>
    </g>
    <g id="ytick_8">
     <g id="line2d_103">
      <path d="M 42.94375 36.628234 
L 400.06375 36.628234 
" clip-path="url(#p456e77e27a)" style="fill: none; stroke: #b0b0b0; stroke-width: 0.8; stroke-linecap: square"/>
     </g>
     <g id="line2d_104">
      <g>
       <use xlink:href="#m7f907cfaaa" x="42.94375" y="36.628234" style="stroke: #000000; stroke-width: 0.8"/>
      </g>
     </g>
     <g id="text_9">
      <!-- 17.5 -->
      <g transform="translate(13.678125 40.427453)scale(0.1 -0.1)">
       <use xlink:href="#DejaVuSans-31"/>
       <use xlink:href="#DejaVuSans-37" x="63.623047"/>
       <use xlink:href="#DejaVuSans-2e" x="127.246094"/>
       <use xlink:href="#DejaVuSans-35" x="159.033203"/>
      </g>
     </g>
    </g>
    <g id="ytick_9">
     <g id="line2d_105">
      <path d="M 42.94375 3.799219 
L 400.06375 3.799219 
" clip-path="url(#p456e77e27a)" style="fill: none; stroke: #b0b0b0; stroke-width: 0.8; stroke-linecap: square"/>
     </g>
     <g id="line2d_106">
      <g>
       <use xlink:href="#m7f907cfaaa" x="42.94375" y="3.799219" style="stroke: #000000; stroke-width: 0.8"/>
      </g>
     </g>
     <g id="text_10">
      <!-- 20.0 -->
      <g transform="translate(13.678125 7.598437)scale(0.1 -0.1)">
       <use xlink:href="#DejaVuSans-32"/>
       <use xlink:href="#DejaVuSans-30" x="63.623047"/>
       <use xlink:href="#DejaVuSans-2e" x="127.246094"/>
       <use xlink:href="#DejaVuSans-30" x="159.033203"/>
      </g>
     </g>
    </g>
    <g id="text_11">
     <!-- Eddy Area [10^3 * km^2] -->
     <g transform="translate(7.598438 198.974562)rotate(-90)scale(0.1 -0.1)">
      <defs>
       <path id="DejaVuSans-79" d="M 2059 -325 
Q 1816 -950 1584 -1140 
Q 1353 -1331 966 -1331 
L 506 -1331 
L 506 -850 
L 844 -850 
Q 1081 -850 1212 -737 
Q 1344 -625 1503 -206 
L 1606 56 
L 191 3500 
L 800 3500 
L 1894 763 
L 2988 3500 
L 3597 3500 
L 2059 -325 
z
" transform="scale(0.015625)"/>
       <path id="DejaVuSans-41" d="M 2188 4044 
L 1331 1722 
L 3047 1722 
L 2188 4044 
z
M 1831 4666 
L 2547 4666 
L 4325 0 
L 3669 0 
L 3244 1197 
L 1141 1197 
L 716 0 
L 50 0 
L 1831 4666 
z
" transform="scale(0.015625)"/>
       <path id="DejaVuSans-72" d="M 2631 2963 
Q 2534 3019 2420 3045 
Q 2306 3072 2169 3072 
Q 1681 3072 1420 2755 
Q 1159 2438 1159 1844 
L 1159 0 
L 581 0 
L 581 3500 
L 1159 3500 
L 1159 2956 
Q 1341 3275 1631 3429 
Q 1922 3584 2338 3584 
Q 2397 3584 2469 3576 
Q 2541 3569 2628 3553 
L 2631 2963 
z
" transform="scale(0.015625)"/>
       <path id="DejaVuSans-5e" d="M 2988 4666 
L 4684 2925 
L 4056 2925 
L 2681 4159 
L 1306 2925 
L 678 2925 
L 2375 4666 
L 2988 4666 
z
" transform="scale(0.015625)"/>
       <path id="DejaVuSans-33" d="M 2597 2516 
Q 3050 2419 3304 2112 
Q 3559 1806 3559 1356 
Q 3559 666 3084 287 
Q 2609 -91 1734 -91 
Q 1441 -91 1130 -33 
Q 819 25 488 141 
L 488 750 
Q 750 597 1062 519 
Q 1375 441 1716 441 
Q 2309 441 2620 675 
Q 2931 909 2931 1356 
Q 2931 1769 2642 2001 
Q 2353 2234 1838 2234 
L 1294 2234 
L 1294 2753 
L 1863 2753 
Q 2328 2753 2575 2939 
Q 2822 3125 2822 3475 
Q 2822 3834 2567 4026 
Q 2313 4219 1838 4219 
Q 1578 4219 1281 4162 
Q 984 4106 628 3988 
L 628 4550 
Q 988 4650 1302 4700 
Q 1616 4750 1894 4750 
Q 2613 4750 3031 4423 
Q 3450 4097 3450 3541 
Q 3450 3153 3228 2886 
Q 3006 2619 2597 2516 
z
" transform="scale(0.015625)"/>
       <path id="DejaVuSans-2a" d="M 3009 3897 
L 1888 3291 
L 3009 2681 
L 2828 2375 
L 1778 3009 
L 1778 1831 
L 1422 1831 
L 1422 3009 
L 372 2375 
L 191 2681 
L 1313 3291 
L 191 3897 
L 372 4206 
L 1422 3572 
L 1422 4750 
L 1778 4750 
L 1778 3572 
L 2828 4206 
L 3009 3897 
z
" transform="scale(0.015625)"/>
       <path id="DejaVuSans-6b" d="M 581 4863 
L 1159 4863 
L 1159 1991 
L 2875 3500 
L 3609 3500 
L 1753 1863 
L 3688 0 
L 2938 0 
L 1159 1709 
L 1159 0 
L 581 0 
L 581 4863 
z
" transform="scale(0.015625)"/>
       <path id="DejaVuSans-6d" d="M 3328 2828 
Q 3544 3216 3844 3400 
Q 4144 3584 4550 3584 
Q 5097 3584 5394 3201 
Q 5691 2819 5691 2113 
L 5691 0 
L 5113 0 
L 5113 2094 
Q 5113 2597 4934 2840 
Q 4756 3084 4391 3084 
Q 3944 3084 3684 2787 
Q 3425 2491 3425 1978 
L 3425 0 
L 2847 0 
L 2847 2094 
Q 2847 2600 2669 2842 
Q 2491 3084 2119 3084 
Q 1678 3084 1418 2786 
Q 1159 2488 1159 1978 
L 1159 0 
L 581 0 
L 581 3500 
L 1159 3500 
L 1159 2956 
Q 1356 3278 1631 3431 
Q 1906 3584 2284 3584 
Q 2666 3584 2933 3390 
Q 3200 3197 3328 2828 
z
" transform="scale(0.015625)"/>
      </defs>
      <use xlink:href="#DejaVuSans-45"/>
      <use xlink:href="#DejaVuSans-64" x="63.183594"/>
      <use xlink:href="#DejaVuSans-64" x="126.660156"/>
      <use xlink:href="#DejaVuSans-79" x="190.136719"/>
      <use xlink:href="#DejaVuSans-20" x="249.316406"/>
      <use xlink:href="#DejaVuSans-41" x="281.103516"/>
      <use xlink:href="#DejaVuSans-72" x="349.511719"/>
      <use xlink:href="#DejaVuSans-65" x="388.375"/>
      <use xlink:href="#DejaVuSans-61" x="449.898438"/>
      <use xlink:href="#DejaVuSans-20" x="511.177734"/>
      <use xlink:href="#DejaVuSans-5b" x="542.964844"/>
      <use xlink:href="#DejaVuSans-31" x="581.978516"/>
      <use xlink:href="#DejaVuSans-30" x="645.601562"/>
      <use xlink:href="#DejaVuSans-5e" x="709.224609"/>
      <use xlink:href="#DejaVuSans-33" x="793.013672"/>
      <use xlink:href="#DejaVuSans-20" x="856.636719"/>
      <use xlink:href="#DejaVuSans-2a" x="888.423828"/>
      <use xlink:href="#DejaVuSans-20" x="938.423828"/>
      <use xlink:href="#DejaVuSans-6b" x="970.210938"/>
      <use xlink:href="#DejaVuSans-6d" x="1028.121094"/>
      <use xlink:href="#DejaVuSans-5e" x="1125.533203"/>
      <use xlink:href="#DejaVuSans-32" x="1209.322266"/>
      <use xlink:href="#DejaVuSans-5d" x="1272.945312"/>
     </g>
    </g>
   </g>
   <g id="patch_3">
    <path d="M 59.176477 266.431343 
L 65.106241 266.431343 
L 65.106241 250.148151 
L 59.176477 250.148151 
z
" clip-path="url(#p456e77e27a)" style="fill: #000080"/>
   </g>
   <g id="patch_4">
    <path d="M 66.588682 266.431343 
L 72.518445 266.431343 
L 72.518445 245.289457 
L 66.588682 245.289457 
z
" clip-path="url(#p456e77e27a)" style="fill: #000080"/>
   </g>
   <g id="patch_5">
    <path d="M 74.000886 266.431343 
L 79.930649 266.431343 
L 79.930649 240.430763 
L 74.000886 240.430763 
z
" clip-path="url(#p456e77e27a)" style="fill: #ff0000"/>
   </g>
   <g id="patch_6">
    <path d="M 81.41309 266.431343 
L 87.342853 266.431343 
L 87.342853 237.147861 
L 81.41309 237.147861 
z
" clip-path="url(#p456e77e27a)" style="fill: #000080"/>
   </g>
   <g id="patch_7">
    <path d="M 88.825294 266.431343 
L 94.755058 266.431343 
L 94.755058 233.996276 
L 88.825294 233.996276 
z
" clip-path="url(#p456e77e27a)" style="fill: #ff0000"/>
   </g>
   <g id="patch_8">
    <path d="M 96.237498 266.431343 
L 102.167262 266.431343 
L 102.167262 227.430473 
L 96.237498 227.430473 
z
" clip-path="url(#p456e77e27a)" style="fill: #ff0000"/>
   </g>
   <g id="patch_9">
    <path d="M 103.649703 266.431343 
L 109.579466 266.431343 
L 109.579466 225.85468 
L 103.649703 225.85468 
z
" clip-path="url(#p456e77e27a)" style="fill: #000080"/>
   </g>
   <g id="patch_10">
    <path d="M 111.061907 266.431343 
L 116.99167 266.431343 
L 116.99167 222.571778 
L 111.061907 222.571778 
z
" clip-path="url(#p456e77e27a)" style="fill: #000080"/>
   </g>
   <g id="patch_11">
    <path d="M 118.474111 266.431343 
L 124.403875 266.431343 
L 124.403875 219.288877 
L 118.474111 219.288877 
z
" clip-path="url(#p456e77e27a)" style="fill: #ff0000"/>
   </g>
   <g id="patch_12">
    <path d="M 125.886315 266.431343 
L 131.816079 266.431343 
L 131.816079 217.713084 
L 125.886315 217.713084 
z
" clip-path="url(#p456e77e27a)" style="fill: #ff0000"/>
   </g>
   <g id="patch_13">
    <path d="M 133.29852 266.431343 
L 139.228283 266.431343 
L 139.228283 216.005975 
L 133.29852 216.005975 
z
" clip-path="url(#p456e77e27a)" style="fill: #000080"/>
   </g>
   <g id="patch_14">
    <path d="M 140.710724 266.431343 
L 146.640487 266.431343 
L 146.640487 214.430182 
L 140.710724 214.430182 
z
" clip-path="url(#p456e77e27a)" style="fill: #ff0000"/>
   </g>
   <g id="patch_15">
    <path d="M 148.122928 266.431343 
L 154.052691 266.431343 
L 154.052691 212.85439 
L 148.122928 212.85439 
z
" clip-path="url(#p456e77e27a)" style="fill: #000080"/>
   </g>
   <g id="patch_16">
    <path d="M 155.535132 266.431343 
L 161.464896 266.431343 
L 161.464896 212.85439 
L 155.535132 212.85439 
z
" clip-path="url(#p456e77e27a)" style="fill: #000080"/>
   </g>
   <g id="patch_17">
    <path d="M 162.947337 266.431343 
L 168.8771 266.431343 
L 168.8771 212.85439 
L 162.947337 212.85439 
z
" clip-path="url(#p456e77e27a)" style="fill: #ff0000"/>
   </g>
   <g id="patch_18">
    <path d="M 170.359541 266.431343 
L 176.289304 266.431343 
L 176.289304 209.571488 
L 170.359541 209.571488 
z
" clip-path="url(#p456e77e27a)" style="fill: #000080"/>
   </g>
   <g id="patch_19">
    <path d="M 177.771745 266.431343 
L 183.701508 266.431343 
L 183.701508 206.288587 
L 177.771745 206.288587 
z
" clip-path="url(#p456e77e27a)" style="fill: #000080"/>
   </g>
   <g id="patch_20">
    <path d="M 185.183949 266.431343 
L 191.113713 266.431343 
L 191.113713 204.712794 
L 185.183949 204.712794 
z
" clip-path="url(#p456e77e27a)" style="fill: #000080"/>
   </g>
   <g id="patch_21">
    <path d="M 192.596153 266.431343 
L 198.525917 266.431343 
L 198.525917 204.712794 
L 192.596153 204.712794 
z
" clip-path="url(#p456e77e27a)" style="fill: #000080"/>
   </g>
   <g id="patch_22">
    <path d="M 200.008358 266.431343 
L 205.938121 266.431343 
L 205.938121 203.137001 
L 200.008358 203.137001 
z
" clip-path="url(#p456e77e27a)" style="fill: #000080"/>
   </g>
   <g id="patch_23">
    <path d="M 207.420562 266.431343 
L 213.350325 266.431343 
L 213.350325 201.429892 
L 207.420562 201.429892 
z
" clip-path="url(#p456e77e27a)" style="fill: #ff0000"/>
   </g>
   <g id="patch_24">
    <path d="M 214.832766 266.431343 
L 220.76253 266.431343 
L 220.76253 201.429892 
L 214.832766 201.429892 
z
" clip-path="url(#p456e77e27a)" style="fill: #ff0000"/>
   </g>
   <g id="patch_25">
    <path d="M 222.24497 266.431343 
L 228.174734 266.431343 
L 228.174734 198.146991 
L 222.24497 198.146991 
z
" clip-path="url(#p456e77e27a)" style="fill: #000080"/>
   </g>
   <g id="patch_26">
    <path d="M 229.657175 266.431343 
L 235.586938 266.431343 
L 235.586938 193.288296 
L 229.657175 193.288296 
z
" clip-path="url(#p456e77e27a)" style="fill: #000080"/>
   </g>
   <g id="patch_27">
    <path d="M 237.069379 266.431343 
L 242.999142 266.431343 
L 242.999142 186.853809 
L 237.069379 186.853809 
z
" clip-path="url(#p456e77e27a)" style="fill: #ff0000"/>
   </g>
   <g id="patch_28">
    <path d="M 244.481583 266.431343 
L 250.411347 266.431343 
L 250.411347 180.288006 
L 244.481583 180.288006 
z
" clip-path="url(#p456e77e27a)" style="fill: #ff0000"/>
   </g>
   <g id="patch_29">
    <path d="M 251.893787 266.431343 
L 257.823551 266.431343 
L 257.823551 177.136421 
L 251.893787 177.136421 
z
" clip-path="url(#p456e77e27a)" style="fill: #ff0000"/>
   </g>
   <g id="patch_30">
    <path d="M 259.305992 266.431343 
L 265.235755 266.431343 
L 265.235755 177.136421 
L 259.305992 177.136421 
z
" clip-path="url(#p456e77e27a)" style="fill: #000080"/>
   </g>
   <g id="patch_31">
    <path d="M 266.718196 266.431343 
L 272.647959 266.431343 
L 272.647959 170.570618 
L 266.718196 170.570618 
z
" clip-path="url(#p456e77e27a)" style="fill: #000080"/>
   </g>
   <g id="patch_32">
    <path d="M 274.1304 266.431343 
L 280.060163 266.431343 
L 280.060163 168.994825 
L 274.1304 168.994825 
z
" clip-path="url(#p456e77e27a)" style="fill: #ff0000"/>
   </g>
   <g id="patch_33">
    <path d="M 281.542604 266.431343 
L 287.472368 266.431343 
L 287.472368 155.994535 
L 281.542604 155.994535 
z
" clip-path="url(#p456e77e27a)" style="fill: #ff0000"/>
   </g>
   <g id="patch_34">
    <path d="M 288.954809 266.431343 
L 294.884572 266.431343 
L 294.884572 154.287426 
L 288.954809 154.287426 
z
" clip-path="url(#p456e77e27a)" style="fill: #000080"/>
   </g>
   <g id="patch_35">
    <path d="M 296.367013 266.431343 
L 302.296776 266.431343 
L 302.296776 151.135841 
L 296.367013 151.135841 
z
" clip-path="url(#p456e77e27a)" style="fill: #000080"/>
   </g>
   <g id="patch_36">
    <path d="M 303.779217 266.431343 
L 309.70898 266.431343 
L 309.70898 147.852939 
L 303.779217 147.852939 
z
" clip-path="url(#p456e77e27a)" style="fill: #000080"/>
   </g>
   <g id="patch_37">
    <path d="M 311.191421 266.431343 
L 317.121185 266.431343 
L 317.121185 146.277146 
L 311.191421 146.277146 
z
" clip-path="url(#p456e77e27a)" style="fill: #000080"/>
   </g>
   <g id="patch_38">
    <path d="M 318.603625 266.431343 
L 324.533389 266.431343 
L 324.533389 142.994245 
L 318.603625 142.994245 
z
" clip-path="url(#p456e77e27a)" style="fill: #000080"/>
   </g>
   <g id="patch_39">
    <path d="M 326.01583 266.431343 
L 331.945593 266.431343 
L 331.945593 142.994245 
L 326.01583 142.994245 
z
" clip-path="url(#p456e77e27a)" style="fill: #ff0000"/>
   </g>
   <g id="patch_40">
    <path d="M 333.428034 266.431343 
L 339.357797 266.431343 
L 339.357797 136.428442 
L 333.428034 136.428442 
z
" clip-path="url(#p456e77e27a)" style="fill: #ff0000"/>
   </g>
   <g id="patch_41">
    <path d="M 340.840238 266.431343 
L 346.770002 266.431343 
L 346.770002 134.852649 
L 340.840238 134.852649 
z
" clip-path="url(#p456e77e27a)" style="fill: #ff0000"/>
   </g>
   <g id="patch_42">
    <path d="M 348.252442 266.431343 
L 354.182206 266.431343 
L 354.182206 131.569747 
L 348.252442 131.569747 
z
" clip-path="url(#p456e77e27a)" style="fill: #ff0000"/>
   </g>
   <g id="patch_43">
    <path d="M 355.664647 266.431343 
L 361.59441 266.431343 
L 361.59441 120.276566 
L 355.664647 120.276566 
z
" clip-path="url(#p456e77e27a)" style="fill: #000080"/>
   </g>
   <g id="patch_44">
    <path d="M 363.076851 266.431343 
L 369.006614 266.431343 
L 369.006614 108.852068 
L 363.076851 108.852068 
z
" clip-path="url(#p456e77e27a)" style="fill: #ff0000"/>
   </g>
   <g id="patch_45">
    <path d="M 370.489055 266.431343 
L 376.418818 266.431343 
L 376.418818 107.276276 
L 370.489055 107.276276 
z
" clip-path="url(#p456e77e27a)" style="fill: #000080"/>
   </g>
   <g id="patch_46">
    <path d="M 377.901259 266.431343 
L 383.831023 266.431343 
L 383.831023 12.991343 
L 377.901259 12.991343 
z
" clip-path="url(#p456e77e27a)" style="fill: #000080"/>
   </g>
   <g id="patch_47">
    <path d="M 42.94375 266.431343 
L 42.94375 0.319343 
" style="fill: none; stroke: #000000; stroke-width: 0.8; stroke-linejoin: miter; stroke-linecap: square"/>
   </g>
   <g id="patch_48">
    <path d="M 400.06375 266.431343 
L 400.06375 0.319343 
" style="fill: none; stroke: #000000; stroke-width: 0.8; stroke-linejoin: miter; stroke-linecap: square"/>
   </g>
   <g id="patch_49">
    <path d="M 42.94375 266.431343 
L 400.06375 266.431343 
" style="fill: none; stroke: #000000; stroke-width: 0.8; stroke-linejoin: miter; stroke-linecap: square"/>
   </g>
   <g id="patch_50">
    <path d="M 42.94375 0.319343 
L 400.06375 0.319343 
" style="fill: none; stroke: #000000; stroke-width: 0.8; stroke-linejoin: miter; stroke-linecap: square"/>
   </g>
  </g>
 </g>
 <defs>
  <clipPath id="p456e77e27a">
   <rect x="42.94375" y="0.319343" width="357.12" height="266.112"/>
  </clipPath>
 </defs>
</svg>
