<?xml version="1.0" encoding="utf-8" standalone="no"?>
<!DOCTYPE svg PUBLIC "-//W3C//DTD SVG 1.1//EN"
  "http://www.w3.org/Graphics/SVG/1.1/DTD/svg11.dtd">
<svg xmlns:xlink="http://www.w3.org/1999/xlink" width="390.523125pt" height="286.790125pt" viewBox="0 0 390.523125 286.790125" xmlns="http://www.w3.org/2000/svg" version="1.1">
 <metadata>
  <rdf:RDF xmlns:dc="http://purl.org/dc/elements/1.1/" xmlns:cc="http://creativecommons.org/ns#" xmlns:rdf="http://www.w3.org/1999/02/22-rdf-syntax-ns#">
   <cc:Work>
    <dc:type rdf:resource="http://purl.org/dc/dcmitype/StillImage"/>
    <dc:date>2023-06-13T22:17:58.293449</dc:date>
    <dc:format>image/svg+xml</dc:format>
    <dc:creator>
     <cc:Agent>
      <dc:title>Matplotlib v3.5.2, https://matplotlib.org/</dc:title>
     </cc:Agent>
    </dc:creator>
   </cc:Work>
  </rdf:RDF>
 </metadata>
 <defs>
  <style type="text/css">*{stroke-linejoin: round; stroke-linecap: butt}</style>
 </defs>
 <g id="figure_1">
  <g id="patch_1">
   <path d="M 0 286.790125 
L 390.523125 286.790125 
L 390.523125 -0 
L 0 -0 
z
" style="fill: #ffffff"/>
  </g>
  <g id="axes_1">
   <g id="patch_2">
    <path d="M 33.403125 266.112 
L 390.523125 266.112 
L 390.523125 -0 
L 33.403125 -0 
z
" style="fill: #ffffff"/>
   </g>
   <g id="matplotlib.axis_1">
    <g id="xtick_1">
     <g id="line2d_1">
      <path d="M 52.471263 266.112 
L 52.471263 -0 
" clip-path="url(#p2369b4b687)" style="fill: none; stroke: #b0b0b0; stroke-width: 0.8; stroke-linecap: square"/>
     </g>
     <g id="line2d_2">
      <defs>
       <path id="m7dc9708775" d="M 0 0 
L 0 3.5 
" style="stroke: #000000; stroke-width: 0.8"/>
      </defs>
      <g>
       <use xlink:href="#m7dc9708775" x="52.471263" y="266.112" style="stroke: #000000; stroke-width: 0.8"/>
      </g>
     </g>
    </g>
    <g id="xtick_2">
     <g id="line2d_3">
      <path d="M 59.55979 266.112 
L 59.55979 -0 
" clip-path="url(#p2369b4b687)" style="fill: none; stroke: #b0b0b0; stroke-width: 0.8; stroke-linecap: square"/>
     </g>
     <g id="line2d_4">
      <g>
       <use xlink:href="#m7dc9708775" x="59.55979" y="266.112" style="stroke: #000000; stroke-width: 0.8"/>
      </g>
     </g>
    </g>
    <g id="xtick_3">
     <g id="line2d_5">
      <path d="M 66.648318 266.112 
L 66.648318 -0 
" clip-path="url(#p2369b4b687)" style="fill: none; stroke: #b0b0b0; stroke-width: 0.8; stroke-linecap: square"/>
     </g>
     <g id="line2d_6">
      <g>
       <use xlink:href="#m7dc9708775" x="66.648318" y="266.112" style="stroke: #000000; stroke-width: 0.8"/>
      </g>
     </g>
    </g>
    <g id="xtick_4">
     <g id="line2d_7">
      <path d="M 73.736845 266.112 
L 73.736845 -0 
" clip-path="url(#p2369b4b687)" style="fill: none; stroke: #b0b0b0; stroke-width: 0.8; stroke-linecap: square"/>
     </g>
     <g id="line2d_8">
      <g>
       <use xlink:href="#m7dc9708775" x="73.736845" y="266.112" style="stroke: #000000; stroke-width: 0.8"/>
      </g>
     </g>
    </g>
    <g id="xtick_5">
     <g id="line2d_9">
      <path d="M 80.825372 266.112 
L 80.825372 -0 
" clip-path="url(#p2369b4b687)" style="fill: none; stroke: #b0b0b0; stroke-width: 0.8; stroke-linecap: square"/>
     </g>
     <g id="line2d_10">
      <g>
       <use xlink:href="#m7dc9708775" x="80.825372" y="266.112" style="stroke: #000000; stroke-width: 0.8"/>
      </g>
     </g>
    </g>
    <g id="xtick_6">
     <g id="line2d_11">
      <path d="M 87.913899 266.112 
L 87.913899 -0 
" clip-path="url(#p2369b4b687)" style="fill: none; stroke: #b0b0b0; stroke-width: 0.8; stroke-linecap: square"/>
     </g>
     <g id="line2d_12">
      <g>
       <use xlink:href="#m7dc9708775" x="87.913899" y="266.112" style="stroke: #000000; stroke-width: 0.8"/>
      </g>
     </g>
    </g>
    <g id="xtick_7">
     <g id="line2d_13">
      <path d="M 95.002426 266.112 
L 95.002426 -0 
" clip-path="url(#p2369b4b687)" style="fill: none; stroke: #b0b0b0; stroke-width: 0.8; stroke-linecap: square"/>
     </g>
     <g id="line2d_14">
      <g>
       <use xlink:href="#m7dc9708775" x="95.002426" y="266.112" style="stroke: #000000; stroke-width: 0.8"/>
      </g>
     </g>
    </g>
    <g id="xtick_8">
     <g id="line2d_15">
      <path d="M 102.090954 266.112 
L 102.090954 -0 
" clip-path="url(#p2369b4b687)" style="fill: none; stroke: #b0b0b0; stroke-width: 0.8; stroke-linecap: square"/>
     </g>
     <g id="line2d_16">
      <g>
       <use xlink:href="#m7dc9708775" x="102.090954" y="266.112" style="stroke: #000000; stroke-width: 0.8"/>
      </g>
     </g>
    </g>
    <g id="xtick_9">
     <g id="line2d_17">
      <path d="M 109.179481 266.112 
L 109.179481 -0 
" clip-path="url(#p2369b4b687)" style="fill: none; stroke: #b0b0b0; stroke-width: 0.8; stroke-linecap: square"/>
     </g>
     <g id="line2d_18">
      <g>
       <use xlink:href="#m7dc9708775" x="109.179481" y="266.112" style="stroke: #000000; stroke-width: 0.8"/>
      </g>
     </g>
    </g>
    <g id="xtick_10">
     <g id="line2d_19">
      <path d="M 116.268008 266.112 
L 116.268008 -0 
" clip-path="url(#p2369b4b687)" style="fill: none; stroke: #b0b0b0; stroke-width: 0.8; stroke-linecap: square"/>
     </g>
     <g id="line2d_20">
      <g>
       <use xlink:href="#m7dc9708775" x="116.268008" y="266.112" style="stroke: #000000; stroke-width: 0.8"/>
      </g>
     </g>
    </g>
    <g id="xtick_11">
     <g id="line2d_21">
      <path d="M 123.356535 266.112 
L 123.356535 -0 
" clip-path="url(#p2369b4b687)" style="fill: none; stroke: #b0b0b0; stroke-width: 0.8; stroke-linecap: square"/>
     </g>
     <g id="line2d_22">
      <g>
       <use xlink:href="#m7dc9708775" x="123.356535" y="266.112" style="stroke: #000000; stroke-width: 0.8"/>
      </g>
     </g>
    </g>
    <g id="xtick_12">
     <g id="line2d_23">
      <path d="M 130.445062 266.112 
L 130.445062 -0 
" clip-path="url(#p2369b4b687)" style="fill: none; stroke: #b0b0b0; stroke-width: 0.8; stroke-linecap: square"/>
     </g>
     <g id="line2d_24">
      <g>
       <use xlink:href="#m7dc9708775" x="130.445062" y="266.112" style="stroke: #000000; stroke-width: 0.8"/>
      </g>
     </g>
    </g>
    <g id="xtick_13">
     <g id="line2d_25">
      <path d="M 137.533589 266.112 
L 137.533589 -0 
" clip-path="url(#p2369b4b687)" style="fill: none; stroke: #b0b0b0; stroke-width: 0.8; stroke-linecap: square"/>
     </g>
     <g id="line2d_26">
      <g>
       <use xlink:href="#m7dc9708775" x="137.533589" y="266.112" style="stroke: #000000; stroke-width: 0.8"/>
      </g>
     </g>
    </g>
    <g id="xtick_14">
     <g id="line2d_27">
      <path d="M 144.622117 266.112 
L 144.622117 -0 
" clip-path="url(#p2369b4b687)" style="fill: none; stroke: #b0b0b0; stroke-width: 0.8; stroke-linecap: square"/>
     </g>
     <g id="line2d_28">
      <g>
       <use xlink:href="#m7dc9708775" x="144.622117" y="266.112" style="stroke: #000000; stroke-width: 0.8"/>
      </g>
     </g>
    </g>
    <g id="xtick_15">
     <g id="line2d_29">
      <path d="M 151.710644 266.112 
L 151.710644 -0 
" clip-path="url(#p2369b4b687)" style="fill: none; stroke: #b0b0b0; stroke-width: 0.8; stroke-linecap: square"/>
     </g>
     <g id="line2d_30">
      <g>
       <use xlink:href="#m7dc9708775" x="151.710644" y="266.112" style="stroke: #000000; stroke-width: 0.8"/>
      </g>
     </g>
    </g>
    <g id="xtick_16">
     <g id="line2d_31">
      <path d="M 158.799171 266.112 
L 158.799171 -0 
" clip-path="url(#p2369b4b687)" style="fill: none; stroke: #b0b0b0; stroke-width: 0.8; stroke-linecap: square"/>
     </g>
     <g id="line2d_32">
      <g>
       <use xlink:href="#m7dc9708775" x="158.799171" y="266.112" style="stroke: #000000; stroke-width: 0.8"/>
      </g>
     </g>
    </g>
    <g id="xtick_17">
     <g id="line2d_33">
      <path d="M 165.887698 266.112 
L 165.887698 -0 
" clip-path="url(#p2369b4b687)" style="fill: none; stroke: #b0b0b0; stroke-width: 0.8; stroke-linecap: square"/>
     </g>
     <g id="line2d_34">
      <g>
       <use xlink:href="#m7dc9708775" x="165.887698" y="266.112" style="stroke: #000000; stroke-width: 0.8"/>
      </g>
     </g>
    </g>
    <g id="xtick_18">
     <g id="line2d_35">
      <path d="M 172.976225 266.112 
L 172.976225 -0 
" clip-path="url(#p2369b4b687)" style="fill: none; stroke: #b0b0b0; stroke-width: 0.8; stroke-linecap: square"/>
     </g>
     <g id="line2d_36">
      <g>
       <use xlink:href="#m7dc9708775" x="172.976225" y="266.112" style="stroke: #000000; stroke-width: 0.8"/>
      </g>
     </g>
    </g>
    <g id="xtick_19">
     <g id="line2d_37">
      <path d="M 180.064753 266.112 
L 180.064753 -0 
" clip-path="url(#p2369b4b687)" style="fill: none; stroke: #b0b0b0; stroke-width: 0.8; stroke-linecap: square"/>
     </g>
     <g id="line2d_38">
      <g>
       <use xlink:href="#m7dc9708775" x="180.064753" y="266.112" style="stroke: #000000; stroke-width: 0.8"/>
      </g>
     </g>
    </g>
    <g id="xtick_20">
     <g id="line2d_39">
      <path d="M 187.15328 266.112 
L 187.15328 -0 
" clip-path="url(#p2369b4b687)" style="fill: none; stroke: #b0b0b0; stroke-width: 0.8; stroke-linecap: square"/>
     </g>
     <g id="line2d_40">
      <g>
       <use xlink:href="#m7dc9708775" x="187.15328" y="266.112" style="stroke: #000000; stroke-width: 0.8"/>
      </g>
     </g>
    </g>
    <g id="xtick_21">
     <g id="line2d_41">
      <path d="M 194.241807 266.112 
L 194.241807 -0 
" clip-path="url(#p2369b4b687)" style="fill: none; stroke: #b0b0b0; stroke-width: 0.8; stroke-linecap: square"/>
     </g>
     <g id="line2d_42">
      <g>
       <use xlink:href="#m7dc9708775" x="194.241807" y="266.112" style="stroke: #000000; stroke-width: 0.8"/>
      </g>
     </g>
    </g>
    <g id="xtick_22">
     <g id="line2d_43">
      <path d="M 201.330334 266.112 
L 201.330334 -0 
" clip-path="url(#p2369b4b687)" style="fill: none; stroke: #b0b0b0; stroke-width: 0.8; stroke-linecap: square"/>
     </g>
     <g id="line2d_44">
      <g>
       <use xlink:href="#m7dc9708775" x="201.330334" y="266.112" style="stroke: #000000; stroke-width: 0.8"/>
      </g>
     </g>
    </g>
    <g id="xtick_23">
     <g id="line2d_45">
      <path d="M 208.418861 266.112 
L 208.418861 -0 
" clip-path="url(#p2369b4b687)" style="fill: none; stroke: #b0b0b0; stroke-width: 0.8; stroke-linecap: square"/>
     </g>
     <g id="line2d_46">
      <g>
       <use xlink:href="#m7dc9708775" x="208.418861" y="266.112" style="stroke: #000000; stroke-width: 0.8"/>
      </g>
     </g>
    </g>
    <g id="xtick_24">
     <g id="line2d_47">
      <path d="M 215.507389 266.112 
L 215.507389 -0 
" clip-path="url(#p2369b4b687)" style="fill: none; stroke: #b0b0b0; stroke-width: 0.8; stroke-linecap: square"/>
     </g>
     <g id="line2d_48">
      <g>
       <use xlink:href="#m7dc9708775" x="215.507389" y="266.112" style="stroke: #000000; stroke-width: 0.8"/>
      </g>
     </g>
    </g>
    <g id="xtick_25">
     <g id="line2d_49">
      <path d="M 222.595916 266.112 
L 222.595916 -0 
" clip-path="url(#p2369b4b687)" style="fill: none; stroke: #b0b0b0; stroke-width: 0.8; stroke-linecap: square"/>
     </g>
     <g id="line2d_50">
      <g>
       <use xlink:href="#m7dc9708775" x="222.595916" y="266.112" style="stroke: #000000; stroke-width: 0.8"/>
      </g>
     </g>
    </g>
    <g id="xtick_26">
     <g id="line2d_51">
      <path d="M 229.684443 266.112 
L 229.684443 -0 
" clip-path="url(#p2369b4b687)" style="fill: none; stroke: #b0b0b0; stroke-width: 0.8; stroke-linecap: square"/>
     </g>
     <g id="line2d_52">
      <g>
       <use xlink:href="#m7dc9708775" x="229.684443" y="266.112" style="stroke: #000000; stroke-width: 0.8"/>
      </g>
     </g>
    </g>
    <g id="xtick_27">
     <g id="line2d_53">
      <path d="M 236.77297 266.112 
L 236.77297 -0 
" clip-path="url(#p2369b4b687)" style="fill: none; stroke: #b0b0b0; stroke-width: 0.8; stroke-linecap: square"/>
     </g>
     <g id="line2d_54">
      <g>
       <use xlink:href="#m7dc9708775" x="236.77297" y="266.112" style="stroke: #000000; stroke-width: 0.8"/>
      </g>
     </g>
    </g>
    <g id="xtick_28">
     <g id="line2d_55">
      <path d="M 243.861497 266.112 
L 243.861497 -0 
" clip-path="url(#p2369b4b687)" style="fill: none; stroke: #b0b0b0; stroke-width: 0.8; stroke-linecap: square"/>
     </g>
     <g id="line2d_56">
      <g>
       <use xlink:href="#m7dc9708775" x="243.861497" y="266.112" style="stroke: #000000; stroke-width: 0.8"/>
      </g>
     </g>
    </g>
    <g id="xtick_29">
     <g id="line2d_57">
      <path d="M 250.950025 266.112 
L 250.950025 -0 
" clip-path="url(#p2369b4b687)" style="fill: none; stroke: #b0b0b0; stroke-width: 0.8; stroke-linecap: square"/>
     </g>
     <g id="line2d_58">
      <g>
       <use xlink:href="#m7dc9708775" x="250.950025" y="266.112" style="stroke: #000000; stroke-width: 0.8"/>
      </g>
     </g>
    </g>
    <g id="xtick_30">
     <g id="line2d_59">
      <path d="M 258.038552 266.112 
L 258.038552 -0 
" clip-path="url(#p2369b4b687)" style="fill: none; stroke: #b0b0b0; stroke-width: 0.8; stroke-linecap: square"/>
     </g>
     <g id="line2d_60">
      <g>
       <use xlink:href="#m7dc9708775" x="258.038552" y="266.112" style="stroke: #000000; stroke-width: 0.8"/>
      </g>
     </g>
    </g>
    <g id="xtick_31">
     <g id="line2d_61">
      <path d="M 265.127079 266.112 
L 265.127079 -0 
" clip-path="url(#p2369b4b687)" style="fill: none; stroke: #b0b0b0; stroke-width: 0.8; stroke-linecap: square"/>
     </g>
     <g id="line2d_62">
      <g>
       <use xlink:href="#m7dc9708775" x="265.127079" y="266.112" style="stroke: #000000; stroke-width: 0.8"/>
      </g>
     </g>
    </g>
    <g id="xtick_32">
     <g id="line2d_63">
      <path d="M 272.215606 266.112 
L 272.215606 -0 
" clip-path="url(#p2369b4b687)" style="fill: none; stroke: #b0b0b0; stroke-width: 0.8; stroke-linecap: square"/>
     </g>
     <g id="line2d_64">
      <g>
       <use xlink:href="#m7dc9708775" x="272.215606" y="266.112" style="stroke: #000000; stroke-width: 0.8"/>
      </g>
     </g>
    </g>
    <g id="xtick_33">
     <g id="line2d_65">
      <path d="M 279.304133 266.112 
L 279.304133 -0 
" clip-path="url(#p2369b4b687)" style="fill: none; stroke: #b0b0b0; stroke-width: 0.8; stroke-linecap: square"/>
     </g>
     <g id="line2d_66">
      <g>
       <use xlink:href="#m7dc9708775" x="279.304133" y="266.112" style="stroke: #000000; stroke-width: 0.8"/>
      </g>
     </g>
    </g>
    <g id="xtick_34">
     <g id="line2d_67">
      <path d="M 286.392661 266.112 
L 286.392661 -0 
" clip-path="url(#p2369b4b687)" style="fill: none; stroke: #b0b0b0; stroke-width: 0.8; stroke-linecap: square"/>
     </g>
     <g id="line2d_68">
      <g>
       <use xlink:href="#m7dc9708775" x="286.392661" y="266.112" style="stroke: #000000; stroke-width: 0.8"/>
      </g>
     </g>
    </g>
    <g id="xtick_35">
     <g id="line2d_69">
      <path d="M 293.481188 266.112 
L 293.481188 -0 
" clip-path="url(#p2369b4b687)" style="fill: none; stroke: #b0b0b0; stroke-width: 0.8; stroke-linecap: square"/>
     </g>
     <g id="line2d_70">
      <g>
       <use xlink:href="#m7dc9708775" x="293.481188" y="266.112" style="stroke: #000000; stroke-width: 0.8"/>
      </g>
     </g>
    </g>
    <g id="xtick_36">
     <g id="line2d_71">
      <path d="M 300.569715 266.112 
L 300.569715 -0 
" clip-path="url(#p2369b4b687)" style="fill: none; stroke: #b0b0b0; stroke-width: 0.8; stroke-linecap: square"/>
     </g>
     <g id="line2d_72">
      <g>
       <use xlink:href="#m7dc9708775" x="300.569715" y="266.112" style="stroke: #000000; stroke-width: 0.8"/>
      </g>
     </g>
    </g>
    <g id="xtick_37">
     <g id="line2d_73">
      <path d="M 307.658242 266.112 
L 307.658242 -0 
" clip-path="url(#p2369b4b687)" style="fill: none; stroke: #b0b0b0; stroke-width: 0.8; stroke-linecap: square"/>
     </g>
     <g id="line2d_74">
      <g>
       <use xlink:href="#m7dc9708775" x="307.658242" y="266.112" style="stroke: #000000; stroke-width: 0.8"/>
      </g>
     </g>
    </g>
    <g id="xtick_38">
     <g id="line2d_75">
      <path d="M 314.746769 266.112 
L 314.746769 -0 
" clip-path="url(#p2369b4b687)" style="fill: none; stroke: #b0b0b0; stroke-width: 0.8; stroke-linecap: square"/>
     </g>
     <g id="line2d_76">
      <g>
       <use xlink:href="#m7dc9708775" x="314.746769" y="266.112" style="stroke: #000000; stroke-width: 0.8"/>
      </g>
     </g>
    </g>
    <g id="xtick_39">
     <g id="line2d_77">
      <path d="M 321.835296 266.112 
L 321.835296 -0 
" clip-path="url(#p2369b4b687)" style="fill: none; stroke: #b0b0b0; stroke-width: 0.8; stroke-linecap: square"/>
     </g>
     <g id="line2d_78">
      <g>
       <use xlink:href="#m7dc9708775" x="321.835296" y="266.112" style="stroke: #000000; stroke-width: 0.8"/>
      </g>
     </g>
    </g>
    <g id="xtick_40">
     <g id="line2d_79">
      <path d="M 328.923824 266.112 
L 328.923824 -0 
" clip-path="url(#p2369b4b687)" style="fill: none; stroke: #b0b0b0; stroke-width: 0.8; stroke-linecap: square"/>
     </g>
     <g id="line2d_80">
      <g>
       <use xlink:href="#m7dc9708775" x="328.923824" y="266.112" style="stroke: #000000; stroke-width: 0.8"/>
      </g>
     </g>
    </g>
    <g id="xtick_41">
     <g id="line2d_81">
      <path d="M 336.012351 266.112 
L 336.012351 -0 
" clip-path="url(#p2369b4b687)" style="fill: none; stroke: #b0b0b0; stroke-width: 0.8; stroke-linecap: square"/>
     </g>
     <g id="line2d_82">
      <g>
       <use xlink:href="#m7dc9708775" x="336.012351" y="266.112" style="stroke: #000000; stroke-width: 0.8"/>
      </g>
     </g>
    </g>
    <g id="xtick_42">
     <g id="line2d_83">
      <path d="M 343.100878 266.112 
L 343.100878 -0 
" clip-path="url(#p2369b4b687)" style="fill: none; stroke: #b0b0b0; stroke-width: 0.8; stroke-linecap: square"/>
     </g>
     <g id="line2d_84">
      <g>
       <use xlink:href="#m7dc9708775" x="343.100878" y="266.112" style="stroke: #000000; stroke-width: 0.8"/>
      </g>
     </g>
    </g>
    <g id="xtick_43">
     <g id="line2d_85">
      <path d="M 350.189405 266.112 
L 350.189405 -0 
" clip-path="url(#p2369b4b687)" style="fill: none; stroke: #b0b0b0; stroke-width: 0.8; stroke-linecap: square"/>
     </g>
     <g id="line2d_86">
      <g>
       <use xlink:href="#m7dc9708775" x="350.189405" y="266.112" style="stroke: #000000; stroke-width: 0.8"/>
      </g>
     </g>
    </g>
    <g id="xtick_44">
     <g id="line2d_87">
      <path d="M 357.277932 266.112 
L 357.277932 -0 
" clip-path="url(#p2369b4b687)" style="fill: none; stroke: #b0b0b0; stroke-width: 0.8; stroke-linecap: square"/>
     </g>
     <g id="line2d_88">
      <g>
       <use xlink:href="#m7dc9708775" x="357.277932" y="266.112" style="stroke: #000000; stroke-width: 0.8"/>
      </g>
     </g>
    </g>
    <g id="xtick_45">
     <g id="line2d_89">
      <path d="M 364.36646 266.112 
L 364.36646 -0 
" clip-path="url(#p2369b4b687)" style="fill: none; stroke: #b0b0b0; stroke-width: 0.8; stroke-linecap: square"/>
     </g>
     <g id="line2d_90">
      <g>
       <use xlink:href="#m7dc9708775" x="364.36646" y="266.112" style="stroke: #000000; stroke-width: 0.8"/>
      </g>
     </g>
    </g>
    <g id="xtick_46">
     <g id="line2d_91">
      <path d="M 371.454987 266.112 
L 371.454987 -0 
" clip-path="url(#p2369b4b687)" style="fill: none; stroke: #b0b0b0; stroke-width: 0.8; stroke-linecap: square"/>
     </g>
     <g id="line2d_92">
      <g>
       <use xlink:href="#m7dc9708775" x="371.454987" y="266.112" style="stroke: #000000; stroke-width: 0.8"/>
      </g>
     </g>
    </g>
    <g id="text_1">
     <!-- Individual Eddies [-] -->
     <g transform="translate(162.149844 284.710437)scale(0.1 -0.1)">
      <defs>
       <path id="DejaVuSans-49" d="M 628 4666 
L 1259 4666 
L 1259 0 
L 628 0 
L 628 4666 
z
" transform="scale(0.015625)"/>
       <path id="DejaVuSans-6e" d="M 3513 2113 
L 3513 0 
L 2938 0 
L 2938 2094 
Q 2938 2591 2744 2837 
Q 2550 3084 2163 3084 
Q 1697 3084 1428 2787 
Q 1159 2491 1159 1978 
L 1159 0 
L 581 0 
L 581 3500 
L 1159 3500 
L 1159 2956 
Q 1366 3272 1645 3428 
Q 1925 3584 2291 3584 
Q 2894 3584 3203 3211 
Q 3513 2838 3513 2113 
z
" transform="scale(0.015625)"/>
       <path id="DejaVuSans-64" d="M 2906 2969 
L 2906 4863 
L 3481 4863 
L 3481 0 
L 2906 0 
L 2906 525 
Q 2725 213 2448 61 
Q 2172 -91 1784 -91 
Q 1150 -91 751 415 
Q 353 922 353 1747 
Q 353 2572 751 3078 
Q 1150 3584 1784 3584 
Q 2172 3584 2448 3432 
Q 2725 3281 2906 2969 
z
M 947 1747 
Q 947 1113 1208 752 
Q 1469 391 1925 391 
Q 2381 391 2643 752 
Q 2906 1113 2906 1747 
Q 2906 2381 2643 2742 
Q 2381 3103 1925 3103 
Q 1469 3103 1208 2742 
Q 947 2381 947 1747 
z
" transform="scale(0.015625)"/>
       <path id="DejaVuSans-69" d="M 603 3500 
L 1178 3500 
L 1178 0 
L 603 0 
L 603 3500 
z
M 603 4863 
L 1178 4863 
L 1178 4134 
L 603 4134 
L 603 4863 
z
" transform="scale(0.015625)"/>
       <path id="DejaVuSans-76" d="M 191 3500 
L 800 3500 
L 1894 563 
L 2988 3500 
L 3597 3500 
L 2284 0 
L 1503 0 
L 191 3500 
z
" transform="scale(0.015625)"/>
       <path id="DejaVuSans-75" d="M 544 1381 
L 544 3500 
L 1119 3500 
L 1119 1403 
Q 1119 906 1312 657 
Q 1506 409 1894 409 
Q 2359 409 2629 706 
Q 2900 1003 2900 1516 
L 2900 3500 
L 3475 3500 
L 3475 0 
L 2900 0 
L 2900 538 
Q 2691 219 2414 64 
Q 2138 -91 1772 -91 
Q 1169 -91 856 284 
Q 544 659 544 1381 
z
M 1991 3584 
L 1991 3584 
z
" transform="scale(0.015625)"/>
       <path id="DejaVuSans-61" d="M 2194 1759 
Q 1497 1759 1228 1600 
Q 959 1441 959 1056 
Q 959 750 1161 570 
Q 1363 391 1709 391 
Q 2188 391 2477 730 
Q 2766 1069 2766 1631 
L 2766 1759 
L 2194 1759 
z
M 3341 1997 
L 3341 0 
L 2766 0 
L 2766 531 
Q 2569 213 2275 61 
Q 1981 -91 1556 -91 
Q 1019 -91 701 211 
Q 384 513 384 1019 
Q 384 1609 779 1909 
Q 1175 2209 1959 2209 
L 2766 2209 
L 2766 2266 
Q 2766 2663 2505 2880 
Q 2244 3097 1772 3097 
Q 1472 3097 1187 3025 
Q 903 2953 641 2809 
L 641 3341 
Q 956 3463 1253 3523 
Q 1550 3584 1831 3584 
Q 2591 3584 2966 3190 
Q 3341 2797 3341 1997 
z
" transform="scale(0.015625)"/>
       <path id="DejaVuSans-6c" d="M 603 4863 
L 1178 4863 
L 1178 0 
L 603 0 
L 603 4863 
z
" transform="scale(0.015625)"/>
       <path id="DejaVuSans-20" transform="scale(0.015625)"/>
       <path id="DejaVuSans-45" d="M 628 4666 
L 3578 4666 
L 3578 4134 
L 1259 4134 
L 1259 2753 
L 3481 2753 
L 3481 2222 
L 1259 2222 
L 1259 531 
L 3634 531 
L 3634 0 
L 628 0 
L 628 4666 
z
" transform="scale(0.015625)"/>
       <path id="DejaVuSans-65" d="M 3597 1894 
L 3597 1613 
L 953 1613 
Q 991 1019 1311 708 
Q 1631 397 2203 397 
Q 2534 397 2845 478 
Q 3156 559 3463 722 
L 3463 178 
Q 3153 47 2828 -22 
Q 2503 -91 2169 -91 
Q 1331 -91 842 396 
Q 353 884 353 1716 
Q 353 2575 817 3079 
Q 1281 3584 2069 3584 
Q 2775 3584 3186 3129 
Q 3597 2675 3597 1894 
z
M 3022 2063 
Q 3016 2534 2758 2815 
Q 2500 3097 2075 3097 
Q 1594 3097 1305 2825 
Q 1016 2553 972 2059 
L 3022 2063 
z
" transform="scale(0.015625)"/>
       <path id="DejaVuSans-73" d="M 2834 3397 
L 2834 2853 
Q 2591 2978 2328 3040 
Q 2066 3103 1784 3103 
Q 1356 3103 1142 2972 
Q 928 2841 928 2578 
Q 928 2378 1081 2264 
Q 1234 2150 1697 2047 
L 1894 2003 
Q 2506 1872 2764 1633 
Q 3022 1394 3022 966 
Q 3022 478 2636 193 
Q 2250 -91 1575 -91 
Q 1294 -91 989 -36 
Q 684 19 347 128 
L 347 722 
Q 666 556 975 473 
Q 1284 391 1588 391 
Q 1994 391 2212 530 
Q 2431 669 2431 922 
Q 2431 1156 2273 1281 
Q 2116 1406 1581 1522 
L 1381 1569 
Q 847 1681 609 1914 
Q 372 2147 372 2553 
Q 372 3047 722 3315 
Q 1072 3584 1716 3584 
Q 2034 3584 2315 3537 
Q 2597 3491 2834 3397 
z
" transform="scale(0.015625)"/>
       <path id="DejaVuSans-5b" d="M 550 4863 
L 1875 4863 
L 1875 4416 
L 1125 4416 
L 1125 -397 
L 1875 -397 
L 1875 -844 
L 550 -844 
L 550 4863 
z
" transform="scale(0.015625)"/>
       <path id="DejaVuSans-2d" d="M 313 2009 
L 1997 2009 
L 1997 1497 
L 313 1497 
L 313 2009 
z
" transform="scale(0.015625)"/>
       <path id="DejaVuSans-5d" d="M 1947 4863 
L 1947 -844 
L 622 -844 
L 622 -397 
L 1369 -397 
L 1369 4416 
L 622 4416 
L 622 4863 
L 1947 4863 
z
" transform="scale(0.015625)"/>
      </defs>
      <use xlink:href="#DejaVuSans-49"/>
      <use xlink:href="#DejaVuSans-6e" x="29.492188"/>
      <use xlink:href="#DejaVuSans-64" x="92.871094"/>
      <use xlink:href="#DejaVuSans-69" x="156.347656"/>
      <use xlink:href="#DejaVuSans-76" x="184.130859"/>
      <use xlink:href="#DejaVuSans-69" x="243.310547"/>
      <use xlink:href="#DejaVuSans-64" x="271.09375"/>
      <use xlink:href="#DejaVuSans-75" x="334.570312"/>
      <use xlink:href="#DejaVuSans-61" x="397.949219"/>
      <use xlink:href="#DejaVuSans-6c" x="459.228516"/>
      <use xlink:href="#DejaVuSans-20" x="487.011719"/>
      <use xlink:href="#DejaVuSans-45" x="518.798828"/>
      <use xlink:href="#DejaVuSans-64" x="581.982422"/>
      <use xlink:href="#DejaVuSans-64" x="645.458984"/>
      <use xlink:href="#DejaVuSans-69" x="708.935547"/>
      <use xlink:href="#DejaVuSans-65" x="736.71875"/>
      <use xlink:href="#DejaVuSans-73" x="798.242188"/>
      <use xlink:href="#DejaVuSans-20" x="850.341797"/>
      <use xlink:href="#DejaVuSans-5b" x="882.128906"/>
      <use xlink:href="#DejaVuSans-2d" x="921.142578"/>
      <use xlink:href="#DejaVuSans-5d" x="957.226562"/>
     </g>
    </g>
   </g>
   <g id="matplotlib.axis_2">
    <g id="ytick_1">
     <g id="line2d_93">
      <path d="M 33.403125 266.112 
L 390.523125 266.112 
" clip-path="url(#p2369b4b687)" style="fill: none; stroke: #b0b0b0; stroke-width: 0.8; stroke-linecap: square"/>
     </g>
     <g id="line2d_94">
      <defs>
       <path id="mf32f40f2f2" d="M 0 0 
L -3.5 0 
" style="stroke: #000000; stroke-width: 0.8"/>
      </defs>
      <g>
       <use xlink:href="#mf32f40f2f2" x="33.403125" y="266.112" style="stroke: #000000; stroke-width: 0.8"/>
      </g>
     </g>
     <g id="text_2">
      <!-- 0 -->
      <g transform="translate(20.040625 269.911219)scale(0.1 -0.1)">
       <defs>
        <path id="DejaVuSans-30" d="M 2034 4250 
Q 1547 4250 1301 3770 
Q 1056 3291 1056 2328 
Q 1056 1369 1301 889 
Q 1547 409 2034 409 
Q 2525 409 2770 889 
Q 3016 1369 3016 2328 
Q 3016 3291 2770 3770 
Q 2525 4250 2034 4250 
z
M 2034 4750 
Q 2819 4750 3233 4129 
Q 3647 3509 3647 2328 
Q 3647 1150 3233 529 
Q 2819 -91 2034 -91 
Q 1250 -91 836 529 
Q 422 1150 422 2328 
Q 422 3509 836 4129 
Q 1250 4750 2034 4750 
z
" transform="scale(0.015625)"/>
       </defs>
       <use xlink:href="#DejaVuSans-30"/>
      </g>
     </g>
    </g>
    <g id="ytick_2">
     <g id="line2d_95">
      <path d="M 33.403125 209.210339 
L 390.523125 209.210339 
" clip-path="url(#p2369b4b687)" style="fill: none; stroke: #b0b0b0; stroke-width: 0.8; stroke-linecap: square"/>
     </g>
     <g id="line2d_96">
      <g>
       <use xlink:href="#mf32f40f2f2" x="33.403125" y="209.210339" style="stroke: #000000; stroke-width: 0.8"/>
      </g>
     </g>
     <g id="text_3">
      <!-- 5 -->
      <g transform="translate(20.040625 213.009557)scale(0.1 -0.1)">
       <defs>
        <path id="DejaVuSans-35" d="M 691 4666 
L 3169 4666 
L 3169 4134 
L 1269 4134 
L 1269 2991 
Q 1406 3038 1543 3061 
Q 1681 3084 1819 3084 
Q 2600 3084 3056 2656 
Q 3513 2228 3513 1497 
Q 3513 744 3044 326 
Q 2575 -91 1722 -91 
Q 1428 -91 1123 -41 
Q 819 9 494 109 
L 494 744 
Q 775 591 1075 516 
Q 1375 441 1709 441 
Q 2250 441 2565 725 
Q 2881 1009 2881 1497 
Q 2881 1984 2565 2268 
Q 2250 2553 1709 2553 
Q 1456 2553 1204 2497 
Q 953 2441 691 2322 
L 691 4666 
z
" transform="scale(0.015625)"/>
       </defs>
       <use xlink:href="#DejaVuSans-35"/>
      </g>
     </g>
    </g>
    <g id="ytick_3">
     <g id="line2d_97">
      <path d="M 33.403125 152.308677 
L 390.523125 152.308677 
" clip-path="url(#p2369b4b687)" style="fill: none; stroke: #b0b0b0; stroke-width: 0.8; stroke-linecap: square"/>
     </g>
     <g id="line2d_98">
      <g>
       <use xlink:href="#mf32f40f2f2" x="33.403125" y="152.308677" style="stroke: #000000; stroke-width: 0.8"/>
      </g>
     </g>
     <g id="text_4">
      <!-- 10 -->
      <g transform="translate(13.678125 156.107896)scale(0.1 -0.1)">
       <defs>
        <path id="DejaVuSans-31" d="M 794 531 
L 1825 531 
L 1825 4091 
L 703 3866 
L 703 4441 
L 1819 4666 
L 2450 4666 
L 2450 531 
L 3481 531 
L 3481 0 
L 794 0 
L 794 531 
z
" transform="scale(0.015625)"/>
       </defs>
       <use xlink:href="#DejaVuSans-31"/>
       <use xlink:href="#DejaVuSans-30" x="63.623047"/>
      </g>
     </g>
    </g>
    <g id="ytick_4">
     <g id="line2d_99">
      <path d="M 33.403125 95.407016 
L 390.523125 95.407016 
" clip-path="url(#p2369b4b687)" style="fill: none; stroke: #b0b0b0; stroke-width: 0.8; stroke-linecap: square"/>
     </g>
     <g id="line2d_100">
      <g>
       <use xlink:href="#mf32f40f2f2" x="33.403125" y="95.407016" style="stroke: #000000; stroke-width: 0.8"/>
      </g>
     </g>
     <g id="text_5">
      <!-- 15 -->
      <g transform="translate(13.678125 99.206234)scale(0.1 -0.1)">
       <use xlink:href="#DejaVuSans-31"/>
       <use xlink:href="#DejaVuSans-35" x="63.623047"/>
      </g>
     </g>
    </g>
    <g id="ytick_5">
     <g id="line2d_101">
      <path d="M 33.403125 38.505354 
L 390.523125 38.505354 
" clip-path="url(#p2369b4b687)" style="fill: none; stroke: #b0b0b0; stroke-width: 0.8; stroke-linecap: square"/>
     </g>
     <g id="line2d_102">
      <g>
       <use xlink:href="#mf32f40f2f2" x="33.403125" y="38.505354" style="stroke: #000000; stroke-width: 0.8"/>
      </g>
     </g>
     <g id="text_6">
      <!-- 20 -->
      <g transform="translate(13.678125 42.304573)scale(0.1 -0.1)">
       <defs>
        <path id="DejaVuSans-32" d="M 1228 531 
L 3431 531 
L 3431 0 
L 469 0 
L 469 531 
Q 828 903 1448 1529 
Q 2069 2156 2228 2338 
Q 2531 2678 2651 2914 
Q 2772 3150 2772 3378 
Q 2772 3750 2511 3984 
Q 2250 4219 1831 4219 
Q 1534 4219 1204 4116 
Q 875 4013 500 3803 
L 500 4441 
Q 881 4594 1212 4672 
Q 1544 4750 1819 4750 
Q 2544 4750 2975 4387 
Q 3406 4025 3406 3419 
Q 3406 3131 3298 2873 
Q 3191 2616 2906 2266 
Q 2828 2175 2409 1742 
Q 1991 1309 1228 531 
z
" transform="scale(0.015625)"/>
       </defs>
       <use xlink:href="#DejaVuSans-32"/>
       <use xlink:href="#DejaVuSans-30" x="63.623047"/>
      </g>
     </g>
    </g>
    <g id="text_7">
     <!-- Eddy Area [10^3 * km^2] -->
     <g transform="translate(7.598437 198.655219)rotate(-90)scale(0.1 -0.1)">
      <defs>
       <path id="DejaVuSans-79" d="M 2059 -325 
Q 1816 -950 1584 -1140 
Q 1353 -1331 966 -1331 
L 506 -1331 
L 506 -850 
L 844 -850 
Q 1081 -850 1212 -737 
Q 1344 -625 1503 -206 
L 1606 56 
L 191 3500 
L 800 3500 
L 1894 763 
L 2988 3500 
L 3597 3500 
L 2059 -325 
z
" transform="scale(0.015625)"/>
       <path id="DejaVuSans-41" d="M 2188 4044 
L 1331 1722 
L 3047 1722 
L 2188 4044 
z
M 1831 4666 
L 2547 4666 
L 4325 0 
L 3669 0 
L 3244 1197 
L 1141 1197 
L 716 0 
L 50 0 
L 1831 4666 
z
" transform="scale(0.015625)"/>
       <path id="DejaVuSans-72" d="M 2631 2963 
Q 2534 3019 2420 3045 
Q 2306 3072 2169 3072 
Q 1681 3072 1420 2755 
Q 1159 2438 1159 1844 
L 1159 0 
L 581 0 
L 581 3500 
L 1159 3500 
L 1159 2956 
Q 1341 3275 1631 3429 
Q 1922 3584 2338 3584 
Q 2397 3584 2469 3576 
Q 2541 3569 2628 3553 
L 2631 2963 
z
" transform="scale(0.015625)"/>
       <path id="DejaVuSans-5e" d="M 2988 4666 
L 4684 2925 
L 4056 2925 
L 2681 4159 
L 1306 2925 
L 678 2925 
L 2375 4666 
L 2988 4666 
z
" transform="scale(0.015625)"/>
       <path id="DejaVuSans-33" d="M 2597 2516 
Q 3050 2419 3304 2112 
Q 3559 1806 3559 1356 
Q 3559 666 3084 287 
Q 2609 -91 1734 -91 
Q 1441 -91 1130 -33 
Q 819 25 488 141 
L 488 750 
Q 750 597 1062 519 
Q 1375 441 1716 441 
Q 2309 441 2620 675 
Q 2931 909 2931 1356 
Q 2931 1769 2642 2001 
Q 2353 2234 1838 2234 
L 1294 2234 
L 1294 2753 
L 1863 2753 
Q 2328 2753 2575 2939 
Q 2822 3125 2822 3475 
Q 2822 3834 2567 4026 
Q 2313 4219 1838 4219 
Q 1578 4219 1281 4162 
Q 984 4106 628 3988 
L 628 4550 
Q 988 4650 1302 4700 
Q 1616 4750 1894 4750 
Q 2613 4750 3031 4423 
Q 3450 4097 3450 3541 
Q 3450 3153 3228 2886 
Q 3006 2619 2597 2516 
z
" transform="scale(0.015625)"/>
       <path id="DejaVuSans-2a" d="M 3009 3897 
L 1888 3291 
L 3009 2681 
L 2828 2375 
L 1778 3009 
L 1778 1831 
L 1422 1831 
L 1422 3009 
L 372 2375 
L 191 2681 
L 1313 3291 
L 191 3897 
L 372 4206 
L 1422 3572 
L 1422 4750 
L 1778 4750 
L 1778 3572 
L 2828 4206 
L 3009 3897 
z
" transform="scale(0.015625)"/>
       <path id="DejaVuSans-6b" d="M 581 4863 
L 1159 4863 
L 1159 1991 
L 2875 3500 
L 3609 3500 
L 1753 1863 
L 3688 0 
L 2938 0 
L 1159 1709 
L 1159 0 
L 581 0 
L 581 4863 
z
" transform="scale(0.015625)"/>
       <path id="DejaVuSans-6d" d="M 3328 2828 
Q 3544 3216 3844 3400 
Q 4144 3584 4550 3584 
Q 5097 3584 5394 3201 
Q 5691 2819 5691 2113 
L 5691 0 
L 5113 0 
L 5113 2094 
Q 5113 2597 4934 2840 
Q 4756 3084 4391 3084 
Q 3944 3084 3684 2787 
Q 3425 2491 3425 1978 
L 3425 0 
L 2847 0 
L 2847 2094 
Q 2847 2600 2669 2842 
Q 2491 3084 2119 3084 
Q 1678 3084 1418 2786 
Q 1159 2488 1159 1978 
L 1159 0 
L 581 0 
L 581 3500 
L 1159 3500 
L 1159 2956 
Q 1356 3278 1631 3431 
Q 1906 3584 2284 3584 
Q 2666 3584 2933 3390 
Q 3200 3197 3328 2828 
z
" transform="scale(0.015625)"/>
      </defs>
      <use xlink:href="#DejaVuSans-45"/>
      <use xlink:href="#DejaVuSans-64" x="63.183594"/>
      <use xlink:href="#DejaVuSans-64" x="126.660156"/>
      <use xlink:href="#DejaVuSans-79" x="190.136719"/>
      <use xlink:href="#DejaVuSans-20" x="249.316406"/>
      <use xlink:href="#DejaVuSans-41" x="281.103516"/>
      <use xlink:href="#DejaVuSans-72" x="349.511719"/>
      <use xlink:href="#DejaVuSans-65" x="388.375"/>
      <use xlink:href="#DejaVuSans-61" x="449.898438"/>
      <use xlink:href="#DejaVuSans-20" x="511.177734"/>
      <use xlink:href="#DejaVuSans-5b" x="542.964844"/>
      <use xlink:href="#DejaVuSans-31" x="581.978516"/>
      <use xlink:href="#DejaVuSans-30" x="645.601562"/>
      <use xlink:href="#DejaVuSans-5e" x="709.224609"/>
      <use xlink:href="#DejaVuSans-33" x="793.013672"/>
      <use xlink:href="#DejaVuSans-20" x="856.636719"/>
      <use xlink:href="#DejaVuSans-2a" x="888.423828"/>
      <use xlink:href="#DejaVuSans-20" x="938.423828"/>
      <use xlink:href="#DejaVuSans-6b" x="970.210938"/>
      <use xlink:href="#DejaVuSans-6d" x="1028.121094"/>
      <use xlink:href="#DejaVuSans-5e" x="1125.533203"/>
      <use xlink:href="#DejaVuSans-32" x="1209.322266"/>
      <use xlink:href="#DejaVuSans-5d" x="1272.945312"/>
     </g>
    </g>
   </g>
   <g id="patch_3">
    <path d="M 49.635852 266.112 
L 55.306674 266.112 
L 55.306674 239.368219 
L 49.635852 239.368219 
z
" clip-path="url(#p2369b4b687)" style="fill: #000080"/>
   </g>
   <g id="patch_4">
    <path d="M 56.724379 266.112 
L 62.395201 266.112 
L 62.395201 229.46733 
L 56.724379 229.46733 
z
" clip-path="url(#p2369b4b687)" style="fill: #000080"/>
   </g>
   <g id="patch_5">
    <path d="M 63.812907 266.112 
L 69.483728 266.112 
L 69.483728 229.46733 
L 63.812907 229.46733 
z
" clip-path="url(#p2369b4b687)" style="fill: #ff0000"/>
   </g>
   <g id="patch_6">
    <path d="M 70.901434 266.112 
L 76.572256 266.112 
L 76.572256 229.46733 
L 70.901434 229.46733 
z
" clip-path="url(#p2369b4b687)" style="fill: #ff0000"/>
   </g>
   <g id="patch_7">
    <path d="M 77.989961 266.112 
L 83.660783 266.112 
L 83.660783 228.10169 
L 77.989961 228.10169 
z
" clip-path="url(#p2369b4b687)" style="fill: #000080"/>
   </g>
   <g id="patch_8">
    <path d="M 85.078488 266.112 
L 90.74931 266.112 
L 90.74931 228.10169 
L 85.078488 228.10169 
z
" clip-path="url(#p2369b4b687)" style="fill: #ff0000"/>
   </g>
   <g id="patch_9">
    <path d="M 92.167015 266.112 
L 97.837837 266.112 
L 97.837837 228.10169 
L 92.167015 228.10169 
z
" clip-path="url(#p2369b4b687)" style="fill: #ff0000"/>
   </g>
   <g id="patch_10">
    <path d="M 99.255543 266.112 
L 104.926364 266.112 
L 104.926364 226.73605 
L 99.255543 226.73605 
z
" clip-path="url(#p2369b4b687)" style="fill: #000080"/>
   </g>
   <g id="patch_11">
    <path d="M 106.34407 266.112 
L 112.014892 266.112 
L 112.014892 225.256607 
L 106.34407 225.256607 
z
" clip-path="url(#p2369b4b687)" style="fill: #000080"/>
   </g>
   <g id="patch_12">
    <path d="M 113.432597 266.112 
L 119.103419 266.112 
L 119.103419 223.890967 
L 113.432597 223.890967 
z
" clip-path="url(#p2369b4b687)" style="fill: #000080"/>
   </g>
   <g id="patch_13">
    <path d="M 120.521124 266.112 
L 126.191946 266.112 
L 126.191946 223.890967 
L 120.521124 223.890967 
z
" clip-path="url(#p2369b4b687)" style="fill: #000080"/>
   </g>
   <g id="patch_14">
    <path d="M 127.609651 266.112 
L 133.280473 266.112 
L 133.280473 222.411524 
L 127.609651 222.411524 
z
" clip-path="url(#p2369b4b687)" style="fill: #000080"/>
   </g>
   <g id="patch_15">
    <path d="M 134.698179 266.112 
L 140.369 266.112 
L 140.369 221.045884 
L 134.698179 221.045884 
z
" clip-path="url(#p2369b4b687)" style="fill: #000080"/>
   </g>
   <g id="patch_16">
    <path d="M 141.786706 266.112 
L 147.457528 266.112 
L 147.457528 218.200801 
L 141.786706 218.200801 
z
" clip-path="url(#p2369b4b687)" style="fill: #000080"/>
   </g>
   <g id="patch_17">
    <path d="M 148.875233 266.112 
L 154.546055 266.112 
L 154.546055 218.200801 
L 148.875233 218.200801 
z
" clip-path="url(#p2369b4b687)" style="fill: #ff0000"/>
   </g>
   <g id="patch_18">
    <path d="M 155.96376 266.112 
L 161.634582 266.112 
L 161.634582 216.835161 
L 155.96376 216.835161 
z
" clip-path="url(#p2369b4b687)" style="fill: #000080"/>
   </g>
   <g id="patch_19">
    <path d="M 163.052287 266.112 
L 168.723109 266.112 
L 168.723109 213.990078 
L 163.052287 213.990078 
z
" clip-path="url(#p2369b4b687)" style="fill: #ff0000"/>
   </g>
   <g id="patch_20">
    <path d="M 170.140815 266.112 
L 175.811636 266.112 
L 175.811636 213.990078 
L 170.140815 213.990078 
z
" clip-path="url(#p2369b4b687)" style="fill: #ff0000"/>
   </g>
   <g id="patch_21">
    <path d="M 177.229342 266.112 
L 182.900164 266.112 
L 182.900164 213.990078 
L 177.229342 213.990078 
z
" clip-path="url(#p2369b4b687)" style="fill: #000080"/>
   </g>
   <g id="patch_22">
    <path d="M 184.317869 266.112 
L 189.988691 266.112 
L 189.988691 213.990078 
L 184.317869 213.990078 
z
" clip-path="url(#p2369b4b687)" style="fill: #000080"/>
   </g>
   <g id="patch_23">
    <path d="M 191.406396 266.112 
L 197.077218 266.112 
L 197.077218 213.990078 
L 191.406396 213.990078 
z
" clip-path="url(#p2369b4b687)" style="fill: #ff0000"/>
   </g>
   <g id="patch_24">
    <path d="M 198.494923 266.112 
L 204.165745 266.112 
L 204.165745 211.258798 
L 198.494923 211.258798 
z
" clip-path="url(#p2369b4b687)" style="fill: #ff0000"/>
   </g>
   <g id="patch_25">
    <path d="M 205.583451 266.112 
L 211.254272 266.112 
L 211.254272 211.258798 
L 205.583451 211.258798 
z
" clip-path="url(#p2369b4b687)" style="fill: #ff0000"/>
   </g>
   <g id="patch_26">
    <path d="M 212.671978 266.112 
L 218.342799 266.112 
L 218.342799 209.779355 
L 212.671978 209.779355 
z
" clip-path="url(#p2369b4b687)" style="fill: #ff0000"/>
   </g>
   <g id="patch_27">
    <path d="M 219.760505 266.112 
L 225.431327 266.112 
L 225.431327 209.779355 
L 219.760505 209.779355 
z
" clip-path="url(#p2369b4b687)" style="fill: #000080"/>
   </g>
   <g id="patch_28">
    <path d="M 226.849032 266.112 
L 232.519854 266.112 
L 232.519854 208.413715 
L 226.849032 208.413715 
z
" clip-path="url(#p2369b4b687)" style="fill: #ff0000"/>
   </g>
   <g id="patch_29">
    <path d="M 233.937559 266.112 
L 239.608381 266.112 
L 239.608381 208.413715 
L 233.937559 208.413715 
z
" clip-path="url(#p2369b4b687)" style="fill: #ff0000"/>
   </g>
   <g id="patch_30">
    <path d="M 241.026086 266.112 
L 246.696908 266.112 
L 246.696908 206.934272 
L 241.026086 206.934272 
z
" clip-path="url(#p2369b4b687)" style="fill: #ff0000"/>
   </g>
   <g id="patch_31">
    <path d="M 248.114614 266.112 
L 253.785435 266.112 
L 253.785435 197.147186 
L 248.114614 197.147186 
z
" clip-path="url(#p2369b4b687)" style="fill: #ff0000"/>
   </g>
   <g id="patch_32">
    <path d="M 255.203141 266.112 
L 260.873963 266.112 
L 260.873963 192.936463 
L 255.203141 192.936463 
z
" clip-path="url(#p2369b4b687)" style="fill: #000080"/>
   </g>
   <g id="patch_33">
    <path d="M 262.291668 266.112 
L 267.96249 266.112 
L 267.96249 191.45702 
L 262.291668 191.45702 
z
" clip-path="url(#p2369b4b687)" style="fill: #ff0000"/>
   </g>
   <g id="patch_34">
    <path d="M 269.380195 266.112 
L 275.051017 266.112 
L 275.051017 190.09138 
L 269.380195 190.09138 
z
" clip-path="url(#p2369b4b687)" style="fill: #000080"/>
   </g>
   <g id="patch_35">
    <path d="M 276.468722 266.112 
L 282.139544 266.112 
L 282.139544 190.09138 
L 276.468722 190.09138 
z
" clip-path="url(#p2369b4b687)" style="fill: #000080"/>
   </g>
   <g id="patch_36">
    <path d="M 283.55725 266.112 
L 289.228071 266.112 
L 289.228071 190.09138 
L 283.55725 190.09138 
z
" clip-path="url(#p2369b4b687)" style="fill: #ff0000"/>
   </g>
   <g id="patch_37">
    <path d="M 290.645777 266.112 
L 296.316599 266.112 
L 296.316599 187.246297 
L 290.645777 187.246297 
z
" clip-path="url(#p2369b4b687)" style="fill: #000080"/>
   </g>
   <g id="patch_38">
    <path d="M 297.734304 266.112 
L 303.405126 266.112 
L 303.405126 187.246297 
L 297.734304 187.246297 
z
" clip-path="url(#p2369b4b687)" style="fill: #000080"/>
   </g>
   <g id="patch_39">
    <path d="M 304.822831 266.112 
L 310.493653 266.112 
L 310.493653 184.401214 
L 304.822831 184.401214 
z
" clip-path="url(#p2369b4b687)" style="fill: #ff0000"/>
   </g>
   <g id="patch_40">
    <path d="M 311.911358 266.112 
L 317.58218 266.112 
L 317.58218 180.190491 
L 311.911358 180.190491 
z
" clip-path="url(#p2369b4b687)" style="fill: #ff0000"/>
   </g>
   <g id="patch_41">
    <path d="M 318.999886 266.112 
L 324.670707 266.112 
L 324.670707 177.459211 
L 318.999886 177.459211 
z
" clip-path="url(#p2369b4b687)" style="fill: #000080"/>
   </g>
   <g id="patch_42">
    <path d="M 326.088413 266.112 
L 331.759235 266.112 
L 331.759235 166.192683 
L 326.088413 166.192683 
z
" clip-path="url(#p2369b4b687)" style="fill: #000080"/>
   </g>
   <g id="patch_43">
    <path d="M 333.17694 266.112 
L 338.847762 266.112 
L 338.847762 161.98196 
L 333.17694 161.98196 
z
" clip-path="url(#p2369b4b687)" style="fill: #ff0000"/>
   </g>
   <g id="patch_44">
    <path d="M 340.265467 266.112 
L 345.936289 266.112 
L 345.936289 146.390904 
L 340.265467 146.390904 
z
" clip-path="url(#p2369b4b687)" style="fill: #ff0000"/>
   </g>
   <g id="patch_45">
    <path d="M 347.353994 266.112 
L 353.024816 266.112 
L 353.024816 145.025264 
L 347.353994 145.025264 
z
" clip-path="url(#p2369b4b687)" style="fill: #000080"/>
   </g>
   <g id="patch_46">
    <path d="M 354.442522 266.112 
L 360.113343 266.112 
L 360.113343 129.548013 
L 354.442522 129.548013 
z
" clip-path="url(#p2369b4b687)" style="fill: #ff0000"/>
   </g>
   <g id="patch_47">
    <path d="M 361.531049 266.112 
L 367.201871 266.112 
L 367.201871 81.636814 
L 361.531049 81.636814 
z
" clip-path="url(#p2369b4b687)" style="fill: #ff0000"/>
   </g>
   <g id="patch_48">
    <path d="M 368.619576 266.112 
L 374.290398 266.112 
L 374.290398 12.672 
L 368.619576 12.672 
z
" clip-path="url(#p2369b4b687)" style="fill: #ff0000"/>
   </g>
   <g id="patch_49">
    <path d="M 33.403125 266.112 
L 33.403125 -0 
" style="fill: none; stroke: #000000; stroke-width: 0.8; stroke-linejoin: miter; stroke-linecap: square"/>
   </g>
   <g id="patch_50">
    <path d="M 390.523125 266.112 
L 390.523125 -0 
" style="fill: none; stroke: #000000; stroke-width: 0.8; stroke-linejoin: miter; stroke-linecap: square"/>
   </g>
   <g id="patch_51">
    <path d="M 33.403125 266.112 
L 390.523125 266.112 
" style="fill: none; stroke: #000000; stroke-width: 0.8; stroke-linejoin: miter; stroke-linecap: square"/>
   </g>
   <g id="patch_52">
    <path d="M 33.403125 -0 
L 390.523125 -0 
" style="fill: none; stroke: #000000; stroke-width: 0.8; stroke-linejoin: miter; stroke-linecap: square"/>
   </g>
  </g>
 </g>
 <defs>
  <clipPath id="p2369b4b687">
   <rect x="33.403125" y="-0" width="357.12" height="266.112"/>
  </clipPath>
 </defs>
</svg>
