<?xml version="1.0" encoding="utf-8" standalone="no"?>
<!DOCTYPE svg PUBLIC "-//W3C//DTD SVG 1.1//EN"
  "http://www.w3.org/Graphics/SVG/1.1/DTD/svg11.dtd">
<svg xmlns:xlink="http://www.w3.org/1999/xlink" width="402.080938pt" height="288.744191pt" viewBox="0 0 402.080938 288.744191" xmlns="http://www.w3.org/2000/svg" version="1.1">
 <metadata>
  <rdf:RDF xmlns:dc="http://purl.org/dc/elements/1.1/" xmlns:cc="http://creativecommons.org/ns#" xmlns:rdf="http://www.w3.org/1999/02/22-rdf-syntax-ns#">
   <cc:Work>
    <dc:type rdf:resource="http://purl.org/dc/dcmitype/StillImage"/>
    <dc:date>2023-06-13T22:39:12.216424</dc:date>
    <dc:format>image/svg+xml</dc:format>
    <dc:creator>
     <cc:Agent>
      <dc:title>Matplotlib v3.5.2, https://matplotlib.org/</dc:title>
     </cc:Agent>
    </dc:creator>
   </cc:Work>
  </rdf:RDF>
 </metadata>
 <defs>
  <style type="text/css">*{stroke-linejoin: round; stroke-linecap: butt}</style>
 </defs>
 <g id="figure_1">
  <g id="patch_1">
   <path d="M 0 288.744191 
L 402.080938 288.744191 
L 402.080938 -0 
L 0 -0 
z
" style="fill: #ffffff"/>
  </g>
  <g id="axes_1">
   <g id="patch_2">
    <path d="M 44.960938 268.066066 
L 402.080938 268.066066 
L 402.080938 1.954066 
L 44.960938 1.954066 
z
" style="fill: #ffffff"/>
   </g>
   <g id="matplotlib.axis_1">
    <g id="xtick_1">
     <g id="line2d_1">
      <path d="M 64.158546 268.066066 
L 64.158546 1.954066 
" clip-path="url(#p5aaf9d7319)" style="fill: none; stroke: #b0b0b0; stroke-width: 0.8; stroke-linecap: square"/>
     </g>
     <g id="line2d_2">
      <defs>
       <path id="m018289079b" d="M 0 0 
L 0 3.5 
" style="stroke: #000000; stroke-width: 0.8"/>
      </defs>
      <g>
       <use xlink:href="#m018289079b" x="64.158546" y="268.066066" style="stroke: #000000; stroke-width: 0.8"/>
      </g>
     </g>
    </g>
    <g id="xtick_2">
     <g id="line2d_3">
      <path d="M 71.570751 268.066066 
L 71.570751 1.954066 
" clip-path="url(#p5aaf9d7319)" style="fill: none; stroke: #b0b0b0; stroke-width: 0.8; stroke-linecap: square"/>
     </g>
     <g id="line2d_4">
      <g>
       <use xlink:href="#m018289079b" x="71.570751" y="268.066066" style="stroke: #000000; stroke-width: 0.8"/>
      </g>
     </g>
    </g>
    <g id="xtick_3">
     <g id="line2d_5">
      <path d="M 78.982955 268.066066 
L 78.982955 1.954066 
" clip-path="url(#p5aaf9d7319)" style="fill: none; stroke: #b0b0b0; stroke-width: 0.8; stroke-linecap: square"/>
     </g>
     <g id="line2d_6">
      <g>
       <use xlink:href="#m018289079b" x="78.982955" y="268.066066" style="stroke: #000000; stroke-width: 0.8"/>
      </g>
     </g>
    </g>
    <g id="xtick_4">
     <g id="line2d_7">
      <path d="M 86.395159 268.066066 
L 86.395159 1.954066 
" clip-path="url(#p5aaf9d7319)" style="fill: none; stroke: #b0b0b0; stroke-width: 0.8; stroke-linecap: square"/>
     </g>
     <g id="line2d_8">
      <g>
       <use xlink:href="#m018289079b" x="86.395159" y="268.066066" style="stroke: #000000; stroke-width: 0.8"/>
      </g>
     </g>
    </g>
    <g id="xtick_5">
     <g id="line2d_9">
      <path d="M 93.807363 268.066066 
L 93.807363 1.954066 
" clip-path="url(#p5aaf9d7319)" style="fill: none; stroke: #b0b0b0; stroke-width: 0.8; stroke-linecap: square"/>
     </g>
     <g id="line2d_10">
      <g>
       <use xlink:href="#m018289079b" x="93.807363" y="268.066066" style="stroke: #000000; stroke-width: 0.8"/>
      </g>
     </g>
    </g>
    <g id="xtick_6">
     <g id="line2d_11">
      <path d="M 101.219568 268.066066 
L 101.219568 1.954066 
" clip-path="url(#p5aaf9d7319)" style="fill: none; stroke: #b0b0b0; stroke-width: 0.8; stroke-linecap: square"/>
     </g>
     <g id="line2d_12">
      <g>
       <use xlink:href="#m018289079b" x="101.219568" y="268.066066" style="stroke: #000000; stroke-width: 0.8"/>
      </g>
     </g>
    </g>
    <g id="xtick_7">
     <g id="line2d_13">
      <path d="M 108.631772 268.066066 
L 108.631772 1.954066 
" clip-path="url(#p5aaf9d7319)" style="fill: none; stroke: #b0b0b0; stroke-width: 0.8; stroke-linecap: square"/>
     </g>
     <g id="line2d_14">
      <g>
       <use xlink:href="#m018289079b" x="108.631772" y="268.066066" style="stroke: #000000; stroke-width: 0.8"/>
      </g>
     </g>
    </g>
    <g id="xtick_8">
     <g id="line2d_15">
      <path d="M 116.043976 268.066066 
L 116.043976 1.954066 
" clip-path="url(#p5aaf9d7319)" style="fill: none; stroke: #b0b0b0; stroke-width: 0.8; stroke-linecap: square"/>
     </g>
     <g id="line2d_16">
      <g>
       <use xlink:href="#m018289079b" x="116.043976" y="268.066066" style="stroke: #000000; stroke-width: 0.8"/>
      </g>
     </g>
    </g>
    <g id="xtick_9">
     <g id="line2d_17">
      <path d="M 123.45618 268.066066 
L 123.45618 1.954066 
" clip-path="url(#p5aaf9d7319)" style="fill: none; stroke: #b0b0b0; stroke-width: 0.8; stroke-linecap: square"/>
     </g>
     <g id="line2d_18">
      <g>
       <use xlink:href="#m018289079b" x="123.45618" y="268.066066" style="stroke: #000000; stroke-width: 0.8"/>
      </g>
     </g>
    </g>
    <g id="xtick_10">
     <g id="line2d_19">
      <path d="M 130.868385 268.066066 
L 130.868385 1.954066 
" clip-path="url(#p5aaf9d7319)" style="fill: none; stroke: #b0b0b0; stroke-width: 0.8; stroke-linecap: square"/>
     </g>
     <g id="line2d_20">
      <g>
       <use xlink:href="#m018289079b" x="130.868385" y="268.066066" style="stroke: #000000; stroke-width: 0.8"/>
      </g>
     </g>
    </g>
    <g id="xtick_11">
     <g id="line2d_21">
      <path d="M 138.280589 268.066066 
L 138.280589 1.954066 
" clip-path="url(#p5aaf9d7319)" style="fill: none; stroke: #b0b0b0; stroke-width: 0.8; stroke-linecap: square"/>
     </g>
     <g id="line2d_22">
      <g>
       <use xlink:href="#m018289079b" x="138.280589" y="268.066066" style="stroke: #000000; stroke-width: 0.8"/>
      </g>
     </g>
    </g>
    <g id="xtick_12">
     <g id="line2d_23">
      <path d="M 145.692793 268.066066 
L 145.692793 1.954066 
" clip-path="url(#p5aaf9d7319)" style="fill: none; stroke: #b0b0b0; stroke-width: 0.8; stroke-linecap: square"/>
     </g>
     <g id="line2d_24">
      <g>
       <use xlink:href="#m018289079b" x="145.692793" y="268.066066" style="stroke: #000000; stroke-width: 0.8"/>
      </g>
     </g>
    </g>
    <g id="xtick_13">
     <g id="line2d_25">
      <path d="M 153.104997 268.066066 
L 153.104997 1.954066 
" clip-path="url(#p5aaf9d7319)" style="fill: none; stroke: #b0b0b0; stroke-width: 0.8; stroke-linecap: square"/>
     </g>
     <g id="line2d_26">
      <g>
       <use xlink:href="#m018289079b" x="153.104997" y="268.066066" style="stroke: #000000; stroke-width: 0.8"/>
      </g>
     </g>
    </g>
    <g id="xtick_14">
     <g id="line2d_27">
      <path d="M 160.517202 268.066066 
L 160.517202 1.954066 
" clip-path="url(#p5aaf9d7319)" style="fill: none; stroke: #b0b0b0; stroke-width: 0.8; stroke-linecap: square"/>
     </g>
     <g id="line2d_28">
      <g>
       <use xlink:href="#m018289079b" x="160.517202" y="268.066066" style="stroke: #000000; stroke-width: 0.8"/>
      </g>
     </g>
    </g>
    <g id="xtick_15">
     <g id="line2d_29">
      <path d="M 167.929406 268.066066 
L 167.929406 1.954066 
" clip-path="url(#p5aaf9d7319)" style="fill: none; stroke: #b0b0b0; stroke-width: 0.8; stroke-linecap: square"/>
     </g>
     <g id="line2d_30">
      <g>
       <use xlink:href="#m018289079b" x="167.929406" y="268.066066" style="stroke: #000000; stroke-width: 0.8"/>
      </g>
     </g>
    </g>
    <g id="xtick_16">
     <g id="line2d_31">
      <path d="M 175.34161 268.066066 
L 175.34161 1.954066 
" clip-path="url(#p5aaf9d7319)" style="fill: none; stroke: #b0b0b0; stroke-width: 0.8; stroke-linecap: square"/>
     </g>
     <g id="line2d_32">
      <g>
       <use xlink:href="#m018289079b" x="175.34161" y="268.066066" style="stroke: #000000; stroke-width: 0.8"/>
      </g>
     </g>
    </g>
    <g id="xtick_17">
     <g id="line2d_33">
      <path d="M 182.753814 268.066066 
L 182.753814 1.954066 
" clip-path="url(#p5aaf9d7319)" style="fill: none; stroke: #b0b0b0; stroke-width: 0.8; stroke-linecap: square"/>
     </g>
     <g id="line2d_34">
      <g>
       <use xlink:href="#m018289079b" x="182.753814" y="268.066066" style="stroke: #000000; stroke-width: 0.8"/>
      </g>
     </g>
    </g>
    <g id="xtick_18">
     <g id="line2d_35">
      <path d="M 190.166018 268.066066 
L 190.166018 1.954066 
" clip-path="url(#p5aaf9d7319)" style="fill: none; stroke: #b0b0b0; stroke-width: 0.8; stroke-linecap: square"/>
     </g>
     <g id="line2d_36">
      <g>
       <use xlink:href="#m018289079b" x="190.166018" y="268.066066" style="stroke: #000000; stroke-width: 0.8"/>
      </g>
     </g>
    </g>
    <g id="xtick_19">
     <g id="line2d_37">
      <path d="M 197.578223 268.066066 
L 197.578223 1.954066 
" clip-path="url(#p5aaf9d7319)" style="fill: none; stroke: #b0b0b0; stroke-width: 0.8; stroke-linecap: square"/>
     </g>
     <g id="line2d_38">
      <g>
       <use xlink:href="#m018289079b" x="197.578223" y="268.066066" style="stroke: #000000; stroke-width: 0.8"/>
      </g>
     </g>
    </g>
    <g id="xtick_20">
     <g id="line2d_39">
      <path d="M 204.990427 268.066066 
L 204.990427 1.954066 
" clip-path="url(#p5aaf9d7319)" style="fill: none; stroke: #b0b0b0; stroke-width: 0.8; stroke-linecap: square"/>
     </g>
     <g id="line2d_40">
      <g>
       <use xlink:href="#m018289079b" x="204.990427" y="268.066066" style="stroke: #000000; stroke-width: 0.8"/>
      </g>
     </g>
    </g>
    <g id="xtick_21">
     <g id="line2d_41">
      <path d="M 212.402631 268.066066 
L 212.402631 1.954066 
" clip-path="url(#p5aaf9d7319)" style="fill: none; stroke: #b0b0b0; stroke-width: 0.8; stroke-linecap: square"/>
     </g>
     <g id="line2d_42">
      <g>
       <use xlink:href="#m018289079b" x="212.402631" y="268.066066" style="stroke: #000000; stroke-width: 0.8"/>
      </g>
     </g>
    </g>
    <g id="xtick_22">
     <g id="line2d_43">
      <path d="M 219.814835 268.066066 
L 219.814835 1.954066 
" clip-path="url(#p5aaf9d7319)" style="fill: none; stroke: #b0b0b0; stroke-width: 0.8; stroke-linecap: square"/>
     </g>
     <g id="line2d_44">
      <g>
       <use xlink:href="#m018289079b" x="219.814835" y="268.066066" style="stroke: #000000; stroke-width: 0.8"/>
      </g>
     </g>
    </g>
    <g id="xtick_23">
     <g id="line2d_45">
      <path d="M 227.22704 268.066066 
L 227.22704 1.954066 
" clip-path="url(#p5aaf9d7319)" style="fill: none; stroke: #b0b0b0; stroke-width: 0.8; stroke-linecap: square"/>
     </g>
     <g id="line2d_46">
      <g>
       <use xlink:href="#m018289079b" x="227.22704" y="268.066066" style="stroke: #000000; stroke-width: 0.8"/>
      </g>
     </g>
    </g>
    <g id="xtick_24">
     <g id="line2d_47">
      <path d="M 234.639244 268.066066 
L 234.639244 1.954066 
" clip-path="url(#p5aaf9d7319)" style="fill: none; stroke: #b0b0b0; stroke-width: 0.8; stroke-linecap: square"/>
     </g>
     <g id="line2d_48">
      <g>
       <use xlink:href="#m018289079b" x="234.639244" y="268.066066" style="stroke: #000000; stroke-width: 0.8"/>
      </g>
     </g>
    </g>
    <g id="xtick_25">
     <g id="line2d_49">
      <path d="M 242.051448 268.066066 
L 242.051448 1.954066 
" clip-path="url(#p5aaf9d7319)" style="fill: none; stroke: #b0b0b0; stroke-width: 0.8; stroke-linecap: square"/>
     </g>
     <g id="line2d_50">
      <g>
       <use xlink:href="#m018289079b" x="242.051448" y="268.066066" style="stroke: #000000; stroke-width: 0.8"/>
      </g>
     </g>
    </g>
    <g id="xtick_26">
     <g id="line2d_51">
      <path d="M 249.463652 268.066066 
L 249.463652 1.954066 
" clip-path="url(#p5aaf9d7319)" style="fill: none; stroke: #b0b0b0; stroke-width: 0.8; stroke-linecap: square"/>
     </g>
     <g id="line2d_52">
      <g>
       <use xlink:href="#m018289079b" x="249.463652" y="268.066066" style="stroke: #000000; stroke-width: 0.8"/>
      </g>
     </g>
    </g>
    <g id="xtick_27">
     <g id="line2d_53">
      <path d="M 256.875857 268.066066 
L 256.875857 1.954066 
" clip-path="url(#p5aaf9d7319)" style="fill: none; stroke: #b0b0b0; stroke-width: 0.8; stroke-linecap: square"/>
     </g>
     <g id="line2d_54">
      <g>
       <use xlink:href="#m018289079b" x="256.875857" y="268.066066" style="stroke: #000000; stroke-width: 0.8"/>
      </g>
     </g>
    </g>
    <g id="xtick_28">
     <g id="line2d_55">
      <path d="M 264.288061 268.066066 
L 264.288061 1.954066 
" clip-path="url(#p5aaf9d7319)" style="fill: none; stroke: #b0b0b0; stroke-width: 0.8; stroke-linecap: square"/>
     </g>
     <g id="line2d_56">
      <g>
       <use xlink:href="#m018289079b" x="264.288061" y="268.066066" style="stroke: #000000; stroke-width: 0.8"/>
      </g>
     </g>
    </g>
    <g id="xtick_29">
     <g id="line2d_57">
      <path d="M 271.700265 268.066066 
L 271.700265 1.954066 
" clip-path="url(#p5aaf9d7319)" style="fill: none; stroke: #b0b0b0; stroke-width: 0.8; stroke-linecap: square"/>
     </g>
     <g id="line2d_58">
      <g>
       <use xlink:href="#m018289079b" x="271.700265" y="268.066066" style="stroke: #000000; stroke-width: 0.8"/>
      </g>
     </g>
    </g>
    <g id="xtick_30">
     <g id="line2d_59">
      <path d="M 279.112469 268.066066 
L 279.112469 1.954066 
" clip-path="url(#p5aaf9d7319)" style="fill: none; stroke: #b0b0b0; stroke-width: 0.8; stroke-linecap: square"/>
     </g>
     <g id="line2d_60">
      <g>
       <use xlink:href="#m018289079b" x="279.112469" y="268.066066" style="stroke: #000000; stroke-width: 0.8"/>
      </g>
     </g>
    </g>
    <g id="xtick_31">
     <g id="line2d_61">
      <path d="M 286.524673 268.066066 
L 286.524673 1.954066 
" clip-path="url(#p5aaf9d7319)" style="fill: none; stroke: #b0b0b0; stroke-width: 0.8; stroke-linecap: square"/>
     </g>
     <g id="line2d_62">
      <g>
       <use xlink:href="#m018289079b" x="286.524673" y="268.066066" style="stroke: #000000; stroke-width: 0.8"/>
      </g>
     </g>
    </g>
    <g id="xtick_32">
     <g id="line2d_63">
      <path d="M 293.936878 268.066066 
L 293.936878 1.954066 
" clip-path="url(#p5aaf9d7319)" style="fill: none; stroke: #b0b0b0; stroke-width: 0.8; stroke-linecap: square"/>
     </g>
     <g id="line2d_64">
      <g>
       <use xlink:href="#m018289079b" x="293.936878" y="268.066066" style="stroke: #000000; stroke-width: 0.8"/>
      </g>
     </g>
    </g>
    <g id="xtick_33">
     <g id="line2d_65">
      <path d="M 301.349082 268.066066 
L 301.349082 1.954066 
" clip-path="url(#p5aaf9d7319)" style="fill: none; stroke: #b0b0b0; stroke-width: 0.8; stroke-linecap: square"/>
     </g>
     <g id="line2d_66">
      <g>
       <use xlink:href="#m018289079b" x="301.349082" y="268.066066" style="stroke: #000000; stroke-width: 0.8"/>
      </g>
     </g>
    </g>
    <g id="xtick_34">
     <g id="line2d_67">
      <path d="M 308.761286 268.066066 
L 308.761286 1.954066 
" clip-path="url(#p5aaf9d7319)" style="fill: none; stroke: #b0b0b0; stroke-width: 0.8; stroke-linecap: square"/>
     </g>
     <g id="line2d_68">
      <g>
       <use xlink:href="#m018289079b" x="308.761286" y="268.066066" style="stroke: #000000; stroke-width: 0.8"/>
      </g>
     </g>
    </g>
    <g id="xtick_35">
     <g id="line2d_69">
      <path d="M 316.17349 268.066066 
L 316.17349 1.954066 
" clip-path="url(#p5aaf9d7319)" style="fill: none; stroke: #b0b0b0; stroke-width: 0.8; stroke-linecap: square"/>
     </g>
     <g id="line2d_70">
      <g>
       <use xlink:href="#m018289079b" x="316.17349" y="268.066066" style="stroke: #000000; stroke-width: 0.8"/>
      </g>
     </g>
    </g>
    <g id="xtick_36">
     <g id="line2d_71">
      <path d="M 323.585695 268.066066 
L 323.585695 1.954066 
" clip-path="url(#p5aaf9d7319)" style="fill: none; stroke: #b0b0b0; stroke-width: 0.8; stroke-linecap: square"/>
     </g>
     <g id="line2d_72">
      <g>
       <use xlink:href="#m018289079b" x="323.585695" y="268.066066" style="stroke: #000000; stroke-width: 0.8"/>
      </g>
     </g>
    </g>
    <g id="xtick_37">
     <g id="line2d_73">
      <path d="M 330.997899 268.066066 
L 330.997899 1.954066 
" clip-path="url(#p5aaf9d7319)" style="fill: none; stroke: #b0b0b0; stroke-width: 0.8; stroke-linecap: square"/>
     </g>
     <g id="line2d_74">
      <g>
       <use xlink:href="#m018289079b" x="330.997899" y="268.066066" style="stroke: #000000; stroke-width: 0.8"/>
      </g>
     </g>
    </g>
    <g id="xtick_38">
     <g id="line2d_75">
      <path d="M 338.410103 268.066066 
L 338.410103 1.954066 
" clip-path="url(#p5aaf9d7319)" style="fill: none; stroke: #b0b0b0; stroke-width: 0.8; stroke-linecap: square"/>
     </g>
     <g id="line2d_76">
      <g>
       <use xlink:href="#m018289079b" x="338.410103" y="268.066066" style="stroke: #000000; stroke-width: 0.8"/>
      </g>
     </g>
    </g>
    <g id="xtick_39">
     <g id="line2d_77">
      <path d="M 345.822307 268.066066 
L 345.822307 1.954066 
" clip-path="url(#p5aaf9d7319)" style="fill: none; stroke: #b0b0b0; stroke-width: 0.8; stroke-linecap: square"/>
     </g>
     <g id="line2d_78">
      <g>
       <use xlink:href="#m018289079b" x="345.822307" y="268.066066" style="stroke: #000000; stroke-width: 0.8"/>
      </g>
     </g>
    </g>
    <g id="xtick_40">
     <g id="line2d_79">
      <path d="M 353.234512 268.066066 
L 353.234512 1.954066 
" clip-path="url(#p5aaf9d7319)" style="fill: none; stroke: #b0b0b0; stroke-width: 0.8; stroke-linecap: square"/>
     </g>
     <g id="line2d_80">
      <g>
       <use xlink:href="#m018289079b" x="353.234512" y="268.066066" style="stroke: #000000; stroke-width: 0.8"/>
      </g>
     </g>
    </g>
    <g id="xtick_41">
     <g id="line2d_81">
      <path d="M 360.646716 268.066066 
L 360.646716 1.954066 
" clip-path="url(#p5aaf9d7319)" style="fill: none; stroke: #b0b0b0; stroke-width: 0.8; stroke-linecap: square"/>
     </g>
     <g id="line2d_82">
      <g>
       <use xlink:href="#m018289079b" x="360.646716" y="268.066066" style="stroke: #000000; stroke-width: 0.8"/>
      </g>
     </g>
    </g>
    <g id="xtick_42">
     <g id="line2d_83">
      <path d="M 368.05892 268.066066 
L 368.05892 1.954066 
" clip-path="url(#p5aaf9d7319)" style="fill: none; stroke: #b0b0b0; stroke-width: 0.8; stroke-linecap: square"/>
     </g>
     <g id="line2d_84">
      <g>
       <use xlink:href="#m018289079b" x="368.05892" y="268.066066" style="stroke: #000000; stroke-width: 0.8"/>
      </g>
     </g>
    </g>
    <g id="xtick_43">
     <g id="line2d_85">
      <path d="M 375.471124 268.066066 
L 375.471124 1.954066 
" clip-path="url(#p5aaf9d7319)" style="fill: none; stroke: #b0b0b0; stroke-width: 0.8; stroke-linecap: square"/>
     </g>
     <g id="line2d_86">
      <g>
       <use xlink:href="#m018289079b" x="375.471124" y="268.066066" style="stroke: #000000; stroke-width: 0.8"/>
      </g>
     </g>
    </g>
    <g id="xtick_44">
     <g id="line2d_87">
      <path d="M 382.883329 268.066066 
L 382.883329 1.954066 
" clip-path="url(#p5aaf9d7319)" style="fill: none; stroke: #b0b0b0; stroke-width: 0.8; stroke-linecap: square"/>
     </g>
     <g id="line2d_88">
      <g>
       <use xlink:href="#m018289079b" x="382.883329" y="268.066066" style="stroke: #000000; stroke-width: 0.8"/>
      </g>
     </g>
    </g>
    <g id="text_1">
     <!-- Individual Eddies [-] -->
     <g transform="translate(173.707656 286.664504)scale(0.1 -0.1)">
      <defs>
       <path id="DejaVuSans-49" d="M 628 4666 
L 1259 4666 
L 1259 0 
L 628 0 
L 628 4666 
z
" transform="scale(0.015625)"/>
       <path id="DejaVuSans-6e" d="M 3513 2113 
L 3513 0 
L 2938 0 
L 2938 2094 
Q 2938 2591 2744 2837 
Q 2550 3084 2163 3084 
Q 1697 3084 1428 2787 
Q 1159 2491 1159 1978 
L 1159 0 
L 581 0 
L 581 3500 
L 1159 3500 
L 1159 2956 
Q 1366 3272 1645 3428 
Q 1925 3584 2291 3584 
Q 2894 3584 3203 3211 
Q 3513 2838 3513 2113 
z
" transform="scale(0.015625)"/>
       <path id="DejaVuSans-64" d="M 2906 2969 
L 2906 4863 
L 3481 4863 
L 3481 0 
L 2906 0 
L 2906 525 
Q 2725 213 2448 61 
Q 2172 -91 1784 -91 
Q 1150 -91 751 415 
Q 353 922 353 1747 
Q 353 2572 751 3078 
Q 1150 3584 1784 3584 
Q 2172 3584 2448 3432 
Q 2725 3281 2906 2969 
z
M 947 1747 
Q 947 1113 1208 752 
Q 1469 391 1925 391 
Q 2381 391 2643 752 
Q 2906 1113 2906 1747 
Q 2906 2381 2643 2742 
Q 2381 3103 1925 3103 
Q 1469 3103 1208 2742 
Q 947 2381 947 1747 
z
" transform="scale(0.015625)"/>
       <path id="DejaVuSans-69" d="M 603 3500 
L 1178 3500 
L 1178 0 
L 603 0 
L 603 3500 
z
M 603 4863 
L 1178 4863 
L 1178 4134 
L 603 4134 
L 603 4863 
z
" transform="scale(0.015625)"/>
       <path id="DejaVuSans-76" d="M 191 3500 
L 800 3500 
L 1894 563 
L 2988 3500 
L 3597 3500 
L 2284 0 
L 1503 0 
L 191 3500 
z
" transform="scale(0.015625)"/>
       <path id="DejaVuSans-75" d="M 544 1381 
L 544 3500 
L 1119 3500 
L 1119 1403 
Q 1119 906 1312 657 
Q 1506 409 1894 409 
Q 2359 409 2629 706 
Q 2900 1003 2900 1516 
L 2900 3500 
L 3475 3500 
L 3475 0 
L 2900 0 
L 2900 538 
Q 2691 219 2414 64 
Q 2138 -91 1772 -91 
Q 1169 -91 856 284 
Q 544 659 544 1381 
z
M 1991 3584 
L 1991 3584 
z
" transform="scale(0.015625)"/>
       <path id="DejaVuSans-61" d="M 2194 1759 
Q 1497 1759 1228 1600 
Q 959 1441 959 1056 
Q 959 750 1161 570 
Q 1363 391 1709 391 
Q 2188 391 2477 730 
Q 2766 1069 2766 1631 
L 2766 1759 
L 2194 1759 
z
M 3341 1997 
L 3341 0 
L 2766 0 
L 2766 531 
Q 2569 213 2275 61 
Q 1981 -91 1556 -91 
Q 1019 -91 701 211 
Q 384 513 384 1019 
Q 384 1609 779 1909 
Q 1175 2209 1959 2209 
L 2766 2209 
L 2766 2266 
Q 2766 2663 2505 2880 
Q 2244 3097 1772 3097 
Q 1472 3097 1187 3025 
Q 903 2953 641 2809 
L 641 3341 
Q 956 3463 1253 3523 
Q 1550 3584 1831 3584 
Q 2591 3584 2966 3190 
Q 3341 2797 3341 1997 
z
" transform="scale(0.015625)"/>
       <path id="DejaVuSans-6c" d="M 603 4863 
L 1178 4863 
L 1178 0 
L 603 0 
L 603 4863 
z
" transform="scale(0.015625)"/>
       <path id="DejaVuSans-20" transform="scale(0.015625)"/>
       <path id="DejaVuSans-45" d="M 628 4666 
L 3578 4666 
L 3578 4134 
L 1259 4134 
L 1259 2753 
L 3481 2753 
L 3481 2222 
L 1259 2222 
L 1259 531 
L 3634 531 
L 3634 0 
L 628 0 
L 628 4666 
z
" transform="scale(0.015625)"/>
       <path id="DejaVuSans-65" d="M 3597 1894 
L 3597 1613 
L 953 1613 
Q 991 1019 1311 708 
Q 1631 397 2203 397 
Q 2534 397 2845 478 
Q 3156 559 3463 722 
L 3463 178 
Q 3153 47 2828 -22 
Q 2503 -91 2169 -91 
Q 1331 -91 842 396 
Q 353 884 353 1716 
Q 353 2575 817 3079 
Q 1281 3584 2069 3584 
Q 2775 3584 3186 3129 
Q 3597 2675 3597 1894 
z
M 3022 2063 
Q 3016 2534 2758 2815 
Q 2500 3097 2075 3097 
Q 1594 3097 1305 2825 
Q 1016 2553 972 2059 
L 3022 2063 
z
" transform="scale(0.015625)"/>
       <path id="DejaVuSans-73" d="M 2834 3397 
L 2834 2853 
Q 2591 2978 2328 3040 
Q 2066 3103 1784 3103 
Q 1356 3103 1142 2972 
Q 928 2841 928 2578 
Q 928 2378 1081 2264 
Q 1234 2150 1697 2047 
L 1894 2003 
Q 2506 1872 2764 1633 
Q 3022 1394 3022 966 
Q 3022 478 2636 193 
Q 2250 -91 1575 -91 
Q 1294 -91 989 -36 
Q 684 19 347 128 
L 347 722 
Q 666 556 975 473 
Q 1284 391 1588 391 
Q 1994 391 2212 530 
Q 2431 669 2431 922 
Q 2431 1156 2273 1281 
Q 2116 1406 1581 1522 
L 1381 1569 
Q 847 1681 609 1914 
Q 372 2147 372 2553 
Q 372 3047 722 3315 
Q 1072 3584 1716 3584 
Q 2034 3584 2315 3537 
Q 2597 3491 2834 3397 
z
" transform="scale(0.015625)"/>
       <path id="DejaVuSans-5b" d="M 550 4863 
L 1875 4863 
L 1875 4416 
L 1125 4416 
L 1125 -397 
L 1875 -397 
L 1875 -844 
L 550 -844 
L 550 4863 
z
" transform="scale(0.015625)"/>
       <path id="DejaVuSans-2d" d="M 313 2009 
L 1997 2009 
L 1997 1497 
L 313 1497 
L 313 2009 
z
" transform="scale(0.015625)"/>
       <path id="DejaVuSans-5d" d="M 1947 4863 
L 1947 -844 
L 622 -844 
L 622 -397 
L 1369 -397 
L 1369 4416 
L 622 4416 
L 622 4863 
L 1947 4863 
z
" transform="scale(0.015625)"/>
      </defs>
      <use xlink:href="#DejaVuSans-49"/>
      <use xlink:href="#DejaVuSans-6e" x="29.492188"/>
      <use xlink:href="#DejaVuSans-64" x="92.871094"/>
      <use xlink:href="#DejaVuSans-69" x="156.347656"/>
      <use xlink:href="#DejaVuSans-76" x="184.130859"/>
      <use xlink:href="#DejaVuSans-69" x="243.310547"/>
      <use xlink:href="#DejaVuSans-64" x="271.09375"/>
      <use xlink:href="#DejaVuSans-75" x="334.570312"/>
      <use xlink:href="#DejaVuSans-61" x="397.949219"/>
      <use xlink:href="#DejaVuSans-6c" x="459.228516"/>
      <use xlink:href="#DejaVuSans-20" x="487.011719"/>
      <use xlink:href="#DejaVuSans-45" x="518.798828"/>
      <use xlink:href="#DejaVuSans-64" x="581.982422"/>
      <use xlink:href="#DejaVuSans-64" x="645.458984"/>
      <use xlink:href="#DejaVuSans-69" x="708.935547"/>
      <use xlink:href="#DejaVuSans-65" x="736.71875"/>
      <use xlink:href="#DejaVuSans-73" x="798.242188"/>
      <use xlink:href="#DejaVuSans-20" x="850.341797"/>
      <use xlink:href="#DejaVuSans-5b" x="882.128906"/>
      <use xlink:href="#DejaVuSans-2d" x="921.142578"/>
      <use xlink:href="#DejaVuSans-5d" x="957.226562"/>
     </g>
    </g>
   </g>
   <g id="matplotlib.axis_2">
    <g id="ytick_1">
     <g id="line2d_89">
      <path d="M 44.960938 249.819558 
L 402.080938 249.819558 
" clip-path="url(#p5aaf9d7319)" style="fill: none; stroke: #b0b0b0; stroke-width: 0.8; stroke-linecap: square"/>
     </g>
     <g id="line2d_90">
      <defs>
       <path id="ma164dc1c64" d="M 0 0 
L -3.5 0 
" style="stroke: #000000; stroke-width: 0.8"/>
      </defs>
      <g>
       <use xlink:href="#ma164dc1c64" x="44.960938" y="249.819558" style="stroke: #000000; stroke-width: 0.8"/>
      </g>
     </g>
     <g id="text_2">
      <!-- −0.4 -->
      <g transform="translate(13.678125 253.618776)scale(0.1 -0.1)">
       <defs>
        <path id="DejaVuSans-2212" d="M 678 2272 
L 4684 2272 
L 4684 1741 
L 678 1741 
L 678 2272 
z
" transform="scale(0.015625)"/>
        <path id="DejaVuSans-30" d="M 2034 4250 
Q 1547 4250 1301 3770 
Q 1056 3291 1056 2328 
Q 1056 1369 1301 889 
Q 1547 409 2034 409 
Q 2525 409 2770 889 
Q 3016 1369 3016 2328 
Q 3016 3291 2770 3770 
Q 2525 4250 2034 4250 
z
M 2034 4750 
Q 2819 4750 3233 4129 
Q 3647 3509 3647 2328 
Q 3647 1150 3233 529 
Q 2819 -91 2034 -91 
Q 1250 -91 836 529 
Q 422 1150 422 2328 
Q 422 3509 836 4129 
Q 1250 4750 2034 4750 
z
" transform="scale(0.015625)"/>
        <path id="DejaVuSans-2e" d="M 684 794 
L 1344 794 
L 1344 0 
L 684 0 
L 684 794 
z
" transform="scale(0.015625)"/>
        <path id="DejaVuSans-34" d="M 2419 4116 
L 825 1625 
L 2419 1625 
L 2419 4116 
z
M 2253 4666 
L 3047 4666 
L 3047 1625 
L 3713 1625 
L 3713 1100 
L 3047 1100 
L 3047 0 
L 2419 0 
L 2419 1100 
L 313 1100 
L 313 1709 
L 2253 4666 
z
" transform="scale(0.015625)"/>
       </defs>
       <use xlink:href="#DejaVuSans-2212"/>
       <use xlink:href="#DejaVuSans-30" x="83.789062"/>
       <use xlink:href="#DejaVuSans-2e" x="147.412109"/>
       <use xlink:href="#DejaVuSans-34" x="179.199219"/>
      </g>
     </g>
    </g>
    <g id="ytick_2">
     <g id="line2d_91">
      <path d="M 44.960938 208.816168 
L 402.080938 208.816168 
" clip-path="url(#p5aaf9d7319)" style="fill: none; stroke: #b0b0b0; stroke-width: 0.8; stroke-linecap: square"/>
     </g>
     <g id="line2d_92">
      <g>
       <use xlink:href="#ma164dc1c64" x="44.960938" y="208.816168" style="stroke: #000000; stroke-width: 0.8"/>
      </g>
     </g>
     <g id="text_3">
      <!-- −0.2 -->
      <g transform="translate(13.678125 212.615387)scale(0.1 -0.1)">
       <defs>
        <path id="DejaVuSans-32" d="M 1228 531 
L 3431 531 
L 3431 0 
L 469 0 
L 469 531 
Q 828 903 1448 1529 
Q 2069 2156 2228 2338 
Q 2531 2678 2651 2914 
Q 2772 3150 2772 3378 
Q 2772 3750 2511 3984 
Q 2250 4219 1831 4219 
Q 1534 4219 1204 4116 
Q 875 4013 500 3803 
L 500 4441 
Q 881 4594 1212 4672 
Q 1544 4750 1819 4750 
Q 2544 4750 2975 4387 
Q 3406 4025 3406 3419 
Q 3406 3131 3298 2873 
Q 3191 2616 2906 2266 
Q 2828 2175 2409 1742 
Q 1991 1309 1228 531 
z
" transform="scale(0.015625)"/>
       </defs>
       <use xlink:href="#DejaVuSans-2212"/>
       <use xlink:href="#DejaVuSans-30" x="83.789062"/>
       <use xlink:href="#DejaVuSans-2e" x="147.412109"/>
       <use xlink:href="#DejaVuSans-32" x="179.199219"/>
      </g>
     </g>
    </g>
    <g id="ytick_3">
     <g id="line2d_93">
      <path d="M 44.960938 167.812778 
L 402.080938 167.812778 
" clip-path="url(#p5aaf9d7319)" style="fill: none; stroke: #b0b0b0; stroke-width: 0.8; stroke-linecap: square"/>
     </g>
     <g id="line2d_94">
      <g>
       <use xlink:href="#ma164dc1c64" x="44.960938" y="167.812778" style="stroke: #000000; stroke-width: 0.8"/>
      </g>
     </g>
     <g id="text_4">
      <!-- 0.0 -->
      <g transform="translate(22.057813 171.611997)scale(0.1 -0.1)">
       <use xlink:href="#DejaVuSans-30"/>
       <use xlink:href="#DejaVuSans-2e" x="63.623047"/>
       <use xlink:href="#DejaVuSans-30" x="95.410156"/>
      </g>
     </g>
    </g>
    <g id="ytick_4">
     <g id="line2d_95">
      <path d="M 44.960938 126.809388 
L 402.080938 126.809388 
" clip-path="url(#p5aaf9d7319)" style="fill: none; stroke: #b0b0b0; stroke-width: 0.8; stroke-linecap: square"/>
     </g>
     <g id="line2d_96">
      <g>
       <use xlink:href="#ma164dc1c64" x="44.960938" y="126.809388" style="stroke: #000000; stroke-width: 0.8"/>
      </g>
     </g>
     <g id="text_5">
      <!-- 0.2 -->
      <g transform="translate(22.057813 130.608607)scale(0.1 -0.1)">
       <use xlink:href="#DejaVuSans-30"/>
       <use xlink:href="#DejaVuSans-2e" x="63.623047"/>
       <use xlink:href="#DejaVuSans-32" x="95.410156"/>
      </g>
     </g>
    </g>
    <g id="ytick_5">
     <g id="line2d_97">
      <path d="M 44.960938 85.805998 
L 402.080938 85.805998 
" clip-path="url(#p5aaf9d7319)" style="fill: none; stroke: #b0b0b0; stroke-width: 0.8; stroke-linecap: square"/>
     </g>
     <g id="line2d_98">
      <g>
       <use xlink:href="#ma164dc1c64" x="44.960938" y="85.805998" style="stroke: #000000; stroke-width: 0.8"/>
      </g>
     </g>
     <g id="text_6">
      <!-- 0.4 -->
      <g transform="translate(22.057813 89.605217)scale(0.1 -0.1)">
       <use xlink:href="#DejaVuSans-30"/>
       <use xlink:href="#DejaVuSans-2e" x="63.623047"/>
       <use xlink:href="#DejaVuSans-34" x="95.410156"/>
      </g>
     </g>
    </g>
    <g id="ytick_6">
     <g id="line2d_99">
      <path d="M 44.960938 44.802609 
L 402.080938 44.802609 
" clip-path="url(#p5aaf9d7319)" style="fill: none; stroke: #b0b0b0; stroke-width: 0.8; stroke-linecap: square"/>
     </g>
     <g id="line2d_100">
      <g>
       <use xlink:href="#ma164dc1c64" x="44.960938" y="44.802609" style="stroke: #000000; stroke-width: 0.8"/>
      </g>
     </g>
     <g id="text_7">
      <!-- 0.6 -->
      <g transform="translate(22.057813 48.601827)scale(0.1 -0.1)">
       <defs>
        <path id="DejaVuSans-36" d="M 2113 2584 
Q 1688 2584 1439 2293 
Q 1191 2003 1191 1497 
Q 1191 994 1439 701 
Q 1688 409 2113 409 
Q 2538 409 2786 701 
Q 3034 994 3034 1497 
Q 3034 2003 2786 2293 
Q 2538 2584 2113 2584 
z
M 3366 4563 
L 3366 3988 
Q 3128 4100 2886 4159 
Q 2644 4219 2406 4219 
Q 1781 4219 1451 3797 
Q 1122 3375 1075 2522 
Q 1259 2794 1537 2939 
Q 1816 3084 2150 3084 
Q 2853 3084 3261 2657 
Q 3669 2231 3669 1497 
Q 3669 778 3244 343 
Q 2819 -91 2113 -91 
Q 1303 -91 875 529 
Q 447 1150 447 2328 
Q 447 3434 972 4092 
Q 1497 4750 2381 4750 
Q 2619 4750 2861 4703 
Q 3103 4656 3366 4563 
z
" transform="scale(0.015625)"/>
       </defs>
       <use xlink:href="#DejaVuSans-30"/>
       <use xlink:href="#DejaVuSans-2e" x="63.623047"/>
       <use xlink:href="#DejaVuSans-36" x="95.410156"/>
      </g>
     </g>
    </g>
    <g id="ytick_7">
     <g id="line2d_101">
      <path d="M 44.960938 3.799219 
L 402.080938 3.799219 
" clip-path="url(#p5aaf9d7319)" style="fill: none; stroke: #b0b0b0; stroke-width: 0.8; stroke-linecap: square"/>
     </g>
     <g id="line2d_102">
      <g>
       <use xlink:href="#ma164dc1c64" x="44.960938" y="3.799219" style="stroke: #000000; stroke-width: 0.8"/>
      </g>
     </g>
     <g id="text_8">
      <!-- 0.8 -->
      <g transform="translate(22.057813 7.598437)scale(0.1 -0.1)">
       <defs>
        <path id="DejaVuSans-38" d="M 2034 2216 
Q 1584 2216 1326 1975 
Q 1069 1734 1069 1313 
Q 1069 891 1326 650 
Q 1584 409 2034 409 
Q 2484 409 2743 651 
Q 3003 894 3003 1313 
Q 3003 1734 2745 1975 
Q 2488 2216 2034 2216 
z
M 1403 2484 
Q 997 2584 770 2862 
Q 544 3141 544 3541 
Q 544 4100 942 4425 
Q 1341 4750 2034 4750 
Q 2731 4750 3128 4425 
Q 3525 4100 3525 3541 
Q 3525 3141 3298 2862 
Q 3072 2584 2669 2484 
Q 3125 2378 3379 2068 
Q 3634 1759 3634 1313 
Q 3634 634 3220 271 
Q 2806 -91 2034 -91 
Q 1263 -91 848 271 
Q 434 634 434 1313 
Q 434 1759 690 2068 
Q 947 2378 1403 2484 
z
M 1172 3481 
Q 1172 3119 1398 2916 
Q 1625 2713 2034 2713 
Q 2441 2713 2670 2916 
Q 2900 3119 2900 3481 
Q 2900 3844 2670 4047 
Q 2441 4250 2034 4250 
Q 1625 4250 1398 4047 
Q 1172 3844 1172 3481 
z
" transform="scale(0.015625)"/>
       </defs>
       <use xlink:href="#DejaVuSans-30"/>
       <use xlink:href="#DejaVuSans-2e" x="63.623047"/>
       <use xlink:href="#DejaVuSans-38" x="95.410156"/>
      </g>
     </g>
    </g>
    <g id="text_9">
     <!-- Eddy Amplitude [m] -->
     <g transform="translate(7.598438 185.04991)rotate(-90)scale(0.1 -0.1)">
      <defs>
       <path id="DejaVuSans-79" d="M 2059 -325 
Q 1816 -950 1584 -1140 
Q 1353 -1331 966 -1331 
L 506 -1331 
L 506 -850 
L 844 -850 
Q 1081 -850 1212 -737 
Q 1344 -625 1503 -206 
L 1606 56 
L 191 3500 
L 800 3500 
L 1894 763 
L 2988 3500 
L 3597 3500 
L 2059 -325 
z
" transform="scale(0.015625)"/>
       <path id="DejaVuSans-41" d="M 2188 4044 
L 1331 1722 
L 3047 1722 
L 2188 4044 
z
M 1831 4666 
L 2547 4666 
L 4325 0 
L 3669 0 
L 3244 1197 
L 1141 1197 
L 716 0 
L 50 0 
L 1831 4666 
z
" transform="scale(0.015625)"/>
       <path id="DejaVuSans-6d" d="M 3328 2828 
Q 3544 3216 3844 3400 
Q 4144 3584 4550 3584 
Q 5097 3584 5394 3201 
Q 5691 2819 5691 2113 
L 5691 0 
L 5113 0 
L 5113 2094 
Q 5113 2597 4934 2840 
Q 4756 3084 4391 3084 
Q 3944 3084 3684 2787 
Q 3425 2491 3425 1978 
L 3425 0 
L 2847 0 
L 2847 2094 
Q 2847 2600 2669 2842 
Q 2491 3084 2119 3084 
Q 1678 3084 1418 2786 
Q 1159 2488 1159 1978 
L 1159 0 
L 581 0 
L 581 3500 
L 1159 3500 
L 1159 2956 
Q 1356 3278 1631 3431 
Q 1906 3584 2284 3584 
Q 2666 3584 2933 3390 
Q 3200 3197 3328 2828 
z
" transform="scale(0.015625)"/>
       <path id="DejaVuSans-70" d="M 1159 525 
L 1159 -1331 
L 581 -1331 
L 581 3500 
L 1159 3500 
L 1159 2969 
Q 1341 3281 1617 3432 
Q 1894 3584 2278 3584 
Q 2916 3584 3314 3078 
Q 3713 2572 3713 1747 
Q 3713 922 3314 415 
Q 2916 -91 2278 -91 
Q 1894 -91 1617 61 
Q 1341 213 1159 525 
z
M 3116 1747 
Q 3116 2381 2855 2742 
Q 2594 3103 2138 3103 
Q 1681 3103 1420 2742 
Q 1159 2381 1159 1747 
Q 1159 1113 1420 752 
Q 1681 391 2138 391 
Q 2594 391 2855 752 
Q 3116 1113 3116 1747 
z
" transform="scale(0.015625)"/>
       <path id="DejaVuSans-74" d="M 1172 4494 
L 1172 3500 
L 2356 3500 
L 2356 3053 
L 1172 3053 
L 1172 1153 
Q 1172 725 1289 603 
Q 1406 481 1766 481 
L 2356 481 
L 2356 0 
L 1766 0 
Q 1100 0 847 248 
Q 594 497 594 1153 
L 594 3053 
L 172 3053 
L 172 3500 
L 594 3500 
L 594 4494 
L 1172 4494 
z
" transform="scale(0.015625)"/>
      </defs>
      <use xlink:href="#DejaVuSans-45"/>
      <use xlink:href="#DejaVuSans-64" x="63.183594"/>
      <use xlink:href="#DejaVuSans-64" x="126.660156"/>
      <use xlink:href="#DejaVuSans-79" x="190.136719"/>
      <use xlink:href="#DejaVuSans-20" x="249.316406"/>
      <use xlink:href="#DejaVuSans-41" x="281.103516"/>
      <use xlink:href="#DejaVuSans-6d" x="349.511719"/>
      <use xlink:href="#DejaVuSans-70" x="446.923828"/>
      <use xlink:href="#DejaVuSans-6c" x="510.400391"/>
      <use xlink:href="#DejaVuSans-69" x="538.183594"/>
      <use xlink:href="#DejaVuSans-74" x="565.966797"/>
      <use xlink:href="#DejaVuSans-75" x="605.175781"/>
      <use xlink:href="#DejaVuSans-64" x="668.554688"/>
      <use xlink:href="#DejaVuSans-65" x="732.03125"/>
      <use xlink:href="#DejaVuSans-20" x="793.554688"/>
      <use xlink:href="#DejaVuSans-5b" x="825.341797"/>
      <use xlink:href="#DejaVuSans-6d" x="864.355469"/>
      <use xlink:href="#DejaVuSans-5d" x="961.767578"/>
     </g>
    </g>
   </g>
   <g id="patch_3">
    <path d="M 61.193665 167.812778 
L 67.123428 167.812778 
L 67.123428 255.970066 
L 61.193665 255.970066 
z
" clip-path="url(#p5aaf9d7319)" style="fill: #ff0000"/>
   </g>
   <g id="patch_4">
    <path d="M 68.605869 167.812778 
L 74.535632 167.812778 
L 74.535632 251.869727 
L 68.605869 251.869727 
z
" clip-path="url(#p5aaf9d7319)" style="fill: #ff0000"/>
   </g>
   <g id="patch_5">
    <path d="M 76.018073 167.812778 
L 81.947837 167.812778 
L 81.947837 245.719219 
L 76.018073 245.719219 
z
" clip-path="url(#p5aaf9d7319)" style="fill: #ff0000"/>
   </g>
   <g id="patch_6">
    <path d="M 83.430277 167.812778 
L 89.360041 167.812778 
L 89.360041 243.669049 
L 83.430277 243.669049 
z
" clip-path="url(#p5aaf9d7319)" style="fill: #ff0000"/>
   </g>
   <g id="patch_7">
    <path d="M 90.842482 167.812778 
L 96.772245 167.812778 
L 96.772245 233.418202 
L 90.842482 233.418202 
z
" clip-path="url(#p5aaf9d7319)" style="fill: #ff0000"/>
   </g>
   <g id="patch_8">
    <path d="M 98.254686 167.812778 
L 104.184449 167.812778 
L 104.184449 225.217524 
L 98.254686 225.217524 
z
" clip-path="url(#p5aaf9d7319)" style="fill: #ff0000"/>
   </g>
   <g id="patch_9">
    <path d="M 105.66689 167.812778 
L 111.596654 167.812778 
L 111.596654 223.167354 
L 105.66689 223.167354 
z
" clip-path="url(#p5aaf9d7319)" style="fill: #ff0000"/>
   </g>
   <g id="patch_10">
    <path d="M 113.079094 167.812778 
L 119.008858 167.812778 
L 119.008858 221.117185 
L 113.079094 221.117185 
z
" clip-path="url(#p5aaf9d7319)" style="fill: #ff0000"/>
   </g>
   <g id="patch_11">
    <path d="M 120.491299 167.812778 
L 126.421062 167.812778 
L 126.421062 214.966676 
L 120.491299 214.966676 
z
" clip-path="url(#p5aaf9d7319)" style="fill: #ff0000"/>
   </g>
   <g id="patch_12">
    <path d="M 127.903503 167.812778 
L 133.833266 167.812778 
L 133.833266 210.866337 
L 127.903503 210.866337 
z
" clip-path="url(#p5aaf9d7319)" style="fill: #ff0000"/>
   </g>
   <g id="patch_13">
    <path d="M 135.315707 167.812778 
L 141.245471 167.812778 
L 141.245471 208.816168 
L 135.315707 208.816168 
z
" clip-path="url(#p5aaf9d7319)" style="fill: #ff0000"/>
   </g>
   <g id="patch_14">
    <path d="M 142.727911 167.812778 
L 148.657675 167.812778 
L 148.657675 206.765998 
L 142.727911 206.765998 
z
" clip-path="url(#p5aaf9d7319)" style="fill: #ff0000"/>
   </g>
   <g id="patch_15">
    <path d="M 150.140116 167.812778 
L 156.069879 167.812778 
L 156.069879 204.715829 
L 150.140116 204.715829 
z
" clip-path="url(#p5aaf9d7319)" style="fill: #ff0000"/>
   </g>
   <g id="patch_16">
    <path d="M 157.55232 167.812778 
L 163.482083 167.812778 
L 163.482083 204.715829 
L 157.55232 204.715829 
z
" clip-path="url(#p5aaf9d7319)" style="fill: #ff0000"/>
   </g>
   <g id="patch_17">
    <path d="M 164.964524 167.812778 
L 170.894287 167.812778 
L 170.894287 204.715829 
L 164.964524 204.715829 
z
" clip-path="url(#p5aaf9d7319)" style="fill: #ff0000"/>
   </g>
   <g id="patch_18">
    <path d="M 172.376728 167.812778 
L 178.306492 167.812778 
L 178.306492 202.665659 
L 172.376728 202.665659 
z
" clip-path="url(#p5aaf9d7319)" style="fill: #ff0000"/>
   </g>
   <g id="patch_19">
    <path d="M 179.788933 167.812778 
L 185.718696 167.812778 
L 185.718696 196.515151 
L 179.788933 196.515151 
z
" clip-path="url(#p5aaf9d7319)" style="fill: #ff0000"/>
   </g>
   <g id="patch_20">
    <path d="M 187.201137 167.812778 
L 193.1309 167.812778 
L 193.1309 192.414812 
L 187.201137 192.414812 
z
" clip-path="url(#p5aaf9d7319)" style="fill: #ff0000"/>
   </g>
   <g id="patch_21">
    <path d="M 194.613341 167.812778 
L 200.543104 167.812778 
L 200.543104 192.414812 
L 194.613341 192.414812 
z
" clip-path="url(#p5aaf9d7319)" style="fill: #ff0000"/>
   </g>
   <g id="patch_22">
    <path d="M 202.025545 167.812778 
L 207.955309 167.812778 
L 207.955309 180.113795 
L 202.025545 180.113795 
z
" clip-path="url(#p5aaf9d7319)" style="fill: #ff0000"/>
   </g>
   <g id="patch_23">
    <path d="M 209.437749 167.812778 
L 215.367513 167.812778 
L 215.367513 178.063626 
L 209.437749 178.063626 
z
" clip-path="url(#p5aaf9d7319)" style="fill: #ff0000"/>
   </g>
   <g id="patch_24">
    <path d="M 216.849954 167.812778 
L 222.779717 167.812778 
L 222.779717 173.963287 
L 216.849954 173.963287 
z
" clip-path="url(#p5aaf9d7319)" style="fill: #ff0000"/>
   </g>
   <g id="patch_25">
    <path d="M 224.262158 167.812778 
L 230.191921 167.812778 
L 230.191921 167.812778 
L 224.262158 167.812778 
z
" clip-path="url(#p5aaf9d7319)" style="fill: #000080"/>
   </g>
   <g id="patch_26">
    <path d="M 231.674362 167.812778 
L 237.604126 167.812778 
L 237.604126 159.6121 
L 231.674362 159.6121 
z
" clip-path="url(#p5aaf9d7319)" style="fill: #000080"/>
   </g>
   <g id="patch_27">
    <path d="M 239.086566 167.812778 
L 245.01633 167.812778 
L 245.01633 141.160575 
L 239.086566 141.160575 
z
" clip-path="url(#p5aaf9d7319)" style="fill: #000080"/>
   </g>
   <g id="patch_28">
    <path d="M 246.498771 167.812778 
L 252.428534 167.812778 
L 252.428534 135.010066 
L 246.498771 135.010066 
z
" clip-path="url(#p5aaf9d7319)" style="fill: #000080"/>
   </g>
   <g id="patch_29">
    <path d="M 253.910975 167.812778 
L 259.840738 167.812778 
L 259.840738 126.809388 
L 253.910975 126.809388 
z
" clip-path="url(#p5aaf9d7319)" style="fill: #000080"/>
   </g>
   <g id="patch_30">
    <path d="M 261.323179 167.812778 
L 267.252942 167.812778 
L 267.252942 124.759219 
L 261.323179 124.759219 
z
" clip-path="url(#p5aaf9d7319)" style="fill: #000080"/>
   </g>
   <g id="patch_31">
    <path d="M 268.735383 167.812778 
L 274.665147 167.812778 
L 274.665147 124.759219 
L 268.735383 124.759219 
z
" clip-path="url(#p5aaf9d7319)" style="fill: #000080"/>
   </g>
   <g id="patch_32">
    <path d="M 276.147588 167.812778 
L 282.077351 167.812778 
L 282.077351 120.65888 
L 276.147588 120.65888 
z
" clip-path="url(#p5aaf9d7319)" style="fill: #000080"/>
   </g>
   <g id="patch_33">
    <path d="M 283.559792 167.812778 
L 289.489555 167.812778 
L 289.489555 118.60871 
L 283.559792 118.60871 
z
" clip-path="url(#p5aaf9d7319)" style="fill: #000080"/>
   </g>
   <g id="patch_34">
    <path d="M 290.971996 167.812778 
L 296.901759 167.812778 
L 296.901759 110.408032 
L 290.971996 110.408032 
z
" clip-path="url(#p5aaf9d7319)" style="fill: #000080"/>
   </g>
   <g id="patch_35">
    <path d="M 298.3842 167.812778 
L 304.313964 167.812778 
L 304.313964 102.207354 
L 298.3842 102.207354 
z
" clip-path="url(#p5aaf9d7319)" style="fill: #000080"/>
   </g>
   <g id="patch_36">
    <path d="M 305.796404 167.812778 
L 311.726168 167.812778 
L 311.726168 96.056846 
L 305.796404 96.056846 
z
" clip-path="url(#p5aaf9d7319)" style="fill: #000080"/>
   </g>
   <g id="patch_37">
    <path d="M 313.208609 167.812778 
L 319.138372 167.812778 
L 319.138372 96.056846 
L 313.208609 96.056846 
z
" clip-path="url(#p5aaf9d7319)" style="fill: #000080"/>
   </g>
   <g id="patch_38">
    <path d="M 320.620813 167.812778 
L 326.550576 167.812778 
L 326.550576 89.906337 
L 320.620813 89.906337 
z
" clip-path="url(#p5aaf9d7319)" style="fill: #000080"/>
   </g>
   <g id="patch_39">
    <path d="M 328.033017 167.812778 
L 333.962781 167.812778 
L 333.962781 89.906337 
L 328.033017 89.906337 
z
" clip-path="url(#p5aaf9d7319)" style="fill: #000080"/>
   </g>
   <g id="patch_40">
    <path d="M 335.445221 167.812778 
L 341.374985 167.812778 
L 341.374985 83.755829 
L 335.445221 83.755829 
z
" clip-path="url(#p5aaf9d7319)" style="fill: #000080"/>
   </g>
   <g id="patch_41">
    <path d="M 342.857426 167.812778 
L 348.787189 167.812778 
L 348.787189 79.65549 
L 342.857426 79.65549 
z
" clip-path="url(#p5aaf9d7319)" style="fill: #000080"/>
   </g>
   <g id="patch_42">
    <path d="M 350.26963 167.812778 
L 356.199393 167.812778 
L 356.199393 71.454812 
L 350.26963 71.454812 
z
" clip-path="url(#p5aaf9d7319)" style="fill: #000080"/>
   </g>
   <g id="patch_43">
    <path d="M 357.681834 167.812778 
L 363.611598 167.812778 
L 363.611598 34.551761 
L 357.681834 34.551761 
z
" clip-path="url(#p5aaf9d7319)" style="fill: #000080"/>
   </g>
   <g id="patch_44">
    <path d="M 365.094038 167.812778 
L 371.023802 167.812778 
L 371.023802 32.501592 
L 365.094038 32.501592 
z
" clip-path="url(#p5aaf9d7319)" style="fill: #000080"/>
   </g>
   <g id="patch_45">
    <path d="M 372.506243 167.812778 
L 378.436006 167.812778 
L 378.436006 26.351083 
L 372.506243 26.351083 
z
" clip-path="url(#p5aaf9d7319)" style="fill: #000080"/>
   </g>
   <g id="patch_46">
    <path d="M 379.918447 167.812778 
L 385.84821 167.812778 
L 385.84821 14.050066 
L 379.918447 14.050066 
z
" clip-path="url(#p5aaf9d7319)" style="fill: #000080"/>
   </g>
   <g id="patch_47">
    <path d="M 44.960938 268.066066 
L 44.960938 1.954066 
" style="fill: none; stroke: #000000; stroke-width: 0.8; stroke-linejoin: miter; stroke-linecap: square"/>
   </g>
   <g id="patch_48">
    <path d="M 402.080938 268.066066 
L 402.080938 1.954066 
" style="fill: none; stroke: #000000; stroke-width: 0.8; stroke-linejoin: miter; stroke-linecap: square"/>
   </g>
   <g id="patch_49">
    <path d="M 44.960938 268.066066 
L 402.080938 268.066066 
" style="fill: none; stroke: #000000; stroke-width: 0.8; stroke-linejoin: miter; stroke-linecap: square"/>
   </g>
   <g id="patch_50">
    <path d="M 44.960938 1.954066 
L 402.080938 1.954066 
" style="fill: none; stroke: #000000; stroke-width: 0.8; stroke-linejoin: miter; stroke-linecap: square"/>
   </g>
  </g>
 </g>
 <defs>
  <clipPath id="p5aaf9d7319">
   <rect x="44.960938" y="1.954066" width="357.12" height="266.112"/>
  </clipPath>
 </defs>
</svg>
