<?xml version="1.0" encoding="utf-8" standalone="no"?>
<!DOCTYPE svg PUBLIC "-//W3C//DTD SVG 1.1//EN"
  "http://www.w3.org/Graphics/SVG/1.1/DTD/svg11.dtd">
<svg xmlns:xlink="http://www.w3.org/1999/xlink" width="408.443438pt" height="286.790125pt" viewBox="0 0 408.443438 286.790125" xmlns="http://www.w3.org/2000/svg" version="1.1">
 <metadata>
  <rdf:RDF xmlns:dc="http://purl.org/dc/elements/1.1/" xmlns:cc="http://creativecommons.org/ns#" xmlns:rdf="http://www.w3.org/1999/02/22-rdf-syntax-ns#">
   <cc:Work>
    <dc:type rdf:resource="http://purl.org/dc/dcmitype/StillImage"/>
    <dc:date>2023-06-13T22:14:01.506896</dc:date>
    <dc:format>image/svg+xml</dc:format>
    <dc:creator>
     <cc:Agent>
      <dc:title>Matplotlib v3.5.2, https://matplotlib.org/</dc:title>
     </cc:Agent>
    </dc:creator>
   </cc:Work>
  </rdf:RDF>
 </metadata>
 <defs>
  <style type="text/css">*{stroke-linejoin: round; stroke-linecap: butt}</style>
 </defs>
 <g id="figure_1">
  <g id="patch_1">
   <path d="M 0 286.790125 
L 408.443438 286.790125 
L 408.443438 -0 
L 0 -0 
z
" style="fill: #ffffff"/>
  </g>
  <g id="axes_1">
   <g id="patch_2">
    <path d="M 51.323438 266.112 
L 408.443438 266.112 
L 408.443438 -0 
L 51.323438 -0 
z
" style="fill: #ffffff"/>
   </g>
   <g id="matplotlib.axis_1">
    <g id="xtick_1">
     <g id="line2d_1">
      <path d="M 70.06315 266.112 
L 70.06315 -0 
" clip-path="url(#pc6294487bd)" style="fill: none; stroke: #b0b0b0; stroke-width: 0.8; stroke-linecap: square"/>
     </g>
     <g id="line2d_2">
      <defs>
       <path id="mb25ce46bea" d="M 0 0 
L 0 3.5 
" style="stroke: #000000; stroke-width: 0.8"/>
      </defs>
      <g>
       <use xlink:href="#mb25ce46bea" x="70.06315" y="266.112" style="stroke: #000000; stroke-width: 0.8"/>
      </g>
     </g>
    </g>
    <g id="xtick_2">
     <g id="line2d_3">
      <path d="M 76.330612 266.112 
L 76.330612 -0 
" clip-path="url(#pc6294487bd)" style="fill: none; stroke: #b0b0b0; stroke-width: 0.8; stroke-linecap: square"/>
     </g>
     <g id="line2d_4">
      <g>
       <use xlink:href="#mb25ce46bea" x="76.330612" y="266.112" style="stroke: #000000; stroke-width: 0.8"/>
      </g>
     </g>
    </g>
    <g id="xtick_3">
     <g id="line2d_5">
      <path d="M 82.598074 266.112 
L 82.598074 -0 
" clip-path="url(#pc6294487bd)" style="fill: none; stroke: #b0b0b0; stroke-width: 0.8; stroke-linecap: square"/>
     </g>
     <g id="line2d_6">
      <g>
       <use xlink:href="#mb25ce46bea" x="82.598074" y="266.112" style="stroke: #000000; stroke-width: 0.8"/>
      </g>
     </g>
    </g>
    <g id="xtick_4">
     <g id="line2d_7">
      <path d="M 88.865536 266.112 
L 88.865536 -0 
" clip-path="url(#pc6294487bd)" style="fill: none; stroke: #b0b0b0; stroke-width: 0.8; stroke-linecap: square"/>
     </g>
     <g id="line2d_8">
      <g>
       <use xlink:href="#mb25ce46bea" x="88.865536" y="266.112" style="stroke: #000000; stroke-width: 0.8"/>
      </g>
     </g>
    </g>
    <g id="xtick_5">
     <g id="line2d_9">
      <path d="M 95.132999 266.112 
L 95.132999 -0 
" clip-path="url(#pc6294487bd)" style="fill: none; stroke: #b0b0b0; stroke-width: 0.8; stroke-linecap: square"/>
     </g>
     <g id="line2d_10">
      <g>
       <use xlink:href="#mb25ce46bea" x="95.132999" y="266.112" style="stroke: #000000; stroke-width: 0.8"/>
      </g>
     </g>
    </g>
    <g id="xtick_6">
     <g id="line2d_11">
      <path d="M 101.400461 266.112 
L 101.400461 -0 
" clip-path="url(#pc6294487bd)" style="fill: none; stroke: #b0b0b0; stroke-width: 0.8; stroke-linecap: square"/>
     </g>
     <g id="line2d_12">
      <g>
       <use xlink:href="#mb25ce46bea" x="101.400461" y="266.112" style="stroke: #000000; stroke-width: 0.8"/>
      </g>
     </g>
    </g>
    <g id="xtick_7">
     <g id="line2d_13">
      <path d="M 107.667923 266.112 
L 107.667923 -0 
" clip-path="url(#pc6294487bd)" style="fill: none; stroke: #b0b0b0; stroke-width: 0.8; stroke-linecap: square"/>
     </g>
     <g id="line2d_14">
      <g>
       <use xlink:href="#mb25ce46bea" x="107.667923" y="266.112" style="stroke: #000000; stroke-width: 0.8"/>
      </g>
     </g>
    </g>
    <g id="xtick_8">
     <g id="line2d_15">
      <path d="M 113.935386 266.112 
L 113.935386 -0 
" clip-path="url(#pc6294487bd)" style="fill: none; stroke: #b0b0b0; stroke-width: 0.8; stroke-linecap: square"/>
     </g>
     <g id="line2d_16">
      <g>
       <use xlink:href="#mb25ce46bea" x="113.935386" y="266.112" style="stroke: #000000; stroke-width: 0.8"/>
      </g>
     </g>
    </g>
    <g id="xtick_9">
     <g id="line2d_17">
      <path d="M 120.202848 266.112 
L 120.202848 -0 
" clip-path="url(#pc6294487bd)" style="fill: none; stroke: #b0b0b0; stroke-width: 0.8; stroke-linecap: square"/>
     </g>
     <g id="line2d_18">
      <g>
       <use xlink:href="#mb25ce46bea" x="120.202848" y="266.112" style="stroke: #000000; stroke-width: 0.8"/>
      </g>
     </g>
    </g>
    <g id="xtick_10">
     <g id="line2d_19">
      <path d="M 126.47031 266.112 
L 126.47031 -0 
" clip-path="url(#pc6294487bd)" style="fill: none; stroke: #b0b0b0; stroke-width: 0.8; stroke-linecap: square"/>
     </g>
     <g id="line2d_20">
      <g>
       <use xlink:href="#mb25ce46bea" x="126.47031" y="266.112" style="stroke: #000000; stroke-width: 0.8"/>
      </g>
     </g>
    </g>
    <g id="xtick_11">
     <g id="line2d_21">
      <path d="M 132.737772 266.112 
L 132.737772 -0 
" clip-path="url(#pc6294487bd)" style="fill: none; stroke: #b0b0b0; stroke-width: 0.8; stroke-linecap: square"/>
     </g>
     <g id="line2d_22">
      <g>
       <use xlink:href="#mb25ce46bea" x="132.737772" y="266.112" style="stroke: #000000; stroke-width: 0.8"/>
      </g>
     </g>
    </g>
    <g id="xtick_12">
     <g id="line2d_23">
      <path d="M 139.005235 266.112 
L 139.005235 -0 
" clip-path="url(#pc6294487bd)" style="fill: none; stroke: #b0b0b0; stroke-width: 0.8; stroke-linecap: square"/>
     </g>
     <g id="line2d_24">
      <g>
       <use xlink:href="#mb25ce46bea" x="139.005235" y="266.112" style="stroke: #000000; stroke-width: 0.8"/>
      </g>
     </g>
    </g>
    <g id="xtick_13">
     <g id="line2d_25">
      <path d="M 145.272697 266.112 
L 145.272697 -0 
" clip-path="url(#pc6294487bd)" style="fill: none; stroke: #b0b0b0; stroke-width: 0.8; stroke-linecap: square"/>
     </g>
     <g id="line2d_26">
      <g>
       <use xlink:href="#mb25ce46bea" x="145.272697" y="266.112" style="stroke: #000000; stroke-width: 0.8"/>
      </g>
     </g>
    </g>
    <g id="xtick_14">
     <g id="line2d_27">
      <path d="M 151.540159 266.112 
L 151.540159 -0 
" clip-path="url(#pc6294487bd)" style="fill: none; stroke: #b0b0b0; stroke-width: 0.8; stroke-linecap: square"/>
     </g>
     <g id="line2d_28">
      <g>
       <use xlink:href="#mb25ce46bea" x="151.540159" y="266.112" style="stroke: #000000; stroke-width: 0.8"/>
      </g>
     </g>
    </g>
    <g id="xtick_15">
     <g id="line2d_29">
      <path d="M 157.807621 266.112 
L 157.807621 -0 
" clip-path="url(#pc6294487bd)" style="fill: none; stroke: #b0b0b0; stroke-width: 0.8; stroke-linecap: square"/>
     </g>
     <g id="line2d_30">
      <g>
       <use xlink:href="#mb25ce46bea" x="157.807621" y="266.112" style="stroke: #000000; stroke-width: 0.8"/>
      </g>
     </g>
    </g>
    <g id="xtick_16">
     <g id="line2d_31">
      <path d="M 164.075084 266.112 
L 164.075084 -0 
" clip-path="url(#pc6294487bd)" style="fill: none; stroke: #b0b0b0; stroke-width: 0.8; stroke-linecap: square"/>
     </g>
     <g id="line2d_32">
      <g>
       <use xlink:href="#mb25ce46bea" x="164.075084" y="266.112" style="stroke: #000000; stroke-width: 0.8"/>
      </g>
     </g>
    </g>
    <g id="xtick_17">
     <g id="line2d_33">
      <path d="M 170.342546 266.112 
L 170.342546 -0 
" clip-path="url(#pc6294487bd)" style="fill: none; stroke: #b0b0b0; stroke-width: 0.8; stroke-linecap: square"/>
     </g>
     <g id="line2d_34">
      <g>
       <use xlink:href="#mb25ce46bea" x="170.342546" y="266.112" style="stroke: #000000; stroke-width: 0.8"/>
      </g>
     </g>
    </g>
    <g id="xtick_18">
     <g id="line2d_35">
      <path d="M 176.610008 266.112 
L 176.610008 -0 
" clip-path="url(#pc6294487bd)" style="fill: none; stroke: #b0b0b0; stroke-width: 0.8; stroke-linecap: square"/>
     </g>
     <g id="line2d_36">
      <g>
       <use xlink:href="#mb25ce46bea" x="176.610008" y="266.112" style="stroke: #000000; stroke-width: 0.8"/>
      </g>
     </g>
    </g>
    <g id="xtick_19">
     <g id="line2d_37">
      <path d="M 182.87747 266.112 
L 182.87747 -0 
" clip-path="url(#pc6294487bd)" style="fill: none; stroke: #b0b0b0; stroke-width: 0.8; stroke-linecap: square"/>
     </g>
     <g id="line2d_38">
      <g>
       <use xlink:href="#mb25ce46bea" x="182.87747" y="266.112" style="stroke: #000000; stroke-width: 0.8"/>
      </g>
     </g>
    </g>
    <g id="xtick_20">
     <g id="line2d_39">
      <path d="M 189.144933 266.112 
L 189.144933 -0 
" clip-path="url(#pc6294487bd)" style="fill: none; stroke: #b0b0b0; stroke-width: 0.8; stroke-linecap: square"/>
     </g>
     <g id="line2d_40">
      <g>
       <use xlink:href="#mb25ce46bea" x="189.144933" y="266.112" style="stroke: #000000; stroke-width: 0.8"/>
      </g>
     </g>
    </g>
    <g id="xtick_21">
     <g id="line2d_41">
      <path d="M 195.412395 266.112 
L 195.412395 -0 
" clip-path="url(#pc6294487bd)" style="fill: none; stroke: #b0b0b0; stroke-width: 0.8; stroke-linecap: square"/>
     </g>
     <g id="line2d_42">
      <g>
       <use xlink:href="#mb25ce46bea" x="195.412395" y="266.112" style="stroke: #000000; stroke-width: 0.8"/>
      </g>
     </g>
    </g>
    <g id="xtick_22">
     <g id="line2d_43">
      <path d="M 201.679857 266.112 
L 201.679857 -0 
" clip-path="url(#pc6294487bd)" style="fill: none; stroke: #b0b0b0; stroke-width: 0.8; stroke-linecap: square"/>
     </g>
     <g id="line2d_44">
      <g>
       <use xlink:href="#mb25ce46bea" x="201.679857" y="266.112" style="stroke: #000000; stroke-width: 0.8"/>
      </g>
     </g>
    </g>
    <g id="xtick_23">
     <g id="line2d_45">
      <path d="M 207.94732 266.112 
L 207.94732 -0 
" clip-path="url(#pc6294487bd)" style="fill: none; stroke: #b0b0b0; stroke-width: 0.8; stroke-linecap: square"/>
     </g>
     <g id="line2d_46">
      <g>
       <use xlink:href="#mb25ce46bea" x="207.94732" y="266.112" style="stroke: #000000; stroke-width: 0.8"/>
      </g>
     </g>
    </g>
    <g id="xtick_24">
     <g id="line2d_47">
      <path d="M 214.214782 266.112 
L 214.214782 -0 
" clip-path="url(#pc6294487bd)" style="fill: none; stroke: #b0b0b0; stroke-width: 0.8; stroke-linecap: square"/>
     </g>
     <g id="line2d_48">
      <g>
       <use xlink:href="#mb25ce46bea" x="214.214782" y="266.112" style="stroke: #000000; stroke-width: 0.8"/>
      </g>
     </g>
    </g>
    <g id="xtick_25">
     <g id="line2d_49">
      <path d="M 220.482244 266.112 
L 220.482244 -0 
" clip-path="url(#pc6294487bd)" style="fill: none; stroke: #b0b0b0; stroke-width: 0.8; stroke-linecap: square"/>
     </g>
     <g id="line2d_50">
      <g>
       <use xlink:href="#mb25ce46bea" x="220.482244" y="266.112" style="stroke: #000000; stroke-width: 0.8"/>
      </g>
     </g>
    </g>
    <g id="xtick_26">
     <g id="line2d_51">
      <path d="M 226.749706 266.112 
L 226.749706 -0 
" clip-path="url(#pc6294487bd)" style="fill: none; stroke: #b0b0b0; stroke-width: 0.8; stroke-linecap: square"/>
     </g>
     <g id="line2d_52">
      <g>
       <use xlink:href="#mb25ce46bea" x="226.749706" y="266.112" style="stroke: #000000; stroke-width: 0.8"/>
      </g>
     </g>
    </g>
    <g id="xtick_27">
     <g id="line2d_53">
      <path d="M 233.017169 266.112 
L 233.017169 -0 
" clip-path="url(#pc6294487bd)" style="fill: none; stroke: #b0b0b0; stroke-width: 0.8; stroke-linecap: square"/>
     </g>
     <g id="line2d_54">
      <g>
       <use xlink:href="#mb25ce46bea" x="233.017169" y="266.112" style="stroke: #000000; stroke-width: 0.8"/>
      </g>
     </g>
    </g>
    <g id="xtick_28">
     <g id="line2d_55">
      <path d="M 239.284631 266.112 
L 239.284631 -0 
" clip-path="url(#pc6294487bd)" style="fill: none; stroke: #b0b0b0; stroke-width: 0.8; stroke-linecap: square"/>
     </g>
     <g id="line2d_56">
      <g>
       <use xlink:href="#mb25ce46bea" x="239.284631" y="266.112" style="stroke: #000000; stroke-width: 0.8"/>
      </g>
     </g>
    </g>
    <g id="xtick_29">
     <g id="line2d_57">
      <path d="M 245.552093 266.112 
L 245.552093 -0 
" clip-path="url(#pc6294487bd)" style="fill: none; stroke: #b0b0b0; stroke-width: 0.8; stroke-linecap: square"/>
     </g>
     <g id="line2d_58">
      <g>
       <use xlink:href="#mb25ce46bea" x="245.552093" y="266.112" style="stroke: #000000; stroke-width: 0.8"/>
      </g>
     </g>
    </g>
    <g id="xtick_30">
     <g id="line2d_59">
      <path d="M 251.819555 266.112 
L 251.819555 -0 
" clip-path="url(#pc6294487bd)" style="fill: none; stroke: #b0b0b0; stroke-width: 0.8; stroke-linecap: square"/>
     </g>
     <g id="line2d_60">
      <g>
       <use xlink:href="#mb25ce46bea" x="251.819555" y="266.112" style="stroke: #000000; stroke-width: 0.8"/>
      </g>
     </g>
    </g>
    <g id="xtick_31">
     <g id="line2d_61">
      <path d="M 258.087018 266.112 
L 258.087018 -0 
" clip-path="url(#pc6294487bd)" style="fill: none; stroke: #b0b0b0; stroke-width: 0.8; stroke-linecap: square"/>
     </g>
     <g id="line2d_62">
      <g>
       <use xlink:href="#mb25ce46bea" x="258.087018" y="266.112" style="stroke: #000000; stroke-width: 0.8"/>
      </g>
     </g>
    </g>
    <g id="xtick_32">
     <g id="line2d_63">
      <path d="M 264.35448 266.112 
L 264.35448 -0 
" clip-path="url(#pc6294487bd)" style="fill: none; stroke: #b0b0b0; stroke-width: 0.8; stroke-linecap: square"/>
     </g>
     <g id="line2d_64">
      <g>
       <use xlink:href="#mb25ce46bea" x="264.35448" y="266.112" style="stroke: #000000; stroke-width: 0.8"/>
      </g>
     </g>
    </g>
    <g id="xtick_33">
     <g id="line2d_65">
      <path d="M 270.621942 266.112 
L 270.621942 -0 
" clip-path="url(#pc6294487bd)" style="fill: none; stroke: #b0b0b0; stroke-width: 0.8; stroke-linecap: square"/>
     </g>
     <g id="line2d_66">
      <g>
       <use xlink:href="#mb25ce46bea" x="270.621942" y="266.112" style="stroke: #000000; stroke-width: 0.8"/>
      </g>
     </g>
    </g>
    <g id="xtick_34">
     <g id="line2d_67">
      <path d="M 276.889405 266.112 
L 276.889405 -0 
" clip-path="url(#pc6294487bd)" style="fill: none; stroke: #b0b0b0; stroke-width: 0.8; stroke-linecap: square"/>
     </g>
     <g id="line2d_68">
      <g>
       <use xlink:href="#mb25ce46bea" x="276.889405" y="266.112" style="stroke: #000000; stroke-width: 0.8"/>
      </g>
     </g>
    </g>
    <g id="xtick_35">
     <g id="line2d_69">
      <path d="M 283.156867 266.112 
L 283.156867 -0 
" clip-path="url(#pc6294487bd)" style="fill: none; stroke: #b0b0b0; stroke-width: 0.8; stroke-linecap: square"/>
     </g>
     <g id="line2d_70">
      <g>
       <use xlink:href="#mb25ce46bea" x="283.156867" y="266.112" style="stroke: #000000; stroke-width: 0.8"/>
      </g>
     </g>
    </g>
    <g id="xtick_36">
     <g id="line2d_71">
      <path d="M 289.424329 266.112 
L 289.424329 -0 
" clip-path="url(#pc6294487bd)" style="fill: none; stroke: #b0b0b0; stroke-width: 0.8; stroke-linecap: square"/>
     </g>
     <g id="line2d_72">
      <g>
       <use xlink:href="#mb25ce46bea" x="289.424329" y="266.112" style="stroke: #000000; stroke-width: 0.8"/>
      </g>
     </g>
    </g>
    <g id="xtick_37">
     <g id="line2d_73">
      <path d="M 295.691791 266.112 
L 295.691791 -0 
" clip-path="url(#pc6294487bd)" style="fill: none; stroke: #b0b0b0; stroke-width: 0.8; stroke-linecap: square"/>
     </g>
     <g id="line2d_74">
      <g>
       <use xlink:href="#mb25ce46bea" x="295.691791" y="266.112" style="stroke: #000000; stroke-width: 0.8"/>
      </g>
     </g>
    </g>
    <g id="xtick_38">
     <g id="line2d_75">
      <path d="M 301.959254 266.112 
L 301.959254 -0 
" clip-path="url(#pc6294487bd)" style="fill: none; stroke: #b0b0b0; stroke-width: 0.8; stroke-linecap: square"/>
     </g>
     <g id="line2d_76">
      <g>
       <use xlink:href="#mb25ce46bea" x="301.959254" y="266.112" style="stroke: #000000; stroke-width: 0.8"/>
      </g>
     </g>
    </g>
    <g id="xtick_39">
     <g id="line2d_77">
      <path d="M 308.226716 266.112 
L 308.226716 -0 
" clip-path="url(#pc6294487bd)" style="fill: none; stroke: #b0b0b0; stroke-width: 0.8; stroke-linecap: square"/>
     </g>
     <g id="line2d_78">
      <g>
       <use xlink:href="#mb25ce46bea" x="308.226716" y="266.112" style="stroke: #000000; stroke-width: 0.8"/>
      </g>
     </g>
    </g>
    <g id="xtick_40">
     <g id="line2d_79">
      <path d="M 314.494178 266.112 
L 314.494178 -0 
" clip-path="url(#pc6294487bd)" style="fill: none; stroke: #b0b0b0; stroke-width: 0.8; stroke-linecap: square"/>
     </g>
     <g id="line2d_80">
      <g>
       <use xlink:href="#mb25ce46bea" x="314.494178" y="266.112" style="stroke: #000000; stroke-width: 0.8"/>
      </g>
     </g>
    </g>
    <g id="xtick_41">
     <g id="line2d_81">
      <path d="M 320.76164 266.112 
L 320.76164 -0 
" clip-path="url(#pc6294487bd)" style="fill: none; stroke: #b0b0b0; stroke-width: 0.8; stroke-linecap: square"/>
     </g>
     <g id="line2d_82">
      <g>
       <use xlink:href="#mb25ce46bea" x="320.76164" y="266.112" style="stroke: #000000; stroke-width: 0.8"/>
      </g>
     </g>
    </g>
    <g id="xtick_42">
     <g id="line2d_83">
      <path d="M 327.029103 266.112 
L 327.029103 -0 
" clip-path="url(#pc6294487bd)" style="fill: none; stroke: #b0b0b0; stroke-width: 0.8; stroke-linecap: square"/>
     </g>
     <g id="line2d_84">
      <g>
       <use xlink:href="#mb25ce46bea" x="327.029103" y="266.112" style="stroke: #000000; stroke-width: 0.8"/>
      </g>
     </g>
    </g>
    <g id="xtick_43">
     <g id="line2d_85">
      <path d="M 333.296565 266.112 
L 333.296565 -0 
" clip-path="url(#pc6294487bd)" style="fill: none; stroke: #b0b0b0; stroke-width: 0.8; stroke-linecap: square"/>
     </g>
     <g id="line2d_86">
      <g>
       <use xlink:href="#mb25ce46bea" x="333.296565" y="266.112" style="stroke: #000000; stroke-width: 0.8"/>
      </g>
     </g>
    </g>
    <g id="xtick_44">
     <g id="line2d_87">
      <path d="M 339.564027 266.112 
L 339.564027 -0 
" clip-path="url(#pc6294487bd)" style="fill: none; stroke: #b0b0b0; stroke-width: 0.8; stroke-linecap: square"/>
     </g>
     <g id="line2d_88">
      <g>
       <use xlink:href="#mb25ce46bea" x="339.564027" y="266.112" style="stroke: #000000; stroke-width: 0.8"/>
      </g>
     </g>
    </g>
    <g id="xtick_45">
     <g id="line2d_89">
      <path d="M 345.831489 266.112 
L 345.831489 -0 
" clip-path="url(#pc6294487bd)" style="fill: none; stroke: #b0b0b0; stroke-width: 0.8; stroke-linecap: square"/>
     </g>
     <g id="line2d_90">
      <g>
       <use xlink:href="#mb25ce46bea" x="345.831489" y="266.112" style="stroke: #000000; stroke-width: 0.8"/>
      </g>
     </g>
    </g>
    <g id="xtick_46">
     <g id="line2d_91">
      <path d="M 352.098952 266.112 
L 352.098952 -0 
" clip-path="url(#pc6294487bd)" style="fill: none; stroke: #b0b0b0; stroke-width: 0.8; stroke-linecap: square"/>
     </g>
     <g id="line2d_92">
      <g>
       <use xlink:href="#mb25ce46bea" x="352.098952" y="266.112" style="stroke: #000000; stroke-width: 0.8"/>
      </g>
     </g>
    </g>
    <g id="xtick_47">
     <g id="line2d_93">
      <path d="M 358.366414 266.112 
L 358.366414 -0 
" clip-path="url(#pc6294487bd)" style="fill: none; stroke: #b0b0b0; stroke-width: 0.8; stroke-linecap: square"/>
     </g>
     <g id="line2d_94">
      <g>
       <use xlink:href="#mb25ce46bea" x="358.366414" y="266.112" style="stroke: #000000; stroke-width: 0.8"/>
      </g>
     </g>
    </g>
    <g id="xtick_48">
     <g id="line2d_95">
      <path d="M 364.633876 266.112 
L 364.633876 -0 
" clip-path="url(#pc6294487bd)" style="fill: none; stroke: #b0b0b0; stroke-width: 0.8; stroke-linecap: square"/>
     </g>
     <g id="line2d_96">
      <g>
       <use xlink:href="#mb25ce46bea" x="364.633876" y="266.112" style="stroke: #000000; stroke-width: 0.8"/>
      </g>
     </g>
    </g>
    <g id="xtick_49">
     <g id="line2d_97">
      <path d="M 370.901339 266.112 
L 370.901339 -0 
" clip-path="url(#pc6294487bd)" style="fill: none; stroke: #b0b0b0; stroke-width: 0.8; stroke-linecap: square"/>
     </g>
     <g id="line2d_98">
      <g>
       <use xlink:href="#mb25ce46bea" x="370.901339" y="266.112" style="stroke: #000000; stroke-width: 0.8"/>
      </g>
     </g>
    </g>
    <g id="xtick_50">
     <g id="line2d_99">
      <path d="M 377.168801 266.112 
L 377.168801 -0 
" clip-path="url(#pc6294487bd)" style="fill: none; stroke: #b0b0b0; stroke-width: 0.8; stroke-linecap: square"/>
     </g>
     <g id="line2d_100">
      <g>
       <use xlink:href="#mb25ce46bea" x="377.168801" y="266.112" style="stroke: #000000; stroke-width: 0.8"/>
      </g>
     </g>
    </g>
    <g id="xtick_51">
     <g id="line2d_101">
      <path d="M 383.436263 266.112 
L 383.436263 -0 
" clip-path="url(#pc6294487bd)" style="fill: none; stroke: #b0b0b0; stroke-width: 0.8; stroke-linecap: square"/>
     </g>
     <g id="line2d_102">
      <g>
       <use xlink:href="#mb25ce46bea" x="383.436263" y="266.112" style="stroke: #000000; stroke-width: 0.8"/>
      </g>
     </g>
    </g>
    <g id="xtick_52">
     <g id="line2d_103">
      <path d="M 389.703725 266.112 
L 389.703725 -0 
" clip-path="url(#pc6294487bd)" style="fill: none; stroke: #b0b0b0; stroke-width: 0.8; stroke-linecap: square"/>
     </g>
     <g id="line2d_104">
      <g>
       <use xlink:href="#mb25ce46bea" x="389.703725" y="266.112" style="stroke: #000000; stroke-width: 0.8"/>
      </g>
     </g>
    </g>
    <g id="text_1">
     <!-- Individual Eddies [-] -->
     <g transform="translate(180.070156 284.710437)scale(0.1 -0.1)">
      <defs>
       <path id="DejaVuSans-49" d="M 628 4666 
L 1259 4666 
L 1259 0 
L 628 0 
L 628 4666 
z
" transform="scale(0.015625)"/>
       <path id="DejaVuSans-6e" d="M 3513 2113 
L 3513 0 
L 2938 0 
L 2938 2094 
Q 2938 2591 2744 2837 
Q 2550 3084 2163 3084 
Q 1697 3084 1428 2787 
Q 1159 2491 1159 1978 
L 1159 0 
L 581 0 
L 581 3500 
L 1159 3500 
L 1159 2956 
Q 1366 3272 1645 3428 
Q 1925 3584 2291 3584 
Q 2894 3584 3203 3211 
Q 3513 2838 3513 2113 
z
" transform="scale(0.015625)"/>
       <path id="DejaVuSans-64" d="M 2906 2969 
L 2906 4863 
L 3481 4863 
L 3481 0 
L 2906 0 
L 2906 525 
Q 2725 213 2448 61 
Q 2172 -91 1784 -91 
Q 1150 -91 751 415 
Q 353 922 353 1747 
Q 353 2572 751 3078 
Q 1150 3584 1784 3584 
Q 2172 3584 2448 3432 
Q 2725 3281 2906 2969 
z
M 947 1747 
Q 947 1113 1208 752 
Q 1469 391 1925 391 
Q 2381 391 2643 752 
Q 2906 1113 2906 1747 
Q 2906 2381 2643 2742 
Q 2381 3103 1925 3103 
Q 1469 3103 1208 2742 
Q 947 2381 947 1747 
z
" transform="scale(0.015625)"/>
       <path id="DejaVuSans-69" d="M 603 3500 
L 1178 3500 
L 1178 0 
L 603 0 
L 603 3500 
z
M 603 4863 
L 1178 4863 
L 1178 4134 
L 603 4134 
L 603 4863 
z
" transform="scale(0.015625)"/>
       <path id="DejaVuSans-76" d="M 191 3500 
L 800 3500 
L 1894 563 
L 2988 3500 
L 3597 3500 
L 2284 0 
L 1503 0 
L 191 3500 
z
" transform="scale(0.015625)"/>
       <path id="DejaVuSans-75" d="M 544 1381 
L 544 3500 
L 1119 3500 
L 1119 1403 
Q 1119 906 1312 657 
Q 1506 409 1894 409 
Q 2359 409 2629 706 
Q 2900 1003 2900 1516 
L 2900 3500 
L 3475 3500 
L 3475 0 
L 2900 0 
L 2900 538 
Q 2691 219 2414 64 
Q 2138 -91 1772 -91 
Q 1169 -91 856 284 
Q 544 659 544 1381 
z
M 1991 3584 
L 1991 3584 
z
" transform="scale(0.015625)"/>
       <path id="DejaVuSans-61" d="M 2194 1759 
Q 1497 1759 1228 1600 
Q 959 1441 959 1056 
Q 959 750 1161 570 
Q 1363 391 1709 391 
Q 2188 391 2477 730 
Q 2766 1069 2766 1631 
L 2766 1759 
L 2194 1759 
z
M 3341 1997 
L 3341 0 
L 2766 0 
L 2766 531 
Q 2569 213 2275 61 
Q 1981 -91 1556 -91 
Q 1019 -91 701 211 
Q 384 513 384 1019 
Q 384 1609 779 1909 
Q 1175 2209 1959 2209 
L 2766 2209 
L 2766 2266 
Q 2766 2663 2505 2880 
Q 2244 3097 1772 3097 
Q 1472 3097 1187 3025 
Q 903 2953 641 2809 
L 641 3341 
Q 956 3463 1253 3523 
Q 1550 3584 1831 3584 
Q 2591 3584 2966 3190 
Q 3341 2797 3341 1997 
z
" transform="scale(0.015625)"/>
       <path id="DejaVuSans-6c" d="M 603 4863 
L 1178 4863 
L 1178 0 
L 603 0 
L 603 4863 
z
" transform="scale(0.015625)"/>
       <path id="DejaVuSans-20" transform="scale(0.015625)"/>
       <path id="DejaVuSans-45" d="M 628 4666 
L 3578 4666 
L 3578 4134 
L 1259 4134 
L 1259 2753 
L 3481 2753 
L 3481 2222 
L 1259 2222 
L 1259 531 
L 3634 531 
L 3634 0 
L 628 0 
L 628 4666 
z
" transform="scale(0.015625)"/>
       <path id="DejaVuSans-65" d="M 3597 1894 
L 3597 1613 
L 953 1613 
Q 991 1019 1311 708 
Q 1631 397 2203 397 
Q 2534 397 2845 478 
Q 3156 559 3463 722 
L 3463 178 
Q 3153 47 2828 -22 
Q 2503 -91 2169 -91 
Q 1331 -91 842 396 
Q 353 884 353 1716 
Q 353 2575 817 3079 
Q 1281 3584 2069 3584 
Q 2775 3584 3186 3129 
Q 3597 2675 3597 1894 
z
M 3022 2063 
Q 3016 2534 2758 2815 
Q 2500 3097 2075 3097 
Q 1594 3097 1305 2825 
Q 1016 2553 972 2059 
L 3022 2063 
z
" transform="scale(0.015625)"/>
       <path id="DejaVuSans-73" d="M 2834 3397 
L 2834 2853 
Q 2591 2978 2328 3040 
Q 2066 3103 1784 3103 
Q 1356 3103 1142 2972 
Q 928 2841 928 2578 
Q 928 2378 1081 2264 
Q 1234 2150 1697 2047 
L 1894 2003 
Q 2506 1872 2764 1633 
Q 3022 1394 3022 966 
Q 3022 478 2636 193 
Q 2250 -91 1575 -91 
Q 1294 -91 989 -36 
Q 684 19 347 128 
L 347 722 
Q 666 556 975 473 
Q 1284 391 1588 391 
Q 1994 391 2212 530 
Q 2431 669 2431 922 
Q 2431 1156 2273 1281 
Q 2116 1406 1581 1522 
L 1381 1569 
Q 847 1681 609 1914 
Q 372 2147 372 2553 
Q 372 3047 722 3315 
Q 1072 3584 1716 3584 
Q 2034 3584 2315 3537 
Q 2597 3491 2834 3397 
z
" transform="scale(0.015625)"/>
       <path id="DejaVuSans-5b" d="M 550 4863 
L 1875 4863 
L 1875 4416 
L 1125 4416 
L 1125 -397 
L 1875 -397 
L 1875 -844 
L 550 -844 
L 550 4863 
z
" transform="scale(0.015625)"/>
       <path id="DejaVuSans-2d" d="M 313 2009 
L 1997 2009 
L 1997 1497 
L 313 1497 
L 313 2009 
z
" transform="scale(0.015625)"/>
       <path id="DejaVuSans-5d" d="M 1947 4863 
L 1947 -844 
L 622 -844 
L 622 -397 
L 1369 -397 
L 1369 4416 
L 622 4416 
L 622 4863 
L 1947 4863 
z
" transform="scale(0.015625)"/>
      </defs>
      <use xlink:href="#DejaVuSans-49"/>
      <use xlink:href="#DejaVuSans-6e" x="29.492188"/>
      <use xlink:href="#DejaVuSans-64" x="92.871094"/>
      <use xlink:href="#DejaVuSans-69" x="156.347656"/>
      <use xlink:href="#DejaVuSans-76" x="184.130859"/>
      <use xlink:href="#DejaVuSans-69" x="243.310547"/>
      <use xlink:href="#DejaVuSans-64" x="271.09375"/>
      <use xlink:href="#DejaVuSans-75" x="334.570312"/>
      <use xlink:href="#DejaVuSans-61" x="397.949219"/>
      <use xlink:href="#DejaVuSans-6c" x="459.228516"/>
      <use xlink:href="#DejaVuSans-20" x="487.011719"/>
      <use xlink:href="#DejaVuSans-45" x="518.798828"/>
      <use xlink:href="#DejaVuSans-64" x="581.982422"/>
      <use xlink:href="#DejaVuSans-64" x="645.458984"/>
      <use xlink:href="#DejaVuSans-69" x="708.935547"/>
      <use xlink:href="#DejaVuSans-65" x="736.71875"/>
      <use xlink:href="#DejaVuSans-73" x="798.242188"/>
      <use xlink:href="#DejaVuSans-20" x="850.341797"/>
      <use xlink:href="#DejaVuSans-5b" x="882.128906"/>
      <use xlink:href="#DejaVuSans-2d" x="921.142578"/>
      <use xlink:href="#DejaVuSans-5d" x="957.226562"/>
     </g>
    </g>
   </g>
   <g id="matplotlib.axis_2">
    <g id="ytick_1">
     <g id="line2d_105">
      <path d="M 51.323438 239.616 
L 408.443438 239.616 
" clip-path="url(#pc6294487bd)" style="fill: none; stroke: #b0b0b0; stroke-width: 0.8; stroke-linecap: square"/>
     </g>
     <g id="line2d_106">
      <defs>
       <path id="m5fea86f0c0" d="M 0 0 
L -3.5 0 
" style="stroke: #000000; stroke-width: 0.8"/>
      </defs>
      <g>
       <use xlink:href="#m5fea86f0c0" x="51.323438" y="239.616" style="stroke: #000000; stroke-width: 0.8"/>
      </g>
     </g>
     <g id="text_2">
      <!-- −1.00 -->
      <g transform="translate(13.678125 243.415219)scale(0.1 -0.1)">
       <defs>
        <path id="DejaVuSans-2212" d="M 678 2272 
L 4684 2272 
L 4684 1741 
L 678 1741 
L 678 2272 
z
" transform="scale(0.015625)"/>
        <path id="DejaVuSans-31" d="M 794 531 
L 1825 531 
L 1825 4091 
L 703 3866 
L 703 4441 
L 1819 4666 
L 2450 4666 
L 2450 531 
L 3481 531 
L 3481 0 
L 794 0 
L 794 531 
z
" transform="scale(0.015625)"/>
        <path id="DejaVuSans-2e" d="M 684 794 
L 1344 794 
L 1344 0 
L 684 0 
L 684 794 
z
" transform="scale(0.015625)"/>
        <path id="DejaVuSans-30" d="M 2034 4250 
Q 1547 4250 1301 3770 
Q 1056 3291 1056 2328 
Q 1056 1369 1301 889 
Q 1547 409 2034 409 
Q 2525 409 2770 889 
Q 3016 1369 3016 2328 
Q 3016 3291 2770 3770 
Q 2525 4250 2034 4250 
z
M 2034 4750 
Q 2819 4750 3233 4129 
Q 3647 3509 3647 2328 
Q 3647 1150 3233 529 
Q 2819 -91 2034 -91 
Q 1250 -91 836 529 
Q 422 1150 422 2328 
Q 422 3509 836 4129 
Q 1250 4750 2034 4750 
z
" transform="scale(0.015625)"/>
       </defs>
       <use xlink:href="#DejaVuSans-2212"/>
       <use xlink:href="#DejaVuSans-31" x="83.789062"/>
       <use xlink:href="#DejaVuSans-2e" x="147.412109"/>
       <use xlink:href="#DejaVuSans-30" x="179.199219"/>
       <use xlink:href="#DejaVuSans-30" x="242.822266"/>
      </g>
     </g>
    </g>
    <g id="ytick_2">
     <g id="line2d_107">
      <path d="M 51.323438 203.616 
L 408.443438 203.616 
" clip-path="url(#pc6294487bd)" style="fill: none; stroke: #b0b0b0; stroke-width: 0.8; stroke-linecap: square"/>
     </g>
     <g id="line2d_108">
      <g>
       <use xlink:href="#m5fea86f0c0" x="51.323438" y="203.616" style="stroke: #000000; stroke-width: 0.8"/>
      </g>
     </g>
     <g id="text_3">
      <!-- −0.75 -->
      <g transform="translate(13.678125 207.415219)scale(0.1 -0.1)">
       <defs>
        <path id="DejaVuSans-37" d="M 525 4666 
L 3525 4666 
L 3525 4397 
L 1831 0 
L 1172 0 
L 2766 4134 
L 525 4134 
L 525 4666 
z
" transform="scale(0.015625)"/>
        <path id="DejaVuSans-35" d="M 691 4666 
L 3169 4666 
L 3169 4134 
L 1269 4134 
L 1269 2991 
Q 1406 3038 1543 3061 
Q 1681 3084 1819 3084 
Q 2600 3084 3056 2656 
Q 3513 2228 3513 1497 
Q 3513 744 3044 326 
Q 2575 -91 1722 -91 
Q 1428 -91 1123 -41 
Q 819 9 494 109 
L 494 744 
Q 775 591 1075 516 
Q 1375 441 1709 441 
Q 2250 441 2565 725 
Q 2881 1009 2881 1497 
Q 2881 1984 2565 2268 
Q 2250 2553 1709 2553 
Q 1456 2553 1204 2497 
Q 953 2441 691 2322 
L 691 4666 
z
" transform="scale(0.015625)"/>
       </defs>
       <use xlink:href="#DejaVuSans-2212"/>
       <use xlink:href="#DejaVuSans-30" x="83.789062"/>
       <use xlink:href="#DejaVuSans-2e" x="147.412109"/>
       <use xlink:href="#DejaVuSans-37" x="179.199219"/>
       <use xlink:href="#DejaVuSans-35" x="242.822266"/>
      </g>
     </g>
    </g>
    <g id="ytick_3">
     <g id="line2d_109">
      <path d="M 51.323438 167.616 
L 408.443438 167.616 
" clip-path="url(#pc6294487bd)" style="fill: none; stroke: #b0b0b0; stroke-width: 0.8; stroke-linecap: square"/>
     </g>
     <g id="line2d_110">
      <g>
       <use xlink:href="#m5fea86f0c0" x="51.323438" y="167.616" style="stroke: #000000; stroke-width: 0.8"/>
      </g>
     </g>
     <g id="text_4">
      <!-- −0.50 -->
      <g transform="translate(13.678125 171.415219)scale(0.1 -0.1)">
       <use xlink:href="#DejaVuSans-2212"/>
       <use xlink:href="#DejaVuSans-30" x="83.789062"/>
       <use xlink:href="#DejaVuSans-2e" x="147.412109"/>
       <use xlink:href="#DejaVuSans-35" x="179.199219"/>
       <use xlink:href="#DejaVuSans-30" x="242.822266"/>
      </g>
     </g>
    </g>
    <g id="ytick_4">
     <g id="line2d_111">
      <path d="M 51.323438 131.616 
L 408.443438 131.616 
" clip-path="url(#pc6294487bd)" style="fill: none; stroke: #b0b0b0; stroke-width: 0.8; stroke-linecap: square"/>
     </g>
     <g id="line2d_112">
      <g>
       <use xlink:href="#m5fea86f0c0" x="51.323438" y="131.616" style="stroke: #000000; stroke-width: 0.8"/>
      </g>
     </g>
     <g id="text_5">
      <!-- −0.25 -->
      <g transform="translate(13.678125 135.415219)scale(0.1 -0.1)">
       <defs>
        <path id="DejaVuSans-32" d="M 1228 531 
L 3431 531 
L 3431 0 
L 469 0 
L 469 531 
Q 828 903 1448 1529 
Q 2069 2156 2228 2338 
Q 2531 2678 2651 2914 
Q 2772 3150 2772 3378 
Q 2772 3750 2511 3984 
Q 2250 4219 1831 4219 
Q 1534 4219 1204 4116 
Q 875 4013 500 3803 
L 500 4441 
Q 881 4594 1212 4672 
Q 1544 4750 1819 4750 
Q 2544 4750 2975 4387 
Q 3406 4025 3406 3419 
Q 3406 3131 3298 2873 
Q 3191 2616 2906 2266 
Q 2828 2175 2409 1742 
Q 1991 1309 1228 531 
z
" transform="scale(0.015625)"/>
       </defs>
       <use xlink:href="#DejaVuSans-2212"/>
       <use xlink:href="#DejaVuSans-30" x="83.789062"/>
       <use xlink:href="#DejaVuSans-2e" x="147.412109"/>
       <use xlink:href="#DejaVuSans-32" x="179.199219"/>
       <use xlink:href="#DejaVuSans-35" x="242.822266"/>
      </g>
     </g>
    </g>
    <g id="ytick_5">
     <g id="line2d_113">
      <path d="M 51.323438 95.616 
L 408.443438 95.616 
" clip-path="url(#pc6294487bd)" style="fill: none; stroke: #b0b0b0; stroke-width: 0.8; stroke-linecap: square"/>
     </g>
     <g id="line2d_114">
      <g>
       <use xlink:href="#m5fea86f0c0" x="51.323438" y="95.616" style="stroke: #000000; stroke-width: 0.8"/>
      </g>
     </g>
     <g id="text_6">
      <!-- 0.00 -->
      <g transform="translate(22.057813 99.415219)scale(0.1 -0.1)">
       <use xlink:href="#DejaVuSans-30"/>
       <use xlink:href="#DejaVuSans-2e" x="63.623047"/>
       <use xlink:href="#DejaVuSans-30" x="95.410156"/>
       <use xlink:href="#DejaVuSans-30" x="159.033203"/>
      </g>
     </g>
    </g>
    <g id="ytick_6">
     <g id="line2d_115">
      <path d="M 51.323438 59.616 
L 408.443438 59.616 
" clip-path="url(#pc6294487bd)" style="fill: none; stroke: #b0b0b0; stroke-width: 0.8; stroke-linecap: square"/>
     </g>
     <g id="line2d_116">
      <g>
       <use xlink:href="#m5fea86f0c0" x="51.323438" y="59.616" style="stroke: #000000; stroke-width: 0.8"/>
      </g>
     </g>
     <g id="text_7">
      <!-- 0.25 -->
      <g transform="translate(22.057813 63.415219)scale(0.1 -0.1)">
       <use xlink:href="#DejaVuSans-30"/>
       <use xlink:href="#DejaVuSans-2e" x="63.623047"/>
       <use xlink:href="#DejaVuSans-32" x="95.410156"/>
       <use xlink:href="#DejaVuSans-35" x="159.033203"/>
      </g>
     </g>
    </g>
    <g id="ytick_7">
     <g id="line2d_117">
      <path d="M 51.323438 23.616 
L 408.443438 23.616 
" clip-path="url(#pc6294487bd)" style="fill: none; stroke: #b0b0b0; stroke-width: 0.8; stroke-linecap: square"/>
     </g>
     <g id="line2d_118">
      <g>
       <use xlink:href="#m5fea86f0c0" x="51.323438" y="23.616" style="stroke: #000000; stroke-width: 0.8"/>
      </g>
     </g>
     <g id="text_8">
      <!-- 0.50 -->
      <g transform="translate(22.057813 27.415219)scale(0.1 -0.1)">
       <use xlink:href="#DejaVuSans-30"/>
       <use xlink:href="#DejaVuSans-2e" x="63.623047"/>
       <use xlink:href="#DejaVuSans-35" x="95.410156"/>
       <use xlink:href="#DejaVuSans-30" x="159.033203"/>
      </g>
     </g>
    </g>
    <g id="text_9">
     <!-- Eddy Amplitude [m] -->
     <g transform="translate(7.598438 183.095844)rotate(-90)scale(0.1 -0.1)">
      <defs>
       <path id="DejaVuSans-79" d="M 2059 -325 
Q 1816 -950 1584 -1140 
Q 1353 -1331 966 -1331 
L 506 -1331 
L 506 -850 
L 844 -850 
Q 1081 -850 1212 -737 
Q 1344 -625 1503 -206 
L 1606 56 
L 191 3500 
L 800 3500 
L 1894 763 
L 2988 3500 
L 3597 3500 
L 2059 -325 
z
" transform="scale(0.015625)"/>
       <path id="DejaVuSans-41" d="M 2188 4044 
L 1331 1722 
L 3047 1722 
L 2188 4044 
z
M 1831 4666 
L 2547 4666 
L 4325 0 
L 3669 0 
L 3244 1197 
L 1141 1197 
L 716 0 
L 50 0 
L 1831 4666 
z
" transform="scale(0.015625)"/>
       <path id="DejaVuSans-6d" d="M 3328 2828 
Q 3544 3216 3844 3400 
Q 4144 3584 4550 3584 
Q 5097 3584 5394 3201 
Q 5691 2819 5691 2113 
L 5691 0 
L 5113 0 
L 5113 2094 
Q 5113 2597 4934 2840 
Q 4756 3084 4391 3084 
Q 3944 3084 3684 2787 
Q 3425 2491 3425 1978 
L 3425 0 
L 2847 0 
L 2847 2094 
Q 2847 2600 2669 2842 
Q 2491 3084 2119 3084 
Q 1678 3084 1418 2786 
Q 1159 2488 1159 1978 
L 1159 0 
L 581 0 
L 581 3500 
L 1159 3500 
L 1159 2956 
Q 1356 3278 1631 3431 
Q 1906 3584 2284 3584 
Q 2666 3584 2933 3390 
Q 3200 3197 3328 2828 
z
" transform="scale(0.015625)"/>
       <path id="DejaVuSans-70" d="M 1159 525 
L 1159 -1331 
L 581 -1331 
L 581 3500 
L 1159 3500 
L 1159 2969 
Q 1341 3281 1617 3432 
Q 1894 3584 2278 3584 
Q 2916 3584 3314 3078 
Q 3713 2572 3713 1747 
Q 3713 922 3314 415 
Q 2916 -91 2278 -91 
Q 1894 -91 1617 61 
Q 1341 213 1159 525 
z
M 3116 1747 
Q 3116 2381 2855 2742 
Q 2594 3103 2138 3103 
Q 1681 3103 1420 2742 
Q 1159 2381 1159 1747 
Q 1159 1113 1420 752 
Q 1681 391 2138 391 
Q 2594 391 2855 752 
Q 3116 1113 3116 1747 
z
" transform="scale(0.015625)"/>
       <path id="DejaVuSans-74" d="M 1172 4494 
L 1172 3500 
L 2356 3500 
L 2356 3053 
L 1172 3053 
L 1172 1153 
Q 1172 725 1289 603 
Q 1406 481 1766 481 
L 2356 481 
L 2356 0 
L 1766 0 
Q 1100 0 847 248 
Q 594 497 594 1153 
L 594 3053 
L 172 3053 
L 172 3500 
L 594 3500 
L 594 4494 
L 1172 4494 
z
" transform="scale(0.015625)"/>
      </defs>
      <use xlink:href="#DejaVuSans-45"/>
      <use xlink:href="#DejaVuSans-64" x="63.183594"/>
      <use xlink:href="#DejaVuSans-64" x="126.660156"/>
      <use xlink:href="#DejaVuSans-79" x="190.136719"/>
      <use xlink:href="#DejaVuSans-20" x="249.316406"/>
      <use xlink:href="#DejaVuSans-41" x="281.103516"/>
      <use xlink:href="#DejaVuSans-6d" x="349.511719"/>
      <use xlink:href="#DejaVuSans-70" x="446.923828"/>
      <use xlink:href="#DejaVuSans-6c" x="510.400391"/>
      <use xlink:href="#DejaVuSans-69" x="538.183594"/>
      <use xlink:href="#DejaVuSans-74" x="565.966797"/>
      <use xlink:href="#DejaVuSans-75" x="605.175781"/>
      <use xlink:href="#DejaVuSans-64" x="668.554688"/>
      <use xlink:href="#DejaVuSans-65" x="732.03125"/>
      <use xlink:href="#DejaVuSans-20" x="793.554688"/>
      <use xlink:href="#DejaVuSans-5b" x="825.341797"/>
      <use xlink:href="#DejaVuSans-6d" x="864.355469"/>
      <use xlink:href="#DejaVuSans-5d" x="961.767578"/>
     </g>
    </g>
   </g>
   <g id="patch_3">
    <path d="M 67.556165 95.616 
L 72.570135 95.616 
L 72.570135 254.016 
L 67.556165 254.016 
z
" clip-path="url(#pc6294487bd)" style="fill: #ff0000"/>
   </g>
   <g id="patch_4">
    <path d="M 73.823627 95.616 
L 78.837597 95.616 
L 78.837597 164.736 
L 73.823627 164.736 
z
" clip-path="url(#pc6294487bd)" style="fill: #ff0000"/>
   </g>
   <g id="patch_5">
    <path d="M 80.091089 95.616 
L 85.105059 95.616 
L 85.105059 160.416 
L 80.091089 160.416 
z
" clip-path="url(#pc6294487bd)" style="fill: #ff0000"/>
   </g>
   <g id="patch_6">
    <path d="M 86.358552 95.616 
L 91.372521 95.616 
L 91.372521 158.976 
L 86.358552 158.976 
z
" clip-path="url(#pc6294487bd)" style="fill: #ff0000"/>
   </g>
   <g id="patch_7">
    <path d="M 92.626014 95.616 
L 97.639984 95.616 
L 97.639984 157.536 
L 92.626014 157.536 
z
" clip-path="url(#pc6294487bd)" style="fill: #ff0000"/>
   </g>
   <g id="patch_8">
    <path d="M 98.893476 95.616 
L 103.907446 95.616 
L 103.907446 150.336 
L 98.893476 150.336 
z
" clip-path="url(#pc6294487bd)" style="fill: #ff0000"/>
   </g>
   <g id="patch_9">
    <path d="M 105.160938 95.616 
L 110.174908 95.616 
L 110.174908 148.896 
L 105.160938 148.896 
z
" clip-path="url(#pc6294487bd)" style="fill: #ff0000"/>
   </g>
   <g id="patch_10">
    <path d="M 111.428401 95.616 
L 116.44237 95.616 
L 116.44237 148.896 
L 111.428401 148.896 
z
" clip-path="url(#pc6294487bd)" style="fill: #ff0000"/>
   </g>
   <g id="patch_11">
    <path d="M 117.695863 95.616 
L 122.709833 95.616 
L 122.709833 144.576 
L 117.695863 144.576 
z
" clip-path="url(#pc6294487bd)" style="fill: #ff0000"/>
   </g>
   <g id="patch_12">
    <path d="M 123.963325 95.616 
L 128.977295 95.616 
L 128.977295 143.136 
L 123.963325 143.136 
z
" clip-path="url(#pc6294487bd)" style="fill: #ff0000"/>
   </g>
   <g id="patch_13">
    <path d="M 130.230787 95.616 
L 135.244757 95.616 
L 135.244757 143.136 
L 130.230787 143.136 
z
" clip-path="url(#pc6294487bd)" style="fill: #ff0000"/>
   </g>
   <g id="patch_14">
    <path d="M 136.49825 95.616 
L 141.51222 95.616 
L 141.51222 135.936 
L 136.49825 135.936 
z
" clip-path="url(#pc6294487bd)" style="fill: #ff0000"/>
   </g>
   <g id="patch_15">
    <path d="M 142.765712 95.616 
L 147.779682 95.616 
L 147.779682 135.936 
L 142.765712 135.936 
z
" clip-path="url(#pc6294487bd)" style="fill: #ff0000"/>
   </g>
   <g id="patch_16">
    <path d="M 149.033174 95.616 
L 154.047144 95.616 
L 154.047144 133.056 
L 149.033174 133.056 
z
" clip-path="url(#pc6294487bd)" style="fill: #ff0000"/>
   </g>
   <g id="patch_17">
    <path d="M 155.300637 95.616 
L 160.314606 95.616 
L 160.314606 131.616 
L 155.300637 131.616 
z
" clip-path="url(#pc6294487bd)" style="fill: #ff0000"/>
   </g>
   <g id="patch_18">
    <path d="M 161.568099 95.616 
L 166.582069 95.616 
L 166.582069 131.616 
L 161.568099 131.616 
z
" clip-path="url(#pc6294487bd)" style="fill: #ff0000"/>
   </g>
   <g id="patch_19">
    <path d="M 167.835561 95.616 
L 172.849531 95.616 
L 172.849531 128.736 
L 167.835561 128.736 
z
" clip-path="url(#pc6294487bd)" style="fill: #ff0000"/>
   </g>
   <g id="patch_20">
    <path d="M 174.103023 95.616 
L 179.116993 95.616 
L 179.116993 127.296 
L 174.103023 127.296 
z
" clip-path="url(#pc6294487bd)" style="fill: #ff0000"/>
   </g>
   <g id="patch_21">
    <path d="M 180.370486 95.616 
L 185.384455 95.616 
L 185.384455 125.856 
L 180.370486 125.856 
z
" clip-path="url(#pc6294487bd)" style="fill: #ff0000"/>
   </g>
   <g id="patch_22">
    <path d="M 186.637948 95.616 
L 191.651918 95.616 
L 191.651918 125.856 
L 186.637948 125.856 
z
" clip-path="url(#pc6294487bd)" style="fill: #ff0000"/>
   </g>
   <g id="patch_23">
    <path d="M 192.90541 95.616 
L 197.91938 95.616 
L 197.91938 124.416 
L 192.90541 124.416 
z
" clip-path="url(#pc6294487bd)" style="fill: #ff0000"/>
   </g>
   <g id="patch_24">
    <path d="M 199.172872 95.616 
L 204.186842 95.616 
L 204.186842 122.976 
L 199.172872 122.976 
z
" clip-path="url(#pc6294487bd)" style="fill: #ff0000"/>
   </g>
   <g id="patch_25">
    <path d="M 205.440335 95.616 
L 210.454304 95.616 
L 210.454304 121.536 
L 205.440335 121.536 
z
" clip-path="url(#pc6294487bd)" style="fill: #ff0000"/>
   </g>
   <g id="patch_26">
    <path d="M 211.707797 95.616 
L 216.721767 95.616 
L 216.721767 120.096 
L 211.707797 120.096 
z
" clip-path="url(#pc6294487bd)" style="fill: #ff0000"/>
   </g>
   <g id="patch_27">
    <path d="M 217.975259 95.616 
L 222.989229 95.616 
L 222.989229 112.896 
L 217.975259 112.896 
z
" clip-path="url(#pc6294487bd)" style="fill: #ff0000"/>
   </g>
   <g id="patch_28">
    <path d="M 224.242721 95.616 
L 229.256691 95.616 
L 229.256691 112.896 
L 224.242721 112.896 
z
" clip-path="url(#pc6294487bd)" style="fill: #ff0000"/>
   </g>
   <g id="patch_29">
    <path d="M 230.510184 95.616 
L 235.524154 95.616 
L 235.524154 111.456 
L 230.510184 111.456 
z
" clip-path="url(#pc6294487bd)" style="fill: #ff0000"/>
   </g>
   <g id="patch_30">
    <path d="M 236.777646 95.616 
L 241.791616 95.616 
L 241.791616 111.456 
L 236.777646 111.456 
z
" clip-path="url(#pc6294487bd)" style="fill: #ff0000"/>
   </g>
   <g id="patch_31">
    <path d="M 243.045108 95.616 
L 248.059078 95.616 
L 248.059078 97.056 
L 243.045108 97.056 
z
" clip-path="url(#pc6294487bd)" style="fill: #ff0000"/>
   </g>
   <g id="patch_32">
    <path d="M 249.312571 95.616 
L 254.32654 95.616 
L 254.32654 89.856 
L 249.312571 89.856 
z
" clip-path="url(#pc6294487bd)" style="fill: #000080"/>
   </g>
   <g id="patch_33">
    <path d="M 255.580033 95.616 
L 260.594003 95.616 
L 260.594003 85.536 
L 255.580033 85.536 
z
" clip-path="url(#pc6294487bd)" style="fill: #000080"/>
   </g>
   <g id="patch_34">
    <path d="M 261.847495 95.616 
L 266.861465 95.616 
L 266.861465 82.656 
L 261.847495 82.656 
z
" clip-path="url(#pc6294487bd)" style="fill: #000080"/>
   </g>
   <g id="patch_35">
    <path d="M 268.114957 95.616 
L 273.128927 95.616 
L 273.128927 78.336 
L 268.114957 78.336 
z
" clip-path="url(#pc6294487bd)" style="fill: #000080"/>
   </g>
   <g id="patch_36">
    <path d="M 274.38242 95.616 
L 279.396389 95.616 
L 279.396389 71.136 
L 274.38242 71.136 
z
" clip-path="url(#pc6294487bd)" style="fill: #000080"/>
   </g>
   <g id="patch_37">
    <path d="M 280.649882 95.616 
L 285.663852 95.616 
L 285.663852 69.696 
L 280.649882 69.696 
z
" clip-path="url(#pc6294487bd)" style="fill: #000080"/>
   </g>
   <g id="patch_38">
    <path d="M 286.917344 95.616 
L 291.931314 95.616 
L 291.931314 69.696 
L 286.917344 69.696 
z
" clip-path="url(#pc6294487bd)" style="fill: #000080"/>
   </g>
   <g id="patch_39">
    <path d="M 293.184806 95.616 
L 298.198776 95.616 
L 298.198776 61.056 
L 293.184806 61.056 
z
" clip-path="url(#pc6294487bd)" style="fill: #000080"/>
   </g>
   <g id="patch_40">
    <path d="M 299.452269 95.616 
L 304.466238 95.616 
L 304.466238 58.176 
L 299.452269 58.176 
z
" clip-path="url(#pc6294487bd)" style="fill: #000080"/>
   </g>
   <g id="patch_41">
    <path d="M 305.719731 95.616 
L 310.733701 95.616 
L 310.733701 58.176 
L 305.719731 58.176 
z
" clip-path="url(#pc6294487bd)" style="fill: #000080"/>
   </g>
   <g id="patch_42">
    <path d="M 311.987193 95.616 
L 317.001163 95.616 
L 317.001163 50.976 
L 311.987193 50.976 
z
" clip-path="url(#pc6294487bd)" style="fill: #000080"/>
   </g>
   <g id="patch_43">
    <path d="M 318.254655 95.616 
L 323.268625 95.616 
L 323.268625 49.536 
L 318.254655 49.536 
z
" clip-path="url(#pc6294487bd)" style="fill: #000080"/>
   </g>
   <g id="patch_44">
    <path d="M 324.522118 95.616 
L 329.536088 95.616 
L 329.536088 48.096 
L 324.522118 48.096 
z
" clip-path="url(#pc6294487bd)" style="fill: #000080"/>
   </g>
   <g id="patch_45">
    <path d="M 330.78958 95.616 
L 335.80355 95.616 
L 335.80355 43.776 
L 330.78958 43.776 
z
" clip-path="url(#pc6294487bd)" style="fill: #000080"/>
   </g>
   <g id="patch_46">
    <path d="M 337.057042 95.616 
L 342.071012 95.616 
L 342.071012 40.896 
L 337.057042 40.896 
z
" clip-path="url(#pc6294487bd)" style="fill: #000080"/>
   </g>
   <g id="patch_47">
    <path d="M 343.324505 95.616 
L 348.338474 95.616 
L 348.338474 39.456 
L 343.324505 39.456 
z
" clip-path="url(#pc6294487bd)" style="fill: #000080"/>
   </g>
   <g id="patch_48">
    <path d="M 349.591967 95.616 
L 354.605937 95.616 
L 354.605937 36.576 
L 349.591967 36.576 
z
" clip-path="url(#pc6294487bd)" style="fill: #000080"/>
   </g>
   <g id="patch_49">
    <path d="M 355.859429 95.616 
L 360.873399 95.616 
L 360.873399 32.256 
L 355.859429 32.256 
z
" clip-path="url(#pc6294487bd)" style="fill: #000080"/>
   </g>
   <g id="patch_50">
    <path d="M 362.126891 95.616 
L 367.140861 95.616 
L 367.140861 32.256 
L 362.126891 32.256 
z
" clip-path="url(#pc6294487bd)" style="fill: #000080"/>
   </g>
   <g id="patch_51">
    <path d="M 368.394354 95.616 
L 373.408323 95.616 
L 373.408323 32.256 
L 368.394354 32.256 
z
" clip-path="url(#pc6294487bd)" style="fill: #000080"/>
   </g>
   <g id="patch_52">
    <path d="M 374.661816 95.616 
L 379.675786 95.616 
L 379.675786 29.376 
L 374.661816 29.376 
z
" clip-path="url(#pc6294487bd)" style="fill: #000080"/>
   </g>
   <g id="patch_53">
    <path d="M 380.929278 95.616 
L 385.943248 95.616 
L 385.943248 25.056 
L 380.929278 25.056 
z
" clip-path="url(#pc6294487bd)" style="fill: #000080"/>
   </g>
   <g id="patch_54">
    <path d="M 387.19674 95.616 
L 392.21071 95.616 
L 392.21071 12.096 
L 387.19674 12.096 
z
" clip-path="url(#pc6294487bd)" style="fill: #000080"/>
   </g>
   <g id="patch_55">
    <path d="M 51.323438 266.112 
L 51.323438 -0 
" style="fill: none; stroke: #000000; stroke-width: 0.8; stroke-linejoin: miter; stroke-linecap: square"/>
   </g>
   <g id="patch_56">
    <path d="M 408.443438 266.112 
L 408.443438 -0 
" style="fill: none; stroke: #000000; stroke-width: 0.8; stroke-linejoin: miter; stroke-linecap: square"/>
   </g>
   <g id="patch_57">
    <path d="M 51.323438 266.112 
L 408.443437 266.112 
" style="fill: none; stroke: #000000; stroke-width: 0.8; stroke-linejoin: miter; stroke-linecap: square"/>
   </g>
   <g id="patch_58">
    <path d="M 51.323438 -0 
L 408.443437 -0 
" style="fill: none; stroke: #000000; stroke-width: 0.8; stroke-linejoin: miter; stroke-linecap: square"/>
   </g>
  </g>
 </g>
 <defs>
  <clipPath id="pc6294487bd">
   <rect x="51.323438" y="-0" width="357.12" height="266.112"/>
  </clipPath>
 </defs>
</svg>
