<?xml version="1.0" encoding="utf-8" standalone="no"?>
<!DOCTYPE svg PUBLIC "-//W3C//DTD SVG 1.1//EN"
  "http://www.w3.org/Graphics/SVG/1.1/DTD/svg11.dtd">
<svg xmlns:xlink="http://www.w3.org/1999/xlink" width="408.443438pt" height="296.46825pt" viewBox="0 0 408.443438 296.46825" xmlns="http://www.w3.org/2000/svg" version="1.1">
 <metadata>
  <rdf:RDF xmlns:dc="http://purl.org/dc/elements/1.1/" xmlns:cc="http://creativecommons.org/ns#" xmlns:rdf="http://www.w3.org/1999/02/22-rdf-syntax-ns#">
   <cc:Work>
    <dc:type rdf:resource="http://purl.org/dc/dcmitype/StillImage"/>
    <dc:date>2023-06-13T21:33:07.411078</dc:date>
    <dc:format>image/svg+xml</dc:format>
    <dc:creator>
     <cc:Agent>
      <dc:title>Matplotlib v3.5.2, https://matplotlib.org/</dc:title>
     </cc:Agent>
    </dc:creator>
   </cc:Work>
  </rdf:RDF>
 </metadata>
 <defs>
  <style type="text/css">*{stroke-linejoin: round; stroke-linecap: butt}</style>
 </defs>
 <g id="figure_1">
  <g id="patch_1">
   <path d="M 0 296.46825 
L 408.443438 296.46825 
L 408.443438 0 
L 0 0 
z
" style="fill: #ffffff"/>
  </g>
  <g id="axes_1">
   <g id="patch_2">
    <path d="M 51.323438 266.112 
L 408.443438 266.112 
L 408.443438 -0 
L 51.323438 -0 
z
" style="fill: #ffffff"/>
   </g>
   <g id="PathCollection_1">
    <path d="M 67.556165 246.644305 
L 64.556165 252.644305 
L 70.556165 252.644305 
z
" clip-path="url(#p8ba775cbdb)" style="fill: #440154; stroke: #440154"/>
    <path d="M 72.330496 243.575353 
L 69.330496 249.575353 
L 75.330496 249.575353 
z
" clip-path="url(#p8ba775cbdb)" style="fill: #46075a; stroke: #46075a"/>
    <path d="M 74.717662 236.119717 
L 71.717662 242.119717 
L 77.717662 242.119717 
z
" clip-path="url(#p8ba775cbdb)" style="fill: #48186a; stroke: #48186a"/>
    <path d="M 77.104828 235.223432 
L 74.104828 241.223432 
L 80.104828 241.223432 
z
" clip-path="url(#p8ba775cbdb)" style="fill: #481a6c; stroke: #481a6c"/>
    <path d="M 77.104828 233.024372 
L 74.104828 239.024372 
L 80.104828 239.024372 
z
" clip-path="url(#p8ba775cbdb)" style="fill: #481f70; stroke: #481f70"/>
    <path d="M 79.491994 231.841635 
L 76.491994 237.841635 
L 82.491994 237.841635 
z
" clip-path="url(#p8ba775cbdb)" style="fill: #482173; stroke: #482173"/>
    <path d="M 81.879159 229.339216 
L 78.879159 235.339216 
L 84.879159 235.339216 
z
" clip-path="url(#p8ba775cbdb)" style="fill: #482677; stroke: #482677"/>
    <path d="M 81.879159 228.434561 
L 78.879159 234.434561 
L 84.879159 234.434561 
z
" clip-path="url(#p8ba775cbdb)" style="fill: #482878; stroke: #482878"/>
    <path d="M 81.879159 228.410109 
L 78.879159 234.410109 
L 84.879159 234.410109 
z
" clip-path="url(#p8ba775cbdb)" style="fill: #482878; stroke: #482878"/>
    <path d="M 84.266325 227.778324 
L 81.266325 233.778324 
L 87.266325 233.778324 
z
" clip-path="url(#p8ba775cbdb)" style="fill: #482979; stroke: #482979"/>
    <path d="M 84.266325 225.644223 
L 81.266325 231.644223 
L 87.266325 231.644223 
z
" clip-path="url(#p8ba775cbdb)" style="fill: #472d7b; stroke: #472d7b"/>
    <path d="M 84.266325 223.761117 
L 81.266325 229.761117 
L 87.266325 229.761117 
z
" clip-path="url(#p8ba775cbdb)" style="fill: #46307e; stroke: #46307e"/>
    <path d="M 84.266325 222.02888 
L 81.266325 228.02888 
L 87.266325 228.02888 
z
" clip-path="url(#p8ba775cbdb)" style="fill: #463480; stroke: #463480"/>
    <path d="M 84.266325 219.756224 
L 81.266325 225.756224 
L 87.266325 225.756224 
z
" clip-path="url(#p8ba775cbdb)" style="fill: #453882; stroke: #453882"/>
    <path d="M 84.266325 216.750719 
L 81.266325 222.750719 
L 87.266325 222.750719 
z
" clip-path="url(#p8ba775cbdb)" style="fill: #433e85; stroke: #433e85"/>
    <path d="M 84.266325 216.424805 
L 81.266325 222.424805 
L 87.266325 222.424805 
z
" clip-path="url(#p8ba775cbdb)" style="fill: #423f85; stroke: #423f85"/>
    <path d="M 86.653491 216.385226 
L 83.653491 222.385226 
L 89.653491 222.385226 
z
" clip-path="url(#p8ba775cbdb)" style="fill: #423f85; stroke: #423f85"/>
    <path d="M 86.653491 215.147606 
L 83.653491 221.147606 
L 89.653491 221.147606 
z
" clip-path="url(#p8ba775cbdb)" style="fill: #424186; stroke: #424186"/>
    <path d="M 91.427823 215.128911 
L 88.427823 221.128911 
L 94.427823 221.128911 
z
" clip-path="url(#p8ba775cbdb)" style="fill: #424186; stroke: #424186"/>
    <path d="M 93.814988 211.365124 
L 90.814988 217.365124 
L 96.814988 217.365124 
z
" clip-path="url(#p8ba775cbdb)" style="fill: #3f4889; stroke: #3f4889"/>
    <path d="M 96.202154 209.897335 
L 93.202154 215.897335 
L 99.202154 215.897335 
z
" clip-path="url(#p8ba775cbdb)" style="fill: #3e4a89; stroke: #3e4a89"/>
    <path d="M 98.58932 207.13012 
L 95.58932 213.13012 
L 101.58932 213.13012 
z
" clip-path="url(#p8ba775cbdb)" style="fill: #3c4f8a; stroke: #3c4f8a"/>
    <path d="M 98.58932 198.035106 
L 95.58932 204.035106 
L 101.58932 204.035106 
z
" clip-path="url(#p8ba775cbdb)" style="fill: #355e8d; stroke: #355e8d"/>
    <path d="M 98.58932 197.222021 
L 95.58932 203.222021 
L 101.58932 203.222021 
z
" clip-path="url(#p8ba775cbdb)" style="fill: #34608d; stroke: #34608d"/>
    <path d="M 98.58932 197.095042 
L 95.58932 203.095042 
L 101.58932 203.095042 
z
" clip-path="url(#p8ba775cbdb)" style="fill: #34608d; stroke: #34608d"/>
    <path d="M 100.976486 195.371812 
L 97.976486 201.371812 
L 103.976486 201.371812 
z
" clip-path="url(#p8ba775cbdb)" style="fill: #33638d; stroke: #33638d"/>
    <path d="M 103.363651 194.852352 
L 100.363651 200.852352 
L 106.363651 200.852352 
z
" clip-path="url(#p8ba775cbdb)" style="fill: #33638d; stroke: #33638d"/>
    <path d="M 103.363651 194.770207 
L 100.363651 200.770207 
L 106.363651 200.770207 
z
" clip-path="url(#p8ba775cbdb)" style="fill: #33638d; stroke: #33638d"/>
    <path d="M 105.750817 194.259623 
L 102.750817 200.259623 
L 108.750817 200.259623 
z
" clip-path="url(#p8ba775cbdb)" style="fill: #32648e; stroke: #32648e"/>
    <path d="M 105.750817 193.78791 
L 102.750817 199.78791 
L 108.750817 199.78791 
z
" clip-path="url(#p8ba775cbdb)" style="fill: #32658e; stroke: #32658e"/>
    <path d="M 112.912315 189.286342 
L 109.912315 195.286342 
L 115.912315 195.286342 
z
" clip-path="url(#p8ba775cbdb)" style="fill: #2f6c8e; stroke: #2f6c8e"/>
    <path d="M 112.912315 185.487125 
L 109.912315 191.487125 
L 115.912315 191.487125 
z
" clip-path="url(#p8ba775cbdb)" style="fill: #2c718e; stroke: #2c718e"/>
    <path d="M 115.29948 183.992185 
L 112.29948 189.992185 
L 118.29948 189.992185 
z
" clip-path="url(#p8ba775cbdb)" style="fill: #2c738e; stroke: #2c738e"/>
    <path d="M 117.686646 182.900302 
L 114.686646 188.900302 
L 120.686646 188.900302 
z
" clip-path="url(#p8ba775cbdb)" style="fill: #2b758e; stroke: #2b758e"/>
    <path d="M 122.460978 182.528932 
L 119.460978 188.528932 
L 125.460978 188.528932 
z
" clip-path="url(#p8ba775cbdb)" style="fill: #2a768e; stroke: #2a768e"/>
    <path d="M 124.848143 179.747896 
L 121.848143 185.747896 
L 127.848143 185.747896 
z
" clip-path="url(#p8ba775cbdb)" style="fill: #297a8e; stroke: #297a8e"/>
    <path d="M 124.848143 178.758784 
L 121.848143 184.758784 
L 127.848143 184.758784 
z
" clip-path="url(#p8ba775cbdb)" style="fill: #297b8e; stroke: #297b8e"/>
    <path d="M 132.009641 177.780315 
L 129.009641 183.780315 
L 135.009641 183.780315 
z
" clip-path="url(#p8ba775cbdb)" style="fill: #287d8e; stroke: #287d8e"/>
    <path d="M 136.783972 176.361758 
L 133.783972 182.361758 
L 139.783972 182.361758 
z
" clip-path="url(#p8ba775cbdb)" style="fill: #277f8e; stroke: #277f8e"/>
    <path d="M 141.558304 174.864641 
L 138.558304 180.864641 
L 144.558304 180.864641 
z
" clip-path="url(#p8ba775cbdb)" style="fill: #26828e; stroke: #26828e"/>
    <path d="M 141.558304 174.680867 
L 138.558304 180.680867 
L 144.558304 180.680867 
z
" clip-path="url(#p8ba775cbdb)" style="fill: #26828e; stroke: #26828e"/>
    <path d="M 148.719801 170.36275 
L 145.719801 176.36275 
L 151.719801 176.36275 
z
" clip-path="url(#p8ba775cbdb)" style="fill: #23888e; stroke: #23888e"/>
    <path d="M 148.719801 168.829225 
L 145.719801 174.829225 
L 151.719801 174.829225 
z
" clip-path="url(#p8ba775cbdb)" style="fill: #238a8d; stroke: #238a8d"/>
    <path d="M 151.106967 166.837323 
L 148.106967 172.837323 
L 154.106967 172.837323 
z
" clip-path="url(#p8ba775cbdb)" style="fill: #228d8d; stroke: #228d8d"/>
    <path d="M 151.106967 166.768753 
L 148.106967 172.768753 
L 154.106967 172.768753 
z
" clip-path="url(#p8ba775cbdb)" style="fill: #228d8d; stroke: #228d8d"/>
    <path d="M 153.494133 164.06807 
L 150.494133 170.06807 
L 156.494133 170.06807 
z
" clip-path="url(#p8ba775cbdb)" style="fill: #21918c; stroke: #21918c"/>
    <path d="M 153.494133 156.251152 
L 150.494133 162.251152 
L 156.494133 162.251152 
z
" clip-path="url(#p8ba775cbdb)" style="fill: #1e9d89; stroke: #1e9d89"/>
    <path d="M 153.494133 153.976184 
L 150.494133 159.976184 
L 156.494133 159.976184 
z
" clip-path="url(#p8ba775cbdb)" style="fill: #1fa088; stroke: #1fa088"/>
    <path d="M 155.881298 153.693332 
L 152.881298 159.693332 
L 158.881298 159.693332 
z
" clip-path="url(#p8ba775cbdb)" style="fill: #1fa188; stroke: #1fa188"/>
    <path d="M 155.881298 152.196208 
L 152.881298 158.196208 
L 158.881298 158.196208 
z
" clip-path="url(#p8ba775cbdb)" style="fill: #1fa287; stroke: #1fa287"/>
    <path d="M 163.042796 151.899143 
L 160.042796 157.899143 
L 166.042796 157.899143 
z
" clip-path="url(#p8ba775cbdb)" style="fill: #1fa287; stroke: #1fa287"/>
    <path d="M 172.591459 150.515939 
L 169.591459 156.515939 
L 175.591459 156.515939 
z
" clip-path="url(#p8ba775cbdb)" style="fill: #21a585; stroke: #21a585"/>
    <path d="M 177.36579 145.295889 
L 174.36579 151.295889 
L 180.36579 151.295889 
z
" clip-path="url(#p8ba775cbdb)" style="fill: #26ad81; stroke: #26ad81"/>
    <path d="M 184.527288 136.158112 
L 181.527288 142.158112 
L 187.527288 142.158112 
z
" clip-path="url(#p8ba775cbdb)" style="fill: #38b977; stroke: #38b977"/>
    <path d="M 189.301619 125.699581 
L 186.301619 131.699581 
L 192.301619 131.699581 
z
" clip-path="url(#p8ba775cbdb)" style="fill: #56c667; stroke: #56c667"/>
    <path d="M 191.688785 117.694895 
L 188.688785 123.694895 
L 194.688785 123.694895 
z
" clip-path="url(#p8ba775cbdb)" style="fill: #73d056; stroke: #73d056"/>
    <path d="M 206.01178 117.430462 
L 203.01178 123.430462 
L 209.01178 123.430462 
z
" clip-path="url(#p8ba775cbdb)" style="fill: #73d056; stroke: #73d056"/>
    <path d="M 222.72194 102.083377 
L 219.72194 108.083377 
L 225.72194 108.083377 
z
" clip-path="url(#p8ba775cbdb)" style="fill: #b0dd2f; stroke: #b0dd2f"/>
    <path d="M 234.657769 99.955832 
L 231.657769 105.955832 
L 237.657769 105.955832 
z
" clip-path="url(#p8ba775cbdb)" style="fill: #b8de29; stroke: #b8de29"/>
    <path d="M 392.21071 82.651217 
L 389.21071 88.651217 
L 395.21071 88.651217 
z
" clip-path="url(#p8ba775cbdb)" style="fill: #fde725; stroke: #fde725"/>
   </g>
   <g id="matplotlib.axis_1">
    <g id="xtick_1">
     <g id="line2d_1">
      <defs>
       <path id="m244d9c3e8d" d="M 0 0 
L 0 3.5 
" style="stroke: #000000; stroke-width: 0.8"/>
      </defs>
      <g>
       <use xlink:href="#m244d9c3e8d" x="75.215544" y="266.112" style="stroke: #000000; stroke-width: 0.8"/>
      </g>
     </g>
     <g id="text_1">
      <!-- 2.5 -->
      <g transform="translate(67.263981 280.710437)scale(0.1 -0.1)">
       <defs>
        <path id="DejaVuSans-32" d="M 1228 531 
L 3431 531 
L 3431 0 
L 469 0 
L 469 531 
Q 828 903 1448 1529 
Q 2069 2156 2228 2338 
Q 2531 2678 2651 2914 
Q 2772 3150 2772 3378 
Q 2772 3750 2511 3984 
Q 2250 4219 1831 4219 
Q 1534 4219 1204 4116 
Q 875 4013 500 3803 
L 500 4441 
Q 881 4594 1212 4672 
Q 1544 4750 1819 4750 
Q 2544 4750 2975 4387 
Q 3406 4025 3406 3419 
Q 3406 3131 3298 2873 
Q 3191 2616 2906 2266 
Q 2828 2175 2409 1742 
Q 1991 1309 1228 531 
z
" transform="scale(0.015625)"/>
        <path id="DejaVuSans-2e" d="M 684 794 
L 1344 794 
L 1344 0 
L 684 0 
L 684 794 
z
" transform="scale(0.015625)"/>
        <path id="DejaVuSans-35" d="M 691 4666 
L 3169 4666 
L 3169 4134 
L 1269 4134 
L 1269 2991 
Q 1406 3038 1543 3061 
Q 1681 3084 1819 3084 
Q 2600 3084 3056 2656 
Q 3513 2228 3513 1497 
Q 3513 744 3044 326 
Q 2575 -91 1722 -91 
Q 1428 -91 1123 -41 
Q 819 9 494 109 
L 494 744 
Q 775 591 1075 516 
Q 1375 441 1709 441 
Q 2250 441 2565 725 
Q 2881 1009 2881 1497 
Q 2881 1984 2565 2268 
Q 2250 2553 1709 2553 
Q 1456 2553 1204 2497 
Q 953 2441 691 2322 
L 691 4666 
z
" transform="scale(0.015625)"/>
       </defs>
       <use xlink:href="#DejaVuSans-32"/>
       <use xlink:href="#DejaVuSans-2e" x="63.623047"/>
       <use xlink:href="#DejaVuSans-35" x="95.410156"/>
      </g>
     </g>
    </g>
    <g id="xtick_2">
     <g id="line2d_2">
      <g>
       <use xlink:href="#m244d9c3e8d" x="123.456741" y="266.112" style="stroke: #000000; stroke-width: 0.8"/>
      </g>
     </g>
     <g id="text_2">
      <!-- 5.0 -->
      <g transform="translate(115.505178 280.710437)scale(0.1 -0.1)">
       <defs>
        <path id="DejaVuSans-30" d="M 2034 4250 
Q 1547 4250 1301 3770 
Q 1056 3291 1056 2328 
Q 1056 1369 1301 889 
Q 1547 409 2034 409 
Q 2525 409 2770 889 
Q 3016 1369 3016 2328 
Q 3016 3291 2770 3770 
Q 2525 4250 2034 4250 
z
M 2034 4750 
Q 2819 4750 3233 4129 
Q 3647 3509 3647 2328 
Q 3647 1150 3233 529 
Q 2819 -91 2034 -91 
Q 1250 -91 836 529 
Q 422 1150 422 2328 
Q 422 3509 836 4129 
Q 1250 4750 2034 4750 
z
" transform="scale(0.015625)"/>
       </defs>
       <use xlink:href="#DejaVuSans-35"/>
       <use xlink:href="#DejaVuSans-2e" x="63.623047"/>
       <use xlink:href="#DejaVuSans-30" x="95.410156"/>
      </g>
     </g>
    </g>
    <g id="xtick_3">
     <g id="line2d_3">
      <g>
       <use xlink:href="#m244d9c3e8d" x="171.697938" y="266.112" style="stroke: #000000; stroke-width: 0.8"/>
      </g>
     </g>
     <g id="text_3">
      <!-- 7.5 -->
      <g transform="translate(163.746375 280.710437)scale(0.1 -0.1)">
       <defs>
        <path id="DejaVuSans-37" d="M 525 4666 
L 3525 4666 
L 3525 4397 
L 1831 0 
L 1172 0 
L 2766 4134 
L 525 4134 
L 525 4666 
z
" transform="scale(0.015625)"/>
       </defs>
       <use xlink:href="#DejaVuSans-37"/>
       <use xlink:href="#DejaVuSans-2e" x="63.623047"/>
       <use xlink:href="#DejaVuSans-35" x="95.410156"/>
      </g>
     </g>
    </g>
    <g id="xtick_4">
     <g id="line2d_4">
      <g>
       <use xlink:href="#m244d9c3e8d" x="219.939135" y="266.112" style="stroke: #000000; stroke-width: 0.8"/>
      </g>
     </g>
     <g id="text_4">
      <!-- 10.0 -->
      <g transform="translate(208.806322 280.710437)scale(0.1 -0.1)">
       <defs>
        <path id="DejaVuSans-31" d="M 794 531 
L 1825 531 
L 1825 4091 
L 703 3866 
L 703 4441 
L 1819 4666 
L 2450 4666 
L 2450 531 
L 3481 531 
L 3481 0 
L 794 0 
L 794 531 
z
" transform="scale(0.015625)"/>
       </defs>
       <use xlink:href="#DejaVuSans-31"/>
       <use xlink:href="#DejaVuSans-30" x="63.623047"/>
       <use xlink:href="#DejaVuSans-2e" x="127.246094"/>
       <use xlink:href="#DejaVuSans-30" x="159.033203"/>
      </g>
     </g>
    </g>
    <g id="xtick_5">
     <g id="line2d_5">
      <g>
       <use xlink:href="#m244d9c3e8d" x="268.180332" y="266.112" style="stroke: #000000; stroke-width: 0.8"/>
      </g>
     </g>
     <g id="text_5">
      <!-- 12.5 -->
      <g transform="translate(257.047519 280.710437)scale(0.1 -0.1)">
       <use xlink:href="#DejaVuSans-31"/>
       <use xlink:href="#DejaVuSans-32" x="63.623047"/>
       <use xlink:href="#DejaVuSans-2e" x="127.246094"/>
       <use xlink:href="#DejaVuSans-35" x="159.033203"/>
      </g>
     </g>
    </g>
    <g id="xtick_6">
     <g id="line2d_6">
      <g>
       <use xlink:href="#m244d9c3e8d" x="316.421529" y="266.112" style="stroke: #000000; stroke-width: 0.8"/>
      </g>
     </g>
     <g id="text_6">
      <!-- 15.0 -->
      <g transform="translate(305.288717 280.710437)scale(0.1 -0.1)">
       <use xlink:href="#DejaVuSans-31"/>
       <use xlink:href="#DejaVuSans-35" x="63.623047"/>
       <use xlink:href="#DejaVuSans-2e" x="127.246094"/>
       <use xlink:href="#DejaVuSans-30" x="159.033203"/>
      </g>
     </g>
    </g>
    <g id="xtick_7">
     <g id="line2d_7">
      <g>
       <use xlink:href="#m244d9c3e8d" x="364.662726" y="266.112" style="stroke: #000000; stroke-width: 0.8"/>
      </g>
     </g>
     <g id="text_7">
      <!-- 17.5 -->
      <g transform="translate(353.529914 280.710437)scale(0.1 -0.1)">
       <use xlink:href="#DejaVuSans-31"/>
       <use xlink:href="#DejaVuSans-37" x="63.623047"/>
       <use xlink:href="#DejaVuSans-2e" x="127.246094"/>
       <use xlink:href="#DejaVuSans-35" x="159.033203"/>
      </g>
     </g>
    </g>
    <g id="text_8">
     <!-- Eddy Area [10^3 * km^2] -->
     <g transform="translate(164.284219 294.388562)scale(0.1 -0.1)">
      <defs>
       <path id="DejaVuSans-45" d="M 628 4666 
L 3578 4666 
L 3578 4134 
L 1259 4134 
L 1259 2753 
L 3481 2753 
L 3481 2222 
L 1259 2222 
L 1259 531 
L 3634 531 
L 3634 0 
L 628 0 
L 628 4666 
z
" transform="scale(0.015625)"/>
       <path id="DejaVuSans-64" d="M 2906 2969 
L 2906 4863 
L 3481 4863 
L 3481 0 
L 2906 0 
L 2906 525 
Q 2725 213 2448 61 
Q 2172 -91 1784 -91 
Q 1150 -91 751 415 
Q 353 922 353 1747 
Q 353 2572 751 3078 
Q 1150 3584 1784 3584 
Q 2172 3584 2448 3432 
Q 2725 3281 2906 2969 
z
M 947 1747 
Q 947 1113 1208 752 
Q 1469 391 1925 391 
Q 2381 391 2643 752 
Q 2906 1113 2906 1747 
Q 2906 2381 2643 2742 
Q 2381 3103 1925 3103 
Q 1469 3103 1208 2742 
Q 947 2381 947 1747 
z
" transform="scale(0.015625)"/>
       <path id="DejaVuSans-79" d="M 2059 -325 
Q 1816 -950 1584 -1140 
Q 1353 -1331 966 -1331 
L 506 -1331 
L 506 -850 
L 844 -850 
Q 1081 -850 1212 -737 
Q 1344 -625 1503 -206 
L 1606 56 
L 191 3500 
L 800 3500 
L 1894 763 
L 2988 3500 
L 3597 3500 
L 2059 -325 
z
" transform="scale(0.015625)"/>
       <path id="DejaVuSans-20" transform="scale(0.015625)"/>
       <path id="DejaVuSans-41" d="M 2188 4044 
L 1331 1722 
L 3047 1722 
L 2188 4044 
z
M 1831 4666 
L 2547 4666 
L 4325 0 
L 3669 0 
L 3244 1197 
L 1141 1197 
L 716 0 
L 50 0 
L 1831 4666 
z
" transform="scale(0.015625)"/>
       <path id="DejaVuSans-72" d="M 2631 2963 
Q 2534 3019 2420 3045 
Q 2306 3072 2169 3072 
Q 1681 3072 1420 2755 
Q 1159 2438 1159 1844 
L 1159 0 
L 581 0 
L 581 3500 
L 1159 3500 
L 1159 2956 
Q 1341 3275 1631 3429 
Q 1922 3584 2338 3584 
Q 2397 3584 2469 3576 
Q 2541 3569 2628 3553 
L 2631 2963 
z
" transform="scale(0.015625)"/>
       <path id="DejaVuSans-65" d="M 3597 1894 
L 3597 1613 
L 953 1613 
Q 991 1019 1311 708 
Q 1631 397 2203 397 
Q 2534 397 2845 478 
Q 3156 559 3463 722 
L 3463 178 
Q 3153 47 2828 -22 
Q 2503 -91 2169 -91 
Q 1331 -91 842 396 
Q 353 884 353 1716 
Q 353 2575 817 3079 
Q 1281 3584 2069 3584 
Q 2775 3584 3186 3129 
Q 3597 2675 3597 1894 
z
M 3022 2063 
Q 3016 2534 2758 2815 
Q 2500 3097 2075 3097 
Q 1594 3097 1305 2825 
Q 1016 2553 972 2059 
L 3022 2063 
z
" transform="scale(0.015625)"/>
       <path id="DejaVuSans-61" d="M 2194 1759 
Q 1497 1759 1228 1600 
Q 959 1441 959 1056 
Q 959 750 1161 570 
Q 1363 391 1709 391 
Q 2188 391 2477 730 
Q 2766 1069 2766 1631 
L 2766 1759 
L 2194 1759 
z
M 3341 1997 
L 3341 0 
L 2766 0 
L 2766 531 
Q 2569 213 2275 61 
Q 1981 -91 1556 -91 
Q 1019 -91 701 211 
Q 384 513 384 1019 
Q 384 1609 779 1909 
Q 1175 2209 1959 2209 
L 2766 2209 
L 2766 2266 
Q 2766 2663 2505 2880 
Q 2244 3097 1772 3097 
Q 1472 3097 1187 3025 
Q 903 2953 641 2809 
L 641 3341 
Q 956 3463 1253 3523 
Q 1550 3584 1831 3584 
Q 2591 3584 2966 3190 
Q 3341 2797 3341 1997 
z
" transform="scale(0.015625)"/>
       <path id="DejaVuSans-5b" d="M 550 4863 
L 1875 4863 
L 1875 4416 
L 1125 4416 
L 1125 -397 
L 1875 -397 
L 1875 -844 
L 550 -844 
L 550 4863 
z
" transform="scale(0.015625)"/>
       <path id="DejaVuSans-5e" d="M 2988 4666 
L 4684 2925 
L 4056 2925 
L 2681 4159 
L 1306 2925 
L 678 2925 
L 2375 4666 
L 2988 4666 
z
" transform="scale(0.015625)"/>
       <path id="DejaVuSans-33" d="M 2597 2516 
Q 3050 2419 3304 2112 
Q 3559 1806 3559 1356 
Q 3559 666 3084 287 
Q 2609 -91 1734 -91 
Q 1441 -91 1130 -33 
Q 819 25 488 141 
L 488 750 
Q 750 597 1062 519 
Q 1375 441 1716 441 
Q 2309 441 2620 675 
Q 2931 909 2931 1356 
Q 2931 1769 2642 2001 
Q 2353 2234 1838 2234 
L 1294 2234 
L 1294 2753 
L 1863 2753 
Q 2328 2753 2575 2939 
Q 2822 3125 2822 3475 
Q 2822 3834 2567 4026 
Q 2313 4219 1838 4219 
Q 1578 4219 1281 4162 
Q 984 4106 628 3988 
L 628 4550 
Q 988 4650 1302 4700 
Q 1616 4750 1894 4750 
Q 2613 4750 3031 4423 
Q 3450 4097 3450 3541 
Q 3450 3153 3228 2886 
Q 3006 2619 2597 2516 
z
" transform="scale(0.015625)"/>
       <path id="DejaVuSans-2a" d="M 3009 3897 
L 1888 3291 
L 3009 2681 
L 2828 2375 
L 1778 3009 
L 1778 1831 
L 1422 1831 
L 1422 3009 
L 372 2375 
L 191 2681 
L 1313 3291 
L 191 3897 
L 372 4206 
L 1422 3572 
L 1422 4750 
L 1778 4750 
L 1778 3572 
L 2828 4206 
L 3009 3897 
z
" transform="scale(0.015625)"/>
       <path id="DejaVuSans-6b" d="M 581 4863 
L 1159 4863 
L 1159 1991 
L 2875 3500 
L 3609 3500 
L 1753 1863 
L 3688 0 
L 2938 0 
L 1159 1709 
L 1159 0 
L 581 0 
L 581 4863 
z
" transform="scale(0.015625)"/>
       <path id="DejaVuSans-6d" d="M 3328 2828 
Q 3544 3216 3844 3400 
Q 4144 3584 4550 3584 
Q 5097 3584 5394 3201 
Q 5691 2819 5691 2113 
L 5691 0 
L 5113 0 
L 5113 2094 
Q 5113 2597 4934 2840 
Q 4756 3084 4391 3084 
Q 3944 3084 3684 2787 
Q 3425 2491 3425 1978 
L 3425 0 
L 2847 0 
L 2847 2094 
Q 2847 2600 2669 2842 
Q 2491 3084 2119 3084 
Q 1678 3084 1418 2786 
Q 1159 2488 1159 1978 
L 1159 0 
L 581 0 
L 581 3500 
L 1159 3500 
L 1159 2956 
Q 1356 3278 1631 3431 
Q 1906 3584 2284 3584 
Q 2666 3584 2933 3390 
Q 3200 3197 3328 2828 
z
" transform="scale(0.015625)"/>
       <path id="DejaVuSans-5d" d="M 1947 4863 
L 1947 -844 
L 622 -844 
L 622 -397 
L 1369 -397 
L 1369 4416 
L 622 4416 
L 622 4863 
L 1947 4863 
z
" transform="scale(0.015625)"/>
      </defs>
      <use xlink:href="#DejaVuSans-45"/>
      <use xlink:href="#DejaVuSans-64" x="63.183594"/>
      <use xlink:href="#DejaVuSans-64" x="126.660156"/>
      <use xlink:href="#DejaVuSans-79" x="190.136719"/>
      <use xlink:href="#DejaVuSans-20" x="249.316406"/>
      <use xlink:href="#DejaVuSans-41" x="281.103516"/>
      <use xlink:href="#DejaVuSans-72" x="349.511719"/>
      <use xlink:href="#DejaVuSans-65" x="388.375"/>
      <use xlink:href="#DejaVuSans-61" x="449.898438"/>
      <use xlink:href="#DejaVuSans-20" x="511.177734"/>
      <use xlink:href="#DejaVuSans-5b" x="542.964844"/>
      <use xlink:href="#DejaVuSans-31" x="581.978516"/>
      <use xlink:href="#DejaVuSans-30" x="645.601562"/>
      <use xlink:href="#DejaVuSans-5e" x="709.224609"/>
      <use xlink:href="#DejaVuSans-33" x="793.013672"/>
      <use xlink:href="#DejaVuSans-20" x="856.636719"/>
      <use xlink:href="#DejaVuSans-2a" x="888.423828"/>
      <use xlink:href="#DejaVuSans-20" x="938.423828"/>
      <use xlink:href="#DejaVuSans-6b" x="970.210938"/>
      <use xlink:href="#DejaVuSans-6d" x="1028.121094"/>
      <use xlink:href="#DejaVuSans-5e" x="1125.533203"/>
      <use xlink:href="#DejaVuSans-32" x="1209.322266"/>
      <use xlink:href="#DejaVuSans-5d" x="1272.945312"/>
     </g>
    </g>
   </g>
   <g id="matplotlib.axis_2">
    <g id="ytick_1">
     <g id="line2d_8">
      <defs>
       <path id="m05f6c28775" d="M 0 0 
L -3.5 0 
" style="stroke: #000000; stroke-width: 0.8"/>
      </defs>
      <g>
       <use xlink:href="#m05f6c28775" x="51.323438" y="243.148365" style="stroke: #000000; stroke-width: 0.8"/>
      </g>
     </g>
     <g id="text_9">
      <!-- −0.25 -->
      <g transform="translate(13.678125 246.947584)scale(0.1 -0.1)">
       <defs>
        <path id="DejaVuSans-2212" d="M 678 2272 
L 4684 2272 
L 4684 1741 
L 678 1741 
L 678 2272 
z
" transform="scale(0.015625)"/>
       </defs>
       <use xlink:href="#DejaVuSans-2212"/>
       <use xlink:href="#DejaVuSans-30" x="83.789062"/>
       <use xlink:href="#DejaVuSans-2e" x="147.412109"/>
       <use xlink:href="#DejaVuSans-32" x="179.199219"/>
       <use xlink:href="#DejaVuSans-35" x="242.822266"/>
      </g>
     </g>
    </g>
    <g id="ytick_2">
     <g id="line2d_9">
      <g>
       <use xlink:href="#m05f6c28775" x="51.323438" y="206.688964" style="stroke: #000000; stroke-width: 0.8"/>
      </g>
     </g>
     <g id="text_10">
      <!-- 0.00 -->
      <g transform="translate(22.057813 210.488182)scale(0.1 -0.1)">
       <use xlink:href="#DejaVuSans-30"/>
       <use xlink:href="#DejaVuSans-2e" x="63.623047"/>
       <use xlink:href="#DejaVuSans-30" x="95.410156"/>
       <use xlink:href="#DejaVuSans-30" x="159.033203"/>
      </g>
     </g>
    </g>
    <g id="ytick_3">
     <g id="line2d_10">
      <g>
       <use xlink:href="#m05f6c28775" x="51.323438" y="170.229563" style="stroke: #000000; stroke-width: 0.8"/>
      </g>
     </g>
     <g id="text_11">
      <!-- 0.25 -->
      <g transform="translate(22.057813 174.028781)scale(0.1 -0.1)">
       <use xlink:href="#DejaVuSans-30"/>
       <use xlink:href="#DejaVuSans-2e" x="63.623047"/>
       <use xlink:href="#DejaVuSans-32" x="95.410156"/>
       <use xlink:href="#DejaVuSans-35" x="159.033203"/>
      </g>
     </g>
    </g>
    <g id="ytick_4">
     <g id="line2d_11">
      <g>
       <use xlink:href="#m05f6c28775" x="51.323438" y="133.770161" style="stroke: #000000; stroke-width: 0.8"/>
      </g>
     </g>
     <g id="text_12">
      <!-- 0.50 -->
      <g transform="translate(22.057813 137.56938)scale(0.1 -0.1)">
       <use xlink:href="#DejaVuSans-30"/>
       <use xlink:href="#DejaVuSans-2e" x="63.623047"/>
       <use xlink:href="#DejaVuSans-35" x="95.410156"/>
       <use xlink:href="#DejaVuSans-30" x="159.033203"/>
      </g>
     </g>
    </g>
    <g id="ytick_5">
     <g id="line2d_12">
      <g>
       <use xlink:href="#m05f6c28775" x="51.323438" y="97.31076" style="stroke: #000000; stroke-width: 0.8"/>
      </g>
     </g>
     <g id="text_13">
      <!-- 0.75 -->
      <g transform="translate(22.057813 101.109979)scale(0.1 -0.1)">
       <use xlink:href="#DejaVuSans-30"/>
       <use xlink:href="#DejaVuSans-2e" x="63.623047"/>
       <use xlink:href="#DejaVuSans-37" x="95.410156"/>
       <use xlink:href="#DejaVuSans-35" x="159.033203"/>
      </g>
     </g>
    </g>
    <g id="ytick_6">
     <g id="line2d_13">
      <g>
       <use xlink:href="#m05f6c28775" x="51.323438" y="60.851359" style="stroke: #000000; stroke-width: 0.8"/>
      </g>
     </g>
     <g id="text_14">
      <!-- 1.00 -->
      <g transform="translate(22.057813 64.650578)scale(0.1 -0.1)">
       <use xlink:href="#DejaVuSans-31"/>
       <use xlink:href="#DejaVuSans-2e" x="63.623047"/>
       <use xlink:href="#DejaVuSans-30" x="95.410156"/>
       <use xlink:href="#DejaVuSans-30" x="159.033203"/>
      </g>
     </g>
    </g>
    <g id="ytick_7">
     <g id="line2d_14">
      <g>
       <use xlink:href="#m05f6c28775" x="51.323438" y="24.391958" style="stroke: #000000; stroke-width: 0.8"/>
      </g>
     </g>
     <g id="text_15">
      <!-- 1.25 -->
      <g transform="translate(22.057813 28.191176)scale(0.1 -0.1)">
       <use xlink:href="#DejaVuSans-31"/>
       <use xlink:href="#DejaVuSans-2e" x="63.623047"/>
       <use xlink:href="#DejaVuSans-32" x="95.410156"/>
       <use xlink:href="#DejaVuSans-35" x="159.033203"/>
      </g>
     </g>
    </g>
    <g id="text_16">
     <!-- Eddy Amplitude [m] -->
     <g transform="translate(7.598438 183.095844)rotate(-90)scale(0.1 -0.1)">
      <defs>
       <path id="DejaVuSans-70" d="M 1159 525 
L 1159 -1331 
L 581 -1331 
L 581 3500 
L 1159 3500 
L 1159 2969 
Q 1341 3281 1617 3432 
Q 1894 3584 2278 3584 
Q 2916 3584 3314 3078 
Q 3713 2572 3713 1747 
Q 3713 922 3314 415 
Q 2916 -91 2278 -91 
Q 1894 -91 1617 61 
Q 1341 213 1159 525 
z
M 3116 1747 
Q 3116 2381 2855 2742 
Q 2594 3103 2138 3103 
Q 1681 3103 1420 2742 
Q 1159 2381 1159 1747 
Q 1159 1113 1420 752 
Q 1681 391 2138 391 
Q 2594 391 2855 752 
Q 3116 1113 3116 1747 
z
" transform="scale(0.015625)"/>
       <path id="DejaVuSans-6c" d="M 603 4863 
L 1178 4863 
L 1178 0 
L 603 0 
L 603 4863 
z
" transform="scale(0.015625)"/>
       <path id="DejaVuSans-69" d="M 603 3500 
L 1178 3500 
L 1178 0 
L 603 0 
L 603 3500 
z
M 603 4863 
L 1178 4863 
L 1178 4134 
L 603 4134 
L 603 4863 
z
" transform="scale(0.015625)"/>
       <path id="DejaVuSans-74" d="M 1172 4494 
L 1172 3500 
L 2356 3500 
L 2356 3053 
L 1172 3053 
L 1172 1153 
Q 1172 725 1289 603 
Q 1406 481 1766 481 
L 2356 481 
L 2356 0 
L 1766 0 
Q 1100 0 847 248 
Q 594 497 594 1153 
L 594 3053 
L 172 3053 
L 172 3500 
L 594 3500 
L 594 4494 
L 1172 4494 
z
" transform="scale(0.015625)"/>
       <path id="DejaVuSans-75" d="M 544 1381 
L 544 3500 
L 1119 3500 
L 1119 1403 
Q 1119 906 1312 657 
Q 1506 409 1894 409 
Q 2359 409 2629 706 
Q 2900 1003 2900 1516 
L 2900 3500 
L 3475 3500 
L 3475 0 
L 2900 0 
L 2900 538 
Q 2691 219 2414 64 
Q 2138 -91 1772 -91 
Q 1169 -91 856 284 
Q 544 659 544 1381 
z
M 1991 3584 
L 1991 3584 
z
" transform="scale(0.015625)"/>
      </defs>
      <use xlink:href="#DejaVuSans-45"/>
      <use xlink:href="#DejaVuSans-64" x="63.183594"/>
      <use xlink:href="#DejaVuSans-64" x="126.660156"/>
      <use xlink:href="#DejaVuSans-79" x="190.136719"/>
      <use xlink:href="#DejaVuSans-20" x="249.316406"/>
      <use xlink:href="#DejaVuSans-41" x="281.103516"/>
      <use xlink:href="#DejaVuSans-6d" x="349.511719"/>
      <use xlink:href="#DejaVuSans-70" x="446.923828"/>
      <use xlink:href="#DejaVuSans-6c" x="510.400391"/>
      <use xlink:href="#DejaVuSans-69" x="538.183594"/>
      <use xlink:href="#DejaVuSans-74" x="565.966797"/>
      <use xlink:href="#DejaVuSans-75" x="605.175781"/>
      <use xlink:href="#DejaVuSans-64" x="668.554688"/>
      <use xlink:href="#DejaVuSans-65" x="732.03125"/>
      <use xlink:href="#DejaVuSans-20" x="793.554688"/>
      <use xlink:href="#DejaVuSans-5b" x="825.341797"/>
      <use xlink:href="#DejaVuSans-6d" x="864.355469"/>
      <use xlink:href="#DejaVuSans-5d" x="961.767578"/>
     </g>
    </g>
   </g>
   <g id="line2d_15">
    <path d="M 67.556165 227.864841 
L 72.330496 224.69177 
L 74.717662 223.105235 
L 77.104828 221.518699 
L 77.104828 221.518699 
L 79.491994 219.932163 
L 81.879159 218.345628 
L 81.879159 218.345628 
L 81.879159 218.345628 
L 84.266325 216.759092 
L 84.266325 216.759092 
L 84.266325 216.759092 
L 84.266325 216.759092 
L 84.266325 216.759092 
L 84.266325 216.759092 
L 84.266325 216.759092 
L 86.653491 215.172557 
L 86.653491 215.172557 
L 91.427823 211.999485 
L 93.814988 210.41295 
L 96.202154 208.826414 
L 98.58932 207.239879 
L 98.58932 207.239879 
L 98.58932 207.239879 
L 98.58932 207.239879 
L 100.976486 205.653343 
L 103.363651 204.066807 
L 103.363651 204.066807 
L 105.750817 202.480272 
L 105.750817 202.480272 
L 112.912315 197.720665 
L 112.912315 197.720665 
L 115.29948 196.134129 
L 117.686646 194.547594 
L 122.460978 191.374523 
L 124.848143 189.787987 
L 124.848143 189.787987 
L 132.009641 185.02838 
L 136.783972 181.855309 
L 141.558304 178.682238 
L 141.558304 178.682238 
L 148.719801 173.922631 
L 148.719801 173.922631 
L 151.106967 172.336096 
L 151.106967 172.336096 
L 153.494133 170.74956 
L 153.494133 170.74956 
L 153.494133 170.74956 
L 155.881298 169.163024 
L 155.881298 169.163024 
L 163.042796 164.403418 
L 172.591459 158.057275 
L 177.36579 154.884204 
L 184.527288 150.124597 
L 189.301619 146.951526 
L 191.688785 145.36499 
L 206.01178 135.845777 
L 222.72194 124.740028 
L 234.657769 116.80735 
L 392.21071 12.096 
" clip-path="url(#p8ba775cbdb)" style="fill: none; stroke: #000080; stroke-width: 1.5; stroke-linecap: square"/>
   </g>
   <g id="line2d_16">
    <path d="M 67.556165 254.016 
L 72.330496 244.760803 
L 74.717662 240.492636 
L 77.104828 236.432758 
L 77.104828 236.432758 
L 79.491994 232.56178 
L 81.879159 228.862904 
L 81.879159 228.862904 
L 81.879159 228.862904 
L 84.266325 225.321476 
L 84.266325 225.321476 
L 84.266325 225.321476 
L 84.266325 225.321476 
L 84.266325 225.321476 
L 84.266325 225.321476 
L 84.266325 225.321476 
L 86.653491 221.924637 
L 86.653491 221.924637 
L 91.427823 215.520631 
L 93.814988 212.494443 
L 96.202154 209.574459 
L 98.58932 206.753477 
L 98.58932 206.753477 
L 98.58932 206.753477 
L 98.58932 206.753477 
L 100.976486 204.025002 
L 103.363651 201.383161 
L 103.363651 201.383161 
L 105.750817 198.822621 
L 105.750817 198.822621 
L 112.912315 191.582316 
L 112.912315 191.582316 
L 115.29948 189.30242 
L 117.686646 187.083328 
L 122.460978 182.815162 
L 124.848143 180.760465 
L 124.848143 180.760465 
L 132.009641 174.884306 
L 136.783972 171.18543 
L 141.558304 167.644001 
L 141.558304 167.644001 
L 148.719801 162.599366 
L 148.719801 162.599366 
L 151.106967 160.983567 
L 151.106967 160.983567 
L 153.494133 159.398548 
L 153.494133 159.398548 
L 153.494133 159.398548 
L 155.881298 157.843156 
L 155.881298 157.843156 
L 163.042796 153.344169 
L 172.591459 147.700582 
L 177.36579 145.016123 
L 184.527288 141.145146 
L 189.301619 138.661051 
L 191.688785 137.44627 
L 206.01178 130.508002 
L 222.72194 123.08299 
L 234.657769 118.157824 
L 392.21071 71.182731 
" clip-path="url(#p8ba775cbdb)" style="fill: none; stroke: #ff0000; stroke-width: 1.5; stroke-linecap: square"/>
   </g>
   <g id="patch_3">
    <path d="M 51.323438 266.112 
L 51.323438 -0 
" style="fill: none; stroke: #000000; stroke-width: 0.8; stroke-linejoin: miter; stroke-linecap: square"/>
   </g>
   <g id="patch_4">
    <path d="M 408.443438 266.112 
L 408.443438 -0 
" style="fill: none; stroke: #000000; stroke-width: 0.8; stroke-linejoin: miter; stroke-linecap: square"/>
   </g>
   <g id="patch_5">
    <path d="M 51.323438 266.112 
L 408.443438 266.112 
" style="fill: none; stroke: #000000; stroke-width: 0.8; stroke-linejoin: miter; stroke-linecap: square"/>
   </g>
   <g id="patch_6">
    <path d="M 51.323438 -0 
L 408.443438 -0 
" style="fill: none; stroke: #000000; stroke-width: 0.8; stroke-linejoin: miter; stroke-linecap: square"/>
   </g>
   <g id="legend_1">
    <g id="patch_7">
     <path d="M 58.323438 37.35625 
L 198.0625 37.35625 
Q 200.0625 37.35625 200.0625 35.35625 
L 200.0625 7 
Q 200.0625 5 198.0625 5 
L 58.323438 5 
Q 56.323438 5 56.323438 7 
L 56.323438 35.35625 
Q 56.323438 37.35625 58.323438 37.35625 
z
" style="fill: #ffffff; opacity: 0.8; stroke: #cccccc; stroke-linejoin: miter"/>
    </g>
    <g id="line2d_17">
     <path d="M 60.323438 13.098437 
L 70.323438 13.098437 
L 80.323438 13.098437 
" style="fill: none; stroke: #000080; stroke-width: 1.5; stroke-linecap: square"/>
    </g>
    <g id="text_17">
     <!-- Linear Trendline -->
     <g transform="translate(88.323438 16.598437)scale(0.1 -0.1)">
      <defs>
       <path id="DejaVuSans-4c" d="M 628 4666 
L 1259 4666 
L 1259 531 
L 3531 531 
L 3531 0 
L 628 0 
L 628 4666 
z
" transform="scale(0.015625)"/>
       <path id="DejaVuSans-6e" d="M 3513 2113 
L 3513 0 
L 2938 0 
L 2938 2094 
Q 2938 2591 2744 2837 
Q 2550 3084 2163 3084 
Q 1697 3084 1428 2787 
Q 1159 2491 1159 1978 
L 1159 0 
L 581 0 
L 581 3500 
L 1159 3500 
L 1159 2956 
Q 1366 3272 1645 3428 
Q 1925 3584 2291 3584 
Q 2894 3584 3203 3211 
Q 3513 2838 3513 2113 
z
" transform="scale(0.015625)"/>
       <path id="DejaVuSans-54" d="M -19 4666 
L 3928 4666 
L 3928 4134 
L 2272 4134 
L 2272 0 
L 1638 0 
L 1638 4134 
L -19 4134 
L -19 4666 
z
" transform="scale(0.015625)"/>
      </defs>
      <use xlink:href="#DejaVuSans-4c"/>
      <use xlink:href="#DejaVuSans-69" x="55.712891"/>
      <use xlink:href="#DejaVuSans-6e" x="83.496094"/>
      <use xlink:href="#DejaVuSans-65" x="146.875"/>
      <use xlink:href="#DejaVuSans-61" x="208.398438"/>
      <use xlink:href="#DejaVuSans-72" x="269.677734"/>
      <use xlink:href="#DejaVuSans-20" x="310.791016"/>
      <use xlink:href="#DejaVuSans-54" x="342.578125"/>
      <use xlink:href="#DejaVuSans-72" x="388.912109"/>
      <use xlink:href="#DejaVuSans-65" x="427.775391"/>
      <use xlink:href="#DejaVuSans-6e" x="489.298828"/>
      <use xlink:href="#DejaVuSans-64" x="552.677734"/>
      <use xlink:href="#DejaVuSans-6c" x="616.154297"/>
      <use xlink:href="#DejaVuSans-69" x="643.9375"/>
      <use xlink:href="#DejaVuSans-6e" x="671.720703"/>
      <use xlink:href="#DejaVuSans-65" x="735.099609"/>
     </g>
    </g>
    <g id="line2d_18">
     <path d="M 60.323438 27.776562 
L 70.323438 27.776562 
L 80.323438 27.776562 
" style="fill: none; stroke: #ff0000; stroke-width: 1.5; stroke-linecap: square"/>
    </g>
    <g id="text_18">
     <!-- Logarithmic Trendline -->
     <g transform="translate(88.323438 31.276562)scale(0.1 -0.1)">
      <defs>
       <path id="DejaVuSans-6f" d="M 1959 3097 
Q 1497 3097 1228 2736 
Q 959 2375 959 1747 
Q 959 1119 1226 758 
Q 1494 397 1959 397 
Q 2419 397 2687 759 
Q 2956 1122 2956 1747 
Q 2956 2369 2687 2733 
Q 2419 3097 1959 3097 
z
M 1959 3584 
Q 2709 3584 3137 3096 
Q 3566 2609 3566 1747 
Q 3566 888 3137 398 
Q 2709 -91 1959 -91 
Q 1206 -91 779 398 
Q 353 888 353 1747 
Q 353 2609 779 3096 
Q 1206 3584 1959 3584 
z
" transform="scale(0.015625)"/>
       <path id="DejaVuSans-67" d="M 2906 1791 
Q 2906 2416 2648 2759 
Q 2391 3103 1925 3103 
Q 1463 3103 1205 2759 
Q 947 2416 947 1791 
Q 947 1169 1205 825 
Q 1463 481 1925 481 
Q 2391 481 2648 825 
Q 2906 1169 2906 1791 
z
M 3481 434 
Q 3481 -459 3084 -895 
Q 2688 -1331 1869 -1331 
Q 1566 -1331 1297 -1286 
Q 1028 -1241 775 -1147 
L 775 -588 
Q 1028 -725 1275 -790 
Q 1522 -856 1778 -856 
Q 2344 -856 2625 -561 
Q 2906 -266 2906 331 
L 2906 616 
Q 2728 306 2450 153 
Q 2172 0 1784 0 
Q 1141 0 747 490 
Q 353 981 353 1791 
Q 353 2603 747 3093 
Q 1141 3584 1784 3584 
Q 2172 3584 2450 3431 
Q 2728 3278 2906 2969 
L 2906 3500 
L 3481 3500 
L 3481 434 
z
" transform="scale(0.015625)"/>
       <path id="DejaVuSans-68" d="M 3513 2113 
L 3513 0 
L 2938 0 
L 2938 2094 
Q 2938 2591 2744 2837 
Q 2550 3084 2163 3084 
Q 1697 3084 1428 2787 
Q 1159 2491 1159 1978 
L 1159 0 
L 581 0 
L 581 4863 
L 1159 4863 
L 1159 2956 
Q 1366 3272 1645 3428 
Q 1925 3584 2291 3584 
Q 2894 3584 3203 3211 
Q 3513 2838 3513 2113 
z
" transform="scale(0.015625)"/>
       <path id="DejaVuSans-63" d="M 3122 3366 
L 3122 2828 
Q 2878 2963 2633 3030 
Q 2388 3097 2138 3097 
Q 1578 3097 1268 2742 
Q 959 2388 959 1747 
Q 959 1106 1268 751 
Q 1578 397 2138 397 
Q 2388 397 2633 464 
Q 2878 531 3122 666 
L 3122 134 
Q 2881 22 2623 -34 
Q 2366 -91 2075 -91 
Q 1284 -91 818 406 
Q 353 903 353 1747 
Q 353 2603 823 3093 
Q 1294 3584 2113 3584 
Q 2378 3584 2631 3529 
Q 2884 3475 3122 3366 
z
" transform="scale(0.015625)"/>
      </defs>
      <use xlink:href="#DejaVuSans-4c"/>
      <use xlink:href="#DejaVuSans-6f" x="53.962891"/>
      <use xlink:href="#DejaVuSans-67" x="115.144531"/>
      <use xlink:href="#DejaVuSans-61" x="178.621094"/>
      <use xlink:href="#DejaVuSans-72" x="239.900391"/>
      <use xlink:href="#DejaVuSans-69" x="281.013672"/>
      <use xlink:href="#DejaVuSans-74" x="308.796875"/>
      <use xlink:href="#DejaVuSans-68" x="348.005859"/>
      <use xlink:href="#DejaVuSans-6d" x="411.384766"/>
      <use xlink:href="#DejaVuSans-69" x="508.796875"/>
      <use xlink:href="#DejaVuSans-63" x="536.580078"/>
      <use xlink:href="#DejaVuSans-20" x="591.560547"/>
      <use xlink:href="#DejaVuSans-54" x="623.347656"/>
      <use xlink:href="#DejaVuSans-72" x="669.681641"/>
      <use xlink:href="#DejaVuSans-65" x="708.544922"/>
      <use xlink:href="#DejaVuSans-6e" x="770.068359"/>
      <use xlink:href="#DejaVuSans-64" x="833.447266"/>
      <use xlink:href="#DejaVuSans-6c" x="896.923828"/>
      <use xlink:href="#DejaVuSans-69" x="924.707031"/>
      <use xlink:href="#DejaVuSans-6e" x="952.490234"/>
      <use xlink:href="#DejaVuSans-65" x="1015.869141"/>
     </g>
    </g>
   </g>
  </g>
 </g>
 <defs>
  <clipPath id="p8ba775cbdb">
   <rect x="51.323438" y="-0" width="357.12" height="266.112"/>
  </clipPath>
 </defs>
</svg>
