<?xml version="1.0" encoding="utf-8" standalone="no"?>
<!DOCTYPE svg PUBLIC "-//W3C//DTD SVG 1.1//EN"
  "http://www.w3.org/Graphics/SVG/1.1/DTD/svg11.dtd">
<svg xmlns:xlink="http://www.w3.org/1999/xlink" width="402.080938pt" height="286.790125pt" viewBox="0 0 402.080938 286.790125" xmlns="http://www.w3.org/2000/svg" version="1.1">
 <metadata>
  <rdf:RDF xmlns:dc="http://purl.org/dc/elements/1.1/" xmlns:cc="http://creativecommons.org/ns#" xmlns:rdf="http://www.w3.org/1999/02/22-rdf-syntax-ns#">
   <cc:Work>
    <dc:type rdf:resource="http://purl.org/dc/dcmitype/StillImage"/>
    <dc:date>2023-06-13T21:10:28.658041</dc:date>
    <dc:format>image/svg+xml</dc:format>
    <dc:creator>
     <cc:Agent>
      <dc:title>Matplotlib v3.5.2, https://matplotlib.org/</dc:title>
     </cc:Agent>
    </dc:creator>
   </cc:Work>
  </rdf:RDF>
 </metadata>
 <defs>
  <style type="text/css">*{stroke-linejoin: round; stroke-linecap: butt}</style>
 </defs>
 <g id="figure_1">
  <g id="patch_1">
   <path d="M 0 286.790125 
L 402.080938 286.790125 
L 402.080938 -0 
L 0 -0 
z
" style="fill: #ffffff"/>
  </g>
  <g id="axes_1">
   <g id="patch_2">
    <path d="M 44.960938 266.112 
L 402.080938 266.112 
L 402.080938 -0 
L 44.960938 -0 
z
" style="fill: #ffffff"/>
   </g>
   <g id="matplotlib.axis_1">
    <g id="xtick_1">
     <g id="line2d_1">
      <path d="M 63.801332 266.112 
L 63.801332 -0 
" clip-path="url(#p73aa082ac8)" style="fill: none; stroke: #b0b0b0; stroke-width: 0.8; stroke-linecap: square"/>
     </g>
     <g id="line2d_2">
      <defs>
       <path id="mfdb3e261cc" d="M 0 0 
L 0 3.5 
" style="stroke: #000000; stroke-width: 0.8"/>
      </defs>
      <g>
       <use xlink:href="#mfdb3e261cc" x="63.801332" y="266.112" style="stroke: #000000; stroke-width: 0.8"/>
      </g>
     </g>
    </g>
    <g id="xtick_2">
     <g id="line2d_3">
      <path d="M 70.320499 266.112 
L 70.320499 -0 
" clip-path="url(#p73aa082ac8)" style="fill: none; stroke: #b0b0b0; stroke-width: 0.8; stroke-linecap: square"/>
     </g>
     <g id="line2d_4">
      <g>
       <use xlink:href="#mfdb3e261cc" x="70.320499" y="266.112" style="stroke: #000000; stroke-width: 0.8"/>
      </g>
     </g>
    </g>
    <g id="xtick_3">
     <g id="line2d_5">
      <path d="M 76.839667 266.112 
L 76.839667 -0 
" clip-path="url(#p73aa082ac8)" style="fill: none; stroke: #b0b0b0; stroke-width: 0.8; stroke-linecap: square"/>
     </g>
     <g id="line2d_6">
      <g>
       <use xlink:href="#mfdb3e261cc" x="76.839667" y="266.112" style="stroke: #000000; stroke-width: 0.8"/>
      </g>
     </g>
    </g>
    <g id="xtick_4">
     <g id="line2d_7">
      <path d="M 83.358835 266.112 
L 83.358835 -0 
" clip-path="url(#p73aa082ac8)" style="fill: none; stroke: #b0b0b0; stroke-width: 0.8; stroke-linecap: square"/>
     </g>
     <g id="line2d_8">
      <g>
       <use xlink:href="#mfdb3e261cc" x="83.358835" y="266.112" style="stroke: #000000; stroke-width: 0.8"/>
      </g>
     </g>
    </g>
    <g id="xtick_5">
     <g id="line2d_9">
      <path d="M 89.878002 266.112 
L 89.878002 -0 
" clip-path="url(#p73aa082ac8)" style="fill: none; stroke: #b0b0b0; stroke-width: 0.8; stroke-linecap: square"/>
     </g>
     <g id="line2d_10">
      <g>
       <use xlink:href="#mfdb3e261cc" x="89.878002" y="266.112" style="stroke: #000000; stroke-width: 0.8"/>
      </g>
     </g>
    </g>
    <g id="xtick_6">
     <g id="line2d_11">
      <path d="M 96.39717 266.112 
L 96.39717 -0 
" clip-path="url(#p73aa082ac8)" style="fill: none; stroke: #b0b0b0; stroke-width: 0.8; stroke-linecap: square"/>
     </g>
     <g id="line2d_12">
      <g>
       <use xlink:href="#mfdb3e261cc" x="96.39717" y="266.112" style="stroke: #000000; stroke-width: 0.8"/>
      </g>
     </g>
    </g>
    <g id="xtick_7">
     <g id="line2d_13">
      <path d="M 102.916337 266.112 
L 102.916337 -0 
" clip-path="url(#p73aa082ac8)" style="fill: none; stroke: #b0b0b0; stroke-width: 0.8; stroke-linecap: square"/>
     </g>
     <g id="line2d_14">
      <g>
       <use xlink:href="#mfdb3e261cc" x="102.916337" y="266.112" style="stroke: #000000; stroke-width: 0.8"/>
      </g>
     </g>
    </g>
    <g id="xtick_8">
     <g id="line2d_15">
      <path d="M 109.435505 266.112 
L 109.435505 -0 
" clip-path="url(#p73aa082ac8)" style="fill: none; stroke: #b0b0b0; stroke-width: 0.8; stroke-linecap: square"/>
     </g>
     <g id="line2d_16">
      <g>
       <use xlink:href="#mfdb3e261cc" x="109.435505" y="266.112" style="stroke: #000000; stroke-width: 0.8"/>
      </g>
     </g>
    </g>
    <g id="xtick_9">
     <g id="line2d_17">
      <path d="M 115.954672 266.112 
L 115.954672 -0 
" clip-path="url(#p73aa082ac8)" style="fill: none; stroke: #b0b0b0; stroke-width: 0.8; stroke-linecap: square"/>
     </g>
     <g id="line2d_18">
      <g>
       <use xlink:href="#mfdb3e261cc" x="115.954672" y="266.112" style="stroke: #000000; stroke-width: 0.8"/>
      </g>
     </g>
    </g>
    <g id="xtick_10">
     <g id="line2d_19">
      <path d="M 122.47384 266.112 
L 122.47384 -0 
" clip-path="url(#p73aa082ac8)" style="fill: none; stroke: #b0b0b0; stroke-width: 0.8; stroke-linecap: square"/>
     </g>
     <g id="line2d_20">
      <g>
       <use xlink:href="#mfdb3e261cc" x="122.47384" y="266.112" style="stroke: #000000; stroke-width: 0.8"/>
      </g>
     </g>
    </g>
    <g id="xtick_11">
     <g id="line2d_21">
      <path d="M 128.993008 266.112 
L 128.993008 -0 
" clip-path="url(#p73aa082ac8)" style="fill: none; stroke: #b0b0b0; stroke-width: 0.8; stroke-linecap: square"/>
     </g>
     <g id="line2d_22">
      <g>
       <use xlink:href="#mfdb3e261cc" x="128.993008" y="266.112" style="stroke: #000000; stroke-width: 0.8"/>
      </g>
     </g>
    </g>
    <g id="xtick_12">
     <g id="line2d_23">
      <path d="M 135.512175 266.112 
L 135.512175 -0 
" clip-path="url(#p73aa082ac8)" style="fill: none; stroke: #b0b0b0; stroke-width: 0.8; stroke-linecap: square"/>
     </g>
     <g id="line2d_24">
      <g>
       <use xlink:href="#mfdb3e261cc" x="135.512175" y="266.112" style="stroke: #000000; stroke-width: 0.8"/>
      </g>
     </g>
    </g>
    <g id="xtick_13">
     <g id="line2d_25">
      <path d="M 142.031343 266.112 
L 142.031343 -0 
" clip-path="url(#p73aa082ac8)" style="fill: none; stroke: #b0b0b0; stroke-width: 0.8; stroke-linecap: square"/>
     </g>
     <g id="line2d_26">
      <g>
       <use xlink:href="#mfdb3e261cc" x="142.031343" y="266.112" style="stroke: #000000; stroke-width: 0.8"/>
      </g>
     </g>
    </g>
    <g id="xtick_14">
     <g id="line2d_27">
      <path d="M 148.55051 266.112 
L 148.55051 -0 
" clip-path="url(#p73aa082ac8)" style="fill: none; stroke: #b0b0b0; stroke-width: 0.8; stroke-linecap: square"/>
     </g>
     <g id="line2d_28">
      <g>
       <use xlink:href="#mfdb3e261cc" x="148.55051" y="266.112" style="stroke: #000000; stroke-width: 0.8"/>
      </g>
     </g>
    </g>
    <g id="xtick_15">
     <g id="line2d_29">
      <path d="M 155.069678 266.112 
L 155.069678 -0 
" clip-path="url(#p73aa082ac8)" style="fill: none; stroke: #b0b0b0; stroke-width: 0.8; stroke-linecap: square"/>
     </g>
     <g id="line2d_30">
      <g>
       <use xlink:href="#mfdb3e261cc" x="155.069678" y="266.112" style="stroke: #000000; stroke-width: 0.8"/>
      </g>
     </g>
    </g>
    <g id="xtick_16">
     <g id="line2d_31">
      <path d="M 161.588845 266.112 
L 161.588845 -0 
" clip-path="url(#p73aa082ac8)" style="fill: none; stroke: #b0b0b0; stroke-width: 0.8; stroke-linecap: square"/>
     </g>
     <g id="line2d_32">
      <g>
       <use xlink:href="#mfdb3e261cc" x="161.588845" y="266.112" style="stroke: #000000; stroke-width: 0.8"/>
      </g>
     </g>
    </g>
    <g id="xtick_17">
     <g id="line2d_33">
      <path d="M 168.108013 266.112 
L 168.108013 -0 
" clip-path="url(#p73aa082ac8)" style="fill: none; stroke: #b0b0b0; stroke-width: 0.8; stroke-linecap: square"/>
     </g>
     <g id="line2d_34">
      <g>
       <use xlink:href="#mfdb3e261cc" x="168.108013" y="266.112" style="stroke: #000000; stroke-width: 0.8"/>
      </g>
     </g>
    </g>
    <g id="xtick_18">
     <g id="line2d_35">
      <path d="M 174.627181 266.112 
L 174.627181 -0 
" clip-path="url(#p73aa082ac8)" style="fill: none; stroke: #b0b0b0; stroke-width: 0.8; stroke-linecap: square"/>
     </g>
     <g id="line2d_36">
      <g>
       <use xlink:href="#mfdb3e261cc" x="174.627181" y="266.112" style="stroke: #000000; stroke-width: 0.8"/>
      </g>
     </g>
    </g>
    <g id="xtick_19">
     <g id="line2d_37">
      <path d="M 181.146348 266.112 
L 181.146348 -0 
" clip-path="url(#p73aa082ac8)" style="fill: none; stroke: #b0b0b0; stroke-width: 0.8; stroke-linecap: square"/>
     </g>
     <g id="line2d_38">
      <g>
       <use xlink:href="#mfdb3e261cc" x="181.146348" y="266.112" style="stroke: #000000; stroke-width: 0.8"/>
      </g>
     </g>
    </g>
    <g id="xtick_20">
     <g id="line2d_39">
      <path d="M 187.665516 266.112 
L 187.665516 -0 
" clip-path="url(#p73aa082ac8)" style="fill: none; stroke: #b0b0b0; stroke-width: 0.8; stroke-linecap: square"/>
     </g>
     <g id="line2d_40">
      <g>
       <use xlink:href="#mfdb3e261cc" x="187.665516" y="266.112" style="stroke: #000000; stroke-width: 0.8"/>
      </g>
     </g>
    </g>
    <g id="xtick_21">
     <g id="line2d_41">
      <path d="M 194.184683 266.112 
L 194.184683 -0 
" clip-path="url(#p73aa082ac8)" style="fill: none; stroke: #b0b0b0; stroke-width: 0.8; stroke-linecap: square"/>
     </g>
     <g id="line2d_42">
      <g>
       <use xlink:href="#mfdb3e261cc" x="194.184683" y="266.112" style="stroke: #000000; stroke-width: 0.8"/>
      </g>
     </g>
    </g>
    <g id="xtick_22">
     <g id="line2d_43">
      <path d="M 200.703851 266.112 
L 200.703851 -0 
" clip-path="url(#p73aa082ac8)" style="fill: none; stroke: #b0b0b0; stroke-width: 0.8; stroke-linecap: square"/>
     </g>
     <g id="line2d_44">
      <g>
       <use xlink:href="#mfdb3e261cc" x="200.703851" y="266.112" style="stroke: #000000; stroke-width: 0.8"/>
      </g>
     </g>
    </g>
    <g id="xtick_23">
     <g id="line2d_45">
      <path d="M 207.223019 266.112 
L 207.223019 -0 
" clip-path="url(#p73aa082ac8)" style="fill: none; stroke: #b0b0b0; stroke-width: 0.8; stroke-linecap: square"/>
     </g>
     <g id="line2d_46">
      <g>
       <use xlink:href="#mfdb3e261cc" x="207.223019" y="266.112" style="stroke: #000000; stroke-width: 0.8"/>
      </g>
     </g>
    </g>
    <g id="xtick_24">
     <g id="line2d_47">
      <path d="M 213.742186 266.112 
L 213.742186 -0 
" clip-path="url(#p73aa082ac8)" style="fill: none; stroke: #b0b0b0; stroke-width: 0.8; stroke-linecap: square"/>
     </g>
     <g id="line2d_48">
      <g>
       <use xlink:href="#mfdb3e261cc" x="213.742186" y="266.112" style="stroke: #000000; stroke-width: 0.8"/>
      </g>
     </g>
    </g>
    <g id="xtick_25">
     <g id="line2d_49">
      <path d="M 220.261354 266.112 
L 220.261354 -0 
" clip-path="url(#p73aa082ac8)" style="fill: none; stroke: #b0b0b0; stroke-width: 0.8; stroke-linecap: square"/>
     </g>
     <g id="line2d_50">
      <g>
       <use xlink:href="#mfdb3e261cc" x="220.261354" y="266.112" style="stroke: #000000; stroke-width: 0.8"/>
      </g>
     </g>
    </g>
    <g id="xtick_26">
     <g id="line2d_51">
      <path d="M 226.780521 266.112 
L 226.780521 -0 
" clip-path="url(#p73aa082ac8)" style="fill: none; stroke: #b0b0b0; stroke-width: 0.8; stroke-linecap: square"/>
     </g>
     <g id="line2d_52">
      <g>
       <use xlink:href="#mfdb3e261cc" x="226.780521" y="266.112" style="stroke: #000000; stroke-width: 0.8"/>
      </g>
     </g>
    </g>
    <g id="xtick_27">
     <g id="line2d_53">
      <path d="M 233.299689 266.112 
L 233.299689 -0 
" clip-path="url(#p73aa082ac8)" style="fill: none; stroke: #b0b0b0; stroke-width: 0.8; stroke-linecap: square"/>
     </g>
     <g id="line2d_54">
      <g>
       <use xlink:href="#mfdb3e261cc" x="233.299689" y="266.112" style="stroke: #000000; stroke-width: 0.8"/>
      </g>
     </g>
    </g>
    <g id="xtick_28">
     <g id="line2d_55">
      <path d="M 239.818856 266.112 
L 239.818856 -0 
" clip-path="url(#p73aa082ac8)" style="fill: none; stroke: #b0b0b0; stroke-width: 0.8; stroke-linecap: square"/>
     </g>
     <g id="line2d_56">
      <g>
       <use xlink:href="#mfdb3e261cc" x="239.818856" y="266.112" style="stroke: #000000; stroke-width: 0.8"/>
      </g>
     </g>
    </g>
    <g id="xtick_29">
     <g id="line2d_57">
      <path d="M 246.338024 266.112 
L 246.338024 -0 
" clip-path="url(#p73aa082ac8)" style="fill: none; stroke: #b0b0b0; stroke-width: 0.8; stroke-linecap: square"/>
     </g>
     <g id="line2d_58">
      <g>
       <use xlink:href="#mfdb3e261cc" x="246.338024" y="266.112" style="stroke: #000000; stroke-width: 0.8"/>
      </g>
     </g>
    </g>
    <g id="xtick_30">
     <g id="line2d_59">
      <path d="M 252.857192 266.112 
L 252.857192 -0 
" clip-path="url(#p73aa082ac8)" style="fill: none; stroke: #b0b0b0; stroke-width: 0.8; stroke-linecap: square"/>
     </g>
     <g id="line2d_60">
      <g>
       <use xlink:href="#mfdb3e261cc" x="252.857192" y="266.112" style="stroke: #000000; stroke-width: 0.8"/>
      </g>
     </g>
    </g>
    <g id="xtick_31">
     <g id="line2d_61">
      <path d="M 259.376359 266.112 
L 259.376359 -0 
" clip-path="url(#p73aa082ac8)" style="fill: none; stroke: #b0b0b0; stroke-width: 0.8; stroke-linecap: square"/>
     </g>
     <g id="line2d_62">
      <g>
       <use xlink:href="#mfdb3e261cc" x="259.376359" y="266.112" style="stroke: #000000; stroke-width: 0.8"/>
      </g>
     </g>
    </g>
    <g id="xtick_32">
     <g id="line2d_63">
      <path d="M 265.895527 266.112 
L 265.895527 -0 
" clip-path="url(#p73aa082ac8)" style="fill: none; stroke: #b0b0b0; stroke-width: 0.8; stroke-linecap: square"/>
     </g>
     <g id="line2d_64">
      <g>
       <use xlink:href="#mfdb3e261cc" x="265.895527" y="266.112" style="stroke: #000000; stroke-width: 0.8"/>
      </g>
     </g>
    </g>
    <g id="xtick_33">
     <g id="line2d_65">
      <path d="M 272.414694 266.112 
L 272.414694 -0 
" clip-path="url(#p73aa082ac8)" style="fill: none; stroke: #b0b0b0; stroke-width: 0.8; stroke-linecap: square"/>
     </g>
     <g id="line2d_66">
      <g>
       <use xlink:href="#mfdb3e261cc" x="272.414694" y="266.112" style="stroke: #000000; stroke-width: 0.8"/>
      </g>
     </g>
    </g>
    <g id="xtick_34">
     <g id="line2d_67">
      <path d="M 278.933862 266.112 
L 278.933862 -0 
" clip-path="url(#p73aa082ac8)" style="fill: none; stroke: #b0b0b0; stroke-width: 0.8; stroke-linecap: square"/>
     </g>
     <g id="line2d_68">
      <g>
       <use xlink:href="#mfdb3e261cc" x="278.933862" y="266.112" style="stroke: #000000; stroke-width: 0.8"/>
      </g>
     </g>
    </g>
    <g id="xtick_35">
     <g id="line2d_69">
      <path d="M 285.45303 266.112 
L 285.45303 -0 
" clip-path="url(#p73aa082ac8)" style="fill: none; stroke: #b0b0b0; stroke-width: 0.8; stroke-linecap: square"/>
     </g>
     <g id="line2d_70">
      <g>
       <use xlink:href="#mfdb3e261cc" x="285.45303" y="266.112" style="stroke: #000000; stroke-width: 0.8"/>
      </g>
     </g>
    </g>
    <g id="xtick_36">
     <g id="line2d_71">
      <path d="M 291.972197 266.112 
L 291.972197 -0 
" clip-path="url(#p73aa082ac8)" style="fill: none; stroke: #b0b0b0; stroke-width: 0.8; stroke-linecap: square"/>
     </g>
     <g id="line2d_72">
      <g>
       <use xlink:href="#mfdb3e261cc" x="291.972197" y="266.112" style="stroke: #000000; stroke-width: 0.8"/>
      </g>
     </g>
    </g>
    <g id="xtick_37">
     <g id="line2d_73">
      <path d="M 298.491365 266.112 
L 298.491365 -0 
" clip-path="url(#p73aa082ac8)" style="fill: none; stroke: #b0b0b0; stroke-width: 0.8; stroke-linecap: square"/>
     </g>
     <g id="line2d_74">
      <g>
       <use xlink:href="#mfdb3e261cc" x="298.491365" y="266.112" style="stroke: #000000; stroke-width: 0.8"/>
      </g>
     </g>
    </g>
    <g id="xtick_38">
     <g id="line2d_75">
      <path d="M 305.010532 266.112 
L 305.010532 -0 
" clip-path="url(#p73aa082ac8)" style="fill: none; stroke: #b0b0b0; stroke-width: 0.8; stroke-linecap: square"/>
     </g>
     <g id="line2d_76">
      <g>
       <use xlink:href="#mfdb3e261cc" x="305.010532" y="266.112" style="stroke: #000000; stroke-width: 0.8"/>
      </g>
     </g>
    </g>
    <g id="xtick_39">
     <g id="line2d_77">
      <path d="M 311.5297 266.112 
L 311.5297 -0 
" clip-path="url(#p73aa082ac8)" style="fill: none; stroke: #b0b0b0; stroke-width: 0.8; stroke-linecap: square"/>
     </g>
     <g id="line2d_78">
      <g>
       <use xlink:href="#mfdb3e261cc" x="311.5297" y="266.112" style="stroke: #000000; stroke-width: 0.8"/>
      </g>
     </g>
    </g>
    <g id="xtick_40">
     <g id="line2d_79">
      <path d="M 318.048867 266.112 
L 318.048867 -0 
" clip-path="url(#p73aa082ac8)" style="fill: none; stroke: #b0b0b0; stroke-width: 0.8; stroke-linecap: square"/>
     </g>
     <g id="line2d_80">
      <g>
       <use xlink:href="#mfdb3e261cc" x="318.048867" y="266.112" style="stroke: #000000; stroke-width: 0.8"/>
      </g>
     </g>
    </g>
    <g id="xtick_41">
     <g id="line2d_81">
      <path d="M 324.568035 266.112 
L 324.568035 -0 
" clip-path="url(#p73aa082ac8)" style="fill: none; stroke: #b0b0b0; stroke-width: 0.8; stroke-linecap: square"/>
     </g>
     <g id="line2d_82">
      <g>
       <use xlink:href="#mfdb3e261cc" x="324.568035" y="266.112" style="stroke: #000000; stroke-width: 0.8"/>
      </g>
     </g>
    </g>
    <g id="xtick_42">
     <g id="line2d_83">
      <path d="M 331.087203 266.112 
L 331.087203 -0 
" clip-path="url(#p73aa082ac8)" style="fill: none; stroke: #b0b0b0; stroke-width: 0.8; stroke-linecap: square"/>
     </g>
     <g id="line2d_84">
      <g>
       <use xlink:href="#mfdb3e261cc" x="331.087203" y="266.112" style="stroke: #000000; stroke-width: 0.8"/>
      </g>
     </g>
    </g>
    <g id="xtick_43">
     <g id="line2d_85">
      <path d="M 337.60637 266.112 
L 337.60637 -0 
" clip-path="url(#p73aa082ac8)" style="fill: none; stroke: #b0b0b0; stroke-width: 0.8; stroke-linecap: square"/>
     </g>
     <g id="line2d_86">
      <g>
       <use xlink:href="#mfdb3e261cc" x="337.60637" y="266.112" style="stroke: #000000; stroke-width: 0.8"/>
      </g>
     </g>
    </g>
    <g id="xtick_44">
     <g id="line2d_87">
      <path d="M 344.125538 266.112 
L 344.125538 -0 
" clip-path="url(#p73aa082ac8)" style="fill: none; stroke: #b0b0b0; stroke-width: 0.8; stroke-linecap: square"/>
     </g>
     <g id="line2d_88">
      <g>
       <use xlink:href="#mfdb3e261cc" x="344.125538" y="266.112" style="stroke: #000000; stroke-width: 0.8"/>
      </g>
     </g>
    </g>
    <g id="xtick_45">
     <g id="line2d_89">
      <path d="M 350.644705 266.112 
L 350.644705 -0 
" clip-path="url(#p73aa082ac8)" style="fill: none; stroke: #b0b0b0; stroke-width: 0.8; stroke-linecap: square"/>
     </g>
     <g id="line2d_90">
      <g>
       <use xlink:href="#mfdb3e261cc" x="350.644705" y="266.112" style="stroke: #000000; stroke-width: 0.8"/>
      </g>
     </g>
    </g>
    <g id="xtick_46">
     <g id="line2d_91">
      <path d="M 357.163873 266.112 
L 357.163873 -0 
" clip-path="url(#p73aa082ac8)" style="fill: none; stroke: #b0b0b0; stroke-width: 0.8; stroke-linecap: square"/>
     </g>
     <g id="line2d_92">
      <g>
       <use xlink:href="#mfdb3e261cc" x="357.163873" y="266.112" style="stroke: #000000; stroke-width: 0.8"/>
      </g>
     </g>
    </g>
    <g id="xtick_47">
     <g id="line2d_93">
      <path d="M 363.68304 266.112 
L 363.68304 -0 
" clip-path="url(#p73aa082ac8)" style="fill: none; stroke: #b0b0b0; stroke-width: 0.8; stroke-linecap: square"/>
     </g>
     <g id="line2d_94">
      <g>
       <use xlink:href="#mfdb3e261cc" x="363.68304" y="266.112" style="stroke: #000000; stroke-width: 0.8"/>
      </g>
     </g>
    </g>
    <g id="xtick_48">
     <g id="line2d_95">
      <path d="M 370.202208 266.112 
L 370.202208 -0 
" clip-path="url(#p73aa082ac8)" style="fill: none; stroke: #b0b0b0; stroke-width: 0.8; stroke-linecap: square"/>
     </g>
     <g id="line2d_96">
      <g>
       <use xlink:href="#mfdb3e261cc" x="370.202208" y="266.112" style="stroke: #000000; stroke-width: 0.8"/>
      </g>
     </g>
    </g>
    <g id="xtick_49">
     <g id="line2d_97">
      <path d="M 376.721376 266.112 
L 376.721376 -0 
" clip-path="url(#p73aa082ac8)" style="fill: none; stroke: #b0b0b0; stroke-width: 0.8; stroke-linecap: square"/>
     </g>
     <g id="line2d_98">
      <g>
       <use xlink:href="#mfdb3e261cc" x="376.721376" y="266.112" style="stroke: #000000; stroke-width: 0.8"/>
      </g>
     </g>
    </g>
    <g id="xtick_50">
     <g id="line2d_99">
      <path d="M 383.240543 266.112 
L 383.240543 -0 
" clip-path="url(#p73aa082ac8)" style="fill: none; stroke: #b0b0b0; stroke-width: 0.8; stroke-linecap: square"/>
     </g>
     <g id="line2d_100">
      <g>
       <use xlink:href="#mfdb3e261cc" x="383.240543" y="266.112" style="stroke: #000000; stroke-width: 0.8"/>
      </g>
     </g>
    </g>
    <g id="text_1">
     <!-- Individual Eddies [-] -->
     <g transform="translate(173.707656 284.710437)scale(0.1 -0.1)">
      <defs>
       <path id="DejaVuSans-49" d="M 628 4666 
L 1259 4666 
L 1259 0 
L 628 0 
L 628 4666 
z
" transform="scale(0.015625)"/>
       <path id="DejaVuSans-6e" d="M 3513 2113 
L 3513 0 
L 2938 0 
L 2938 2094 
Q 2938 2591 2744 2837 
Q 2550 3084 2163 3084 
Q 1697 3084 1428 2787 
Q 1159 2491 1159 1978 
L 1159 0 
L 581 0 
L 581 3500 
L 1159 3500 
L 1159 2956 
Q 1366 3272 1645 3428 
Q 1925 3584 2291 3584 
Q 2894 3584 3203 3211 
Q 3513 2838 3513 2113 
z
" transform="scale(0.015625)"/>
       <path id="DejaVuSans-64" d="M 2906 2969 
L 2906 4863 
L 3481 4863 
L 3481 0 
L 2906 0 
L 2906 525 
Q 2725 213 2448 61 
Q 2172 -91 1784 -91 
Q 1150 -91 751 415 
Q 353 922 353 1747 
Q 353 2572 751 3078 
Q 1150 3584 1784 3584 
Q 2172 3584 2448 3432 
Q 2725 3281 2906 2969 
z
M 947 1747 
Q 947 1113 1208 752 
Q 1469 391 1925 391 
Q 2381 391 2643 752 
Q 2906 1113 2906 1747 
Q 2906 2381 2643 2742 
Q 2381 3103 1925 3103 
Q 1469 3103 1208 2742 
Q 947 2381 947 1747 
z
" transform="scale(0.015625)"/>
       <path id="DejaVuSans-69" d="M 603 3500 
L 1178 3500 
L 1178 0 
L 603 0 
L 603 3500 
z
M 603 4863 
L 1178 4863 
L 1178 4134 
L 603 4134 
L 603 4863 
z
" transform="scale(0.015625)"/>
       <path id="DejaVuSans-76" d="M 191 3500 
L 800 3500 
L 1894 563 
L 2988 3500 
L 3597 3500 
L 2284 0 
L 1503 0 
L 191 3500 
z
" transform="scale(0.015625)"/>
       <path id="DejaVuSans-75" d="M 544 1381 
L 544 3500 
L 1119 3500 
L 1119 1403 
Q 1119 906 1312 657 
Q 1506 409 1894 409 
Q 2359 409 2629 706 
Q 2900 1003 2900 1516 
L 2900 3500 
L 3475 3500 
L 3475 0 
L 2900 0 
L 2900 538 
Q 2691 219 2414 64 
Q 2138 -91 1772 -91 
Q 1169 -91 856 284 
Q 544 659 544 1381 
z
M 1991 3584 
L 1991 3584 
z
" transform="scale(0.015625)"/>
       <path id="DejaVuSans-61" d="M 2194 1759 
Q 1497 1759 1228 1600 
Q 959 1441 959 1056 
Q 959 750 1161 570 
Q 1363 391 1709 391 
Q 2188 391 2477 730 
Q 2766 1069 2766 1631 
L 2766 1759 
L 2194 1759 
z
M 3341 1997 
L 3341 0 
L 2766 0 
L 2766 531 
Q 2569 213 2275 61 
Q 1981 -91 1556 -91 
Q 1019 -91 701 211 
Q 384 513 384 1019 
Q 384 1609 779 1909 
Q 1175 2209 1959 2209 
L 2766 2209 
L 2766 2266 
Q 2766 2663 2505 2880 
Q 2244 3097 1772 3097 
Q 1472 3097 1187 3025 
Q 903 2953 641 2809 
L 641 3341 
Q 956 3463 1253 3523 
Q 1550 3584 1831 3584 
Q 2591 3584 2966 3190 
Q 3341 2797 3341 1997 
z
" transform="scale(0.015625)"/>
       <path id="DejaVuSans-6c" d="M 603 4863 
L 1178 4863 
L 1178 0 
L 603 0 
L 603 4863 
z
" transform="scale(0.015625)"/>
       <path id="DejaVuSans-20" transform="scale(0.015625)"/>
       <path id="DejaVuSans-45" d="M 628 4666 
L 3578 4666 
L 3578 4134 
L 1259 4134 
L 1259 2753 
L 3481 2753 
L 3481 2222 
L 1259 2222 
L 1259 531 
L 3634 531 
L 3634 0 
L 628 0 
L 628 4666 
z
" transform="scale(0.015625)"/>
       <path id="DejaVuSans-65" d="M 3597 1894 
L 3597 1613 
L 953 1613 
Q 991 1019 1311 708 
Q 1631 397 2203 397 
Q 2534 397 2845 478 
Q 3156 559 3463 722 
L 3463 178 
Q 3153 47 2828 -22 
Q 2503 -91 2169 -91 
Q 1331 -91 842 396 
Q 353 884 353 1716 
Q 353 2575 817 3079 
Q 1281 3584 2069 3584 
Q 2775 3584 3186 3129 
Q 3597 2675 3597 1894 
z
M 3022 2063 
Q 3016 2534 2758 2815 
Q 2500 3097 2075 3097 
Q 1594 3097 1305 2825 
Q 1016 2553 972 2059 
L 3022 2063 
z
" transform="scale(0.015625)"/>
       <path id="DejaVuSans-73" d="M 2834 3397 
L 2834 2853 
Q 2591 2978 2328 3040 
Q 2066 3103 1784 3103 
Q 1356 3103 1142 2972 
Q 928 2841 928 2578 
Q 928 2378 1081 2264 
Q 1234 2150 1697 2047 
L 1894 2003 
Q 2506 1872 2764 1633 
Q 3022 1394 3022 966 
Q 3022 478 2636 193 
Q 2250 -91 1575 -91 
Q 1294 -91 989 -36 
Q 684 19 347 128 
L 347 722 
Q 666 556 975 473 
Q 1284 391 1588 391 
Q 1994 391 2212 530 
Q 2431 669 2431 922 
Q 2431 1156 2273 1281 
Q 2116 1406 1581 1522 
L 1381 1569 
Q 847 1681 609 1914 
Q 372 2147 372 2553 
Q 372 3047 722 3315 
Q 1072 3584 1716 3584 
Q 2034 3584 2315 3537 
Q 2597 3491 2834 3397 
z
" transform="scale(0.015625)"/>
       <path id="DejaVuSans-5b" d="M 550 4863 
L 1875 4863 
L 1875 4416 
L 1125 4416 
L 1125 -397 
L 1875 -397 
L 1875 -844 
L 550 -844 
L 550 4863 
z
" transform="scale(0.015625)"/>
       <path id="DejaVuSans-2d" d="M 313 2009 
L 1997 2009 
L 1997 1497 
L 313 1497 
L 313 2009 
z
" transform="scale(0.015625)"/>
       <path id="DejaVuSans-5d" d="M 1947 4863 
L 1947 -844 
L 622 -844 
L 622 -397 
L 1369 -397 
L 1369 4416 
L 622 4416 
L 622 4863 
L 1947 4863 
z
" transform="scale(0.015625)"/>
      </defs>
      <use xlink:href="#DejaVuSans-49"/>
      <use xlink:href="#DejaVuSans-6e" x="29.492188"/>
      <use xlink:href="#DejaVuSans-64" x="92.871094"/>
      <use xlink:href="#DejaVuSans-69" x="156.347656"/>
      <use xlink:href="#DejaVuSans-76" x="184.130859"/>
      <use xlink:href="#DejaVuSans-69" x="243.310547"/>
      <use xlink:href="#DejaVuSans-64" x="271.09375"/>
      <use xlink:href="#DejaVuSans-75" x="334.570312"/>
      <use xlink:href="#DejaVuSans-61" x="397.949219"/>
      <use xlink:href="#DejaVuSans-6c" x="459.228516"/>
      <use xlink:href="#DejaVuSans-20" x="487.011719"/>
      <use xlink:href="#DejaVuSans-45" x="518.798828"/>
      <use xlink:href="#DejaVuSans-64" x="581.982422"/>
      <use xlink:href="#DejaVuSans-64" x="645.458984"/>
      <use xlink:href="#DejaVuSans-69" x="708.935547"/>
      <use xlink:href="#DejaVuSans-65" x="736.71875"/>
      <use xlink:href="#DejaVuSans-73" x="798.242188"/>
      <use xlink:href="#DejaVuSans-20" x="850.341797"/>
      <use xlink:href="#DejaVuSans-5b" x="882.128906"/>
      <use xlink:href="#DejaVuSans-2d" x="921.142578"/>
      <use xlink:href="#DejaVuSans-5d" x="957.226562"/>
     </g>
    </g>
   </g>
   <g id="matplotlib.axis_2">
    <g id="ytick_1">
     <g id="line2d_101">
      <path d="M 44.960938 225.068308 
L 402.080938 225.068308 
" clip-path="url(#p73aa082ac8)" style="fill: none; stroke: #b0b0b0; stroke-width: 0.8; stroke-linecap: square"/>
     </g>
     <g id="line2d_102">
      <defs>
       <path id="m1d021029a8" d="M 0 0 
L -3.5 0 
" style="stroke: #000000; stroke-width: 0.8"/>
      </defs>
      <g>
       <use xlink:href="#m1d021029a8" x="44.960938" y="225.068308" style="stroke: #000000; stroke-width: 0.8"/>
      </g>
     </g>
     <g id="text_2">
      <!-- −0.2 -->
      <g transform="translate(13.678125 228.867526)scale(0.1 -0.1)">
       <defs>
        <path id="DejaVuSans-2212" d="M 678 2272 
L 4684 2272 
L 4684 1741 
L 678 1741 
L 678 2272 
z
" transform="scale(0.015625)"/>
        <path id="DejaVuSans-30" d="M 2034 4250 
Q 1547 4250 1301 3770 
Q 1056 3291 1056 2328 
Q 1056 1369 1301 889 
Q 1547 409 2034 409 
Q 2525 409 2770 889 
Q 3016 1369 3016 2328 
Q 3016 3291 2770 3770 
Q 2525 4250 2034 4250 
z
M 2034 4750 
Q 2819 4750 3233 4129 
Q 3647 3509 3647 2328 
Q 3647 1150 3233 529 
Q 2819 -91 2034 -91 
Q 1250 -91 836 529 
Q 422 1150 422 2328 
Q 422 3509 836 4129 
Q 1250 4750 2034 4750 
z
" transform="scale(0.015625)"/>
        <path id="DejaVuSans-2e" d="M 684 794 
L 1344 794 
L 1344 0 
L 684 0 
L 684 794 
z
" transform="scale(0.015625)"/>
        <path id="DejaVuSans-32" d="M 1228 531 
L 3431 531 
L 3431 0 
L 469 0 
L 469 531 
Q 828 903 1448 1529 
Q 2069 2156 2228 2338 
Q 2531 2678 2651 2914 
Q 2772 3150 2772 3378 
Q 2772 3750 2511 3984 
Q 2250 4219 1831 4219 
Q 1534 4219 1204 4116 
Q 875 4013 500 3803 
L 500 4441 
Q 881 4594 1212 4672 
Q 1544 4750 1819 4750 
Q 2544 4750 2975 4387 
Q 3406 4025 3406 3419 
Q 3406 3131 3298 2873 
Q 3191 2616 2906 2266 
Q 2828 2175 2409 1742 
Q 1991 1309 1228 531 
z
" transform="scale(0.015625)"/>
       </defs>
       <use xlink:href="#DejaVuSans-2212"/>
       <use xlink:href="#DejaVuSans-30" x="83.789062"/>
       <use xlink:href="#DejaVuSans-2e" x="147.412109"/>
       <use xlink:href="#DejaVuSans-32" x="179.199219"/>
      </g>
     </g>
    </g>
    <g id="ytick_2">
     <g id="line2d_103">
      <path d="M 44.960938 183.714462 
L 402.080938 183.714462 
" clip-path="url(#p73aa082ac8)" style="fill: none; stroke: #b0b0b0; stroke-width: 0.8; stroke-linecap: square"/>
     </g>
     <g id="line2d_104">
      <g>
       <use xlink:href="#m1d021029a8" x="44.960938" y="183.714462" style="stroke: #000000; stroke-width: 0.8"/>
      </g>
     </g>
     <g id="text_3">
      <!-- 0.0 -->
      <g transform="translate(22.057813 187.51368)scale(0.1 -0.1)">
       <use xlink:href="#DejaVuSans-30"/>
       <use xlink:href="#DejaVuSans-2e" x="63.623047"/>
       <use xlink:href="#DejaVuSans-30" x="95.410156"/>
      </g>
     </g>
    </g>
    <g id="ytick_3">
     <g id="line2d_105">
      <path d="M 44.960938 142.360615 
L 402.080938 142.360615 
" clip-path="url(#p73aa082ac8)" style="fill: none; stroke: #b0b0b0; stroke-width: 0.8; stroke-linecap: square"/>
     </g>
     <g id="line2d_106">
      <g>
       <use xlink:href="#m1d021029a8" x="44.960938" y="142.360615" style="stroke: #000000; stroke-width: 0.8"/>
      </g>
     </g>
     <g id="text_4">
      <!-- 0.2 -->
      <g transform="translate(22.057813 146.159834)scale(0.1 -0.1)">
       <use xlink:href="#DejaVuSans-30"/>
       <use xlink:href="#DejaVuSans-2e" x="63.623047"/>
       <use xlink:href="#DejaVuSans-32" x="95.410156"/>
      </g>
     </g>
    </g>
    <g id="ytick_4">
     <g id="line2d_107">
      <path d="M 44.960938 101.006769 
L 402.080938 101.006769 
" clip-path="url(#p73aa082ac8)" style="fill: none; stroke: #b0b0b0; stroke-width: 0.8; stroke-linecap: square"/>
     </g>
     <g id="line2d_108">
      <g>
       <use xlink:href="#m1d021029a8" x="44.960938" y="101.006769" style="stroke: #000000; stroke-width: 0.8"/>
      </g>
     </g>
     <g id="text_5">
      <!-- 0.4 -->
      <g transform="translate(22.057813 104.805988)scale(0.1 -0.1)">
       <defs>
        <path id="DejaVuSans-34" d="M 2419 4116 
L 825 1625 
L 2419 1625 
L 2419 4116 
z
M 2253 4666 
L 3047 4666 
L 3047 1625 
L 3713 1625 
L 3713 1100 
L 3047 1100 
L 3047 0 
L 2419 0 
L 2419 1100 
L 313 1100 
L 313 1709 
L 2253 4666 
z
" transform="scale(0.015625)"/>
       </defs>
       <use xlink:href="#DejaVuSans-30"/>
       <use xlink:href="#DejaVuSans-2e" x="63.623047"/>
       <use xlink:href="#DejaVuSans-34" x="95.410156"/>
      </g>
     </g>
    </g>
    <g id="ytick_5">
     <g id="line2d_109">
      <path d="M 44.960938 59.652923 
L 402.080938 59.652923 
" clip-path="url(#p73aa082ac8)" style="fill: none; stroke: #b0b0b0; stroke-width: 0.8; stroke-linecap: square"/>
     </g>
     <g id="line2d_110">
      <g>
       <use xlink:href="#m1d021029a8" x="44.960938" y="59.652923" style="stroke: #000000; stroke-width: 0.8"/>
      </g>
     </g>
     <g id="text_6">
      <!-- 0.6 -->
      <g transform="translate(22.057813 63.452142)scale(0.1 -0.1)">
       <defs>
        <path id="DejaVuSans-36" d="M 2113 2584 
Q 1688 2584 1439 2293 
Q 1191 2003 1191 1497 
Q 1191 994 1439 701 
Q 1688 409 2113 409 
Q 2538 409 2786 701 
Q 3034 994 3034 1497 
Q 3034 2003 2786 2293 
Q 2538 2584 2113 2584 
z
M 3366 4563 
L 3366 3988 
Q 3128 4100 2886 4159 
Q 2644 4219 2406 4219 
Q 1781 4219 1451 3797 
Q 1122 3375 1075 2522 
Q 1259 2794 1537 2939 
Q 1816 3084 2150 3084 
Q 2853 3084 3261 2657 
Q 3669 2231 3669 1497 
Q 3669 778 3244 343 
Q 2819 -91 2113 -91 
Q 1303 -91 875 529 
Q 447 1150 447 2328 
Q 447 3434 972 4092 
Q 1497 4750 2381 4750 
Q 2619 4750 2861 4703 
Q 3103 4656 3366 4563 
z
" transform="scale(0.015625)"/>
       </defs>
       <use xlink:href="#DejaVuSans-30"/>
       <use xlink:href="#DejaVuSans-2e" x="63.623047"/>
       <use xlink:href="#DejaVuSans-36" x="95.410156"/>
      </g>
     </g>
    </g>
    <g id="ytick_6">
     <g id="line2d_111">
      <path d="M 44.960938 18.299077 
L 402.080938 18.299077 
" clip-path="url(#p73aa082ac8)" style="fill: none; stroke: #b0b0b0; stroke-width: 0.8; stroke-linecap: square"/>
     </g>
     <g id="line2d_112">
      <g>
       <use xlink:href="#m1d021029a8" x="44.960938" y="18.299077" style="stroke: #000000; stroke-width: 0.8"/>
      </g>
     </g>
     <g id="text_7">
      <!-- 0.8 -->
      <g transform="translate(22.057813 22.098296)scale(0.1 -0.1)">
       <defs>
        <path id="DejaVuSans-38" d="M 2034 2216 
Q 1584 2216 1326 1975 
Q 1069 1734 1069 1313 
Q 1069 891 1326 650 
Q 1584 409 2034 409 
Q 2484 409 2743 651 
Q 3003 894 3003 1313 
Q 3003 1734 2745 1975 
Q 2488 2216 2034 2216 
z
M 1403 2484 
Q 997 2584 770 2862 
Q 544 3141 544 3541 
Q 544 4100 942 4425 
Q 1341 4750 2034 4750 
Q 2731 4750 3128 4425 
Q 3525 4100 3525 3541 
Q 3525 3141 3298 2862 
Q 3072 2584 2669 2484 
Q 3125 2378 3379 2068 
Q 3634 1759 3634 1313 
Q 3634 634 3220 271 
Q 2806 -91 2034 -91 
Q 1263 -91 848 271 
Q 434 634 434 1313 
Q 434 1759 690 2068 
Q 947 2378 1403 2484 
z
M 1172 3481 
Q 1172 3119 1398 2916 
Q 1625 2713 2034 2713 
Q 2441 2713 2670 2916 
Q 2900 3119 2900 3481 
Q 2900 3844 2670 4047 
Q 2441 4250 2034 4250 
Q 1625 4250 1398 4047 
Q 1172 3844 1172 3481 
z
" transform="scale(0.015625)"/>
       </defs>
       <use xlink:href="#DejaVuSans-30"/>
       <use xlink:href="#DejaVuSans-2e" x="63.623047"/>
       <use xlink:href="#DejaVuSans-38" x="95.410156"/>
      </g>
     </g>
    </g>
    <g id="text_8">
     <!-- Eddy Amplitude [m] -->
     <g transform="translate(7.598438 183.095844)rotate(-90)scale(0.1 -0.1)">
      <defs>
       <path id="DejaVuSans-79" d="M 2059 -325 
Q 1816 -950 1584 -1140 
Q 1353 -1331 966 -1331 
L 506 -1331 
L 506 -850 
L 844 -850 
Q 1081 -850 1212 -737 
Q 1344 -625 1503 -206 
L 1606 56 
L 191 3500 
L 800 3500 
L 1894 763 
L 2988 3500 
L 3597 3500 
L 2059 -325 
z
" transform="scale(0.015625)"/>
       <path id="DejaVuSans-41" d="M 2188 4044 
L 1331 1722 
L 3047 1722 
L 2188 4044 
z
M 1831 4666 
L 2547 4666 
L 4325 0 
L 3669 0 
L 3244 1197 
L 1141 1197 
L 716 0 
L 50 0 
L 1831 4666 
z
" transform="scale(0.015625)"/>
       <path id="DejaVuSans-6d" d="M 3328 2828 
Q 3544 3216 3844 3400 
Q 4144 3584 4550 3584 
Q 5097 3584 5394 3201 
Q 5691 2819 5691 2113 
L 5691 0 
L 5113 0 
L 5113 2094 
Q 5113 2597 4934 2840 
Q 4756 3084 4391 3084 
Q 3944 3084 3684 2787 
Q 3425 2491 3425 1978 
L 3425 0 
L 2847 0 
L 2847 2094 
Q 2847 2600 2669 2842 
Q 2491 3084 2119 3084 
Q 1678 3084 1418 2786 
Q 1159 2488 1159 1978 
L 1159 0 
L 581 0 
L 581 3500 
L 1159 3500 
L 1159 2956 
Q 1356 3278 1631 3431 
Q 1906 3584 2284 3584 
Q 2666 3584 2933 3390 
Q 3200 3197 3328 2828 
z
" transform="scale(0.015625)"/>
       <path id="DejaVuSans-70" d="M 1159 525 
L 1159 -1331 
L 581 -1331 
L 581 3500 
L 1159 3500 
L 1159 2969 
Q 1341 3281 1617 3432 
Q 1894 3584 2278 3584 
Q 2916 3584 3314 3078 
Q 3713 2572 3713 1747 
Q 3713 922 3314 415 
Q 2916 -91 2278 -91 
Q 1894 -91 1617 61 
Q 1341 213 1159 525 
z
M 3116 1747 
Q 3116 2381 2855 2742 
Q 2594 3103 2138 3103 
Q 1681 3103 1420 2742 
Q 1159 2381 1159 1747 
Q 1159 1113 1420 752 
Q 1681 391 2138 391 
Q 2594 391 2855 752 
Q 3116 1113 3116 1747 
z
" transform="scale(0.015625)"/>
       <path id="DejaVuSans-74" d="M 1172 4494 
L 1172 3500 
L 2356 3500 
L 2356 3053 
L 1172 3053 
L 1172 1153 
Q 1172 725 1289 603 
Q 1406 481 1766 481 
L 2356 481 
L 2356 0 
L 1766 0 
Q 1100 0 847 248 
Q 594 497 594 1153 
L 594 3053 
L 172 3053 
L 172 3500 
L 594 3500 
L 594 4494 
L 1172 4494 
z
" transform="scale(0.015625)"/>
      </defs>
      <use xlink:href="#DejaVuSans-45"/>
      <use xlink:href="#DejaVuSans-64" x="63.183594"/>
      <use xlink:href="#DejaVuSans-64" x="126.660156"/>
      <use xlink:href="#DejaVuSans-79" x="190.136719"/>
      <use xlink:href="#DejaVuSans-20" x="249.316406"/>
      <use xlink:href="#DejaVuSans-41" x="281.103516"/>
      <use xlink:href="#DejaVuSans-6d" x="349.511719"/>
      <use xlink:href="#DejaVuSans-70" x="446.923828"/>
      <use xlink:href="#DejaVuSans-6c" x="510.400391"/>
      <use xlink:href="#DejaVuSans-69" x="538.183594"/>
      <use xlink:href="#DejaVuSans-74" x="565.966797"/>
      <use xlink:href="#DejaVuSans-75" x="605.175781"/>
      <use xlink:href="#DejaVuSans-64" x="668.554688"/>
      <use xlink:href="#DejaVuSans-65" x="732.03125"/>
      <use xlink:href="#DejaVuSans-20" x="793.554688"/>
      <use xlink:href="#DejaVuSans-5b" x="825.341797"/>
      <use xlink:href="#DejaVuSans-6d" x="864.355469"/>
      <use xlink:href="#DejaVuSans-5d" x="961.767578"/>
     </g>
    </g>
   </g>
   <g id="patch_3">
    <path d="M 61.193665 183.714462 
L 66.408999 183.714462 
L 66.408999 254.016 
L 61.193665 254.016 
z
" clip-path="url(#p73aa082ac8)" style="fill: #ff0000"/>
   </g>
   <g id="patch_4">
    <path d="M 67.712832 183.714462 
L 72.928166 183.714462 
L 72.928166 247.812923 
L 67.712832 247.812923 
z
" clip-path="url(#p73aa082ac8)" style="fill: #ff0000"/>
   </g>
   <g id="patch_5">
    <path d="M 74.232 183.714462 
L 79.447334 183.714462 
L 79.447334 227.136 
L 74.232 227.136 
z
" clip-path="url(#p73aa082ac8)" style="fill: #ff0000"/>
   </g>
   <g id="patch_6">
    <path d="M 80.751168 183.714462 
L 85.966502 183.714462 
L 85.966502 227.136 
L 80.751168 227.136 
z
" clip-path="url(#p73aa082ac8)" style="fill: #ff0000"/>
   </g>
   <g id="patch_7">
    <path d="M 87.270335 183.714462 
L 92.485669 183.714462 
L 92.485669 225.068308 
L 87.270335 225.068308 
z
" clip-path="url(#p73aa082ac8)" style="fill: #ff0000"/>
   </g>
   <g id="patch_8">
    <path d="M 93.789503 183.714462 
L 99.004837 183.714462 
L 99.004837 223.000615 
L 93.789503 223.000615 
z
" clip-path="url(#p73aa082ac8)" style="fill: #ff0000"/>
   </g>
   <g id="patch_9">
    <path d="M 100.30867 183.714462 
L 105.524004 183.714462 
L 105.524004 223.000615 
L 100.30867 223.000615 
z
" clip-path="url(#p73aa082ac8)" style="fill: #ff0000"/>
   </g>
   <g id="patch_10">
    <path d="M 106.827838 183.714462 
L 112.043172 183.714462 
L 112.043172 212.662154 
L 106.827838 212.662154 
z
" clip-path="url(#p73aa082ac8)" style="fill: #ff0000"/>
   </g>
   <g id="patch_11">
    <path d="M 113.347005 183.714462 
L 118.562339 183.714462 
L 118.562339 210.594462 
L 113.347005 210.594462 
z
" clip-path="url(#p73aa082ac8)" style="fill: #ff0000"/>
   </g>
   <g id="patch_12">
    <path d="M 119.866173 183.714462 
L 125.081507 183.714462 
L 125.081507 210.594462 
L 119.866173 210.594462 
z
" clip-path="url(#p73aa082ac8)" style="fill: #ff0000"/>
   </g>
   <g id="patch_13">
    <path d="M 126.385341 183.714462 
L 131.600675 183.714462 
L 131.600675 210.594462 
L 126.385341 210.594462 
z
" clip-path="url(#p73aa082ac8)" style="fill: #ff0000"/>
   </g>
   <g id="patch_14">
    <path d="M 132.904508 183.714462 
L 138.119842 183.714462 
L 138.119842 208.526769 
L 132.904508 208.526769 
z
" clip-path="url(#p73aa082ac8)" style="fill: #ff0000"/>
   </g>
   <g id="patch_15">
    <path d="M 139.423676 183.714462 
L 144.63901 183.714462 
L 144.63901 206.459077 
L 139.423676 206.459077 
z
" clip-path="url(#p73aa082ac8)" style="fill: #ff0000"/>
   </g>
   <g id="patch_16">
    <path d="M 145.942843 183.714462 
L 151.158177 183.714462 
L 151.158177 206.459077 
L 145.942843 206.459077 
z
" clip-path="url(#p73aa082ac8)" style="fill: #ff0000"/>
   </g>
   <g id="patch_17">
    <path d="M 152.462011 183.714462 
L 157.677345 183.714462 
L 157.677345 204.391385 
L 152.462011 204.391385 
z
" clip-path="url(#p73aa082ac8)" style="fill: #ff0000"/>
   </g>
   <g id="patch_18">
    <path d="M 158.981178 183.714462 
L 164.196513 183.714462 
L 164.196513 202.323692 
L 158.981178 202.323692 
z
" clip-path="url(#p73aa082ac8)" style="fill: #ff0000"/>
   </g>
   <g id="patch_19">
    <path d="M 165.500346 183.714462 
L 170.71568 183.714462 
L 170.71568 202.323692 
L 165.500346 202.323692 
z
" clip-path="url(#p73aa082ac8)" style="fill: #ff0000"/>
   </g>
   <g id="patch_20">
    <path d="M 172.019514 183.714462 
L 177.234848 183.714462 
L 177.234848 202.323692 
L 172.019514 202.323692 
z
" clip-path="url(#p73aa082ac8)" style="fill: #ff0000"/>
   </g>
   <g id="patch_21">
    <path d="M 178.538681 183.714462 
L 183.754015 183.714462 
L 183.754015 202.323692 
L 178.538681 202.323692 
z
" clip-path="url(#p73aa082ac8)" style="fill: #ff0000"/>
   </g>
   <g id="patch_22">
    <path d="M 185.057849 183.714462 
L 190.273183 183.714462 
L 190.273183 198.188308 
L 185.057849 198.188308 
z
" clip-path="url(#p73aa082ac8)" style="fill: #ff0000"/>
   </g>
   <g id="patch_23">
    <path d="M 191.577016 183.714462 
L 196.79235 183.714462 
L 196.79235 191.985231 
L 191.577016 191.985231 
z
" clip-path="url(#p73aa082ac8)" style="fill: #ff0000"/>
   </g>
   <g id="patch_24">
    <path d="M 198.096184 183.714462 
L 203.311518 183.714462 
L 203.311518 187.849846 
L 198.096184 187.849846 
z
" clip-path="url(#p73aa082ac8)" style="fill: #ff0000"/>
   </g>
   <g id="patch_25">
    <path d="M 204.615352 183.714462 
L 209.830686 183.714462 
L 209.830686 179.579077 
L 204.615352 179.579077 
z
" clip-path="url(#p73aa082ac8)" style="fill: #000080"/>
   </g>
   <g id="patch_26">
    <path d="M 211.134519 183.714462 
L 216.349853 183.714462 
L 216.349853 177.511385 
L 211.134519 177.511385 
z
" clip-path="url(#p73aa082ac8)" style="fill: #000080"/>
   </g>
   <g id="patch_27">
    <path d="M 217.653687 183.714462 
L 222.869021 183.714462 
L 222.869021 169.240615 
L 217.653687 169.240615 
z
" clip-path="url(#p73aa082ac8)" style="fill: #000080"/>
   </g>
   <g id="patch_28">
    <path d="M 224.172854 183.714462 
L 229.388188 183.714462 
L 229.388188 165.105231 
L 224.172854 165.105231 
z
" clip-path="url(#p73aa082ac8)" style="fill: #000080"/>
   </g>
   <g id="patch_29">
    <path d="M 230.692022 183.714462 
L 235.907356 183.714462 
L 235.907356 152.699077 
L 230.692022 152.699077 
z
" clip-path="url(#p73aa082ac8)" style="fill: #000080"/>
   </g>
   <g id="patch_30">
    <path d="M 237.211189 183.714462 
L 242.426523 183.714462 
L 242.426523 148.563692 
L 237.211189 148.563692 
z
" clip-path="url(#p73aa082ac8)" style="fill: #000080"/>
   </g>
   <g id="patch_31">
    <path d="M 243.730357 183.714462 
L 248.945691 183.714462 
L 248.945691 138.225231 
L 243.730357 138.225231 
z
" clip-path="url(#p73aa082ac8)" style="fill: #000080"/>
   </g>
   <g id="patch_32">
    <path d="M 250.249525 183.714462 
L 255.464859 183.714462 
L 255.464859 138.225231 
L 250.249525 138.225231 
z
" clip-path="url(#p73aa082ac8)" style="fill: #000080"/>
   </g>
   <g id="patch_33">
    <path d="M 256.768692 183.714462 
L 261.984026 183.714462 
L 261.984026 136.157538 
L 256.768692 136.157538 
z
" clip-path="url(#p73aa082ac8)" style="fill: #000080"/>
   </g>
   <g id="patch_34">
    <path d="M 263.28786 183.714462 
L 268.503194 183.714462 
L 268.503194 134.089846 
L 263.28786 134.089846 
z
" clip-path="url(#p73aa082ac8)" style="fill: #000080"/>
   </g>
   <g id="patch_35">
    <path d="M 269.807027 183.714462 
L 275.022361 183.714462 
L 275.022361 132.022154 
L 269.807027 132.022154 
z
" clip-path="url(#p73aa082ac8)" style="fill: #000080"/>
   </g>
   <g id="patch_36">
    <path d="M 276.326195 183.714462 
L 281.541529 183.714462 
L 281.541529 129.954462 
L 276.326195 129.954462 
z
" clip-path="url(#p73aa082ac8)" style="fill: #000080"/>
   </g>
   <g id="patch_37">
    <path d="M 282.845362 183.714462 
L 288.060697 183.714462 
L 288.060697 125.819077 
L 282.845362 125.819077 
z
" clip-path="url(#p73aa082ac8)" style="fill: #000080"/>
   </g>
   <g id="patch_38">
    <path d="M 289.36453 183.714462 
L 294.579864 183.714462 
L 294.579864 123.751385 
L 289.36453 123.751385 
z
" clip-path="url(#p73aa082ac8)" style="fill: #000080"/>
   </g>
   <g id="patch_39">
    <path d="M 295.883698 183.714462 
L 301.099032 183.714462 
L 301.099032 123.751385 
L 295.883698 123.751385 
z
" clip-path="url(#p73aa082ac8)" style="fill: #000080"/>
   </g>
   <g id="patch_40">
    <path d="M 302.402865 183.714462 
L 307.618199 183.714462 
L 307.618199 119.616 
L 302.402865 119.616 
z
" clip-path="url(#p73aa082ac8)" style="fill: #000080"/>
   </g>
   <g id="patch_41">
    <path d="M 308.922033 183.714462 
L 314.137367 183.714462 
L 314.137367 115.480615 
L 308.922033 115.480615 
z
" clip-path="url(#p73aa082ac8)" style="fill: #000080"/>
   </g>
   <g id="patch_42">
    <path d="M 315.4412 183.714462 
L 320.656534 183.714462 
L 320.656534 105.142154 
L 315.4412 105.142154 
z
" clip-path="url(#p73aa082ac8)" style="fill: #000080"/>
   </g>
   <g id="patch_43">
    <path d="M 321.960368 183.714462 
L 327.175702 183.714462 
L 327.175702 101.006769 
L 321.960368 101.006769 
z
" clip-path="url(#p73aa082ac8)" style="fill: #000080"/>
   </g>
   <g id="patch_44">
    <path d="M 328.479536 183.714462 
L 333.69487 183.714462 
L 333.69487 101.006769 
L 328.479536 101.006769 
z
" clip-path="url(#p73aa082ac8)" style="fill: #000080"/>
   </g>
   <g id="patch_45">
    <path d="M 334.998703 183.714462 
L 340.214037 183.714462 
L 340.214037 94.803692 
L 334.998703 94.803692 
z
" clip-path="url(#p73aa082ac8)" style="fill: #000080"/>
   </g>
   <g id="patch_46">
    <path d="M 341.517871 183.714462 
L 346.733205 183.714462 
L 346.733205 90.668308 
L 341.517871 90.668308 
z
" clip-path="url(#p73aa082ac8)" style="fill: #000080"/>
   </g>
   <g id="patch_47">
    <path d="M 348.037038 183.714462 
L 353.252372 183.714462 
L 353.252372 88.600615 
L 348.037038 88.600615 
z
" clip-path="url(#p73aa082ac8)" style="fill: #000080"/>
   </g>
   <g id="patch_48">
    <path d="M 354.556206 183.714462 
L 359.77154 183.714462 
L 359.77154 84.465231 
L 354.556206 84.465231 
z
" clip-path="url(#p73aa082ac8)" style="fill: #000080"/>
   </g>
   <g id="patch_49">
    <path d="M 361.075373 183.714462 
L 366.290707 183.714462 
L 366.290707 51.382154 
L 361.075373 51.382154 
z
" clip-path="url(#p73aa082ac8)" style="fill: #000080"/>
   </g>
   <g id="patch_50">
    <path d="M 367.594541 183.714462 
L 372.809875 183.714462 
L 372.809875 38.976 
L 367.594541 38.976 
z
" clip-path="url(#p73aa082ac8)" style="fill: #000080"/>
   </g>
   <g id="patch_51">
    <path d="M 374.113709 183.714462 
L 379.329043 183.714462 
L 379.329043 24.502154 
L 374.113709 24.502154 
z
" clip-path="url(#p73aa082ac8)" style="fill: #000080"/>
   </g>
   <g id="patch_52">
    <path d="M 380.632876 183.714462 
L 385.84821 183.714462 
L 385.84821 12.096 
L 380.632876 12.096 
z
" clip-path="url(#p73aa082ac8)" style="fill: #000080"/>
   </g>
   <g id="patch_53">
    <path d="M 44.960938 266.112 
L 44.960938 -0 
" style="fill: none; stroke: #000000; stroke-width: 0.8; stroke-linejoin: miter; stroke-linecap: square"/>
   </g>
   <g id="patch_54">
    <path d="M 402.080938 266.112 
L 402.080938 -0 
" style="fill: none; stroke: #000000; stroke-width: 0.8; stroke-linejoin: miter; stroke-linecap: square"/>
   </g>
   <g id="patch_55">
    <path d="M 44.960938 266.112 
L 402.080938 266.112 
" style="fill: none; stroke: #000000; stroke-width: 0.8; stroke-linejoin: miter; stroke-linecap: square"/>
   </g>
   <g id="patch_56">
    <path d="M 44.960938 -0 
L 402.080938 -0 
" style="fill: none; stroke: #000000; stroke-width: 0.8; stroke-linejoin: miter; stroke-linecap: square"/>
   </g>
  </g>
 </g>
 <defs>
  <clipPath id="p73aa082ac8">
   <rect x="44.960938" y="-0" width="357.12" height="266.112"/>
  </clipPath>
 </defs>
</svg>
