<?xml version="1.0" encoding="utf-8" standalone="no"?>
<!DOCTYPE svg PUBLIC "-//W3C//DTD SVG 1.1//EN"
  "http://www.w3.org/Graphics/SVG/1.1/DTD/svg11.dtd">
<svg xmlns:xlink="http://www.w3.org/1999/xlink" width="402.080938pt" height="296.46825pt" viewBox="0 0 402.080938 296.46825" xmlns="http://www.w3.org/2000/svg" version="1.1">
 <metadata>
  <rdf:RDF xmlns:dc="http://purl.org/dc/elements/1.1/" xmlns:cc="http://creativecommons.org/ns#" xmlns:rdf="http://www.w3.org/1999/02/22-rdf-syntax-ns#">
   <cc:Work>
    <dc:type rdf:resource="http://purl.org/dc/dcmitype/StillImage"/>
    <dc:date>2023-06-13T21:10:29.507080</dc:date>
    <dc:format>image/svg+xml</dc:format>
    <dc:creator>
     <cc:Agent>
      <dc:title>Matplotlib v3.5.2, https://matplotlib.org/</dc:title>
     </cc:Agent>
    </dc:creator>
   </cc:Work>
  </rdf:RDF>
 </metadata>
 <defs>
  <style type="text/css">*{stroke-linejoin: round; stroke-linecap: butt}</style>
 </defs>
 <g id="figure_1">
  <g id="patch_1">
   <path d="M 0 296.46825 
L 402.080938 296.46825 
L 402.080938 0 
L 0 0 
z
" style="fill: #ffffff"/>
  </g>
  <g id="axes_1">
   <g id="patch_2">
    <path d="M 44.960938 266.112 
L 402.080938 266.112 
L 402.080938 -0 
L 44.960938 -0 
z
" style="fill: #ffffff"/>
   </g>
   <g id="PathCollection_1">
    <path d="M 61.193665 200.343759 
L 58.193665 206.343759 
L 64.193665 206.343759 
z
" clip-path="url(#pff0ae8b4f7)" style="fill: #440154; stroke: #440154"/>
    <path d="M 101.775483 195.20046 
L 98.775483 201.20046 
L 104.775483 201.20046 
z
" clip-path="url(#pff0ae8b4f7)" style="fill: #460a5d; stroke: #460a5d"/>
    <path d="M 106.284574 179.193054 
L 103.284574 185.193054 
L 109.284574 185.193054 
z
" clip-path="url(#pff0ae8b4f7)" style="fill: #482878; stroke: #482878"/>
    <path d="M 106.284574 178.713149 
L 103.284574 184.713149 
L 109.284574 184.713149 
z
" clip-path="url(#pff0ae8b4f7)" style="fill: #482878; stroke: #482878"/>
    <path d="M 106.284574 177.741943 
L 103.284574 183.741943 
L 109.284574 183.741943 
z
" clip-path="url(#pff0ae8b4f7)" style="fill: #472a7a; stroke: #472a7a"/>
    <path d="M 110.793665 176.274399 
L 107.793665 182.274399 
L 113.793665 182.274399 
z
" clip-path="url(#pff0ae8b4f7)" style="fill: #472d7b; stroke: #472d7b"/>
    <path d="M 110.793665 176.094052 
L 107.793665 182.094052 
L 113.793665 182.094052 
z
" clip-path="url(#pff0ae8b4f7)" style="fill: #472d7b; stroke: #472d7b"/>
    <path d="M 110.793665 168.258679 
L 107.793665 174.258679 
L 113.793665 174.258679 
z
" clip-path="url(#pff0ae8b4f7)" style="fill: #443983; stroke: #443983"/>
    <path d="M 115.302756 166.834929 
L 112.302756 172.834929 
L 118.302756 172.834929 
z
" clip-path="url(#pff0ae8b4f7)" style="fill: #443b84; stroke: #443b84"/>
    <path d="M 119.811847 166.320311 
L 116.811847 172.320311 
L 122.811847 172.320311 
z
" clip-path="url(#pff0ae8b4f7)" style="fill: #433d84; stroke: #433d84"/>
    <path d="M 124.320938 165.728627 
L 121.320938 171.728627 
L 127.320938 171.728627 
z
" clip-path="url(#pff0ae8b4f7)" style="fill: #433e85; stroke: #433e85"/>
    <path d="M 133.339119 164.058025 
L 130.339119 170.058025 
L 136.339119 170.058025 
z
" clip-path="url(#pff0ae8b4f7)" style="fill: #424086; stroke: #424086"/>
    <path d="M 137.84821 162.568914 
L 134.84821 168.568914 
L 140.84821 168.568914 
z
" clip-path="url(#pff0ae8b4f7)" style="fill: #414287; stroke: #414287"/>
    <path d="M 142.357301 162.20466 
L 139.357301 168.20466 
L 145.357301 168.20466 
z
" clip-path="url(#pff0ae8b4f7)" style="fill: #414487; stroke: #414487"/>
    <path d="M 142.357301 160.547334 
L 139.357301 166.547334 
L 145.357301 166.547334 
z
" clip-path="url(#pff0ae8b4f7)" style="fill: #404688; stroke: #404688"/>
    <path d="M 146.866392 160.212913 
L 143.866392 166.212913 
L 149.866392 166.212913 
z
" clip-path="url(#pff0ae8b4f7)" style="fill: #404688; stroke: #404688"/>
    <path d="M 146.866392 159.340424 
L 143.866392 165.340424 
L 149.866392 165.340424 
z
" clip-path="url(#pff0ae8b4f7)" style="fill: #3f4788; stroke: #3f4788"/>
    <path d="M 151.375483 158.994433 
L 148.375483 164.994433 
L 154.375483 164.994433 
z
" clip-path="url(#pff0ae8b4f7)" style="fill: #3f4889; stroke: #3f4889"/>
    <path d="M 155.884574 158.756873 
L 152.884574 164.756873 
L 158.884574 164.756873 
z
" clip-path="url(#pff0ae8b4f7)" style="fill: #3f4889; stroke: #3f4889"/>
    <path d="M 155.884574 155.729029 
L 152.884574 161.729029 
L 158.884574 161.729029 
z
" clip-path="url(#pff0ae8b4f7)" style="fill: #3d4d8a; stroke: #3d4d8a"/>
    <path d="M 155.884574 150.634987 
L 152.884574 156.634987 
L 158.884574 156.634987 
z
" clip-path="url(#pff0ae8b4f7)" style="fill: #3a548c; stroke: #3a548c"/>
    <path d="M 155.884574 148.491496 
L 152.884574 154.491496 
L 158.884574 154.491496 
z
" clip-path="url(#pff0ae8b4f7)" style="fill: #38588c; stroke: #38588c"/>
    <path d="M 164.902756 142.407242 
L 161.902756 148.407242 
L 167.902756 148.407242 
z
" clip-path="url(#pff0ae8b4f7)" style="fill: #34608d; stroke: #34608d"/>
    <path d="M 164.902756 140.78262 
L 161.902756 146.78262 
L 167.902756 146.78262 
z
" clip-path="url(#pff0ae8b4f7)" style="fill: #33628d; stroke: #33628d"/>
    <path d="M 182.939119 133.709504 
L 179.939119 139.709504 
L 185.939119 139.709504 
z
" clip-path="url(#pff0ae8b4f7)" style="fill: #2f6c8e; stroke: #2f6c8e"/>
    <path d="M 182.939119 130.95106 
L 179.939119 136.95106 
L 185.939119 136.95106 
z
" clip-path="url(#pff0ae8b4f7)" style="fill: #2e6f8e; stroke: #2e6f8e"/>
    <path d="M 187.44821 119.753556 
L 184.44821 125.753556 
L 190.44821 125.753556 
z
" clip-path="url(#pff0ae8b4f7)" style="fill: #287d8e; stroke: #287d8e"/>
    <path d="M 191.957301 117.020598 
L 188.957301 123.020598 
L 194.957301 123.020598 
z
" clip-path="url(#pff0ae8b4f7)" style="fill: #26818e; stroke: #26818e"/>
    <path d="M 200.975483 109.508157 
L 197.975483 115.508157 
L 203.975483 115.508157 
z
" clip-path="url(#pff0ae8b4f7)" style="fill: #238a8d; stroke: #238a8d"/>
    <path d="M 200.975483 109.189083 
L 197.975483 115.189083 
L 203.975483 115.189083 
z
" clip-path="url(#pff0ae8b4f7)" style="fill: #228b8d; stroke: #228b8d"/>
    <path d="M 214.502756 107.230094 
L 211.502756 113.230094 
L 217.502756 113.230094 
z
" clip-path="url(#pff0ae8b4f7)" style="fill: #228d8d; stroke: #228d8d"/>
    <path d="M 223.520938 106.009331 
L 220.520938 112.009331 
L 226.520938 112.009331 
z
" clip-path="url(#pff0ae8b4f7)" style="fill: #218f8d; stroke: #218f8d"/>
    <path d="M 228.030028 103.839862 
L 225.030028 109.839862 
L 231.030028 109.839862 
z
" clip-path="url(#pff0ae8b4f7)" style="fill: #20928c; stroke: #20928c"/>
    <path d="M 241.557301 102.373619 
L 238.557301 108.373619 
L 244.557301 108.373619 
z
" clip-path="url(#pff0ae8b4f7)" style="fill: #20938c; stroke: #20938c"/>
    <path d="M 241.557301 100.024339 
L 238.557301 106.024339 
L 244.557301 106.024339 
z
" clip-path="url(#pff0ae8b4f7)" style="fill: #1f968b; stroke: #1f968b"/>
    <path d="M 241.557301 97.795299 
L 238.557301 103.795299 
L 244.557301 103.795299 
z
" clip-path="url(#pff0ae8b4f7)" style="fill: #1f998a; stroke: #1f998a"/>
    <path d="M 246.066392 97.173643 
L 243.066392 103.173643 
L 249.066392 103.173643 
z
" clip-path="url(#pff0ae8b4f7)" style="fill: #1f9a8a; stroke: #1f9a8a"/>
    <path d="M 246.066392 94.371028 
L 243.066392 100.371028 
L 249.066392 100.371028 
z
" clip-path="url(#pff0ae8b4f7)" style="fill: #1e9d89; stroke: #1e9d89"/>
    <path d="M 250.575483 90.623987 
L 247.575483 96.623987 
L 253.575483 96.623987 
z
" clip-path="url(#pff0ae8b4f7)" style="fill: #1fa187; stroke: #1fa187"/>
    <path d="M 255.084574 83.596525 
L 252.084574 89.596525 
L 258.084574 89.596525 
z
" clip-path="url(#pff0ae8b4f7)" style="fill: #25ab82; stroke: #25ab82"/>
    <path d="M 264.102756 80.509424 
L 261.102756 86.509424 
L 267.102756 86.509424 
z
" clip-path="url(#pff0ae8b4f7)" style="fill: #28ae80; stroke: #28ae80"/>
    <path d="M 277.630028 79.729331 
L 274.630028 85.729331 
L 280.630028 85.729331 
z
" clip-path="url(#pff0ae8b4f7)" style="fill: #29af7f; stroke: #29af7f"/>
    <path d="M 291.157301 74.215512 
L 288.157301 80.215512 
L 294.157301 80.215512 
z
" clip-path="url(#pff0ae8b4f7)" style="fill: #32b67a; stroke: #32b67a"/>
    <path d="M 304.684574 72.519048 
L 301.684574 78.519048 
L 307.684574 78.519048 
z
" clip-path="url(#pff0ae8b4f7)" style="fill: #37b878; stroke: #37b878"/>
    <path d="M 309.193665 69.694996 
L 306.193665 75.694996 
L 312.193665 75.694996 
z
" clip-path="url(#pff0ae8b4f7)" style="fill: #3bbb75; stroke: #3bbb75"/>
    <path d="M 318.211847 66.057516 
L 315.211847 72.057516 
L 321.211847 72.057516 
z
" clip-path="url(#pff0ae8b4f7)" style="fill: #44bf70; stroke: #44bf70"/>
    <path d="M 322.720938 40.967289 
L 319.720938 46.967289 
L 325.720938 46.967289 
z
" clip-path="url(#pff0ae8b4f7)" style="fill: #90d743; stroke: #90d743"/>
    <path d="M 354.284574 31.372151 
L 351.284574 37.372151 
L 357.284574 37.372151 
z
" clip-path="url(#pff0ae8b4f7)" style="fill: #b2dd2d; stroke: #b2dd2d"/>
    <path d="M 372.320938 18.872396 
L 369.320938 24.872396 
L 375.320938 24.872396 
z
" clip-path="url(#pff0ae8b4f7)" style="fill: #dde318; stroke: #dde318"/>
    <path d="M 385.84821 9.096 
L 382.84821 15.096 
L 388.84821 15.096 
z
" clip-path="url(#pff0ae8b4f7)" style="fill: #fde725; stroke: #fde725"/>
   </g>
   <g id="matplotlib.axis_1">
    <g id="xtick_1">
     <g id="line2d_1">
      <defs>
       <path id="m5e9d88b978" d="M 0 0 
L 0 3.5 
" style="stroke: #000000; stroke-width: 0.8"/>
      </defs>
      <g>
       <use xlink:href="#m5e9d88b978" x="84.491474" y="266.112" style="stroke: #000000; stroke-width: 0.8"/>
      </g>
     </g>
     <g id="text_1">
      <!-- 2 -->
      <g transform="translate(81.310224 280.710437)scale(0.1 -0.1)">
       <defs>
        <path id="DejaVuSans-32" d="M 1228 531 
L 3431 531 
L 3431 0 
L 469 0 
L 469 531 
Q 828 903 1448 1529 
Q 2069 2156 2228 2338 
Q 2531 2678 2651 2914 
Q 2772 3150 2772 3378 
Q 2772 3750 2511 3984 
Q 2250 4219 1831 4219 
Q 1534 4219 1204 4116 
Q 875 4013 500 3803 
L 500 4441 
Q 881 4594 1212 4672 
Q 1544 4750 1819 4750 
Q 2544 4750 2975 4387 
Q 3406 4025 3406 3419 
Q 3406 3131 3298 2873 
Q 3191 2616 2906 2266 
Q 2828 2175 2409 1742 
Q 1991 1309 1228 531 
z
" transform="scale(0.015625)"/>
       </defs>
       <use xlink:href="#DejaVuSans-32"/>
      </g>
     </g>
    </g>
    <g id="xtick_2">
     <g id="line2d_2">
      <g>
       <use xlink:href="#m5e9d88b978" x="157.389283" y="266.112" style="stroke: #000000; stroke-width: 0.8"/>
      </g>
     </g>
     <g id="text_2">
      <!-- 4 -->
      <g transform="translate(154.208033 280.710437)scale(0.1 -0.1)">
       <defs>
        <path id="DejaVuSans-34" d="M 2419 4116 
L 825 1625 
L 2419 1625 
L 2419 4116 
z
M 2253 4666 
L 3047 4666 
L 3047 1625 
L 3713 1625 
L 3713 1100 
L 3047 1100 
L 3047 0 
L 2419 0 
L 2419 1100 
L 313 1100 
L 313 1709 
L 2253 4666 
z
" transform="scale(0.015625)"/>
       </defs>
       <use xlink:href="#DejaVuSans-34"/>
      </g>
     </g>
    </g>
    <g id="xtick_3">
     <g id="line2d_3">
      <g>
       <use xlink:href="#m5e9d88b978" x="230.287092" y="266.112" style="stroke: #000000; stroke-width: 0.8"/>
      </g>
     </g>
     <g id="text_3">
      <!-- 6 -->
      <g transform="translate(227.105842 280.710437)scale(0.1 -0.1)">
       <defs>
        <path id="DejaVuSans-36" d="M 2113 2584 
Q 1688 2584 1439 2293 
Q 1191 2003 1191 1497 
Q 1191 994 1439 701 
Q 1688 409 2113 409 
Q 2538 409 2786 701 
Q 3034 994 3034 1497 
Q 3034 2003 2786 2293 
Q 2538 2584 2113 2584 
z
M 3366 4563 
L 3366 3988 
Q 3128 4100 2886 4159 
Q 2644 4219 2406 4219 
Q 1781 4219 1451 3797 
Q 1122 3375 1075 2522 
Q 1259 2794 1537 2939 
Q 1816 3084 2150 3084 
Q 2853 3084 3261 2657 
Q 3669 2231 3669 1497 
Q 3669 778 3244 343 
Q 2819 -91 2113 -91 
Q 1303 -91 875 529 
Q 447 1150 447 2328 
Q 447 3434 972 4092 
Q 1497 4750 2381 4750 
Q 2619 4750 2861 4703 
Q 3103 4656 3366 4563 
z
" transform="scale(0.015625)"/>
       </defs>
       <use xlink:href="#DejaVuSans-36"/>
      </g>
     </g>
    </g>
    <g id="xtick_4">
     <g id="line2d_4">
      <g>
       <use xlink:href="#m5e9d88b978" x="303.1849" y="266.112" style="stroke: #000000; stroke-width: 0.8"/>
      </g>
     </g>
     <g id="text_4">
      <!-- 8 -->
      <g transform="translate(300.00365 280.710437)scale(0.1 -0.1)">
       <defs>
        <path id="DejaVuSans-38" d="M 2034 2216 
Q 1584 2216 1326 1975 
Q 1069 1734 1069 1313 
Q 1069 891 1326 650 
Q 1584 409 2034 409 
Q 2484 409 2743 651 
Q 3003 894 3003 1313 
Q 3003 1734 2745 1975 
Q 2488 2216 2034 2216 
z
M 1403 2484 
Q 997 2584 770 2862 
Q 544 3141 544 3541 
Q 544 4100 942 4425 
Q 1341 4750 2034 4750 
Q 2731 4750 3128 4425 
Q 3525 4100 3525 3541 
Q 3525 3141 3298 2862 
Q 3072 2584 2669 2484 
Q 3125 2378 3379 2068 
Q 3634 1759 3634 1313 
Q 3634 634 3220 271 
Q 2806 -91 2034 -91 
Q 1263 -91 848 271 
Q 434 634 434 1313 
Q 434 1759 690 2068 
Q 947 2378 1403 2484 
z
M 1172 3481 
Q 1172 3119 1398 2916 
Q 1625 2713 2034 2713 
Q 2441 2713 2670 2916 
Q 2900 3119 2900 3481 
Q 2900 3844 2670 4047 
Q 2441 4250 2034 4250 
Q 1625 4250 1398 4047 
Q 1172 3844 1172 3481 
z
" transform="scale(0.015625)"/>
       </defs>
       <use xlink:href="#DejaVuSans-38"/>
      </g>
     </g>
    </g>
    <g id="xtick_5">
     <g id="line2d_5">
      <g>
       <use xlink:href="#m5e9d88b978" x="376.082709" y="266.112" style="stroke: #000000; stroke-width: 0.8"/>
      </g>
     </g>
     <g id="text_5">
      <!-- 10 -->
      <g transform="translate(369.720209 280.710437)scale(0.1 -0.1)">
       <defs>
        <path id="DejaVuSans-31" d="M 794 531 
L 1825 531 
L 1825 4091 
L 703 3866 
L 703 4441 
L 1819 4666 
L 2450 4666 
L 2450 531 
L 3481 531 
L 3481 0 
L 794 0 
L 794 531 
z
" transform="scale(0.015625)"/>
        <path id="DejaVuSans-30" d="M 2034 4250 
Q 1547 4250 1301 3770 
Q 1056 3291 1056 2328 
Q 1056 1369 1301 889 
Q 1547 409 2034 409 
Q 2525 409 2770 889 
Q 3016 1369 3016 2328 
Q 3016 3291 2770 3770 
Q 2525 4250 2034 4250 
z
M 2034 4750 
Q 2819 4750 3233 4129 
Q 3647 3509 3647 2328 
Q 3647 1150 3233 529 
Q 2819 -91 2034 -91 
Q 1250 -91 836 529 
Q 422 1150 422 2328 
Q 422 3509 836 4129 
Q 1250 4750 2034 4750 
z
" transform="scale(0.015625)"/>
       </defs>
       <use xlink:href="#DejaVuSans-31"/>
       <use xlink:href="#DejaVuSans-30" x="63.623047"/>
      </g>
     </g>
    </g>
    <g id="text_6">
     <!-- Eddy Area [10^3 * km^2] -->
     <g transform="translate(157.921719 294.388562)scale(0.1 -0.1)">
      <defs>
       <path id="DejaVuSans-45" d="M 628 4666 
L 3578 4666 
L 3578 4134 
L 1259 4134 
L 1259 2753 
L 3481 2753 
L 3481 2222 
L 1259 2222 
L 1259 531 
L 3634 531 
L 3634 0 
L 628 0 
L 628 4666 
z
" transform="scale(0.015625)"/>
       <path id="DejaVuSans-64" d="M 2906 2969 
L 2906 4863 
L 3481 4863 
L 3481 0 
L 2906 0 
L 2906 525 
Q 2725 213 2448 61 
Q 2172 -91 1784 -91 
Q 1150 -91 751 415 
Q 353 922 353 1747 
Q 353 2572 751 3078 
Q 1150 3584 1784 3584 
Q 2172 3584 2448 3432 
Q 2725 3281 2906 2969 
z
M 947 1747 
Q 947 1113 1208 752 
Q 1469 391 1925 391 
Q 2381 391 2643 752 
Q 2906 1113 2906 1747 
Q 2906 2381 2643 2742 
Q 2381 3103 1925 3103 
Q 1469 3103 1208 2742 
Q 947 2381 947 1747 
z
" transform="scale(0.015625)"/>
       <path id="DejaVuSans-79" d="M 2059 -325 
Q 1816 -950 1584 -1140 
Q 1353 -1331 966 -1331 
L 506 -1331 
L 506 -850 
L 844 -850 
Q 1081 -850 1212 -737 
Q 1344 -625 1503 -206 
L 1606 56 
L 191 3500 
L 800 3500 
L 1894 763 
L 2988 3500 
L 3597 3500 
L 2059 -325 
z
" transform="scale(0.015625)"/>
       <path id="DejaVuSans-20" transform="scale(0.015625)"/>
       <path id="DejaVuSans-41" d="M 2188 4044 
L 1331 1722 
L 3047 1722 
L 2188 4044 
z
M 1831 4666 
L 2547 4666 
L 4325 0 
L 3669 0 
L 3244 1197 
L 1141 1197 
L 716 0 
L 50 0 
L 1831 4666 
z
" transform="scale(0.015625)"/>
       <path id="DejaVuSans-72" d="M 2631 2963 
Q 2534 3019 2420 3045 
Q 2306 3072 2169 3072 
Q 1681 3072 1420 2755 
Q 1159 2438 1159 1844 
L 1159 0 
L 581 0 
L 581 3500 
L 1159 3500 
L 1159 2956 
Q 1341 3275 1631 3429 
Q 1922 3584 2338 3584 
Q 2397 3584 2469 3576 
Q 2541 3569 2628 3553 
L 2631 2963 
z
" transform="scale(0.015625)"/>
       <path id="DejaVuSans-65" d="M 3597 1894 
L 3597 1613 
L 953 1613 
Q 991 1019 1311 708 
Q 1631 397 2203 397 
Q 2534 397 2845 478 
Q 3156 559 3463 722 
L 3463 178 
Q 3153 47 2828 -22 
Q 2503 -91 2169 -91 
Q 1331 -91 842 396 
Q 353 884 353 1716 
Q 353 2575 817 3079 
Q 1281 3584 2069 3584 
Q 2775 3584 3186 3129 
Q 3597 2675 3597 1894 
z
M 3022 2063 
Q 3016 2534 2758 2815 
Q 2500 3097 2075 3097 
Q 1594 3097 1305 2825 
Q 1016 2553 972 2059 
L 3022 2063 
z
" transform="scale(0.015625)"/>
       <path id="DejaVuSans-61" d="M 2194 1759 
Q 1497 1759 1228 1600 
Q 959 1441 959 1056 
Q 959 750 1161 570 
Q 1363 391 1709 391 
Q 2188 391 2477 730 
Q 2766 1069 2766 1631 
L 2766 1759 
L 2194 1759 
z
M 3341 1997 
L 3341 0 
L 2766 0 
L 2766 531 
Q 2569 213 2275 61 
Q 1981 -91 1556 -91 
Q 1019 -91 701 211 
Q 384 513 384 1019 
Q 384 1609 779 1909 
Q 1175 2209 1959 2209 
L 2766 2209 
L 2766 2266 
Q 2766 2663 2505 2880 
Q 2244 3097 1772 3097 
Q 1472 3097 1187 3025 
Q 903 2953 641 2809 
L 641 3341 
Q 956 3463 1253 3523 
Q 1550 3584 1831 3584 
Q 2591 3584 2966 3190 
Q 3341 2797 3341 1997 
z
" transform="scale(0.015625)"/>
       <path id="DejaVuSans-5b" d="M 550 4863 
L 1875 4863 
L 1875 4416 
L 1125 4416 
L 1125 -397 
L 1875 -397 
L 1875 -844 
L 550 -844 
L 550 4863 
z
" transform="scale(0.015625)"/>
       <path id="DejaVuSans-5e" d="M 2988 4666 
L 4684 2925 
L 4056 2925 
L 2681 4159 
L 1306 2925 
L 678 2925 
L 2375 4666 
L 2988 4666 
z
" transform="scale(0.015625)"/>
       <path id="DejaVuSans-33" d="M 2597 2516 
Q 3050 2419 3304 2112 
Q 3559 1806 3559 1356 
Q 3559 666 3084 287 
Q 2609 -91 1734 -91 
Q 1441 -91 1130 -33 
Q 819 25 488 141 
L 488 750 
Q 750 597 1062 519 
Q 1375 441 1716 441 
Q 2309 441 2620 675 
Q 2931 909 2931 1356 
Q 2931 1769 2642 2001 
Q 2353 2234 1838 2234 
L 1294 2234 
L 1294 2753 
L 1863 2753 
Q 2328 2753 2575 2939 
Q 2822 3125 2822 3475 
Q 2822 3834 2567 4026 
Q 2313 4219 1838 4219 
Q 1578 4219 1281 4162 
Q 984 4106 628 3988 
L 628 4550 
Q 988 4650 1302 4700 
Q 1616 4750 1894 4750 
Q 2613 4750 3031 4423 
Q 3450 4097 3450 3541 
Q 3450 3153 3228 2886 
Q 3006 2619 2597 2516 
z
" transform="scale(0.015625)"/>
       <path id="DejaVuSans-2a" d="M 3009 3897 
L 1888 3291 
L 3009 2681 
L 2828 2375 
L 1778 3009 
L 1778 1831 
L 1422 1831 
L 1422 3009 
L 372 2375 
L 191 2681 
L 1313 3291 
L 191 3897 
L 372 4206 
L 1422 3572 
L 1422 4750 
L 1778 4750 
L 1778 3572 
L 2828 4206 
L 3009 3897 
z
" transform="scale(0.015625)"/>
       <path id="DejaVuSans-6b" d="M 581 4863 
L 1159 4863 
L 1159 1991 
L 2875 3500 
L 3609 3500 
L 1753 1863 
L 3688 0 
L 2938 0 
L 1159 1709 
L 1159 0 
L 581 0 
L 581 4863 
z
" transform="scale(0.015625)"/>
       <path id="DejaVuSans-6d" d="M 3328 2828 
Q 3544 3216 3844 3400 
Q 4144 3584 4550 3584 
Q 5097 3584 5394 3201 
Q 5691 2819 5691 2113 
L 5691 0 
L 5113 0 
L 5113 2094 
Q 5113 2597 4934 2840 
Q 4756 3084 4391 3084 
Q 3944 3084 3684 2787 
Q 3425 2491 3425 1978 
L 3425 0 
L 2847 0 
L 2847 2094 
Q 2847 2600 2669 2842 
Q 2491 3084 2119 3084 
Q 1678 3084 1418 2786 
Q 1159 2488 1159 1978 
L 1159 0 
L 581 0 
L 581 3500 
L 1159 3500 
L 1159 2956 
Q 1356 3278 1631 3431 
Q 1906 3584 2284 3584 
Q 2666 3584 2933 3390 
Q 3200 3197 3328 2828 
z
" transform="scale(0.015625)"/>
       <path id="DejaVuSans-5d" d="M 1947 4863 
L 1947 -844 
L 622 -844 
L 622 -397 
L 1369 -397 
L 1369 4416 
L 622 4416 
L 622 4863 
L 1947 4863 
z
" transform="scale(0.015625)"/>
      </defs>
      <use xlink:href="#DejaVuSans-45"/>
      <use xlink:href="#DejaVuSans-64" x="63.183594"/>
      <use xlink:href="#DejaVuSans-64" x="126.660156"/>
      <use xlink:href="#DejaVuSans-79" x="190.136719"/>
      <use xlink:href="#DejaVuSans-20" x="249.316406"/>
      <use xlink:href="#DejaVuSans-41" x="281.103516"/>
      <use xlink:href="#DejaVuSans-72" x="349.511719"/>
      <use xlink:href="#DejaVuSans-65" x="388.375"/>
      <use xlink:href="#DejaVuSans-61" x="449.898438"/>
      <use xlink:href="#DejaVuSans-20" x="511.177734"/>
      <use xlink:href="#DejaVuSans-5b" x="542.964844"/>
      <use xlink:href="#DejaVuSans-31" x="581.978516"/>
      <use xlink:href="#DejaVuSans-30" x="645.601562"/>
      <use xlink:href="#DejaVuSans-5e" x="709.224609"/>
      <use xlink:href="#DejaVuSans-33" x="793.013672"/>
      <use xlink:href="#DejaVuSans-20" x="856.636719"/>
      <use xlink:href="#DejaVuSans-2a" x="888.423828"/>
      <use xlink:href="#DejaVuSans-20" x="938.423828"/>
      <use xlink:href="#DejaVuSans-6b" x="970.210938"/>
      <use xlink:href="#DejaVuSans-6d" x="1028.121094"/>
      <use xlink:href="#DejaVuSans-5e" x="1125.533203"/>
      <use xlink:href="#DejaVuSans-32" x="1209.322266"/>
      <use xlink:href="#DejaVuSans-5d" x="1272.945312"/>
     </g>
    </g>
   </g>
   <g id="matplotlib.axis_2">
    <g id="ytick_1">
     <g id="line2d_6">
      <defs>
       <path id="m58d66bd66b" d="M 0 0 
L -3.5 0 
" style="stroke: #000000; stroke-width: 0.8"/>
      </defs>
      <g>
       <use xlink:href="#m58d66bd66b" x="44.960938" y="245.464917" style="stroke: #000000; stroke-width: 0.8"/>
      </g>
     </g>
     <g id="text_7">
      <!-- −0.6 -->
      <g transform="translate(13.678125 249.264136)scale(0.1 -0.1)">
       <defs>
        <path id="DejaVuSans-2212" d="M 678 2272 
L 4684 2272 
L 4684 1741 
L 678 1741 
L 678 2272 
z
" transform="scale(0.015625)"/>
        <path id="DejaVuSans-2e" d="M 684 794 
L 1344 794 
L 1344 0 
L 684 0 
L 684 794 
z
" transform="scale(0.015625)"/>
       </defs>
       <use xlink:href="#DejaVuSans-2212"/>
       <use xlink:href="#DejaVuSans-30" x="83.789062"/>
       <use xlink:href="#DejaVuSans-2e" x="147.412109"/>
       <use xlink:href="#DejaVuSans-36" x="179.199219"/>
      </g>
     </g>
    </g>
    <g id="ytick_2">
     <g id="line2d_7">
      <g>
       <use xlink:href="#m58d66bd66b" x="44.960938" y="212.939512" style="stroke: #000000; stroke-width: 0.8"/>
      </g>
     </g>
     <g id="text_8">
      <!-- −0.4 -->
      <g transform="translate(13.678125 216.738731)scale(0.1 -0.1)">
       <use xlink:href="#DejaVuSans-2212"/>
       <use xlink:href="#DejaVuSans-30" x="83.789062"/>
       <use xlink:href="#DejaVuSans-2e" x="147.412109"/>
       <use xlink:href="#DejaVuSans-34" x="179.199219"/>
      </g>
     </g>
    </g>
    <g id="ytick_3">
     <g id="line2d_8">
      <g>
       <use xlink:href="#m58d66bd66b" x="44.960938" y="180.414108" style="stroke: #000000; stroke-width: 0.8"/>
      </g>
     </g>
     <g id="text_9">
      <!-- −0.2 -->
      <g transform="translate(13.678125 184.213326)scale(0.1 -0.1)">
       <use xlink:href="#DejaVuSans-2212"/>
       <use xlink:href="#DejaVuSans-30" x="83.789062"/>
       <use xlink:href="#DejaVuSans-2e" x="147.412109"/>
       <use xlink:href="#DejaVuSans-32" x="179.199219"/>
      </g>
     </g>
    </g>
    <g id="ytick_4">
     <g id="line2d_9">
      <g>
       <use xlink:href="#m58d66bd66b" x="44.960938" y="147.888703" style="stroke: #000000; stroke-width: 0.8"/>
      </g>
     </g>
     <g id="text_10">
      <!-- 0.0 -->
      <g transform="translate(22.057813 151.687922)scale(0.1 -0.1)">
       <use xlink:href="#DejaVuSans-30"/>
       <use xlink:href="#DejaVuSans-2e" x="63.623047"/>
       <use xlink:href="#DejaVuSans-30" x="95.410156"/>
      </g>
     </g>
    </g>
    <g id="ytick_5">
     <g id="line2d_10">
      <g>
       <use xlink:href="#m58d66bd66b" x="44.960938" y="115.363298" style="stroke: #000000; stroke-width: 0.8"/>
      </g>
     </g>
     <g id="text_11">
      <!-- 0.2 -->
      <g transform="translate(22.057813 119.162517)scale(0.1 -0.1)">
       <use xlink:href="#DejaVuSans-30"/>
       <use xlink:href="#DejaVuSans-2e" x="63.623047"/>
       <use xlink:href="#DejaVuSans-32" x="95.410156"/>
      </g>
     </g>
    </g>
    <g id="ytick_6">
     <g id="line2d_11">
      <g>
       <use xlink:href="#m58d66bd66b" x="44.960938" y="82.837893" style="stroke: #000000; stroke-width: 0.8"/>
      </g>
     </g>
     <g id="text_12">
      <!-- 0.4 -->
      <g transform="translate(22.057813 86.637112)scale(0.1 -0.1)">
       <use xlink:href="#DejaVuSans-30"/>
       <use xlink:href="#DejaVuSans-2e" x="63.623047"/>
       <use xlink:href="#DejaVuSans-34" x="95.410156"/>
      </g>
     </g>
    </g>
    <g id="ytick_7">
     <g id="line2d_12">
      <g>
       <use xlink:href="#m58d66bd66b" x="44.960938" y="50.312489" style="stroke: #000000; stroke-width: 0.8"/>
      </g>
     </g>
     <g id="text_13">
      <!-- 0.6 -->
      <g transform="translate(22.057813 54.111707)scale(0.1 -0.1)">
       <use xlink:href="#DejaVuSans-30"/>
       <use xlink:href="#DejaVuSans-2e" x="63.623047"/>
       <use xlink:href="#DejaVuSans-36" x="95.410156"/>
      </g>
     </g>
    </g>
    <g id="ytick_8">
     <g id="line2d_13">
      <g>
       <use xlink:href="#m58d66bd66b" x="44.960938" y="17.787084" style="stroke: #000000; stroke-width: 0.8"/>
      </g>
     </g>
     <g id="text_14">
      <!-- 0.8 -->
      <g transform="translate(22.057813 21.586303)scale(0.1 -0.1)">
       <use xlink:href="#DejaVuSans-30"/>
       <use xlink:href="#DejaVuSans-2e" x="63.623047"/>
       <use xlink:href="#DejaVuSans-38" x="95.410156"/>
      </g>
     </g>
    </g>
    <g id="text_15">
     <!-- Eddy Amplitude [m] -->
     <g transform="translate(7.598438 183.095844)rotate(-90)scale(0.1 -0.1)">
      <defs>
       <path id="DejaVuSans-70" d="M 1159 525 
L 1159 -1331 
L 581 -1331 
L 581 3500 
L 1159 3500 
L 1159 2969 
Q 1341 3281 1617 3432 
Q 1894 3584 2278 3584 
Q 2916 3584 3314 3078 
Q 3713 2572 3713 1747 
Q 3713 922 3314 415 
Q 2916 -91 2278 -91 
Q 1894 -91 1617 61 
Q 1341 213 1159 525 
z
M 3116 1747 
Q 3116 2381 2855 2742 
Q 2594 3103 2138 3103 
Q 1681 3103 1420 2742 
Q 1159 2381 1159 1747 
Q 1159 1113 1420 752 
Q 1681 391 2138 391 
Q 2594 391 2855 752 
Q 3116 1113 3116 1747 
z
" transform="scale(0.015625)"/>
       <path id="DejaVuSans-6c" d="M 603 4863 
L 1178 4863 
L 1178 0 
L 603 0 
L 603 4863 
z
" transform="scale(0.015625)"/>
       <path id="DejaVuSans-69" d="M 603 3500 
L 1178 3500 
L 1178 0 
L 603 0 
L 603 3500 
z
M 603 4863 
L 1178 4863 
L 1178 4134 
L 603 4134 
L 603 4863 
z
" transform="scale(0.015625)"/>
       <path id="DejaVuSans-74" d="M 1172 4494 
L 1172 3500 
L 2356 3500 
L 2356 3053 
L 1172 3053 
L 1172 1153 
Q 1172 725 1289 603 
Q 1406 481 1766 481 
L 2356 481 
L 2356 0 
L 1766 0 
Q 1100 0 847 248 
Q 594 497 594 1153 
L 594 3053 
L 172 3053 
L 172 3500 
L 594 3500 
L 594 4494 
L 1172 4494 
z
" transform="scale(0.015625)"/>
       <path id="DejaVuSans-75" d="M 544 1381 
L 544 3500 
L 1119 3500 
L 1119 1403 
Q 1119 906 1312 657 
Q 1506 409 1894 409 
Q 2359 409 2629 706 
Q 2900 1003 2900 1516 
L 2900 3500 
L 3475 3500 
L 3475 0 
L 2900 0 
L 2900 538 
Q 2691 219 2414 64 
Q 2138 -91 1772 -91 
Q 1169 -91 856 284 
Q 544 659 544 1381 
z
M 1991 3584 
L 1991 3584 
z
" transform="scale(0.015625)"/>
      </defs>
      <use xlink:href="#DejaVuSans-45"/>
      <use xlink:href="#DejaVuSans-64" x="63.183594"/>
      <use xlink:href="#DejaVuSans-64" x="126.660156"/>
      <use xlink:href="#DejaVuSans-79" x="190.136719"/>
      <use xlink:href="#DejaVuSans-20" x="249.316406"/>
      <use xlink:href="#DejaVuSans-41" x="281.103516"/>
      <use xlink:href="#DejaVuSans-6d" x="349.511719"/>
      <use xlink:href="#DejaVuSans-70" x="446.923828"/>
      <use xlink:href="#DejaVuSans-6c" x="510.400391"/>
      <use xlink:href="#DejaVuSans-69" x="538.183594"/>
      <use xlink:href="#DejaVuSans-74" x="565.966797"/>
      <use xlink:href="#DejaVuSans-75" x="605.175781"/>
      <use xlink:href="#DejaVuSans-64" x="668.554688"/>
      <use xlink:href="#DejaVuSans-65" x="732.03125"/>
      <use xlink:href="#DejaVuSans-20" x="793.554688"/>
      <use xlink:href="#DejaVuSans-5b" x="825.341797"/>
      <use xlink:href="#DejaVuSans-6d" x="864.355469"/>
      <use xlink:href="#DejaVuSans-5d" x="961.767578"/>
     </g>
    </g>
   </g>
   <g id="line2d_14">
    <path d="M 61.193665 207.832377 
L 101.775483 183.856334 
L 106.284574 181.192329 
L 106.284574 181.192329 
L 106.284574 181.192329 
L 110.793665 178.528325 
L 110.793665 178.528325 
L 110.793665 178.528325 
L 115.302756 175.86432 
L 119.811847 173.200315 
L 124.320938 170.53631 
L 133.339119 165.208301 
L 137.84821 162.544296 
L 142.357301 159.880291 
L 142.357301 159.880291 
L 146.866392 157.216286 
L 146.866392 157.216286 
L 151.375483 154.552282 
L 155.884574 151.888277 
L 155.884574 151.888277 
L 155.884574 151.888277 
L 155.884574 151.888277 
L 164.902756 146.560267 
L 164.902756 146.560267 
L 182.939119 135.904248 
L 182.939119 135.904248 
L 187.44821 133.240244 
L 191.957301 130.576239 
L 200.975483 125.248229 
L 200.975483 125.248229 
L 214.502756 117.256215 
L 223.520938 111.928205 
L 228.030028 109.264201 
L 241.557301 101.272186 
L 241.557301 101.272186 
L 241.557301 101.272186 
L 246.066392 98.608182 
L 246.066392 98.608182 
L 250.575483 95.944177 
L 255.084574 93.280172 
L 264.102756 87.952163 
L 277.630028 79.960148 
L 291.157301 71.968134 
L 304.684574 63.97612 
L 309.193665 61.312115 
L 318.211847 55.984105 
L 322.720938 53.320101 
L 354.284574 34.672067 
L 372.320938 24.016048 
L 385.84821 16.024034 
" clip-path="url(#pff0ae8b4f7)" style="fill: none; stroke: #000080; stroke-width: 1.5; stroke-linecap: square"/>
   </g>
   <g id="line2d_15">
    <path d="M 61.193665 254.016 
L 101.775483 192.410666 
L 106.284574 187.382984 
L 106.284574 187.382984 
L 106.284574 187.382984 
L 110.793665 182.589234 
L 110.793665 182.589234 
L 110.793665 182.589234 
L 115.302756 178.008612 
L 119.811847 173.622969 
L 124.320938 169.416384 
L 133.339119 161.485776 
L 137.84821 157.738198 
L 142.357301 154.122141 
L 142.357301 154.122141 
L 146.866392 150.628687 
L 146.866392 150.628687 
L 151.375483 147.249792 
L 155.884574 143.978183 
L 155.884574 143.978183 
L 155.884574 143.978183 
L 155.884574 143.978183 
L 164.902756 137.730995 
L 164.902756 137.730995 
L 182.939119 126.269523 
L 182.939119 126.269523 
L 187.44821 123.592826 
L 191.957301 120.9839 
L 200.975483 115.956218 
L 200.975483 115.956218 
L 214.502756 108.846707 
L 223.520938 104.365695 
L 228.030028 102.196203 
L 241.557301 95.949016 
L 241.557301 95.949016 
L 241.557301 95.949016 
L 246.066392 93.948039 
L 246.066392 93.948039 
L 250.575483 91.985179 
L 255.084574 90.05901 
L 264.102756 86.311432 
L 277.630028 80.933845 
L 291.157301 75.823027 
L 304.684574 70.953757 
L 309.193665 69.380489 
L 318.211847 66.304229 
L 322.720938 64.799866 
L 354.284574 54.842757 
L 372.320938 49.557135 
L 385.84821 45.763564 
" clip-path="url(#pff0ae8b4f7)" style="fill: none; stroke: #ff0000; stroke-width: 1.5; stroke-linecap: square"/>
   </g>
   <g id="patch_3">
    <path d="M 44.960938 266.112 
L 44.960938 -0 
" style="fill: none; stroke: #000000; stroke-width: 0.8; stroke-linejoin: miter; stroke-linecap: square"/>
   </g>
   <g id="patch_4">
    <path d="M 402.080938 266.112 
L 402.080938 -0 
" style="fill: none; stroke: #000000; stroke-width: 0.8; stroke-linejoin: miter; stroke-linecap: square"/>
   </g>
   <g id="patch_5">
    <path d="M 44.960938 266.112 
L 402.080938 266.112 
" style="fill: none; stroke: #000000; stroke-width: 0.8; stroke-linejoin: miter; stroke-linecap: square"/>
   </g>
   <g id="patch_6">
    <path d="M 44.960938 -0 
L 402.080938 -0 
" style="fill: none; stroke: #000000; stroke-width: 0.8; stroke-linejoin: miter; stroke-linecap: square"/>
   </g>
   <g id="legend_1">
    <g id="patch_7">
     <path d="M 51.960938 37.35625 
L 191.7 37.35625 
Q 193.7 37.35625 193.7 35.35625 
L 193.7 7 
Q 193.7 5 191.7 5 
L 51.960938 5 
Q 49.960938 5 49.960938 7 
L 49.960938 35.35625 
Q 49.960938 37.35625 51.960938 37.35625 
z
" style="fill: #ffffff; opacity: 0.8; stroke: #cccccc; stroke-linejoin: miter"/>
    </g>
    <g id="line2d_16">
     <path d="M 53.960938 13.098437 
L 63.960938 13.098437 
L 73.960938 13.098437 
" style="fill: none; stroke: #000080; stroke-width: 1.5; stroke-linecap: square"/>
    </g>
    <g id="text_16">
     <!-- Linear Trendline -->
     <g transform="translate(81.960938 16.598437)scale(0.1 -0.1)">
      <defs>
       <path id="DejaVuSans-4c" d="M 628 4666 
L 1259 4666 
L 1259 531 
L 3531 531 
L 3531 0 
L 628 0 
L 628 4666 
z
" transform="scale(0.015625)"/>
       <path id="DejaVuSans-6e" d="M 3513 2113 
L 3513 0 
L 2938 0 
L 2938 2094 
Q 2938 2591 2744 2837 
Q 2550 3084 2163 3084 
Q 1697 3084 1428 2787 
Q 1159 2491 1159 1978 
L 1159 0 
L 581 0 
L 581 3500 
L 1159 3500 
L 1159 2956 
Q 1366 3272 1645 3428 
Q 1925 3584 2291 3584 
Q 2894 3584 3203 3211 
Q 3513 2838 3513 2113 
z
" transform="scale(0.015625)"/>
       <path id="DejaVuSans-54" d="M -19 4666 
L 3928 4666 
L 3928 4134 
L 2272 4134 
L 2272 0 
L 1638 0 
L 1638 4134 
L -19 4134 
L -19 4666 
z
" transform="scale(0.015625)"/>
      </defs>
      <use xlink:href="#DejaVuSans-4c"/>
      <use xlink:href="#DejaVuSans-69" x="55.712891"/>
      <use xlink:href="#DejaVuSans-6e" x="83.496094"/>
      <use xlink:href="#DejaVuSans-65" x="146.875"/>
      <use xlink:href="#DejaVuSans-61" x="208.398438"/>
      <use xlink:href="#DejaVuSans-72" x="269.677734"/>
      <use xlink:href="#DejaVuSans-20" x="310.791016"/>
      <use xlink:href="#DejaVuSans-54" x="342.578125"/>
      <use xlink:href="#DejaVuSans-72" x="388.912109"/>
      <use xlink:href="#DejaVuSans-65" x="427.775391"/>
      <use xlink:href="#DejaVuSans-6e" x="489.298828"/>
      <use xlink:href="#DejaVuSans-64" x="552.677734"/>
      <use xlink:href="#DejaVuSans-6c" x="616.154297"/>
      <use xlink:href="#DejaVuSans-69" x="643.9375"/>
      <use xlink:href="#DejaVuSans-6e" x="671.720703"/>
      <use xlink:href="#DejaVuSans-65" x="735.099609"/>
     </g>
    </g>
    <g id="line2d_17">
     <path d="M 53.960938 27.776562 
L 63.960938 27.776562 
L 73.960938 27.776562 
" style="fill: none; stroke: #ff0000; stroke-width: 1.5; stroke-linecap: square"/>
    </g>
    <g id="text_17">
     <!-- Logarithmic Trendline -->
     <g transform="translate(81.960938 31.276562)scale(0.1 -0.1)">
      <defs>
       <path id="DejaVuSans-6f" d="M 1959 3097 
Q 1497 3097 1228 2736 
Q 959 2375 959 1747 
Q 959 1119 1226 758 
Q 1494 397 1959 397 
Q 2419 397 2687 759 
Q 2956 1122 2956 1747 
Q 2956 2369 2687 2733 
Q 2419 3097 1959 3097 
z
M 1959 3584 
Q 2709 3584 3137 3096 
Q 3566 2609 3566 1747 
Q 3566 888 3137 398 
Q 2709 -91 1959 -91 
Q 1206 -91 779 398 
Q 353 888 353 1747 
Q 353 2609 779 3096 
Q 1206 3584 1959 3584 
z
" transform="scale(0.015625)"/>
       <path id="DejaVuSans-67" d="M 2906 1791 
Q 2906 2416 2648 2759 
Q 2391 3103 1925 3103 
Q 1463 3103 1205 2759 
Q 947 2416 947 1791 
Q 947 1169 1205 825 
Q 1463 481 1925 481 
Q 2391 481 2648 825 
Q 2906 1169 2906 1791 
z
M 3481 434 
Q 3481 -459 3084 -895 
Q 2688 -1331 1869 -1331 
Q 1566 -1331 1297 -1286 
Q 1028 -1241 775 -1147 
L 775 -588 
Q 1028 -725 1275 -790 
Q 1522 -856 1778 -856 
Q 2344 -856 2625 -561 
Q 2906 -266 2906 331 
L 2906 616 
Q 2728 306 2450 153 
Q 2172 0 1784 0 
Q 1141 0 747 490 
Q 353 981 353 1791 
Q 353 2603 747 3093 
Q 1141 3584 1784 3584 
Q 2172 3584 2450 3431 
Q 2728 3278 2906 2969 
L 2906 3500 
L 3481 3500 
L 3481 434 
z
" transform="scale(0.015625)"/>
       <path id="DejaVuSans-68" d="M 3513 2113 
L 3513 0 
L 2938 0 
L 2938 2094 
Q 2938 2591 2744 2837 
Q 2550 3084 2163 3084 
Q 1697 3084 1428 2787 
Q 1159 2491 1159 1978 
L 1159 0 
L 581 0 
L 581 4863 
L 1159 4863 
L 1159 2956 
Q 1366 3272 1645 3428 
Q 1925 3584 2291 3584 
Q 2894 3584 3203 3211 
Q 3513 2838 3513 2113 
z
" transform="scale(0.015625)"/>
       <path id="DejaVuSans-63" d="M 3122 3366 
L 3122 2828 
Q 2878 2963 2633 3030 
Q 2388 3097 2138 3097 
Q 1578 3097 1268 2742 
Q 959 2388 959 1747 
Q 959 1106 1268 751 
Q 1578 397 2138 397 
Q 2388 397 2633 464 
Q 2878 531 3122 666 
L 3122 134 
Q 2881 22 2623 -34 
Q 2366 -91 2075 -91 
Q 1284 -91 818 406 
Q 353 903 353 1747 
Q 353 2603 823 3093 
Q 1294 3584 2113 3584 
Q 2378 3584 2631 3529 
Q 2884 3475 3122 3366 
z
" transform="scale(0.015625)"/>
      </defs>
      <use xlink:href="#DejaVuSans-4c"/>
      <use xlink:href="#DejaVuSans-6f" x="53.962891"/>
      <use xlink:href="#DejaVuSans-67" x="115.144531"/>
      <use xlink:href="#DejaVuSans-61" x="178.621094"/>
      <use xlink:href="#DejaVuSans-72" x="239.900391"/>
      <use xlink:href="#DejaVuSans-69" x="281.013672"/>
      <use xlink:href="#DejaVuSans-74" x="308.796875"/>
      <use xlink:href="#DejaVuSans-68" x="348.005859"/>
      <use xlink:href="#DejaVuSans-6d" x="411.384766"/>
      <use xlink:href="#DejaVuSans-69" x="508.796875"/>
      <use xlink:href="#DejaVuSans-63" x="536.580078"/>
      <use xlink:href="#DejaVuSans-20" x="591.560547"/>
      <use xlink:href="#DejaVuSans-54" x="623.347656"/>
      <use xlink:href="#DejaVuSans-72" x="669.681641"/>
      <use xlink:href="#DejaVuSans-65" x="708.544922"/>
      <use xlink:href="#DejaVuSans-6e" x="770.068359"/>
      <use xlink:href="#DejaVuSans-64" x="833.447266"/>
      <use xlink:href="#DejaVuSans-6c" x="896.923828"/>
      <use xlink:href="#DejaVuSans-69" x="924.707031"/>
      <use xlink:href="#DejaVuSans-6e" x="952.490234"/>
      <use xlink:href="#DejaVuSans-65" x="1015.869141"/>
     </g>
    </g>
   </g>
  </g>
 </g>
 <defs>
  <clipPath id="pff0ae8b4f7">
   <rect x="44.960938" y="-0" width="357.12" height="266.112"/>
  </clipPath>
 </defs>
</svg>
