<?xml version="1.0" encoding="utf-8" standalone="no"?>
<!DOCTYPE svg PUBLIC "-//W3C//DTD SVG 1.1//EN"
  "http://www.w3.org/Graphics/SVG/1.1/DTD/svg11.dtd">
<svg xmlns:xlink="http://www.w3.org/1999/xlink" width="390.523125pt" height="286.790125pt" viewBox="0 0 390.523125 286.790125" xmlns="http://www.w3.org/2000/svg" version="1.1">
 <metadata>
  <rdf:RDF xmlns:dc="http://purl.org/dc/elements/1.1/" xmlns:cc="http://creativecommons.org/ns#" xmlns:rdf="http://www.w3.org/1999/02/22-rdf-syntax-ns#">
   <cc:Work>
    <dc:type rdf:resource="http://purl.org/dc/dcmitype/StillImage"/>
    <dc:date>2023-06-13T21:30:22.581306</dc:date>
    <dc:format>image/svg+xml</dc:format>
    <dc:creator>
     <cc:Agent>
      <dc:title>Matplotlib v3.5.2, https://matplotlib.org/</dc:title>
     </cc:Agent>
    </dc:creator>
   </cc:Work>
  </rdf:RDF>
 </metadata>
 <defs>
  <style type="text/css">*{stroke-linejoin: round; stroke-linecap: butt}</style>
 </defs>
 <g id="figure_1">
  <g id="patch_1">
   <path d="M 0 286.790125 
L 390.523125 286.790125 
L 390.523125 -0 
L 0 -0 
z
" style="fill: #ffffff"/>
  </g>
  <g id="axes_1">
   <g id="patch_2">
    <path d="M 33.403125 266.112 
L 390.523125 266.112 
L 390.523125 -0 
L 33.403125 -0 
z
" style="fill: #ffffff"/>
   </g>
   <g id="matplotlib.axis_1">
    <g id="xtick_1">
     <g id="line2d_1">
      <path d="M 52.095356 266.112 
L 52.095356 -0 
" clip-path="url(#p76cb9c1ff8)" style="fill: none; stroke: #b0b0b0; stroke-width: 0.8; stroke-linecap: square"/>
     </g>
     <g id="line2d_2">
      <defs>
       <path id="m4a7bd40112" d="M 0 0 
L 0 3.5 
" style="stroke: #000000; stroke-width: 0.8"/>
      </defs>
      <g>
       <use xlink:href="#m4a7bd40112" x="52.095356" y="266.112" style="stroke: #000000; stroke-width: 0.8"/>
      </g>
     </g>
    </g>
    <g id="xtick_2">
     <g id="line2d_3">
      <path d="M 58.244117 266.112 
L 58.244117 -0 
" clip-path="url(#p76cb9c1ff8)" style="fill: none; stroke: #b0b0b0; stroke-width: 0.8; stroke-linecap: square"/>
     </g>
     <g id="line2d_4">
      <g>
       <use xlink:href="#m4a7bd40112" x="58.244117" y="266.112" style="stroke: #000000; stroke-width: 0.8"/>
      </g>
     </g>
    </g>
    <g id="xtick_3">
     <g id="line2d_5">
      <path d="M 64.392877 266.112 
L 64.392877 -0 
" clip-path="url(#p76cb9c1ff8)" style="fill: none; stroke: #b0b0b0; stroke-width: 0.8; stroke-linecap: square"/>
     </g>
     <g id="line2d_6">
      <g>
       <use xlink:href="#m4a7bd40112" x="64.392877" y="266.112" style="stroke: #000000; stroke-width: 0.8"/>
      </g>
     </g>
    </g>
    <g id="xtick_4">
     <g id="line2d_7">
      <path d="M 70.541637 266.112 
L 70.541637 -0 
" clip-path="url(#p76cb9c1ff8)" style="fill: none; stroke: #b0b0b0; stroke-width: 0.8; stroke-linecap: square"/>
     </g>
     <g id="line2d_8">
      <g>
       <use xlink:href="#m4a7bd40112" x="70.541637" y="266.112" style="stroke: #000000; stroke-width: 0.8"/>
      </g>
     </g>
    </g>
    <g id="xtick_5">
     <g id="line2d_9">
      <path d="M 76.690398 266.112 
L 76.690398 -0 
" clip-path="url(#p76cb9c1ff8)" style="fill: none; stroke: #b0b0b0; stroke-width: 0.8; stroke-linecap: square"/>
     </g>
     <g id="line2d_10">
      <g>
       <use xlink:href="#m4a7bd40112" x="76.690398" y="266.112" style="stroke: #000000; stroke-width: 0.8"/>
      </g>
     </g>
    </g>
    <g id="xtick_6">
     <g id="line2d_11">
      <path d="M 82.839158 266.112 
L 82.839158 -0 
" clip-path="url(#p76cb9c1ff8)" style="fill: none; stroke: #b0b0b0; stroke-width: 0.8; stroke-linecap: square"/>
     </g>
     <g id="line2d_12">
      <g>
       <use xlink:href="#m4a7bd40112" x="82.839158" y="266.112" style="stroke: #000000; stroke-width: 0.8"/>
      </g>
     </g>
    </g>
    <g id="xtick_7">
     <g id="line2d_13">
      <path d="M 88.987918 266.112 
L 88.987918 -0 
" clip-path="url(#p76cb9c1ff8)" style="fill: none; stroke: #b0b0b0; stroke-width: 0.8; stroke-linecap: square"/>
     </g>
     <g id="line2d_14">
      <g>
       <use xlink:href="#m4a7bd40112" x="88.987918" y="266.112" style="stroke: #000000; stroke-width: 0.8"/>
      </g>
     </g>
    </g>
    <g id="xtick_8">
     <g id="line2d_15">
      <path d="M 95.136679 266.112 
L 95.136679 -0 
" clip-path="url(#p76cb9c1ff8)" style="fill: none; stroke: #b0b0b0; stroke-width: 0.8; stroke-linecap: square"/>
     </g>
     <g id="line2d_16">
      <g>
       <use xlink:href="#m4a7bd40112" x="95.136679" y="266.112" style="stroke: #000000; stroke-width: 0.8"/>
      </g>
     </g>
    </g>
    <g id="xtick_9">
     <g id="line2d_17">
      <path d="M 101.285439 266.112 
L 101.285439 -0 
" clip-path="url(#p76cb9c1ff8)" style="fill: none; stroke: #b0b0b0; stroke-width: 0.8; stroke-linecap: square"/>
     </g>
     <g id="line2d_18">
      <g>
       <use xlink:href="#m4a7bd40112" x="101.285439" y="266.112" style="stroke: #000000; stroke-width: 0.8"/>
      </g>
     </g>
    </g>
    <g id="xtick_10">
     <g id="line2d_19">
      <path d="M 107.434199 266.112 
L 107.434199 -0 
" clip-path="url(#p76cb9c1ff8)" style="fill: none; stroke: #b0b0b0; stroke-width: 0.8; stroke-linecap: square"/>
     </g>
     <g id="line2d_20">
      <g>
       <use xlink:href="#m4a7bd40112" x="107.434199" y="266.112" style="stroke: #000000; stroke-width: 0.8"/>
      </g>
     </g>
    </g>
    <g id="xtick_11">
     <g id="line2d_21">
      <path d="M 113.58296 266.112 
L 113.58296 -0 
" clip-path="url(#p76cb9c1ff8)" style="fill: none; stroke: #b0b0b0; stroke-width: 0.8; stroke-linecap: square"/>
     </g>
     <g id="line2d_22">
      <g>
       <use xlink:href="#m4a7bd40112" x="113.58296" y="266.112" style="stroke: #000000; stroke-width: 0.8"/>
      </g>
     </g>
    </g>
    <g id="xtick_12">
     <g id="line2d_23">
      <path d="M 119.73172 266.112 
L 119.73172 -0 
" clip-path="url(#p76cb9c1ff8)" style="fill: none; stroke: #b0b0b0; stroke-width: 0.8; stroke-linecap: square"/>
     </g>
     <g id="line2d_24">
      <g>
       <use xlink:href="#m4a7bd40112" x="119.73172" y="266.112" style="stroke: #000000; stroke-width: 0.8"/>
      </g>
     </g>
    </g>
    <g id="xtick_13">
     <g id="line2d_25">
      <path d="M 125.88048 266.112 
L 125.88048 -0 
" clip-path="url(#p76cb9c1ff8)" style="fill: none; stroke: #b0b0b0; stroke-width: 0.8; stroke-linecap: square"/>
     </g>
     <g id="line2d_26">
      <g>
       <use xlink:href="#m4a7bd40112" x="125.88048" y="266.112" style="stroke: #000000; stroke-width: 0.8"/>
      </g>
     </g>
    </g>
    <g id="xtick_14">
     <g id="line2d_27">
      <path d="M 132.029241 266.112 
L 132.029241 -0 
" clip-path="url(#p76cb9c1ff8)" style="fill: none; stroke: #b0b0b0; stroke-width: 0.8; stroke-linecap: square"/>
     </g>
     <g id="line2d_28">
      <g>
       <use xlink:href="#m4a7bd40112" x="132.029241" y="266.112" style="stroke: #000000; stroke-width: 0.8"/>
      </g>
     </g>
    </g>
    <g id="xtick_15">
     <g id="line2d_29">
      <path d="M 138.178001 266.112 
L 138.178001 -0 
" clip-path="url(#p76cb9c1ff8)" style="fill: none; stroke: #b0b0b0; stroke-width: 0.8; stroke-linecap: square"/>
     </g>
     <g id="line2d_30">
      <g>
       <use xlink:href="#m4a7bd40112" x="138.178001" y="266.112" style="stroke: #000000; stroke-width: 0.8"/>
      </g>
     </g>
    </g>
    <g id="xtick_16">
     <g id="line2d_31">
      <path d="M 144.326761 266.112 
L 144.326761 -0 
" clip-path="url(#p76cb9c1ff8)" style="fill: none; stroke: #b0b0b0; stroke-width: 0.8; stroke-linecap: square"/>
     </g>
     <g id="line2d_32">
      <g>
       <use xlink:href="#m4a7bd40112" x="144.326761" y="266.112" style="stroke: #000000; stroke-width: 0.8"/>
      </g>
     </g>
    </g>
    <g id="xtick_17">
     <g id="line2d_33">
      <path d="M 150.475522 266.112 
L 150.475522 -0 
" clip-path="url(#p76cb9c1ff8)" style="fill: none; stroke: #b0b0b0; stroke-width: 0.8; stroke-linecap: square"/>
     </g>
     <g id="line2d_34">
      <g>
       <use xlink:href="#m4a7bd40112" x="150.475522" y="266.112" style="stroke: #000000; stroke-width: 0.8"/>
      </g>
     </g>
    </g>
    <g id="xtick_18">
     <g id="line2d_35">
      <path d="M 156.624282 266.112 
L 156.624282 -0 
" clip-path="url(#p76cb9c1ff8)" style="fill: none; stroke: #b0b0b0; stroke-width: 0.8; stroke-linecap: square"/>
     </g>
     <g id="line2d_36">
      <g>
       <use xlink:href="#m4a7bd40112" x="156.624282" y="266.112" style="stroke: #000000; stroke-width: 0.8"/>
      </g>
     </g>
    </g>
    <g id="xtick_19">
     <g id="line2d_37">
      <path d="M 162.773042 266.112 
L 162.773042 -0 
" clip-path="url(#p76cb9c1ff8)" style="fill: none; stroke: #b0b0b0; stroke-width: 0.8; stroke-linecap: square"/>
     </g>
     <g id="line2d_38">
      <g>
       <use xlink:href="#m4a7bd40112" x="162.773042" y="266.112" style="stroke: #000000; stroke-width: 0.8"/>
      </g>
     </g>
    </g>
    <g id="xtick_20">
     <g id="line2d_39">
      <path d="M 168.921803 266.112 
L 168.921803 -0 
" clip-path="url(#p76cb9c1ff8)" style="fill: none; stroke: #b0b0b0; stroke-width: 0.8; stroke-linecap: square"/>
     </g>
     <g id="line2d_40">
      <g>
       <use xlink:href="#m4a7bd40112" x="168.921803" y="266.112" style="stroke: #000000; stroke-width: 0.8"/>
      </g>
     </g>
    </g>
    <g id="xtick_21">
     <g id="line2d_41">
      <path d="M 175.070563 266.112 
L 175.070563 -0 
" clip-path="url(#p76cb9c1ff8)" style="fill: none; stroke: #b0b0b0; stroke-width: 0.8; stroke-linecap: square"/>
     </g>
     <g id="line2d_42">
      <g>
       <use xlink:href="#m4a7bd40112" x="175.070563" y="266.112" style="stroke: #000000; stroke-width: 0.8"/>
      </g>
     </g>
    </g>
    <g id="xtick_22">
     <g id="line2d_43">
      <path d="M 181.219323 266.112 
L 181.219323 -0 
" clip-path="url(#p76cb9c1ff8)" style="fill: none; stroke: #b0b0b0; stroke-width: 0.8; stroke-linecap: square"/>
     </g>
     <g id="line2d_44">
      <g>
       <use xlink:href="#m4a7bd40112" x="181.219323" y="266.112" style="stroke: #000000; stroke-width: 0.8"/>
      </g>
     </g>
    </g>
    <g id="xtick_23">
     <g id="line2d_45">
      <path d="M 187.368084 266.112 
L 187.368084 -0 
" clip-path="url(#p76cb9c1ff8)" style="fill: none; stroke: #b0b0b0; stroke-width: 0.8; stroke-linecap: square"/>
     </g>
     <g id="line2d_46">
      <g>
       <use xlink:href="#m4a7bd40112" x="187.368084" y="266.112" style="stroke: #000000; stroke-width: 0.8"/>
      </g>
     </g>
    </g>
    <g id="xtick_24">
     <g id="line2d_47">
      <path d="M 193.516844 266.112 
L 193.516844 -0 
" clip-path="url(#p76cb9c1ff8)" style="fill: none; stroke: #b0b0b0; stroke-width: 0.8; stroke-linecap: square"/>
     </g>
     <g id="line2d_48">
      <g>
       <use xlink:href="#m4a7bd40112" x="193.516844" y="266.112" style="stroke: #000000; stroke-width: 0.8"/>
      </g>
     </g>
    </g>
    <g id="xtick_25">
     <g id="line2d_49">
      <path d="M 199.665604 266.112 
L 199.665604 -0 
" clip-path="url(#p76cb9c1ff8)" style="fill: none; stroke: #b0b0b0; stroke-width: 0.8; stroke-linecap: square"/>
     </g>
     <g id="line2d_50">
      <g>
       <use xlink:href="#m4a7bd40112" x="199.665604" y="266.112" style="stroke: #000000; stroke-width: 0.8"/>
      </g>
     </g>
    </g>
    <g id="xtick_26">
     <g id="line2d_51">
      <path d="M 205.814365 266.112 
L 205.814365 -0 
" clip-path="url(#p76cb9c1ff8)" style="fill: none; stroke: #b0b0b0; stroke-width: 0.8; stroke-linecap: square"/>
     </g>
     <g id="line2d_52">
      <g>
       <use xlink:href="#m4a7bd40112" x="205.814365" y="266.112" style="stroke: #000000; stroke-width: 0.8"/>
      </g>
     </g>
    </g>
    <g id="xtick_27">
     <g id="line2d_53">
      <path d="M 211.963125 266.112 
L 211.963125 -0 
" clip-path="url(#p76cb9c1ff8)" style="fill: none; stroke: #b0b0b0; stroke-width: 0.8; stroke-linecap: square"/>
     </g>
     <g id="line2d_54">
      <g>
       <use xlink:href="#m4a7bd40112" x="211.963125" y="266.112" style="stroke: #000000; stroke-width: 0.8"/>
      </g>
     </g>
    </g>
    <g id="xtick_28">
     <g id="line2d_55">
      <path d="M 218.111885 266.112 
L 218.111885 -0 
" clip-path="url(#p76cb9c1ff8)" style="fill: none; stroke: #b0b0b0; stroke-width: 0.8; stroke-linecap: square"/>
     </g>
     <g id="line2d_56">
      <g>
       <use xlink:href="#m4a7bd40112" x="218.111885" y="266.112" style="stroke: #000000; stroke-width: 0.8"/>
      </g>
     </g>
    </g>
    <g id="xtick_29">
     <g id="line2d_57">
      <path d="M 224.260646 266.112 
L 224.260646 -0 
" clip-path="url(#p76cb9c1ff8)" style="fill: none; stroke: #b0b0b0; stroke-width: 0.8; stroke-linecap: square"/>
     </g>
     <g id="line2d_58">
      <g>
       <use xlink:href="#m4a7bd40112" x="224.260646" y="266.112" style="stroke: #000000; stroke-width: 0.8"/>
      </g>
     </g>
    </g>
    <g id="xtick_30">
     <g id="line2d_59">
      <path d="M 230.409406 266.112 
L 230.409406 -0 
" clip-path="url(#p76cb9c1ff8)" style="fill: none; stroke: #b0b0b0; stroke-width: 0.8; stroke-linecap: square"/>
     </g>
     <g id="line2d_60">
      <g>
       <use xlink:href="#m4a7bd40112" x="230.409406" y="266.112" style="stroke: #000000; stroke-width: 0.8"/>
      </g>
     </g>
    </g>
    <g id="xtick_31">
     <g id="line2d_61">
      <path d="M 236.558166 266.112 
L 236.558166 -0 
" clip-path="url(#p76cb9c1ff8)" style="fill: none; stroke: #b0b0b0; stroke-width: 0.8; stroke-linecap: square"/>
     </g>
     <g id="line2d_62">
      <g>
       <use xlink:href="#m4a7bd40112" x="236.558166" y="266.112" style="stroke: #000000; stroke-width: 0.8"/>
      </g>
     </g>
    </g>
    <g id="xtick_32">
     <g id="line2d_63">
      <path d="M 242.706927 266.112 
L 242.706927 -0 
" clip-path="url(#p76cb9c1ff8)" style="fill: none; stroke: #b0b0b0; stroke-width: 0.8; stroke-linecap: square"/>
     </g>
     <g id="line2d_64">
      <g>
       <use xlink:href="#m4a7bd40112" x="242.706927" y="266.112" style="stroke: #000000; stroke-width: 0.8"/>
      </g>
     </g>
    </g>
    <g id="xtick_33">
     <g id="line2d_65">
      <path d="M 248.855687 266.112 
L 248.855687 -0 
" clip-path="url(#p76cb9c1ff8)" style="fill: none; stroke: #b0b0b0; stroke-width: 0.8; stroke-linecap: square"/>
     </g>
     <g id="line2d_66">
      <g>
       <use xlink:href="#m4a7bd40112" x="248.855687" y="266.112" style="stroke: #000000; stroke-width: 0.8"/>
      </g>
     </g>
    </g>
    <g id="xtick_34">
     <g id="line2d_67">
      <path d="M 255.004447 266.112 
L 255.004447 -0 
" clip-path="url(#p76cb9c1ff8)" style="fill: none; stroke: #b0b0b0; stroke-width: 0.8; stroke-linecap: square"/>
     </g>
     <g id="line2d_68">
      <g>
       <use xlink:href="#m4a7bd40112" x="255.004447" y="266.112" style="stroke: #000000; stroke-width: 0.8"/>
      </g>
     </g>
    </g>
    <g id="xtick_35">
     <g id="line2d_69">
      <path d="M 261.153208 266.112 
L 261.153208 -0 
" clip-path="url(#p76cb9c1ff8)" style="fill: none; stroke: #b0b0b0; stroke-width: 0.8; stroke-linecap: square"/>
     </g>
     <g id="line2d_70">
      <g>
       <use xlink:href="#m4a7bd40112" x="261.153208" y="266.112" style="stroke: #000000; stroke-width: 0.8"/>
      </g>
     </g>
    </g>
    <g id="xtick_36">
     <g id="line2d_71">
      <path d="M 267.301968 266.112 
L 267.301968 -0 
" clip-path="url(#p76cb9c1ff8)" style="fill: none; stroke: #b0b0b0; stroke-width: 0.8; stroke-linecap: square"/>
     </g>
     <g id="line2d_72">
      <g>
       <use xlink:href="#m4a7bd40112" x="267.301968" y="266.112" style="stroke: #000000; stroke-width: 0.8"/>
      </g>
     </g>
    </g>
    <g id="xtick_37">
     <g id="line2d_73">
      <path d="M 273.450728 266.112 
L 273.450728 -0 
" clip-path="url(#p76cb9c1ff8)" style="fill: none; stroke: #b0b0b0; stroke-width: 0.8; stroke-linecap: square"/>
     </g>
     <g id="line2d_74">
      <g>
       <use xlink:href="#m4a7bd40112" x="273.450728" y="266.112" style="stroke: #000000; stroke-width: 0.8"/>
      </g>
     </g>
    </g>
    <g id="xtick_38">
     <g id="line2d_75">
      <path d="M 279.599489 266.112 
L 279.599489 -0 
" clip-path="url(#p76cb9c1ff8)" style="fill: none; stroke: #b0b0b0; stroke-width: 0.8; stroke-linecap: square"/>
     </g>
     <g id="line2d_76">
      <g>
       <use xlink:href="#m4a7bd40112" x="279.599489" y="266.112" style="stroke: #000000; stroke-width: 0.8"/>
      </g>
     </g>
    </g>
    <g id="xtick_39">
     <g id="line2d_77">
      <path d="M 285.748249 266.112 
L 285.748249 -0 
" clip-path="url(#p76cb9c1ff8)" style="fill: none; stroke: #b0b0b0; stroke-width: 0.8; stroke-linecap: square"/>
     </g>
     <g id="line2d_78">
      <g>
       <use xlink:href="#m4a7bd40112" x="285.748249" y="266.112" style="stroke: #000000; stroke-width: 0.8"/>
      </g>
     </g>
    </g>
    <g id="xtick_40">
     <g id="line2d_79">
      <path d="M 291.897009 266.112 
L 291.897009 -0 
" clip-path="url(#p76cb9c1ff8)" style="fill: none; stroke: #b0b0b0; stroke-width: 0.8; stroke-linecap: square"/>
     </g>
     <g id="line2d_80">
      <g>
       <use xlink:href="#m4a7bd40112" x="291.897009" y="266.112" style="stroke: #000000; stroke-width: 0.8"/>
      </g>
     </g>
    </g>
    <g id="xtick_41">
     <g id="line2d_81">
      <path d="M 298.04577 266.112 
L 298.04577 -0 
" clip-path="url(#p76cb9c1ff8)" style="fill: none; stroke: #b0b0b0; stroke-width: 0.8; stroke-linecap: square"/>
     </g>
     <g id="line2d_82">
      <g>
       <use xlink:href="#m4a7bd40112" x="298.04577" y="266.112" style="stroke: #000000; stroke-width: 0.8"/>
      </g>
     </g>
    </g>
    <g id="xtick_42">
     <g id="line2d_83">
      <path d="M 304.19453 266.112 
L 304.19453 -0 
" clip-path="url(#p76cb9c1ff8)" style="fill: none; stroke: #b0b0b0; stroke-width: 0.8; stroke-linecap: square"/>
     </g>
     <g id="line2d_84">
      <g>
       <use xlink:href="#m4a7bd40112" x="304.19453" y="266.112" style="stroke: #000000; stroke-width: 0.8"/>
      </g>
     </g>
    </g>
    <g id="xtick_43">
     <g id="line2d_85">
      <path d="M 310.34329 266.112 
L 310.34329 -0 
" clip-path="url(#p76cb9c1ff8)" style="fill: none; stroke: #b0b0b0; stroke-width: 0.8; stroke-linecap: square"/>
     </g>
     <g id="line2d_86">
      <g>
       <use xlink:href="#m4a7bd40112" x="310.34329" y="266.112" style="stroke: #000000; stroke-width: 0.8"/>
      </g>
     </g>
    </g>
    <g id="xtick_44">
     <g id="line2d_87">
      <path d="M 316.492051 266.112 
L 316.492051 -0 
" clip-path="url(#p76cb9c1ff8)" style="fill: none; stroke: #b0b0b0; stroke-width: 0.8; stroke-linecap: square"/>
     </g>
     <g id="line2d_88">
      <g>
       <use xlink:href="#m4a7bd40112" x="316.492051" y="266.112" style="stroke: #000000; stroke-width: 0.8"/>
      </g>
     </g>
    </g>
    <g id="xtick_45">
     <g id="line2d_89">
      <path d="M 322.640811 266.112 
L 322.640811 -0 
" clip-path="url(#p76cb9c1ff8)" style="fill: none; stroke: #b0b0b0; stroke-width: 0.8; stroke-linecap: square"/>
     </g>
     <g id="line2d_90">
      <g>
       <use xlink:href="#m4a7bd40112" x="322.640811" y="266.112" style="stroke: #000000; stroke-width: 0.8"/>
      </g>
     </g>
    </g>
    <g id="xtick_46">
     <g id="line2d_91">
      <path d="M 328.789571 266.112 
L 328.789571 -0 
" clip-path="url(#p76cb9c1ff8)" style="fill: none; stroke: #b0b0b0; stroke-width: 0.8; stroke-linecap: square"/>
     </g>
     <g id="line2d_92">
      <g>
       <use xlink:href="#m4a7bd40112" x="328.789571" y="266.112" style="stroke: #000000; stroke-width: 0.8"/>
      </g>
     </g>
    </g>
    <g id="xtick_47">
     <g id="line2d_93">
      <path d="M 334.938332 266.112 
L 334.938332 -0 
" clip-path="url(#p76cb9c1ff8)" style="fill: none; stroke: #b0b0b0; stroke-width: 0.8; stroke-linecap: square"/>
     </g>
     <g id="line2d_94">
      <g>
       <use xlink:href="#m4a7bd40112" x="334.938332" y="266.112" style="stroke: #000000; stroke-width: 0.8"/>
      </g>
     </g>
    </g>
    <g id="xtick_48">
     <g id="line2d_95">
      <path d="M 341.087092 266.112 
L 341.087092 -0 
" clip-path="url(#p76cb9c1ff8)" style="fill: none; stroke: #b0b0b0; stroke-width: 0.8; stroke-linecap: square"/>
     </g>
     <g id="line2d_96">
      <g>
       <use xlink:href="#m4a7bd40112" x="341.087092" y="266.112" style="stroke: #000000; stroke-width: 0.8"/>
      </g>
     </g>
    </g>
    <g id="xtick_49">
     <g id="line2d_97">
      <path d="M 347.235852 266.112 
L 347.235852 -0 
" clip-path="url(#p76cb9c1ff8)" style="fill: none; stroke: #b0b0b0; stroke-width: 0.8; stroke-linecap: square"/>
     </g>
     <g id="line2d_98">
      <g>
       <use xlink:href="#m4a7bd40112" x="347.235852" y="266.112" style="stroke: #000000; stroke-width: 0.8"/>
      </g>
     </g>
    </g>
    <g id="xtick_50">
     <g id="line2d_99">
      <path d="M 353.384613 266.112 
L 353.384613 -0 
" clip-path="url(#p76cb9c1ff8)" style="fill: none; stroke: #b0b0b0; stroke-width: 0.8; stroke-linecap: square"/>
     </g>
     <g id="line2d_100">
      <g>
       <use xlink:href="#m4a7bd40112" x="353.384613" y="266.112" style="stroke: #000000; stroke-width: 0.8"/>
      </g>
     </g>
    </g>
    <g id="xtick_51">
     <g id="line2d_101">
      <path d="M 359.533373 266.112 
L 359.533373 -0 
" clip-path="url(#p76cb9c1ff8)" style="fill: none; stroke: #b0b0b0; stroke-width: 0.8; stroke-linecap: square"/>
     </g>
     <g id="line2d_102">
      <g>
       <use xlink:href="#m4a7bd40112" x="359.533373" y="266.112" style="stroke: #000000; stroke-width: 0.8"/>
      </g>
     </g>
    </g>
    <g id="xtick_52">
     <g id="line2d_103">
      <path d="M 365.682133 266.112 
L 365.682133 -0 
" clip-path="url(#p76cb9c1ff8)" style="fill: none; stroke: #b0b0b0; stroke-width: 0.8; stroke-linecap: square"/>
     </g>
     <g id="line2d_104">
      <g>
       <use xlink:href="#m4a7bd40112" x="365.682133" y="266.112" style="stroke: #000000; stroke-width: 0.8"/>
      </g>
     </g>
    </g>
    <g id="xtick_53">
     <g id="line2d_105">
      <path d="M 371.830894 266.112 
L 371.830894 -0 
" clip-path="url(#p76cb9c1ff8)" style="fill: none; stroke: #b0b0b0; stroke-width: 0.8; stroke-linecap: square"/>
     </g>
     <g id="line2d_106">
      <g>
       <use xlink:href="#m4a7bd40112" x="371.830894" y="266.112" style="stroke: #000000; stroke-width: 0.8"/>
      </g>
     </g>
    </g>
    <g id="text_1">
     <!-- Individual Eddies [-] -->
     <g transform="translate(162.149844 284.710437)scale(0.1 -0.1)">
      <defs>
       <path id="DejaVuSans-49" d="M 628 4666 
L 1259 4666 
L 1259 0 
L 628 0 
L 628 4666 
z
" transform="scale(0.015625)"/>
       <path id="DejaVuSans-6e" d="M 3513 2113 
L 3513 0 
L 2938 0 
L 2938 2094 
Q 2938 2591 2744 2837 
Q 2550 3084 2163 3084 
Q 1697 3084 1428 2787 
Q 1159 2491 1159 1978 
L 1159 0 
L 581 0 
L 581 3500 
L 1159 3500 
L 1159 2956 
Q 1366 3272 1645 3428 
Q 1925 3584 2291 3584 
Q 2894 3584 3203 3211 
Q 3513 2838 3513 2113 
z
" transform="scale(0.015625)"/>
       <path id="DejaVuSans-64" d="M 2906 2969 
L 2906 4863 
L 3481 4863 
L 3481 0 
L 2906 0 
L 2906 525 
Q 2725 213 2448 61 
Q 2172 -91 1784 -91 
Q 1150 -91 751 415 
Q 353 922 353 1747 
Q 353 2572 751 3078 
Q 1150 3584 1784 3584 
Q 2172 3584 2448 3432 
Q 2725 3281 2906 2969 
z
M 947 1747 
Q 947 1113 1208 752 
Q 1469 391 1925 391 
Q 2381 391 2643 752 
Q 2906 1113 2906 1747 
Q 2906 2381 2643 2742 
Q 2381 3103 1925 3103 
Q 1469 3103 1208 2742 
Q 947 2381 947 1747 
z
" transform="scale(0.015625)"/>
       <path id="DejaVuSans-69" d="M 603 3500 
L 1178 3500 
L 1178 0 
L 603 0 
L 603 3500 
z
M 603 4863 
L 1178 4863 
L 1178 4134 
L 603 4134 
L 603 4863 
z
" transform="scale(0.015625)"/>
       <path id="DejaVuSans-76" d="M 191 3500 
L 800 3500 
L 1894 563 
L 2988 3500 
L 3597 3500 
L 2284 0 
L 1503 0 
L 191 3500 
z
" transform="scale(0.015625)"/>
       <path id="DejaVuSans-75" d="M 544 1381 
L 544 3500 
L 1119 3500 
L 1119 1403 
Q 1119 906 1312 657 
Q 1506 409 1894 409 
Q 2359 409 2629 706 
Q 2900 1003 2900 1516 
L 2900 3500 
L 3475 3500 
L 3475 0 
L 2900 0 
L 2900 538 
Q 2691 219 2414 64 
Q 2138 -91 1772 -91 
Q 1169 -91 856 284 
Q 544 659 544 1381 
z
M 1991 3584 
L 1991 3584 
z
" transform="scale(0.015625)"/>
       <path id="DejaVuSans-61" d="M 2194 1759 
Q 1497 1759 1228 1600 
Q 959 1441 959 1056 
Q 959 750 1161 570 
Q 1363 391 1709 391 
Q 2188 391 2477 730 
Q 2766 1069 2766 1631 
L 2766 1759 
L 2194 1759 
z
M 3341 1997 
L 3341 0 
L 2766 0 
L 2766 531 
Q 2569 213 2275 61 
Q 1981 -91 1556 -91 
Q 1019 -91 701 211 
Q 384 513 384 1019 
Q 384 1609 779 1909 
Q 1175 2209 1959 2209 
L 2766 2209 
L 2766 2266 
Q 2766 2663 2505 2880 
Q 2244 3097 1772 3097 
Q 1472 3097 1187 3025 
Q 903 2953 641 2809 
L 641 3341 
Q 956 3463 1253 3523 
Q 1550 3584 1831 3584 
Q 2591 3584 2966 3190 
Q 3341 2797 3341 1997 
z
" transform="scale(0.015625)"/>
       <path id="DejaVuSans-6c" d="M 603 4863 
L 1178 4863 
L 1178 0 
L 603 0 
L 603 4863 
z
" transform="scale(0.015625)"/>
       <path id="DejaVuSans-20" transform="scale(0.015625)"/>
       <path id="DejaVuSans-45" d="M 628 4666 
L 3578 4666 
L 3578 4134 
L 1259 4134 
L 1259 2753 
L 3481 2753 
L 3481 2222 
L 1259 2222 
L 1259 531 
L 3634 531 
L 3634 0 
L 628 0 
L 628 4666 
z
" transform="scale(0.015625)"/>
       <path id="DejaVuSans-65" d="M 3597 1894 
L 3597 1613 
L 953 1613 
Q 991 1019 1311 708 
Q 1631 397 2203 397 
Q 2534 397 2845 478 
Q 3156 559 3463 722 
L 3463 178 
Q 3153 47 2828 -22 
Q 2503 -91 2169 -91 
Q 1331 -91 842 396 
Q 353 884 353 1716 
Q 353 2575 817 3079 
Q 1281 3584 2069 3584 
Q 2775 3584 3186 3129 
Q 3597 2675 3597 1894 
z
M 3022 2063 
Q 3016 2534 2758 2815 
Q 2500 3097 2075 3097 
Q 1594 3097 1305 2825 
Q 1016 2553 972 2059 
L 3022 2063 
z
" transform="scale(0.015625)"/>
       <path id="DejaVuSans-73" d="M 2834 3397 
L 2834 2853 
Q 2591 2978 2328 3040 
Q 2066 3103 1784 3103 
Q 1356 3103 1142 2972 
Q 928 2841 928 2578 
Q 928 2378 1081 2264 
Q 1234 2150 1697 2047 
L 1894 2003 
Q 2506 1872 2764 1633 
Q 3022 1394 3022 966 
Q 3022 478 2636 193 
Q 2250 -91 1575 -91 
Q 1294 -91 989 -36 
Q 684 19 347 128 
L 347 722 
Q 666 556 975 473 
Q 1284 391 1588 391 
Q 1994 391 2212 530 
Q 2431 669 2431 922 
Q 2431 1156 2273 1281 
Q 2116 1406 1581 1522 
L 1381 1569 
Q 847 1681 609 1914 
Q 372 2147 372 2553 
Q 372 3047 722 3315 
Q 1072 3584 1716 3584 
Q 2034 3584 2315 3537 
Q 2597 3491 2834 3397 
z
" transform="scale(0.015625)"/>
       <path id="DejaVuSans-5b" d="M 550 4863 
L 1875 4863 
L 1875 4416 
L 1125 4416 
L 1125 -397 
L 1875 -397 
L 1875 -844 
L 550 -844 
L 550 4863 
z
" transform="scale(0.015625)"/>
       <path id="DejaVuSans-2d" d="M 313 2009 
L 1997 2009 
L 1997 1497 
L 313 1497 
L 313 2009 
z
" transform="scale(0.015625)"/>
       <path id="DejaVuSans-5d" d="M 1947 4863 
L 1947 -844 
L 622 -844 
L 622 -397 
L 1369 -397 
L 1369 4416 
L 622 4416 
L 622 4863 
L 1947 4863 
z
" transform="scale(0.015625)"/>
      </defs>
      <use xlink:href="#DejaVuSans-49"/>
      <use xlink:href="#DejaVuSans-6e" x="29.492188"/>
      <use xlink:href="#DejaVuSans-64" x="92.871094"/>
      <use xlink:href="#DejaVuSans-69" x="156.347656"/>
      <use xlink:href="#DejaVuSans-76" x="184.130859"/>
      <use xlink:href="#DejaVuSans-69" x="243.310547"/>
      <use xlink:href="#DejaVuSans-64" x="271.09375"/>
      <use xlink:href="#DejaVuSans-75" x="334.570312"/>
      <use xlink:href="#DejaVuSans-61" x="397.949219"/>
      <use xlink:href="#DejaVuSans-6c" x="459.228516"/>
      <use xlink:href="#DejaVuSans-20" x="487.011719"/>
      <use xlink:href="#DejaVuSans-45" x="518.798828"/>
      <use xlink:href="#DejaVuSans-64" x="581.982422"/>
      <use xlink:href="#DejaVuSans-64" x="645.458984"/>
      <use xlink:href="#DejaVuSans-69" x="708.935547"/>
      <use xlink:href="#DejaVuSans-65" x="736.71875"/>
      <use xlink:href="#DejaVuSans-73" x="798.242188"/>
      <use xlink:href="#DejaVuSans-20" x="850.341797"/>
      <use xlink:href="#DejaVuSans-5b" x="882.128906"/>
      <use xlink:href="#DejaVuSans-2d" x="921.142578"/>
      <use xlink:href="#DejaVuSans-5d" x="957.226562"/>
     </g>
    </g>
   </g>
   <g id="matplotlib.axis_2">
    <g id="ytick_1">
     <g id="line2d_107">
      <path d="M 33.403125 266.112 
L 390.523125 266.112 
" clip-path="url(#p76cb9c1ff8)" style="fill: none; stroke: #b0b0b0; stroke-width: 0.8; stroke-linecap: square"/>
     </g>
     <g id="line2d_108">
      <defs>
       <path id="m511be48c22" d="M 0 0 
L -3.5 0 
" style="stroke: #000000; stroke-width: 0.8"/>
      </defs>
      <g>
       <use xlink:href="#m511be48c22" x="33.403125" y="266.112" style="stroke: #000000; stroke-width: 0.8"/>
      </g>
     </g>
     <g id="text_2">
      <!-- 0 -->
      <g transform="translate(20.040625 269.911219)scale(0.1 -0.1)">
       <defs>
        <path id="DejaVuSans-30" d="M 2034 4250 
Q 1547 4250 1301 3770 
Q 1056 3291 1056 2328 
Q 1056 1369 1301 889 
Q 1547 409 2034 409 
Q 2525 409 2770 889 
Q 3016 1369 3016 2328 
Q 3016 3291 2770 3770 
Q 2525 4250 2034 4250 
z
M 2034 4750 
Q 2819 4750 3233 4129 
Q 3647 3509 3647 2328 
Q 3647 1150 3233 529 
Q 2819 -91 2034 -91 
Q 1250 -91 836 529 
Q 422 1150 422 2328 
Q 422 3509 836 4129 
Q 1250 4750 2034 4750 
z
" transform="scale(0.015625)"/>
       </defs>
       <use xlink:href="#DejaVuSans-30"/>
      </g>
     </g>
    </g>
    <g id="ytick_2">
     <g id="line2d_109">
      <path d="M 33.403125 207.254592 
L 390.523125 207.254592 
" clip-path="url(#p76cb9c1ff8)" style="fill: none; stroke: #b0b0b0; stroke-width: 0.8; stroke-linecap: square"/>
     </g>
     <g id="line2d_110">
      <g>
       <use xlink:href="#m511be48c22" x="33.403125" y="207.254592" style="stroke: #000000; stroke-width: 0.8"/>
      </g>
     </g>
     <g id="text_3">
      <!-- 5 -->
      <g transform="translate(20.040625 211.05381)scale(0.1 -0.1)">
       <defs>
        <path id="DejaVuSans-35" d="M 691 4666 
L 3169 4666 
L 3169 4134 
L 1269 4134 
L 1269 2991 
Q 1406 3038 1543 3061 
Q 1681 3084 1819 3084 
Q 2600 3084 3056 2656 
Q 3513 2228 3513 1497 
Q 3513 744 3044 326 
Q 2575 -91 1722 -91 
Q 1428 -91 1123 -41 
Q 819 9 494 109 
L 494 744 
Q 775 591 1075 516 
Q 1375 441 1709 441 
Q 2250 441 2565 725 
Q 2881 1009 2881 1497 
Q 2881 1984 2565 2268 
Q 2250 2553 1709 2553 
Q 1456 2553 1204 2497 
Q 953 2441 691 2322 
L 691 4666 
z
" transform="scale(0.015625)"/>
       </defs>
       <use xlink:href="#DejaVuSans-35"/>
      </g>
     </g>
    </g>
    <g id="ytick_3">
     <g id="line2d_111">
      <path d="M 33.403125 148.397183 
L 390.523125 148.397183 
" clip-path="url(#p76cb9c1ff8)" style="fill: none; stroke: #b0b0b0; stroke-width: 0.8; stroke-linecap: square"/>
     </g>
     <g id="line2d_112">
      <g>
       <use xlink:href="#m511be48c22" x="33.403125" y="148.397183" style="stroke: #000000; stroke-width: 0.8"/>
      </g>
     </g>
     <g id="text_4">
      <!-- 10 -->
      <g transform="translate(13.678125 152.196402)scale(0.1 -0.1)">
       <defs>
        <path id="DejaVuSans-31" d="M 794 531 
L 1825 531 
L 1825 4091 
L 703 3866 
L 703 4441 
L 1819 4666 
L 2450 4666 
L 2450 531 
L 3481 531 
L 3481 0 
L 794 0 
L 794 531 
z
" transform="scale(0.015625)"/>
       </defs>
       <use xlink:href="#DejaVuSans-31"/>
       <use xlink:href="#DejaVuSans-30" x="63.623047"/>
      </g>
     </g>
    </g>
    <g id="ytick_4">
     <g id="line2d_113">
      <path d="M 33.403125 89.539775 
L 390.523125 89.539775 
" clip-path="url(#p76cb9c1ff8)" style="fill: none; stroke: #b0b0b0; stroke-width: 0.8; stroke-linecap: square"/>
     </g>
     <g id="line2d_114">
      <g>
       <use xlink:href="#m511be48c22" x="33.403125" y="89.539775" style="stroke: #000000; stroke-width: 0.8"/>
      </g>
     </g>
     <g id="text_5">
      <!-- 15 -->
      <g transform="translate(13.678125 93.338994)scale(0.1 -0.1)">
       <use xlink:href="#DejaVuSans-31"/>
       <use xlink:href="#DejaVuSans-35" x="63.623047"/>
      </g>
     </g>
    </g>
    <g id="ytick_5">
     <g id="line2d_115">
      <path d="M 33.403125 30.682367 
L 390.523125 30.682367 
" clip-path="url(#p76cb9c1ff8)" style="fill: none; stroke: #b0b0b0; stroke-width: 0.8; stroke-linecap: square"/>
     </g>
     <g id="line2d_116">
      <g>
       <use xlink:href="#m511be48c22" x="33.403125" y="30.682367" style="stroke: #000000; stroke-width: 0.8"/>
      </g>
     </g>
     <g id="text_6">
      <!-- 20 -->
      <g transform="translate(13.678125 34.481586)scale(0.1 -0.1)">
       <defs>
        <path id="DejaVuSans-32" d="M 1228 531 
L 3431 531 
L 3431 0 
L 469 0 
L 469 531 
Q 828 903 1448 1529 
Q 2069 2156 2228 2338 
Q 2531 2678 2651 2914 
Q 2772 3150 2772 3378 
Q 2772 3750 2511 3984 
Q 2250 4219 1831 4219 
Q 1534 4219 1204 4116 
Q 875 4013 500 3803 
L 500 4441 
Q 881 4594 1212 4672 
Q 1544 4750 1819 4750 
Q 2544 4750 2975 4387 
Q 3406 4025 3406 3419 
Q 3406 3131 3298 2873 
Q 3191 2616 2906 2266 
Q 2828 2175 2409 1742 
Q 1991 1309 1228 531 
z
" transform="scale(0.015625)"/>
       </defs>
       <use xlink:href="#DejaVuSans-32"/>
       <use xlink:href="#DejaVuSans-30" x="63.623047"/>
      </g>
     </g>
    </g>
    <g id="text_7">
     <!-- Eddy Area [10^3 * km^2] -->
     <g transform="translate(7.598437 198.655219)rotate(-90)scale(0.1 -0.1)">
      <defs>
       <path id="DejaVuSans-79" d="M 2059 -325 
Q 1816 -950 1584 -1140 
Q 1353 -1331 966 -1331 
L 506 -1331 
L 506 -850 
L 844 -850 
Q 1081 -850 1212 -737 
Q 1344 -625 1503 -206 
L 1606 56 
L 191 3500 
L 800 3500 
L 1894 763 
L 2988 3500 
L 3597 3500 
L 2059 -325 
z
" transform="scale(0.015625)"/>
       <path id="DejaVuSans-41" d="M 2188 4044 
L 1331 1722 
L 3047 1722 
L 2188 4044 
z
M 1831 4666 
L 2547 4666 
L 4325 0 
L 3669 0 
L 3244 1197 
L 1141 1197 
L 716 0 
L 50 0 
L 1831 4666 
z
" transform="scale(0.015625)"/>
       <path id="DejaVuSans-72" d="M 2631 2963 
Q 2534 3019 2420 3045 
Q 2306 3072 2169 3072 
Q 1681 3072 1420 2755 
Q 1159 2438 1159 1844 
L 1159 0 
L 581 0 
L 581 3500 
L 1159 3500 
L 1159 2956 
Q 1341 3275 1631 3429 
Q 1922 3584 2338 3584 
Q 2397 3584 2469 3576 
Q 2541 3569 2628 3553 
L 2631 2963 
z
" transform="scale(0.015625)"/>
       <path id="DejaVuSans-5e" d="M 2988 4666 
L 4684 2925 
L 4056 2925 
L 2681 4159 
L 1306 2925 
L 678 2925 
L 2375 4666 
L 2988 4666 
z
" transform="scale(0.015625)"/>
       <path id="DejaVuSans-33" d="M 2597 2516 
Q 3050 2419 3304 2112 
Q 3559 1806 3559 1356 
Q 3559 666 3084 287 
Q 2609 -91 1734 -91 
Q 1441 -91 1130 -33 
Q 819 25 488 141 
L 488 750 
Q 750 597 1062 519 
Q 1375 441 1716 441 
Q 2309 441 2620 675 
Q 2931 909 2931 1356 
Q 2931 1769 2642 2001 
Q 2353 2234 1838 2234 
L 1294 2234 
L 1294 2753 
L 1863 2753 
Q 2328 2753 2575 2939 
Q 2822 3125 2822 3475 
Q 2822 3834 2567 4026 
Q 2313 4219 1838 4219 
Q 1578 4219 1281 4162 
Q 984 4106 628 3988 
L 628 4550 
Q 988 4650 1302 4700 
Q 1616 4750 1894 4750 
Q 2613 4750 3031 4423 
Q 3450 4097 3450 3541 
Q 3450 3153 3228 2886 
Q 3006 2619 2597 2516 
z
" transform="scale(0.015625)"/>
       <path id="DejaVuSans-2a" d="M 3009 3897 
L 1888 3291 
L 3009 2681 
L 2828 2375 
L 1778 3009 
L 1778 1831 
L 1422 1831 
L 1422 3009 
L 372 2375 
L 191 2681 
L 1313 3291 
L 191 3897 
L 372 4206 
L 1422 3572 
L 1422 4750 
L 1778 4750 
L 1778 3572 
L 2828 4206 
L 3009 3897 
z
" transform="scale(0.015625)"/>
       <path id="DejaVuSans-6b" d="M 581 4863 
L 1159 4863 
L 1159 1991 
L 2875 3500 
L 3609 3500 
L 1753 1863 
L 3688 0 
L 2938 0 
L 1159 1709 
L 1159 0 
L 581 0 
L 581 4863 
z
" transform="scale(0.015625)"/>
       <path id="DejaVuSans-6d" d="M 3328 2828 
Q 3544 3216 3844 3400 
Q 4144 3584 4550 3584 
Q 5097 3584 5394 3201 
Q 5691 2819 5691 2113 
L 5691 0 
L 5113 0 
L 5113 2094 
Q 5113 2597 4934 2840 
Q 4756 3084 4391 3084 
Q 3944 3084 3684 2787 
Q 3425 2491 3425 1978 
L 3425 0 
L 2847 0 
L 2847 2094 
Q 2847 2600 2669 2842 
Q 2491 3084 2119 3084 
Q 1678 3084 1418 2786 
Q 1159 2488 1159 1978 
L 1159 0 
L 581 0 
L 581 3500 
L 1159 3500 
L 1159 2956 
Q 1356 3278 1631 3431 
Q 1906 3584 2284 3584 
Q 2666 3584 2933 3390 
Q 3200 3197 3328 2828 
z
" transform="scale(0.015625)"/>
      </defs>
      <use xlink:href="#DejaVuSans-45"/>
      <use xlink:href="#DejaVuSans-64" x="63.183594"/>
      <use xlink:href="#DejaVuSans-64" x="126.660156"/>
      <use xlink:href="#DejaVuSans-79" x="190.136719"/>
      <use xlink:href="#DejaVuSans-20" x="249.316406"/>
      <use xlink:href="#DejaVuSans-41" x="281.103516"/>
      <use xlink:href="#DejaVuSans-72" x="349.511719"/>
      <use xlink:href="#DejaVuSans-65" x="388.375"/>
      <use xlink:href="#DejaVuSans-61" x="449.898438"/>
      <use xlink:href="#DejaVuSans-20" x="511.177734"/>
      <use xlink:href="#DejaVuSans-5b" x="542.964844"/>
      <use xlink:href="#DejaVuSans-31" x="581.978516"/>
      <use xlink:href="#DejaVuSans-30" x="645.601562"/>
      <use xlink:href="#DejaVuSans-5e" x="709.224609"/>
      <use xlink:href="#DejaVuSans-33" x="793.013672"/>
      <use xlink:href="#DejaVuSans-20" x="856.636719"/>
      <use xlink:href="#DejaVuSans-2a" x="888.423828"/>
      <use xlink:href="#DejaVuSans-20" x="938.423828"/>
      <use xlink:href="#DejaVuSans-6b" x="970.210938"/>
      <use xlink:href="#DejaVuSans-6d" x="1028.121094"/>
      <use xlink:href="#DejaVuSans-5e" x="1125.533203"/>
      <use xlink:href="#DejaVuSans-32" x="1209.322266"/>
      <use xlink:href="#DejaVuSans-5d" x="1272.945312"/>
     </g>
    </g>
   </g>
   <g id="patch_3">
    <path d="M 49.635852 266.112 
L 54.554861 266.112 
L 54.554861 248.690207 
L 49.635852 248.690207 
z
" clip-path="url(#p76cb9c1ff8)" style="fill: #ff0000"/>
   </g>
   <g id="patch_4">
    <path d="M 55.784613 266.112 
L 60.703621 266.112 
L 60.703621 245.747337 
L 55.784613 245.747337 
z
" clip-path="url(#p76cb9c1ff8)" style="fill: #000080"/>
   </g>
   <g id="patch_5">
    <path d="M 61.933373 266.112 
L 66.852381 266.112 
L 66.852381 245.747337 
L 61.933373 245.747337 
z
" clip-path="url(#p76cb9c1ff8)" style="fill: #000080"/>
   </g>
   <g id="patch_6">
    <path d="M 68.082133 266.112 
L 73.001142 266.112 
L 73.001142 244.217044 
L 68.082133 244.217044 
z
" clip-path="url(#p76cb9c1ff8)" style="fill: #ff0000"/>
   </g>
   <g id="patch_7">
    <path d="M 74.230894 266.112 
L 79.149902 266.112 
L 79.149902 242.804466 
L 74.230894 242.804466 
z
" clip-path="url(#p76cb9c1ff8)" style="fill: #000080"/>
   </g>
   <g id="patch_8">
    <path d="M 80.379654 266.112 
L 85.298662 266.112 
L 85.298662 241.391889 
L 80.379654 241.391889 
z
" clip-path="url(#p76cb9c1ff8)" style="fill: #000080"/>
   </g>
   <g id="patch_9">
    <path d="M 86.528414 266.112 
L 91.447423 266.112 
L 91.447423 239.861596 
L 86.528414 239.861596 
z
" clip-path="url(#p76cb9c1ff8)" style="fill: #ff0000"/>
   </g>
   <g id="patch_10">
    <path d="M 92.677175 266.112 
L 97.596183 266.112 
L 97.596183 238.449018 
L 92.677175 238.449018 
z
" clip-path="url(#p76cb9c1ff8)" style="fill: #000080"/>
   </g>
   <g id="patch_11">
    <path d="M 98.825935 266.112 
L 103.744943 266.112 
L 103.744943 237.03644 
L 98.825935 237.03644 
z
" clip-path="url(#p76cb9c1ff8)" style="fill: #ff0000"/>
   </g>
   <g id="patch_12">
    <path d="M 104.974695 266.112 
L 109.893704 266.112 
L 109.893704 235.506148 
L 104.974695 235.506148 
z
" clip-path="url(#p76cb9c1ff8)" style="fill: #000080"/>
   </g>
   <g id="patch_13">
    <path d="M 111.123456 266.112 
L 116.042464 266.112 
L 116.042464 232.563277 
L 111.123456 232.563277 
z
" clip-path="url(#p76cb9c1ff8)" style="fill: #000080"/>
   </g>
   <g id="patch_14">
    <path d="M 117.272216 266.112 
L 122.191224 266.112 
L 122.191224 231.150699 
L 117.272216 231.150699 
z
" clip-path="url(#p76cb9c1ff8)" style="fill: #000080"/>
   </g>
   <g id="patch_15">
    <path d="M 123.420976 266.112 
L 128.339985 266.112 
L 128.339985 231.150699 
L 123.420976 231.150699 
z
" clip-path="url(#p76cb9c1ff8)" style="fill: #ff0000"/>
   </g>
   <g id="patch_16">
    <path d="M 129.569737 266.112 
L 134.488745 266.112 
L 134.488745 231.150699 
L 129.569737 231.150699 
z
" clip-path="url(#p76cb9c1ff8)" style="fill: #ff0000"/>
   </g>
   <g id="patch_17">
    <path d="M 135.718497 266.112 
L 140.637505 266.112 
L 140.637505 231.150699 
L 135.718497 231.150699 
z
" clip-path="url(#p76cb9c1ff8)" style="fill: #ff0000"/>
   </g>
   <g id="patch_18">
    <path d="M 141.867257 266.112 
L 146.786265 266.112 
L 146.786265 229.738122 
L 141.867257 229.738122 
z
" clip-path="url(#p76cb9c1ff8)" style="fill: #000080"/>
   </g>
   <g id="patch_19">
    <path d="M 148.016018 266.112 
L 152.935026 266.112 
L 152.935026 229.738122 
L 148.016018 229.738122 
z
" clip-path="url(#p76cb9c1ff8)" style="fill: #000080"/>
   </g>
   <g id="patch_20">
    <path d="M 154.164778 266.112 
L 159.083786 266.112 
L 159.083786 228.207829 
L 154.164778 228.207829 
z
" clip-path="url(#p76cb9c1ff8)" style="fill: #ff0000"/>
   </g>
   <g id="patch_21">
    <path d="M 160.313538 266.112 
L 165.232546 266.112 
L 165.232546 228.207829 
L 160.313538 228.207829 
z
" clip-path="url(#p76cb9c1ff8)" style="fill: #000080"/>
   </g>
   <g id="patch_22">
    <path d="M 166.462299 266.112 
L 171.381307 266.112 
L 171.381307 228.207829 
L 166.462299 228.207829 
z
" clip-path="url(#p76cb9c1ff8)" style="fill: #000080"/>
   </g>
   <g id="patch_23">
    <path d="M 172.611059 266.112 
L 177.530067 266.112 
L 177.530067 228.207829 
L 172.611059 228.207829 
z
" clip-path="url(#p76cb9c1ff8)" style="fill: #000080"/>
   </g>
   <g id="patch_24">
    <path d="M 178.759819 266.112 
L 183.678827 266.112 
L 183.678827 225.382673 
L 178.759819 225.382673 
z
" clip-path="url(#p76cb9c1ff8)" style="fill: #000080"/>
   </g>
   <g id="patch_25">
    <path d="M 184.90858 266.112 
L 189.827588 266.112 
L 189.827588 223.852381 
L 184.90858 223.852381 
z
" clip-path="url(#p76cb9c1ff8)" style="fill: #ff0000"/>
   </g>
   <g id="patch_26">
    <path d="M 191.05734 266.112 
L 195.976348 266.112 
L 195.976348 223.852381 
L 191.05734 223.852381 
z
" clip-path="url(#p76cb9c1ff8)" style="fill: #000080"/>
   </g>
   <g id="patch_27">
    <path d="M 197.2061 266.112 
L 202.125108 266.112 
L 202.125108 222.439803 
L 197.2061 222.439803 
z
" clip-path="url(#p76cb9c1ff8)" style="fill: #000080"/>
   </g>
   <g id="patch_28">
    <path d="M 203.354861 266.112 
L 208.273869 266.112 
L 208.273869 220.90951 
L 203.354861 220.90951 
z
" clip-path="url(#p76cb9c1ff8)" style="fill: #ff0000"/>
   </g>
   <g id="patch_29">
    <path d="M 209.503621 266.112 
L 214.422629 266.112 
L 214.422629 219.496933 
L 209.503621 219.496933 
z
" clip-path="url(#p76cb9c1ff8)" style="fill: #000080"/>
   </g>
   <g id="patch_30">
    <path d="M 215.652381 266.112 
L 220.571389 266.112 
L 220.571389 219.496933 
L 215.652381 219.496933 
z
" clip-path="url(#p76cb9c1ff8)" style="fill: #000080"/>
   </g>
   <g id="patch_31">
    <path d="M 221.801142 266.112 
L 226.72015 266.112 
L 226.72015 218.084355 
L 221.801142 218.084355 
z
" clip-path="url(#p76cb9c1ff8)" style="fill: #000080"/>
   </g>
   <g id="patch_32">
    <path d="M 227.949902 266.112 
L 232.86891 266.112 
L 232.86891 216.554062 
L 227.949902 216.554062 
z
" clip-path="url(#p76cb9c1ff8)" style="fill: #000080"/>
   </g>
   <g id="patch_33">
    <path d="M 234.098662 266.112 
L 239.01767 266.112 
L 239.01767 215.141484 
L 234.098662 215.141484 
z
" clip-path="url(#p76cb9c1ff8)" style="fill: #000080"/>
   </g>
   <g id="patch_34">
    <path d="M 240.247423 266.112 
L 245.166431 266.112 
L 245.166431 213.728907 
L 240.247423 213.728907 
z
" clip-path="url(#p76cb9c1ff8)" style="fill: #000080"/>
   </g>
   <g id="patch_35">
    <path d="M 246.396183 266.112 
L 251.315191 266.112 
L 251.315191 212.198614 
L 246.396183 212.198614 
z
" clip-path="url(#p76cb9c1ff8)" style="fill: #000080"/>
   </g>
   <g id="patch_36">
    <path d="M 252.544943 266.112 
L 257.463951 266.112 
L 257.463951 212.198614 
L 252.544943 212.198614 
z
" clip-path="url(#p76cb9c1ff8)" style="fill: #ff0000"/>
   </g>
   <g id="patch_37">
    <path d="M 258.693704 266.112 
L 263.612712 266.112 
L 263.612712 212.198614 
L 258.693704 212.198614 
z
" clip-path="url(#p76cb9c1ff8)" style="fill: #000080"/>
   </g>
   <g id="patch_38">
    <path d="M 264.842464 266.112 
L 269.761472 266.112 
L 269.761472 210.786036 
L 264.842464 210.786036 
z
" clip-path="url(#p76cb9c1ff8)" style="fill: #000080"/>
   </g>
   <g id="patch_39">
    <path d="M 270.991224 266.112 
L 275.910232 266.112 
L 275.910232 210.786036 
L 270.991224 210.786036 
z
" clip-path="url(#p76cb9c1ff8)" style="fill: #ff0000"/>
   </g>
   <g id="patch_40">
    <path d="M 277.139985 266.112 
L 282.058993 266.112 
L 282.058993 209.373458 
L 277.139985 209.373458 
z
" clip-path="url(#p76cb9c1ff8)" style="fill: #000080"/>
   </g>
   <g id="patch_41">
    <path d="M 283.288745 266.112 
L 288.207753 266.112 
L 288.207753 207.843166 
L 283.288745 207.843166 
z
" clip-path="url(#p76cb9c1ff8)" style="fill: #000080"/>
   </g>
   <g id="patch_42">
    <path d="M 289.437505 266.112 
L 294.356513 266.112 
L 294.356513 199.132269 
L 289.437505 199.132269 
z
" clip-path="url(#p76cb9c1ff8)" style="fill: #000080"/>
   </g>
   <g id="patch_43">
    <path d="M 295.586265 266.112 
L 300.505274 266.112 
L 300.505274 196.189399 
L 295.586265 196.189399 
z
" clip-path="url(#p76cb9c1ff8)" style="fill: #000080"/>
   </g>
   <g id="patch_44">
    <path d="M 301.735026 266.112 
L 306.654034 266.112 
L 306.654034 196.189399 
L 301.735026 196.189399 
z
" clip-path="url(#p76cb9c1ff8)" style="fill: #ff0000"/>
   </g>
   <g id="patch_45">
    <path d="M 307.883786 266.112 
L 312.802794 266.112 
L 312.802794 194.776821 
L 307.883786 194.776821 
z
" clip-path="url(#p76cb9c1ff8)" style="fill: #000080"/>
   </g>
   <g id="patch_46">
    <path d="M 314.032546 266.112 
L 318.951555 266.112 
L 318.951555 190.421373 
L 314.032546 190.421373 
z
" clip-path="url(#p76cb9c1ff8)" style="fill: #ff0000"/>
   </g>
   <g id="patch_47">
    <path d="M 320.181307 266.112 
L 325.100315 266.112 
L 325.100315 188.89108 
L 320.181307 188.89108 
z
" clip-path="url(#p76cb9c1ff8)" style="fill: #000080"/>
   </g>
   <g id="patch_48">
    <path d="M 326.330067 266.112 
L 331.249075 266.112 
L 331.249075 167.113839 
L 326.330067 167.113839 
z
" clip-path="url(#p76cb9c1ff8)" style="fill: #ff0000"/>
   </g>
   <g id="patch_49">
    <path d="M 332.478827 266.112 
L 337.397836 266.112 
L 337.397836 156.87265 
L 332.478827 156.87265 
z
" clip-path="url(#p76cb9c1ff8)" style="fill: #000080"/>
   </g>
   <g id="patch_50">
    <path d="M 338.627588 266.112 
L 343.546596 266.112 
L 343.546596 139.450857 
L 338.627588 139.450857 
z
" clip-path="url(#p76cb9c1ff8)" style="fill: #000080"/>
   </g>
   <g id="patch_51">
    <path d="M 344.776348 266.112 
L 349.695356 266.112 
L 349.695356 126.266798 
L 344.776348 126.266798 
z
" clip-path="url(#p76cb9c1ff8)" style="fill: #ff0000"/>
   </g>
   <g id="patch_52">
    <path d="M 350.925108 266.112 
L 355.844117 266.112 
L 355.844117 121.91135 
L 350.925108 121.91135 
z
" clip-path="url(#p76cb9c1ff8)" style="fill: #000080"/>
   </g>
   <g id="patch_53">
    <path d="M 357.073869 266.112 
L 361.992877 266.112 
L 361.992877 110.257583 
L 357.073869 110.257583 
z
" clip-path="url(#p76cb9c1ff8)" style="fill: #000080"/>
   </g>
   <g id="patch_54">
    <path d="M 363.222629 266.112 
L 368.141637 266.112 
L 368.141637 98.603816 
L 363.222629 98.603816 
z
" clip-path="url(#p76cb9c1ff8)" style="fill: #ff0000"/>
   </g>
   <g id="patch_55">
    <path d="M 369.371389 266.112 
L 374.290398 266.112 
L 374.290398 12.672 
L 369.371389 12.672 
z
" clip-path="url(#p76cb9c1ff8)" style="fill: #ff0000"/>
   </g>
   <g id="patch_56">
    <path d="M 33.403125 266.112 
L 33.403125 -0 
" style="fill: none; stroke: #000000; stroke-width: 0.8; stroke-linejoin: miter; stroke-linecap: square"/>
   </g>
   <g id="patch_57">
    <path d="M 390.523125 266.112 
L 390.523125 -0 
" style="fill: none; stroke: #000000; stroke-width: 0.8; stroke-linejoin: miter; stroke-linecap: square"/>
   </g>
   <g id="patch_58">
    <path d="M 33.403125 266.112 
L 390.523125 266.112 
" style="fill: none; stroke: #000000; stroke-width: 0.8; stroke-linejoin: miter; stroke-linecap: square"/>
   </g>
   <g id="patch_59">
    <path d="M 33.403125 -0 
L 390.523125 -0 
" style="fill: none; stroke: #000000; stroke-width: 0.8; stroke-linejoin: miter; stroke-linecap: square"/>
   </g>
  </g>
 </g>
 <defs>
  <clipPath id="p76cb9c1ff8">
   <rect x="33.403125" y="-0" width="357.12" height="266.112"/>
  </clipPath>
 </defs>
</svg>
