<?xml version="1.0" encoding="utf-8" standalone="no"?>
<!DOCTYPE svg PUBLIC "-//W3C//DTD SVG 1.1//EN"
  "http://www.w3.org/Graphics/SVG/1.1/DTD/svg11.dtd">
<svg xmlns:xlink="http://www.w3.org/1999/xlink" width="402.080938pt" height="296.46825pt" viewBox="0 0 402.080938 296.46825" xmlns="http://www.w3.org/2000/svg" version="1.1">
 <metadata>
  <rdf:RDF xmlns:dc="http://purl.org/dc/elements/1.1/" xmlns:cc="http://creativecommons.org/ns#" xmlns:rdf="http://www.w3.org/1999/02/22-rdf-syntax-ns#">
   <cc:Work>
    <dc:type rdf:resource="http://purl.org/dc/dcmitype/StillImage"/>
    <dc:date>2023-06-13T22:32:39.048733</dc:date>
    <dc:format>image/svg+xml</dc:format>
    <dc:creator>
     <cc:Agent>
      <dc:title>Matplotlib v3.5.2, https://matplotlib.org/</dc:title>
     </cc:Agent>
    </dc:creator>
   </cc:Work>
  </rdf:RDF>
 </metadata>
 <defs>
  <style type="text/css">*{stroke-linejoin: round; stroke-linecap: butt}</style>
 </defs>
 <g id="figure_1">
  <g id="patch_1">
   <path d="M 0 296.46825 
L 402.080938 296.46825 
L 402.080938 0 
L 0 0 
z
" style="fill: #ffffff"/>
  </g>
  <g id="axes_1">
   <g id="patch_2">
    <path d="M 44.960938 266.112 
L 402.080938 266.112 
L 402.080938 -0 
L 44.960938 -0 
z
" style="fill: #ffffff"/>
   </g>
   <g id="PathCollection_1">
    <path d="M 61.193665 251.016 
L 58.193665 257.016 
L 64.193665 257.016 
z
" clip-path="url(#p890194067c)" style="fill: #440154; stroke: #440154"/>
    <path d="M 61.193665 234.622121 
L 58.193665 240.622121 
L 64.193665 240.622121 
z
" clip-path="url(#p890194067c)" style="fill: #481f70; stroke: #481f70"/>
    <path d="M 64.285613 231.053692 
L 61.285613 237.053692 
L 67.285613 237.053692 
z
" clip-path="url(#p890194067c)" style="fill: #482576; stroke: #482576"/>
    <path d="M 67.377561 210.373306 
L 64.377561 216.373306 
L 70.377561 216.373306 
z
" clip-path="url(#p890194067c)" style="fill: #404688; stroke: #404688"/>
    <path d="M 70.469509 207.313039 
L 67.469509 213.313039 
L 73.469509 213.313039 
z
" clip-path="url(#p890194067c)" style="fill: #3e4989; stroke: #3e4989"/>
    <path d="M 70.469509 206.803328 
L 67.469509 212.803328 
L 73.469509 212.803328 
z
" clip-path="url(#p890194067c)" style="fill: #3e4a89; stroke: #3e4a89"/>
    <path d="M 73.561457 205.958016 
L 70.561457 211.958016 
L 76.561457 211.958016 
z
" clip-path="url(#p890194067c)" style="fill: #3e4c8a; stroke: #3e4c8a"/>
    <path d="M 76.653405 204.274123 
L 73.653405 210.274123 
L 79.653405 210.274123 
z
" clip-path="url(#p890194067c)" style="fill: #3d4e8a; stroke: #3d4e8a"/>
    <path d="M 76.653405 192.747051 
L 73.653405 198.747051 
L 79.653405 198.747051 
z
" clip-path="url(#p890194067c)" style="fill: #355e8d; stroke: #355e8d"/>
    <path d="M 76.653405 190.136352 
L 73.653405 196.136352 
L 79.653405 196.136352 
z
" clip-path="url(#p890194067c)" style="fill: #33628d; stroke: #33628d"/>
    <path d="M 76.653405 187.61724 
L 73.653405 193.61724 
L 79.653405 193.61724 
z
" clip-path="url(#p890194067c)" style="fill: #32658e; stroke: #32658e"/>
    <path d="M 79.745353 187.249401 
L 76.745353 193.249401 
L 82.745353 193.249401 
z
" clip-path="url(#p890194067c)" style="fill: #31668e; stroke: #31668e"/>
    <path d="M 82.837301 186.929752 
L 79.837301 192.929752 
L 85.837301 192.929752 
z
" clip-path="url(#p890194067c)" style="fill: #31668e; stroke: #31668e"/>
    <path d="M 82.837301 183.337871 
L 79.837301 189.337871 
L 85.837301 189.337871 
z
" clip-path="url(#p890194067c)" style="fill: #2f6b8e; stroke: #2f6b8e"/>
    <path d="M 85.929249 182.466602 
L 82.929249 188.466602 
L 88.929249 188.466602 
z
" clip-path="url(#p890194067c)" style="fill: #2f6c8e; stroke: #2f6c8e"/>
    <path d="M 92.113145 176.185073 
L 89.113145 182.185073 
L 95.113145 182.185073 
z
" clip-path="url(#p890194067c)" style="fill: #2c738e; stroke: #2c738e"/>
    <path d="M 92.113145 174.042259 
L 89.113145 180.042259 
L 95.113145 180.042259 
z
" clip-path="url(#p890194067c)" style="fill: #2a768e; stroke: #2a768e"/>
    <path d="M 92.113145 173.490841 
L 89.113145 179.490841 
L 95.113145 179.490841 
z
" clip-path="url(#p890194067c)" style="fill: #2a778e; stroke: #2a778e"/>
    <path d="M 95.205093 173.42557 
L 92.205093 179.42557 
L 98.205093 179.42557 
z
" clip-path="url(#p890194067c)" style="fill: #2a778e; stroke: #2a778e"/>
    <path d="M 95.205093 172.44127 
L 92.205093 178.44127 
L 98.205093 178.44127 
z
" clip-path="url(#p890194067c)" style="fill: #2a788e; stroke: #2a788e"/>
    <path d="M 101.388989 170.989829 
L 98.388989 176.989829 
L 104.388989 176.989829 
z
" clip-path="url(#p890194067c)" style="fill: #297a8e; stroke: #297a8e"/>
    <path d="M 107.572886 170.946886 
L 104.572886 176.946886 
L 110.572886 176.946886 
z
" clip-path="url(#p890194067c)" style="fill: #297a8e; stroke: #297a8e"/>
    <path d="M 107.572886 170.21487 
L 104.572886 176.21487 
L 110.572886 176.21487 
z
" clip-path="url(#p890194067c)" style="fill: #297b8e; stroke: #297b8e"/>
    <path d="M 110.664834 168.783698 
L 107.664834 174.783698 
L 113.664834 174.783698 
z
" clip-path="url(#p890194067c)" style="fill: #287d8e; stroke: #287d8e"/>
    <path d="M 110.664834 168.1411 
L 107.664834 174.1411 
L 113.664834 174.1411 
z
" clip-path="url(#p890194067c)" style="fill: #277e8e; stroke: #277e8e"/>
    <path d="M 113.756782 167.697551 
L 110.756782 173.697551 
L 116.756782 173.697551 
z
" clip-path="url(#p890194067c)" style="fill: #277e8e; stroke: #277e8e"/>
    <path d="M 113.756782 166.968199 
L 110.756782 172.968199 
L 116.756782 172.968199 
z
" clip-path="url(#p890194067c)" style="fill: #277f8e; stroke: #277f8e"/>
    <path d="M 113.756782 164.11245 
L 110.756782 170.11245 
L 116.756782 170.11245 
z
" clip-path="url(#p890194067c)" style="fill: #26828e; stroke: #26828e"/>
    <path d="M 113.756782 163.999327 
L 110.756782 169.999327 
L 116.756782 169.999327 
z
" clip-path="url(#p890194067c)" style="fill: #26828e; stroke: #26828e"/>
    <path d="M 116.84873 163.635648 
L 113.84873 169.635648 
L 119.84873 169.635648 
z
" clip-path="url(#p890194067c)" style="fill: #26828e; stroke: #26828e"/>
    <path d="M 116.84873 162.413805 
L 113.84873 168.413805 
L 119.84873 168.413805 
z
" clip-path="url(#p890194067c)" style="fill: #25848e; stroke: #25848e"/>
    <path d="M 116.84873 161.914578 
L 113.84873 167.914578 
L 119.84873 167.914578 
z
" clip-path="url(#p890194067c)" style="fill: #25858e; stroke: #25858e"/>
    <path d="M 119.940678 160.326584 
L 116.940678 166.326584 
L 122.940678 166.326584 
z
" clip-path="url(#p890194067c)" style="fill: #24878e; stroke: #24878e"/>
    <path d="M 123.032626 159.366336 
L 120.032626 165.366336 
L 126.032626 165.366336 
z
" clip-path="url(#p890194067c)" style="fill: #23888e; stroke: #23888e"/>
    <path d="M 123.032626 156.065189 
L 120.032626 162.065189 
L 126.032626 162.065189 
z
" clip-path="url(#p890194067c)" style="fill: #228c8d; stroke: #228c8d"/>
    <path d="M 129.216522 153.680301 
L 126.216522 159.680301 
L 132.216522 159.680301 
z
" clip-path="url(#p890194067c)" style="fill: #218f8d; stroke: #218f8d"/>
    <path d="M 132.30847 137.561747 
L 129.30847 143.561747 
L 135.30847 143.561747 
z
" clip-path="url(#p890194067c)" style="fill: #1fa287; stroke: #1fa287"/>
    <path d="M 135.400418 132.185957 
L 132.400418 138.185957 
L 138.400418 138.185957 
z
" clip-path="url(#p890194067c)" style="fill: #23a983; stroke: #23a983"/>
    <path d="M 135.400418 123.579093 
L 132.400418 129.579093 
L 138.400418 129.579093 
z
" clip-path="url(#p890194067c)" style="fill: #2fb47c; stroke: #2fb47c"/>
    <path d="M 138.492366 123.370942 
L 135.492366 129.370942 
L 141.492366 129.370942 
z
" clip-path="url(#p890194067c)" style="fill: #2fb47c; stroke: #2fb47c"/>
    <path d="M 141.584314 118.40273 
L 138.584314 124.40273 
L 144.584314 124.40273 
z
" clip-path="url(#p890194067c)" style="fill: #38b977; stroke: #38b977"/>
    <path d="M 144.676262 114.282617 
L 141.676262 120.282617 
L 147.676262 120.282617 
z
" clip-path="url(#p890194067c)" style="fill: #42be71; stroke: #42be71"/>
    <path d="M 144.676262 113.690667 
L 141.676262 119.690667 
L 147.676262 119.690667 
z
" clip-path="url(#p890194067c)" style="fill: #44bf70; stroke: #44bf70"/>
    <path d="M 144.676262 104.976297 
L 141.676262 110.976297 
L 147.676262 110.976297 
z
" clip-path="url(#p890194067c)" style="fill: #5ac864; stroke: #5ac864"/>
    <path d="M 147.76821 103.781631 
L 144.76821 109.781631 
L 150.76821 109.781631 
z
" clip-path="url(#p890194067c)" style="fill: #5ec962; stroke: #5ec962"/>
    <path d="M 147.76821 102.599641 
L 144.76821 108.599641 
L 150.76821 108.599641 
z
" clip-path="url(#p890194067c)" style="fill: #60ca60; stroke: #60ca60"/>
    <path d="M 153.952106 102.24319 
L 150.952106 108.24319 
L 156.952106 108.24319 
z
" clip-path="url(#p890194067c)" style="fill: #63cb5f; stroke: #63cb5f"/>
    <path d="M 153.952106 100.113484 
L 150.952106 106.113484 
L 156.952106 106.113484 
z
" clip-path="url(#p890194067c)" style="fill: #67cc5c; stroke: #67cc5c"/>
    <path d="M 157.044054 98.857941 
L 154.044054 104.857941 
L 160.044054 104.857941 
z
" clip-path="url(#p890194067c)" style="fill: #6ccd5a; stroke: #6ccd5a"/>
    <path d="M 163.22795 98.070365 
L 160.22795 104.070365 
L 166.22795 104.070365 
z
" clip-path="url(#p890194067c)" style="fill: #6ece58; stroke: #6ece58"/>
    <path d="M 169.411847 96.746554 
L 166.411847 102.746554 
L 172.411847 102.746554 
z
" clip-path="url(#p890194067c)" style="fill: #73d056; stroke: #73d056"/>
    <path d="M 172.503795 95.276633 
L 169.503795 101.276633 
L 175.503795 101.276633 
z
" clip-path="url(#p890194067c)" style="fill: #77d153; stroke: #77d153"/>
    <path d="M 175.595743 90.889685 
L 172.595743 96.889685 
L 178.595743 96.889685 
z
" clip-path="url(#p890194067c)" style="fill: #84d44b; stroke: #84d44b"/>
    <path d="M 191.055483 89.964436 
L 188.055483 95.964436 
L 194.055483 95.964436 
z
" clip-path="url(#p890194067c)" style="fill: #89d548; stroke: #89d548"/>
    <path d="M 191.055483 88.050519 
L 188.055483 94.050519 
L 194.055483 94.050519 
z
" clip-path="url(#p890194067c)" style="fill: #8ed645; stroke: #8ed645"/>
    <path d="M 194.147431 83.462703 
L 191.147431 89.462703 
L 197.147431 89.462703 
z
" clip-path="url(#p890194067c)" style="fill: #9dd93b; stroke: #9dd93b"/>
    <path d="M 212.699119 83.175282 
L 209.699119 89.175282 
L 215.699119 89.175282 
z
" clip-path="url(#p890194067c)" style="fill: #9dd93b; stroke: #9dd93b"/>
    <path d="M 218.883015 80.738773 
L 215.883015 86.738773 
L 221.883015 86.738773 
z
" clip-path="url(#p890194067c)" style="fill: #a8db34; stroke: #a8db34"/>
    <path d="M 265.262236 80.029736 
L 262.262236 86.029736 
L 268.262236 86.029736 
z
" clip-path="url(#p890194067c)" style="fill: #a8db34; stroke: #a8db34"/>
    <path d="M 302.365613 76.677232 
L 299.365613 82.677232 
L 305.365613 82.677232 
z
" clip-path="url(#p890194067c)" style="fill: #b5de2b; stroke: #b5de2b"/>
    <path d="M 348.744834 70.950571 
L 345.744834 76.950571 
L 351.744834 76.950571 
z
" clip-path="url(#p890194067c)" style="fill: #c8e020; stroke: #c8e020"/>
    <path d="M 351.836782 60.626211 
L 348.836782 66.626211 
L 354.836782 66.626211 
z
" clip-path="url(#p890194067c)" style="fill: #ece51b; stroke: #ece51b"/>
    <path d="M 376.572366 58.954101 
L 373.572366 64.954101 
L 379.572366 64.954101 
z
" clip-path="url(#p890194067c)" style="fill: #f1e51d; stroke: #f1e51d"/>
    <path d="M 385.84821 54.714517 
L 382.84821 60.714517 
L 388.84821 60.714517 
z
" clip-path="url(#p890194067c)" style="fill: #fde725; stroke: #fde725"/>
   </g>
   <g id="matplotlib.axis_1">
    <g id="xtick_1">
     <g id="line2d_1">
      <defs>
       <path id="mb2ef337328" d="M 0 0 
L 0 3.5 
" style="stroke: #000000; stroke-width: 0.8"/>
      </defs>
      <g>
       <use xlink:href="#mb2ef337328" x="55.525669" y="266.112" style="stroke: #000000; stroke-width: 0.8"/>
      </g>
     </g>
     <g id="text_1">
      <!-- 2 -->
      <g transform="translate(52.344419 280.710437)scale(0.1 -0.1)">
       <defs>
        <path id="DejaVuSans-32" d="M 1228 531 
L 3431 531 
L 3431 0 
L 469 0 
L 469 531 
Q 828 903 1448 1529 
Q 2069 2156 2228 2338 
Q 2531 2678 2651 2914 
Q 2772 3150 2772 3378 
Q 2772 3750 2511 3984 
Q 2250 4219 1831 4219 
Q 1534 4219 1204 4116 
Q 875 4013 500 3803 
L 500 4441 
Q 881 4594 1212 4672 
Q 1544 4750 1819 4750 
Q 2544 4750 2975 4387 
Q 3406 4025 3406 3419 
Q 3406 3131 3298 2873 
Q 3191 2616 2906 2266 
Q 2828 2175 2409 1742 
Q 1991 1309 1228 531 
z
" transform="scale(0.015625)"/>
       </defs>
       <use xlink:href="#DejaVuSans-32"/>
      </g>
     </g>
    </g>
    <g id="xtick_2">
     <g id="line2d_2">
      <g>
       <use xlink:href="#mb2ef337328" x="105.512738" y="266.112" style="stroke: #000000; stroke-width: 0.8"/>
      </g>
     </g>
     <g id="text_2">
      <!-- 4 -->
      <g transform="translate(102.331488 280.710437)scale(0.1 -0.1)">
       <defs>
        <path id="DejaVuSans-34" d="M 2419 4116 
L 825 1625 
L 2419 1625 
L 2419 4116 
z
M 2253 4666 
L 3047 4666 
L 3047 1625 
L 3713 1625 
L 3713 1100 
L 3047 1100 
L 3047 0 
L 2419 0 
L 2419 1100 
L 313 1100 
L 313 1709 
L 2253 4666 
z
" transform="scale(0.015625)"/>
       </defs>
       <use xlink:href="#DejaVuSans-34"/>
      </g>
     </g>
    </g>
    <g id="xtick_3">
     <g id="line2d_3">
      <g>
       <use xlink:href="#mb2ef337328" x="155.499807" y="266.112" style="stroke: #000000; stroke-width: 0.8"/>
      </g>
     </g>
     <g id="text_3">
      <!-- 6 -->
      <g transform="translate(152.318557 280.710437)scale(0.1 -0.1)">
       <defs>
        <path id="DejaVuSans-36" d="M 2113 2584 
Q 1688 2584 1439 2293 
Q 1191 2003 1191 1497 
Q 1191 994 1439 701 
Q 1688 409 2113 409 
Q 2538 409 2786 701 
Q 3034 994 3034 1497 
Q 3034 2003 2786 2293 
Q 2538 2584 2113 2584 
z
M 3366 4563 
L 3366 3988 
Q 3128 4100 2886 4159 
Q 2644 4219 2406 4219 
Q 1781 4219 1451 3797 
Q 1122 3375 1075 2522 
Q 1259 2794 1537 2939 
Q 1816 3084 2150 3084 
Q 2853 3084 3261 2657 
Q 3669 2231 3669 1497 
Q 3669 778 3244 343 
Q 2819 -91 2113 -91 
Q 1303 -91 875 529 
Q 447 1150 447 2328 
Q 447 3434 972 4092 
Q 1497 4750 2381 4750 
Q 2619 4750 2861 4703 
Q 3103 4656 3366 4563 
z
" transform="scale(0.015625)"/>
       </defs>
       <use xlink:href="#DejaVuSans-36"/>
      </g>
     </g>
    </g>
    <g id="xtick_4">
     <g id="line2d_4">
      <g>
       <use xlink:href="#mb2ef337328" x="205.486876" y="266.112" style="stroke: #000000; stroke-width: 0.8"/>
      </g>
     </g>
     <g id="text_4">
      <!-- 8 -->
      <g transform="translate(202.305626 280.710437)scale(0.1 -0.1)">
       <defs>
        <path id="DejaVuSans-38" d="M 2034 2216 
Q 1584 2216 1326 1975 
Q 1069 1734 1069 1313 
Q 1069 891 1326 650 
Q 1584 409 2034 409 
Q 2484 409 2743 651 
Q 3003 894 3003 1313 
Q 3003 1734 2745 1975 
Q 2488 2216 2034 2216 
z
M 1403 2484 
Q 997 2584 770 2862 
Q 544 3141 544 3541 
Q 544 4100 942 4425 
Q 1341 4750 2034 4750 
Q 2731 4750 3128 4425 
Q 3525 4100 3525 3541 
Q 3525 3141 3298 2862 
Q 3072 2584 2669 2484 
Q 3125 2378 3379 2068 
Q 3634 1759 3634 1313 
Q 3634 634 3220 271 
Q 2806 -91 2034 -91 
Q 1263 -91 848 271 
Q 434 634 434 1313 
Q 434 1759 690 2068 
Q 947 2378 1403 2484 
z
M 1172 3481 
Q 1172 3119 1398 2916 
Q 1625 2713 2034 2713 
Q 2441 2713 2670 2916 
Q 2900 3119 2900 3481 
Q 2900 3844 2670 4047 
Q 2441 4250 2034 4250 
Q 1625 4250 1398 4047 
Q 1172 3844 1172 3481 
z
" transform="scale(0.015625)"/>
       </defs>
       <use xlink:href="#DejaVuSans-38"/>
      </g>
     </g>
    </g>
    <g id="xtick_5">
     <g id="line2d_5">
      <g>
       <use xlink:href="#mb2ef337328" x="255.473945" y="266.112" style="stroke: #000000; stroke-width: 0.8"/>
      </g>
     </g>
     <g id="text_5">
      <!-- 10 -->
      <g transform="translate(249.111445 280.710437)scale(0.1 -0.1)">
       <defs>
        <path id="DejaVuSans-31" d="M 794 531 
L 1825 531 
L 1825 4091 
L 703 3866 
L 703 4441 
L 1819 4666 
L 2450 4666 
L 2450 531 
L 3481 531 
L 3481 0 
L 794 0 
L 794 531 
z
" transform="scale(0.015625)"/>
        <path id="DejaVuSans-30" d="M 2034 4250 
Q 1547 4250 1301 3770 
Q 1056 3291 1056 2328 
Q 1056 1369 1301 889 
Q 1547 409 2034 409 
Q 2525 409 2770 889 
Q 3016 1369 3016 2328 
Q 3016 3291 2770 3770 
Q 2525 4250 2034 4250 
z
M 2034 4750 
Q 2819 4750 3233 4129 
Q 3647 3509 3647 2328 
Q 3647 1150 3233 529 
Q 2819 -91 2034 -91 
Q 1250 -91 836 529 
Q 422 1150 422 2328 
Q 422 3509 836 4129 
Q 1250 4750 2034 4750 
z
" transform="scale(0.015625)"/>
       </defs>
       <use xlink:href="#DejaVuSans-31"/>
       <use xlink:href="#DejaVuSans-30" x="63.623047"/>
      </g>
     </g>
    </g>
    <g id="xtick_6">
     <g id="line2d_6">
      <g>
       <use xlink:href="#mb2ef337328" x="305.461014" y="266.112" style="stroke: #000000; stroke-width: 0.8"/>
      </g>
     </g>
     <g id="text_6">
      <!-- 12 -->
      <g transform="translate(299.098514 280.710437)scale(0.1 -0.1)">
       <use xlink:href="#DejaVuSans-31"/>
       <use xlink:href="#DejaVuSans-32" x="63.623047"/>
      </g>
     </g>
    </g>
    <g id="xtick_7">
     <g id="line2d_7">
      <g>
       <use xlink:href="#mb2ef337328" x="355.448083" y="266.112" style="stroke: #000000; stroke-width: 0.8"/>
      </g>
     </g>
     <g id="text_7">
      <!-- 14 -->
      <g transform="translate(349.085583 280.710437)scale(0.1 -0.1)">
       <use xlink:href="#DejaVuSans-31"/>
       <use xlink:href="#DejaVuSans-34" x="63.623047"/>
      </g>
     </g>
    </g>
    <g id="text_8">
     <!-- Eddy Area [10^3 * km^2] -->
     <g transform="translate(157.921719 294.388562)scale(0.1 -0.1)">
      <defs>
       <path id="DejaVuSans-45" d="M 628 4666 
L 3578 4666 
L 3578 4134 
L 1259 4134 
L 1259 2753 
L 3481 2753 
L 3481 2222 
L 1259 2222 
L 1259 531 
L 3634 531 
L 3634 0 
L 628 0 
L 628 4666 
z
" transform="scale(0.015625)"/>
       <path id="DejaVuSans-64" d="M 2906 2969 
L 2906 4863 
L 3481 4863 
L 3481 0 
L 2906 0 
L 2906 525 
Q 2725 213 2448 61 
Q 2172 -91 1784 -91 
Q 1150 -91 751 415 
Q 353 922 353 1747 
Q 353 2572 751 3078 
Q 1150 3584 1784 3584 
Q 2172 3584 2448 3432 
Q 2725 3281 2906 2969 
z
M 947 1747 
Q 947 1113 1208 752 
Q 1469 391 1925 391 
Q 2381 391 2643 752 
Q 2906 1113 2906 1747 
Q 2906 2381 2643 2742 
Q 2381 3103 1925 3103 
Q 1469 3103 1208 2742 
Q 947 2381 947 1747 
z
" transform="scale(0.015625)"/>
       <path id="DejaVuSans-79" d="M 2059 -325 
Q 1816 -950 1584 -1140 
Q 1353 -1331 966 -1331 
L 506 -1331 
L 506 -850 
L 844 -850 
Q 1081 -850 1212 -737 
Q 1344 -625 1503 -206 
L 1606 56 
L 191 3500 
L 800 3500 
L 1894 763 
L 2988 3500 
L 3597 3500 
L 2059 -325 
z
" transform="scale(0.015625)"/>
       <path id="DejaVuSans-20" transform="scale(0.015625)"/>
       <path id="DejaVuSans-41" d="M 2188 4044 
L 1331 1722 
L 3047 1722 
L 2188 4044 
z
M 1831 4666 
L 2547 4666 
L 4325 0 
L 3669 0 
L 3244 1197 
L 1141 1197 
L 716 0 
L 50 0 
L 1831 4666 
z
" transform="scale(0.015625)"/>
       <path id="DejaVuSans-72" d="M 2631 2963 
Q 2534 3019 2420 3045 
Q 2306 3072 2169 3072 
Q 1681 3072 1420 2755 
Q 1159 2438 1159 1844 
L 1159 0 
L 581 0 
L 581 3500 
L 1159 3500 
L 1159 2956 
Q 1341 3275 1631 3429 
Q 1922 3584 2338 3584 
Q 2397 3584 2469 3576 
Q 2541 3569 2628 3553 
L 2631 2963 
z
" transform="scale(0.015625)"/>
       <path id="DejaVuSans-65" d="M 3597 1894 
L 3597 1613 
L 953 1613 
Q 991 1019 1311 708 
Q 1631 397 2203 397 
Q 2534 397 2845 478 
Q 3156 559 3463 722 
L 3463 178 
Q 3153 47 2828 -22 
Q 2503 -91 2169 -91 
Q 1331 -91 842 396 
Q 353 884 353 1716 
Q 353 2575 817 3079 
Q 1281 3584 2069 3584 
Q 2775 3584 3186 3129 
Q 3597 2675 3597 1894 
z
M 3022 2063 
Q 3016 2534 2758 2815 
Q 2500 3097 2075 3097 
Q 1594 3097 1305 2825 
Q 1016 2553 972 2059 
L 3022 2063 
z
" transform="scale(0.015625)"/>
       <path id="DejaVuSans-61" d="M 2194 1759 
Q 1497 1759 1228 1600 
Q 959 1441 959 1056 
Q 959 750 1161 570 
Q 1363 391 1709 391 
Q 2188 391 2477 730 
Q 2766 1069 2766 1631 
L 2766 1759 
L 2194 1759 
z
M 3341 1997 
L 3341 0 
L 2766 0 
L 2766 531 
Q 2569 213 2275 61 
Q 1981 -91 1556 -91 
Q 1019 -91 701 211 
Q 384 513 384 1019 
Q 384 1609 779 1909 
Q 1175 2209 1959 2209 
L 2766 2209 
L 2766 2266 
Q 2766 2663 2505 2880 
Q 2244 3097 1772 3097 
Q 1472 3097 1187 3025 
Q 903 2953 641 2809 
L 641 3341 
Q 956 3463 1253 3523 
Q 1550 3584 1831 3584 
Q 2591 3584 2966 3190 
Q 3341 2797 3341 1997 
z
" transform="scale(0.015625)"/>
       <path id="DejaVuSans-5b" d="M 550 4863 
L 1875 4863 
L 1875 4416 
L 1125 4416 
L 1125 -397 
L 1875 -397 
L 1875 -844 
L 550 -844 
L 550 4863 
z
" transform="scale(0.015625)"/>
       <path id="DejaVuSans-5e" d="M 2988 4666 
L 4684 2925 
L 4056 2925 
L 2681 4159 
L 1306 2925 
L 678 2925 
L 2375 4666 
L 2988 4666 
z
" transform="scale(0.015625)"/>
       <path id="DejaVuSans-33" d="M 2597 2516 
Q 3050 2419 3304 2112 
Q 3559 1806 3559 1356 
Q 3559 666 3084 287 
Q 2609 -91 1734 -91 
Q 1441 -91 1130 -33 
Q 819 25 488 141 
L 488 750 
Q 750 597 1062 519 
Q 1375 441 1716 441 
Q 2309 441 2620 675 
Q 2931 909 2931 1356 
Q 2931 1769 2642 2001 
Q 2353 2234 1838 2234 
L 1294 2234 
L 1294 2753 
L 1863 2753 
Q 2328 2753 2575 2939 
Q 2822 3125 2822 3475 
Q 2822 3834 2567 4026 
Q 2313 4219 1838 4219 
Q 1578 4219 1281 4162 
Q 984 4106 628 3988 
L 628 4550 
Q 988 4650 1302 4700 
Q 1616 4750 1894 4750 
Q 2613 4750 3031 4423 
Q 3450 4097 3450 3541 
Q 3450 3153 3228 2886 
Q 3006 2619 2597 2516 
z
" transform="scale(0.015625)"/>
       <path id="DejaVuSans-2a" d="M 3009 3897 
L 1888 3291 
L 3009 2681 
L 2828 2375 
L 1778 3009 
L 1778 1831 
L 1422 1831 
L 1422 3009 
L 372 2375 
L 191 2681 
L 1313 3291 
L 191 3897 
L 372 4206 
L 1422 3572 
L 1422 4750 
L 1778 4750 
L 1778 3572 
L 2828 4206 
L 3009 3897 
z
" transform="scale(0.015625)"/>
       <path id="DejaVuSans-6b" d="M 581 4863 
L 1159 4863 
L 1159 1991 
L 2875 3500 
L 3609 3500 
L 1753 1863 
L 3688 0 
L 2938 0 
L 1159 1709 
L 1159 0 
L 581 0 
L 581 4863 
z
" transform="scale(0.015625)"/>
       <path id="DejaVuSans-6d" d="M 3328 2828 
Q 3544 3216 3844 3400 
Q 4144 3584 4550 3584 
Q 5097 3584 5394 3201 
Q 5691 2819 5691 2113 
L 5691 0 
L 5113 0 
L 5113 2094 
Q 5113 2597 4934 2840 
Q 4756 3084 4391 3084 
Q 3944 3084 3684 2787 
Q 3425 2491 3425 1978 
L 3425 0 
L 2847 0 
L 2847 2094 
Q 2847 2600 2669 2842 
Q 2491 3084 2119 3084 
Q 1678 3084 1418 2786 
Q 1159 2488 1159 1978 
L 1159 0 
L 581 0 
L 581 3500 
L 1159 3500 
L 1159 2956 
Q 1356 3278 1631 3431 
Q 1906 3584 2284 3584 
Q 2666 3584 2933 3390 
Q 3200 3197 3328 2828 
z
" transform="scale(0.015625)"/>
       <path id="DejaVuSans-5d" d="M 1947 4863 
L 1947 -844 
L 622 -844 
L 622 -397 
L 1369 -397 
L 1369 4416 
L 622 4416 
L 622 4863 
L 1947 4863 
z
" transform="scale(0.015625)"/>
      </defs>
      <use xlink:href="#DejaVuSans-45"/>
      <use xlink:href="#DejaVuSans-64" x="63.183594"/>
      <use xlink:href="#DejaVuSans-64" x="126.660156"/>
      <use xlink:href="#DejaVuSans-79" x="190.136719"/>
      <use xlink:href="#DejaVuSans-20" x="249.316406"/>
      <use xlink:href="#DejaVuSans-41" x="281.103516"/>
      <use xlink:href="#DejaVuSans-72" x="349.511719"/>
      <use xlink:href="#DejaVuSans-65" x="388.375"/>
      <use xlink:href="#DejaVuSans-61" x="449.898438"/>
      <use xlink:href="#DejaVuSans-20" x="511.177734"/>
      <use xlink:href="#DejaVuSans-5b" x="542.964844"/>
      <use xlink:href="#DejaVuSans-31" x="581.978516"/>
      <use xlink:href="#DejaVuSans-30" x="645.601562"/>
      <use xlink:href="#DejaVuSans-5e" x="709.224609"/>
      <use xlink:href="#DejaVuSans-33" x="793.013672"/>
      <use xlink:href="#DejaVuSans-20" x="856.636719"/>
      <use xlink:href="#DejaVuSans-2a" x="888.423828"/>
      <use xlink:href="#DejaVuSans-20" x="938.423828"/>
      <use xlink:href="#DejaVuSans-6b" x="970.210938"/>
      <use xlink:href="#DejaVuSans-6d" x="1028.121094"/>
      <use xlink:href="#DejaVuSans-5e" x="1125.533203"/>
      <use xlink:href="#DejaVuSans-32" x="1209.322266"/>
      <use xlink:href="#DejaVuSans-5d" x="1272.945312"/>
     </g>
    </g>
   </g>
   <g id="matplotlib.axis_2">
    <g id="ytick_1">
     <g id="line2d_8">
      <defs>
       <path id="m90e2d87e2b" d="M 0 0 
L -3.5 0 
" style="stroke: #000000; stroke-width: 0.8"/>
      </defs>
      <g>
       <use xlink:href="#m90e2d87e2b" x="44.960938" y="239.324555" style="stroke: #000000; stroke-width: 0.8"/>
      </g>
     </g>
     <g id="text_9">
      <!-- −0.6 -->
      <g transform="translate(13.678125 243.123774)scale(0.1 -0.1)">
       <defs>
        <path id="DejaVuSans-2212" d="M 678 2272 
L 4684 2272 
L 4684 1741 
L 678 1741 
L 678 2272 
z
" transform="scale(0.015625)"/>
        <path id="DejaVuSans-2e" d="M 684 794 
L 1344 794 
L 1344 0 
L 684 0 
L 684 794 
z
" transform="scale(0.015625)"/>
       </defs>
       <use xlink:href="#DejaVuSans-2212"/>
       <use xlink:href="#DejaVuSans-30" x="83.789062"/>
       <use xlink:href="#DejaVuSans-2e" x="147.412109"/>
       <use xlink:href="#DejaVuSans-36" x="179.199219"/>
      </g>
     </g>
    </g>
    <g id="ytick_2">
     <g id="line2d_9">
      <g>
       <use xlink:href="#m90e2d87e2b" x="44.960938" y="207.542381" style="stroke: #000000; stroke-width: 0.8"/>
      </g>
     </g>
     <g id="text_10">
      <!-- −0.4 -->
      <g transform="translate(13.678125 211.3416)scale(0.1 -0.1)">
       <use xlink:href="#DejaVuSans-2212"/>
       <use xlink:href="#DejaVuSans-30" x="83.789062"/>
       <use xlink:href="#DejaVuSans-2e" x="147.412109"/>
       <use xlink:href="#DejaVuSans-34" x="179.199219"/>
      </g>
     </g>
    </g>
    <g id="ytick_3">
     <g id="line2d_10">
      <g>
       <use xlink:href="#m90e2d87e2b" x="44.960938" y="175.760207" style="stroke: #000000; stroke-width: 0.8"/>
      </g>
     </g>
     <g id="text_11">
      <!-- −0.2 -->
      <g transform="translate(13.678125 179.559426)scale(0.1 -0.1)">
       <use xlink:href="#DejaVuSans-2212"/>
       <use xlink:href="#DejaVuSans-30" x="83.789062"/>
       <use xlink:href="#DejaVuSans-2e" x="147.412109"/>
       <use xlink:href="#DejaVuSans-32" x="179.199219"/>
      </g>
     </g>
    </g>
    <g id="ytick_4">
     <g id="line2d_11">
      <g>
       <use xlink:href="#m90e2d87e2b" x="44.960938" y="143.978033" style="stroke: #000000; stroke-width: 0.8"/>
      </g>
     </g>
     <g id="text_12">
      <!-- 0.0 -->
      <g transform="translate(22.057813 147.777252)scale(0.1 -0.1)">
       <use xlink:href="#DejaVuSans-30"/>
       <use xlink:href="#DejaVuSans-2e" x="63.623047"/>
       <use xlink:href="#DejaVuSans-30" x="95.410156"/>
      </g>
     </g>
    </g>
    <g id="ytick_5">
     <g id="line2d_12">
      <g>
       <use xlink:href="#m90e2d87e2b" x="44.960938" y="112.195859" style="stroke: #000000; stroke-width: 0.8"/>
      </g>
     </g>
     <g id="text_13">
      <!-- 0.2 -->
      <g transform="translate(22.057813 115.995078)scale(0.1 -0.1)">
       <use xlink:href="#DejaVuSans-30"/>
       <use xlink:href="#DejaVuSans-2e" x="63.623047"/>
       <use xlink:href="#DejaVuSans-32" x="95.410156"/>
      </g>
     </g>
    </g>
    <g id="ytick_6">
     <g id="line2d_13">
      <g>
       <use xlink:href="#m90e2d87e2b" x="44.960938" y="80.413685" style="stroke: #000000; stroke-width: 0.8"/>
      </g>
     </g>
     <g id="text_14">
      <!-- 0.4 -->
      <g transform="translate(22.057813 84.212904)scale(0.1 -0.1)">
       <use xlink:href="#DejaVuSans-30"/>
       <use xlink:href="#DejaVuSans-2e" x="63.623047"/>
       <use xlink:href="#DejaVuSans-34" x="95.410156"/>
      </g>
     </g>
    </g>
    <g id="ytick_7">
     <g id="line2d_14">
      <g>
       <use xlink:href="#m90e2d87e2b" x="44.960938" y="48.631511" style="stroke: #000000; stroke-width: 0.8"/>
      </g>
     </g>
     <g id="text_15">
      <!-- 0.6 -->
      <g transform="translate(22.057813 52.43073)scale(0.1 -0.1)">
       <use xlink:href="#DejaVuSans-30"/>
       <use xlink:href="#DejaVuSans-2e" x="63.623047"/>
       <use xlink:href="#DejaVuSans-36" x="95.410156"/>
      </g>
     </g>
    </g>
    <g id="ytick_8">
     <g id="line2d_15">
      <g>
       <use xlink:href="#m90e2d87e2b" x="44.960938" y="16.849337" style="stroke: #000000; stroke-width: 0.8"/>
      </g>
     </g>
     <g id="text_16">
      <!-- 0.8 -->
      <g transform="translate(22.057813 20.648556)scale(0.1 -0.1)">
       <use xlink:href="#DejaVuSans-30"/>
       <use xlink:href="#DejaVuSans-2e" x="63.623047"/>
       <use xlink:href="#DejaVuSans-38" x="95.410156"/>
      </g>
     </g>
    </g>
    <g id="text_17">
     <!-- Eddy Amplitude [m] -->
     <g transform="translate(7.598438 183.095844)rotate(-90)scale(0.1 -0.1)">
      <defs>
       <path id="DejaVuSans-70" d="M 1159 525 
L 1159 -1331 
L 581 -1331 
L 581 3500 
L 1159 3500 
L 1159 2969 
Q 1341 3281 1617 3432 
Q 1894 3584 2278 3584 
Q 2916 3584 3314 3078 
Q 3713 2572 3713 1747 
Q 3713 922 3314 415 
Q 2916 -91 2278 -91 
Q 1894 -91 1617 61 
Q 1341 213 1159 525 
z
M 3116 1747 
Q 3116 2381 2855 2742 
Q 2594 3103 2138 3103 
Q 1681 3103 1420 2742 
Q 1159 2381 1159 1747 
Q 1159 1113 1420 752 
Q 1681 391 2138 391 
Q 2594 391 2855 752 
Q 3116 1113 3116 1747 
z
" transform="scale(0.015625)"/>
       <path id="DejaVuSans-6c" d="M 603 4863 
L 1178 4863 
L 1178 0 
L 603 0 
L 603 4863 
z
" transform="scale(0.015625)"/>
       <path id="DejaVuSans-69" d="M 603 3500 
L 1178 3500 
L 1178 0 
L 603 0 
L 603 3500 
z
M 603 4863 
L 1178 4863 
L 1178 4134 
L 603 4134 
L 603 4863 
z
" transform="scale(0.015625)"/>
       <path id="DejaVuSans-74" d="M 1172 4494 
L 1172 3500 
L 2356 3500 
L 2356 3053 
L 1172 3053 
L 1172 1153 
Q 1172 725 1289 603 
Q 1406 481 1766 481 
L 2356 481 
L 2356 0 
L 1766 0 
Q 1100 0 847 248 
Q 594 497 594 1153 
L 594 3053 
L 172 3053 
L 172 3500 
L 594 3500 
L 594 4494 
L 1172 4494 
z
" transform="scale(0.015625)"/>
       <path id="DejaVuSans-75" d="M 544 1381 
L 544 3500 
L 1119 3500 
L 1119 1403 
Q 1119 906 1312 657 
Q 1506 409 1894 409 
Q 2359 409 2629 706 
Q 2900 1003 2900 1516 
L 2900 3500 
L 3475 3500 
L 3475 0 
L 2900 0 
L 2900 538 
Q 2691 219 2414 64 
Q 2138 -91 1772 -91 
Q 1169 -91 856 284 
Q 544 659 544 1381 
z
M 1991 3584 
L 1991 3584 
z
" transform="scale(0.015625)"/>
      </defs>
      <use xlink:href="#DejaVuSans-45"/>
      <use xlink:href="#DejaVuSans-64" x="63.183594"/>
      <use xlink:href="#DejaVuSans-64" x="126.660156"/>
      <use xlink:href="#DejaVuSans-79" x="190.136719"/>
      <use xlink:href="#DejaVuSans-20" x="249.316406"/>
      <use xlink:href="#DejaVuSans-41" x="281.103516"/>
      <use xlink:href="#DejaVuSans-6d" x="349.511719"/>
      <use xlink:href="#DejaVuSans-70" x="446.923828"/>
      <use xlink:href="#DejaVuSans-6c" x="510.400391"/>
      <use xlink:href="#DejaVuSans-69" x="538.183594"/>
      <use xlink:href="#DejaVuSans-74" x="565.966797"/>
      <use xlink:href="#DejaVuSans-75" x="605.175781"/>
      <use xlink:href="#DejaVuSans-64" x="668.554688"/>
      <use xlink:href="#DejaVuSans-65" x="732.03125"/>
      <use xlink:href="#DejaVuSans-20" x="793.554688"/>
      <use xlink:href="#DejaVuSans-5b" x="825.341797"/>
      <use xlink:href="#DejaVuSans-6d" x="864.355469"/>
      <use xlink:href="#DejaVuSans-5d" x="961.767578"/>
     </g>
    </g>
   </g>
   <g id="line2d_16">
    <path d="M 61.193665 191.392214 
L 61.193665 191.392214 
L 64.285613 189.684631 
L 67.377561 187.977048 
L 70.469509 186.269465 
L 70.469509 186.269465 
L 73.561457 184.561882 
L 76.653405 182.854299 
L 76.653405 182.854299 
L 76.653405 182.854299 
L 76.653405 182.854299 
L 79.745353 181.146716 
L 82.837301 179.439133 
L 82.837301 179.439133 
L 85.929249 177.73155 
L 92.113145 174.316384 
L 92.113145 174.316384 
L 92.113145 174.316384 
L 95.205093 172.608801 
L 95.205093 172.608801 
L 101.388989 169.193635 
L 107.572886 165.778469 
L 107.572886 165.778469 
L 110.664834 164.070886 
L 110.664834 164.070886 
L 113.756782 162.363303 
L 113.756782 162.363303 
L 113.756782 162.363303 
L 113.756782 162.363303 
L 116.84873 160.65572 
L 116.84873 160.65572 
L 116.84873 160.65572 
L 119.940678 158.948137 
L 123.032626 157.240554 
L 123.032626 157.240554 
L 129.216522 153.825388 
L 132.30847 152.117805 
L 135.400418 150.410222 
L 135.400418 150.410222 
L 138.492366 148.702639 
L 141.584314 146.995056 
L 144.676262 145.287473 
L 144.676262 145.287473 
L 144.676262 145.287473 
L 147.76821 143.57989 
L 147.76821 143.57989 
L 153.952106 140.164724 
L 153.952106 140.164724 
L 157.044054 138.457141 
L 163.22795 135.041975 
L 169.411847 131.626809 
L 172.503795 129.919226 
L 175.595743 128.211643 
L 191.055483 119.673728 
L 191.055483 119.673728 
L 194.147431 117.966145 
L 212.699119 107.720647 
L 218.883015 104.305481 
L 265.262236 78.691737 
L 302.365613 58.200741 
L 348.744834 32.586996 
L 351.836782 30.879413 
L 376.572366 17.218749 
L 385.84821 12.096 
" clip-path="url(#p890194067c)" style="fill: none; stroke: #000080; stroke-width: 1.5; stroke-linecap: square"/>
   </g>
   <g id="line2d_17">
    <path d="M 61.193665 223.293475 
L 61.193665 223.293475 
L 64.285613 217.958814 
L 67.377561 212.89785 
L 70.469509 208.083862 
L 70.469509 208.083862 
L 73.561457 203.493863 
L 76.653405 199.107932 
L 76.653405 199.107932 
L 76.653405 199.107932 
L 76.653405 199.107932 
L 79.745353 194.908695 
L 82.837301 190.880904 
L 82.837301 190.880904 
L 85.929249 187.011107 
L 92.113145 179.699082 
L 92.113145 179.699082 
L 92.113145 179.699082 
L 95.205093 176.23672 
L 95.205093 176.23672 
L 101.388989 169.65647 
L 107.572886 163.487762 
L 107.572886 163.487762 
L 110.664834 160.542255 
L 110.664834 160.542255 
L 113.756782 157.682136 
L 113.756782 157.682136 
L 113.756782 157.682136 
L 113.756782 157.682136 
L 116.84873 154.902595 
L 116.84873 154.902595 
L 116.84873 154.902595 
L 119.940678 152.199215 
L 123.032626 149.567934 
L 123.032626 149.567934 
L 129.216522 144.506969 
L 132.30847 142.070619 
L 135.400418 139.692981 
L 135.400418 139.692981 
L 138.492366 137.371293 
L 141.584314 135.102982 
L 144.676262 132.885649 
L 144.676262 132.885649 
L 144.676262 132.885649 
L 147.76821 130.717052 
L 147.76821 130.717052 
L 153.952106 126.517815 
L 153.952106 126.517815 
L 157.044054 124.483368 
L 163.22795 120.536154 
L 169.411847 116.740795 
L 172.503795 114.896495 
L 175.595743 113.086037 
L 191.055483 104.500869 
L 191.055483 104.500869 
L 194.147431 102.869969 
L 212.699119 93.613137 
L 218.883015 90.710952 
L 265.262236 71.302101 
L 302.365613 58.126935 
L 348.744834 43.802235 
L 351.836782 42.917321 
L 376.572366 36.109989 
L 385.84821 33.673638 
" clip-path="url(#p890194067c)" style="fill: none; stroke: #ff0000; stroke-width: 1.5; stroke-linecap: square"/>
   </g>
   <g id="patch_3">
    <path d="M 44.960938 266.112 
L 44.960938 -0 
" style="fill: none; stroke: #000000; stroke-width: 0.8; stroke-linejoin: miter; stroke-linecap: square"/>
   </g>
   <g id="patch_4">
    <path d="M 402.080938 266.112 
L 402.080938 -0 
" style="fill: none; stroke: #000000; stroke-width: 0.8; stroke-linejoin: miter; stroke-linecap: square"/>
   </g>
   <g id="patch_5">
    <path d="M 44.960938 266.112 
L 402.080938 266.112 
" style="fill: none; stroke: #000000; stroke-width: 0.8; stroke-linejoin: miter; stroke-linecap: square"/>
   </g>
   <g id="patch_6">
    <path d="M 44.960938 -0 
L 402.080938 -0 
" style="fill: none; stroke: #000000; stroke-width: 0.8; stroke-linejoin: miter; stroke-linecap: square"/>
   </g>
   <g id="legend_1">
    <g id="patch_7">
     <path d="M 51.960938 37.35625 
L 191.7 37.35625 
Q 193.7 37.35625 193.7 35.35625 
L 193.7 7 
Q 193.7 5 191.7 5 
L 51.960938 5 
Q 49.960938 5 49.960938 7 
L 49.960938 35.35625 
Q 49.960938 37.35625 51.960938 37.35625 
z
" style="fill: #ffffff; opacity: 0.8; stroke: #cccccc; stroke-linejoin: miter"/>
    </g>
    <g id="line2d_18">
     <path d="M 53.960938 13.098437 
L 63.960938 13.098437 
L 73.960938 13.098437 
" style="fill: none; stroke: #000080; stroke-width: 1.5; stroke-linecap: square"/>
    </g>
    <g id="text_18">
     <!-- Linear Trendline -->
     <g transform="translate(81.960938 16.598437)scale(0.1 -0.1)">
      <defs>
       <path id="DejaVuSans-4c" d="M 628 4666 
L 1259 4666 
L 1259 531 
L 3531 531 
L 3531 0 
L 628 0 
L 628 4666 
z
" transform="scale(0.015625)"/>
       <path id="DejaVuSans-6e" d="M 3513 2113 
L 3513 0 
L 2938 0 
L 2938 2094 
Q 2938 2591 2744 2837 
Q 2550 3084 2163 3084 
Q 1697 3084 1428 2787 
Q 1159 2491 1159 1978 
L 1159 0 
L 581 0 
L 581 3500 
L 1159 3500 
L 1159 2956 
Q 1366 3272 1645 3428 
Q 1925 3584 2291 3584 
Q 2894 3584 3203 3211 
Q 3513 2838 3513 2113 
z
" transform="scale(0.015625)"/>
       <path id="DejaVuSans-54" d="M -19 4666 
L 3928 4666 
L 3928 4134 
L 2272 4134 
L 2272 0 
L 1638 0 
L 1638 4134 
L -19 4134 
L -19 4666 
z
" transform="scale(0.015625)"/>
      </defs>
      <use xlink:href="#DejaVuSans-4c"/>
      <use xlink:href="#DejaVuSans-69" x="55.712891"/>
      <use xlink:href="#DejaVuSans-6e" x="83.496094"/>
      <use xlink:href="#DejaVuSans-65" x="146.875"/>
      <use xlink:href="#DejaVuSans-61" x="208.398438"/>
      <use xlink:href="#DejaVuSans-72" x="269.677734"/>
      <use xlink:href="#DejaVuSans-20" x="310.791016"/>
      <use xlink:href="#DejaVuSans-54" x="342.578125"/>
      <use xlink:href="#DejaVuSans-72" x="388.912109"/>
      <use xlink:href="#DejaVuSans-65" x="427.775391"/>
      <use xlink:href="#DejaVuSans-6e" x="489.298828"/>
      <use xlink:href="#DejaVuSans-64" x="552.677734"/>
      <use xlink:href="#DejaVuSans-6c" x="616.154297"/>
      <use xlink:href="#DejaVuSans-69" x="643.9375"/>
      <use xlink:href="#DejaVuSans-6e" x="671.720703"/>
      <use xlink:href="#DejaVuSans-65" x="735.099609"/>
     </g>
    </g>
    <g id="line2d_19">
     <path d="M 53.960938 27.776562 
L 63.960938 27.776562 
L 73.960938 27.776562 
" style="fill: none; stroke: #ff0000; stroke-width: 1.5; stroke-linecap: square"/>
    </g>
    <g id="text_19">
     <!-- Logarithmic Trendline -->
     <g transform="translate(81.960938 31.276562)scale(0.1 -0.1)">
      <defs>
       <path id="DejaVuSans-6f" d="M 1959 3097 
Q 1497 3097 1228 2736 
Q 959 2375 959 1747 
Q 959 1119 1226 758 
Q 1494 397 1959 397 
Q 2419 397 2687 759 
Q 2956 1122 2956 1747 
Q 2956 2369 2687 2733 
Q 2419 3097 1959 3097 
z
M 1959 3584 
Q 2709 3584 3137 3096 
Q 3566 2609 3566 1747 
Q 3566 888 3137 398 
Q 2709 -91 1959 -91 
Q 1206 -91 779 398 
Q 353 888 353 1747 
Q 353 2609 779 3096 
Q 1206 3584 1959 3584 
z
" transform="scale(0.015625)"/>
       <path id="DejaVuSans-67" d="M 2906 1791 
Q 2906 2416 2648 2759 
Q 2391 3103 1925 3103 
Q 1463 3103 1205 2759 
Q 947 2416 947 1791 
Q 947 1169 1205 825 
Q 1463 481 1925 481 
Q 2391 481 2648 825 
Q 2906 1169 2906 1791 
z
M 3481 434 
Q 3481 -459 3084 -895 
Q 2688 -1331 1869 -1331 
Q 1566 -1331 1297 -1286 
Q 1028 -1241 775 -1147 
L 775 -588 
Q 1028 -725 1275 -790 
Q 1522 -856 1778 -856 
Q 2344 -856 2625 -561 
Q 2906 -266 2906 331 
L 2906 616 
Q 2728 306 2450 153 
Q 2172 0 1784 0 
Q 1141 0 747 490 
Q 353 981 353 1791 
Q 353 2603 747 3093 
Q 1141 3584 1784 3584 
Q 2172 3584 2450 3431 
Q 2728 3278 2906 2969 
L 2906 3500 
L 3481 3500 
L 3481 434 
z
" transform="scale(0.015625)"/>
       <path id="DejaVuSans-68" d="M 3513 2113 
L 3513 0 
L 2938 0 
L 2938 2094 
Q 2938 2591 2744 2837 
Q 2550 3084 2163 3084 
Q 1697 3084 1428 2787 
Q 1159 2491 1159 1978 
L 1159 0 
L 581 0 
L 581 4863 
L 1159 4863 
L 1159 2956 
Q 1366 3272 1645 3428 
Q 1925 3584 2291 3584 
Q 2894 3584 3203 3211 
Q 3513 2838 3513 2113 
z
" transform="scale(0.015625)"/>
       <path id="DejaVuSans-63" d="M 3122 3366 
L 3122 2828 
Q 2878 2963 2633 3030 
Q 2388 3097 2138 3097 
Q 1578 3097 1268 2742 
Q 959 2388 959 1747 
Q 959 1106 1268 751 
Q 1578 397 2138 397 
Q 2388 397 2633 464 
Q 2878 531 3122 666 
L 3122 134 
Q 2881 22 2623 -34 
Q 2366 -91 2075 -91 
Q 1284 -91 818 406 
Q 353 903 353 1747 
Q 353 2603 823 3093 
Q 1294 3584 2113 3584 
Q 2378 3584 2631 3529 
Q 2884 3475 3122 3366 
z
" transform="scale(0.015625)"/>
      </defs>
      <use xlink:href="#DejaVuSans-4c"/>
      <use xlink:href="#DejaVuSans-6f" x="53.962891"/>
      <use xlink:href="#DejaVuSans-67" x="115.144531"/>
      <use xlink:href="#DejaVuSans-61" x="178.621094"/>
      <use xlink:href="#DejaVuSans-72" x="239.900391"/>
      <use xlink:href="#DejaVuSans-69" x="281.013672"/>
      <use xlink:href="#DejaVuSans-74" x="308.796875"/>
      <use xlink:href="#DejaVuSans-68" x="348.005859"/>
      <use xlink:href="#DejaVuSans-6d" x="411.384766"/>
      <use xlink:href="#DejaVuSans-69" x="508.796875"/>
      <use xlink:href="#DejaVuSans-63" x="536.580078"/>
      <use xlink:href="#DejaVuSans-20" x="591.560547"/>
      <use xlink:href="#DejaVuSans-54" x="623.347656"/>
      <use xlink:href="#DejaVuSans-72" x="669.681641"/>
      <use xlink:href="#DejaVuSans-65" x="708.544922"/>
      <use xlink:href="#DejaVuSans-6e" x="770.068359"/>
      <use xlink:href="#DejaVuSans-64" x="833.447266"/>
      <use xlink:href="#DejaVuSans-6c" x="896.923828"/>
      <use xlink:href="#DejaVuSans-69" x="924.707031"/>
      <use xlink:href="#DejaVuSans-6e" x="952.490234"/>
      <use xlink:href="#DejaVuSans-65" x="1015.869141"/>
     </g>
    </g>
   </g>
  </g>
 </g>
 <defs>
  <clipPath id="p890194067c">
   <rect x="44.960938" y="-0" width="357.12" height="266.112"/>
  </clipPath>
 </defs>
</svg>
