<?xml version="1.0" encoding="utf-8" standalone="no"?>
<!DOCTYPE svg PUBLIC "-//W3C//DTD SVG 1.1//EN"
  "http://www.w3.org/Graphics/SVG/1.1/DTD/svg11.dtd">
<svg xmlns:xlink="http://www.w3.org/1999/xlink" width="408.443438pt" height="296.46825pt" viewBox="0 0 408.443438 296.46825" xmlns="http://www.w3.org/2000/svg" version="1.1">
 <metadata>
  <rdf:RDF xmlns:dc="http://purl.org/dc/elements/1.1/" xmlns:cc="http://creativecommons.org/ns#" xmlns:rdf="http://www.w3.org/1999/02/22-rdf-syntax-ns#">
   <cc:Work>
    <dc:type rdf:resource="http://purl.org/dc/dcmitype/StillImage"/>
    <dc:date>2023-06-13T22:21:59.858012</dc:date>
    <dc:format>image/svg+xml</dc:format>
    <dc:creator>
     <cc:Agent>
      <dc:title>Matplotlib v3.5.2, https://matplotlib.org/</dc:title>
     </cc:Agent>
    </dc:creator>
   </cc:Work>
  </rdf:RDF>
 </metadata>
 <defs>
  <style type="text/css">*{stroke-linejoin: round; stroke-linecap: butt}</style>
 </defs>
 <g id="figure_1">
  <g id="patch_1">
   <path d="M 0 296.46825 
L 408.443438 296.46825 
L 408.443438 0 
L 0 0 
z
" style="fill: #ffffff"/>
  </g>
  <g id="axes_1">
   <g id="patch_2">
    <path d="M 51.323438 266.112 
L 408.443438 266.112 
L 408.443438 -0 
L 51.323438 -0 
z
" style="fill: #ffffff"/>
   </g>
   <g id="PathCollection_1">
    <path d="M 67.556165 251.016 
L 64.556165 257.016 
L 70.556165 257.016 
z
" clip-path="url(#p5601ed31e8)" style="fill: #440154; stroke: #440154"/>
    <path d="M 79.67014 229.499003 
L 76.67014 235.499003 
L 82.67014 235.499003 
z
" clip-path="url(#p5601ed31e8)" style="fill: #472c7a; stroke: #472c7a"/>
    <path d="M 82.092935 224.080183 
L 79.092935 230.080183 
L 85.092935 230.080183 
z
" clip-path="url(#p5601ed31e8)" style="fill: #463480; stroke: #463480"/>
    <path d="M 82.092935 206.746971 
L 79.092935 212.746971 
L 85.092935 212.746971 
z
" clip-path="url(#p5601ed31e8)" style="fill: #3b518b; stroke: #3b518b"/>
    <path d="M 84.515731 196.798762 
L 81.515731 202.798762 
L 87.515731 202.798762 
z
" clip-path="url(#p5601ed31e8)" style="fill: #34618d; stroke: #34618d"/>
    <path d="M 84.515731 195.381878 
L 81.515731 201.381878 
L 87.515731 201.381878 
z
" clip-path="url(#p5601ed31e8)" style="fill: #33638d; stroke: #33638d"/>
    <path d="M 86.938526 194.215591 
L 83.938526 200.215591 
L 89.938526 200.215591 
z
" clip-path="url(#p5601ed31e8)" style="fill: #32658e; stroke: #32658e"/>
    <path d="M 89.361321 192.241503 
L 86.361321 198.241503 
L 92.361321 198.241503 
z
" clip-path="url(#p5601ed31e8)" style="fill: #31678e; stroke: #31678e"/>
    <path d="M 99.052501 192.209022 
L 96.052501 198.209022 
L 102.052501 198.209022 
z
" clip-path="url(#p5601ed31e8)" style="fill: #31678e; stroke: #31678e"/>
    <path d="M 101.475296 191.185245 
L 98.475296 197.185245 
L 104.475296 197.185245 
z
" clip-path="url(#p5601ed31e8)" style="fill: #30698e; stroke: #30698e"/>
    <path d="M 101.475296 190.790714 
L 98.475296 196.790714 
L 104.475296 196.790714 
z
" clip-path="url(#p5601ed31e8)" style="fill: #30698e; stroke: #30698e"/>
    <path d="M 101.475296 190.410347 
L 98.475296 196.410347 
L 104.475296 196.410347 
z
" clip-path="url(#p5601ed31e8)" style="fill: #306a8e; stroke: #306a8e"/>
    <path d="M 101.475296 189.67697 
L 98.475296 195.67697 
L 104.475296 195.67697 
z
" clip-path="url(#p5601ed31e8)" style="fill: #2f6b8e; stroke: #2f6b8e"/>
    <path d="M 103.898092 187.860568 
L 100.898092 193.860568 
L 106.898092 193.860568 
z
" clip-path="url(#p5601ed31e8)" style="fill: #2e6e8e; stroke: #2e6e8e"/>
    <path d="M 103.898092 184.544415 
L 100.898092 190.544415 
L 106.898092 190.544415 
z
" clip-path="url(#p5601ed31e8)" style="fill: #2c728e; stroke: #2c728e"/>
    <path d="M 108.743682 181.364237 
L 105.743682 187.364237 
L 111.743682 187.364237 
z
" clip-path="url(#p5601ed31e8)" style="fill: #2a768e; stroke: #2a768e"/>
    <path d="M 113.589272 180.775134 
L 110.589272 186.775134 
L 116.589272 186.775134 
z
" clip-path="url(#p5601ed31e8)" style="fill: #2a778e; stroke: #2a778e"/>
    <path d="M 113.589272 180.20829 
L 110.589272 186.20829 
L 116.589272 186.20829 
z
" clip-path="url(#p5601ed31e8)" style="fill: #2a788e; stroke: #2a788e"/>
    <path d="M 116.012067 179.266115 
L 113.012067 185.266115 
L 119.012067 185.266115 
z
" clip-path="url(#p5601ed31e8)" style="fill: #29798e; stroke: #29798e"/>
    <path d="M 116.012067 178.767298 
L 113.012067 184.767298 
L 119.012067 184.767298 
z
" clip-path="url(#p5601ed31e8)" style="fill: #297a8e; stroke: #297a8e"/>
    <path d="M 116.012067 178.140468 
L 113.012067 184.140468 
L 119.012067 184.140468 
z
" clip-path="url(#p5601ed31e8)" style="fill: #297b8e; stroke: #297b8e"/>
    <path d="M 118.434862 177.808922 
L 115.434862 183.808922 
L 121.434862 183.808922 
z
" clip-path="url(#p5601ed31e8)" style="fill: #297b8e; stroke: #297b8e"/>
    <path d="M 120.857657 177.361737 
L 117.857657 183.361737 
L 123.857657 183.361737 
z
" clip-path="url(#p5601ed31e8)" style="fill: #287c8e; stroke: #287c8e"/>
    <path d="M 120.857657 173.279129 
L 117.857657 179.279129 
L 123.857657 179.279129 
z
" clip-path="url(#p5601ed31e8)" style="fill: #26828e; stroke: #26828e"/>
    <path d="M 123.280452 167.255609 
L 120.280452 173.255609 
L 126.280452 173.255609 
z
" clip-path="url(#p5601ed31e8)" style="fill: #23898e; stroke: #23898e"/>
    <path d="M 130.548838 165.537527 
L 127.548838 171.537527 
L 133.548838 171.537527 
z
" clip-path="url(#p5601ed31e8)" style="fill: #228c8d; stroke: #228c8d"/>
    <path d="M 130.548838 164.441726 
L 127.548838 170.441726 
L 133.548838 170.441726 
z
" clip-path="url(#p5601ed31e8)" style="fill: #218e8d; stroke: #218e8d"/>
    <path d="M 132.971633 163.923081 
L 129.971633 169.923081 
L 135.971633 169.923081 
z
" clip-path="url(#p5601ed31e8)" style="fill: #218e8d; stroke: #218e8d"/>
    <path d="M 149.931199 159.588111 
L 146.931199 165.588111 
L 152.931199 165.588111 
z
" clip-path="url(#p5601ed31e8)" style="fill: #1f948c; stroke: #1f948c"/>
    <path d="M 149.931199 149.529565 
L 146.931199 155.529565 
L 152.931199 155.529565 
z
" clip-path="url(#p5601ed31e8)" style="fill: #1fa187; stroke: #1fa187"/>
    <path d="M 149.931199 145.857389 
L 146.931199 151.857389 
L 152.931199 151.857389 
z
" clip-path="url(#p5601ed31e8)" style="fill: #21a685; stroke: #21a685"/>
    <path d="M 159.622379 143.6986 
L 156.622379 149.6986 
L 162.622379 149.6986 
z
" clip-path="url(#p5601ed31e8)" style="fill: #24aa83; stroke: #24aa83"/>
    <path d="M 159.622379 142.834238 
L 156.622379 148.834238 
L 162.622379 148.834238 
z
" clip-path="url(#p5601ed31e8)" style="fill: #25ab82; stroke: #25ab82"/>
    <path d="M 162.045174 142.825794 
L 159.045174 148.825794 
L 165.045174 148.825794 
z
" clip-path="url(#p5601ed31e8)" style="fill: #25ab82; stroke: #25ab82"/>
    <path d="M 164.467969 139.570831 
L 161.467969 145.570831 
L 167.467969 145.570831 
z
" clip-path="url(#p5601ed31e8)" style="fill: #28ae80; stroke: #28ae80"/>
    <path d="M 166.890765 137.424584 
L 163.890765 143.424584 
L 169.890765 143.424584 
z
" clip-path="url(#p5601ed31e8)" style="fill: #2db27d; stroke: #2db27d"/>
    <path d="M 169.31356 128.564197 
L 166.31356 134.564197 
L 172.31356 134.564197 
z
" clip-path="url(#p5601ed31e8)" style="fill: #3fbc73; stroke: #3fbc73"/>
    <path d="M 169.31356 126.066765 
L 166.31356 132.066765 
L 172.31356 132.066765 
z
" clip-path="url(#p5601ed31e8)" style="fill: #46c06f; stroke: #46c06f"/>
    <path d="M 181.427535 123.483667 
L 178.427535 129.483667 
L 184.427535 129.483667 
z
" clip-path="url(#p5601ed31e8)" style="fill: #4ec36b; stroke: #4ec36b"/>
    <path d="M 188.695921 123.158156 
L 185.695921 129.158156 
L 191.695921 129.158156 
z
" clip-path="url(#p5601ed31e8)" style="fill: #4ec36b; stroke: #4ec36b"/>
    <path d="M 198.387101 120.907024 
L 195.387101 126.907024 
L 201.387101 126.907024 
z
" clip-path="url(#p5601ed31e8)" style="fill: #54c568; stroke: #54c568"/>
    <path d="M 198.387101 118.363339 
L 195.387101 124.363339 
L 201.387101 124.363339 
z
" clip-path="url(#p5601ed31e8)" style="fill: #5cc863; stroke: #5cc863"/>
    <path d="M 212.923872 115.979646 
L 209.923872 121.979646 
L 215.923872 121.979646 
z
" clip-path="url(#p5601ed31e8)" style="fill: #65cb5e; stroke: #65cb5e"/>
    <path d="M 212.923872 111.850204 
L 209.923872 117.850204 
L 215.923872 117.850204 
z
" clip-path="url(#p5601ed31e8)" style="fill: #73d056; stroke: #73d056"/>
    <path d="M 212.923872 111.445257 
L 209.923872 117.445257 
L 215.923872 117.445257 
z
" clip-path="url(#p5601ed31e8)" style="fill: #73d056; stroke: #73d056"/>
    <path d="M 215.346667 102.142279 
L 212.346667 108.142279 
L 218.346667 108.142279 
z
" clip-path="url(#p5601ed31e8)" style="fill: #95d840; stroke: #95d840"/>
    <path d="M 217.769462 100.809412 
L 214.769462 106.809412 
L 220.769462 106.809412 
z
" clip-path="url(#p5601ed31e8)" style="fill: #98d83e; stroke: #98d83e"/>
    <path d="M 217.769462 98.61685 
L 214.769462 104.61685 
L 220.769462 104.61685 
z
" clip-path="url(#p5601ed31e8)" style="fill: #a2da37; stroke: #a2da37"/>
    <path d="M 217.769462 95.331971 
L 214.769462 101.331971 
L 220.769462 101.331971 
z
" clip-path="url(#p5601ed31e8)" style="fill: #addc30; stroke: #addc30"/>
    <path d="M 239.574618 88.885459 
L 236.574618 94.885459 
L 242.574618 94.885459 
z
" clip-path="url(#p5601ed31e8)" style="fill: #c8e020; stroke: #c8e020"/>
    <path d="M 266.225364 87.925397 
L 263.225364 93.925397 
L 269.225364 93.925397 
z
" clip-path="url(#p5601ed31e8)" style="fill: #cae11f; stroke: #cae11f"/>
    <path d="M 285.607725 78.673441 
L 282.607725 84.673441 
L 288.607725 84.673441 
z
" clip-path="url(#p5601ed31e8)" style="fill: #ece51b; stroke: #ece51b"/>
    <path d="M 307.412881 74.110255 
L 304.412881 80.110255 
L 310.412881 80.110255 
z
" clip-path="url(#p5601ed31e8)" style="fill: #fde725; stroke: #fde725"/>
    <path d="M 392.21071 73.798761 
L 389.21071 79.798761 
L 395.21071 79.798761 
z
" clip-path="url(#p5601ed31e8)" style="fill: #fde725; stroke: #fde725"/>
   </g>
   <g id="matplotlib.axis_1">
    <g id="xtick_1">
     <g id="line2d_1">
      <defs>
       <path id="mb6b10f47ca" d="M 0 0 
L 0 3.5 
" style="stroke: #000000; stroke-width: 0.8"/>
      </defs>
      <g>
       <use xlink:href="#mb6b10f47ca" x="85.021043" y="266.112" style="stroke: #000000; stroke-width: 0.8"/>
      </g>
     </g>
     <g id="text_1">
      <!-- 2.5 -->
      <g transform="translate(77.069481 280.710437)scale(0.1 -0.1)">
       <defs>
        <path id="DejaVuSans-32" d="M 1228 531 
L 3431 531 
L 3431 0 
L 469 0 
L 469 531 
Q 828 903 1448 1529 
Q 2069 2156 2228 2338 
Q 2531 2678 2651 2914 
Q 2772 3150 2772 3378 
Q 2772 3750 2511 3984 
Q 2250 4219 1831 4219 
Q 1534 4219 1204 4116 
Q 875 4013 500 3803 
L 500 4441 
Q 881 4594 1212 4672 
Q 1544 4750 1819 4750 
Q 2544 4750 2975 4387 
Q 3406 4025 3406 3419 
Q 3406 3131 3298 2873 
Q 3191 2616 2906 2266 
Q 2828 2175 2409 1742 
Q 1991 1309 1228 531 
z
" transform="scale(0.015625)"/>
        <path id="DejaVuSans-2e" d="M 684 794 
L 1344 794 
L 1344 0 
L 684 0 
L 684 794 
z
" transform="scale(0.015625)"/>
        <path id="DejaVuSans-35" d="M 691 4666 
L 3169 4666 
L 3169 4134 
L 1269 4134 
L 1269 2991 
Q 1406 3038 1543 3061 
Q 1681 3084 1819 3084 
Q 2600 3084 3056 2656 
Q 3513 2228 3513 1497 
Q 3513 744 3044 326 
Q 2575 -91 1722 -91 
Q 1428 -91 1123 -41 
Q 819 9 494 109 
L 494 744 
Q 775 591 1075 516 
Q 1375 441 1709 441 
Q 2250 441 2565 725 
Q 2881 1009 2881 1497 
Q 2881 1984 2565 2268 
Q 2250 2553 1709 2553 
Q 1456 2553 1204 2497 
Q 953 2441 691 2322 
L 691 4666 
z
" transform="scale(0.015625)"/>
       </defs>
       <use xlink:href="#DejaVuSans-32"/>
       <use xlink:href="#DejaVuSans-2e" x="63.623047"/>
       <use xlink:href="#DejaVuSans-35" x="95.410156"/>
      </g>
     </g>
    </g>
    <g id="xtick_2">
     <g id="line2d_2">
      <g>
       <use xlink:href="#mb6b10f47ca" x="133.982258" y="266.112" style="stroke: #000000; stroke-width: 0.8"/>
      </g>
     </g>
     <g id="text_2">
      <!-- 5.0 -->
      <g transform="translate(126.030696 280.710437)scale(0.1 -0.1)">
       <defs>
        <path id="DejaVuSans-30" d="M 2034 4250 
Q 1547 4250 1301 3770 
Q 1056 3291 1056 2328 
Q 1056 1369 1301 889 
Q 1547 409 2034 409 
Q 2525 409 2770 889 
Q 3016 1369 3016 2328 
Q 3016 3291 2770 3770 
Q 2525 4250 2034 4250 
z
M 2034 4750 
Q 2819 4750 3233 4129 
Q 3647 3509 3647 2328 
Q 3647 1150 3233 529 
Q 2819 -91 2034 -91 
Q 1250 -91 836 529 
Q 422 1150 422 2328 
Q 422 3509 836 4129 
Q 1250 4750 2034 4750 
z
" transform="scale(0.015625)"/>
       </defs>
       <use xlink:href="#DejaVuSans-35"/>
       <use xlink:href="#DejaVuSans-2e" x="63.623047"/>
       <use xlink:href="#DejaVuSans-30" x="95.410156"/>
      </g>
     </g>
    </g>
    <g id="xtick_3">
     <g id="line2d_3">
      <g>
       <use xlink:href="#mb6b10f47ca" x="182.943473" y="266.112" style="stroke: #000000; stroke-width: 0.8"/>
      </g>
     </g>
     <g id="text_3">
      <!-- 7.5 -->
      <g transform="translate(174.991911 280.710437)scale(0.1 -0.1)">
       <defs>
        <path id="DejaVuSans-37" d="M 525 4666 
L 3525 4666 
L 3525 4397 
L 1831 0 
L 1172 0 
L 2766 4134 
L 525 4134 
L 525 4666 
z
" transform="scale(0.015625)"/>
       </defs>
       <use xlink:href="#DejaVuSans-37"/>
       <use xlink:href="#DejaVuSans-2e" x="63.623047"/>
       <use xlink:href="#DejaVuSans-35" x="95.410156"/>
      </g>
     </g>
    </g>
    <g id="xtick_4">
     <g id="line2d_4">
      <g>
       <use xlink:href="#mb6b10f47ca" x="231.904688" y="266.112" style="stroke: #000000; stroke-width: 0.8"/>
      </g>
     </g>
     <g id="text_4">
      <!-- 10.0 -->
      <g transform="translate(220.771876 280.710437)scale(0.1 -0.1)">
       <defs>
        <path id="DejaVuSans-31" d="M 794 531 
L 1825 531 
L 1825 4091 
L 703 3866 
L 703 4441 
L 1819 4666 
L 2450 4666 
L 2450 531 
L 3481 531 
L 3481 0 
L 794 0 
L 794 531 
z
" transform="scale(0.015625)"/>
       </defs>
       <use xlink:href="#DejaVuSans-31"/>
       <use xlink:href="#DejaVuSans-30" x="63.623047"/>
       <use xlink:href="#DejaVuSans-2e" x="127.246094"/>
       <use xlink:href="#DejaVuSans-30" x="159.033203"/>
      </g>
     </g>
    </g>
    <g id="xtick_5">
     <g id="line2d_5">
      <g>
       <use xlink:href="#mb6b10f47ca" x="280.865903" y="266.112" style="stroke: #000000; stroke-width: 0.8"/>
      </g>
     </g>
     <g id="text_5">
      <!-- 12.5 -->
      <g transform="translate(269.733091 280.710437)scale(0.1 -0.1)">
       <use xlink:href="#DejaVuSans-31"/>
       <use xlink:href="#DejaVuSans-32" x="63.623047"/>
       <use xlink:href="#DejaVuSans-2e" x="127.246094"/>
       <use xlink:href="#DejaVuSans-35" x="159.033203"/>
      </g>
     </g>
    </g>
    <g id="xtick_6">
     <g id="line2d_6">
      <g>
       <use xlink:href="#mb6b10f47ca" x="329.827118" y="266.112" style="stroke: #000000; stroke-width: 0.8"/>
      </g>
     </g>
     <g id="text_6">
      <!-- 15.0 -->
      <g transform="translate(318.694305 280.710437)scale(0.1 -0.1)">
       <use xlink:href="#DejaVuSans-31"/>
       <use xlink:href="#DejaVuSans-35" x="63.623047"/>
       <use xlink:href="#DejaVuSans-2e" x="127.246094"/>
       <use xlink:href="#DejaVuSans-30" x="159.033203"/>
      </g>
     </g>
    </g>
    <g id="xtick_7">
     <g id="line2d_7">
      <g>
       <use xlink:href="#mb6b10f47ca" x="378.788333" y="266.112" style="stroke: #000000; stroke-width: 0.8"/>
      </g>
     </g>
     <g id="text_7">
      <!-- 17.5 -->
      <g transform="translate(367.65552 280.710437)scale(0.1 -0.1)">
       <use xlink:href="#DejaVuSans-31"/>
       <use xlink:href="#DejaVuSans-37" x="63.623047"/>
       <use xlink:href="#DejaVuSans-2e" x="127.246094"/>
       <use xlink:href="#DejaVuSans-35" x="159.033203"/>
      </g>
     </g>
    </g>
    <g id="text_8">
     <!-- Eddy Area [10^3 * km^2] -->
     <g transform="translate(164.284219 294.388562)scale(0.1 -0.1)">
      <defs>
       <path id="DejaVuSans-45" d="M 628 4666 
L 3578 4666 
L 3578 4134 
L 1259 4134 
L 1259 2753 
L 3481 2753 
L 3481 2222 
L 1259 2222 
L 1259 531 
L 3634 531 
L 3634 0 
L 628 0 
L 628 4666 
z
" transform="scale(0.015625)"/>
       <path id="DejaVuSans-64" d="M 2906 2969 
L 2906 4863 
L 3481 4863 
L 3481 0 
L 2906 0 
L 2906 525 
Q 2725 213 2448 61 
Q 2172 -91 1784 -91 
Q 1150 -91 751 415 
Q 353 922 353 1747 
Q 353 2572 751 3078 
Q 1150 3584 1784 3584 
Q 2172 3584 2448 3432 
Q 2725 3281 2906 2969 
z
M 947 1747 
Q 947 1113 1208 752 
Q 1469 391 1925 391 
Q 2381 391 2643 752 
Q 2906 1113 2906 1747 
Q 2906 2381 2643 2742 
Q 2381 3103 1925 3103 
Q 1469 3103 1208 2742 
Q 947 2381 947 1747 
z
" transform="scale(0.015625)"/>
       <path id="DejaVuSans-79" d="M 2059 -325 
Q 1816 -950 1584 -1140 
Q 1353 -1331 966 -1331 
L 506 -1331 
L 506 -850 
L 844 -850 
Q 1081 -850 1212 -737 
Q 1344 -625 1503 -206 
L 1606 56 
L 191 3500 
L 800 3500 
L 1894 763 
L 2988 3500 
L 3597 3500 
L 2059 -325 
z
" transform="scale(0.015625)"/>
       <path id="DejaVuSans-20" transform="scale(0.015625)"/>
       <path id="DejaVuSans-41" d="M 2188 4044 
L 1331 1722 
L 3047 1722 
L 2188 4044 
z
M 1831 4666 
L 2547 4666 
L 4325 0 
L 3669 0 
L 3244 1197 
L 1141 1197 
L 716 0 
L 50 0 
L 1831 4666 
z
" transform="scale(0.015625)"/>
       <path id="DejaVuSans-72" d="M 2631 2963 
Q 2534 3019 2420 3045 
Q 2306 3072 2169 3072 
Q 1681 3072 1420 2755 
Q 1159 2438 1159 1844 
L 1159 0 
L 581 0 
L 581 3500 
L 1159 3500 
L 1159 2956 
Q 1341 3275 1631 3429 
Q 1922 3584 2338 3584 
Q 2397 3584 2469 3576 
Q 2541 3569 2628 3553 
L 2631 2963 
z
" transform="scale(0.015625)"/>
       <path id="DejaVuSans-65" d="M 3597 1894 
L 3597 1613 
L 953 1613 
Q 991 1019 1311 708 
Q 1631 397 2203 397 
Q 2534 397 2845 478 
Q 3156 559 3463 722 
L 3463 178 
Q 3153 47 2828 -22 
Q 2503 -91 2169 -91 
Q 1331 -91 842 396 
Q 353 884 353 1716 
Q 353 2575 817 3079 
Q 1281 3584 2069 3584 
Q 2775 3584 3186 3129 
Q 3597 2675 3597 1894 
z
M 3022 2063 
Q 3016 2534 2758 2815 
Q 2500 3097 2075 3097 
Q 1594 3097 1305 2825 
Q 1016 2553 972 2059 
L 3022 2063 
z
" transform="scale(0.015625)"/>
       <path id="DejaVuSans-61" d="M 2194 1759 
Q 1497 1759 1228 1600 
Q 959 1441 959 1056 
Q 959 750 1161 570 
Q 1363 391 1709 391 
Q 2188 391 2477 730 
Q 2766 1069 2766 1631 
L 2766 1759 
L 2194 1759 
z
M 3341 1997 
L 3341 0 
L 2766 0 
L 2766 531 
Q 2569 213 2275 61 
Q 1981 -91 1556 -91 
Q 1019 -91 701 211 
Q 384 513 384 1019 
Q 384 1609 779 1909 
Q 1175 2209 1959 2209 
L 2766 2209 
L 2766 2266 
Q 2766 2663 2505 2880 
Q 2244 3097 1772 3097 
Q 1472 3097 1187 3025 
Q 903 2953 641 2809 
L 641 3341 
Q 956 3463 1253 3523 
Q 1550 3584 1831 3584 
Q 2591 3584 2966 3190 
Q 3341 2797 3341 1997 
z
" transform="scale(0.015625)"/>
       <path id="DejaVuSans-5b" d="M 550 4863 
L 1875 4863 
L 1875 4416 
L 1125 4416 
L 1125 -397 
L 1875 -397 
L 1875 -844 
L 550 -844 
L 550 4863 
z
" transform="scale(0.015625)"/>
       <path id="DejaVuSans-5e" d="M 2988 4666 
L 4684 2925 
L 4056 2925 
L 2681 4159 
L 1306 2925 
L 678 2925 
L 2375 4666 
L 2988 4666 
z
" transform="scale(0.015625)"/>
       <path id="DejaVuSans-33" d="M 2597 2516 
Q 3050 2419 3304 2112 
Q 3559 1806 3559 1356 
Q 3559 666 3084 287 
Q 2609 -91 1734 -91 
Q 1441 -91 1130 -33 
Q 819 25 488 141 
L 488 750 
Q 750 597 1062 519 
Q 1375 441 1716 441 
Q 2309 441 2620 675 
Q 2931 909 2931 1356 
Q 2931 1769 2642 2001 
Q 2353 2234 1838 2234 
L 1294 2234 
L 1294 2753 
L 1863 2753 
Q 2328 2753 2575 2939 
Q 2822 3125 2822 3475 
Q 2822 3834 2567 4026 
Q 2313 4219 1838 4219 
Q 1578 4219 1281 4162 
Q 984 4106 628 3988 
L 628 4550 
Q 988 4650 1302 4700 
Q 1616 4750 1894 4750 
Q 2613 4750 3031 4423 
Q 3450 4097 3450 3541 
Q 3450 3153 3228 2886 
Q 3006 2619 2597 2516 
z
" transform="scale(0.015625)"/>
       <path id="DejaVuSans-2a" d="M 3009 3897 
L 1888 3291 
L 3009 2681 
L 2828 2375 
L 1778 3009 
L 1778 1831 
L 1422 1831 
L 1422 3009 
L 372 2375 
L 191 2681 
L 1313 3291 
L 191 3897 
L 372 4206 
L 1422 3572 
L 1422 4750 
L 1778 4750 
L 1778 3572 
L 2828 4206 
L 3009 3897 
z
" transform="scale(0.015625)"/>
       <path id="DejaVuSans-6b" d="M 581 4863 
L 1159 4863 
L 1159 1991 
L 2875 3500 
L 3609 3500 
L 1753 1863 
L 3688 0 
L 2938 0 
L 1159 1709 
L 1159 0 
L 581 0 
L 581 4863 
z
" transform="scale(0.015625)"/>
       <path id="DejaVuSans-6d" d="M 3328 2828 
Q 3544 3216 3844 3400 
Q 4144 3584 4550 3584 
Q 5097 3584 5394 3201 
Q 5691 2819 5691 2113 
L 5691 0 
L 5113 0 
L 5113 2094 
Q 5113 2597 4934 2840 
Q 4756 3084 4391 3084 
Q 3944 3084 3684 2787 
Q 3425 2491 3425 1978 
L 3425 0 
L 2847 0 
L 2847 2094 
Q 2847 2600 2669 2842 
Q 2491 3084 2119 3084 
Q 1678 3084 1418 2786 
Q 1159 2488 1159 1978 
L 1159 0 
L 581 0 
L 581 3500 
L 1159 3500 
L 1159 2956 
Q 1356 3278 1631 3431 
Q 1906 3584 2284 3584 
Q 2666 3584 2933 3390 
Q 3200 3197 3328 2828 
z
" transform="scale(0.015625)"/>
       <path id="DejaVuSans-5d" d="M 1947 4863 
L 1947 -844 
L 622 -844 
L 622 -397 
L 1369 -397 
L 1369 4416 
L 622 4416 
L 622 4863 
L 1947 4863 
z
" transform="scale(0.015625)"/>
      </defs>
      <use xlink:href="#DejaVuSans-45"/>
      <use xlink:href="#DejaVuSans-64" x="63.183594"/>
      <use xlink:href="#DejaVuSans-64" x="126.660156"/>
      <use xlink:href="#DejaVuSans-79" x="190.136719"/>
      <use xlink:href="#DejaVuSans-20" x="249.316406"/>
      <use xlink:href="#DejaVuSans-41" x="281.103516"/>
      <use xlink:href="#DejaVuSans-72" x="349.511719"/>
      <use xlink:href="#DejaVuSans-65" x="388.375"/>
      <use xlink:href="#DejaVuSans-61" x="449.898438"/>
      <use xlink:href="#DejaVuSans-20" x="511.177734"/>
      <use xlink:href="#DejaVuSans-5b" x="542.964844"/>
      <use xlink:href="#DejaVuSans-31" x="581.978516"/>
      <use xlink:href="#DejaVuSans-30" x="645.601562"/>
      <use xlink:href="#DejaVuSans-5e" x="709.224609"/>
      <use xlink:href="#DejaVuSans-33" x="793.013672"/>
      <use xlink:href="#DejaVuSans-20" x="856.636719"/>
      <use xlink:href="#DejaVuSans-2a" x="888.423828"/>
      <use xlink:href="#DejaVuSans-20" x="938.423828"/>
      <use xlink:href="#DejaVuSans-6b" x="970.210938"/>
      <use xlink:href="#DejaVuSans-6d" x="1028.121094"/>
      <use xlink:href="#DejaVuSans-5e" x="1125.533203"/>
      <use xlink:href="#DejaVuSans-32" x="1209.322266"/>
      <use xlink:href="#DejaVuSans-5d" x="1272.945312"/>
     </g>
    </g>
   </g>
   <g id="matplotlib.axis_2">
    <g id="ytick_1">
     <g id="line2d_8">
      <defs>
       <path id="mf5288bfc34" d="M 0 0 
L -3.5 0 
" style="stroke: #000000; stroke-width: 0.8"/>
      </defs>
      <g>
       <use xlink:href="#mf5288bfc34" x="51.323438" y="250.777954" style="stroke: #000000; stroke-width: 0.8"/>
      </g>
     </g>
     <g id="text_9">
      <!-- −0.75 -->
      <g transform="translate(13.678125 254.577173)scale(0.1 -0.1)">
       <defs>
        <path id="DejaVuSans-2212" d="M 678 2272 
L 4684 2272 
L 4684 1741 
L 678 1741 
L 678 2272 
z
" transform="scale(0.015625)"/>
       </defs>
       <use xlink:href="#DejaVuSans-2212"/>
       <use xlink:href="#DejaVuSans-30" x="83.789062"/>
       <use xlink:href="#DejaVuSans-2e" x="147.412109"/>
       <use xlink:href="#DejaVuSans-37" x="179.199219"/>
       <use xlink:href="#DejaVuSans-35" x="242.822266"/>
      </g>
     </g>
    </g>
    <g id="ytick_2">
     <g id="line2d_9">
      <g>
       <use xlink:href="#mf5288bfc34" x="51.323438" y="220.084972" style="stroke: #000000; stroke-width: 0.8"/>
      </g>
     </g>
     <g id="text_10">
      <!-- −0.50 -->
      <g transform="translate(13.678125 223.884191)scale(0.1 -0.1)">
       <use xlink:href="#DejaVuSans-2212"/>
       <use xlink:href="#DejaVuSans-30" x="83.789062"/>
       <use xlink:href="#DejaVuSans-2e" x="147.412109"/>
       <use xlink:href="#DejaVuSans-35" x="179.199219"/>
       <use xlink:href="#DejaVuSans-30" x="242.822266"/>
      </g>
     </g>
    </g>
    <g id="ytick_3">
     <g id="line2d_10">
      <g>
       <use xlink:href="#mf5288bfc34" x="51.323438" y="189.39199" style="stroke: #000000; stroke-width: 0.8"/>
      </g>
     </g>
     <g id="text_11">
      <!-- −0.25 -->
      <g transform="translate(13.678125 193.191208)scale(0.1 -0.1)">
       <use xlink:href="#DejaVuSans-2212"/>
       <use xlink:href="#DejaVuSans-30" x="83.789062"/>
       <use xlink:href="#DejaVuSans-2e" x="147.412109"/>
       <use xlink:href="#DejaVuSans-32" x="179.199219"/>
       <use xlink:href="#DejaVuSans-35" x="242.822266"/>
      </g>
     </g>
    </g>
    <g id="ytick_4">
     <g id="line2d_11">
      <g>
       <use xlink:href="#mf5288bfc34" x="51.323438" y="158.699008" style="stroke: #000000; stroke-width: 0.8"/>
      </g>
     </g>
     <g id="text_12">
      <!-- 0.00 -->
      <g transform="translate(22.057813 162.498226)scale(0.1 -0.1)">
       <use xlink:href="#DejaVuSans-30"/>
       <use xlink:href="#DejaVuSans-2e" x="63.623047"/>
       <use xlink:href="#DejaVuSans-30" x="95.410156"/>
       <use xlink:href="#DejaVuSans-30" x="159.033203"/>
      </g>
     </g>
    </g>
    <g id="ytick_5">
     <g id="line2d_12">
      <g>
       <use xlink:href="#mf5288bfc34" x="51.323438" y="128.006025" style="stroke: #000000; stroke-width: 0.8"/>
      </g>
     </g>
     <g id="text_13">
      <!-- 0.25 -->
      <g transform="translate(22.057813 131.805244)scale(0.1 -0.1)">
       <use xlink:href="#DejaVuSans-30"/>
       <use xlink:href="#DejaVuSans-2e" x="63.623047"/>
       <use xlink:href="#DejaVuSans-32" x="95.410156"/>
       <use xlink:href="#DejaVuSans-35" x="159.033203"/>
      </g>
     </g>
    </g>
    <g id="ytick_6">
     <g id="line2d_13">
      <g>
       <use xlink:href="#mf5288bfc34" x="51.323438" y="97.313043" style="stroke: #000000; stroke-width: 0.8"/>
      </g>
     </g>
     <g id="text_14">
      <!-- 0.50 -->
      <g transform="translate(22.057813 101.112262)scale(0.1 -0.1)">
       <use xlink:href="#DejaVuSans-30"/>
       <use xlink:href="#DejaVuSans-2e" x="63.623047"/>
       <use xlink:href="#DejaVuSans-35" x="95.410156"/>
       <use xlink:href="#DejaVuSans-30" x="159.033203"/>
      </g>
     </g>
    </g>
    <g id="ytick_7">
     <g id="line2d_14">
      <g>
       <use xlink:href="#mf5288bfc34" x="51.323438" y="66.620061" style="stroke: #000000; stroke-width: 0.8"/>
      </g>
     </g>
     <g id="text_15">
      <!-- 0.75 -->
      <g transform="translate(22.057813 70.41928)scale(0.1 -0.1)">
       <use xlink:href="#DejaVuSans-30"/>
       <use xlink:href="#DejaVuSans-2e" x="63.623047"/>
       <use xlink:href="#DejaVuSans-37" x="95.410156"/>
       <use xlink:href="#DejaVuSans-35" x="159.033203"/>
      </g>
     </g>
    </g>
    <g id="ytick_8">
     <g id="line2d_15">
      <g>
       <use xlink:href="#mf5288bfc34" x="51.323438" y="35.927079" style="stroke: #000000; stroke-width: 0.8"/>
      </g>
     </g>
     <g id="text_16">
      <!-- 1.00 -->
      <g transform="translate(22.057813 39.726298)scale(0.1 -0.1)">
       <use xlink:href="#DejaVuSans-31"/>
       <use xlink:href="#DejaVuSans-2e" x="63.623047"/>
       <use xlink:href="#DejaVuSans-30" x="95.410156"/>
       <use xlink:href="#DejaVuSans-30" x="159.033203"/>
      </g>
     </g>
    </g>
    <g id="ytick_9">
     <g id="line2d_16">
      <g>
       <use xlink:href="#mf5288bfc34" x="51.323438" y="5.234097" style="stroke: #000000; stroke-width: 0.8"/>
      </g>
     </g>
     <g id="text_17">
      <!-- 1.25 -->
      <g transform="translate(22.057813 9.033316)scale(0.1 -0.1)">
       <use xlink:href="#DejaVuSans-31"/>
       <use xlink:href="#DejaVuSans-2e" x="63.623047"/>
       <use xlink:href="#DejaVuSans-32" x="95.410156"/>
       <use xlink:href="#DejaVuSans-35" x="159.033203"/>
      </g>
     </g>
    </g>
    <g id="text_18">
     <!-- Eddy Amplitude [m] -->
     <g transform="translate(7.598438 183.095844)rotate(-90)scale(0.1 -0.1)">
      <defs>
       <path id="DejaVuSans-70" d="M 1159 525 
L 1159 -1331 
L 581 -1331 
L 581 3500 
L 1159 3500 
L 1159 2969 
Q 1341 3281 1617 3432 
Q 1894 3584 2278 3584 
Q 2916 3584 3314 3078 
Q 3713 2572 3713 1747 
Q 3713 922 3314 415 
Q 2916 -91 2278 -91 
Q 1894 -91 1617 61 
Q 1341 213 1159 525 
z
M 3116 1747 
Q 3116 2381 2855 2742 
Q 2594 3103 2138 3103 
Q 1681 3103 1420 2742 
Q 1159 2381 1159 1747 
Q 1159 1113 1420 752 
Q 1681 391 2138 391 
Q 2594 391 2855 752 
Q 3116 1113 3116 1747 
z
" transform="scale(0.015625)"/>
       <path id="DejaVuSans-6c" d="M 603 4863 
L 1178 4863 
L 1178 0 
L 603 0 
L 603 4863 
z
" transform="scale(0.015625)"/>
       <path id="DejaVuSans-69" d="M 603 3500 
L 1178 3500 
L 1178 0 
L 603 0 
L 603 3500 
z
M 603 4863 
L 1178 4863 
L 1178 4134 
L 603 4134 
L 603 4863 
z
" transform="scale(0.015625)"/>
       <path id="DejaVuSans-74" d="M 1172 4494 
L 1172 3500 
L 2356 3500 
L 2356 3053 
L 1172 3053 
L 1172 1153 
Q 1172 725 1289 603 
Q 1406 481 1766 481 
L 2356 481 
L 2356 0 
L 1766 0 
Q 1100 0 847 248 
Q 594 497 594 1153 
L 594 3053 
L 172 3053 
L 172 3500 
L 594 3500 
L 594 4494 
L 1172 4494 
z
" transform="scale(0.015625)"/>
       <path id="DejaVuSans-75" d="M 544 1381 
L 544 3500 
L 1119 3500 
L 1119 1403 
Q 1119 906 1312 657 
Q 1506 409 1894 409 
Q 2359 409 2629 706 
Q 2900 1003 2900 1516 
L 2900 3500 
L 3475 3500 
L 3475 0 
L 2900 0 
L 2900 538 
Q 2691 219 2414 64 
Q 2138 -91 1772 -91 
Q 1169 -91 856 284 
Q 544 659 544 1381 
z
M 1991 3584 
L 1991 3584 
z
" transform="scale(0.015625)"/>
      </defs>
      <use xlink:href="#DejaVuSans-45"/>
      <use xlink:href="#DejaVuSans-64" x="63.183594"/>
      <use xlink:href="#DejaVuSans-64" x="126.660156"/>
      <use xlink:href="#DejaVuSans-79" x="190.136719"/>
      <use xlink:href="#DejaVuSans-20" x="249.316406"/>
      <use xlink:href="#DejaVuSans-41" x="281.103516"/>
      <use xlink:href="#DejaVuSans-6d" x="349.511719"/>
      <use xlink:href="#DejaVuSans-70" x="446.923828"/>
      <use xlink:href="#DejaVuSans-6c" x="510.400391"/>
      <use xlink:href="#DejaVuSans-69" x="538.183594"/>
      <use xlink:href="#DejaVuSans-74" x="565.966797"/>
      <use xlink:href="#DejaVuSans-75" x="605.175781"/>
      <use xlink:href="#DejaVuSans-64" x="668.554688"/>
      <use xlink:href="#DejaVuSans-65" x="732.03125"/>
      <use xlink:href="#DejaVuSans-20" x="793.554688"/>
      <use xlink:href="#DejaVuSans-5b" x="825.341797"/>
      <use xlink:href="#DejaVuSans-6d" x="864.355469"/>
      <use xlink:href="#DejaVuSans-5d" x="961.767578"/>
     </g>
    </g>
   </g>
   <g id="line2d_17">
    <path d="M 67.556165 209.556193 
L 79.67014 202.188276 
L 82.092935 200.714692 
L 82.092935 200.714692 
L 84.515731 199.241108 
L 84.515731 199.241108 
L 86.938526 197.767525 
L 89.361321 196.293941 
L 99.052501 190.399607 
L 101.475296 188.926024 
L 101.475296 188.926024 
L 101.475296 188.926024 
L 101.475296 188.926024 
L 103.898092 187.45244 
L 103.898092 187.45244 
L 108.743682 184.505273 
L 113.589272 181.558106 
L 113.589272 181.558106 
L 116.012067 180.084523 
L 116.012067 180.084523 
L 116.012067 180.084523 
L 118.434862 178.610939 
L 120.857657 177.137356 
L 120.857657 177.137356 
L 123.280452 175.663772 
L 130.548838 171.243021 
L 130.548838 171.243021 
L 132.971633 169.769438 
L 149.931199 159.454353 
L 149.931199 159.454353 
L 149.931199 159.454353 
L 159.622379 153.560019 
L 159.622379 153.560019 
L 162.045174 152.086435 
L 164.467969 150.612852 
L 166.890765 149.139268 
L 169.31356 147.665685 
L 169.31356 147.665685 
L 181.427535 140.297767 
L 188.695921 135.877017 
L 198.387101 129.982683 
L 198.387101 129.982683 
L 212.923872 121.141181 
L 212.923872 121.141181 
L 212.923872 121.141181 
L 215.346667 119.667598 
L 217.769462 118.194014 
L 217.769462 118.194014 
L 217.769462 118.194014 
L 239.574618 104.931762 
L 266.225364 88.722344 
L 285.607725 76.933675 
L 307.412881 63.671424 
L 392.21071 12.096 
" clip-path="url(#p5601ed31e8)" style="fill: none; stroke: #000080; stroke-width: 1.5; stroke-linecap: square"/>
   </g>
   <g id="line2d_18">
    <path d="M 67.556165 249.034597 
L 79.67014 223.646002 
L 82.092935 219.427821 
L 82.092935 219.427821 
L 84.515731 215.426054 
L 84.515731 215.426054 
L 86.938526 211.619574 
L 89.361321 207.990206 
L 99.052501 194.957089 
L 101.475296 192.012688 
L 101.475296 192.012688 
L 101.475296 192.012688 
L 101.475296 192.012688 
L 103.898092 189.175381 
L 103.898092 189.175381 
L 108.743682 183.79274 
L 113.589272 178.757615 
L 113.589272 178.757615 
L 116.012067 176.356892 
L 116.012067 176.356892 
L 116.012067 176.356892 
L 118.434862 174.027842 
L 120.857657 171.766312 
L 120.857657 171.766312 
L 123.280452 169.568494 
L 130.548838 163.323774 
L 130.548838 163.323774 
L 132.971633 161.348546 
L 149.931199 148.766832 
L 149.931199 148.766832 
L 149.931199 148.766832 
L 159.622379 142.394528 
L 159.622379 142.394528 
L 162.045174 140.879581 
L 164.467969 139.393491 
L 166.890765 137.93518 
L 169.31356 136.503629 
L 169.31356 136.503629 
L 181.427535 129.715232 
L 188.695921 125.908752 
L 198.387101 121.106168 
L 198.387101 121.106168 
L 212.923872 114.414868 
L 212.923872 114.414868 
L 212.923872 114.414868 
L 215.346667 113.353391 
L 217.769462 112.306162 
L 217.769462 112.306162 
L 217.769462 112.306162 
L 239.574618 103.464558 
L 266.225364 93.863736 
L 285.607725 87.555869 
L 307.412881 81.020365 
L 392.21071 59.804816 
" clip-path="url(#p5601ed31e8)" style="fill: none; stroke: #ff0000; stroke-width: 1.5; stroke-linecap: square"/>
   </g>
   <g id="patch_3">
    <path d="M 51.323438 266.112 
L 51.323438 -0 
" style="fill: none; stroke: #000000; stroke-width: 0.8; stroke-linejoin: miter; stroke-linecap: square"/>
   </g>
   <g id="patch_4">
    <path d="M 408.443438 266.112 
L 408.443438 -0 
" style="fill: none; stroke: #000000; stroke-width: 0.8; stroke-linejoin: miter; stroke-linecap: square"/>
   </g>
   <g id="patch_5">
    <path d="M 51.323438 266.112 
L 408.443437 266.112 
" style="fill: none; stroke: #000000; stroke-width: 0.8; stroke-linejoin: miter; stroke-linecap: square"/>
   </g>
   <g id="patch_6">
    <path d="M 51.323438 -0 
L 408.443437 -0 
" style="fill: none; stroke: #000000; stroke-width: 0.8; stroke-linejoin: miter; stroke-linecap: square"/>
   </g>
   <g id="legend_1">
    <g id="patch_7">
     <path d="M 58.323438 37.35625 
L 198.0625 37.35625 
Q 200.0625 37.35625 200.0625 35.35625 
L 200.0625 7 
Q 200.0625 5 198.0625 5 
L 58.323438 5 
Q 56.323438 5 56.323438 7 
L 56.323438 35.35625 
Q 56.323438 37.35625 58.323438 37.35625 
z
" style="fill: #ffffff; opacity: 0.8; stroke: #cccccc; stroke-linejoin: miter"/>
    </g>
    <g id="line2d_19">
     <path d="M 60.323438 13.098437 
L 70.323438 13.098437 
L 80.323438 13.098437 
" style="fill: none; stroke: #000080; stroke-width: 1.5; stroke-linecap: square"/>
    </g>
    <g id="text_19">
     <!-- Linear Trendline -->
     <g transform="translate(88.323438 16.598437)scale(0.1 -0.1)">
      <defs>
       <path id="DejaVuSans-4c" d="M 628 4666 
L 1259 4666 
L 1259 531 
L 3531 531 
L 3531 0 
L 628 0 
L 628 4666 
z
" transform="scale(0.015625)"/>
       <path id="DejaVuSans-6e" d="M 3513 2113 
L 3513 0 
L 2938 0 
L 2938 2094 
Q 2938 2591 2744 2837 
Q 2550 3084 2163 3084 
Q 1697 3084 1428 2787 
Q 1159 2491 1159 1978 
L 1159 0 
L 581 0 
L 581 3500 
L 1159 3500 
L 1159 2956 
Q 1366 3272 1645 3428 
Q 1925 3584 2291 3584 
Q 2894 3584 3203 3211 
Q 3513 2838 3513 2113 
z
" transform="scale(0.015625)"/>
       <path id="DejaVuSans-54" d="M -19 4666 
L 3928 4666 
L 3928 4134 
L 2272 4134 
L 2272 0 
L 1638 0 
L 1638 4134 
L -19 4134 
L -19 4666 
z
" transform="scale(0.015625)"/>
      </defs>
      <use xlink:href="#DejaVuSans-4c"/>
      <use xlink:href="#DejaVuSans-69" x="55.712891"/>
      <use xlink:href="#DejaVuSans-6e" x="83.496094"/>
      <use xlink:href="#DejaVuSans-65" x="146.875"/>
      <use xlink:href="#DejaVuSans-61" x="208.398438"/>
      <use xlink:href="#DejaVuSans-72" x="269.677734"/>
      <use xlink:href="#DejaVuSans-20" x="310.791016"/>
      <use xlink:href="#DejaVuSans-54" x="342.578125"/>
      <use xlink:href="#DejaVuSans-72" x="388.912109"/>
      <use xlink:href="#DejaVuSans-65" x="427.775391"/>
      <use xlink:href="#DejaVuSans-6e" x="489.298828"/>
      <use xlink:href="#DejaVuSans-64" x="552.677734"/>
      <use xlink:href="#DejaVuSans-6c" x="616.154297"/>
      <use xlink:href="#DejaVuSans-69" x="643.9375"/>
      <use xlink:href="#DejaVuSans-6e" x="671.720703"/>
      <use xlink:href="#DejaVuSans-65" x="735.099609"/>
     </g>
    </g>
    <g id="line2d_20">
     <path d="M 60.323438 27.776562 
L 70.323438 27.776562 
L 80.323438 27.776562 
" style="fill: none; stroke: #ff0000; stroke-width: 1.5; stroke-linecap: square"/>
    </g>
    <g id="text_20">
     <!-- Logarithmic Trendline -->
     <g transform="translate(88.323438 31.276562)scale(0.1 -0.1)">
      <defs>
       <path id="DejaVuSans-6f" d="M 1959 3097 
Q 1497 3097 1228 2736 
Q 959 2375 959 1747 
Q 959 1119 1226 758 
Q 1494 397 1959 397 
Q 2419 397 2687 759 
Q 2956 1122 2956 1747 
Q 2956 2369 2687 2733 
Q 2419 3097 1959 3097 
z
M 1959 3584 
Q 2709 3584 3137 3096 
Q 3566 2609 3566 1747 
Q 3566 888 3137 398 
Q 2709 -91 1959 -91 
Q 1206 -91 779 398 
Q 353 888 353 1747 
Q 353 2609 779 3096 
Q 1206 3584 1959 3584 
z
" transform="scale(0.015625)"/>
       <path id="DejaVuSans-67" d="M 2906 1791 
Q 2906 2416 2648 2759 
Q 2391 3103 1925 3103 
Q 1463 3103 1205 2759 
Q 947 2416 947 1791 
Q 947 1169 1205 825 
Q 1463 481 1925 481 
Q 2391 481 2648 825 
Q 2906 1169 2906 1791 
z
M 3481 434 
Q 3481 -459 3084 -895 
Q 2688 -1331 1869 -1331 
Q 1566 -1331 1297 -1286 
Q 1028 -1241 775 -1147 
L 775 -588 
Q 1028 -725 1275 -790 
Q 1522 -856 1778 -856 
Q 2344 -856 2625 -561 
Q 2906 -266 2906 331 
L 2906 616 
Q 2728 306 2450 153 
Q 2172 0 1784 0 
Q 1141 0 747 490 
Q 353 981 353 1791 
Q 353 2603 747 3093 
Q 1141 3584 1784 3584 
Q 2172 3584 2450 3431 
Q 2728 3278 2906 2969 
L 2906 3500 
L 3481 3500 
L 3481 434 
z
" transform="scale(0.015625)"/>
       <path id="DejaVuSans-68" d="M 3513 2113 
L 3513 0 
L 2938 0 
L 2938 2094 
Q 2938 2591 2744 2837 
Q 2550 3084 2163 3084 
Q 1697 3084 1428 2787 
Q 1159 2491 1159 1978 
L 1159 0 
L 581 0 
L 581 4863 
L 1159 4863 
L 1159 2956 
Q 1366 3272 1645 3428 
Q 1925 3584 2291 3584 
Q 2894 3584 3203 3211 
Q 3513 2838 3513 2113 
z
" transform="scale(0.015625)"/>
       <path id="DejaVuSans-63" d="M 3122 3366 
L 3122 2828 
Q 2878 2963 2633 3030 
Q 2388 3097 2138 3097 
Q 1578 3097 1268 2742 
Q 959 2388 959 1747 
Q 959 1106 1268 751 
Q 1578 397 2138 397 
Q 2388 397 2633 464 
Q 2878 531 3122 666 
L 3122 134 
Q 2881 22 2623 -34 
Q 2366 -91 2075 -91 
Q 1284 -91 818 406 
Q 353 903 353 1747 
Q 353 2603 823 3093 
Q 1294 3584 2113 3584 
Q 2378 3584 2631 3529 
Q 2884 3475 3122 3366 
z
" transform="scale(0.015625)"/>
      </defs>
      <use xlink:href="#DejaVuSans-4c"/>
      <use xlink:href="#DejaVuSans-6f" x="53.962891"/>
      <use xlink:href="#DejaVuSans-67" x="115.144531"/>
      <use xlink:href="#DejaVuSans-61" x="178.621094"/>
      <use xlink:href="#DejaVuSans-72" x="239.900391"/>
      <use xlink:href="#DejaVuSans-69" x="281.013672"/>
      <use xlink:href="#DejaVuSans-74" x="308.796875"/>
      <use xlink:href="#DejaVuSans-68" x="348.005859"/>
      <use xlink:href="#DejaVuSans-6d" x="411.384766"/>
      <use xlink:href="#DejaVuSans-69" x="508.796875"/>
      <use xlink:href="#DejaVuSans-63" x="536.580078"/>
      <use xlink:href="#DejaVuSans-20" x="591.560547"/>
      <use xlink:href="#DejaVuSans-54" x="623.347656"/>
      <use xlink:href="#DejaVuSans-72" x="669.681641"/>
      <use xlink:href="#DejaVuSans-65" x="708.544922"/>
      <use xlink:href="#DejaVuSans-6e" x="770.068359"/>
      <use xlink:href="#DejaVuSans-64" x="833.447266"/>
      <use xlink:href="#DejaVuSans-6c" x="896.923828"/>
      <use xlink:href="#DejaVuSans-69" x="924.707031"/>
      <use xlink:href="#DejaVuSans-6e" x="952.490234"/>
      <use xlink:href="#DejaVuSans-65" x="1015.869141"/>
     </g>
    </g>
   </g>
  </g>
 </g>
 <defs>
  <clipPath id="p5601ed31e8">
   <rect x="51.323438" y="-0" width="357.12" height="266.112"/>
  </clipPath>
 </defs>
</svg>
