<?xml version="1.0" encoding="utf-8" standalone="no"?>
<!DOCTYPE svg PUBLIC "-//W3C//DTD SVG 1.1//EN"
  "http://www.w3.org/Graphics/SVG/1.1/DTD/svg11.dtd">
<svg xmlns:xlink="http://www.w3.org/1999/xlink" width="408.443438pt" height="296.46825pt" viewBox="0 0 408.443438 296.46825" xmlns="http://www.w3.org/2000/svg" version="1.1">
 <metadata>
  <rdf:RDF xmlns:dc="http://purl.org/dc/elements/1.1/" xmlns:cc="http://creativecommons.org/ns#" xmlns:rdf="http://www.w3.org/1999/02/22-rdf-syntax-ns#">
   <cc:Work>
    <dc:type rdf:resource="http://purl.org/dc/dcmitype/StillImage"/>
    <dc:date>2023-06-13T21:22:24.664695</dc:date>
    <dc:format>image/svg+xml</dc:format>
    <dc:creator>
     <cc:Agent>
      <dc:title>Matplotlib v3.5.2, https://matplotlib.org/</dc:title>
     </cc:Agent>
    </dc:creator>
   </cc:Work>
  </rdf:RDF>
 </metadata>
 <defs>
  <style type="text/css">*{stroke-linejoin: round; stroke-linecap: butt}</style>
 </defs>
 <g id="figure_1">
  <g id="patch_1">
   <path d="M 0 296.46825 
L 408.443438 296.46825 
L 408.443438 0 
L 0 0 
z
" style="fill: #ffffff"/>
  </g>
  <g id="axes_1">
   <g id="patch_2">
    <path d="M 51.323438 266.112 
L 408.443438 266.112 
L 408.443438 -0 
L 51.323438 -0 
z
" style="fill: #ffffff"/>
   </g>
   <g id="PathCollection_1">
    <path d="M 67.556165 221.636859 
L 64.556165 227.636859 
L 70.556165 227.636859 
z
" clip-path="url(#p9ff9d00d6f)" style="fill: #440154; stroke: #440154"/>
    <path d="M 72.87837 216.32378 
L 69.87837 222.32378 
L 75.87837 222.32378 
z
" clip-path="url(#p9ff9d00d6f)" style="fill: #460b5e; stroke: #460b5e"/>
    <path d="M 86.183885 204.85472 
L 83.183885 210.85472 
L 89.183885 210.85472 
z
" clip-path="url(#p9ff9d00d6f)" style="fill: #482374; stroke: #482374"/>
    <path d="M 88.844987 203.903834 
L 85.844987 209.903834 
L 91.844987 209.903834 
z
" clip-path="url(#p9ff9d00d6f)" style="fill: #482475; stroke: #482475"/>
    <path d="M 91.50609 202.855271 
L 88.50609 208.855271 
L 94.50609 208.855271 
z
" clip-path="url(#p9ff9d00d6f)" style="fill: #482677; stroke: #482677"/>
    <path d="M 96.828296 202.259812 
L 93.828296 208.259812 
L 99.828296 208.259812 
z
" clip-path="url(#p9ff9d00d6f)" style="fill: #482878; stroke: #482878"/>
    <path d="M 96.828296 199.709999 
L 93.828296 205.709999 
L 99.828296 205.709999 
z
" clip-path="url(#p9ff9d00d6f)" style="fill: #472d7b; stroke: #472d7b"/>
    <path d="M 96.828296 199.369242 
L 93.828296 205.369242 
L 99.828296 205.369242 
z
" clip-path="url(#p9ff9d00d6f)" style="fill: #472d7b; stroke: #472d7b"/>
    <path d="M 102.150502 196.222772 
L 99.150502 202.222772 
L 105.150502 202.222772 
z
" clip-path="url(#p9ff9d00d6f)" style="fill: #46337f; stroke: #46337f"/>
    <path d="M 104.811604 195.995607 
L 101.811604 201.995607 
L 107.811604 201.995607 
z
" clip-path="url(#p9ff9d00d6f)" style="fill: #46337f; stroke: #46337f"/>
    <path d="M 107.472707 192.74069 
L 104.472707 198.74069 
L 110.472707 198.74069 
z
" clip-path="url(#p9ff9d00d6f)" style="fill: #443983; stroke: #443983"/>
    <path d="M 110.13381 191.865592 
L 107.13381 197.865592 
L 113.13381 197.865592 
z
" clip-path="url(#p9ff9d00d6f)" style="fill: #443a83; stroke: #443a83"/>
    <path d="M 110.13381 189.158838 
L 107.13381 195.158838 
L 113.13381 195.158838 
z
" clip-path="url(#p9ff9d00d6f)" style="fill: #423f85; stroke: #423f85"/>
    <path d="M 110.13381 188.452578 
L 107.13381 194.452578 
L 113.13381 194.452578 
z
" clip-path="url(#p9ff9d00d6f)" style="fill: #424086; stroke: #424086"/>
    <path d="M 112.794913 185.030335 
L 109.794913 191.030335 
L 115.794913 191.030335 
z
" clip-path="url(#p9ff9d00d6f)" style="fill: #404688; stroke: #404688"/>
    <path d="M 115.456016 181.998334 
L 112.456016 187.998334 
L 118.456016 187.998334 
z
" clip-path="url(#p9ff9d00d6f)" style="fill: #3e4a89; stroke: #3e4a89"/>
    <path d="M 118.117119 180.882914 
L 115.117119 186.882914 
L 121.117119 186.882914 
z
" clip-path="url(#p9ff9d00d6f)" style="fill: #3d4d8a; stroke: #3d4d8a"/>
    <path d="M 118.117119 180.171155 
L 115.117119 186.171155 
L 121.117119 186.171155 
z
" clip-path="url(#p9ff9d00d6f)" style="fill: #3d4e8a; stroke: #3d4e8a"/>
    <path d="M 120.778221 177.629304 
L 117.778221 183.629304 
L 123.778221 183.629304 
z
" clip-path="url(#p9ff9d00d6f)" style="fill: #3b528b; stroke: #3b528b"/>
    <path d="M 120.778221 171.976281 
L 117.778221 177.976281 
L 123.778221 177.976281 
z
" clip-path="url(#p9ff9d00d6f)" style="fill: #375b8d; stroke: #375b8d"/>
    <path d="M 123.439324 171.563077 
L 120.439324 177.563077 
L 126.439324 177.563077 
z
" clip-path="url(#p9ff9d00d6f)" style="fill: #365c8d; stroke: #365c8d"/>
    <path d="M 128.76153 168.441318 
L 125.76153 174.441318 
L 131.76153 174.441318 
z
" clip-path="url(#p9ff9d00d6f)" style="fill: #34608d; stroke: #34608d"/>
    <path d="M 131.422633 167.572156 
L 128.422633 173.572156 
L 134.422633 173.572156 
z
" clip-path="url(#p9ff9d00d6f)" style="fill: #34618d; stroke: #34618d"/>
    <path d="M 131.422633 164.0549 
L 128.422633 170.0549 
L 134.422633 170.0549 
z
" clip-path="url(#p9ff9d00d6f)" style="fill: #31678e; stroke: #31678e"/>
    <path d="M 134.083736 161.892497 
L 131.083736 167.892497 
L 137.083736 167.892497 
z
" clip-path="url(#p9ff9d00d6f)" style="fill: #306a8e; stroke: #306a8e"/>
    <path d="M 134.083736 159.610777 
L 131.083736 165.610777 
L 137.083736 165.610777 
z
" clip-path="url(#p9ff9d00d6f)" style="fill: #2e6d8e; stroke: #2e6d8e"/>
    <path d="M 134.083736 149.508593 
L 131.083736 155.508593 
L 137.083736 155.508593 
z
" clip-path="url(#p9ff9d00d6f)" style="fill: #297b8e; stroke: #297b8e"/>
    <path d="M 139.405941 147.015849 
L 136.405941 153.015849 
L 142.405941 153.015849 
z
" clip-path="url(#p9ff9d00d6f)" style="fill: #277f8e; stroke: #277f8e"/>
    <path d="M 144.728147 145.772124 
L 141.728147 151.772124 
L 147.728147 151.772124 
z
" clip-path="url(#p9ff9d00d6f)" style="fill: #27808e; stroke: #27808e"/>
    <path d="M 144.728147 141.21277 
L 141.728147 147.21277 
L 147.728147 147.21277 
z
" clip-path="url(#p9ff9d00d6f)" style="fill: #24868e; stroke: #24868e"/>
    <path d="M 152.711455 138.602311 
L 149.711455 144.602311 
L 155.711455 144.602311 
z
" clip-path="url(#p9ff9d00d6f)" style="fill: #238a8d; stroke: #238a8d"/>
    <path d="M 155.372558 137.306114 
L 152.372558 143.306114 
L 158.372558 143.306114 
z
" clip-path="url(#p9ff9d00d6f)" style="fill: #228c8d; stroke: #228c8d"/>
    <path d="M 155.372558 137.203912 
L 152.372558 143.203912 
L 158.372558 143.203912 
z
" clip-path="url(#p9ff9d00d6f)" style="fill: #228c8d; stroke: #228c8d"/>
    <path d="M 160.694764 131.905166 
L 157.694764 137.905166 
L 163.694764 137.905166 
z
" clip-path="url(#p9ff9d00d6f)" style="fill: #20938c; stroke: #20938c"/>
    <path d="M 160.694764 131.441681 
L 157.694764 137.441681 
L 163.694764 137.441681 
z
" clip-path="url(#p9ff9d00d6f)" style="fill: #20938c; stroke: #20938c"/>
    <path d="M 166.01697 124.698503 
L 163.01697 130.698503 
L 169.01697 130.698503 
z
" clip-path="url(#p9ff9d00d6f)" style="fill: #1e9d89; stroke: #1e9d89"/>
    <path d="M 168.678072 124.20503 
L 165.678072 130.20503 
L 171.678072 130.20503 
z
" clip-path="url(#p9ff9d00d6f)" style="fill: #1f9e89; stroke: #1f9e89"/>
    <path d="M 171.339175 116.216167 
L 168.339175 122.216167 
L 174.339175 122.216167 
z
" clip-path="url(#p9ff9d00d6f)" style="fill: #23a983; stroke: #23a983"/>
    <path d="M 171.339175 115.761194 
L 168.339175 121.761194 
L 174.339175 121.761194 
z
" clip-path="url(#p9ff9d00d6f)" style="fill: #23a983; stroke: #23a983"/>
    <path d="M 189.966895 109.906038 
L 186.966895 115.906038 
L 192.966895 115.906038 
z
" clip-path="url(#p9ff9d00d6f)" style="fill: #2cb17e; stroke: #2cb17e"/>
    <path d="M 189.966895 97.106852 
L 186.966895 103.106852 
L 192.966895 103.106852 
z
" clip-path="url(#p9ff9d00d6f)" style="fill: #48c16e; stroke: #48c16e"/>
    <path d="M 189.966895 96.056942 
L 186.966895 102.056942 
L 192.966895 102.056942 
z
" clip-path="url(#p9ff9d00d6f)" style="fill: #4cc26c; stroke: #4cc26c"/>
    <path d="M 195.289101 90.384986 
L 192.289101 96.384986 
L 198.289101 96.384986 
z
" clip-path="url(#p9ff9d00d6f)" style="fill: #5cc863; stroke: #5cc863"/>
    <path d="M 208.594615 85.084314 
L 205.594615 91.084314 
L 211.594615 91.084314 
z
" clip-path="url(#p9ff9d00d6f)" style="fill: #6ece58; stroke: #6ece58"/>
    <path d="M 211.255718 81.886109 
L 208.255718 87.886109 
L 214.255718 87.886109 
z
" clip-path="url(#p9ff9d00d6f)" style="fill: #7ad151; stroke: #7ad151"/>
    <path d="M 328.344242 76.656512 
L 325.344242 82.656512 
L 331.344242 82.656512 
z
" clip-path="url(#p9ff9d00d6f)" style="fill: #8bd646; stroke: #8bd646"/>
    <path d="M 336.327551 75.014619 
L 333.327551 81.014619 
L 339.327551 81.014619 
z
" clip-path="url(#p9ff9d00d6f)" style="fill: #93d741; stroke: #93d741"/>
    <path d="M 338.988654 52.411018 
L 335.988654 58.411018 
L 341.988654 58.411018 
z
" clip-path="url(#p9ff9d00d6f)" style="fill: #eae51a; stroke: #eae51a"/>
    <path d="M 341.649756 47.863667 
L 338.649756 53.863667 
L 344.649756 53.863667 
z
" clip-path="url(#p9ff9d00d6f)" style="fill: #f8e621; stroke: #f8e621"/>
    <path d="M 392.21071 46.417229 
L 389.21071 52.417229 
L 395.21071 52.417229 
z
" clip-path="url(#p9ff9d00d6f)" style="fill: #fde725; stroke: #fde725"/>
   </g>
   <g id="matplotlib.axis_1">
    <g id="xtick_1">
     <g id="line2d_1">
      <defs>
       <path id="me2dfb15147" d="M 0 0 
L 0 3.5 
" style="stroke: #000000; stroke-width: 0.8"/>
      </defs>
      <g>
       <use xlink:href="#me2dfb15147" x="75.983486" y="266.112" style="stroke: #000000; stroke-width: 0.8"/>
      </g>
     </g>
     <g id="text_1">
      <!-- 2 -->
      <g transform="translate(72.802236 280.710437)scale(0.1 -0.1)">
       <defs>
        <path id="DejaVuSans-32" d="M 1228 531 
L 3431 531 
L 3431 0 
L 469 0 
L 469 531 
Q 828 903 1448 1529 
Q 2069 2156 2228 2338 
Q 2531 2678 2651 2914 
Q 2772 3150 2772 3378 
Q 2772 3750 2511 3984 
Q 2250 4219 1831 4219 
Q 1534 4219 1204 4116 
Q 875 4013 500 3803 
L 500 4441 
Q 881 4594 1212 4672 
Q 1544 4750 1819 4750 
Q 2544 4750 2975 4387 
Q 3406 4025 3406 3419 
Q 3406 3131 3298 2873 
Q 3191 2616 2906 2266 
Q 2828 2175 2409 1742 
Q 1991 1309 1228 531 
z
" transform="scale(0.015625)"/>
       </defs>
       <use xlink:href="#DejaVuSans-32"/>
      </g>
     </g>
    </g>
    <g id="xtick_2">
     <g id="line2d_2">
      <g>
       <use xlink:href="#me2dfb15147" x="119.005143" y="266.112" style="stroke: #000000; stroke-width: 0.8"/>
      </g>
     </g>
     <g id="text_2">
      <!-- 4 -->
      <g transform="translate(115.823893 280.710437)scale(0.1 -0.1)">
       <defs>
        <path id="DejaVuSans-34" d="M 2419 4116 
L 825 1625 
L 2419 1625 
L 2419 4116 
z
M 2253 4666 
L 3047 4666 
L 3047 1625 
L 3713 1625 
L 3713 1100 
L 3047 1100 
L 3047 0 
L 2419 0 
L 2419 1100 
L 313 1100 
L 313 1709 
L 2253 4666 
z
" transform="scale(0.015625)"/>
       </defs>
       <use xlink:href="#DejaVuSans-34"/>
      </g>
     </g>
    </g>
    <g id="xtick_3">
     <g id="line2d_3">
      <g>
       <use xlink:href="#me2dfb15147" x="162.026801" y="266.112" style="stroke: #000000; stroke-width: 0.8"/>
      </g>
     </g>
     <g id="text_3">
      <!-- 6 -->
      <g transform="translate(158.845551 280.710437)scale(0.1 -0.1)">
       <defs>
        <path id="DejaVuSans-36" d="M 2113 2584 
Q 1688 2584 1439 2293 
Q 1191 2003 1191 1497 
Q 1191 994 1439 701 
Q 1688 409 2113 409 
Q 2538 409 2786 701 
Q 3034 994 3034 1497 
Q 3034 2003 2786 2293 
Q 2538 2584 2113 2584 
z
M 3366 4563 
L 3366 3988 
Q 3128 4100 2886 4159 
Q 2644 4219 2406 4219 
Q 1781 4219 1451 3797 
Q 1122 3375 1075 2522 
Q 1259 2794 1537 2939 
Q 1816 3084 2150 3084 
Q 2853 3084 3261 2657 
Q 3669 2231 3669 1497 
Q 3669 778 3244 343 
Q 2819 -91 2113 -91 
Q 1303 -91 875 529 
Q 447 1150 447 2328 
Q 447 3434 972 4092 
Q 1497 4750 2381 4750 
Q 2619 4750 2861 4703 
Q 3103 4656 3366 4563 
z
" transform="scale(0.015625)"/>
       </defs>
       <use xlink:href="#DejaVuSans-36"/>
      </g>
     </g>
    </g>
    <g id="xtick_4">
     <g id="line2d_4">
      <g>
       <use xlink:href="#me2dfb15147" x="205.048459" y="266.112" style="stroke: #000000; stroke-width: 0.8"/>
      </g>
     </g>
     <g id="text_4">
      <!-- 8 -->
      <g transform="translate(201.867209 280.710437)scale(0.1 -0.1)">
       <defs>
        <path id="DejaVuSans-38" d="M 2034 2216 
Q 1584 2216 1326 1975 
Q 1069 1734 1069 1313 
Q 1069 891 1326 650 
Q 1584 409 2034 409 
Q 2484 409 2743 651 
Q 3003 894 3003 1313 
Q 3003 1734 2745 1975 
Q 2488 2216 2034 2216 
z
M 1403 2484 
Q 997 2584 770 2862 
Q 544 3141 544 3541 
Q 544 4100 942 4425 
Q 1341 4750 2034 4750 
Q 2731 4750 3128 4425 
Q 3525 4100 3525 3541 
Q 3525 3141 3298 2862 
Q 3072 2584 2669 2484 
Q 3125 2378 3379 2068 
Q 3634 1759 3634 1313 
Q 3634 634 3220 271 
Q 2806 -91 2034 -91 
Q 1263 -91 848 271 
Q 434 634 434 1313 
Q 434 1759 690 2068 
Q 947 2378 1403 2484 
z
M 1172 3481 
Q 1172 3119 1398 2916 
Q 1625 2713 2034 2713 
Q 2441 2713 2670 2916 
Q 2900 3119 2900 3481 
Q 2900 3844 2670 4047 
Q 2441 4250 2034 4250 
Q 1625 4250 1398 4047 
Q 1172 3844 1172 3481 
z
" transform="scale(0.015625)"/>
       </defs>
       <use xlink:href="#DejaVuSans-38"/>
      </g>
     </g>
    </g>
    <g id="xtick_5">
     <g id="line2d_5">
      <g>
       <use xlink:href="#me2dfb15147" x="248.070117" y="266.112" style="stroke: #000000; stroke-width: 0.8"/>
      </g>
     </g>
     <g id="text_5">
      <!-- 10 -->
      <g transform="translate(241.707617 280.710437)scale(0.1 -0.1)">
       <defs>
        <path id="DejaVuSans-31" d="M 794 531 
L 1825 531 
L 1825 4091 
L 703 3866 
L 703 4441 
L 1819 4666 
L 2450 4666 
L 2450 531 
L 3481 531 
L 3481 0 
L 794 0 
L 794 531 
z
" transform="scale(0.015625)"/>
        <path id="DejaVuSans-30" d="M 2034 4250 
Q 1547 4250 1301 3770 
Q 1056 3291 1056 2328 
Q 1056 1369 1301 889 
Q 1547 409 2034 409 
Q 2525 409 2770 889 
Q 3016 1369 3016 2328 
Q 3016 3291 2770 3770 
Q 2525 4250 2034 4250 
z
M 2034 4750 
Q 2819 4750 3233 4129 
Q 3647 3509 3647 2328 
Q 3647 1150 3233 529 
Q 2819 -91 2034 -91 
Q 1250 -91 836 529 
Q 422 1150 422 2328 
Q 422 3509 836 4129 
Q 1250 4750 2034 4750 
z
" transform="scale(0.015625)"/>
       </defs>
       <use xlink:href="#DejaVuSans-31"/>
       <use xlink:href="#DejaVuSans-30" x="63.623047"/>
      </g>
     </g>
    </g>
    <g id="xtick_6">
     <g id="line2d_6">
      <g>
       <use xlink:href="#me2dfb15147" x="291.091774" y="266.112" style="stroke: #000000; stroke-width: 0.8"/>
      </g>
     </g>
     <g id="text_6">
      <!-- 12 -->
      <g transform="translate(284.729274 280.710437)scale(0.1 -0.1)">
       <use xlink:href="#DejaVuSans-31"/>
       <use xlink:href="#DejaVuSans-32" x="63.623047"/>
      </g>
     </g>
    </g>
    <g id="xtick_7">
     <g id="line2d_7">
      <g>
       <use xlink:href="#me2dfb15147" x="334.113432" y="266.112" style="stroke: #000000; stroke-width: 0.8"/>
      </g>
     </g>
     <g id="text_7">
      <!-- 14 -->
      <g transform="translate(327.750932 280.710437)scale(0.1 -0.1)">
       <use xlink:href="#DejaVuSans-31"/>
       <use xlink:href="#DejaVuSans-34" x="63.623047"/>
      </g>
     </g>
    </g>
    <g id="xtick_8">
     <g id="line2d_8">
      <g>
       <use xlink:href="#me2dfb15147" x="377.13509" y="266.112" style="stroke: #000000; stroke-width: 0.8"/>
      </g>
     </g>
     <g id="text_8">
      <!-- 16 -->
      <g transform="translate(370.77259 280.710437)scale(0.1 -0.1)">
       <use xlink:href="#DejaVuSans-31"/>
       <use xlink:href="#DejaVuSans-36" x="63.623047"/>
      </g>
     </g>
    </g>
    <g id="text_9">
     <!-- Eddy Area [10^3 * km^2] -->
     <g transform="translate(164.284219 294.388562)scale(0.1 -0.1)">
      <defs>
       <path id="DejaVuSans-45" d="M 628 4666 
L 3578 4666 
L 3578 4134 
L 1259 4134 
L 1259 2753 
L 3481 2753 
L 3481 2222 
L 1259 2222 
L 1259 531 
L 3634 531 
L 3634 0 
L 628 0 
L 628 4666 
z
" transform="scale(0.015625)"/>
       <path id="DejaVuSans-64" d="M 2906 2969 
L 2906 4863 
L 3481 4863 
L 3481 0 
L 2906 0 
L 2906 525 
Q 2725 213 2448 61 
Q 2172 -91 1784 -91 
Q 1150 -91 751 415 
Q 353 922 353 1747 
Q 353 2572 751 3078 
Q 1150 3584 1784 3584 
Q 2172 3584 2448 3432 
Q 2725 3281 2906 2969 
z
M 947 1747 
Q 947 1113 1208 752 
Q 1469 391 1925 391 
Q 2381 391 2643 752 
Q 2906 1113 2906 1747 
Q 2906 2381 2643 2742 
Q 2381 3103 1925 3103 
Q 1469 3103 1208 2742 
Q 947 2381 947 1747 
z
" transform="scale(0.015625)"/>
       <path id="DejaVuSans-79" d="M 2059 -325 
Q 1816 -950 1584 -1140 
Q 1353 -1331 966 -1331 
L 506 -1331 
L 506 -850 
L 844 -850 
Q 1081 -850 1212 -737 
Q 1344 -625 1503 -206 
L 1606 56 
L 191 3500 
L 800 3500 
L 1894 763 
L 2988 3500 
L 3597 3500 
L 2059 -325 
z
" transform="scale(0.015625)"/>
       <path id="DejaVuSans-20" transform="scale(0.015625)"/>
       <path id="DejaVuSans-41" d="M 2188 4044 
L 1331 1722 
L 3047 1722 
L 2188 4044 
z
M 1831 4666 
L 2547 4666 
L 4325 0 
L 3669 0 
L 3244 1197 
L 1141 1197 
L 716 0 
L 50 0 
L 1831 4666 
z
" transform="scale(0.015625)"/>
       <path id="DejaVuSans-72" d="M 2631 2963 
Q 2534 3019 2420 3045 
Q 2306 3072 2169 3072 
Q 1681 3072 1420 2755 
Q 1159 2438 1159 1844 
L 1159 0 
L 581 0 
L 581 3500 
L 1159 3500 
L 1159 2956 
Q 1341 3275 1631 3429 
Q 1922 3584 2338 3584 
Q 2397 3584 2469 3576 
Q 2541 3569 2628 3553 
L 2631 2963 
z
" transform="scale(0.015625)"/>
       <path id="DejaVuSans-65" d="M 3597 1894 
L 3597 1613 
L 953 1613 
Q 991 1019 1311 708 
Q 1631 397 2203 397 
Q 2534 397 2845 478 
Q 3156 559 3463 722 
L 3463 178 
Q 3153 47 2828 -22 
Q 2503 -91 2169 -91 
Q 1331 -91 842 396 
Q 353 884 353 1716 
Q 353 2575 817 3079 
Q 1281 3584 2069 3584 
Q 2775 3584 3186 3129 
Q 3597 2675 3597 1894 
z
M 3022 2063 
Q 3016 2534 2758 2815 
Q 2500 3097 2075 3097 
Q 1594 3097 1305 2825 
Q 1016 2553 972 2059 
L 3022 2063 
z
" transform="scale(0.015625)"/>
       <path id="DejaVuSans-61" d="M 2194 1759 
Q 1497 1759 1228 1600 
Q 959 1441 959 1056 
Q 959 750 1161 570 
Q 1363 391 1709 391 
Q 2188 391 2477 730 
Q 2766 1069 2766 1631 
L 2766 1759 
L 2194 1759 
z
M 3341 1997 
L 3341 0 
L 2766 0 
L 2766 531 
Q 2569 213 2275 61 
Q 1981 -91 1556 -91 
Q 1019 -91 701 211 
Q 384 513 384 1019 
Q 384 1609 779 1909 
Q 1175 2209 1959 2209 
L 2766 2209 
L 2766 2266 
Q 2766 2663 2505 2880 
Q 2244 3097 1772 3097 
Q 1472 3097 1187 3025 
Q 903 2953 641 2809 
L 641 3341 
Q 956 3463 1253 3523 
Q 1550 3584 1831 3584 
Q 2591 3584 2966 3190 
Q 3341 2797 3341 1997 
z
" transform="scale(0.015625)"/>
       <path id="DejaVuSans-5b" d="M 550 4863 
L 1875 4863 
L 1875 4416 
L 1125 4416 
L 1125 -397 
L 1875 -397 
L 1875 -844 
L 550 -844 
L 550 4863 
z
" transform="scale(0.015625)"/>
       <path id="DejaVuSans-5e" d="M 2988 4666 
L 4684 2925 
L 4056 2925 
L 2681 4159 
L 1306 2925 
L 678 2925 
L 2375 4666 
L 2988 4666 
z
" transform="scale(0.015625)"/>
       <path id="DejaVuSans-33" d="M 2597 2516 
Q 3050 2419 3304 2112 
Q 3559 1806 3559 1356 
Q 3559 666 3084 287 
Q 2609 -91 1734 -91 
Q 1441 -91 1130 -33 
Q 819 25 488 141 
L 488 750 
Q 750 597 1062 519 
Q 1375 441 1716 441 
Q 2309 441 2620 675 
Q 2931 909 2931 1356 
Q 2931 1769 2642 2001 
Q 2353 2234 1838 2234 
L 1294 2234 
L 1294 2753 
L 1863 2753 
Q 2328 2753 2575 2939 
Q 2822 3125 2822 3475 
Q 2822 3834 2567 4026 
Q 2313 4219 1838 4219 
Q 1578 4219 1281 4162 
Q 984 4106 628 3988 
L 628 4550 
Q 988 4650 1302 4700 
Q 1616 4750 1894 4750 
Q 2613 4750 3031 4423 
Q 3450 4097 3450 3541 
Q 3450 3153 3228 2886 
Q 3006 2619 2597 2516 
z
" transform="scale(0.015625)"/>
       <path id="DejaVuSans-2a" d="M 3009 3897 
L 1888 3291 
L 3009 2681 
L 2828 2375 
L 1778 3009 
L 1778 1831 
L 1422 1831 
L 1422 3009 
L 372 2375 
L 191 2681 
L 1313 3291 
L 191 3897 
L 372 4206 
L 1422 3572 
L 1422 4750 
L 1778 4750 
L 1778 3572 
L 2828 4206 
L 3009 3897 
z
" transform="scale(0.015625)"/>
       <path id="DejaVuSans-6b" d="M 581 4863 
L 1159 4863 
L 1159 1991 
L 2875 3500 
L 3609 3500 
L 1753 1863 
L 3688 0 
L 2938 0 
L 1159 1709 
L 1159 0 
L 581 0 
L 581 4863 
z
" transform="scale(0.015625)"/>
       <path id="DejaVuSans-6d" d="M 3328 2828 
Q 3544 3216 3844 3400 
Q 4144 3584 4550 3584 
Q 5097 3584 5394 3201 
Q 5691 2819 5691 2113 
L 5691 0 
L 5113 0 
L 5113 2094 
Q 5113 2597 4934 2840 
Q 4756 3084 4391 3084 
Q 3944 3084 3684 2787 
Q 3425 2491 3425 1978 
L 3425 0 
L 2847 0 
L 2847 2094 
Q 2847 2600 2669 2842 
Q 2491 3084 2119 3084 
Q 1678 3084 1418 2786 
Q 1159 2488 1159 1978 
L 1159 0 
L 581 0 
L 581 3500 
L 1159 3500 
L 1159 2956 
Q 1356 3278 1631 3431 
Q 1906 3584 2284 3584 
Q 2666 3584 2933 3390 
Q 3200 3197 3328 2828 
z
" transform="scale(0.015625)"/>
       <path id="DejaVuSans-5d" d="M 1947 4863 
L 1947 -844 
L 622 -844 
L 622 -397 
L 1369 -397 
L 1369 4416 
L 622 4416 
L 622 4863 
L 1947 4863 
z
" transform="scale(0.015625)"/>
      </defs>
      <use xlink:href="#DejaVuSans-45"/>
      <use xlink:href="#DejaVuSans-64" x="63.183594"/>
      <use xlink:href="#DejaVuSans-64" x="126.660156"/>
      <use xlink:href="#DejaVuSans-79" x="190.136719"/>
      <use xlink:href="#DejaVuSans-20" x="249.316406"/>
      <use xlink:href="#DejaVuSans-41" x="281.103516"/>
      <use xlink:href="#DejaVuSans-72" x="349.511719"/>
      <use xlink:href="#DejaVuSans-65" x="388.375"/>
      <use xlink:href="#DejaVuSans-61" x="449.898438"/>
      <use xlink:href="#DejaVuSans-20" x="511.177734"/>
      <use xlink:href="#DejaVuSans-5b" x="542.964844"/>
      <use xlink:href="#DejaVuSans-31" x="581.978516"/>
      <use xlink:href="#DejaVuSans-30" x="645.601562"/>
      <use xlink:href="#DejaVuSans-5e" x="709.224609"/>
      <use xlink:href="#DejaVuSans-33" x="793.013672"/>
      <use xlink:href="#DejaVuSans-20" x="856.636719"/>
      <use xlink:href="#DejaVuSans-2a" x="888.423828"/>
      <use xlink:href="#DejaVuSans-20" x="938.423828"/>
      <use xlink:href="#DejaVuSans-6b" x="970.210938"/>
      <use xlink:href="#DejaVuSans-6d" x="1028.121094"/>
      <use xlink:href="#DejaVuSans-5e" x="1125.533203"/>
      <use xlink:href="#DejaVuSans-32" x="1209.322266"/>
      <use xlink:href="#DejaVuSans-5d" x="1272.945312"/>
     </g>
    </g>
   </g>
   <g id="matplotlib.axis_2">
    <g id="ytick_1">
     <g id="line2d_9">
      <defs>
       <path id="m2c5cf40604" d="M 0 0 
L -3.5 0 
" style="stroke: #000000; stroke-width: 0.8"/>
      </defs>
      <g>
       <use xlink:href="#m2c5cf40604" x="51.323438" y="252.891307" style="stroke: #000000; stroke-width: 0.8"/>
      </g>
     </g>
     <g id="text_10">
      <!-- −0.50 -->
      <g transform="translate(13.678125 256.690525)scale(0.1 -0.1)">
       <defs>
        <path id="DejaVuSans-2212" d="M 678 2272 
L 4684 2272 
L 4684 1741 
L 678 1741 
L 678 2272 
z
" transform="scale(0.015625)"/>
        <path id="DejaVuSans-2e" d="M 684 794 
L 1344 794 
L 1344 0 
L 684 0 
L 684 794 
z
" transform="scale(0.015625)"/>
        <path id="DejaVuSans-35" d="M 691 4666 
L 3169 4666 
L 3169 4134 
L 1269 4134 
L 1269 2991 
Q 1406 3038 1543 3061 
Q 1681 3084 1819 3084 
Q 2600 3084 3056 2656 
Q 3513 2228 3513 1497 
Q 3513 744 3044 326 
Q 2575 -91 1722 -91 
Q 1428 -91 1123 -41 
Q 819 9 494 109 
L 494 744 
Q 775 591 1075 516 
Q 1375 441 1709 441 
Q 2250 441 2565 725 
Q 2881 1009 2881 1497 
Q 2881 1984 2565 2268 
Q 2250 2553 1709 2553 
Q 1456 2553 1204 2497 
Q 953 2441 691 2322 
L 691 4666 
z
" transform="scale(0.015625)"/>
       </defs>
       <use xlink:href="#DejaVuSans-2212"/>
       <use xlink:href="#DejaVuSans-30" x="83.789062"/>
       <use xlink:href="#DejaVuSans-2e" x="147.412109"/>
       <use xlink:href="#DejaVuSans-35" x="179.199219"/>
       <use xlink:href="#DejaVuSans-30" x="242.822266"/>
      </g>
     </g>
    </g>
    <g id="ytick_2">
     <g id="line2d_10">
      <g>
       <use xlink:href="#m2c5cf40604" x="51.323438" y="216.232425" style="stroke: #000000; stroke-width: 0.8"/>
      </g>
     </g>
     <g id="text_11">
      <!-- −0.25 -->
      <g transform="translate(13.678125 220.031644)scale(0.1 -0.1)">
       <use xlink:href="#DejaVuSans-2212"/>
       <use xlink:href="#DejaVuSans-30" x="83.789062"/>
       <use xlink:href="#DejaVuSans-2e" x="147.412109"/>
       <use xlink:href="#DejaVuSans-32" x="179.199219"/>
       <use xlink:href="#DejaVuSans-35" x="242.822266"/>
      </g>
     </g>
    </g>
    <g id="ytick_3">
     <g id="line2d_11">
      <g>
       <use xlink:href="#m2c5cf40604" x="51.323438" y="179.573544" style="stroke: #000000; stroke-width: 0.8"/>
      </g>
     </g>
     <g id="text_12">
      <!-- 0.00 -->
      <g transform="translate(22.057813 183.372763)scale(0.1 -0.1)">
       <use xlink:href="#DejaVuSans-30"/>
       <use xlink:href="#DejaVuSans-2e" x="63.623047"/>
       <use xlink:href="#DejaVuSans-30" x="95.410156"/>
       <use xlink:href="#DejaVuSans-30" x="159.033203"/>
      </g>
     </g>
    </g>
    <g id="ytick_4">
     <g id="line2d_12">
      <g>
       <use xlink:href="#m2c5cf40604" x="51.323438" y="142.914662" style="stroke: #000000; stroke-width: 0.8"/>
      </g>
     </g>
     <g id="text_13">
      <!-- 0.25 -->
      <g transform="translate(22.057813 146.713881)scale(0.1 -0.1)">
       <use xlink:href="#DejaVuSans-30"/>
       <use xlink:href="#DejaVuSans-2e" x="63.623047"/>
       <use xlink:href="#DejaVuSans-32" x="95.410156"/>
       <use xlink:href="#DejaVuSans-35" x="159.033203"/>
      </g>
     </g>
    </g>
    <g id="ytick_5">
     <g id="line2d_13">
      <g>
       <use xlink:href="#m2c5cf40604" x="51.323438" y="106.255781" style="stroke: #000000; stroke-width: 0.8"/>
      </g>
     </g>
     <g id="text_14">
      <!-- 0.50 -->
      <g transform="translate(22.057813 110.055)scale(0.1 -0.1)">
       <use xlink:href="#DejaVuSans-30"/>
       <use xlink:href="#DejaVuSans-2e" x="63.623047"/>
       <use xlink:href="#DejaVuSans-35" x="95.410156"/>
       <use xlink:href="#DejaVuSans-30" x="159.033203"/>
      </g>
     </g>
    </g>
    <g id="ytick_6">
     <g id="line2d_14">
      <g>
       <use xlink:href="#m2c5cf40604" x="51.323438" y="69.596899" style="stroke: #000000; stroke-width: 0.8"/>
      </g>
     </g>
     <g id="text_15">
      <!-- 0.75 -->
      <g transform="translate(22.057813 73.396118)scale(0.1 -0.1)">
       <defs>
        <path id="DejaVuSans-37" d="M 525 4666 
L 3525 4666 
L 3525 4397 
L 1831 0 
L 1172 0 
L 2766 4134 
L 525 4134 
L 525 4666 
z
" transform="scale(0.015625)"/>
       </defs>
       <use xlink:href="#DejaVuSans-30"/>
       <use xlink:href="#DejaVuSans-2e" x="63.623047"/>
       <use xlink:href="#DejaVuSans-37" x="95.410156"/>
       <use xlink:href="#DejaVuSans-35" x="159.033203"/>
      </g>
     </g>
    </g>
    <g id="ytick_7">
     <g id="line2d_15">
      <g>
       <use xlink:href="#m2c5cf40604" x="51.323438" y="32.938018" style="stroke: #000000; stroke-width: 0.8"/>
      </g>
     </g>
     <g id="text_16">
      <!-- 1.00 -->
      <g transform="translate(22.057813 36.737237)scale(0.1 -0.1)">
       <use xlink:href="#DejaVuSans-31"/>
       <use xlink:href="#DejaVuSans-2e" x="63.623047"/>
       <use xlink:href="#DejaVuSans-30" x="95.410156"/>
       <use xlink:href="#DejaVuSans-30" x="159.033203"/>
      </g>
     </g>
    </g>
    <g id="text_17">
     <!-- Eddy Amplitude [m] -->
     <g transform="translate(7.598438 183.095844)rotate(-90)scale(0.1 -0.1)">
      <defs>
       <path id="DejaVuSans-70" d="M 1159 525 
L 1159 -1331 
L 581 -1331 
L 581 3500 
L 1159 3500 
L 1159 2969 
Q 1341 3281 1617 3432 
Q 1894 3584 2278 3584 
Q 2916 3584 3314 3078 
Q 3713 2572 3713 1747 
Q 3713 922 3314 415 
Q 2916 -91 2278 -91 
Q 1894 -91 1617 61 
Q 1341 213 1159 525 
z
M 3116 1747 
Q 3116 2381 2855 2742 
Q 2594 3103 2138 3103 
Q 1681 3103 1420 2742 
Q 1159 2381 1159 1747 
Q 1159 1113 1420 752 
Q 1681 391 2138 391 
Q 2594 391 2855 752 
Q 3116 1113 3116 1747 
z
" transform="scale(0.015625)"/>
       <path id="DejaVuSans-6c" d="M 603 4863 
L 1178 4863 
L 1178 0 
L 603 0 
L 603 4863 
z
" transform="scale(0.015625)"/>
       <path id="DejaVuSans-69" d="M 603 3500 
L 1178 3500 
L 1178 0 
L 603 0 
L 603 3500 
z
M 603 4863 
L 1178 4863 
L 1178 4134 
L 603 4134 
L 603 4863 
z
" transform="scale(0.015625)"/>
       <path id="DejaVuSans-74" d="M 1172 4494 
L 1172 3500 
L 2356 3500 
L 2356 3053 
L 1172 3053 
L 1172 1153 
Q 1172 725 1289 603 
Q 1406 481 1766 481 
L 2356 481 
L 2356 0 
L 1766 0 
Q 1100 0 847 248 
Q 594 497 594 1153 
L 594 3053 
L 172 3053 
L 172 3500 
L 594 3500 
L 594 4494 
L 1172 4494 
z
" transform="scale(0.015625)"/>
       <path id="DejaVuSans-75" d="M 544 1381 
L 544 3500 
L 1119 3500 
L 1119 1403 
Q 1119 906 1312 657 
Q 1506 409 1894 409 
Q 2359 409 2629 706 
Q 2900 1003 2900 1516 
L 2900 3500 
L 3475 3500 
L 3475 0 
L 2900 0 
L 2900 538 
Q 2691 219 2414 64 
Q 2138 -91 1772 -91 
Q 1169 -91 856 284 
Q 544 659 544 1381 
z
M 1991 3584 
L 1991 3584 
z
" transform="scale(0.015625)"/>
      </defs>
      <use xlink:href="#DejaVuSans-45"/>
      <use xlink:href="#DejaVuSans-64" x="63.183594"/>
      <use xlink:href="#DejaVuSans-64" x="126.660156"/>
      <use xlink:href="#DejaVuSans-79" x="190.136719"/>
      <use xlink:href="#DejaVuSans-20" x="249.316406"/>
      <use xlink:href="#DejaVuSans-41" x="281.103516"/>
      <use xlink:href="#DejaVuSans-6d" x="349.511719"/>
      <use xlink:href="#DejaVuSans-70" x="446.923828"/>
      <use xlink:href="#DejaVuSans-6c" x="510.400391"/>
      <use xlink:href="#DejaVuSans-69" x="538.183594"/>
      <use xlink:href="#DejaVuSans-74" x="565.966797"/>
      <use xlink:href="#DejaVuSans-75" x="605.175781"/>
      <use xlink:href="#DejaVuSans-64" x="668.554688"/>
      <use xlink:href="#DejaVuSans-65" x="732.03125"/>
      <use xlink:href="#DejaVuSans-20" x="793.554688"/>
      <use xlink:href="#DejaVuSans-5b" x="825.341797"/>
      <use xlink:href="#DejaVuSans-6d" x="864.355469"/>
      <use xlink:href="#DejaVuSans-5d" x="961.767578"/>
     </g>
    </g>
   </g>
   <g id="line2d_16">
    <path d="M 67.556165 204.755303 
L 72.87837 201.596954 
L 86.183885 193.701081 
L 88.844987 192.121906 
L 91.50609 190.542732 
L 96.828296 187.384382 
L 96.828296 187.384382 
L 96.828296 187.384382 
L 102.150502 184.226033 
L 104.811604 182.646859 
L 107.472707 181.067684 
L 110.13381 179.488509 
L 110.13381 179.488509 
L 110.13381 179.488509 
L 112.794913 177.909335 
L 115.456016 176.33016 
L 118.117119 174.750985 
L 118.117119 174.750985 
L 120.778221 173.171811 
L 120.778221 173.171811 
L 123.439324 171.592636 
L 128.76153 168.434287 
L 131.422633 166.855112 
L 131.422633 166.855112 
L 134.083736 165.275938 
L 134.083736 165.275938 
L 134.083736 165.275938 
L 139.405941 162.117589 
L 144.728147 158.959239 
L 144.728147 158.959239 
L 152.711455 154.221715 
L 155.372558 152.642541 
L 155.372558 152.642541 
L 160.694764 149.484192 
L 160.694764 149.484192 
L 166.01697 146.325842 
L 168.678072 144.746668 
L 171.339175 143.167493 
L 171.339175 143.167493 
L 189.966895 132.113271 
L 189.966895 132.113271 
L 189.966895 132.113271 
L 195.289101 128.954922 
L 208.594615 121.059049 
L 211.255718 119.479874 
L 328.344242 49.996191 
L 336.327551 45.258667 
L 338.988654 43.679492 
L 341.649756 42.100318 
L 392.21071 12.096 
" clip-path="url(#p9ff9d00d6f)" style="fill: none; stroke: #000080; stroke-width: 1.5; stroke-linecap: square"/>
   </g>
   <g id="line2d_17">
    <path d="M 67.556165 254.016 
L 72.87837 241.136615 
L 86.183885 215.244608 
L 88.844987 210.853388 
L 91.50609 206.666486 
L 96.828296 198.835275 
L 96.828296 198.835275 
L 96.828296 198.835275 
L 102.150502 191.631258 
L 104.811604 188.234548 
L 107.472707 184.961381 
L 110.13381 181.803087 
L 110.13381 181.803087 
L 110.13381 181.803087 
L 112.794913 178.751874 
L 115.456016 175.800719 
L 118.117119 172.943268 
L 118.117119 172.943268 
L 120.778221 170.173752 
L 120.778221 170.173752 
L 123.439324 167.486921 
L 128.76153 162.34254 
L 131.422633 159.876574 
L 131.422633 159.876574 
L 134.083736 157.476374 
L 134.083736 157.476374 
L 134.083736 157.476374 
L 139.405941 152.859867 
L 144.728147 148.468647 
L 144.728147 148.468647 
L 152.711455 142.259139 
L 155.372558 140.28099 
L 155.372558 140.28099 
L 160.694764 136.450533 
L 160.694764 136.450533 
L 166.01697 132.776466 
L 168.678072 130.994187 
L 171.339175 129.246517 
L 171.339175 129.246517 
L 189.966895 117.879809 
L 189.966895 117.879809 
L 189.966895 117.879809 
L 195.289101 114.879459 
L 208.594615 107.789011 
L 211.255718 106.435569 
L 328.344242 60.999098 
L 336.327551 58.598898 
L 338.988654 57.812848 
L 341.649756 57.033604 
L 392.21071 43.381663 
" clip-path="url(#p9ff9d00d6f)" style="fill: none; stroke: #ff0000; stroke-width: 1.5; stroke-linecap: square"/>
   </g>
   <g id="patch_3">
    <path d="M 51.323438 266.112 
L 51.323438 -0 
" style="fill: none; stroke: #000000; stroke-width: 0.8; stroke-linejoin: miter; stroke-linecap: square"/>
   </g>
   <g id="patch_4">
    <path d="M 408.443438 266.112 
L 408.443438 -0 
" style="fill: none; stroke: #000000; stroke-width: 0.8; stroke-linejoin: miter; stroke-linecap: square"/>
   </g>
   <g id="patch_5">
    <path d="M 51.323438 266.112 
L 408.443438 266.112 
" style="fill: none; stroke: #000000; stroke-width: 0.8; stroke-linejoin: miter; stroke-linecap: square"/>
   </g>
   <g id="patch_6">
    <path d="M 51.323438 -0 
L 408.443438 -0 
" style="fill: none; stroke: #000000; stroke-width: 0.8; stroke-linejoin: miter; stroke-linecap: square"/>
   </g>
   <g id="legend_1">
    <g id="patch_7">
     <path d="M 58.323438 37.35625 
L 198.0625 37.35625 
Q 200.0625 37.35625 200.0625 35.35625 
L 200.0625 7 
Q 200.0625 5 198.0625 5 
L 58.323438 5 
Q 56.323438 5 56.323438 7 
L 56.323438 35.35625 
Q 56.323438 37.35625 58.323438 37.35625 
z
" style="fill: #ffffff; opacity: 0.8; stroke: #cccccc; stroke-linejoin: miter"/>
    </g>
    <g id="line2d_18">
     <path d="M 60.323438 13.098437 
L 70.323438 13.098437 
L 80.323438 13.098437 
" style="fill: none; stroke: #000080; stroke-width: 1.5; stroke-linecap: square"/>
    </g>
    <g id="text_18">
     <!-- Linear Trendline -->
     <g transform="translate(88.323438 16.598437)scale(0.1 -0.1)">
      <defs>
       <path id="DejaVuSans-4c" d="M 628 4666 
L 1259 4666 
L 1259 531 
L 3531 531 
L 3531 0 
L 628 0 
L 628 4666 
z
" transform="scale(0.015625)"/>
       <path id="DejaVuSans-6e" d="M 3513 2113 
L 3513 0 
L 2938 0 
L 2938 2094 
Q 2938 2591 2744 2837 
Q 2550 3084 2163 3084 
Q 1697 3084 1428 2787 
Q 1159 2491 1159 1978 
L 1159 0 
L 581 0 
L 581 3500 
L 1159 3500 
L 1159 2956 
Q 1366 3272 1645 3428 
Q 1925 3584 2291 3584 
Q 2894 3584 3203 3211 
Q 3513 2838 3513 2113 
z
" transform="scale(0.015625)"/>
       <path id="DejaVuSans-54" d="M -19 4666 
L 3928 4666 
L 3928 4134 
L 2272 4134 
L 2272 0 
L 1638 0 
L 1638 4134 
L -19 4134 
L -19 4666 
z
" transform="scale(0.015625)"/>
      </defs>
      <use xlink:href="#DejaVuSans-4c"/>
      <use xlink:href="#DejaVuSans-69" x="55.712891"/>
      <use xlink:href="#DejaVuSans-6e" x="83.496094"/>
      <use xlink:href="#DejaVuSans-65" x="146.875"/>
      <use xlink:href="#DejaVuSans-61" x="208.398438"/>
      <use xlink:href="#DejaVuSans-72" x="269.677734"/>
      <use xlink:href="#DejaVuSans-20" x="310.791016"/>
      <use xlink:href="#DejaVuSans-54" x="342.578125"/>
      <use xlink:href="#DejaVuSans-72" x="388.912109"/>
      <use xlink:href="#DejaVuSans-65" x="427.775391"/>
      <use xlink:href="#DejaVuSans-6e" x="489.298828"/>
      <use xlink:href="#DejaVuSans-64" x="552.677734"/>
      <use xlink:href="#DejaVuSans-6c" x="616.154297"/>
      <use xlink:href="#DejaVuSans-69" x="643.9375"/>
      <use xlink:href="#DejaVuSans-6e" x="671.720703"/>
      <use xlink:href="#DejaVuSans-65" x="735.099609"/>
     </g>
    </g>
    <g id="line2d_19">
     <path d="M 60.323438 27.776562 
L 70.323438 27.776562 
L 80.323438 27.776562 
" style="fill: none; stroke: #ff0000; stroke-width: 1.5; stroke-linecap: square"/>
    </g>
    <g id="text_19">
     <!-- Logarithmic Trendline -->
     <g transform="translate(88.323438 31.276562)scale(0.1 -0.1)">
      <defs>
       <path id="DejaVuSans-6f" d="M 1959 3097 
Q 1497 3097 1228 2736 
Q 959 2375 959 1747 
Q 959 1119 1226 758 
Q 1494 397 1959 397 
Q 2419 397 2687 759 
Q 2956 1122 2956 1747 
Q 2956 2369 2687 2733 
Q 2419 3097 1959 3097 
z
M 1959 3584 
Q 2709 3584 3137 3096 
Q 3566 2609 3566 1747 
Q 3566 888 3137 398 
Q 2709 -91 1959 -91 
Q 1206 -91 779 398 
Q 353 888 353 1747 
Q 353 2609 779 3096 
Q 1206 3584 1959 3584 
z
" transform="scale(0.015625)"/>
       <path id="DejaVuSans-67" d="M 2906 1791 
Q 2906 2416 2648 2759 
Q 2391 3103 1925 3103 
Q 1463 3103 1205 2759 
Q 947 2416 947 1791 
Q 947 1169 1205 825 
Q 1463 481 1925 481 
Q 2391 481 2648 825 
Q 2906 1169 2906 1791 
z
M 3481 434 
Q 3481 -459 3084 -895 
Q 2688 -1331 1869 -1331 
Q 1566 -1331 1297 -1286 
Q 1028 -1241 775 -1147 
L 775 -588 
Q 1028 -725 1275 -790 
Q 1522 -856 1778 -856 
Q 2344 -856 2625 -561 
Q 2906 -266 2906 331 
L 2906 616 
Q 2728 306 2450 153 
Q 2172 0 1784 0 
Q 1141 0 747 490 
Q 353 981 353 1791 
Q 353 2603 747 3093 
Q 1141 3584 1784 3584 
Q 2172 3584 2450 3431 
Q 2728 3278 2906 2969 
L 2906 3500 
L 3481 3500 
L 3481 434 
z
" transform="scale(0.015625)"/>
       <path id="DejaVuSans-68" d="M 3513 2113 
L 3513 0 
L 2938 0 
L 2938 2094 
Q 2938 2591 2744 2837 
Q 2550 3084 2163 3084 
Q 1697 3084 1428 2787 
Q 1159 2491 1159 1978 
L 1159 0 
L 581 0 
L 581 4863 
L 1159 4863 
L 1159 2956 
Q 1366 3272 1645 3428 
Q 1925 3584 2291 3584 
Q 2894 3584 3203 3211 
Q 3513 2838 3513 2113 
z
" transform="scale(0.015625)"/>
       <path id="DejaVuSans-63" d="M 3122 3366 
L 3122 2828 
Q 2878 2963 2633 3030 
Q 2388 3097 2138 3097 
Q 1578 3097 1268 2742 
Q 959 2388 959 1747 
Q 959 1106 1268 751 
Q 1578 397 2138 397 
Q 2388 397 2633 464 
Q 2878 531 3122 666 
L 3122 134 
Q 2881 22 2623 -34 
Q 2366 -91 2075 -91 
Q 1284 -91 818 406 
Q 353 903 353 1747 
Q 353 2603 823 3093 
Q 1294 3584 2113 3584 
Q 2378 3584 2631 3529 
Q 2884 3475 3122 3366 
z
" transform="scale(0.015625)"/>
      </defs>
      <use xlink:href="#DejaVuSans-4c"/>
      <use xlink:href="#DejaVuSans-6f" x="53.962891"/>
      <use xlink:href="#DejaVuSans-67" x="115.144531"/>
      <use xlink:href="#DejaVuSans-61" x="178.621094"/>
      <use xlink:href="#DejaVuSans-72" x="239.900391"/>
      <use xlink:href="#DejaVuSans-69" x="281.013672"/>
      <use xlink:href="#DejaVuSans-74" x="308.796875"/>
      <use xlink:href="#DejaVuSans-68" x="348.005859"/>
      <use xlink:href="#DejaVuSans-6d" x="411.384766"/>
      <use xlink:href="#DejaVuSans-69" x="508.796875"/>
      <use xlink:href="#DejaVuSans-63" x="536.580078"/>
      <use xlink:href="#DejaVuSans-20" x="591.560547"/>
      <use xlink:href="#DejaVuSans-54" x="623.347656"/>
      <use xlink:href="#DejaVuSans-72" x="669.681641"/>
      <use xlink:href="#DejaVuSans-65" x="708.544922"/>
      <use xlink:href="#DejaVuSans-6e" x="770.068359"/>
      <use xlink:href="#DejaVuSans-64" x="833.447266"/>
      <use xlink:href="#DejaVuSans-6c" x="896.923828"/>
      <use xlink:href="#DejaVuSans-69" x="924.707031"/>
      <use xlink:href="#DejaVuSans-6e" x="952.490234"/>
      <use xlink:href="#DejaVuSans-65" x="1015.869141"/>
     </g>
    </g>
   </g>
  </g>
 </g>
 <defs>
  <clipPath id="p9ff9d00d6f">
   <rect x="51.323438" y="-0" width="357.12" height="266.112"/>
  </clipPath>
 </defs>
</svg>
