<?xml version="1.0" encoding="utf-8" standalone="no"?>
<!DOCTYPE svg PUBLIC "-//W3C//DTD SVG 1.1//EN"
  "http://www.w3.org/Graphics/SVG/1.1/DTD/svg11.dtd">
<svg xmlns:xlink="http://www.w3.org/1999/xlink" width="402.080938pt" height="296.46825pt" viewBox="0 0 402.080938 296.46825" xmlns="http://www.w3.org/2000/svg" version="1.1">
 <metadata>
  <rdf:RDF xmlns:dc="http://purl.org/dc/elements/1.1/" xmlns:cc="http://creativecommons.org/ns#" xmlns:rdf="http://www.w3.org/1999/02/22-rdf-syntax-ns#">
   <cc:Work>
    <dc:type rdf:resource="http://purl.org/dc/dcmitype/StillImage"/>
    <dc:date>2023-06-13T21:07:46.791092</dc:date>
    <dc:format>image/svg+xml</dc:format>
    <dc:creator>
     <cc:Agent>
      <dc:title>Matplotlib v3.5.2, https://matplotlib.org/</dc:title>
     </cc:Agent>
    </dc:creator>
   </cc:Work>
  </rdf:RDF>
 </metadata>
 <defs>
  <style type="text/css">*{stroke-linejoin: round; stroke-linecap: butt}</style>
 </defs>
 <g id="figure_1">
  <g id="patch_1">
   <path d="M 0 296.46825 
L 402.080938 296.46825 
L 402.080938 0 
L 0 0 
z
" style="fill: #ffffff"/>
  </g>
  <g id="axes_1">
   <g id="patch_2">
    <path d="M 44.960938 266.112 
L 402.080938 266.112 
L 402.080938 -0 
L 44.960938 -0 
z
" style="fill: #ffffff"/>
   </g>
   <g id="PathCollection_1">
    <path d="M 61.193665 216.363437 
L 58.193665 222.363437 
L 64.193665 222.363437 
z
" clip-path="url(#pd2a06f4776)" style="fill: #440154; stroke: #440154"/>
    <path d="M 69.51814 207.709804 
L 66.51814 213.709804 
L 72.51814 213.709804 
z
" clip-path="url(#pd2a06f4776)" style="fill: #471365; stroke: #471365"/>
    <path d="M 86.167091 196.670229 
L 83.167091 202.670229 
L 89.167091 202.670229 
z
" clip-path="url(#pd2a06f4776)" style="fill: #482677; stroke: #482677"/>
    <path d="M 90.329329 190.330478 
L 87.329329 196.330478 
L 93.329329 196.330478 
z
" clip-path="url(#pd2a06f4776)" style="fill: #46327e; stroke: #46327e"/>
    <path d="M 94.491567 184.384193 
L 91.491567 190.384193 
L 97.491567 190.384193 
z
" clip-path="url(#pd2a06f4776)" style="fill: #443b84; stroke: #443b84"/>
    <path d="M 106.97828 184.102512 
L 103.97828 190.102512 
L 109.97828 190.102512 
z
" clip-path="url(#pd2a06f4776)" style="fill: #433d84; stroke: #433d84"/>
    <path d="M 115.302756 179.979409 
L 112.302756 185.979409 
L 118.302756 185.979409 
z
" clip-path="url(#pd2a06f4776)" style="fill: #414287; stroke: #414287"/>
    <path d="M 127.789469 176.739961 
L 124.789469 182.739961 
L 130.789469 182.739961 
z
" clip-path="url(#pd2a06f4776)" style="fill: #3f4889; stroke: #3f4889"/>
    <path d="M 127.789469 176.088027 
L 124.789469 182.088027 
L 130.789469 182.088027 
z
" clip-path="url(#pd2a06f4776)" style="fill: #3e4989; stroke: #3e4989"/>
    <path d="M 127.789469 171.564253 
L 124.789469 177.564253 
L 130.789469 177.564253 
z
" clip-path="url(#pd2a06f4776)" style="fill: #3c508b; stroke: #3c508b"/>
    <path d="M 136.113944 170.871715 
L 133.113944 176.871715 
L 139.113944 176.871715 
z
" clip-path="url(#pd2a06f4776)" style="fill: #3b518b; stroke: #3b518b"/>
    <path d="M 136.113944 169.787769 
L 133.113944 175.787769 
L 139.113944 175.787769 
z
" clip-path="url(#pd2a06f4776)" style="fill: #3b528b; stroke: #3b528b"/>
    <path d="M 136.113944 169.123316 
L 133.113944 175.123316 
L 139.113944 175.123316 
z
" clip-path="url(#pd2a06f4776)" style="fill: #3a538b; stroke: #3a538b"/>
    <path d="M 161.087371 166.052455 
L 158.087371 172.052455 
L 164.087371 172.052455 
z
" clip-path="url(#pd2a06f4776)" style="fill: #38598c; stroke: #38598c"/>
    <path d="M 165.249609 162.380288 
L 162.249609 168.380288 
L 168.249609 168.380288 
z
" clip-path="url(#pd2a06f4776)" style="fill: #355e8d; stroke: #355e8d"/>
    <path d="M 165.249609 161.19198 
L 162.249609 167.19198 
L 168.249609 167.19198 
z
" clip-path="url(#pd2a06f4776)" style="fill: #355f8d; stroke: #355f8d"/>
    <path d="M 169.411847 160.533109 
L 166.411847 166.533109 
L 172.411847 166.533109 
z
" clip-path="url(#pd2a06f4776)" style="fill: #34608d; stroke: #34608d"/>
    <path d="M 169.411847 156.58075 
L 166.411847 162.58075 
L 172.411847 162.58075 
z
" clip-path="url(#pd2a06f4776)" style="fill: #31668e; stroke: #31668e"/>
    <path d="M 181.89856 156.149754 
L 178.89856 162.149754 
L 184.89856 162.149754 
z
" clip-path="url(#pd2a06f4776)" style="fill: #31678e; stroke: #31678e"/>
    <path d="M 181.89856 140.725998 
L 178.89856 146.725998 
L 184.89856 146.725998 
z
" clip-path="url(#pd2a06f4776)" style="fill: #297b8e; stroke: #297b8e"/>
    <path d="M 186.060798 136.529732 
L 183.060798 142.529732 
L 189.060798 142.529732 
z
" clip-path="url(#pd2a06f4776)" style="fill: #26818e; stroke: #26818e"/>
    <path d="M 190.223035 132.46395 
L 187.223035 138.46395 
L 193.223035 138.46395 
z
" clip-path="url(#pd2a06f4776)" style="fill: #24868e; stroke: #24868e"/>
    <path d="M 190.223035 128.806428 
L 187.223035 134.806428 
L 193.223035 134.806428 
z
" clip-path="url(#pd2a06f4776)" style="fill: #228b8d; stroke: #228b8d"/>
    <path d="M 198.547511 118.890793 
L 195.547511 124.890793 
L 201.547511 124.890793 
z
" clip-path="url(#pd2a06f4776)" style="fill: #1f988b; stroke: #1f988b"/>
    <path d="M 202.709749 117.038315 
L 199.709749 123.038315 
L 205.709749 123.038315 
z
" clip-path="url(#pd2a06f4776)" style="fill: #1f9a8a; stroke: #1f9a8a"/>
    <path d="M 219.3587 111.51382 
L 216.3587 117.51382 
L 222.3587 117.51382 
z
" clip-path="url(#pd2a06f4776)" style="fill: #1fa187; stroke: #1fa187"/>
    <path d="M 227.683175 107.540695 
L 224.683175 113.540695 
L 230.683175 113.540695 
z
" clip-path="url(#pd2a06f4776)" style="fill: #21a685; stroke: #21a685"/>
    <path d="M 231.845413 105.454915 
L 228.845413 111.454915 
L 234.845413 111.454915 
z
" clip-path="url(#pd2a06f4776)" style="fill: #23a983; stroke: #23a983"/>
    <path d="M 240.169889 79.36552 
L 237.169889 85.36552 
L 243.169889 85.36552 
z
" clip-path="url(#pd2a06f4776)" style="fill: #5cc863; stroke: #5cc863"/>
    <path d="M 269.305553 75.000365 
L 266.305553 81.000365 
L 272.305553 81.000365 
z
" clip-path="url(#pd2a06f4776)" style="fill: #69cd5b; stroke: #69cd5b"/>
    <path d="M 269.305553 73.541867 
L 266.305553 79.541867 
L 272.305553 79.541867 
z
" clip-path="url(#pd2a06f4776)" style="fill: #6ece58; stroke: #6ece58"/>
    <path d="M 277.630028 71.023953 
L 274.630028 77.023953 
L 280.630028 77.023953 
z
" clip-path="url(#pd2a06f4776)" style="fill: #75d054; stroke: #75d054"/>
    <path d="M 298.441217 66.087807 
L 295.441217 72.087807 
L 301.441217 72.087807 
z
" clip-path="url(#pd2a06f4776)" style="fill: #86d549; stroke: #86d549"/>
    <path d="M 310.927931 59.715003 
L 307.927931 65.715003 
L 313.927931 65.715003 
z
" clip-path="url(#pd2a06f4776)" style="fill: #9dd93b; stroke: #9dd93b"/>
    <path d="M 315.090168 51.055342 
L 312.090168 57.055342 
L 318.090168 57.055342 
z
" clip-path="url(#pd2a06f4776)" style="fill: #bddf26; stroke: #bddf26"/>
    <path d="M 319.252406 39.018522 
L 316.252406 45.018522 
L 322.252406 45.018522 
z
" clip-path="url(#pd2a06f4776)" style="fill: #eae51a; stroke: #eae51a"/>
    <path d="M 344.225833 36.473196 
L 341.225833 42.473196 
L 347.225833 42.473196 
z
" clip-path="url(#pd2a06f4776)" style="fill: #f4e61e; stroke: #f4e61e"/>
    <path d="M 385.84821 32.917485 
L 382.84821 38.917485 
L 388.84821 38.917485 
z
" clip-path="url(#pd2a06f4776)" style="fill: #fde725; stroke: #fde725"/>
   </g>
   <g id="matplotlib.axis_1">
    <g id="xtick_1">
     <g id="line2d_1">
      <defs>
       <path id="mf0a5323b99" d="M 0 0 
L 0 3.5 
" style="stroke: #000000; stroke-width: 0.8"/>
      </defs>
      <g>
       <use xlink:href="#mf0a5323b99" x="74.374859" y="266.112" style="stroke: #000000; stroke-width: 0.8"/>
      </g>
     </g>
     <g id="text_1">
      <!-- 2 -->
      <g transform="translate(71.193609 280.710437)scale(0.1 -0.1)">
       <defs>
        <path id="DejaVuSans-32" d="M 1228 531 
L 3431 531 
L 3431 0 
L 469 0 
L 469 531 
Q 828 903 1448 1529 
Q 2069 2156 2228 2338 
Q 2531 2678 2651 2914 
Q 2772 3150 2772 3378 
Q 2772 3750 2511 3984 
Q 2250 4219 1831 4219 
Q 1534 4219 1204 4116 
Q 875 4013 500 3803 
L 500 4441 
Q 881 4594 1212 4672 
Q 1544 4750 1819 4750 
Q 2544 4750 2975 4387 
Q 3406 4025 3406 3419 
Q 3406 3131 3298 2873 
Q 3191 2616 2906 2266 
Q 2828 2175 2409 1742 
Q 1991 1309 1228 531 
z
" transform="scale(0.015625)"/>
       </defs>
       <use xlink:href="#DejaVuSans-32"/>
      </g>
     </g>
    </g>
    <g id="xtick_2">
     <g id="line2d_2">
      <g>
       <use xlink:href="#mf0a5323b99" x="141.665144" y="266.112" style="stroke: #000000; stroke-width: 0.8"/>
      </g>
     </g>
     <g id="text_2">
      <!-- 4 -->
      <g transform="translate(138.483894 280.710437)scale(0.1 -0.1)">
       <defs>
        <path id="DejaVuSans-34" d="M 2419 4116 
L 825 1625 
L 2419 1625 
L 2419 4116 
z
M 2253 4666 
L 3047 4666 
L 3047 1625 
L 3713 1625 
L 3713 1100 
L 3047 1100 
L 3047 0 
L 2419 0 
L 2419 1100 
L 313 1100 
L 313 1709 
L 2253 4666 
z
" transform="scale(0.015625)"/>
       </defs>
       <use xlink:href="#DejaVuSans-34"/>
      </g>
     </g>
    </g>
    <g id="xtick_3">
     <g id="line2d_3">
      <g>
       <use xlink:href="#mf0a5323b99" x="208.955429" y="266.112" style="stroke: #000000; stroke-width: 0.8"/>
      </g>
     </g>
     <g id="text_3">
      <!-- 6 -->
      <g transform="translate(205.774179 280.710437)scale(0.1 -0.1)">
       <defs>
        <path id="DejaVuSans-36" d="M 2113 2584 
Q 1688 2584 1439 2293 
Q 1191 2003 1191 1497 
Q 1191 994 1439 701 
Q 1688 409 2113 409 
Q 2538 409 2786 701 
Q 3034 994 3034 1497 
Q 3034 2003 2786 2293 
Q 2538 2584 2113 2584 
z
M 3366 4563 
L 3366 3988 
Q 3128 4100 2886 4159 
Q 2644 4219 2406 4219 
Q 1781 4219 1451 3797 
Q 1122 3375 1075 2522 
Q 1259 2794 1537 2939 
Q 1816 3084 2150 3084 
Q 2853 3084 3261 2657 
Q 3669 2231 3669 1497 
Q 3669 778 3244 343 
Q 2819 -91 2113 -91 
Q 1303 -91 875 529 
Q 447 1150 447 2328 
Q 447 3434 972 4092 
Q 1497 4750 2381 4750 
Q 2619 4750 2861 4703 
Q 3103 4656 3366 4563 
z
" transform="scale(0.015625)"/>
       </defs>
       <use xlink:href="#DejaVuSans-36"/>
      </g>
     </g>
    </g>
    <g id="xtick_4">
     <g id="line2d_4">
      <g>
       <use xlink:href="#mf0a5323b99" x="276.245714" y="266.112" style="stroke: #000000; stroke-width: 0.8"/>
      </g>
     </g>
     <g id="text_4">
      <!-- 8 -->
      <g transform="translate(273.064464 280.710437)scale(0.1 -0.1)">
       <defs>
        <path id="DejaVuSans-38" d="M 2034 2216 
Q 1584 2216 1326 1975 
Q 1069 1734 1069 1313 
Q 1069 891 1326 650 
Q 1584 409 2034 409 
Q 2484 409 2743 651 
Q 3003 894 3003 1313 
Q 3003 1734 2745 1975 
Q 2488 2216 2034 2216 
z
M 1403 2484 
Q 997 2584 770 2862 
Q 544 3141 544 3541 
Q 544 4100 942 4425 
Q 1341 4750 2034 4750 
Q 2731 4750 3128 4425 
Q 3525 4100 3525 3541 
Q 3525 3141 3298 2862 
Q 3072 2584 2669 2484 
Q 3125 2378 3379 2068 
Q 3634 1759 3634 1313 
Q 3634 634 3220 271 
Q 2806 -91 2034 -91 
Q 1263 -91 848 271 
Q 434 634 434 1313 
Q 434 1759 690 2068 
Q 947 2378 1403 2484 
z
M 1172 3481 
Q 1172 3119 1398 2916 
Q 1625 2713 2034 2713 
Q 2441 2713 2670 2916 
Q 2900 3119 2900 3481 
Q 2900 3844 2670 4047 
Q 2441 4250 2034 4250 
Q 1625 4250 1398 4047 
Q 1172 3844 1172 3481 
z
" transform="scale(0.015625)"/>
       </defs>
       <use xlink:href="#DejaVuSans-38"/>
      </g>
     </g>
    </g>
    <g id="xtick_5">
     <g id="line2d_5">
      <g>
       <use xlink:href="#mf0a5323b99" x="343.536" y="266.112" style="stroke: #000000; stroke-width: 0.8"/>
      </g>
     </g>
     <g id="text_5">
      <!-- 10 -->
      <g transform="translate(337.1735 280.710437)scale(0.1 -0.1)">
       <defs>
        <path id="DejaVuSans-31" d="M 794 531 
L 1825 531 
L 1825 4091 
L 703 3866 
L 703 4441 
L 1819 4666 
L 2450 4666 
L 2450 531 
L 3481 531 
L 3481 0 
L 794 0 
L 794 531 
z
" transform="scale(0.015625)"/>
        <path id="DejaVuSans-30" d="M 2034 4250 
Q 1547 4250 1301 3770 
Q 1056 3291 1056 2328 
Q 1056 1369 1301 889 
Q 1547 409 2034 409 
Q 2525 409 2770 889 
Q 3016 1369 3016 2328 
Q 3016 3291 2770 3770 
Q 2525 4250 2034 4250 
z
M 2034 4750 
Q 2819 4750 3233 4129 
Q 3647 3509 3647 2328 
Q 3647 1150 3233 529 
Q 2819 -91 2034 -91 
Q 1250 -91 836 529 
Q 422 1150 422 2328 
Q 422 3509 836 4129 
Q 1250 4750 2034 4750 
z
" transform="scale(0.015625)"/>
       </defs>
       <use xlink:href="#DejaVuSans-31"/>
       <use xlink:href="#DejaVuSans-30" x="63.623047"/>
      </g>
     </g>
    </g>
    <g id="text_6">
     <!-- Eddy Area [10^3 * km^2] -->
     <g transform="translate(157.921719 294.388562)scale(0.1 -0.1)">
      <defs>
       <path id="DejaVuSans-45" d="M 628 4666 
L 3578 4666 
L 3578 4134 
L 1259 4134 
L 1259 2753 
L 3481 2753 
L 3481 2222 
L 1259 2222 
L 1259 531 
L 3634 531 
L 3634 0 
L 628 0 
L 628 4666 
z
" transform="scale(0.015625)"/>
       <path id="DejaVuSans-64" d="M 2906 2969 
L 2906 4863 
L 3481 4863 
L 3481 0 
L 2906 0 
L 2906 525 
Q 2725 213 2448 61 
Q 2172 -91 1784 -91 
Q 1150 -91 751 415 
Q 353 922 353 1747 
Q 353 2572 751 3078 
Q 1150 3584 1784 3584 
Q 2172 3584 2448 3432 
Q 2725 3281 2906 2969 
z
M 947 1747 
Q 947 1113 1208 752 
Q 1469 391 1925 391 
Q 2381 391 2643 752 
Q 2906 1113 2906 1747 
Q 2906 2381 2643 2742 
Q 2381 3103 1925 3103 
Q 1469 3103 1208 2742 
Q 947 2381 947 1747 
z
" transform="scale(0.015625)"/>
       <path id="DejaVuSans-79" d="M 2059 -325 
Q 1816 -950 1584 -1140 
Q 1353 -1331 966 -1331 
L 506 -1331 
L 506 -850 
L 844 -850 
Q 1081 -850 1212 -737 
Q 1344 -625 1503 -206 
L 1606 56 
L 191 3500 
L 800 3500 
L 1894 763 
L 2988 3500 
L 3597 3500 
L 2059 -325 
z
" transform="scale(0.015625)"/>
       <path id="DejaVuSans-20" transform="scale(0.015625)"/>
       <path id="DejaVuSans-41" d="M 2188 4044 
L 1331 1722 
L 3047 1722 
L 2188 4044 
z
M 1831 4666 
L 2547 4666 
L 4325 0 
L 3669 0 
L 3244 1197 
L 1141 1197 
L 716 0 
L 50 0 
L 1831 4666 
z
" transform="scale(0.015625)"/>
       <path id="DejaVuSans-72" d="M 2631 2963 
Q 2534 3019 2420 3045 
Q 2306 3072 2169 3072 
Q 1681 3072 1420 2755 
Q 1159 2438 1159 1844 
L 1159 0 
L 581 0 
L 581 3500 
L 1159 3500 
L 1159 2956 
Q 1341 3275 1631 3429 
Q 1922 3584 2338 3584 
Q 2397 3584 2469 3576 
Q 2541 3569 2628 3553 
L 2631 2963 
z
" transform="scale(0.015625)"/>
       <path id="DejaVuSans-65" d="M 3597 1894 
L 3597 1613 
L 953 1613 
Q 991 1019 1311 708 
Q 1631 397 2203 397 
Q 2534 397 2845 478 
Q 3156 559 3463 722 
L 3463 178 
Q 3153 47 2828 -22 
Q 2503 -91 2169 -91 
Q 1331 -91 842 396 
Q 353 884 353 1716 
Q 353 2575 817 3079 
Q 1281 3584 2069 3584 
Q 2775 3584 3186 3129 
Q 3597 2675 3597 1894 
z
M 3022 2063 
Q 3016 2534 2758 2815 
Q 2500 3097 2075 3097 
Q 1594 3097 1305 2825 
Q 1016 2553 972 2059 
L 3022 2063 
z
" transform="scale(0.015625)"/>
       <path id="DejaVuSans-61" d="M 2194 1759 
Q 1497 1759 1228 1600 
Q 959 1441 959 1056 
Q 959 750 1161 570 
Q 1363 391 1709 391 
Q 2188 391 2477 730 
Q 2766 1069 2766 1631 
L 2766 1759 
L 2194 1759 
z
M 3341 1997 
L 3341 0 
L 2766 0 
L 2766 531 
Q 2569 213 2275 61 
Q 1981 -91 1556 -91 
Q 1019 -91 701 211 
Q 384 513 384 1019 
Q 384 1609 779 1909 
Q 1175 2209 1959 2209 
L 2766 2209 
L 2766 2266 
Q 2766 2663 2505 2880 
Q 2244 3097 1772 3097 
Q 1472 3097 1187 3025 
Q 903 2953 641 2809 
L 641 3341 
Q 956 3463 1253 3523 
Q 1550 3584 1831 3584 
Q 2591 3584 2966 3190 
Q 3341 2797 3341 1997 
z
" transform="scale(0.015625)"/>
       <path id="DejaVuSans-5b" d="M 550 4863 
L 1875 4863 
L 1875 4416 
L 1125 4416 
L 1125 -397 
L 1875 -397 
L 1875 -844 
L 550 -844 
L 550 4863 
z
" transform="scale(0.015625)"/>
       <path id="DejaVuSans-5e" d="M 2988 4666 
L 4684 2925 
L 4056 2925 
L 2681 4159 
L 1306 2925 
L 678 2925 
L 2375 4666 
L 2988 4666 
z
" transform="scale(0.015625)"/>
       <path id="DejaVuSans-33" d="M 2597 2516 
Q 3050 2419 3304 2112 
Q 3559 1806 3559 1356 
Q 3559 666 3084 287 
Q 2609 -91 1734 -91 
Q 1441 -91 1130 -33 
Q 819 25 488 141 
L 488 750 
Q 750 597 1062 519 
Q 1375 441 1716 441 
Q 2309 441 2620 675 
Q 2931 909 2931 1356 
Q 2931 1769 2642 2001 
Q 2353 2234 1838 2234 
L 1294 2234 
L 1294 2753 
L 1863 2753 
Q 2328 2753 2575 2939 
Q 2822 3125 2822 3475 
Q 2822 3834 2567 4026 
Q 2313 4219 1838 4219 
Q 1578 4219 1281 4162 
Q 984 4106 628 3988 
L 628 4550 
Q 988 4650 1302 4700 
Q 1616 4750 1894 4750 
Q 2613 4750 3031 4423 
Q 3450 4097 3450 3541 
Q 3450 3153 3228 2886 
Q 3006 2619 2597 2516 
z
" transform="scale(0.015625)"/>
       <path id="DejaVuSans-2a" d="M 3009 3897 
L 1888 3291 
L 3009 2681 
L 2828 2375 
L 1778 3009 
L 1778 1831 
L 1422 1831 
L 1422 3009 
L 372 2375 
L 191 2681 
L 1313 3291 
L 191 3897 
L 372 4206 
L 1422 3572 
L 1422 4750 
L 1778 4750 
L 1778 3572 
L 2828 4206 
L 3009 3897 
z
" transform="scale(0.015625)"/>
       <path id="DejaVuSans-6b" d="M 581 4863 
L 1159 4863 
L 1159 1991 
L 2875 3500 
L 3609 3500 
L 1753 1863 
L 3688 0 
L 2938 0 
L 1159 1709 
L 1159 0 
L 581 0 
L 581 4863 
z
" transform="scale(0.015625)"/>
       <path id="DejaVuSans-6d" d="M 3328 2828 
Q 3544 3216 3844 3400 
Q 4144 3584 4550 3584 
Q 5097 3584 5394 3201 
Q 5691 2819 5691 2113 
L 5691 0 
L 5113 0 
L 5113 2094 
Q 5113 2597 4934 2840 
Q 4756 3084 4391 3084 
Q 3944 3084 3684 2787 
Q 3425 2491 3425 1978 
L 3425 0 
L 2847 0 
L 2847 2094 
Q 2847 2600 2669 2842 
Q 2491 3084 2119 3084 
Q 1678 3084 1418 2786 
Q 1159 2488 1159 1978 
L 1159 0 
L 581 0 
L 581 3500 
L 1159 3500 
L 1159 2956 
Q 1356 3278 1631 3431 
Q 1906 3584 2284 3584 
Q 2666 3584 2933 3390 
Q 3200 3197 3328 2828 
z
" transform="scale(0.015625)"/>
       <path id="DejaVuSans-5d" d="M 1947 4863 
L 1947 -844 
L 622 -844 
L 622 -397 
L 1369 -397 
L 1369 4416 
L 622 4416 
L 622 4863 
L 1947 4863 
z
" transform="scale(0.015625)"/>
      </defs>
      <use xlink:href="#DejaVuSans-45"/>
      <use xlink:href="#DejaVuSans-64" x="63.183594"/>
      <use xlink:href="#DejaVuSans-64" x="126.660156"/>
      <use xlink:href="#DejaVuSans-79" x="190.136719"/>
      <use xlink:href="#DejaVuSans-20" x="249.316406"/>
      <use xlink:href="#DejaVuSans-41" x="281.103516"/>
      <use xlink:href="#DejaVuSans-72" x="349.511719"/>
      <use xlink:href="#DejaVuSans-65" x="388.375"/>
      <use xlink:href="#DejaVuSans-61" x="449.898438"/>
      <use xlink:href="#DejaVuSans-20" x="511.177734"/>
      <use xlink:href="#DejaVuSans-5b" x="542.964844"/>
      <use xlink:href="#DejaVuSans-31" x="581.978516"/>
      <use xlink:href="#DejaVuSans-30" x="645.601562"/>
      <use xlink:href="#DejaVuSans-5e" x="709.224609"/>
      <use xlink:href="#DejaVuSans-33" x="793.013672"/>
      <use xlink:href="#DejaVuSans-20" x="856.636719"/>
      <use xlink:href="#DejaVuSans-2a" x="888.423828"/>
      <use xlink:href="#DejaVuSans-20" x="938.423828"/>
      <use xlink:href="#DejaVuSans-6b" x="970.210938"/>
      <use xlink:href="#DejaVuSans-6d" x="1028.121094"/>
      <use xlink:href="#DejaVuSans-5e" x="1125.533203"/>
      <use xlink:href="#DejaVuSans-32" x="1209.322266"/>
      <use xlink:href="#DejaVuSans-5d" x="1272.945312"/>
     </g>
    </g>
   </g>
   <g id="matplotlib.axis_2">
    <g id="ytick_1">
     <g id="line2d_6">
      <defs>
       <path id="m23fb1ba811" d="M 0 0 
L -3.5 0 
" style="stroke: #000000; stroke-width: 0.8"/>
      </defs>
      <g>
       <use xlink:href="#m23fb1ba811" x="44.960938" y="241.828816" style="stroke: #000000; stroke-width: 0.8"/>
      </g>
     </g>
     <g id="text_7">
      <!-- −0.6 -->
      <g transform="translate(13.678125 245.628035)scale(0.1 -0.1)">
       <defs>
        <path id="DejaVuSans-2212" d="M 678 2272 
L 4684 2272 
L 4684 1741 
L 678 1741 
L 678 2272 
z
" transform="scale(0.015625)"/>
        <path id="DejaVuSans-2e" d="M 684 794 
L 1344 794 
L 1344 0 
L 684 0 
L 684 794 
z
" transform="scale(0.015625)"/>
       </defs>
       <use xlink:href="#DejaVuSans-2212"/>
       <use xlink:href="#DejaVuSans-30" x="83.789062"/>
       <use xlink:href="#DejaVuSans-2e" x="147.412109"/>
       <use xlink:href="#DejaVuSans-36" x="179.199219"/>
      </g>
     </g>
    </g>
    <g id="ytick_2">
     <g id="line2d_7">
      <g>
       <use xlink:href="#m23fb1ba811" x="44.960938" y="212.169736" style="stroke: #000000; stroke-width: 0.8"/>
      </g>
     </g>
     <g id="text_8">
      <!-- −0.4 -->
      <g transform="translate(13.678125 215.968954)scale(0.1 -0.1)">
       <use xlink:href="#DejaVuSans-2212"/>
       <use xlink:href="#DejaVuSans-30" x="83.789062"/>
       <use xlink:href="#DejaVuSans-2e" x="147.412109"/>
       <use xlink:href="#DejaVuSans-34" x="179.199219"/>
      </g>
     </g>
    </g>
    <g id="ytick_3">
     <g id="line2d_8">
      <g>
       <use xlink:href="#m23fb1ba811" x="44.960938" y="182.510655" style="stroke: #000000; stroke-width: 0.8"/>
      </g>
     </g>
     <g id="text_9">
      <!-- −0.2 -->
      <g transform="translate(13.678125 186.309874)scale(0.1 -0.1)">
       <use xlink:href="#DejaVuSans-2212"/>
       <use xlink:href="#DejaVuSans-30" x="83.789062"/>
       <use xlink:href="#DejaVuSans-2e" x="147.412109"/>
       <use xlink:href="#DejaVuSans-32" x="179.199219"/>
      </g>
     </g>
    </g>
    <g id="ytick_4">
     <g id="line2d_9">
      <g>
       <use xlink:href="#m23fb1ba811" x="44.960938" y="152.851574" style="stroke: #000000; stroke-width: 0.8"/>
      </g>
     </g>
     <g id="text_10">
      <!-- 0.0 -->
      <g transform="translate(22.057813 156.650793)scale(0.1 -0.1)">
       <use xlink:href="#DejaVuSans-30"/>
       <use xlink:href="#DejaVuSans-2e" x="63.623047"/>
       <use xlink:href="#DejaVuSans-30" x="95.410156"/>
      </g>
     </g>
    </g>
    <g id="ytick_5">
     <g id="line2d_10">
      <g>
       <use xlink:href="#m23fb1ba811" x="44.960938" y="123.192494" style="stroke: #000000; stroke-width: 0.8"/>
      </g>
     </g>
     <g id="text_11">
      <!-- 0.2 -->
      <g transform="translate(22.057813 126.991713)scale(0.1 -0.1)">
       <use xlink:href="#DejaVuSans-30"/>
       <use xlink:href="#DejaVuSans-2e" x="63.623047"/>
       <use xlink:href="#DejaVuSans-32" x="95.410156"/>
      </g>
     </g>
    </g>
    <g id="ytick_6">
     <g id="line2d_11">
      <g>
       <use xlink:href="#m23fb1ba811" x="44.960938" y="93.533413" style="stroke: #000000; stroke-width: 0.8"/>
      </g>
     </g>
     <g id="text_12">
      <!-- 0.4 -->
      <g transform="translate(22.057813 97.332632)scale(0.1 -0.1)">
       <use xlink:href="#DejaVuSans-30"/>
       <use xlink:href="#DejaVuSans-2e" x="63.623047"/>
       <use xlink:href="#DejaVuSans-34" x="95.410156"/>
      </g>
     </g>
    </g>
    <g id="ytick_7">
     <g id="line2d_12">
      <g>
       <use xlink:href="#m23fb1ba811" x="44.960938" y="63.874333" style="stroke: #000000; stroke-width: 0.8"/>
      </g>
     </g>
     <g id="text_13">
      <!-- 0.6 -->
      <g transform="translate(22.057813 67.673551)scale(0.1 -0.1)">
       <use xlink:href="#DejaVuSans-30"/>
       <use xlink:href="#DejaVuSans-2e" x="63.623047"/>
       <use xlink:href="#DejaVuSans-36" x="95.410156"/>
      </g>
     </g>
    </g>
    <g id="ytick_8">
     <g id="line2d_13">
      <g>
       <use xlink:href="#m23fb1ba811" x="44.960938" y="34.215252" style="stroke: #000000; stroke-width: 0.8"/>
      </g>
     </g>
     <g id="text_14">
      <!-- 0.8 -->
      <g transform="translate(22.057813 38.014471)scale(0.1 -0.1)">
       <use xlink:href="#DejaVuSans-30"/>
       <use xlink:href="#DejaVuSans-2e" x="63.623047"/>
       <use xlink:href="#DejaVuSans-38" x="95.410156"/>
      </g>
     </g>
    </g>
    <g id="ytick_9">
     <g id="line2d_14">
      <g>
       <use xlink:href="#m23fb1ba811" x="44.960938" y="4.556172" style="stroke: #000000; stroke-width: 0.8"/>
      </g>
     </g>
     <g id="text_15">
      <!-- 1.0 -->
      <g transform="translate(22.057813 8.35539)scale(0.1 -0.1)">
       <use xlink:href="#DejaVuSans-31"/>
       <use xlink:href="#DejaVuSans-2e" x="63.623047"/>
       <use xlink:href="#DejaVuSans-30" x="95.410156"/>
      </g>
     </g>
    </g>
    <g id="text_16">
     <!-- Eddy Amplitude [m] -->
     <g transform="translate(7.598438 183.095844)rotate(-90)scale(0.1 -0.1)">
      <defs>
       <path id="DejaVuSans-70" d="M 1159 525 
L 1159 -1331 
L 581 -1331 
L 581 3500 
L 1159 3500 
L 1159 2969 
Q 1341 3281 1617 3432 
Q 1894 3584 2278 3584 
Q 2916 3584 3314 3078 
Q 3713 2572 3713 1747 
Q 3713 922 3314 415 
Q 2916 -91 2278 -91 
Q 1894 -91 1617 61 
Q 1341 213 1159 525 
z
M 3116 1747 
Q 3116 2381 2855 2742 
Q 2594 3103 2138 3103 
Q 1681 3103 1420 2742 
Q 1159 2381 1159 1747 
Q 1159 1113 1420 752 
Q 1681 391 2138 391 
Q 2594 391 2855 752 
Q 3116 1113 3116 1747 
z
" transform="scale(0.015625)"/>
       <path id="DejaVuSans-6c" d="M 603 4863 
L 1178 4863 
L 1178 0 
L 603 0 
L 603 4863 
z
" transform="scale(0.015625)"/>
       <path id="DejaVuSans-69" d="M 603 3500 
L 1178 3500 
L 1178 0 
L 603 0 
L 603 3500 
z
M 603 4863 
L 1178 4863 
L 1178 4134 
L 603 4134 
L 603 4863 
z
" transform="scale(0.015625)"/>
       <path id="DejaVuSans-74" d="M 1172 4494 
L 1172 3500 
L 2356 3500 
L 2356 3053 
L 1172 3053 
L 1172 1153 
Q 1172 725 1289 603 
Q 1406 481 1766 481 
L 2356 481 
L 2356 0 
L 1766 0 
Q 1100 0 847 248 
Q 594 497 594 1153 
L 594 3053 
L 172 3053 
L 172 3500 
L 594 3500 
L 594 4494 
L 1172 4494 
z
" transform="scale(0.015625)"/>
       <path id="DejaVuSans-75" d="M 544 1381 
L 544 3500 
L 1119 3500 
L 1119 1403 
Q 1119 906 1312 657 
Q 1506 409 1894 409 
Q 2359 409 2629 706 
Q 2900 1003 2900 1516 
L 2900 3500 
L 3475 3500 
L 3475 0 
L 2900 0 
L 2900 538 
Q 2691 219 2414 64 
Q 2138 -91 1772 -91 
Q 1169 -91 856 284 
Q 544 659 544 1381 
z
M 1991 3584 
L 1991 3584 
z
" transform="scale(0.015625)"/>
      </defs>
      <use xlink:href="#DejaVuSans-45"/>
      <use xlink:href="#DejaVuSans-64" x="63.183594"/>
      <use xlink:href="#DejaVuSans-64" x="126.660156"/>
      <use xlink:href="#DejaVuSans-79" x="190.136719"/>
      <use xlink:href="#DejaVuSans-20" x="249.316406"/>
      <use xlink:href="#DejaVuSans-41" x="281.103516"/>
      <use xlink:href="#DejaVuSans-6d" x="349.511719"/>
      <use xlink:href="#DejaVuSans-70" x="446.923828"/>
      <use xlink:href="#DejaVuSans-6c" x="510.400391"/>
      <use xlink:href="#DejaVuSans-69" x="538.183594"/>
      <use xlink:href="#DejaVuSans-74" x="565.966797"/>
      <use xlink:href="#DejaVuSans-75" x="605.175781"/>
      <use xlink:href="#DejaVuSans-64" x="668.554688"/>
      <use xlink:href="#DejaVuSans-65" x="732.03125"/>
      <use xlink:href="#DejaVuSans-20" x="793.554688"/>
      <use xlink:href="#DejaVuSans-5b" x="825.341797"/>
      <use xlink:href="#DejaVuSans-6d" x="864.355469"/>
      <use xlink:href="#DejaVuSans-5d" x="961.767578"/>
     </g>
    </g>
   </g>
   <g id="line2d_15">
    <path d="M 61.193665 218.722012 
L 69.51814 213.423909 
L 86.167091 202.827703 
L 90.329329 200.178652 
L 94.491567 197.529601 
L 106.97828 189.582446 
L 115.302756 184.284343 
L 127.789469 176.337189 
L 127.789469 176.337189 
L 127.789469 176.337189 
L 136.113944 171.039086 
L 136.113944 171.039086 
L 136.113944 171.039086 
L 161.087371 155.144778 
L 165.249609 152.495726 
L 165.249609 152.495726 
L 169.411847 149.846675 
L 169.411847 149.846675 
L 181.89856 141.89952 
L 181.89856 141.89952 
L 186.060798 139.250469 
L 190.223035 136.601418 
L 190.223035 136.601418 
L 198.547511 131.303315 
L 202.709749 128.654263 
L 219.3587 118.058057 
L 227.683175 112.759955 
L 231.845413 110.110903 
L 240.169889 104.8128 
L 269.305553 86.26944 
L 269.305553 86.26944 
L 277.630028 80.971337 
L 298.441217 67.72608 
L 310.927931 59.778926 
L 315.090168 57.129874 
L 319.252406 54.480823 
L 344.225833 38.586514 
L 385.84821 12.096 
" clip-path="url(#pd2a06f4776)" style="fill: none; stroke: #000080; stroke-width: 1.5; stroke-linecap: square"/>
   </g>
   <g id="line2d_16">
    <path d="M 61.193665 254.016 
L 69.51814 238.963487 
L 86.167091 214.098189 
L 90.329329 208.702742 
L 94.491567 203.570595 
L 106.97828 189.524675 
L 115.302756 181.105131 
L 127.789469 169.618659 
L 127.789469 169.618659 
L 127.789469 169.618659 
L 136.113944 162.603517 
L 136.113944 162.603517 
L 136.113944 162.603517 
L 161.087371 143.992503 
L 165.249609 141.18732 
L 165.249609 141.18732 
L 169.411847 138.455006 
L 169.411847 138.455006 
L 181.89856 130.659726 
L 181.89856 130.659726 
L 186.060798 128.184597 
L 190.223035 125.766372 
L 190.223035 125.766372 
L 198.547511 121.090573 
L 202.709749 118.828375 
L 219.3587 110.236814 
L 227.683175 106.190617 
L 231.845413 104.224426 
L 240.169889 100.398981 
L 269.305553 88.009602 
L 269.305553 88.009602 
L 277.630028 84.722204 
L 298.441217 76.926924 
L 310.927931 72.512788 
L 315.090168 71.081634 
L 319.252406 69.669692 
L 344.225833 61.574302 
L 385.84821 49.329313 
" clip-path="url(#pd2a06f4776)" style="fill: none; stroke: #ff0000; stroke-width: 1.5; stroke-linecap: square"/>
   </g>
   <g id="patch_3">
    <path d="M 44.960938 266.112 
L 44.960938 -0 
" style="fill: none; stroke: #000000; stroke-width: 0.8; stroke-linejoin: miter; stroke-linecap: square"/>
   </g>
   <g id="patch_4">
    <path d="M 402.080938 266.112 
L 402.080938 -0 
" style="fill: none; stroke: #000000; stroke-width: 0.8; stroke-linejoin: miter; stroke-linecap: square"/>
   </g>
   <g id="patch_5">
    <path d="M 44.960938 266.112 
L 402.080938 266.112 
" style="fill: none; stroke: #000000; stroke-width: 0.8; stroke-linejoin: miter; stroke-linecap: square"/>
   </g>
   <g id="patch_6">
    <path d="M 44.960938 -0 
L 402.080938 -0 
" style="fill: none; stroke: #000000; stroke-width: 0.8; stroke-linejoin: miter; stroke-linecap: square"/>
   </g>
   <g id="legend_1">
    <g id="patch_7">
     <path d="M 51.960938 37.35625 
L 191.7 37.35625 
Q 193.7 37.35625 193.7 35.35625 
L 193.7 7 
Q 193.7 5 191.7 5 
L 51.960938 5 
Q 49.960938 5 49.960938 7 
L 49.960938 35.35625 
Q 49.960938 37.35625 51.960938 37.35625 
z
" style="fill: #ffffff; opacity: 0.8; stroke: #cccccc; stroke-linejoin: miter"/>
    </g>
    <g id="line2d_17">
     <path d="M 53.960938 13.098437 
L 63.960938 13.098437 
L 73.960938 13.098437 
" style="fill: none; stroke: #000080; stroke-width: 1.5; stroke-linecap: square"/>
    </g>
    <g id="text_17">
     <!-- Linear Trendline -->
     <g transform="translate(81.960938 16.598437)scale(0.1 -0.1)">
      <defs>
       <path id="DejaVuSans-4c" d="M 628 4666 
L 1259 4666 
L 1259 531 
L 3531 531 
L 3531 0 
L 628 0 
L 628 4666 
z
" transform="scale(0.015625)"/>
       <path id="DejaVuSans-6e" d="M 3513 2113 
L 3513 0 
L 2938 0 
L 2938 2094 
Q 2938 2591 2744 2837 
Q 2550 3084 2163 3084 
Q 1697 3084 1428 2787 
Q 1159 2491 1159 1978 
L 1159 0 
L 581 0 
L 581 3500 
L 1159 3500 
L 1159 2956 
Q 1366 3272 1645 3428 
Q 1925 3584 2291 3584 
Q 2894 3584 3203 3211 
Q 3513 2838 3513 2113 
z
" transform="scale(0.015625)"/>
       <path id="DejaVuSans-54" d="M -19 4666 
L 3928 4666 
L 3928 4134 
L 2272 4134 
L 2272 0 
L 1638 0 
L 1638 4134 
L -19 4134 
L -19 4666 
z
" transform="scale(0.015625)"/>
      </defs>
      <use xlink:href="#DejaVuSans-4c"/>
      <use xlink:href="#DejaVuSans-69" x="55.712891"/>
      <use xlink:href="#DejaVuSans-6e" x="83.496094"/>
      <use xlink:href="#DejaVuSans-65" x="146.875"/>
      <use xlink:href="#DejaVuSans-61" x="208.398438"/>
      <use xlink:href="#DejaVuSans-72" x="269.677734"/>
      <use xlink:href="#DejaVuSans-20" x="310.791016"/>
      <use xlink:href="#DejaVuSans-54" x="342.578125"/>
      <use xlink:href="#DejaVuSans-72" x="388.912109"/>
      <use xlink:href="#DejaVuSans-65" x="427.775391"/>
      <use xlink:href="#DejaVuSans-6e" x="489.298828"/>
      <use xlink:href="#DejaVuSans-64" x="552.677734"/>
      <use xlink:href="#DejaVuSans-6c" x="616.154297"/>
      <use xlink:href="#DejaVuSans-69" x="643.9375"/>
      <use xlink:href="#DejaVuSans-6e" x="671.720703"/>
      <use xlink:href="#DejaVuSans-65" x="735.099609"/>
     </g>
    </g>
    <g id="line2d_18">
     <path d="M 53.960938 27.776562 
L 63.960938 27.776562 
L 73.960938 27.776562 
" style="fill: none; stroke: #ff0000; stroke-width: 1.5; stroke-linecap: square"/>
    </g>
    <g id="text_18">
     <!-- Logarithmic Trendline -->
     <g transform="translate(81.960938 31.276562)scale(0.1 -0.1)">
      <defs>
       <path id="DejaVuSans-6f" d="M 1959 3097 
Q 1497 3097 1228 2736 
Q 959 2375 959 1747 
Q 959 1119 1226 758 
Q 1494 397 1959 397 
Q 2419 397 2687 759 
Q 2956 1122 2956 1747 
Q 2956 2369 2687 2733 
Q 2419 3097 1959 3097 
z
M 1959 3584 
Q 2709 3584 3137 3096 
Q 3566 2609 3566 1747 
Q 3566 888 3137 398 
Q 2709 -91 1959 -91 
Q 1206 -91 779 398 
Q 353 888 353 1747 
Q 353 2609 779 3096 
Q 1206 3584 1959 3584 
z
" transform="scale(0.015625)"/>
       <path id="DejaVuSans-67" d="M 2906 1791 
Q 2906 2416 2648 2759 
Q 2391 3103 1925 3103 
Q 1463 3103 1205 2759 
Q 947 2416 947 1791 
Q 947 1169 1205 825 
Q 1463 481 1925 481 
Q 2391 481 2648 825 
Q 2906 1169 2906 1791 
z
M 3481 434 
Q 3481 -459 3084 -895 
Q 2688 -1331 1869 -1331 
Q 1566 -1331 1297 -1286 
Q 1028 -1241 775 -1147 
L 775 -588 
Q 1028 -725 1275 -790 
Q 1522 -856 1778 -856 
Q 2344 -856 2625 -561 
Q 2906 -266 2906 331 
L 2906 616 
Q 2728 306 2450 153 
Q 2172 0 1784 0 
Q 1141 0 747 490 
Q 353 981 353 1791 
Q 353 2603 747 3093 
Q 1141 3584 1784 3584 
Q 2172 3584 2450 3431 
Q 2728 3278 2906 2969 
L 2906 3500 
L 3481 3500 
L 3481 434 
z
" transform="scale(0.015625)"/>
       <path id="DejaVuSans-68" d="M 3513 2113 
L 3513 0 
L 2938 0 
L 2938 2094 
Q 2938 2591 2744 2837 
Q 2550 3084 2163 3084 
Q 1697 3084 1428 2787 
Q 1159 2491 1159 1978 
L 1159 0 
L 581 0 
L 581 4863 
L 1159 4863 
L 1159 2956 
Q 1366 3272 1645 3428 
Q 1925 3584 2291 3584 
Q 2894 3584 3203 3211 
Q 3513 2838 3513 2113 
z
" transform="scale(0.015625)"/>
       <path id="DejaVuSans-63" d="M 3122 3366 
L 3122 2828 
Q 2878 2963 2633 3030 
Q 2388 3097 2138 3097 
Q 1578 3097 1268 2742 
Q 959 2388 959 1747 
Q 959 1106 1268 751 
Q 1578 397 2138 397 
Q 2388 397 2633 464 
Q 2878 531 3122 666 
L 3122 134 
Q 2881 22 2623 -34 
Q 2366 -91 2075 -91 
Q 1284 -91 818 406 
Q 353 903 353 1747 
Q 353 2603 823 3093 
Q 1294 3584 2113 3584 
Q 2378 3584 2631 3529 
Q 2884 3475 3122 3366 
z
" transform="scale(0.015625)"/>
      </defs>
      <use xlink:href="#DejaVuSans-4c"/>
      <use xlink:href="#DejaVuSans-6f" x="53.962891"/>
      <use xlink:href="#DejaVuSans-67" x="115.144531"/>
      <use xlink:href="#DejaVuSans-61" x="178.621094"/>
      <use xlink:href="#DejaVuSans-72" x="239.900391"/>
      <use xlink:href="#DejaVuSans-69" x="281.013672"/>
      <use xlink:href="#DejaVuSans-74" x="308.796875"/>
      <use xlink:href="#DejaVuSans-68" x="348.005859"/>
      <use xlink:href="#DejaVuSans-6d" x="411.384766"/>
      <use xlink:href="#DejaVuSans-69" x="508.796875"/>
      <use xlink:href="#DejaVuSans-63" x="536.580078"/>
      <use xlink:href="#DejaVuSans-20" x="591.560547"/>
      <use xlink:href="#DejaVuSans-54" x="623.347656"/>
      <use xlink:href="#DejaVuSans-72" x="669.681641"/>
      <use xlink:href="#DejaVuSans-65" x="708.544922"/>
      <use xlink:href="#DejaVuSans-6e" x="770.068359"/>
      <use xlink:href="#DejaVuSans-64" x="833.447266"/>
      <use xlink:href="#DejaVuSans-6c" x="896.923828"/>
      <use xlink:href="#DejaVuSans-69" x="924.707031"/>
      <use xlink:href="#DejaVuSans-6e" x="952.490234"/>
      <use xlink:href="#DejaVuSans-65" x="1015.869141"/>
     </g>
    </g>
   </g>
  </g>
 </g>
 <defs>
  <clipPath id="pd2a06f4776">
   <rect x="44.960938" y="-0" width="357.12" height="266.112"/>
  </clipPath>
 </defs>
</svg>
